<?xml version="1.0" standalone="no"?>
<!DOCTYPE svg PUBLIC "-//W3C//DTD SVG 1.1//EN" "http://www.w3.org/Graphics/SVG/1.1/DTD/svg11.dtd" >
<svg xmlns="http://www.w3.org/2000/svg">
<metadata></metadata>
<defs>
<font id="nigma_scrawl_brkregular" horiz-adv-x="788" >
<font-face units-per-em="2048" ascent="1638" descent="-410" />
<missing-glyph horiz-adv-x="819" />
<glyph horiz-adv-x="0" />
<glyph horiz-adv-x="682" />
<glyph unicode=" "  horiz-adv-x="819" />
<glyph unicode="&#x09;" horiz-adv-x="819" />
<glyph unicode="&#xa0;" horiz-adv-x="819" />
<glyph unicode="!" horiz-adv-x="731" d="M20 172q18 -43 52 -74.5t84 -31.5q47 0 88 25.5t71.5 63.5t49 84t18.5 89v49q-14 53 -58 80.5t-94 27.5q-43 0 -81.5 -26.5t-67.5 -65.5t-45.5 -86t-16.5 -86v-49zM110 966.5q1 -40.5 1 -75.5v-94q10 -47 38.5 -89t83.5 -42q66 0 116 44t91 87q8 10 25.5 37.5t37 59.5 t37 59.5t23.5 39.5q2 6 13.5 30t24.5 53.5t25.5 57t18.5 42.5q2 6 6 16t8.5 22.5t7.5 21.5t3 13l41 295v27q0 31 -8.5 66.5t-24.5 66.5t-42 51.5t-63 20.5q-68 0 -121 -33t-94 -84t-69.5 -112.5t-46.5 -116.5q-6 -23 -23.5 -77.5t-38 -115.5t-38 -116.5t-23.5 -78.5 q-10 -35 -9 -75.5z" />
<glyph unicode="&#x22;" horiz-adv-x="624" d="M20 1255q0 -33 6.5 -71.5t23 -71.5t44 -55.5t68.5 -22.5q35 0 70.5 24.5t35.5 65.5q0 27 -10 49.5t-16 49.5q-4 25 -9.5 66.5t-16.5 81.5t-33.5 69.5t-63.5 29.5q-37 0 -56.5 -24.5t-28.5 -59t-11.5 -70.5t-2.5 -61zM365 1292q0 -29 6 -72.5t21.5 -84.5t42 -71t67.5 -30 q35 0 55.5 21.5t30.5 52.5t13 64.5t3 58.5q0 33 -9 80t-28.5 90t-49.5 72.5t-71 29.5q-31 0 -47 -26.5t-23 -61.5t-9 -70t-2 -53z" />
<glyph unicode="#" horiz-adv-x="1374" d="M18 897q0 -23 13.5 -37t32 -22.5t40 -11.5t39.5 -3q12 0 41 -1t62 -1q35 0 63.5 1t40.5 1q27 -6 38 -25.5t11 -43.5q0 -31 -2 -69t-13 -72.5t-32.5 -61.5t-58.5 -33q-10 0 -37 -1t-55.5 -2t-54 -3t-35.5 -2q-29 -2 -48.5 -19.5t-19.5 -46.5q0 -41 37 -55t72 -18 q6 0 24.5 -2t37.5 -3t37.5 -2.5t24.5 -1.5q25 -10 29 -22t4 -33q0 -39 -9 -74.5t-9 -76.5t16.5 -70t63.5 -29h28q18 14 25 33q-4 125 33 240q49 55 104 72.5t131 17.5q23 0 34 -8.5t28 -24.5v-37q0 -29 -5.5 -58.5t-5.5 -58.5q0 -31 10.5 -62.5t51.5 -31.5q53 0 66.5 40 t17.5 93.5t13 106.5t56 82q31 18 68 16t72 8q10 2 37.5 9.5t57.5 14.5t57.5 14t37.5 12q57 18 58 71q0 18 -4.5 29.5t-28.5 21.5q-8 2 -33 2h-29q-59 0 -115.5 -13t-115.5 -13q-27 0 -52.5 14.5t-25.5 46.5q0 31 2 66t14 63q14 33 49 48.5t79 20.5t91.5 6t86.5 8t64.5 23.5 t25.5 53.5q0 20 -14.5 38.5t-34.5 22.5q-8 0 -35 1.5t-35 1.5q-45 0 -89 -5.5t-89 -5.5h-41q-6 4 -21.5 19.5t-19.5 21.5v15q0 35 3 70.5t21 64.5q16 25 29.5 41t13.5 45q0 39 -17 50t-54 11q-35 0 -58.5 -14t-35.5 -51q-2 -12 -8.5 -43t-12.5 -65t-12 -64.5t-8 -42.5 q-8 -35 -30 -55.5t-50.5 -30t-61 -11.5t-61.5 -2q-23 0 -49.5 16.5t-28.5 41.5l-16 247q-2 23 -22.5 44.5t-43.5 21.5q-20 0 -35.5 -12.5t-21.5 -28.5v-65q0 -51 4 -99.5t4 -99.5q0 -31 -18.5 -50.5t-47.5 -31.5q-147 -20 -297 -25q-43 -12 -43 -57zM522 618q0 20 2 54.5 t9.5 67t23.5 59t47 32.5q6 0 24.5 3.5t38 5.5t38 5t24.5 3h19h14l49 -49v-11v-14q-2 -8 -4 -25.5t-5 -36t-5 -34.5t-2 -21q-6 -31 -34 -49t-63.5 -27.5t-70.5 -11.5t-56 -2q-49 0 -49 51z" />
<glyph unicode="$" horiz-adv-x="1406" d="M20 553q0 -66 39 -126t95.5 -111.5t119 -92.5t109.5 -67q4 -2 24.5 -11.5t24.5 -13.5q16 -12 29.5 -32.5t28 -40t31 -35t38.5 -15.5q16 0 30.5 7.5t29 16.5t28 17t27.5 8q25 0 37 -18.5t23 -40t25.5 -38.5t39.5 -17q31 0 44 13t21 31.5t16.5 40t28.5 38.5q23 18 55.5 16 t59.5 8q4 2 17.5 8t28.5 13.5t27.5 13.5t16.5 6q6 4 25.5 9t23.5 7q66 18 109 37t69.5 49.5t37 77.5t10.5 119q0 14 -1 39l-2 25q0 2 -7 23.5t-16 47t-18.5 52t-15.5 42.5q-33 84 -96.5 147.5t-126.5 123.5q-29 29 -59.5 53.5t-30.5 69.5q0 12 1 43.5t8 63.5t21.5 57.5 t38.5 25.5q31 0 69 -17.5t77 -17.5q4 0 16.5 1t16.5 1q20 6 22 18.5t2 28.5q0 49 -32.5 77t-70.5 46.5t-71 36t-33 47.5q0 16 5.5 31.5t5.5 32.5q0 25 -15.5 49.5t-39 43.5t-51.5 30.5t-52 11.5q-31 0 -51.5 -20.5t-34.5 -48t-26.5 -57.5t-26.5 -48q-29 -37 -74 -55.5 t-87 -39t-73 -51t-31 -90.5q0 -41 12.5 -69.5t34 -53t47 -48t54.5 -54.5q14 -14 16 -20.5t2 -22.5q0 -49 -8 -102.5t-18 -100.5q-6 -27 -17.5 -78t-23 -103t-21.5 -95t-12 -53q0 -4 -4 -17.5t-9 -31t-11.5 -34t-8.5 -24.5q-8 -25 -25.5 -58.5t-50.5 -33.5q-41 0 -87 20.5 t-89 52t-80.5 67.5t-62.5 67q-10 14 -18.5 32.5t-16.5 36t-18.5 33t-28.5 21.5q-4 4 -13.5 6t-11.5 2q-16 0 -28.5 -11.5t-12.5 -27.5zM678 1237q0 18 12 37.5t35 19.5q20 0 20 -22v-4q-4 -8 -13 -31t-11 -27l-8 -8q-14 0 -24.5 12.5t-10.5 22.5zM694 272v17q33 90 55.5 174 t28.5 180q2 8 8 8h13h10t10 -8v-43q0 -10 -5 -40t-13 -68.5t-19.5 -81.5t-22.5 -80t-23.5 -60.5t-22.5 -23.5q-14 0 -16.5 8t-2.5 18zM842 1176q0 31 8 56t43 36q10 -6 13 -17.5t3 -21.5q0 -23 -9 -41.5t-23 -42.5q-2 0 -6.5 -1t-6.5 -1q-16 0 -19 8.5t-3 24.5zM901 289v16 l74 461q6 41 45 41h12q43 -39 83 -84t71 -96.5t50 -106.5t19 -117q0 -47 -30.5 -80.5t-74.5 -56t-92 -34t-83 -11.5q-29 0 -51.5 17.5t-22.5 50.5z" />
<glyph unicode="%" horiz-adv-x="1118" d="M20 106q0 -35 18.5 -55t53.5 -20q45 0 67.5 26.5t35 65.5t20.5 82t27 76q10 18 37.5 61t59.5 91t60.5 91t40.5 60q12 18 42 57t67 88t78 102.5t78.5 102.5t67.5 87t44 56q84 115 152.5 236t128.5 250v24q0 25 -12.5 45.5t-41.5 20.5q-23 0 -41 -16.5t-28 -32.5 q-4 -4 -13.5 -22.5t-20.5 -39t-20.5 -39t-11.5 -22.5q-20 -33 -54 -89.5t-68.5 -111.5t-61.5 -97t-31 -48l-444 -592q-2 -4 -24.5 -42t-53.5 -87t-61.5 -101.5t-49 -83t-30 -59.5t-11.5 -64zM119 1278q0 -55 25.5 -94t80.5 -58h58q78 0 125 20.5t98 78.5q8 10 30.5 37.5 t47 57.5t47 57.5t31.5 37.5q25 43 46 96.5t21 104.5q0 37 -17.5 59.5t-45 36.5t-59.5 19.5t-60 5.5q-74 0 -151 -45t-138 -113t-100 -148.5t-39 -152.5zM258 1325q0 20 22.5 54t55.5 66t68.5 54.5t62.5 22.5q25 0 40 -19.5t15 -42.5q0 -25 -25.5 -56.5t-59.5 -60t-69.5 -49 t-54.5 -20.5q-20 0 -37.5 14t-17.5 37zM389 176q0 -72 37 -130t113 -79q8 0 32.5 -1t32.5 -1q35 0 68 3t63 24q14 8 48 30.5t72 47t72 47t48 30.5q25 18 44 58.5t33.5 86.5t21.5 90t7 75q0 57 -19.5 114.5t-54 102.5t-85 72.5t-113.5 27.5h-25q-18 0 -24 -2q-4 0 -12.5 -6 t-12.5 -10t-14 -13.5t-20.5 -20.5t-19.5 -20.5t-11 -11.5q-45 -51 -94.5 -110.5t-91.5 -124t-68.5 -135t-26.5 -144.5zM530 184q0 43 22.5 99.5t56.5 113t72 105.5t71 73q23 16 47 21.5t51 5.5q31 0 51.5 -14.5t32.5 -37t18 -49t6 -52.5q0 -57 -32.5 -116t-83.5 -105 t-111.5 -75.5t-116.5 -29.5q-10 0 -24.5 4t-27.5 12t-22.5 19.5t-9.5 25.5z" />
<glyph unicode="&#x26;" horiz-adv-x="1257" d="M20 195q0 -49 21.5 -88t57.5 -65t80 -39t89 -13q47 0 81 4t83 22l344 131q2 2 10 3h13q23 0 48 -10.5t49 -26t44.5 -30.5t34.5 -26q20 -16 33.5 -36.5t26 -40t29.5 -33t46 -13.5q37 0 61.5 21.5t24.5 60.5q0 37 -29.5 66t-65.5 53.5t-65.5 44t-29.5 37.5q0 29 30.5 46.5 t69.5 31.5t77 30.5t54 45.5q0 4 1 12t1 12q0 29 -20.5 59.5t-55.5 30.5h-8q-72 -27 -142.5 -71.5t-138.5 -75.5q-4 0 -14 -1t-14 -1q-25 0 -67 23.5t-92 60.5t-101 82t-93 88t-69 79t-27 54q0 12 5.5 25.5t13.5 23.5q4 8 13 22.5t18.5 30t16.5 26.5t9 13l401 557 q14 20 16.5 28.5t2.5 29.5q0 51 -34 67.5t-79 16.5q-53 0 -97 -13.5t-95 -36.5q-76 -35 -162 -84t-159.5 -112.5t-123 -143t-49.5 -178.5q0 -53 16.5 -98t41.5 -92q12 -20 31.5 -49t19.5 -56q0 -14 -2 -21t-8 -22q-4 -6 -17.5 -32.5t-29 -57t-29 -57.5t-15.5 -33 q-29 -66 -55.5 -138.5t-26.5 -143.5zM168 229q0 35 11 74t27.5 77t35 73.5t32.5 64.5q10 23 21.5 29t28.5 6q16 0 22 -3t21 -15l270 -246q6 -6 7 -12.5t1 -12.5q0 -33 -33 -43l-262 -74h-47q-20 0 -43.5 2.5t-44 11.5t-34 24t-13.5 44zM225 1001q0 74 49 134q8 8 31 26.5 t48.5 40t47 40t31.5 24.5q6 4 20.5 15t31 22.5t32.5 21.5t23 14q4 2 16 9.5t27.5 14.5t30 12t24.5 5t17.5 -7t7.5 -17v-8q-2 -4 -8.5 -16.5t-8.5 -16.5l-303 -410q-16 -23 -22.5 -29t-22.5 -6q-23 0 -37 14.5t-21.5 35t-10.5 43t-3 38.5z" />
<glyph unicode="'" horiz-adv-x="237" d="M20 1233q0 -37 4.5 -67.5t28.5 -61.5q16 -20 44 -47t59 -27q16 0 33.5 9.5t27.5 23.5v94q0 27 -1 72t-10 88t-30.5 74.5t-64.5 31.5q-35 0 -53.5 -20.5t-26.5 -49t-9.5 -62t-1.5 -58.5z" />
<glyph unicode="(" horiz-adv-x="806" d="M20 651q0 -92 34 -193.5t92.5 -192.5t136 -162.5t166.5 -102.5q23 -8 38 -14t27 -11.5t24.5 -7.5t28.5 -2q33 0 56.5 19.5t23.5 52.5q0 41 -18.5 59.5t-45 26.5t-56 12t-54.5 21q-53 37 -107.5 93t-98.5 123.5t-71.5 141.5t-27.5 141q0 59 11 112.5t22 113.5 q16 86 60 151.5t89 136.5q18 33 32.5 65t41.5 58q6 8 24.5 26.5l40 40l40 40l26.5 26.5q33 16 73 34t74.5 40.5t59 54t24.5 76.5v33q-16 20 -28.5 27.5t-34.5 7.5q-18 0 -41 -9.5t-44.5 -22.5t-40.5 -27.5t-34 -24.5q-115 -88 -214 -193.5t-172 -226.5t-115 -257t-42 -286z " />
<glyph unicode=")" horiz-adv-x="806" d="M20 68q0 -23 14.5 -39.5t35.5 -20.5h53q45 0 116.5 18.5t143.5 49t133.5 68.5t89.5 79q6 10 19.5 39t29 59.5t29.5 59.5t21 39q14 29 31.5 56.5t25.5 58.5q2 14 5 52t7 80t8 79.5t4 52.5v59q0 59 -9 129t-27.5 139.5t-48 133t-70.5 108.5q-10 10 -36 37t-54.5 57.5 t-55 57l-36.5 36.5q-39 33 -78 58.5t-90 25.5q-33 0 -52.5 -19t-19.5 -52q0 -29 14.5 -48.5t33.5 -35t40.5 -28.5t36.5 -32q51 -70 95 -123t110 -116q47 -84 73.5 -177.5t26.5 -189.5q0 -150 -60.5 -294t-170.5 -244q-35 -33 -100.5 -54.5t-129 -43t-111 -47t-47.5 -68.5z " />
<glyph unicode="*" horiz-adv-x="921" d="M20 1417q0 -41 26 -55t57.5 -20.5t57 -13.5t25.5 -30q0 -8 -2 -8q-8 -8 -26.5 -27.5t-40 -42t-40 -43t-24.5 -28.5q-16 -16 -20 -32.5t-4 -39.5q0 -59 63 -59q16 0 22.5 1t20.5 15l182 180q1 3 5 3q27 0 32.5 -33t11 -71t21.5 -70.5t68 -32.5q23 0 45 10t22 39v106 q0 4 12 11l13 6q14 -16 33.5 -38t41 -40.5t45 -31.5t48.5 -13q29 0 50 18.5t21 46.5q0 39 -25.5 69t-57 57.5t-57 55t-25.5 58.5q0 20 13 33.5t32.5 20.5t41 9.5t35.5 2.5q25 0 49.5 -4.5t49.5 -4.5t42 19.5t17 42.5q0 35 -25.5 54t-57.5 31.5t-57.5 19.5t-25.5 18 q0 16 9.5 28.5t20.5 24.5t20.5 27.5t9.5 39.5q0 31 -14.5 56.5t-51.5 25.5q-18 0 -33.5 -9t-29 -20.5t-26.5 -20.5t-26 -9q-29 0 -37 22.5t-14 49t-20.5 49t-57.5 22.5q-4 0 -15 -1t-13 -1q-10 -4 -27.5 -20.5t-17.5 -20.5v-139q0 -2 -4.5 -4t-8.5 -4q-10 -6 -13 -8t-13 -2 q-18 0 -44 24.5t-53.5 54t-57.5 54t-58 24.5q-31 0 -49 -24v-33q0 -35 18 -68.5t44 -64.5t54.5 -58.5t48.5 -48.5v-12q0 -23 -24 -37q-6 0 -17.5 -1t-24.5 -2t-25.5 -3t-16.5 -2q-12 -2 -37 -6t-49.5 -13.5t-43 -23.5t-18.5 -35z" />
<glyph unicode="+" horiz-adv-x="747" d="M20 965q0 -43 35 -69t83 -39t96.5 -18t72.5 -10q4 0 9.5 -3t7.5 -5q25 -18 36 -52t22 -65.5t30.5 -55t58.5 -23.5q16 0 37.5 10t21.5 31v122q0 31 31 44.5t69 25.5t68.5 30.5t30.5 59.5q0 39 -17.5 51.5t-43 15.5t-52 4t-45.5 17q-25 20 -36 53t-23 65t-32.5 55.5 t-63.5 23.5h-17q-37 -18 -44 -52t-10 -70t-12 -66.5t-50 -40.5q-4 -2 -25 -3h-25q-39 0 -75.5 9.5t-75.5 9.5q-25 0 -43.5 -14t-18.5 -41z" />
<glyph unicode="," horiz-adv-x="419" d="M20 182q0 -45 20.5 -79.5t46.5 -68.5t46.5 -71t20.5 -84q0 -25 -10.5 -43t-24 -36.5t-23.5 -38t-10 -44.5q0 -39 25.5 -58t60.5 -19q39 0 80 35.5t73.5 85t53 102.5t20.5 90v272q0 2 -6 15.5t-10 17.5q-41 47 -85 68.5t-105 21.5q-74 0 -123.5 -44t-49.5 -122z" />
<glyph unicode="-" d="M18 907q0 -41 34 -63.5t71 -22.5q131 0 265 11.5t265 21.5q41 4 79 23.5t38 66.5q0 29 -16.5 46.5t-42.5 27.5q-6 0 -26.5 1t-27.5 1q-10 0 -30.5 -1t-22.5 -1q-12 0 -56 -4t-96.5 -8.5t-96.5 -8.5t-56 -4q-23 -2 -54.5 -1t-66.5 1q-33 0 -63.5 -3t-53.5 -13 q-6 -4 -21 -19.5t-20 -21.5l-1 -12q-1 -11 -1 -17z" />
<glyph unicode="." horiz-adv-x="378" d="M20 147q0 -59 37 -103t101 -44q37 0 72.5 13.5t65.5 38t47 58t17 72.5q0 72 -45 101.5t-108 29.5q-76 0 -131.5 -41t-55.5 -125z" />
<glyph unicode="/" horiz-adv-x="1091" d="M-117 -49q0 -27 15.5 -43.5t44.5 -16.5q39 0 67.5 24t53 55.5t47 67.5t45.5 60l829 1121q8 8 28.5 29.5t43 44t42 44t27.5 29.5q29 33 51.5 65.5t22.5 79.5q0 33 -17.5 55.5t-52.5 22.5q-43 0 -73.5 -33.5t-52.5 -64.5q-6 -6 -17.5 -24.5t-25 -38t-25.5 -38t-16 -24.5 l-1012 -1350q-25 -30 -25 -65z" />
<glyph unicode="0" horiz-adv-x="1216" d="M18 451q0 -43 11 -89q20 -82 58 -158.5t94.5 -137t129 -96.5t162.5 -36q129 0 238.5 55.5t195.5 149.5q59 63 112.5 129t92.5 136.5t61.5 149.5t22.5 171q0 72 -19.5 135.5t-53 119.5t-76.5 108.5t-89 103.5q-14 14 -22 37.5t-17.5 46t-22.5 40t-38 23.5q-8 4 -31.5 10.5 t-49 13.5t-49 12t-34.5 5q-4 2 -31.5 3t-41.5 1q-8 0 -37 -1t-37 -3q-68 -16 -129.5 -57t-110.5 -90q-147 -147 -218 -315t-71 -377v-90zM152 508q0 125 25.5 255t105.5 232q20 25 66 61t100.5 69.5t106.5 58t85 24.5q80 0 153.5 -50t130 -125t90.5 -161t34 -155 q0 -57 -5.5 -117.5t-27.5 -114.5q-31 -68 -89.5 -140.5t-132 -132.5t-155.5 -99t-158 -39q-41 0 -84 19.5t-71 45.5q-86 78 -130 165t-44 204z" />
<glyph unicode="1" horiz-adv-x="305" d="M20 1266q0 -92 20.5 -183.5t29.5 -183.5q16 -180 30.5 -358.5t26.5 -358.5q0 -6 3 -25.5t5 -42t5 -44t3 -29.5q4 -27 22.5 -43t45.5 -16q25 0 46.5 17t27.5 42v70v71q0 4 -3 20.5t-6.5 37t-5.5 37t-2 20.5q-10 98 -13 195.5t-28 193.5q-2 20 -6 73.5t-10 112t-10 111.5 t-6 74q-2 4 -5.5 23.5t-3.5 25.5q-2 6 -7 28.5t-12 49t-14.5 51.5t-9.5 37q-8 29 -23.5 47t-47.5 18q-33 0 -42.5 -23t-9.5 -48z" />
<glyph unicode="2" horiz-adv-x="1134" d="M18 1343q0 -23 17.5 -34t38.5 -11q23 0 42 5.5t40 5.5q66 0 129 -27t116.5 -71t93.5 -100t60 -116q2 -6 10 -34.5t19.5 -63.5t20.5 -69.5t16 -53.5q4 -12 10 -40.5t6 -35.5v-36q0 -86 -17.5 -163t-80.5 -137q-4 -4 -11 -8l-6 -4h-289q-39 0 -70.5 -21.5t-54 -54 t-35 -71.5t-12.5 -72q0 -86 59.5 -137t145.5 -51q57 0 104.5 18.5t87.5 47t76.5 65.5t77.5 73q10 10 26 18.5t32 8.5q33 0 69.5 -14.5t73.5 -37t68.5 -48t52.5 -49.5q12 -14 24.5 -38t26.5 -46.5t32.5 -39t43.5 -16.5q23 0 38 16.5t15 39.5q0 66 -28.5 119t-71.5 95 t-93.5 73.5t-93.5 58t-71.5 48t-28.5 40.5v12q0 2 4 15.5t8 28.5t8.5 28.5t4.5 17.5q10 37 13 76t3 76q0 129 -37 272t-111.5 265t-187.5 202t-266 80q-23 0 -48.5 -6t-47 -19.5t-37 -33t-15.5 -46.5zM201 137q0 25 15 41.5t39 26.5t48.5 14t42.5 4q25 0 55.5 -8t30.5 -41 v-8q-35 -31 -76 -61.5t-90 -30.5q-23 0 -44 20t-21 43z" />
<glyph unicode="3" horiz-adv-x="1224" d="M20 1130q0 -25 9.5 -37t31.5 -24q4 0 22.5 -1t22.5 -1q41 0 77 21.5t75 21.5h305q18 0 48 -4t57.5 -14.5t48 -27.5t20.5 -42q0 -23 -29.5 -43.5t-73.5 -40.5t-95.5 -44t-95.5 -50.5t-73.5 -57t-29.5 -67.5q0 -29 13.5 -51.5t34 -40t45 -30.5t48.5 -22l336 -122 q20 -6 57 -25.5t74 -46.5t64.5 -55.5t27.5 -53.5q0 -29 -21.5 -45t-43.5 -30q-104 -57 -207.5 -82t-224.5 -25h-86q-6 2 -25.5 8t-23.5 8q-10 4 -29 22.5t-37 39t-32.5 37t-18.5 16.5h-58q-14 0 -15 -11.5t-1 -19.5q0 -76 49 -133q37 -41 68 -64.5t64.5 -34.5t72.5 -13 t92 -2q92 0 171 12t165 45q39 14 92 33.5t100.5 48.5t80 68.5t32.5 97.5q0 74 -51 139.5t-124 115.5t-151.5 86t-134.5 52q-4 2 -23.5 7t-42 10.5t-42 10.5t-23.5 5q-4 2 -13 5t-11 3q-8 4 -16.5 15.5t-8.5 21.5v4q4 6 16.5 18.5t16.5 14.5l238 141q39 23 65.5 62.5 t26.5 84.5q0 55 -37 92.5t-88 61t-108.5 35.5t-96.5 16h-29q-18 0 -39.5 1t-40.5 1h-26h-35t-44.5 -1t-37.5 -1h-18q-6 0 -26.5 -2t-45.5 -5t-49.5 -5t-36.5 -4q-20 -2 -46 -9t-48.5 -19.5t-38 -31t-15.5 -43.5z" />
<glyph unicode="4" horiz-adv-x="1069" d="M20 772q0 -49 19.5 -82t51.5 -52.5t73 -28.5t82 -9q84 0 166 21.5t159 21.5q20 0 40 -16.5t26 -34.5q2 -23 10 -81t17.5 -123.5t17.5 -124t12 -83.5q6 -39 19.5 -83t37 -82t57.5 -63.5t81 -25.5q33 0 61.5 15.5t50 40t35 56.5t13.5 64q0 23 -15.5 39.5t-38.5 16.5 q-12 0 -22 -7.5t-19.5 -14.5t-18.5 -14t-22 -7q-33 0 -45 32q-29 76 -42 162t-23 160q0 2 -2 19.5t-3 41t-3 47t-2 39.5v11q0 18 9 33.5t21.5 31t21.5 30.5t9 36q0 2 -1 11t-1 13q-4 2 -11 11.5t-14.5 20.5t-14.5 20.5t-9 13.5q-4 4 -11 14l-8 10l-16 404q0 29 -27.5 39 t-48.5 10q-27 0 -41 -12.5t-21 -30.5t-8 -39.5t-1 -40.5q0 -37 4 -71.5t4 -69.5q0 -55 -2 -98t-6 -107q-20 -41 -56.5 -62.5t-78.5 -31.5t-87 -12t-82 -2h-20h-31q-14 0 -28.5 1t-20.5 1q-12 4 -32.5 22.5t-16.5 34.5l49 237q0 2 1 11.5t1 13.5q0 20 1 52t-4 60.5t-19.5 49 t-44.5 20.5q-51 0 -66 -51q-2 -39 -4 -85t-12 -87q-14 -61 -32 -125.5t-18 -130.5z" />
<glyph unicode="5" horiz-adv-x="1175" d="M20 1241q0 -37 23 -62.5t35 -60.5q2 -8 8 -22.5t11 -29.5l9.5 -28.5t4.5 -17.5q23 -82 31 -167t10 -171q2 -18 15 -32.5t26 -24.5q4 0 18 -1t18 -1q33 0 63 11t58.5 23.5t59 23.5t63.5 11t63.5 -10t59.5 -25q12 -6 43 -20t64.5 -31.5t63.5 -33t42 -21.5q27 -14 64.5 -44 t70.5 -67t56.5 -76.5t23.5 -76.5q0 -43 -46 -75t-106.5 -51.5t-122 -28.5t-92.5 -9h-28q-16 2 -59.5 10t-92.5 15.5t-92 14.5t-59 9q-18 4 -38 10t-30 23q-4 8 -10 22.5t-12.5 28.5t-15.5 27.5t-19 21.5h-29q-37 0 -65.5 -23.5t-28.5 -62.5q0 -37 22.5 -66.5t55 -54 t69.5 -41t66 -24.5q20 -6 53 -14.5t64.5 -15.5t55 -13t25.5 -6h263q6 0 18 4t26.5 8t25.5 8l12 4q59 14 117.5 30.5t103.5 44.5t72.5 74t27.5 119q0 109 -71.5 209.5t-177 177t-225.5 122.5t-216 46q-37 0 -66.5 -1t-64.5 -17q-18 4 -36.5 22.5t-23.5 36.5q-2 41 -6 74 t-10 63.5t-14 61.5t-19 72v12q0 29 28 51.5t56 22.5h402q29 0 60.5 28.5t31.5 57.5q0 27 -18.5 42t-41.5 23q-8 2 -32 2h-33q-92 0 -189.5 -6t-189.5 -12q-25 0 -71 -5t-92 -18.5t-81 -37t-35 -62.5z" />
<glyph unicode="6" horiz-adv-x="897" d="M20 428q0 -106 12.5 -194.5t50.5 -151t107.5 -97t184.5 -34.5q68 0 127 26.5t111.5 67.5t99.5 90t90 96q43 45 58.5 100.5t15.5 114.5q0 37 -10.5 64t-29 49.5t-42 45t-50.5 46.5q-43 41 -87 49.5t-101 8.5q-47 0 -96 -3.5t-94 -21.5q-20 -10 -40 -25.5t-39.5 -30 t-40 -25.5t-42.5 -11q-18 0 -23.5 11t-5.5 28q0 143 36 297.5t81 290.5q10 33 29.5 46t38 25.5t33 31.5t14.5 64q0 53 -12.5 81t-53.5 65h-25q-47 0 -75.5 -38t-40.5 -79l-115 -395q-2 -4 -7 -40t-11.5 -82t-13.5 -92t-9 -73q0 -8 -4 -45t-8 -83t-7 -91t-6 -70v-16zM225 330 q0 29 6.5 47t20.5 43q59 63 124.5 114.5t158.5 51.5q33 0 68.5 -11.5t65 -31t49 -49t19.5 -66.5q0 -55 -26.5 -106.5t-69.5 -89t-97.5 -61.5t-107.5 -24q-39 0 -76.5 13.5t-67.5 37t-48.5 57.5t-18.5 75z" />
<glyph unicode="7" horiz-adv-x="1003" d="M20 1380q0 -43 41 -73.5t95.5 -50t110 -28.5t83.5 -11h121q61 0 120.5 9t121.5 9q16 0 32.5 -16.5t16.5 -32.5q0 -25 -13.5 -63t-21.5 -54q-2 -6 -14.5 -32.5t-25.5 -57.5t-26.5 -57.5t-15.5 -32.5q-6 -18 -32.5 -88t-57.5 -151t-57.5 -150.5t-32.5 -87.5 q-16 -41 -37.5 -81t-41 -81t-33 -84t-13.5 -88q0 -4 1 -22.5t1 -22.5q10 -16 22.5 -20.5t30.5 -4.5q25 0 41.5 16.5t27.5 40t18 49t16 42.5q4 10 22.5 47l40 80t38.5 80.5t22 48.5q4 8 17 46t28.5 81t28 79.5t16.5 47.5q6 14 28.5 66t49 111.5t50 112t29.5 64.5 q31 74 54.5 148.5t60.5 148.5v33q0 41 -19.5 57t-60.5 16h-18q-4 0 -19.5 -4t-34 -8t-34 -8t-19.5 -4q-104 -16 -207.5 -24.5t-210.5 -8.5q-53 0 -102 11.5t-98 29.5q-23 10 -43.5 21.5t-46.5 11.5q-31 0 -40.5 -17.5t-9.5 -42.5z" />
<glyph unicode="8" horiz-adv-x="1159" d="M20 180q0 -162 95.5 -249t251.5 -87q104 0 204.5 38t192.5 98.5t173 135t144 148.5q35 43 46.5 91t11.5 102q0 53 -20.5 101t-51.5 92t-66.5 85t-66.5 80q-4 4 -15.5 19.5t-11.5 25.5t13.5 30.5t21.5 31.5q2 2 13.5 13t23.5 23.5t23.5 22.5t13.5 14q43 51 66.5 102.5 t23.5 116.5q0 27 -3 53.5t-22 49.5q-20 25 -65 64.5t-98.5 78.5t-107.5 66.5t-91 27.5q-25 0 -37 -9t-21.5 -24.5t-17.5 -33t-22 -31.5q-41 -45 -83 -94t-77 -103.5t-57.5 -113t-22.5 -123.5q0 -43 19.5 -83t39.5 -75q-8 -43 -38.5 -61.5t-59.5 -44.5q-59 -53 -116.5 -119 t-103.5 -139.5t-74 -154.5t-28 -165zM160 195q0 49 13 94t34.5 88t48.5 84t53 82q25 37 73 82t106.5 84t118 64.5t104.5 25.5h32q12 -10 20.5 -25.5t16.5 -31t16.5 -30t20.5 -20.5q39 -23 75 -48.5t63.5 -56t44 -70.5t16.5 -89q0 -29 -15.5 -57.5t-37 -55t-46 -48 t-40.5 -36.5q-51 -43 -108.5 -89t-121 -82.5t-131 -60.5t-137.5 -24q-102 0 -160.5 58t-58.5 162zM522 1040q0 33 20.5 85.5t50.5 102.5t64.5 86t65.5 36q18 0 61 -12.5t87 -33t78 -50t34 -62.5q0 -59 -43 -105.5t-102.5 -80t-126 -51t-111.5 -17.5h-20q-35 27 -46.5 45 t-11.5 57z" />
<glyph unicode="9" horiz-adv-x="880" d="M20 1059q0 -76 35 -127t90.5 -83t122 -45t127.5 -13q31 0 58.5 8t56.5 8q16 0 27.5 -12.5t11.5 -28.5q0 -2 -1 -8t-1 -8q-25 -82 -50.5 -171.5t-47 -179.5t-36 -182t-14.5 -180q0 -35 19.5 -61.5t58.5 -26.5q27 0 48.5 17.5t35.5 44t21.5 56t7.5 52.5q0 35 -9.5 64.5 t-9.5 64.5q0 80 27 157.5t47 153.5q4 12 16.5 58.5t26.5 99.5t25.5 98t15.5 57q2 8 8 27t8 23q14 35 34 64.5t38.5 58t30.5 60.5t12 71q0 63 -32.5 110t-84 78t-113 46t-116.5 15q-68 0 -153 -27.5t-160.5 -76.5t-128 -115.5t-52.5 -146.5zM160 1067q0 47 41 89t99 73 t120.5 48t105.5 17q18 0 43 -2t45.5 -10t35 -24.5t14.5 -43.5v-12q-2 -8 -5.5 -26.5t-7.5 -40t-8 -40t-6 -24.5q-10 -31 -37 -58.5t-60.5 -48t-70.5 -31.5t-68 -11q-35 0 -76.5 6t-78.5 22.5t-61.5 44t-24.5 72.5z" />
<glyph unicode=":" horiz-adv-x="378" d="M20 295q0 -57 31 -94t90 -37q55 0 102.5 24.5t82.5 65.5v41q0 27 -9.5 62.5t-28 68.5t-45 54.5t-59.5 21.5q-35 0 -65.5 -20.5t-52 -51.5t-34 -67.5t-12.5 -67.5zM37 922q10 -39 44 -65t75 -26q31 0 61.5 11.5t58 31t49 44t33.5 53.5v45q0 74 -43 118t-116 44 q-41 0 -72 -17.5t-51.5 -45.5t-29.5 -63.5t-9 -72.5v-57z" />
<glyph unicode=";" horiz-adv-x="608" d="M18 -229q0 -27 28 -54.5t56 -27.5h123q4 0 21.5 9t27.5 15q43 27 71 57.5t44.5 67.5t27.5 78t23 86q12 47 22.5 78t10.5 78q0 63 -37 114.5t-108 51.5q-39 0 -69 -19.5t-50.5 -50.5t-30.5 -67.5t-10 -69.5v-49q10 -25 34.5 -54.5t24.5 -56.5q0 -41 -32.5 -61.5t-71.5 -36 t-72 -33.5t-33 -55zM250 907q0 -37 17.5 -66.5t44 -49t60.5 -30.5t68 -11q35 0 62.5 15t46 39.5t29 55.5t10.5 62q0 76 -53.5 125t-126.5 49q-35 0 -65 -17.5t-50.5 -45t-31.5 -60.5t-11 -66z" />
<glyph unicode="&#x3c;" horiz-adv-x="1093" d="M20 707q0 -27 17.5 -43.5t40.5 -30.5l848 -559q20 -14 28.5 -15.5t30.5 -1.5q33 0 52.5 13.5t19.5 48.5q0 43 -34 66.5t-73 27.5l-700 461q-16 12 -17 33v8q2 10 5 29l4 20l676 469q27 2 54 14.5t49.5 31.5t37 45t14.5 56q0 29 -17.5 44.5t-45.5 15.5q-16 0 -24.5 -2 t-27.5 -15l-897 -626q-18 -12 -29.5 -39.5t-11.5 -50.5z" />
<glyph unicode="=" horiz-adv-x="796" d="M20 817q0 -29 19.5 -48.5t46.5 -29.5q104 -16 196.5 -17t198.5 -1h41q31 0 65 1t64 1h43q27 10 46.5 30.5t19.5 51.5q0 18 -23.5 43.5t-42.5 25.5h-387l-32.5 6.5t-49 9.5t-50 8t-32.5 5h-12q-41 0 -76 -20.5t-35 -65.5zM37 1071q0 -35 24.5 -52.5t59.5 -17.5 q135 0 270 15.5t271 25.5q23 2 38 6.5t26 11.5t22.5 19.5t27.5 30.5v20q0 27 -13 42.5t-36 27.5h-41h-41q-6 0 -27.5 -3t-46 -6t-46 -5t-27.5 -2q-10 0 -46 -1t-78 -3t-79 -3t-45 -1q-10 -2 -35 -7.5t-52.5 -11.5t-52 -13t-32.5 -9q-23 -14 -32 -25.5t-9 -38.5z" />
<glyph unicode="&#x3e;" horiz-adv-x="1093" d="M20 115q0 -29 17.5 -43.5t44.5 -14.5q20 0 32.5 6.5t28.5 18.5l897 706q18 16 25.5 27.5t7.5 34.5q0 41 -33 63l-864 543q-16 10 -24.5 13.5t-24.5 3.5q-31 0 -60.5 -20.5t-29.5 -53.5q0 -25 14.5 -48.5t33.5 -46t40.5 -41t34.5 -30.5q2 -2 8 -5t8 -3q6 0 18.5 -2t27 -3 t27.5 -2t17 -1q27 -18 51 -19q25 0 50 -14l493 -312v-59l-799 -633q-18 -14 -29.5 -28t-11.5 -37z" />
<glyph unicode="?" horiz-adv-x="1167" d="M20 1069q14 -25 30 -38t44 -13q29 0 50.5 16.5t39 39t30.5 49t28 44.5q6 8 27.5 37t47 62.5t47 62.5t27.5 35q2 4 10.5 18.5t17.5 32t17 31.5t13 18q23 31 61.5 63t82.5 57.5t90 43t83 17.5q39 0 82 -34t78 -81t58.5 -101.5t23.5 -93.5q0 -70 -42 -104.5t-105.5 -51 t-137.5 -24.5t-137.5 -24.5t-105.5 -52.5t-42 -105q0 -39 5.5 -76t5.5 -76q0 -37 -5.5 -74.5t-5.5 -76.5q0 -8 1 -35t1 -35q4 -31 21.5 -57.5t52.5 -26.5q20 0 33.5 5t23.5 30q2 10 5.5 36.5t7.5 57.5t8 57.5t4 36.5q0 6 1 31t3 52.5t3 52t1 30.5q2 29 15.5 47.5t34 29.5 t44 17.5t45.5 12.5q76 16 149 29.5t129 44t91 86t35 155.5q0 68 -30 150t-81 154.5t-116.5 121.5t-137.5 49q-49 0 -99 -15t-98 -40t-91 -55.5t-78 -63.5l-322 -305q-41 -39 -57.5 -99.5t-16.5 -113.5v-41zM307 123q0 -47 25.5 -81t75.5 -34q18 0 30.5 -1t26.5 9 q25 18 52.5 37t51 39.5t39 46t15.5 60.5q0 53 -38 92t-91 39q-39 0 -73 -18.5t-59.5 -48.5t-40 -66.5t-14.5 -73.5z" />
<glyph unicode="@" horiz-adv-x="1406" d="M18 674q0 -164 54.5 -287t149.5 -206t227.5 -124t289.5 -41q141 0 267.5 50.5t248.5 113.5l35 17.5t44.5 26t38 32.5t16.5 41q0 16 -3.5 28.5t-23.5 20.5h-41q-43 0 -81 -11t-75 -28.5t-73.5 -38t-75.5 -39.5q-35 -16 -77 -26t-86 -17.5t-89 -10.5t-84 -3 q-240 0 -376 135t-136 375q0 76 17.5 146.5t39.5 142.5q31 96 79 171t111.5 134t142.5 105t171 83q10 4 31.5 12.5t44 16.5t41 14t22.5 6l16 1q15 2 23 2q86 0 139.5 -53.5t75.5 -137.5q4 -18 12.5 -48t14.5 -50.5t6 -24.5v-223q0 -12 -5 -29.5t-15.5 -33t-23.5 -25.5 t-30 -10q-27 0 -37 21.5t-16 55t-14 71.5t-29.5 72t-60.5 55.5t-107 21.5q-49 0 -107.5 -24t-109.5 -62.5t-85 -89t-34 -105.5q0 -78 56.5 -126t130.5 -48q35 0 66.5 9t59 20.5t53 20.5t50.5 9q23 0 43.5 -9t40.5 -20.5t41.5 -20.5t46.5 -9q70 0 115 36t69.5 91t33.5 119.5 t9 120.5q0 88 -18 186t-61 180t-114 136.5t-177 54.5q-72 0 -146.5 -16.5t-147.5 -46.5t-139.5 -70.5t-117.5 -90.5q-84 -78 -149.5 -160.5t-111.5 -175t-71 -194.5t-25 -219zM629 907q0 20 19.5 44t47 43.5t57 31.5t50.5 12q18 0 37.5 -14t19.5 -37q0 -29 -18.5 -53.5 t-45 -42t-58 -26.5t-56.5 -9q-16 0 -34.5 17.5t-18.5 33.5z" />
<glyph unicode="A" horiz-adv-x="937" d="M20 141q0 -33 16.5 -58.5t51.5 -25.5q43 0 67.5 26t38 64.5t21.5 82.5t19.5 83t32 64.5t57.5 25.5q29 0 71.5 -9t86.5 -24.5t82 -36t57 -44.5q25 -31 47 -81t46.5 -98.5t54.5 -83t71 -34.5q37 0 57.5 23.5t20.5 58.5q0 63 -20.5 107t-47.5 82t-54.5 76t-41.5 89 q-4 12 -12.5 41t-17.5 61.5t-18.5 61.5t-11.5 41l-254 708q-10 25 -27.5 41.5t-45.5 16.5q-27 0 -42.5 -16.5t-23.5 -41.5q-4 -18 -11 -62t-14.5 -94t-14.5 -94t-9 -63q-6 -31 -12.5 -54.5t-13.5 -47t-15 -48t-18 -55.5q-2 -4 -4.5 -17t-4.5 -15q-4 -23 -5 -48.5t-4 -53 t-10 -53.5t-22 -44q-8 -10 -21 -24.5t-26.5 -30t-24 -32t-10.5 -34.5q0 -25 4.5 -48.5t4.5 -45.5q0 -31 -8.5 -59.5t-17.5 -58.5t-16.5 -58.5t-7.5 -59.5zM307 608q0 2 1 5l1 3q2 14 10.5 52.5t17.5 80.5t17 79.5t13 52.5q4 20 15 38.5t34 18.5q12 0 20 -11.5t13 -21.5 l122 -362q2 -4 -10 -16.5t-22 -16.5h-11h-14q-10 2 -30.5 7t-42 10t-41 9.5t-25.5 6.5q-18 6 -43 24t-25 41z" />
<glyph unicode="B" horiz-adv-x="1595" d="M20 1370q0 -25 15.5 -46t38 -38.5t48 -27t48.5 -9.5q25 0 39 13.5t26.5 29t22.5 28.5t27 13q14 0 25.5 -14t15.5 -27v-35t2 -52t3 -52t3 -35q10 -59 29.5 -107t19.5 -108q0 -31 -13.5 -57.5t-13.5 -57.5q0 -20 7.5 -36.5t17.5 -30.5t20.5 -28.5t14.5 -33.5 q27 -117 44 -234.5t21 -234.5q12 -43 58 -43q23 0 42 14.5t23 37.5q0 6 1 29.5t1 31.5q0 10 -1 33.5t-1 28.5q-2 18 -7 62t-11 94t-13.5 94t-9.5 63q0 2 -1 11t-1 13q0 31 16.5 47.5t43.5 26.5h65q57 0 129 -6t145.5 -22.5t140 -43t111.5 -69.5q18 -16 44 -39t50.5 -48.5 t46 -53t33.5 -56.5q16 -41 37 -88t21 -92q0 -39 -32 -71.5t-77 -58.5t-93 -41t-79 -19q-29 -4 -77 -9.5t-96 -10.5t-86 -9t-44 -4h-72q-53 0 -108 1t-109 7q-16 2 -49 7t-65.5 16.5t-57 28t-24.5 42.5q0 18 8 32.5t8 33.5q0 63 -59 63q-29 0 -51.5 -13t-39 -34.5t-24.5 -48 t-8 -53.5q0 -49 44 -90t105.5 -71t126 -45t103.5 -15h403q33 8 66 10t66.5 4t66.5 5t63 13q12 6 42 19.5t63 30t61.5 29.5t40.5 20q68 35 91.5 92t23.5 125q0 82 -23.5 150.5t-63.5 128t-92.5 113.5t-109.5 107q-29 27 -72 59t-84 48q-18 6 -62 12t-88 14.5t-79 22.5t-35 37 t38 46.5t83 56t83 78.5t38 114q0 63 -47 105t-103 65q-76 31 -156.5 65.5t-164.5 49.5q-12 2 -37 6t-52.5 8t-51 7t-31.5 3h-35h-39q-16 0 -56 -4t-84 -8t-84 -7t-56 -5q-35 -14 -63 -38t-28 -65zM481 1309v4v4q2 2 7.5 8t9.5 8h49q23 0 38 -2t28.5 -6t27.5 -10t37 -15 q27 -10 72 -18t90 -21.5t78.5 -34t39.5 -57.5q0 -4 -3 -10t-5 -8q-59 -66 -111.5 -101.5t-127.5 -70.5q-23 -10 -55.5 -29.5t-59.5 -19.5t-40 31t-9 51q-2 12 -8.5 45t-12.5 69.5t-12 70.5t-8 46l-8 25q-2 4 -8.5 20.5t-8.5 20.5z" />
<glyph unicode="C" horiz-adv-x="1232" d="M20 727q0 -137 41 -270t121 -238.5t197 -170t268 -64.5q78 0 145.5 19.5t130 50t123 70.5t125.5 81q6 4 21.5 19.5t19.5 21.5v18q0 33 -14 45.5t-45 12.5q-35 0 -67.5 -21.5t-61.5 -38.5q-39 -20 -84 -44.5t-93 -45t-96.5 -35t-93.5 -14.5q-35 0 -65.5 5t-61.5 19 q-178 80 -274 234t-96 350q0 84 20.5 174t77.5 156q20 23 48 48.5t63 25.5q27 0 43 -22.5t28.5 -56.5t21.5 -74t21.5 -74t30.5 -56.5t49 -22.5q25 0 40 16.5t27 33.5v59q0 29 0.5 47.5t-9.5 42.5q-2 4 -8.5 18.5t-13.5 31t-13 30.5t-6 18q0 2 -3.5 15.5t-5.5 29t-5 28.5 t-3 18q-4 16 -22.5 36.5t-34.5 20.5h-199q-16 0 -34.5 -10.5t-35 -24.5t-30.5 -29.5t-23 -25.5q-90 -102 -127 -212t-37 -245z" />
<glyph unicode="D" horiz-adv-x="1325" d="M20 1298q0 -43 30 -63.5t67 -36.5t71.5 -35.5t44.5 -58.5q-1 -37 -1 -74q0 -196 35 -384q42 -224 108 -447q-4 -14 -14.5 -24.5t-26.5 -10.5q-23 0 -42.5 9t-41.5 9q-49 0 -49 -51q0 -27 20.5 -48.5t49 -38.5t59 -27.5t53.5 -16.5q14 -4 40 -9t52.5 -10.5t47 -9.5 t24.5 -4h10q12 0 26.5 -1t28.5 -1h25h74t75 10q6 2 30 10.5t51.5 18.5t52 18.5t30.5 10.5q35 10 70 21.5t61 35.5l125 125q47 51 73 107.5t26 128.5q0 98 -64.5 196t-157 184.5t-194 153t-176.5 102.5l-520 246q-23 10 -53.5 21.5t-57.5 11.5q-31 0 -46.5 -19.5t-15.5 -48.5 zM367 1010q0 16 15 34.5t34 18.5l24 -8q8 -4 21.5 -9.5t27 -10.5t23.5 -10l10 -5q14 -8 49 -25.5t72 -37t68.5 -37t42.5 -23.5q6 -4 25.5 -16.5t43 -27.5t46 -30.5t32.5 -23.5q33 -25 79 -65t87 -88t69.5 -100t28.5 -100q0 -80 -60.5 -143t-144 -106t-174 -67t-149.5 -24 q-29 0 -42 5.5t-32 27.5q-16 20 -15 45t-9 47q-2 2 -9.5 16.5t-15.5 32t-15 32t-10 18.5q-2 6 -6 27.5t-10 46t-10 46t-6 27.5q-31 131 -60.5 264.5t-29.5 268.5z" />
<glyph unicode="E" horiz-adv-x="1011" d="M20 289q0 -80 33 -136.5t86.5 -92t121 -52t136.5 -16.5h78q35 0 80 8q18 2 57 13.5t87.5 27.5t100.5 37.5t94 46.5t69.5 52.5t27.5 55.5q0 47 -47 48q-27 0 -50.5 -11.5t-47 -27t-46 -30.5t-48.5 -24q-14 -4 -34 -8t-40.5 -7t-38.5 -5t-27 -4q-6 0 -26.5 -5t-43 -11.5 t-43 -11.5t-26.5 -5h-45q-37 0 -83 9.5t-85 29.5t-65.5 53t-26.5 78q0 76 34 136.5t88 108.5t119.5 82t129.5 54q20 6 52 10t62.5 13.5t53 27t22.5 49.5q0 29 -23.5 48.5t-52.5 25.5q-8 2 -38.5 9t-67.5 15.5t-67.5 15.5t-39.5 9q-66 16 -129 47t-110 84q-8 10 -20.5 25.5 t-12.5 32.5q0 29 28.5 47t53.5 18h199q29 0 52 -15.5t44.5 -33.5t45 -33.5t52.5 -15.5q31 0 42 23.5t11 50.5q0 51 -43 86.5t-102 56t-120.5 30t-96.5 9.5q-53 0 -107.5 -9.5t-98.5 -33t-71.5 -65.5t-27.5 -107q0 -76 44 -127t96 -88t96 -64.5t44 -56.5q0 -14 -27.5 -45 t-64.5 -65.5t-72.5 -68.5t-50.5 -52q-37 -49 -55.5 -118t-18.5 -128z" />
<glyph unicode="F" horiz-adv-x="913" d="M20 1210q0 -6 6.5 -24.5t13.5 -39t13 -38.5t8 -22.5t6.5 -24t10.5 -42t10 -42t6 -23.5q2 -8 12.5 -38.5t20.5 -67.5t20.5 -67.5t12.5 -39.5q2 -6 5 -18t3 -16t3 -21.5t5 -39t5 -40t3 -22.5q2 -4 8.5 -18.5t13.5 -31t13 -31t6 -18.5q2 -4 5 -13t3 -11q4 -18 11.5 -51 t14.5 -66t12 -58.5t5 -31.5q0 -4 1.5 -21.5t2.5 -39t3 -40t2 -22.5q0 -2 3 -11t5 -14q20 -49 69 -49q27 0 46.5 13.5t30 33t15.5 44t5 47.5q0 8 -1 21l-1 13q0 4 -7.5 19.5t-16.5 32t-16 31t-9 18.5q-16 47 -25.5 101t-9.5 108q0 35 17.5 52t49.5 25q63 2 124 4.5t124 12.5 q2 0 9.5 2t16.5 5t16 7t7 10v58q0 6 -12 12l-12 6q-89 19 -181 25q-44 3 -88 3q-47 0 -94 -3q-23 4 -39 23.5t-28.5 43t-19.5 48t-11 40.5q-4 10 -11.5 37t-15.5 57.5t-15 57.5t-9 37v16q0 23 11 35t32 25q6 0 22.5 1t34.5 2t34.5 3t22.5 2q18 2 63.5 7t96.5 11t96 12.5 t64 10.5h43q29 0 53.5 -5t52.5 -5q29 0 47.5 14t18.5 45q0 49 -32 74.5t-79 25.5q-6 0 -20 -1t-17 -1q-6 0 -33.5 -8t-33.5 -8q-147 -18 -299 -28.5t-301 -12.5q-33 -12 -45.5 -29.5t-12.5 -50.5v-27z" />
<glyph unicode="G" horiz-adv-x="1126" d="M20 492q0 -242 120 -354.5t356 -112.5q23 0 75 7t105 22.5t94 40t41 61.5q0 23 -17.5 37t-39.5 14q-35 0 -67 -8.5t-63.5 -17.5t-64.5 -17t-65 -8q-178 0 -256 83t-78 259q0 96 23.5 203.5t82.5 187.5q12 14 31.5 32.5t41 39t43 42t34.5 41.5q2 2 9 15.5t15.5 29 t15.5 28.5t9 18q16 27 41.5 39t55.5 16t59 4h57h18t26.5 -1t27.5 -1h18q8 -2 24.5 -7t33 -11.5t30.5 -12.5t21 -10q14 -10 27.5 -28.5t27.5 -38t30.5 -34t34.5 -14.5q47 0 78 34t31 81q0 66 -43 111t-105.5 71.5t-130 37.5t-116.5 11h-99q-135 -41 -244.5 -135t-186.5 -217 t-119 -263t-42 -275zM506 633q0 -29 13 -50.5t36 -39.5h37q29 0 50.5 8t47.5 8q23 0 56.5 -3t67.5 -10t62.5 -21.5t41.5 -39.5v-53q0 -80 -17.5 -156.5t-17.5 -156.5v-31q0 -23 2 -31q10 -27 32.5 -58.5t55.5 -31.5q23 0 41 13.5t18 35.5q0 29 -9 53.5t-9 53.5q0 4 1 13 t1 11q2 12 9 43t13 65t11.5 64.5t7.5 42.5v17q0 14 1 32.5t1 37.5v32v23q0 18 -1 36.5t-1 34.5v25q-8 29 -25.5 50.5t-48.5 31.5q-94 12 -184 23.5t-183 11.5q-41 0 -75.5 -17.5t-34.5 -66.5z" />
<glyph unicode="H" horiz-adv-x="806" d="M20 1186q59 -266 85 -532q18 -182 18 -367q0 -86 -4 -172q8 -29 26.5 -51.5t51.5 -22.5q37 0 54 29.5t17 60.5q0 23 -1 40t-7 42v281q0 18 20.5 35.5t36.5 21.5q59 4 122 11t124 7q20 0 34.5 -14t16.5 -37q-14 -68 -16 -115t-2 -110v-96q8 -41 35.5 -74t73.5 -33 q81 0 81 76q0 22 -8 39.5t-17 33t-16.5 32t-7.5 36.5v23l49 510v71q0 129 -17 242t-48 238q-14 31 -33.5 57.5t-56.5 26.5q-68 0 -68 -66q0 -39 16.5 -72.5t26.5 -68.5q41 -158 41 -316q0 -53 -1 -92t-7 -94q-6 -29 -24.5 -43t-41 -22.5t-48 -9.5t-46.5 -1q-10 0 -31.5 1 t-23.5 1q-4 0 -19.5 2t-34 5t-36 5.5t-25.5 4.5q-39 6 -58.5 31.5t-28.5 58t-12 68.5t-9 63q-4 18 -12.5 66t-17.5 102.5t-17.5 102.5t-10.5 67q-6 29 -19 52t-44 23q-14 0 -37 -5t-23 -29v-123z" />
<glyph unicode="I" horiz-adv-x="296" d="M18 1167q0 -41 10.5 -73.5t25 -62.5t31.5 -59.5t34 -64.5v-22q0 -14 1 -31.5t1 -32.5v-20q0 -123 -13.5 -244t-13.5 -244v-84q6 -47 39 -81.5t84 -34.5q25 0 42 14t17 41q0 18 -7 34.5l-14 33t-14.5 33t-7.5 36.5q0 117 14.5 228.5t14.5 228.5v31q0 25 -1 50t-1 48v33 q-4 16 -5 53t-5 82t-11.5 93t-21.5 87t-35.5 64.5t-54.5 25.5q-27 0 -47.5 -17.5t-33.5 -42t-20.5 -52t-7.5 -50.5z" />
<glyph unicode="J" horiz-adv-x="987" d="M20 250q0 -82 34 -131t88.5 -76t122 -35t132.5 -8q68 0 139.5 10t134 37t109.5 75t64 126v106q0 66 -4 124.5t-21 121.5q-35 147 -72.5 283.5t-109.5 267.5q0 4 -7 13.5t-9 11.5v10q0 8 15 26.5t26 18.5h272q4 0 16.5 13t16.5 24v18q0 25 -14.5 43.5t-43.5 20.5l-444 24 q-29 2 -56.5 12.5t-53 22.5t-53.5 22.5t-56 10.5q-25 0 -43.5 -14.5t-18.5 -41.5q0 -10 1 -15t8 -13q29 -31 53 -47.5t48.5 -27.5t50.5 -23.5t54 -32.5q20 -16 31.5 -40t26.5 -44q41 -55 76.5 -107.5t54.5 -122.5q8 -29 22.5 -84t28.5 -111t25.5 -102.5t13.5 -56.5t6 -30.5 t8 -44t7 -44t3 -28.5q2 -4 3 -29v-33v-33q0 -23 -3 -28q-20 -76 -90 -101q-41 -12 -101 -30.5t-112 -18.5q-59 0 -124.5 17.5t-106.5 64.5q0 8 1 28.5t1 43.5t-1 42t-1 27q-2 31 -15.5 61t-48.5 30q-29 0 -45 -25t-25 -57.5t-11.5 -66.5t-2.5 -54z" />
<glyph unicode="K" horiz-adv-x="978" d="M20 1317q0 -39 12.5 -75t20.5 -73q27 -129 43.5 -252.5t16.5 -252.5v-23q0 -14 -1 -28.5t-1 -24.5v-10q-2 -20 -7.5 -70.5t-11.5 -107t-13 -106.5t-9 -71v-41q0 -16 2 -34.5t8 -35t19.5 -27.5t35.5 -11q20 0 35.5 10t25 26.5t14.5 35t7 36.5q0 4 2 23.5t3 42t2 42t1 23.5 q2 10 5 40t7.5 64t7.5 65.5t5 45.5q2 16 8 41t31 25q14 0 19 -4t18 -21l460 -626q4 -12 13.5 -35t23 -44.5t31.5 -36.5t39 -15q29 0 47 25.5t18 51.5q0 51 -26.5 98.5t-54.5 88.5l-502 665q-8 10 -9 14.5t-1 14.5q0 25 18 53q39 51 77 91t76.5 76t80.5 71t94 76 q18 14 30.5 33.5t12.5 41.5q0 27 -18.5 38.5t-41.5 11.5q-27 0 -54.5 -11.5t-53 -29t-48 -38t-40.5 -38.5q-12 -12 -43 -42t-65 -64.5t-63.5 -65.5t-41.5 -43q-16 2 -28.5 11t-23.5 22q-2 14 -6 53t-9 83t-10 82t-7 54q-4 25 -12.5 52.5t-23.5 51t-37 39t-50 15.5 q-35 0 -46.5 -23.5t-11.5 -52.5z" />
<glyph unicode="L" horiz-adv-x="641" d="M20 1380l58 -567q0 -4 1 -24.5t1 -47.5v-53v-39v-49v-59q0 -29 -1 -52.5t-1 -27.5q0 -10 -5 -48t-11.5 -81t-11.5 -80t-5 -47q0 -2 -1 -25.5t-1 -36.5q0 -6 1 -29.5t1 -31.5q6 -33 38 -53.5t60 -28.5h70q45 0 90 8t90 17.5t89 15.5q22 3 44 3t45 -3q23 6 36.5 24.5 t13.5 40.5q0 37 -33 65t-68 28q-33 0 -64.5 -8.5t-62.5 -17.5t-62.5 -17.5t-64.5 -8.5q-25 0 -49 21.5t-24 48.5v12q2 10 5 38t7 57.5t7 57.5t5 38v450q-16 94 -20 191.5t-4 193.5q0 43 5 83t5 83q0 4 -1 20.5t-1 20.5q-14 27 -35 43.5t-49 16.5q-47 0 -72 -32t-25 -75v-35z " />
<glyph unicode="M" horiz-adv-x="1611" d="M20 1157q0 -256 23.5 -510t50.5 -508q2 -6 5 -24.5t7.5 -40t7.5 -40t5 -26.5q6 -25 25.5 -53.5t48.5 -28.5t51 21.5t36.5 52.5t21.5 63.5t7 53.5q0 47 -20.5 78.5t-30.5 76.5v74q0 152 25.5 299.5t66.5 292.5q4 12 10.5 32.5t16.5 41t24.5 36t34.5 15.5q2 0 6 -1t7 -1 q49 -41 79.5 -92t53 -107.5t42 -115t46.5 -113.5l141 -486q16 -57 72 -57q20 0 34.5 13.5t22.5 33t12 41t6 37.5v52q0 189 25 381q29 218 107 421q8 18 20 43t37 25q23 0 39 -19.5t26 -32.5q68 -74 96.5 -164t45.5 -188q2 -23 10 -78t15 -116.5t14.5 -116.5t9.5 -76l57 -207 q8 -29 27.5 -51t50.5 -22q29 0 41 20t12 45v25q-27 84 -55.5 181t-34.5 189q-6 88 -13 174t-25.5 167t-52.5 159t-91 150q-39 49 -81 82.5t-103 33.5q-37 0 -65 -18.5t-48.5 -46t-33.5 -61t-21 -64.5q-10 -31 -25.5 -82t-30 -99.5t-24.5 -84t-10 -37.5l-17 -125 q-4 -14 -15 -23.5t-24 -9.5q-10 0 -12 2t-8 14q-4 8 -15.5 41t-24.5 71t-25.5 70.5t-16.5 41.5q-2 6 -13.5 29.5t-25.5 54t-28.5 59.5l-22.5 45q-14 29 -36 57.5t-48.5 51t-57 36t-63.5 13.5h-21q-16 0 -20 -2q-37 -18 -63.5 -51t-47 -72t-36 -81t-27.5 -75q-2 -2 -11.5 -5 t-13.5 -3h-4q-12 0 -12 18v23q0 49 13.5 94t13.5 94v29q0 23 -2 29q-14 29 -31 40t-47 11q-53 0 -74 -36t-21 -83z" />
<glyph unicode="N" horiz-adv-x="1159" d="M20 1149q0 -133 14.5 -263t18.5 -261v-172v-84q0 -51 2 -106.5t8.5 -103.5t22.5 -69q10 -16 25.5 -28.5t35.5 -12.5q31 0 45.5 17.5t20.5 42t6 51.5v45q0 141 -21.5 280.5t-21.5 280.5q0 16 4 32.5t25 16.5q2 0 3 -1l1 -1q8 0 8 -8q6 -12 20.5 -45t32 -70t33.5 -69.5 t23 -45.5q2 -6 22.5 -39.5t47 -76.5t52 -87t41.5 -69q27 -43 65 -84t84 -73.5t98 -52t106 -19.5q82 0 135 44t87 110.5t51.5 142t23.5 139.5v39t1 59.5t1 59.5v39v51t-1 63.5t-1 55.5v28q0 2 -6.5 45t-13.5 101.5t-15 118t-14 96.5q-2 16 -6.5 37.5t-12.5 41t-21.5 33 t-33.5 13.5h-23q-10 0 -18 -11q0 -4 -1 -16t-1 -16q0 -31 7 -61t11 -62q2 -29 5 -103.5t7.5 -158.5t7.5 -159t5 -106v-94q0 -45 -7.5 -110.5t-27.5 -126t-59 -103.5t-101 -43q-39 0 -75.5 21.5t-70.5 53.5t-60.5 67.5t-43.5 64.5q-10 14 -24.5 40t-28.5 50.5t-25.5 44 t-11.5 21.5l-280 616q-8 20 -14.5 57t-16.5 74t-29.5 64.5t-54.5 27.5q-18 0 -35.5 -16t-21.5 -35q-6 -68 -7.5 -114t-1.5 -109z" />
<glyph unicode="O" horiz-adv-x="929" d="M18 369q0 -20 1 -45t1 -48v-28q4 -49 23.5 -96.5t52.5 -84t75 -60t93 -23.5q55 0 107.5 18t99.5 49t89 69t77 77q61 86 112.5 165.5t86 163.5t54 176.5t19.5 202.5q0 53 -5 109.5t-27 105.5l-132 279q-12 45 -26 78.5t-35.5 57.5t-54.5 35t-82 11q-47 0 -82 -10t-66 -49 q-10 -12 -30.5 -38t-42 -51.5t-38 -47t-20.5 -27.5q-72 -94 -120 -213t-76.5 -247t-41 -256t-12.5 -243v-30zM143 375v53q10 113 25.5 240t48.5 250.5t87 236.5t145 195q16 16 38.5 28.5t47.5 12.5q18 0 39.5 -18.5t29.5 -31.5q70 -100 118 -208.5t48 -231.5 q0 -90 -12.5 -174t-44.5 -168q-12 -31 -38 -74t-60.5 -90t-76.5 -94t-87 -85t-89.5 -61.5t-85.5 -23.5t-66.5 26.5t-39.5 64.5t-20.5 80t-6.5 73z" />
<glyph unicode="P" horiz-adv-x="1157" d="M-121 1413q0 -43 29 -67.5t67.5 -37t80.5 -15.5t71 -3q20 0 36.5 15.5t30 34t24.5 34t24 15.5h180q8 -4 36.5 -16.5t37.5 -16.5q4 -2 13 -5t11 -3h19h30h31h18q51 -12 117 -50t124.5 -90.5t98 -113t39.5 -117.5q0 -31 -21.5 -49.5t-43.5 -40.5q-100 -57 -200.5 -102.5 t-219.5 -45.5q-25 0 -46.5 11.5t-27.5 37.5q-2 8 -5 31t-7 47.5t-8 47t-4 30.5q0 4 -2 21.5t-3 37t-2 37t-1 21.5q-2 16 -9.5 37.5t-17.5 40t-26.5 32t-37.5 13.5q-35 0 -47 -23.5t-12 -54.5q0 -80 17.5 -160t17.5 -162v-45q-2 -6 -8.5 -21.5t-14.5 -32.5t-15 -31.5 t-11 -20.5q-2 -4 -2 -12v-9q0 -25 12 -45t27.5 -38.5t31 -39t21.5 -45.5q2 -20 8 -69t12 -104.5t12.5 -104.5t8.5 -68q4 -35 17 -54t50 -19q25 0 35 12t21 37v20t1 30.5t1 31.5v20q0 86 -13.5 171t-13.5 171q0 31 24.5 48.5t58.5 26.5t68.5 13t53.5 10l22.5 7.5t36 11.5 t38 12t26.5 10q27 10 71.5 27.5t91 39t86 46.5t56.5 51q25 39 29 70t4 74q0 78 -26 136t-73 124q-63 88 -146 146.5t-177 94t-197.5 50t-208.5 14.5h-37h-45q-23 0 -41 -1t-20 -1t-11.5 -1t-20.5 -2t-21.5 -3t-12.5 -2q-27 -2 -64.5 -3t-72.5 -9.5t-59.5 -30t-24.5 -64.5z " />
<glyph unicode="Q" horiz-adv-x="1200" d="M20 514q0 -66 15.5 -140.5t49.5 -142t84 -120t122 -70.5h67q221 0 394 147q4 2 10 2h10q23 0 34 -8t28 -26q6 -6 30.5 -34t52 -60.5t52 -60.5t30.5 -34q23 -25 55.5 -45t67.5 -20q29 0 44.5 19.5t15.5 45.5q0 20 -5.5 25.5t-21.5 23.5q-4 4 -19.5 21.5t-34 37t-33.5 36 t-19.5 20.5t-18.5 21.5t-30.5 39t-33 42t-24.5 30.5q-10 10 -18.5 23.5t-8.5 29.5q0 18 10.5 41t25 47.5t28.5 47t20 41.5q31 82 44.5 164.5t13.5 168.5t-31 159t-79 136.5t-108.5 118.5t-119.5 107q-23 23 -45.5 33t-52.5 10q-41 0 -59.5 -19.5t-31 -46.5t-25.5 -55.5 t-40 -44.5q-39 -23 -76 -42.5t-72 -47.5q-141 -119 -219 -277t-78 -344zM160 569q0 131 65.5 244t157.5 199q23 23 54.5 36t64.5 13q29 0 55.5 -12.5t54.5 -12.5q27 0 43.5 15.5t16.5 42.5q0 6 -1 18t-1 14q0 4 -4 17.5t-4 15.5q0 6 7 15.5t13 9.5h4q2 0 8 -3t8 -5 q43 -41 85 -84t75 -91.5t52.5 -103.5t19.5 -119q0 -25 -8 -79t-25.5 -111.5t-42 -100.5t-57.5 -43q-18 0 -42 19.5t-51.5 42t-59.5 42t-64 19.5q-27 0 -49.5 -15t-22.5 -44q0 -39 26.5 -59.5t57.5 -37t57.5 -36t26.5 -56.5q0 -33 -40 -58t-94 -43.5t-107.5 -28t-80.5 -9.5 q-63 0 -102 44t-60.5 106.5t-28.5 129t-7 109.5z" />
<glyph unicode="R" horiz-adv-x="1193" d="M-111 1468q0 -16 6.5 -35.5t18.5 -36t27.5 -27.5t33.5 -11q20 0 36 13t27 30.5t22.5 36t25.5 28.5q35 25 83 41.5t91 16.5h371q45 0 99 -15.5t99 -44t76 -69.5t31 -95q0 -66 -37 -120t-88 -93q-66 -49 -146.5 -99t-158.5 -83q-31 10 -41 41q0 6 -3 24.5t-5 38t-5 38 t-3 24.5v37q0 53 5 106.5t5 106.5q0 35 -14.5 65.5t-57.5 30.5q-45 0 -65.5 -28.5t-20.5 -69.5q0 -53 7 -103.5t9 -103.5v-74v-125v-125v-71q0 -8 3.5 -38t8.5 -65.5t9 -65.5t4 -38v-8q0 -23 1 -79t3 -118.5t3 -119t1 -79.5q4 -29 20.5 -55t51.5 -26q23 0 37 5t22 27 q-1 31 -1 60q0 56 4 109q8 81 8 169q0 49 -5.5 97.5t-5.5 97.5q0 14 12.5 33.5t28.5 19.5q2 0 8.5 -3t10.5 -5q6 -4 28.5 -20.5t28.5 -20.5q57 -45 101 -99.5t82 -112.5t73 -120.5t72 -122.5q6 -10 22.5 -33.5t34.5 -49t35.5 -49t23.5 -32.5q6 -10 25.5 -28.5t24.5 -20.5 l11 -1t17 -1q4 0 14.5 1t14.5 1q18 14 21.5 27.5t3.5 36.5q0 33 -13.5 62.5t-33 56t-41 53t-35.5 53.5q-6 12 -32 57t-55.5 98.5t-55 98.5t-31.5 57q-14 27 -53.5 65t-81.5 76t-73.5 69.5t-31.5 45.5q0 25 24.5 46.5t58.5 41t68.5 37t55.5 31.5q68 47 124 113.5t91 142.5 q4 8 10 23.5t6 17.5v131q0 2 -3 11t-5 14q-41 90 -102.5 143t-153.5 88q-10 4 -29.5 11t-42 13.5t-43 11.5t-32.5 5h-486q-39 0 -89 -12.5t-94 -37t-75 -61t-31 -84.5z" />
<glyph unicode="S" horiz-adv-x="1044" d="M18 942q0 -63 43 -114.5t99 -79.5l559 -271q20 -10 47 -27.5t49.5 -39t37.5 -48t15 -53.5q0 -29 -30.5 -47t-77.5 -29.5t-104.5 -17.5t-109.5 -8t-95 -2h-60h-65q-35 29 -41 49q-3 10 -3 27t3 41q-18 25 -54 24q-23 0 -41 -19.5t-32.5 -47t-22.5 -56.5t-8 -47 q0 -37 18.5 -61.5t46 -39t60.5 -20.5t63 -6q135 0 268.5 19.5t268.5 29.5q68 16 120 70.5t52 126.5q0 70 -34 127t-87 104t-121.5 85t-139.5 68t-136.5 52.5t-114.5 40.5q-4 2 -16.5 8t-16.5 8q-10 6 -29.5 20.5t-41 29t-39 27t-23.5 16.5q-10 8 -29.5 26.5t-19.5 38.5 q0 25 23.5 44.5t56.5 35.5t66.5 26.5t52.5 16.5q31 10 67.5 21.5t71.5 11.5q31 0 56.5 -16.5t58.5 -16.5q51 0 79.5 42t28.5 89q0 37 -27.5 60.5t-62.5 23.5q-74 0 -127 -16.5t-121 -42.5q-49 -18 -114.5 -39t-125 -52.5t-100.5 -77.5t-41 -114z" />
<glyph unicode="T" horiz-adv-x="1206" d="M20 1264q0 -18 11.5 -37t29 -32t38 -21.5t36.5 -8.5h289q18 0 37.5 -27.5t19.5 -45.5v-15q0 -2 -1 -12t-3 -20.5t-3 -20.5t-1 -12q0 -10 -1 -48t-3 -83t-3 -84t-1 -47q0 -10 -3 -38t-5 -36v-447q0 -20 4 -56t14 -71.5t30.5 -61.5t51.5 -26q41 0 53.5 24.5t12.5 61.5 q0 35 -3.5 58.5t-15.5 62.5v371l12 65v379q0 27 16.5 48.5t40 38t50.5 28.5t47 18q12 2 42 5.5t63.5 7.5t64.5 8t43 4h94h97q29 -16 50 -25.5t52 -9.5q4 0 14 1t15 1q16 12 20 25.5t4 36.5q0 47 -30.5 74.5t-75.5 35.5h-27q-18 0 -39.5 1t-40.5 1h-26q-88 0 -174.5 -13 t-174.5 -13q-45 0 -82.5 16t-85.5 16q-43 0 -80.5 -16t-82.5 -16q-31 0 -56.5 10t-49 23.5t-49.5 23.5t-56 10q-20 0 -51 -7t-59 -20.5t-48.5 -35t-20.5 -49.5z" />
<glyph unicode="U" horiz-adv-x="946" d="M20 668q0 -43 4.5 -111t14.5 -143.5t30.5 -152.5t54.5 -138.5t82 -100t113 -38.5q102 0 189.5 53t158 133t125 174t93.5 174q2 4 4 12.5t4 12.5q18 74 25.5 147.5t7.5 149.5q0 47 -5.5 85t-16.5 72.5t-28.5 69.5t-39.5 78q-8 12 -17.5 31.5t-22 38t-27.5 32t-36 13.5 q-27 0 -45 -18.5t-18 -45.5q0 -47 20.5 -84t46 -76t46 -81t20.5 -97q0 -193 -65.5 -349.5t-207.5 -285.5q-4 -4 -16 -13t-16 -13q-14 -8 -35 -19.5t-43.5 -22t-45 -17.5t-40.5 -7q-31 0 -55.5 22.5t-42 54.5t-28.5 65.5t-15 56.5q0 6 -5.5 32.5t-10.5 59.5t-10 64.5t-7 48.5 v10q0 98 6 192t18 193q8 49 30 92t22 94q0 37 -19.5 70t-62.5 33q-27 0 -46.5 -16.5t-35 -39t-26.5 -49.5t-17 -45q2 -39 2 -77q-1 -62 -5 -124q-6 -98 -6 -200z" />
<glyph unicode="V" horiz-adv-x="970" d="M20 961q0 -23 2.5 -39t6.5 -41q4 -23 18 -79.5t29.5 -118.5t30 -118.5t20.5 -79.5q2 -6 11 -32.5t21.5 -59.5t24 -64.5t17.5 -47.5q18 -47 51 -103.5t77 -108t97 -85t109 -33.5q27 0 45 5t33.5 14.5t30.5 24.5t34 38q39 72 65.5 140.5t59.5 139.5q6 20 19.5 74.5 t29.5 115t29.5 114t19.5 75.5q2 6 5 24.5t3 24.5q0 12 2 42t3 64t2.5 64.5t1.5 42.5q20 31 27 52.5t7 52.5q0 16 -10 37.5t-33 21.5h-90q-18 0 -34.5 -21.5t-22.5 -35.5q-2 -6 -2 -27v-26q0 -45 5 -88t5 -89q0 -123 -32.5 -246.5t-67.5 -238.5q-6 -23 -20.5 -59.5t-36 -73.5 t-47 -63.5t-52.5 -26.5q-23 0 -50.5 26.5t-52 61.5t-43 71.5t-26.5 55.5q-6 14 -16.5 41t-21.5 54.5t-19.5 50t-8.5 26.5q-2 8 -13 54t-26.5 104.5t-29.5 118t-23 94.5q-4 20 -9 45.5t-14 48t-25.5 39t-45.5 16.5t-49.5 -20.5t-20.5 -48.5z" />
<glyph unicode="W" horiz-adv-x="1513" d="M20 1053q0 -162 8.5 -325t16.5 -325q4 -59 22.5 -126.5t59.5 -112.5q45 -47 87 -81t108 -34q63 0 99 26.5t61.5 65.5t49 82t64.5 74h4q10 0 32.5 -25.5t48.5 -57.5t50.5 -63.5t38.5 -44.5q37 -33 80 -56t92 -34h94q53 0 107.5 7.5t104.5 27t92 52t71 85.5q33 63 57.5 128 t24.5 137v387q0 4 -3 25.5t-5 31.5q-4 14 -10.5 43t-12.5 60.5t-11 58t-7 35.5q-4 14 -17.5 53t-32 78t-41 69.5t-42.5 30.5q-39 0 -52.5 -22.5t-13.5 -57.5v-37q66 -141 95.5 -286.5t29.5 -300.5q0 -96 -9 -179.5t-43 -144.5t-98.5 -97t-175.5 -36h-61q-10 2 -23.5 8 t-27.5 12t-25.5 12.5t-13.5 8.5q-68 51 -104.5 116.5t-55 138t-21.5 150.5q-2 47 -2 94v62q-10 27 -25 42t-44 15q-39 0 -54.5 -26.5t-20.5 -63.5t-5 -76q0 -37 -6 -57q-2 -10 -8 -29.5t-12.5 -40t-12.5 -38t-8 -23.5q-8 -25 -27.5 -68t-46 -85t-58.5 -72.5t-65 -30.5 q-35 0 -58 25.5t-38.5 61.5t-25 74t-11.5 62q0 25 -1 85.5t-2 128t-3 129t-2 85.5v27v47v45v29q0 18 -6 41.5t-17.5 43t-27.5 34t-39 14.5q-41 0 -53.5 -29t-12.5 -63z" />
<glyph unicode="X" horiz-adv-x="962" d="M20 207q0 -33 14.5 -62.5t51.5 -29.5q20 0 32.5 8t24.5 24q14 57 39 113.5t55.5 110t64.5 104.5t65 100q2 4 10 15.5t17 23t18.5 20.5t15.5 9q12 0 25.5 -12.5t19.5 -22.5l123 -368q14 -39 34.5 -86.5t49.5 -89t65.5 -69.5t85.5 -28q43 0 77 34t34 75q0 27 -12 36 t-30.5 11t-38 3t-34.5 13q-27 23 -41 48.5t-24 60.5l-199 559q-4 16 -6 23.5t-2 21.5q0 10 1 17.5t7 19.5q14 29 32.5 60.5t36 63t29 66.5t11.5 70t-9.5 48t-46.5 13h-20l-147 -149l-5 -1q-6 -1 -10 -1q-16 0 -20 3t-15 15q-10 14 -28.5 41t-39 54.5t-35.5 50t-20 28.5 q-14 20 -27 48t-29.5 51.5t-38 40t-54.5 16.5q-66 0 -66 -66q0 -16 3.5 -32.5t13.5 -32.5l256 -379q16 -27 16 -57q0 -14 -5 -26.5t-11 -22.5q-10 -14 -36 -52.5t-53.5 -80.5t-52 -79.5t-32.5 -52.5q-20 -35 -45 -71.5t-45.5 -77.5t-35 -84t-14.5 -86z" />
<glyph unicode="Y" horiz-adv-x="1011" d="M20 1257q0 -39 24 -86t57.5 -93t72.5 -84t68 -56q14 -10 57 -27.5t89 -40t82 -47t36 -45.5q0 -43 -4 -86t-4 -86q0 -104 10 -206.5t39 -202.5q6 -23 16 -50.5t25.5 -53t36 -43t49.5 -17.5q35 0 61.5 26.5t26.5 61.5q0 41 -27.5 69.5t-40.5 63.5q-29 100 -35 202.5 t-6 205.5v145q12 43 49 65.5t68 49.5l82 82q29 29 45 73.5t29 81.5q23 72 44 143.5t21 147.5q0 25 -1 42t-6 30.5t-16.5 27t-33.5 29.5h-21q-33 0 -44 -15.5t-11 -45.5q0 -23 5 -41.5t5 -40.5q0 -31 -18.5 -100.5t-50 -139.5t-73.5 -123t-87 -53q-23 0 -42 4t-42 4 q-29 0 -52.5 -8t-49.5 -8q-14 0 -32 6t-34 14t-30.5 16.5t-22.5 12.5q-47 27 -72.5 74t-47 93t-46.5 79.5t-70 33.5q-31 0 -54.5 -26.5t-23.5 -57.5z" />
<glyph unicode="Z" horiz-adv-x="1398" d="M20 1118q0 -33 32 -50t59 -17q4 0 13 1t11 1q4 0 19.5 4t34 8t34 8t19.5 4q72 6 167 11.5t175 5.5h45q4 -4 16 -16.5t17 -16.5v-8q0 -14 -15.5 -41t-35 -56.5t-40 -55.5t-32.5 -38l-330 -344q-23 -25 -48.5 -53.5t-46 -60t-33.5 -66.5t-13 -70q0 -51 24.5 -87t61 -61.5 t83 -39.5t89.5 -23q23 -4 61.5 -10t77.5 -13t69.5 -12.5t36.5 -5.5h60q76 0 149.5 8.5t149.5 8.5q180 0 341 -10.5t337 -22.5h53h53q20 6 23.5 19.5t3.5 29.5q0 25 -17.5 41t-41 26.5t-49 14.5t-42.5 8q-10 2 -33.5 6.5t-48 8.5t-46 7t-29.5 3q-12 2 -48 4t-77 5t-78 5 t-51 2h-21q-14 0 -34.5 1t-41.5 1h-30q-98 0 -191.5 -13t-191.5 -13q-59 0 -105.5 4t-88.5 13t-86 25.5t-99 39.5q-16 8 -32.5 24.5t-16.5 36.5q0 18 19.5 43t29.5 37q8 8 23.5 26.5t31.5 37t28.5 32.5t16.5 19l107 106q12 12 36.5 41t52 60.5t51.5 58t32 37.5 q4 6 22.5 30.5t39 52t38.5 52t23 31.5q29 35 56.5 66.5t27.5 78.5q0 43 -30 84t-79 41h-410q-23 -4 -79 -4q-55 0 -112.5 -9.5t-102 -32t-44.5 -69.5z" />
<glyph unicode="[" horiz-adv-x="796" d="M18 94q0 -4 1 -22.5t1 -22.5q4 -23 28 -44t46 -21h70q129 0 247.5 10t258.5 22q35 4 70.5 24.5t35.5 61.5q0 37 -26.5 54.5t-61.5 17.5q-80 0 -159.5 -9t-163.5 -9h-115q-10 4 -31.5 19t-17.5 30l16 74l49 411v707q-4 29 -6 49t-2 47q0 37 27.5 54.5t62.5 21.5 q6 0 30.5 1t52.5 3t52.5 3t30.5 1q20 2 62 11t85.5 24.5t75 39t31.5 54.5q0 39 -17.5 50t-54.5 11q-35 0 -62.5 -14t-62.5 -20q-10 -2 -30.5 -4.5t-44 -5.5t-44 -5t-28.5 -2q-39 -2 -85 2t-93 3t-89 -14t-71 -48v-45q0 -35 6 -68t14.5 -64.5t14.5 -64.5t6 -69v-486 q-2 -8 -5 -36.5t-3 -37.5q0 -8 -1 -37.5t-2 -64.5t-3 -64.5t-2 -37.5q0 -6 -5.5 -38t-12.5 -72t-13 -79t-10 -59q-10 -59 -31 -119.5t-21 -122.5z" />
<glyph unicode="\" horiz-adv-x="1103" d="M-127 1403q0 -41 15.5 -68.5t37 -49t47 -42t47.5 -49.5q6 -10 22.5 -31.5t33 -47t32 -48.5t21.5 -31l428 -551q4 -6 27.5 -29.5t53.5 -53t60.5 -59.5t46.5 -46q10 -10 36 -31.5t53.5 -46t51 -45t32.5 -27.5l28.5 -19t52 -35.5t57 -39t44.5 -28.5q20 -12 28.5 -15.5 t30.5 -3.5q25 0 40 17.5t15 42.5q0 33 -25.5 61.5t-47.5 44.5q-6 6 -35 26.5t-60.5 44t-60.5 44t-35 26.5q-8 6 -24.5 20.5t-35 30t-33.5 29t-21 19.5q-117 113 -223.5 238.5t-204.5 254.5q-8 12 -35 49t-63 87.5t-75.5 106.5t-75.5 106.5t-62.5 87t-35.5 49.5 q-10 14 -22 31.5t-27.5 32.5t-33 25.5t-37.5 10.5q-39 0 -53.5 -27.5t-14.5 -60.5z" />
<glyph unicode="]" horiz-adv-x="847" d="M20 1688q0 -35 23 -53.5t53.5 -27t64.5 -9.5t56 -1q92 0 180 12.5t181 12.5h26q8 -4 23.5 -19.5t19.5 -21.5v-45q0 -57 -9 -110.5t-22 -108.5v-551q-27 -115 -38 -229.5t-15 -231.5q-10 -20 -19 -29.5t-30 -19.5q-6 -4 -24.5 -9t-40 -10.5t-40 -9.5t-26.5 -6 q-29 -4 -79 -7t-101 -13.5t-88 -34t-37 -68.5q0 -39 26.5 -56t63.5 -17h16q20 6 51 13t63 15t64.5 13.5t61.5 7.5q12 0 46 2t73 3t72.5 2t48.5 1q43 16 65 57q-2 20 -3 70.5t-1 105.5q0 57 1 107.5t3 71.5q0 12 4 39.5t8 59.5t8.5 59.5t8.5 39.5v559q0 2 7 44t16.5 99.5 t20.5 119t17 100.5q0 4 4 16t4 17v28q0 29 -15 57.5t-50 28.5h-29q-20 0 -43.5 1t-44.5 1h-29q-106 0 -210.5 -9t-212.5 -9q-25 0 -49.5 4t-51.5 4q-29 0 -50.5 -17.5t-21.5 -47.5z" />
<glyph unicode="^" horiz-adv-x="1142" d="M20 1034q0 -35 26 -54t58 -19q29 0 48.5 12t40.5 28q20 18 73 62.5t112.5 94.5t112 94t72.5 63q10 12 19.5 14t23.5 2q20 0 33.5 -6t30.5 -18q8 -6 39.5 -33t67.5 -55.5t68 -54t40 -31.5q12 -10 31.5 -25.5t41 -30t44 -25t45.5 -10.5q29 0 52 16.5t23 49.5q0 25 -14 44 t-35.5 34.5t-44 29t-37.5 25.5q-14 10 -46 36t-65.5 53.5t-63.5 51t-40 31.5q-16 14 -33.5 33.5t-36 38t-39 31t-46.5 12.5q-12 0 -21.5 1t-19.5 -9l-412 -346q-6 -4 -19.5 -12.5t-30 -20t-29.5 -20.5t-19 -13q-16 -10 -33 -30.5t-17 -43.5z" />
<glyph unicode="`" horiz-adv-x="239" d="M16 1221q0 -37 4.5 -68t28.5 -61q16 -20 44 -47t59 -27q16 0 33.5 9t27.5 24v94q0 27 -1 72t-10 88t-30.5 74.5t-65.5 31.5q-35 0 -53 -20.5t-26.5 -49t-9.5 -62t-1 -58.5z" />
<glyph unicode="a" horiz-adv-x="1110" d="M20 334q0 -59 19.5 -111.5t54.5 -90.5t83 -60.5t108 -22.5q41 0 75.5 10.5t71.5 30.5l22.5 22.5l35 35l35 35l22.5 22.5q2 2 10 15t18.5 28.5t18.5 29t10 17.5q6 10 20.5 16t20.5 11h4h4q4 -2 10.5 -5.5t6.5 -5.5l239 -229q23 -23 49.5 -28t57.5 -5h41q23 10 29 22.5 t6 30.5q0 20 -16.5 39t-38 34t-44 28.5t-35.5 25.5q-12 14 -44.5 48t-67.5 72t-66.5 72t-44.5 48q-35 39 -64.5 95.5t-64.5 108.5t-81 89t-113 37q-78 0 -150 -46t-125 -115t-85 -150.5t-32 -153.5zM160 336q0 29 6 62.5t19.5 65.5t33 57.5t47.5 37.5l150 66q2 1 3 1 q5 0 12 -4q9 -6 18.5 -14t16.5 -16l7 -8q0 -4 -8 -24.5t-8 -24.5q0 -2 -1 -11.5t-1 -13.5q0 -18 8 -32.5t17 -27t17.5 -25.5t8.5 -30q0 -20 -9.5 -39.5t-23.5 -33.5q-45 -49 -86 -87t-106 -38q-53 0 -87 45t-34 94z" />
<glyph unicode="b" horiz-adv-x="815" d="M20 1184q0 -20 5.5 -48t12.5 -56.5t16 -56.5t16 -50l77 -635v-199q0 -31 18.5 -48t45.5 -26.5t53.5 -14.5t44.5 -9q31 -8 55.5 -17.5t47 -16.5t46 -11t52.5 -4q55 0 107.5 25.5t92.5 67.5t63.5 94t23.5 108q0 55 -22.5 131t-63.5 143.5t-98.5 115.5t-127.5 48 q-57 0 -103 -33t-81 -74q-2 -2 -4 -2q-12 0 -23.5 16.5t-13.5 26.5q-18 137 -38.5 274.5t-69.5 268.5q-4 8 -22.5 26.5t-27.5 22.5q0 2 -11 3t-17 1q-4 0 -14.5 -1t-14.5 -3q-20 -14 -22.5 -29.5t-2.5 -37.5zM348 242q0 43 12.5 81.5t22.5 79.5q6 20 10 49t14.5 56t29 44 t50.5 17q43 0 73 -32.5t49.5 -77.5t28.5 -92.5t9 -77.5q0 -31 -14.5 -56.5t-38 -44t-52 -30t-57.5 -11.5q-20 0 -43.5 6.5t-44 17.5t-35 28.5t-14.5 42.5z" />
<glyph unicode="c" horiz-adv-x="987" d="M20 434q0 -113 40 -190.5t110 -126.5t160 -70.5t192 -21.5q45 0 87 -1h8q38 0 77 9q8 2 36 8t62.5 14t67.5 15.5t49 11.5q25 6 41.5 22.5t16.5 42.5q0 33 -23.5 46.5t-52.5 13.5q-51 0 -102.5 -8.5t-103.5 -17.5t-104.5 -17t-103.5 -8q-53 0 -110.5 19.5t-105.5 54 t-78.5 82.5t-30.5 108q0 20 5 49t16 54.5t29.5 44t47.5 18.5q4 0 9 -1t9 -1q27 -18 44.5 -52t36 -66t42 -56.5t62.5 -24.5q25 0 41 11.5t26 28.5t14.5 38.5t4.5 42.5q0 31 -7.5 53.5t-20.5 43t-31.5 38.5t-39.5 41q-14 14 -25.5 37.5t-24.5 44t-29.5 36t-41.5 15.5h-24 q-6 0 -19 -8q-41 -27 -77.5 -50.5t-68.5 -50t-57.5 -60.5t-43.5 -79q-10 -26 -10 -65z" />
<glyph unicode="d" horiz-adv-x="780" d="M20 395q0 -72 19.5 -136t59.5 -113.5t97.5 -78t135.5 -28.5q41 0 81 9t81 9q25 0 47 -10t43.5 -22.5t44 -22.5t49.5 -10q29 0 55.5 13t26.5 48q0 20 -15.5 39t-36 37t-41 34.5t-30.5 33.5q-4 6 -11.5 18t-14.5 26.5t-14 28t-9 17.5q-18 39 -26.5 83t-12.5 88t-7 88 t-12 87l-165 715q-3 22 -3 58v8q0 30 -4 60q-4 32 -19 56t-54 24q-23 0 -36 -11t-20.5 -28.5t-9.5 -38t-2 -38.5q0 -33 4 -72t10.5 -79t13.5 -78t13 -66q6 -23 19.5 -79t29 -119.5t29.5 -119t20 -77.5q2 -2 2 -9v-8q0 -20 -12 -34.5t-31 -22.5q-135 -4 -215 -70.5 t-80 -208.5zM160 387q0 20 6 45t18.5 46.5t32 34.5t45.5 13q27 0 48.5 -18.5t38 -43t28.5 -51t22 -42.5q18 -35 29.5 -74t11.5 -80q0 -16 -17 -34.5t-32 -18.5q-100 0 -165.5 60.5t-65.5 162.5z" />
<glyph unicode="e" horiz-adv-x="1011" d="M20 424q0 -51 11.5 -95t46.5 -83q53 -57 111.5 -111.5t136.5 -77.5q12 -4 34.5 -9l45 -10t40 -9t19.5 -4h278q4 0 22.5 3t29.5 5q8 2 28.5 6t44 10t45 10t29.5 7q23 6 36 25.5t13 41.5q0 35 -28.5 42t-53.5 7q-39 0 -63.5 -3t-67.5 -15h-264q-2 0 -17.5 4t-37 9t-43 10.5 t-33.5 9.5q-31 8 -66.5 26.5t-66.5 44t-52.5 58t-21.5 69.5q0 8 7 19.5t17.5 21.5t21.5 17.5t20 7.5h288q27 0 59 12t59.5 32.5t46 47.5t18.5 55q0 63 -28 101.5t-72 61t-96 31.5t-101 13h-51q-78 0 -141.5 -33.5t-108.5 -88t-70 -125t-25 -144.5zM291 621v14q0 14 11 21.5 t25.5 9.5t28.5 2h25h29q23 0 44 -3t37.5 -11.5t16.5 -22.5q0 -4 -1 -13.5t-9 -9.5h-197q-10 0 -10 13z" />
<glyph unicode="f" horiz-adv-x="698" d="M20 838q0 -111 35 -211.5t88.5 -193.5t120 -180t127.5 -171q16 -20 42 -43t56 -23q25 0 41.5 14.5t16.5 41.5t-9.5 45t-23.5 35.5t-31.5 35t-33.5 41.5q-2 2 -15.5 23.5t-31 49.5t-35 56.5t-27.5 44.5q-4 10 -6 12.5t-2 12.5q0 16 16.5 32.5t32.5 16.5q31 0 60.5 -9 t59 -20.5t59.5 -20.5t61 -9q4 0 16 1t16 1q20 6 23.5 19.5t3.5 29.5q0 31 -41 60.5t-94 52t-105.5 37t-72.5 14.5h-134q-27 14 -42 37.5t-22 52.5t-8 58.5t-1 58.5q0 139 66.5 204.5t209.5 65.5q51 0 87 -34t65 -75h65l17 19v98l-8 17q-4 4 -9.5 13t-7.5 11 q-49 55 -107.5 76.5t-129.5 21.5q-98 0 -171 -30.5t-121 -86t-72 -132t-24 -170.5z" />
<glyph unicode="g" horiz-adv-x="905" d="M18 -348q0 -53 20.5 -103.5t55.5 -91.5q49 -57 96.5 -90t98.5 -49t109.5 -20.5t131.5 -4.5h123q113 51 172.5 141.5t59.5 209.5v28v21q0 8 -2 18t-6 27q-6 27 -23.5 92.5t-38 138t-38 138t-23.5 92.5q0 2 -1 6t-1 6q0 27 12 47.5t25.5 40.5t25.5 41.5t12 48.5 q0 35 -13 70t-37.5 61.5t-56.5 43t-69 16.5q-35 0 -60.5 -13.5t-60.5 -13.5q-25 0 -45 4t-47 4q-61 0 -125.5 -13t-117 -43t-85 -79t-32.5 -121q0 -57 20.5 -100t56 -72t84 -43t103.5 -14q61 0 116.5 16.5t112.5 32.5h4q14 0 33 -17.5t21 -23.5l108 -387q0 -4 3 -22.5 t5 -26.5v-8q0 -61 -27.5 -101.5t-70.5 -64t-96 -32.5t-102 -9q-152 0 -256 116q-12 14 -31 41t-19 50q0 4 4.5 20t4.5 21q0 2 1 14t1 18q0 51 -45 51q-29 0 -55.5 -19t-33.5 -48q0 -4 -1 -22.5t-1 -22.5zM225 293q0 29 24.5 51.5t58.5 37.5t71 23.5t59 8.5q16 0 39 -6.5 t42.5 -16.5t32.5 -27.5t13 -37.5q0 -29 -26.5 -49.5t-63.5 -34t-72.5 -20.5t-54.5 -7q-18 0 -39.5 3t-40 12.5t-31 24.5t-12.5 38z" />
<glyph unicode="h" horiz-adv-x="913" d="M20 1096q41 -231 60.5 -455.5t21.5 -460.5q8 -29 28 -55.5t54 -26.5q25 0 41.5 13.5t28.5 34t19.5 44t11.5 41.5q2 10 6 39t9 59.5t10 59.5t7 39q10 39 41 65.5t70 26.5q33 0 70 -15.5t67.5 -40t54 -56t33.5 -62.5q14 -47 18.5 -94t11.5 -90t25.5 -82t61.5 -72 q20 -16 31.5 -20t32.5 -4q27 0 43 15t16 42q0 18 -8 35.5t-19.5 35l-23 35t-15.5 33.5q-10 43 -12 87t-12 87q-18 66 -55 123.5t-89.5 99t-117 66.5t-133.5 25q-37 0 -70 -17.5t-66 -17.5q-29 0 -41 22.5t-16 53t-3 62.5t-3 52q0 6 -6 36t-13.5 62.5t-13.5 62.5t-8 36 q-2 14 -4 53t-10 81t-22.5 74t-45.5 32q-14 0 -40 -11.5t-26 -29.5v-123z" />
<glyph unicode="i" horiz-adv-x="452" d="M20 1212q0 -39 18.5 -62.5t47.5 -47.5q14 -12 30.5 -27.5t35 -29t38 -23.5t41.5 -10q53 0 54 49q0 29 -21.5 67.5t-52.5 73.5t-66.5 58.5t-64.5 23.5q-35 0 -47.5 -21.5t-12.5 -50.5zM143 623q0 -25 6.5 -74t19.5 -108.5t32.5 -122t45 -113.5t57.5 -84t69 -33 q31 0 45 18.5t14 47.5q0 43 -25.5 85t-39.5 83q-25 63 -42.5 134.5t-31.5 135.5q-4 12 -6 36.5t-8.5 50.5t-20.5 44t-39 18t-39 -11t-22 -29.5t-11.5 -39t-3.5 -38.5z" />
<glyph unicode="j" horiz-adv-x="763" d="M20 -41v-65q0 -90 26 -178.5t77 -159t128 -113.5t177 -43q61 0 114.5 21.5t95.5 58.5t68.5 88t36.5 110v23q0 16 1 34.5t1 37.5v22q0 211 -40.5 408.5t-108.5 396.5q-10 25 -33.5 49.5t-52.5 24.5q-33 0 -44 -23.5t-11 -50.5q0 -35 8 -69.5t20.5 -69.5t25.5 -69t21 -64 q35 -127 54.5 -261.5t19.5 -265.5q0 -37 -3 -77.5t-17.5 -76.5t-42 -59.5t-76.5 -23.5q-53 0 -111.5 8t-103.5 41q-43 33 -67.5 94.5t-41 122.5t-33 107.5t-47.5 46.5q-12 0 -26.5 -4.5t-14.5 -20.5zM330 1083q0 -4 1 -12t1 -12q33 -47 92 -80t106 -51h17q49 0 49 49 q0 27 -20.5 57.5t-51 56t-65.5 43t-62 17.5q-29 0 -48 -19.5t-19 -48.5z" />
<glyph unicode="k" horiz-adv-x="1085" d="M20 1167q0 -25 11.5 -46t27 -40.5t30.5 -40t22 -45.5q47 -183 58 -379q8 -143 8 -284q0 -51 -1 -101q2 -23 8 -52t17.5 -56t30 -46.5t47.5 -19.5t46 16.5t17 45.5q0 66 -13.5 131t-13.5 133v39t2 39q4 12 13.5 22.5t23.5 10.5h4q57 -53 108.5 -111.5t98.5 -120t92 -124 t95 -122.5q35 -41 78.5 -77.5t103.5 -36.5q18 0 41.5 5t43 16t34 27.5t14.5 39.5q0 27 -7 38t-20.5 15t-31.5 4t-41 2q-10 2 -22.5 10.5t-25 18.5t-21.5 20.5t-13 16.5q-16 23 -59.5 78t-92.5 116.5t-92 115.5t-61 77q-6 8 -25.5 29.5t-42.5 45t-43 44t-29 28.5q0 4 -1 9.5 t-1 7.5q0 29 27 51q29 25 67.5 54.5t73.5 63t58.5 73.5t23.5 87q0 23 -14.5 41.5t-40.5 18.5q-2 0 -9.5 -1t-11.5 -1q-35 -31 -63.5 -63t-59 -62.5t-64.5 -59t-75 -53.5h-4q-18 0 -33.5 12.5t-19.5 28.5q-2 10 -7 36t-10.5 54.5t-10.5 54t-7 35.5q-6 29 -15.5 67t-26.5 70.5 t-43 55t-64 22.5q-39 0 -64 -22.5t-25 -61.5z" />
<glyph unicode="l" horiz-adv-x="221" d="M18 164q0 -10 1 -41t1 -41q23 -82 99 -82q31 0 56.5 15.5t25.5 50.5t-20.5 64.5t-20.5 64.5q0 121 12 243.5t29 241.5v549q0 18 -8.5 37.5t-22.5 37t-31.5 28.5t-36.5 11q-37 0 -52 -28.5t-15 -57.5q0 -55 17.5 -107t17.5 -110q0 -111 -8.5 -220t-17.5 -217.5 t-17.5 -218.5t-8.5 -220z" />
<glyph unicode="m" horiz-adv-x="1366" d="M20 197q0 -25 19.5 -41.5t44.5 -16.5q39 0 61.5 24.5t38.5 59.5q8 14 26.5 54t40 85.5t40 84t27 55t22.5 37t32.5 38t38 29.5t42.5 12h6t6 -2q33 -25 55.5 -60.5t36.5 -76.5t21.5 -84t9.5 -82q0 -12 2 -42.5t3 -64.5t2 -64.5t1 -43.5q10 -31 27.5 -52t52.5 -21 q29 0 48 20.5t30 44.5l12 36t15 48.5t13.5 43t8.5 22.5q4 16 15 59t22.5 92t21.5 92t15 60q8 16 22 33.5t35 17.5q25 0 46 -13.5t38.5 -34t32 -43t22.5 -42.5q2 -10 9.5 -34t13.5 -51.5t12 -52t6 -34.5q6 -33 6 -66t2 -64.5t11.5 -61t32 -56.5t50 -46.5t64.5 -19.5 q31 0 49.5 15.5t18.5 48.5q0 18 -9.5 32.5t-21.5 28t-23.5 26.5t-13.5 30l-66 338q-10 49 -40.5 95t-72.5 82t-92.5 57.5t-99.5 21.5q-43 0 -73.5 -18.5t-52 -47.5t-34 -66.5t-20.5 -74.5q-4 -8 -10 -8h-10q-16 0 -33 35.5t-43.5 79.5t-65.5 80t-102 36q-55 0 -98 -24.5 t-74 -54.5t-51.5 -54.5t-32.5 -24.5q-16 0 -16 17q0 20 5 37.5t5 37.5q0 4 -1 16.5t-1 16.5q-10 14 -22.5 23.5t-31.5 9.5q-8 0 -14 -1t-14 -7q-47 -41 -67 -94q-20 -52 -26 -110q-5 -47 -5 -95q1 -11 1 -23v-39q0 -39 -2 -75v-62v-63z" />
<glyph unicode="n" horiz-adv-x="937" d="M20 647q0 -51 10.5 -98t22.5 -96q4 -16 15.5 -57.5t22.5 -87.5t21.5 -87t14.5 -57q4 -31 29.5 -60.5t60.5 -29.5q31 0 49.5 22.5t30.5 53t18.5 63.5t10.5 51q0 4 3 20.5t5 36t5 37t3 21.5q0 6 5 31.5t12.5 55.5t13.5 58.5t10 42.5q4 23 22.5 45.5t43.5 22.5 q35 0 72.5 -28.5t74.5 -75t69.5 -103.5t58.5 -113.5t40 -106.5t14 -83q0 -29 -5 -55.5t-5 -55.5q0 -27 13.5 -45t43.5 -18q33 0 51.5 16.5t27.5 41t11.5 53t2.5 53.5q0 59 -18.5 133t-52.5 149.5t-80 148t-102.5 129t-121 90.5t-131.5 34q-70 0 -105 -42t-51 -91.5 t-23.5 -91.5t-21.5 -42q-25 0 -35 31t-20.5 67t-27.5 66.5t-54 30.5q-18 0 -30.5 -6t-23.5 -29v-45z" />
<glyph unicode="o" horiz-adv-x="1069" d="M20 408q0 -76 31 -150t84 -133t123 -96t150 -37h286q39 0 78 15.5t72 33.5q39 25 76.5 49.5t65.5 55t45.5 68.5t17.5 87q0 45 -13.5 80t-36 65.5t-50 59.5t-56.5 61q-45 51 -90 97.5t-95.5 82t-109.5 56t-133 20.5q-92 0 -173 -28.5t-141.5 -82t-95.5 -130t-35 -174.5z M160 406q0 53 23.5 100t61.5 83t87 57.5t102 21.5q66 0 121 -19.5t103.5 -51.5t91.5 -74t86 -87q20 -23 51 -59.5t31 -75.5q0 -35 -22 -58.5t-52 -45.5q-37 -27 -84 -43.5t-97.5 -24.5t-101.5 -11t-94 -3q-57 0 -112.5 22.5t-98.5 62.5t-69.5 93.5t-26.5 112.5z" />
<glyph unicode="p" horiz-adv-x="1126" d="M20 684q0 -16 8.5 -44t20.5 -55.5t24.5 -47t20.5 -19.5h58q10 0 13 15.5t3 21.5q0 31 -8 60.5t-8 58.5q0 20 6 48t18 54.5t31.5 45t44.5 18.5q27 0 48.5 -15.5t41.5 -34t42 -36t48 -21.5q127 -74 252 -155.5t225 -190.5q10 -12 21.5 -28.5t11.5 -32.5q0 -31 -29.5 -53.5 t-74.5 -40t-100.5 -30t-107.5 -20.5t-95 -14t-62 -10l-4 -2q-23 0 -36 21.5t-17 37.5q-4 117 -13.5 233.5t-11.5 235.5q-10 41 -51 41q-31 0 -48.5 -19.5t-24.5 -48t-8 -59.5t-1 -53v-27q0 -2 2 -12t3 -20.5t2 -20.5t1 -12q0 -12 2 -56.5t3 -95.5t2 -96t1 -55q2 -8 4.5 -34 t4.5 -34v-328q-14 -80 -19.5 -165t-5.5 -167q0 -47 20.5 -83.5t73.5 -36.5q27 0 54.5 12t50 32.5t36 47t13.5 55.5q0 25 -14.5 38t-31 25.5t-30.5 25.5t-14 38v14q0 20 4 71.5t8 109t7 108.5t5 72q14 39 34 45t56 12q6 2 28 7t46.5 10.5t46 10.5t27.5 5q51 10 125 25.5 t141.5 43t114.5 73.5t47 118q0 51 -26.5 101.5t-66.5 95.5t-86 81.5t-83 61.5l-510 330q-20 12 -47 18t-49 6q-49 0 -83 -27.5t-58.5 -68.5t-40 -86t-27.5 -80q-6 -16 -7.5 -25.5t-1.5 -23.5z" />
<glyph unicode="q" horiz-adv-x="831" d="M20 446q0 -49 15.5 -108t45.5 -109.5t75 -85t104 -34.5h180q14 0 35 8t31 16q6 4 20.5 13.5t29.5 19.5t28.5 19.5t19.5 13.5h4q16 0 31.5 -16.5t15.5 -32.5v-396q-16 -76 -29.5 -138t-13.5 -132q0 -41 21.5 -75t71.5 -34q18 0 31.5 23.5t17.5 34.5q-3 21 -3 42q0 16 2 33 q5 35 13 70t17.5 71t11.5 72q4 90 6 167t2 163t-4 168t-4 166q0 55 9 107.5t9 105.5q0 10 -1 40t-1 38q-10 37 -30.5 64.5t-59.5 27.5q-31 0 -47.5 -15.5t-26.5 -43.5q0 -12 -1 -44t-3 -67t-3 -66.5t-1 -44.5q-4 -63 -43 -110t-82 -88q-63 -57 -147 -58q-94 0 -150.5 59.5 t-56.5 151.5q0 45 15 89t44 79t70 55.5t90 20.5q18 0 33.5 -7t29 -14.5t27.5 -14.5t33 -7q27 0 45 14.5t18 42.5q0 33 -15 57.5t-39 42t-53.5 26t-58.5 8.5q-80 0 -148.5 -32t-119.5 -86t-81 -124t-30 -146z" />
<glyph unicode="r" horiz-adv-x="755" d="M20 115q0 -29 26 -47.5t52 -18.5h21q45 39 63 84t19 105q0 35 -4 67.5t-4 67.5v55q16 39 37.5 68.5t68.5 29.5t95 -9t95 -9q25 0 67 2t82 12t68.5 31.5t28.5 62.5q0 31 -20.5 44.5t-48.5 13.5q-37 0 -72 -8.5t-72 -8.5q-61 0 -110.5 16.5t-92.5 44t-81.5 65.5t-77.5 79 q-8 8 -17.5 9t-19.5 1q-31 0 -44 -18t-30 -41v-344q-16 -70 -22.5 -128t-6.5 -128v-98z" />
<glyph unicode="s" horiz-adv-x="954" d="M20 674q0 -35 16.5 -62.5t41 -49t55.5 -37t60 -23.5q10 -4 52 -15.5t89 -26t88 -26.5t51 -14q4 -2 20.5 -8t20.5 -9q10 -4 33.5 -16t49.5 -24.5t49.5 -24.5t31.5 -16q12 -6 31.5 -19.5t19.5 -30.5q0 -18 -13.5 -28.5t-32.5 -16.5t-38.5 -9l-32.5 -5q-6 0 -31.5 -2t-54 -5 t-54.5 -6t-32 -3q-4 0 -20.5 -3.5t-20.5 -5.5q-16 -2 -56 -6t-84 -9t-84 -10l-56 -7q-29 -6 -55.5 -22.5t-26.5 -51.5q0 -47 31.5 -61.5t70.5 -14.5q8 0 25.5 1t19.5 1q6 0 25.5 4t41 8.5t41 8.5t25.5 4q8 2 45 5t78 7t77 7t46 5q6 0 36 5.5t66.5 12.5t73.5 13t56 10 q53 10 96 47t43 97q0 45 -41 91t-98.5 85t-117 67.5t-97.5 40.5q-6 2 -31 9.5t-52.5 15.5t-51 15t-29.5 9.5t-28.5 10.5t-52.5 19t-58.5 20.5t-43.5 15.5q-10 4 -21 13.5t-11 23.5q0 18 16 31q70 25 134.5 37t135.5 12q20 0 36 -7.5t30 -14.5t30.5 -14t37.5 -7q51 0 51 49 q0 45 -24.5 73.5t-60.5 43t-78 19.5t-77 5q-49 0 -118.5 -11t-135 -39t-112 -72t-46.5 -109z" />
<glyph unicode="t" horiz-adv-x="1003" d="M20 807q0 -27 15.5 -50.5t37 -42t47 -33.5t48.5 -24q20 -8 49 -14t56.5 -15.5t49 -25.5t27.5 -43q4 -98 10.5 -201.5t14.5 -201.5q2 -20 4 -49t10 -56.5t25.5 -47t48.5 -19.5q41 0 59.5 25.5t18.5 64.5q0 37 -5.5 63.5t-21.5 67.5v330q0 16 17.5 30.5t31.5 18.5 q18 2 66.5 5t102.5 7t102.5 8t66.5 4q31 4 57.5 11.5t26.5 46.5q0 25 -17.5 38t-41 19t-49 7t-41.5 3q-16 0 -56.5 2t-84.5 3t-84 2t-56 1q-51 29 -62.5 74t-11.5 98q0 35 4 69t4 69q0 39 -18 78.5t-65 39.5q-25 0 -40.5 -18t-23.5 -41q0 -6 -1 -26.5t-1 -26.5q0 -35 5 -68 t5 -67v-41q0 -23 -6 -43.5t-19.5 -35t-37.5 -14.5q-29 0 -53.5 13.5t-48 29t-47 28.5t-52.5 13q-25 0 -45.5 -19t-20.5 -46z" />
<glyph unicode="u" horiz-adv-x="970" d="M20 598q0 -190 76 -328.5t254 -220.5q86 -41 178 -41q61 0 135 15.5t137.5 49t106.5 86t43 128.5q0 41 -12 86t-29 80q-2 6 -17 35.5t-35.5 67.5t-40 76t-30.5 58q-14 27 -36.5 51.5t-55.5 24.5q-27 0 -42 -16.5t-15 -42.5v-31q0 -10 8 -27l133 -262q10 -18 13.5 -39.5 t3.5 -44.5q0 -45 -25 -73.5t-60.5 -45t-77.5 -22.5t-77 -6h-55q-31 0 -51 8q-35 12 -77 38.5t-81 60.5t-64.5 74t-25.5 81q0 20 10 33.5t23.5 25.5t23.5 26.5t10 35.5q0 33 -11 71.5t-32.5 73.5t-51.5 58.5t-69 23.5q-33 0 -50 -17.5t-24 -43t-8.5 -54t-1.5 -53.5z" />
<glyph unicode="v" horiz-adv-x="856" d="M18 672q0 -37 13.5 -100.5t37 -137.5t56.5 -149.5t74 -137t87 -100.5t97 -39q29 0 50.5 9.5t47.5 23.5q63 59 104.5 112.5t69 109.5t46 121t36.5 151q2 14 8.5 38.5t8.5 26.5q6 12 20 27.5t27.5 31t24 32t10.5 34.5q0 20 -11.5 35.5t-28 26t-36 15.5t-35.5 5 q-49 0 -75.5 -36t-37.5 -79q-4 -16 -12 -58t-17.5 -90t-17.5 -90t-10 -59q-14 -63 -54 -110t-85 -88q-10 -8 -25 -9q-25 0 -44 24t-30 44q-4 8 -13 25.5t-18.5 36t-16.5 34t-9 19.5q-10 23 -25.5 58.5t-28.5 69t-23.5 58.5t-10.5 27v133q0 10 -8 23.5t-20.5 24.5t-27 18.5 t-26.5 7.5q-25 0 -45 -17.5t-25 -40.5q0 -8 -1 -31.5t-1 -29.5z" />
<glyph unicode="w" horiz-adv-x="1398" d="M20 489q0 -59 10.5 -142t39 -160.5t79 -132t130.5 -54.5q49 0 85.5 13.5t70.5 35t67 49t69 58.5q10 8 23.5 17t26.5 9q20 0 45.5 -20.5t55.5 -46t60.5 -52t61.5 -38.5q27 -10 54.5 -9.5t55.5 0.5q76 0 152 26t136.5 74t98 114.5t37.5 148.5v53t-3 82t-10 92t-20.5 86 t-37 64.5t-56.5 25.5q-35 0 -45 -17t-10 -48t8 -61.5t17.5 -61.5t17.5 -61.5t8 -63.5q0 -139 -72.5 -222t-211.5 -83q-86 0 -140.5 54t-85.5 128q-12 29 -14 87.5t-9 115.5t-26.5 100t-69.5 43q-25 0 -38 -12t-21 -30.5t-10 -40t-2 -40.5q0 -39 4 -75.5t4 -75.5 q0 -47 -21.5 -93t-57.5 -84t-81 -61.5t-94 -23.5h-16q-53 41 -80 106.5t-38 138t-13 145t-2 128.5q-10 20 -22.5 31.5t-35.5 11.5t-35 -11.5t-22 -31.5q-14 -55 -15.5 -92.5t-1.5 -92.5z" />
<glyph unicode="x" horiz-adv-x="823" d="M20 1012q0 -27 7.5 -53.5t17.5 -53.5q6 -12 14.5 -33.5t17.5 -42t16 -37t9 -18.5q4 -8 17.5 -31.5t29 -51t31 -53.5t21.5 -36q29 -43 48 -66.5t36 -66.5v-8q0 -14 -15.5 -41t-36 -57.5t-41 -59.5t-32.5 -47q-33 -53 -70 -102.5t-37 -112.5q0 -29 15.5 -45t44.5 -16 q4 0 13 2l9 2l58 57l182 272q8 10 23.5 21.5t29.5 11.5q23 0 59.5 -32.5t80.5 -70.5t91.5 -71t88.5 -33q37 0 55 25q0 4 1 15t1 16q0 33 -20.5 60.5t-48 51t-57.5 43t-48 37.5q-14 12 -32.5 26.5t-36 33t-29 38t-11.5 41.5q0 37 17.5 68t37 60.5t37 60t17.5 67.5v33 q-12 16 -24.5 21.5t-31.5 5.5q-43 0 -72.5 -29t-51 -63.5t-41 -63.5t-43.5 -29q-12 0 -18.5 6.5t-14.5 20.5t-29.5 52t-45 79t-45 79t-30.5 52q-4 6 -11 21.5t-14 33t-14.5 33t-9.5 21.5q-8 10 -24.5 21t-32.5 11q-29 0 -43.5 -25.5t-14.5 -49.5z" />
<glyph unicode="y" horiz-adv-x="1003" d="M19 -706q1 -17 1 -25v-25q0 -12 3.5 -39.5t5.5 -59.5t5 -59.5t3 -39.5q12 -53 42 -86t68.5 -50.5t86 -23.5t94.5 -6q94 0 195.5 35.5t190.5 99t154.5 147.5t89.5 181q20 82 23.5 154.5t3.5 158.5v33q0 20 -1 39.5t-1 33.5v17l-90 526q0 6 -1 21.5t-3 32t-3 32t-1 21.5 q-2 18 -6.5 50t-13.5 62.5t-27.5 54t-49.5 23.5q-29 0 -44 -17.5t-25 -41.5q2 -45 2 -94q0 -47 -14.5 -86t-45 -65t-90.5 -26q-43 0 -74.5 22.5t-54 57.5t-34 75t-11.5 77t19.5 54t43 30.5t43 29t19.5 48.5q0 53 -25.5 89t-80.5 36q-59 0 -92 -30t-49.5 -75t-20.5 -97 t-4 -95v-82q29 -123 106.5 -202t206.5 -79q37 0 72 9.5t74 9.5q18 0 30.5 -10.5t20.5 -25t11 -33t7 -32.5q2 -16 10.5 -60t17.5 -94.5t17 -94.5t13 -62v-111q0 -76 -5.5 -140.5t-27.5 -135.5q-25 -74 -78 -134.5t-121.5 -101.5t-146.5 -63.5t-152 -22.5h-55q-43 23 -68.5 79 t-41 113.5t-22.5 101.5t-16 44h-57q-12 0 -17 -12t-8 -29q-1 -11 -1 -23v-9z" />
<glyph unicode="z" horiz-adv-x="1120" d="M20 823q0 -41 38 -72.5t77 -33.5l273 -17q14 -2 25 -16t16 -27q-41 -45 -105.5 -96t-125 -109.5t-104.5 -124t-44 -137.5q0 -61 47 -96t111.5 -52t132 -21.5t106.5 -4.5h92q41 0 94 9h676l17 16v57q0 8 -17.5 17t-39 16.5t-41 11.5t-25.5 4q-16 2 -48 4.5t-65 5.5 t-59.5 5t-34.5 2h-19q-14 0 -33.5 1t-39.5 1h-31q-63 0 -123.5 -9.5t-122.5 -9.5q-31 0 -59.5 7.5t-57.5 9.5q-6 0 -31.5 2t-54 3t-54 2t-32.5 1q-12 2 -29.5 7t-32.5 13.5t-26.5 21.5t-11.5 30q0 2 2 4l8 16q23 39 62 78t85 78t93 78t85 78.5t62.5 81.5t24.5 87 q0 43 -26.5 75t-73.5 36q-12 0 -46 1t-73 2t-73 3t-46 2q-23 2 -53.5 7.5t-64.5 11.5t-65.5 10t-56.5 4q-33 0 -57.5 -20.5t-24.5 -53.5z" />
<glyph unicode="{" horiz-adv-x="1028" d="M20 303q0 -76 24 -155.5t68 -145t110.5 -107.5t152.5 -42q94 0 181 19t179 38q14 2 37 6t44.5 11t36.5 20.5t15 36.5q0 29 -20.5 48t-44.5 19q-4 0 -9.5 -1t-7.5 -1q-12 -4 -45.5 -11t-70.5 -15.5t-70 -14.5t-45 -8q-4 0 -37 -1t-49 -1q-10 0 -43 1t-43 1q-53 8 -93 39 t-66.5 73t-41 93t-14.5 100q0 35 12.5 72t30.5 70.5t41.5 64.5t48.5 55q12 14 39 41l54.5 54.5l50 50l28.5 28.5q16 14 36.5 26.5t38 26t30 31t12.5 41.5q0 35 -23.5 51.5t-52.5 26.5t-52.5 21.5t-23.5 33.5q0 20 23.5 35t51.5 30t51.5 38.5t23.5 62.5q0 27 -14.5 48.5 t-36 39t-44 35t-36.5 37.5q-31 39 -49.5 96.5t-18.5 106.5q0 53 40 91t94.5 62.5t112.5 36t95 11.5q27 0 48.5 -10.5t41 -24t41 -23.5t45.5 -10q45 0 73 29.5t28 72.5q0 61 -48.5 95t-105.5 34q-84 0 -176 -13t-177 -47t-150.5 -93.5t-92.5 -151.5v-78q0 -88 27.5 -152.5 t72.5 -137.5q2 -4 4.5 -9.5t4.5 -7.5v-4q0 -37 -31 -57.5t-69 -38t-68.5 -40t-30.5 -63.5q0 -35 23.5 -53t51 -33.5t51 -32t23.5 -49.5q0 -10 -1 -17t-7 -15q-43 -47 -93 -104.5t-93 -120t-73 -131t-30 -140.5z" />
<glyph unicode="|" horiz-adv-x="509" d="M20 1700q0 -92 9.5 -184.5t31.5 -182.5q2 -6 4.5 -18t5.5 -25.5t5 -25t2 -13.5l78 -676v-509q0 -12 9 -23.5t21.5 -22t25.5 -18.5t21 -10h64q59 0 113.5 14t78.5 76q0 8 1.5 31.5t1.5 29.5q0 86 -14.5 169t-37.5 165q-2 6 -7 19.5t-9 29t-8 29.5t-4 20v502q-4 10 -8.5 38 t-4.5 36t-1 44t-3 76t-3 74.5t-1 45.5q0 8 -3 38.5t-7 67.5t-8 72t-6 51q-4 29 -17 51q-35 49 -56.5 88t-68.5 68h-45q-61 0 -110.5 -29t-49.5 -98z" />
<glyph unicode="}" horiz-adv-x="954" d="M20 1774q0 -25 17.5 -39.5t40.5 -22.5q57 -2 127.5 -4t142.5 -11t138.5 -29.5t118.5 -57.5t84 -93.5t32 -138.5q0 -78 -36 -141t-97 -111q-12 -10 -36 -21t-47.5 -25.5t-39.5 -33t-16 -42.5q0 -43 30.5 -61.5t68.5 -29t68.5 -22.5t30.5 -43q0 -23 -30.5 -41.5t-68.5 -41 t-68.5 -50t-30.5 -66.5q0 -31 16 -47t39.5 -25.5t50.5 -13.5t49 -12q25 -8 53.5 -26.5t51 -42t38 -51.5t15.5 -56q0 -43 -27.5 -85t-68.5 -76t-87.5 -54.5t-84.5 -20.5q-47 0 -88 17.5t-89 17.5q-63 0 -112 -2t-119 -8q-23 -4 -40 -23.5t-17 -44.5q0 -29 18 -49.5t47 -30.5 q92 -4 181.5 -18t181.5 -14q70 0 149.5 33.5t149 88t116 124t46.5 141.5q0 49 -15.5 89t-41 74.5t-58.5 66.5t-66 65q-8 8 -9 14t-1 16q0 14 5 20.5t22 16.5q8 2 26.5 12.5t40 22.5t40 23.5t24.5 15.5q20 14 34.5 31.5t14.5 42.5q0 43 -31 64.5t-68.5 35.5t-68.5 30.5 t-31 51.5q0 29 22.5 47t37.5 43q33 59 53 120.5t20 129.5q0 131 -61.5 217t-156.5 137t-209.5 72.5t-223.5 21.5h-53t-64.5 -6t-55.5 -22.5t-24 -48.5z" />
<glyph unicode="~" horiz-adv-x="1400" d="M-78 748q0 -66 68 -66q25 0 35 3t36 22l355 247q10 6 29.5 15.5t31.5 9.5q33 0 48.5 -27.5t26.5 -70.5t25.5 -91.5t46 -91.5t86 -70.5t144.5 -27.5q117 0 241 19.5t226 78.5q33 20 46 57.5t36 65.5q14 18 28.5 31.5t23.5 25t15.5 24.5t6.5 36q0 37 -20.5 51.5t-55.5 14.5 q-29 0 -47.5 -11.5t-40.5 -29.5q-6 -6 -27.5 -27t-47.5 -44.5t-47.5 -44t-27.5 -26.5q-27 -23 -62.5 -37t-74.5 -22t-79 -11t-73 -3q-78 0 -115.5 28.5t-54 71.5t-22.5 93t-18.5 93t-42 72t-95.5 29t-127 -27t-118.5 -65.5t-110.5 -83t-100 -78.5q-39 -29 -79 -48.5 t-69 -60.5v-24z" />
<glyph unicode="&#xad;" d="M18 907q0 -41 34 -63.5t71 -22.5q131 0 265 11.5t265 21.5q41 4 79 23.5t38 66.5q0 29 -16.5 46.5t-42.5 27.5q-6 0 -26.5 1t-27.5 1q-10 0 -30.5 -1t-22.5 -1q-12 0 -56 -4t-96.5 -8.5t-96.5 -8.5t-56 -4q-23 -2 -54.5 -1t-66.5 1q-33 0 -63.5 -3t-53.5 -13 q-6 -4 -21 -19.5t-20 -21.5l-1 -12q-1 -11 -1 -17z" />
<glyph unicode="&#xc6;" horiz-adv-x="1941" d="M20 39q0 -37 20.5 -50.5t53.5 -13.5q55 0 81 38t42 85q43 113 97.5 227.5t101.5 217.5q10 14 25.5 27.5t31.5 21.5q96 -2 195.5 13.5t191.5 35.5q2 2 8 2h9q23 0 45 -17t28 -42q4 -16 14.5 -59.5t21.5 -92.5t22.5 -92t15.5 -59q0 -4 5 -18.5t11.5 -32t11.5 -32t5 -16.5 q6 -29 7 -69.5t9 -78.5t28.5 -64.5t65.5 -26.5h29q4 0 21.5 4t21.5 4q25 4 90.5 13t139 19.5t139 19.5t92.5 13h24q23 0 46.5 -4t48.5 -4q41 0 71.5 23.5t30.5 66.5q0 61 -66 84h-57q-63 0 -124.5 -8t-123 -17.5t-123 -17.5t-122.5 -8h-33l-49 51q-2 0 -7.5 14.5t-12.5 35 t-13 41t-10 32.5q-4 14 -14.5 54t-23 85t-22.5 84t-14 56v20q0 23 13.5 43.5t35.5 28.5q68 2 136.5 9t135.5 7q37 0 72 -5t72 -5h26t27 2q25 8 42 21.5t17 39.5q0 27 -13 45.5t-33.5 28.5t-46 15.5t-48.5 5.5h-444q-27 0 -46.5 26.5t-27.5 46.5l-115 314v8q0 16 12.5 30.5 t28.5 18.5q129 0 258 8t258 8q29 0 54.5 -5t54.5 -5q8 0 21 1l12 1l24 25q2 0 2 12v19q0 49 -26.5 82.5t-81.5 33.5h-17q-6 0 -23.5 -2t-38 -5t-37.5 -5t-24 -4h-460q-25 0 -44.5 17.5t-38 37t-39 36.5t-46.5 17q-31 0 -53.5 -15t-39 -38.5t-26.5 -51.5t-18 -52l-527 -1209 q-8 -12 -20.5 -31.5t-24.5 -40t-20.5 -41t-8.5 -38.5zM514 799l8 24q8 20 29.5 68.5t43 99.5t41 95t26.5 59l32 65q8 10 11.5 13.5t13.5 3.5q23 0 34 -16.5t17 -32.5l107 -306v-12q0 -33 -39 -51t-89.5 -28.5t-98.5 -13.5t-68 -3q-18 0 -41 3t-27 32z" />
<glyph unicode="&#xe6;" horiz-adv-x="1314" d="M20 295q0 -51 16.5 -105.5t47.5 -98.5t76 -71.5t102 -27.5q29 0 55.5 5t49.5 28l147 147l3 1t7 1q18 0 31 -10q80 -92 167 -120t204 -28q27 0 88 2t123.5 14.5t110.5 40t48 81.5q0 35 -22.5 52t-52.5 17q-2 0 -8.5 -1t-8.5 -1q-72 -20 -160 -38.5t-165 -18.5 q-35 0 -73 11t-69.5 31.5t-53 51.5t-21.5 72v16l49 49q2 2 8 4t8 4q8 0 26.5 3.5t40 7.5t40 8t24.5 6q45 10 108.5 31.5t122 54.5t99.5 78t41 106q0 53 -40 93t-91 47h-21q-14 0 -29.5 1t-29.5 1h-19q-59 0 -110 -9.5t-100.5 -24.5t-97.5 -36.5t-103 -46.5q-8 -4 -23.5 -10 t-17.5 -6q-68 -10 -133.5 -18.5t-125 -26t-110.5 -52.5t-92 -100q-31 -49 -48.5 -103.5t-17.5 -111.5zM160 305q0 37 16.5 78t44 77t62 59.5t73.5 23.5q16 0 37 -4t38.5 -13.5t29.5 -25t12 -35.5q0 -37 -16.5 -92.5t-44 -107.5t-66.5 -89t-82 -37q-29 0 -48 17.5t-31.5 43 t-18.5 54t-6 51.5zM727 600q0 31 29.5 46.5t52.5 19.5q10 2 31.5 7t45 10t44 9t26.5 6h17q16 0 33.5 -4t17.5 -24q0 -18 -30.5 -38t-71.5 -36t-80 -27.5t-58 -11.5q-18 0 -37.5 8t-19.5 35z" />
<glyph unicode="&#x2000;" horiz-adv-x="946" />
<glyph unicode="&#x2001;" horiz-adv-x="1892" />
<glyph unicode="&#x2002;" horiz-adv-x="946" />
<glyph unicode="&#x2003;" horiz-adv-x="1892" />
<glyph unicode="&#x2004;" horiz-adv-x="630" />
<glyph unicode="&#x2005;" horiz-adv-x="473" />
<glyph unicode="&#x2006;" horiz-adv-x="315" />
<glyph unicode="&#x2007;" horiz-adv-x="315" />
<glyph unicode="&#x2008;" horiz-adv-x="236" />
<glyph unicode="&#x2009;" horiz-adv-x="378" />
<glyph unicode="&#x200a;" horiz-adv-x="105" />
<glyph unicode="&#x2010;" d="M18 907q0 -41 34 -63.5t71 -22.5q131 0 265 11.5t265 21.5q41 4 79 23.5t38 66.5q0 29 -16.5 46.5t-42.5 27.5q-6 0 -26.5 1t-27.5 1q-10 0 -30.5 -1t-22.5 -1q-12 0 -56 -4t-96.5 -8.5t-96.5 -8.5t-56 -4q-23 -2 -54.5 -1t-66.5 1q-33 0 -63.5 -3t-53.5 -13 q-6 -4 -21 -19.5t-20 -21.5l-1 -12q-1 -11 -1 -17z" />
<glyph unicode="&#x2011;" d="M18 907q0 -41 34 -63.5t71 -22.5q131 0 265 11.5t265 21.5q41 4 79 23.5t38 66.5q0 29 -16.5 46.5t-42.5 27.5q-6 0 -26.5 1t-27.5 1q-10 0 -30.5 -1t-22.5 -1q-12 0 -56 -4t-96.5 -8.5t-96.5 -8.5t-56 -4q-23 -2 -54.5 -1t-66.5 1q-33 0 -63.5 -3t-53.5 -13 q-6 -4 -21 -19.5t-20 -21.5l-1 -12q-1 -11 -1 -17z" />
<glyph unicode="&#x2012;" d="M18 907q0 -41 34 -63.5t71 -22.5q131 0 265 11.5t265 21.5q41 4 79 23.5t38 66.5q0 29 -16.5 46.5t-42.5 27.5q-6 0 -26.5 1t-27.5 1q-10 0 -30.5 -1t-22.5 -1q-12 0 -56 -4t-96.5 -8.5t-96.5 -8.5t-56 -4q-23 -2 -54.5 -1t-66.5 1q-33 0 -63.5 -3t-53.5 -13 q-6 -4 -21 -19.5t-20 -21.5l-1 -12q-1 -11 -1 -17z" />
<glyph unicode="&#x2013;" horiz-adv-x="1060" d="M18 907q0 -41 46.5 -63.5t96.5 -22.5q178 0 360.5 11.5t361.5 21.5q56 4 107.5 23.5t51.5 66.5q0 29 -22.5 46.5t-57.5 27.5q-9 0 -36.5 1t-37.5 1q-13 0 -41 -1t-31 -1q-16 0 -76 -4t-131.5 -8.5t-131.5 -8.5t-76 -4q-32 -2 -74.5 -1t-90.5 1q-45 0 -86.5 -3t-72.5 -13 q-9 -4 -29 -19.5t-27 -21.5l-2 -12q-1 -11 -1 -17z" />
<glyph unicode="&#x2014;" horiz-adv-x="2084" d="M18 907q0 -41 92.5 -63.5t193.5 -22.5q357 0 722 11.5t721 21.5q112 4 215.5 23.5t103.5 66.5q0 29 -45 46.5t-116 27.5q-16 0 -72 1t-75 1q-27 0 -83 -1t-61 -1q-33 0 -152.5 -4t-262.5 -8.5t-263 -8.5t-153 -4q-62 -2 -148 -1t-181 1q-90 0 -173 -3t-146 -13 q-16 -4 -57 -19.5t-55 -21.5l-2 -12q-3 -11 -3 -17z" />
<glyph unicode="&#x202f;" horiz-adv-x="378" />
<glyph unicode="&#x205f;" horiz-adv-x="473" />
<glyph unicode="&#x25fc;" horiz-adv-x="1085" d="M0 0v1085h1085v-1085h-1085z" />
</font>
</defs>
</svg>
