<?xml version="1.0" standalone="no"?>
<!DOCTYPE svg PUBLIC "-//W3C//DTD SVG 1.1//EN" "http://www.w3.org/Graphics/SVG/1.1/DTD/svg11.dtd" >
<svg xmlns="http://www.w3.org/2000/svg">
<metadata></metadata>
<defs>
<font id="alaskannightsregular" horiz-adv-x="483" >
<font-face units-per-em="2048" ascent="1638" descent="-410" />
<missing-glyph horiz-adv-x="500" />
<glyph horiz-adv-x="0" />
<glyph unicode="&#xd;" />
<glyph unicode=" " />
<glyph unicode="!" horiz-adv-x="600" d="M8 1446q0 -31 12 -53q-12 18 -12 55q0 96 84 131q-84 -39 -84 -133zM53 1356q18 -18 31 -19q14 53 39 164q23 -102 59 -162l72 43q-29 -27 -29 -82q0 -49 25 -65q35 10 35 70q0 12 -4 57q-4 33 0 45q10 0 34.5 7t38.5 7q16 0 13 -14q-4 -18 0 -23l47 48v-209 q-4 125 -17 176q-12 0 -35 -33q-4 -31 -4 -160v-889h-264v1002q-20 16 -41 37zM94 -18v251h264v-251h-264zM94 1579v20h43v-20h-43zM145 1599q10 0 42 -8t44 -8q16 0 49.5 9.5t45.5 9.5q-86 -31 -111 -31q-18 0 -38.5 14t-31.5 14zM221 1495q10 4 25 4q49 0 80 -41 q-14 0 -50 15q-43 18 -55 22zM326 1612q31 4 69 -29q43 -39 41 -88q6 39 -31.5 74t-78.5 43z" />
<glyph unicode="&#x22;" horiz-adv-x="843" d="M31 1315v270q18 8 69 43q18 12 52 12q25 0 30 -4q16 -8 17 -30q29 -18 49 -19q10 0 18 6t10 6q18 -18 19 -36q10 -78 10 -154v-149q-35 -8 -59 -48q-2 -45 -2 -88q-6 -74 -60 -73q-12 0 -33.5 13t-25.5 30q-2 10 2 38.5t4 41.5q0 23 -8 38q-18 37 -60 56q-33 16 -32 47z M45 1520q6 0 14.5 -6.5t10.5 -6.5q0 14 10 25q10 -8 24 -23q-16 -41 -18 -34q4 -8 12 -58q4 -29 31 -39q0 39 -12 70q25 18 22 18l29 -26l27 26q14 -27 26 -26q6 0 19.5 22.5t21.5 30.5q12 -12 17 -12q0 -17 12 -29v72q0 29 -15 28q-16 12 -49 19q-41 6 -51 10q-2 10 -8 23 q-14 10 -33 10q-14 0 -48 -18.5t-40 -32t-2 -43.5zM393 1309v270q20 10 70 43q18 12 49 12q20 0 32.5 -5t16.5 -32q37 -18 49 -18q10 0 18.5 7t10.5 7q18 -23 18 -37l11 -153v-143q-35 -8 -60 -48q-2 -45 -2 -88q-6 -74 -59 -73q-14 0 -34.5 13t-25.5 30q8 39 -4 118 q-20 39 -61 52q-29 8 -29 45zM408 1513q6 0 13 -6t11 -6q0 14 10 25l25 -25q-20 -31 -18 -33q4 -6 12 -57q4 -29 31 -39q0 39 -13 70q18 18 23 18l28 -28l27 26q4 -8 8 -17t19 -9q6 0 18 23.5t21 31.5q14 -14 18 -14q0 -17 12 -27v72q0 29 -16 28q-14 10 -47 17 q-39 8 -51 12q-2 8 -9 20q-14 10 -34 11q-35 0 -80 -41q-14 -10 -8 -52z" />
<glyph unicode="#" horiz-adv-x="1026" d="M-18 934l36 196h119q8 20 29 136q-53 10 -119 6q31 125 37 190h113q-2 16 0 49q10 39 34 111q23 10 66 10h68q37 2 55 15q31 -27 31 -62q0 -16 -10.5 -49t-10.5 -47v-21q10 -6 45 -6q55 0 59.5 55.5t8.5 106.5q41 16 67 16q10 0 14.5 -8t12.5 -8q10 0 32.5 10.5 t37.5 12.5q10 4 25.5 -17.5t31.5 -21.5q6 0 12 2q-12 -55 -22 -146q36 -4 110 0q-10 -70 -30 -192q-72 4 -115 -6q-18 -66 -19 -127q23 23 39 22q8 0 27.5 -15.5t32.5 -15.5q-10 -66 -31 -190q-8 0 -39 2q-29 2 -45 0q-23 -4 -31 -14q-2 -43 -18 -127h-234q14 63 15 139h-76 q-14 -35 -29 -139h-227q4 23 11 66.5t11 66.5q-27 4 -59 4q-31 0 -65 -4zM201 1503q0 -31 28 -80q23 -43 43 -63q12 29 37 29q27 0 37 -25q0 -4 -2 59q0 31 16 54q16 -12 21 -13v-16q-4 39 22.5 77.5t26.5 65.5q0 29 -10 49q-25 -14 -131 -16q-37 -2 -58 -8q4 -39 -13 -76z M348 1098l33 -54q-4 -25 4 -38q20 31 57 81l15 -16q24 49 24 59t-8 22.5t-8 14.5q-20 0 -66 -20q-51 -25 -51 -49zM373 1147q43 16 86 33q22 8 22 49v41h-108q10 -10 10 -37q0 -16 -5 -47t-5 -39zM526 1462q0 -51 54 -129q20 -25 32 -24q0 53 4 75q25 20 72 43v25 q0 41 13 66l38 73q0 27 -22 49h-10q-12 -4 -36 -13t-34 -9q-8 0 -12 7t-15 7q-10 0 -32.5 -4t-28.5 -4q-4 -31 -14 -96q-8 -57 -9 -66zM688 1075q0 -33 17 -90q-2 0 30 16q35 89 33 97v47q-2 0 -10 4t-19 4q-20 0 -35.5 -27.5t-15.5 -50.5z" />
<glyph unicode="$" horiz-adv-x="913" d="M2 322v245q10 -2 37 35q57 -20 70 -20q6 0 25.5 17t21.5 17q8 0 8 -3t8 -3q27 0 47 29q6 -10 35 -23q23 -12 22 -28q0 -6 -4 -17q8 -6 37 -6v-203q0 -53 53 -53q10 0 42 33t49 43q4 90 -19 164q-10 33 -65 80q-43 35 -86 69q-55 45 -111 88q-68 57 -96 105 q-74 119 -74 313q0 121 25 176q41 90 174 158q8 53 30 150q20 4 62 16q33 8 41 8q6 0 28 -6q16 -6 25 -2q-4 -45 47 -59q39 -12 88 -7v-92q92 2 165 -64.5t73 -152.5v-289h-330q23 35 23 88q0 139 -80 140q-63 0 -64 -97q0 -72 37 -112q25 -29 131.5 -111t157.5 -135 q86 -88 108 -170q17 -60 17 -205q0 -174 -19 -225q-39 -106 -194 -152q-2 -14 -2 -137h-307v129q-236 33 -236 269zM31 588q0 -96 1 -107.5t10 -33t9 -27.5q0 -14 -7 -47t-5 -45q8 -14 16 -37q0 -23 -2 -47q2 -31 23 -56q27 27 35 82q4 45 6 92q12 12 22 13q37 -96 37 -133 q0 -12 -2 -25q16 25 51 64q8 -14 8 -43q13 29 33 45v319q-18 8 -47 29q-25 -29 -47 -29q-10 0 -18 8q-18 -37 -45 -37q-8 0 -38 7.5t-40 7.5zM152 1368q0 -14 16 -111q14 -82 61 -96q0 43 9 60q18 25 47.5 90t56.5 100q27 -39 35 -63q12 45 29 57q16 -100 43 -100q8 0 23 37 t15 49q0 6 -26 102q-33 104 -41 149q-14 8 -45 41q-18 20 -41 21q-37 0 -101 -25q-14 -27 -22 -106.5t-29 -112.5q-31 -49 -30 -92zM344 174q0 -94 37 -94q10 0 13 6t5 8q2 -2 -2 -10q-2 -4 9 -4q14 0 22 82q0 39 4 100q4 12 17 37q10 19 10 27v47q-29 -10 -51 -35 q-31 -33 -33 -35t-4 -19.5t-7.5 -26.5t-15.5 -15q-4 -37 -4 -68z" />
<glyph unicode="%" horiz-adv-x="1159" d="M0 -12q63 131 195 391l403 797q53 104 193 401q14 33 120 33q35 0 63.5 -20.5t53.5 -20.5q-20 -35 -53 -111q-4 -51 -27 -149q-16 0 -33 16l-358 -690l25 -6q4 16 24 43q23 2 78 6q49 4 57 4q37 0 92.5 -32t81.5 -68q20 -29 21 -236q0 -172 -16 -223q-41 -143 -201 -143 q-72 0 -143.5 50t-71.5 117v365l-275 -524h-229zM86 1440q0 27 54.5 94.5t70.5 73.5q47 10 72 10q8 0 116 -35q23 -6 27 -37q8 -12 29 -16q47 -27 59 -86q4 -21 4 -193q0 -178 -16 -229q-41 -131 -197 -131q-182 0 -213 174zM92 1440q0 -10 14 -41q18 -39 21 -43l16 14 q4 -25 23 -61q18 -10 41 -29q14 -25 43 -63q45 20 51 98q8 90 29 110q8 -6 12 -6t8 6q8 -12 6 -41.5t2 -33.5q33 -66 64 -88q37 27 37 26q12 70 12 90q0 35 -29.5 115t-42.5 84q-94 33 -116 33q-12 0 -37 -5.5t-35 -6.5t-61 -64q-57 -68 -58 -94zM279 1147q0 -53 8 -84 q14 0 28.5 4t16.5 4q0 313 -13 322q0 -92 -12 -133q-12 -16 -26 -39q-2 -8 -2 -74zM526 569q16 -18 17 -39q16 -10 71 -30q45 -18 54 -33l39 39q12 -25 36 -60q29 -16 74 -49q18 -24 47 -53v150q0 182 -123 182q-39 0 -145 -19q0 -33 -6 -36q-35 0 -64 -17v-35zM688 178 q0 -10 19 -28q8 0 22.5 4t18.5 4l-11 284q-10 0 -28 56l-11 -6q-10 -5 -10 -17v-297zM788 1505q0 -68 27 -99.5t39 -57.5l23 22q25 -23 63 -53q49 139 49 215q0 43 -15.5 56.5t-62.5 13.5q-68 0 -90 -13q-33 -18 -33 -84z" />
<glyph unicode="&#x26;" horiz-adv-x="1032" d="M0 504q0 279 119 366q-119 104 -119 279q0 100 49 244q-2 18 6 59q2 4 29 10q20 27 66 70q27 29 83 67q43 18 121 19q68 0 107 -15.5t49 -15.5q8 0 28.5 4t30.5 4q43 0 88 -69q35 -51 84 -96q4 -20 -10 -76q51 -133 49 -156v-70h-317q4 12 4 25v2q0 53 -72 53 q-82 0 -82 -100q0 -55 23 -55q10 0 17 3t16 3q10 0 34.5 -17.5t34.5 -21.5v-309l-30 6q-6 -6 -7 -29q-10 0 -26 -16q0 4 -5 16t-7.5 16.5t-12.5 4.5q-41 0 -41 -107q0 -23 2 -56.5t2 -37.5q0 -10 -2 -45t-2 -55q0 -137 78 -138q27 0 51.5 21.5t24.5 50.5v680q45 -8 53 29 q23 0 78 4t61 4q8 0 58.5 -4t70.5 -6q12 -33 45 -31q53 2 56 2v-301q2 -10 -13 -80q-14 -86 -18 -113q-20 20 -29 68q-4 41 -8 80q-8 2 -31 43l-4 -422q-16 -152 -147 -240q-109 -76 -229 -75q-104 0 -211 61q-123 72 -162 180q-33 92 -33 283zM37 1182q0 -25 13 -64t28 -51 l14 14q35 -31 49 -28q0 20 8.5 58t8.5 54q35 27 98 66q12 -12 22.5 -37t16.5 -31q2 33 12 84q31 39 72 105q8 6 18 6q33 -31 29 -53q23 23 39 22q12 0 36.5 -33.5t45.5 -62.5l16 14q10 -12 15 -26q23 -4 36 -19l15 17q4 -10 14 -31q31 6 80 24v25q-4 6 -68 133q4 4 19 0 q20 -4 26 -4q37 0 37 41q0 18 -4 22q-41 53 -123 150q-10 10 -41 10q-10 0 -30.5 -3t-28.5 -3q-10 0 -49 14.5t-107 14.5q-82 0 -121 -19q-16 -6 -44.5 -32.5t-35 -30.5t-44.5 -43q-31 -31 -48 -31v-65q14 0 21 -7q-45 -80 -45 -200zM313 825q0 -29 66 -139q20 37 18 107 q-2 90 0 106t18.5 45t16.5 37q0 18 -39 68q-23 2 -71 2q-2 -125 -5.5 -180.5t-3.5 -45.5zM477 690q0 -10 25 -65q29 -63 35 -86q8 20 26 88q4 -6 11.5 -24.5t9.5 -27.5q16 16 18 17q0 137 6 176q29 -45 82 -96q16 29 34.5 58.5t45.5 45.5q18 -33 53 -102q8 -20 12.5 -67.5 t10.5 -63.5q4 41 20 139q13 86 13 94t-17.5 81t-21.5 104q-18 0 -23 -7q-16 53 -37 86q-111 12 -125 13q-8 0 -62 -5.5t-71 -5.5q-4 -70 -24 -213q-20 -135 -21 -139z" />
<glyph unicode="'" horiz-adv-x="460" d="M12 1321v262q14 8 70 43q18 12 49 12q25 0 31 -2q12 -8 16 -32q31 -18 47 -19q10 0 18.5 7t10.5 7q18 -25 18 -36q12 -125 9 -150v-141q-35 -8 -58 -47q0 -43 -2 -86q-4 -72 -57 -72q-12 0 -32.5 13.5t-25.5 27.5q8 39 -4 119q-18 37 -59 49q-31 8 -31 45zM27 1522 q6 0 13 -7.5t11 -7.5q0 16 10 27q2 -4 23 -25q-18 -35 -18 -32q6 -10 12 -56q6 -29 31 -39q0 43 -11 68q18 18 21 18l28 -26l25 24q16 -25 27 -24q6 0 19 21.5t22 29.5q12 -12 16 -12q0 -17 12 -27v70q0 29 -14 28q-16 10 -47 17q-39 8 -51 12q-2 8 -9 21q-12 10 -32 10 q-35 0 -80 -41q-14 -10 -8 -49z" />
<glyph unicode="(" horiz-adv-x="598" d="M-8 774q0 205 69 383q104 264 340 471q4 4 5 37q14 20 48.5 37.5t49.5 17.5q8 0 19.5 -6t19.5 -2q0 -39 5 -120t5 -85q0 -55 -31 -161q-29 -94 -41 -115q-2 14 2 49q2 31 -2 51q-4 29 -22 60q-272 -233 -273 -609q0 -416 297 -641q8 -2 21 31q14 -8 31 -33 q40 -145 40 -213q0 -139 -24 -209l-16 15q-20 -16 -39 -60v97l-31 -23q-16 53 -35 152q-147 115 -256 274q-100 152 -139 301q-43 168 -43 301zM412 1614q0 -51 40 -161t40 -155q0 -14 -3 -26q0 8 10.5 19.5t12.5 19.5q33 118 33 196q0 10 -6.5 22.5t-6.5 14.5q0 45 -2 90 q-2 61 -26 78q-68 -25 -76 -33q-16 -14 -16 -65zM434 -33q0 -10 12 -84q14 -88 19 -121q10 0 24 15l13 -13v-63q8 29 30 37q8 -6 19 -6q16 118 16 194q0 6 -20.5 96.5t-24.5 133.5q-8 0 -26.5 -9.5t-22.5 -5.5q-39 -141 -39 -174z" />
<glyph unicode=")" horiz-adv-x="739" d="M6 1380q0 8 6 33t6 35q0 45 2.5 136t2.5 134q8 0 38.5 -3t38.5 -1q31 -14 47 -49q23 -43 50 -68q201 -184 303 -421q90 -211 90 -428q0 -485 -404 -840q-2 -20 13.5 -66.5t15.5 -50.5q0 -12 -31.5 -56t-46.5 -54q-20 35 -114 112v293q0 25 21.5 48.5t41.5 23.5 q8 0 14 -7.5t19 -7.5q49 0 141 146q78 125 88 166q10 27 23 73q25 147 24 217q0 371 -250 601q-29 -61 -28 -119q-33 37 -66 73q-45 51 -45 80zM14 1380q0 -25 25 -61q25 -23 70 -70q10 74 41 211q4 12 31.5 49t27.5 47q0 18 -49 80l-58 70q-12 -2 -34 2q-29 4 -37 4 q0 -45 -2 -134t-2 -130q0 -10 -6.5 -34.5t-6.5 -33.5zM29 86v-293q82 -59 108 -106q72 77 72 104q0 8 -17.5 55.5t-19.5 69.5q6 53 4 141q-8 39 -45 76q-6 0 -21.5 8.5t-23.5 8.5q-18 0 -37.5 -23t-19.5 -41z" />
<glyph unicode="*" horiz-adv-x="536" d="M2 1350q14 35 33 98q68 -18 137 -49q4 4 33 41q20 27 28 26q6 0 13 -6q0 29 -4 89.5t-4 62.5q0 16 47 47q29 -16 67 -53q0 -8 -4 -101q-2 -57 8 -57l35 6q0 -27 19 -55l155 49q4 -22 33 -98l-211 -68q43 -57 129 -178q-29 -20 -84 -60l-135 187l-131 -187q-29 20 -90 60 l131 168q0 10 -4 12q-66 20 -201 66zM176 1376q27 -22 66 -59q14 115 -6 143q-25 -14 -39 -43q-20 -41 -21 -41zM244 1612q35 -61 71 -84q21 45 21 94q-27 6 -51 31q-31 -14 -41 -41zM317 1386q49 -84 68 -86q-4 39 21 64q0 -4 -21 84h-20q-47 -31 -48 -62z" />
<glyph unicode="+" horiz-adv-x="1026" d="M16 780q0 25 58 101q6 -31 76 -31q27 0 36 6l13 -12q16 6 55 6q6 0 24.5 12t24.5 12q8 0 18.5 -9t14.5 -9v289q20 20 26 20q8 0 59.5 -6t57.5 -6q8 0 19.5 6t17.5 6q16 0 86 -24l4 -279q4 4 12.5 7t10.5 5l20 -30q14 0 27 24l12 -12q18 18 31 18q6 0 28.5 -9t30.5 -9 q6 0 19 12q0 -10 22 -14q16 -4 31 -6q37 -8 37 -12v-154q0 -6 6 -14.5t6 -18.5q0 -6 -6 -31.5t-6 -37.5h-283v-279h-262v277h-301q0 27 -4 79l-12 7q-8 139 -9 116zM23 780q0 -6 3 -49t3 -63q-4 0 20 16q6 -25 6 -53q4 49 29 71q4 -2 9 -4t7 -6q4 -27 4 -28q6 -16 23 -19 q4 -31 20 -61q10 25 37 65q12 -12 13 -16l12 10q16 -16 14 -16q4 16 17 53q12 -12 16 -12q14 0 12 6q4 25 11 31q18 12 43 34q4 31 8 60q4 37 18 51q-6 0 -18.5 3t-22.5 3t-2 12q-18 -8 -55 -28q-2 2 -3 6t-9 4q-20 0 -41 -10l-11 10q-10 -4 -36 -4q-14 0 -64 6 q-12 8 -12 22q-51 -51 -51 -94zM342 1145q16 -25 45 -64q6 16 23 43q16 -23 41 -65q16 4 30 -6l19 10q20 10 55 8q0 6 9 15.5t9 15.5v45q-37 0 -46 6t-11 6q-6 0 -16.5 -6t-18.5 -6q-43 0 -125 12zM602 846q0 -8 8 -25.5t8 -25.5q0 -41 5 -103q2 -14 32 -53q10 -23 45 -61 q23 29 41.5 71.5t36.5 65.5q20 -8 29 -35l12 10q6 -6 41 -69q13 6 33 6v45q0 8 -11.5 18t-11.5 17q2 25 2 65q0 6 -8 19q10 18 2 40q-20 18 -47 19l-16 -6l-15 12q-4 -6 -14 -6q-6 0 -26.5 9t-28.5 9q-12 0 -31 -18l-12 12q-10 -23 -27 -22q-18 16 -18 28q-29 -14 -29 -22z " />
<glyph unicode="," horiz-adv-x="423" d="M-16 -225q76 86 86 98q47 66 45 119q-10 6 -74 16q-39 6 -39 43v250q16 8 66 41q16 12 47 12q23 0 32 -5t13 -27q31 -18 45 -19q10 0 17 6t9 6q18 -18 19 -32q8 -160 8 -207q0 -84 -55 -166q-63 -92 -178 -146zM16 242q6 0 13.5 -6.5t9.5 -6.5q0 14 10 25l23 -23 q-18 -35 -19 -32q4 -8 13 -54q4 -27 28 -34q0 33 -10 63q16 16 20 16l27 -24l25 24q12 -25 24 -24q6 0 18.5 21.5t18.5 27.5q10 -10 16 -10q1 -17 13 -27v68q0 27 -15 26q-14 10 -45 17q-37 6 -49 10q-2 8 -6 20q-12 8 -33 9q-12 0 -42.5 -16.5t-37.5 -24.5q-8 -14 -2 -45z " />
<glyph unicode="-" horiz-adv-x="884" d="M143 578v114q0 6 4 68q2 70 5 96q14 23 45 23q8 0 32.5 -3.5t30.5 -3.5t15.5 6.5t17.5 6.5t36.5 -16.5t41.5 -16.5q115 -6 262 -6q8 0 35 28q6 6 20 5q18 -2 25 0h-29q-12 -10 -27 -29q-6 -10 -24 -10q-74 0 -62 2q35 -129 86 -129q8 0 7.5 3t5.5 3q8 0 17 -11.5 t16.5 -13.5t27 -8t27.5 -6t17 6t11 6q4 -2 10.5 -11t8.5 -13q43 12 51 57l4 84q0 29 6 47q-18 6 -135 25q12 -8 59.5 -7.5t65.5 -5.5q35 -6 35 -24v-266h-748zM150 598h67q2 4 27 86q14 51 55 72q6 -6 6 -13q-6 25 10.5 55.5t32.5 57.5q-33 23 -55 23q-8 0 -20.5 -3.5 t-18.5 -3.5q-59 0 -98 -14q0 -14 -3 -40.5t-3 -33.5v-186z" />
<glyph unicode="." horiz-adv-x="399" d="M0 -2v303q29 16 41 16q8 0 46 -7t46 -7q63 0 98 25q4 2 23 2q8 0 25.5 -7.5t27.5 -7.5q-2 -47 2 -127q2 -2 7.5 -5t5.5 -13q0 -8 -7.5 -24.5t-7.5 -26.5h-26q27 23 26 45q0 10 -6 15t-6 7q2 35 -2 113q-20 18 -39 18q4 0 -57 -24q-4 -2 -64 -2q-61 0 -72 12h-43 q-2 -2 -4 -2v-2v-8q0 -8 10.5 -22.5t12.5 -22.5q20 -90 88 -144h18q14 27 45 107q29 0 78 14q0 -8 7.5 -25.5t7.5 -27.5t-13 -33q-8 -14 -6 -65q4 -55 19 -74h-281z" />
<glyph unicode="/" horiz-adv-x="931" d="M2 -408q66 258 129 449q72 211 129 405q121 379 348 1143q55 49 172 49q270 1 256 -112l-608 -1934h-426zM616 1550q55 -90 168 -260q6 6 18.5 23.5t18.5 21.5q20 -18 42 -51t28 -41q18 47 80 162q53 99 53 111q0 74 -84 96q-49 14 -160 14q-76 0 -92 -4t-72 -33v-39z " />
<glyph unicode="0" horiz-adv-x="1374" d="M184 778q0 416 154 637q0 33 22 86q35 35 90.5 61.5t84.5 26.5q14 0 29.5 -14t33.5 -14q14 0 48 28.5t52 28.5q31 0 66 -25q12 2 27 2q55 0 131.5 -33.5t115.5 -74.5q8 -8 6 -29q-4 -25 -2 -28q92 -74 144 -302q39 -176 39 -350q0 -322 -101 -524q-135 -274 -434 -274 q-506 0 -506 798zM358 1434q94 23 246 69q84 -90 84 -211q0 -49 -24 -170h28q31 39 33 119q0 113 4 129t67.5 60.5t100.5 44.5q18 0 59 -15q49 -16 66 -20l18 20q-37 49 -115.5 86t-133.5 37q-16 0 -27 -4q-35 25 -66 25q-18 0 -52 -29t-48 -29q-18 0 -33.5 14.5t-29.5 14.5 q-57 0 -134 -49q-47 -31 -43 -92zM526 784q0 -221 4.5 -243.5t28.5 -110.5q16 -66 14 -94l74 57q43 -43 72 -43q18 0 22 14.5t21 14.5q23 0 30 -11.5t13 -25.5q63 82 63 442q0 201 -10 260q-23 143 -115 216q6 -14 7 -31q0 -41 -33 -88q-29 -39 -53 -49q-23 18 -23 49 q0 12 6 39.5t6 38.5q0 10 -4 14q-123 -43 -123 -449zM584 311q49 -37 166 -75q2 4 28 40q19 26 19 46t-11.5 28t-23.5 15q-6 -10 -13.5 -19.5t-29.5 -9.5q-27 0 -70 43q-23 -8 -44 -31.5t-21 -36.5z" />
<glyph unicode="1" horiz-adv-x="1132" d="M358 1153q0 88 23 162q33 100 100 100q18 0 21.5 -14.5t21.5 -14.5q14 0 47 25q41 29 54 35q18 61 57 98q76 74 139 74q18 0 44 -14.5t44 -14.5q35 0 64 29q80 -39 80 -92v-1544h-357v1040h-321q-16 43 -17 131zM387 1278q0 -31 22.5 -49.5t45.5 -16.5l84 86 q39 -43 88 -43t116 88q37 55 74 111q74 2 172 68q6 16 35 45q-6 8 -23.5 19t-25.5 18q-33 -29 -66 -29q-18 0 -43.5 14.5t-44.5 14.5q-33 0 -123 -66q-27 -18 -61 -125q-4 0 -5 8.5t-20 8.5q-18 0 -41.5 -29t-38.5 -29q-18 0 -25 14.5t-26 14.5q-45 0 -71 -49 q-23 -39 -23 -74z" />
<glyph unicode="2" horiz-adv-x="1390" d="M172 37q0 12 24.5 107.5t28.5 144.5q12 131 86 254q86 141 193 141q18 0 25.5 -7t23.5 -7q43 0 170 123q115 113 121 129q18 123 18 120q0 78 -40 132.5t-109 54.5q-96 0 -148.5 -82t-48.5 -203h-309q-20 18 -21 64q0 12 31 125q33 127 45 206q20 137 119 213 q84 66 186 66q18 0 51 -14.5t52 -14.5q14 0 28.5 7.5t34.5 7.5q41 0 183.5 -59.5t154.5 -80.5q35 -49 103 -168q20 -47 20 -239q0 -215 -115 -359q-102 -129 -461 -395q14 -8 80 -8q61 0 156.5 65.5t136.5 65.5q37 0 76 -31q53 -39 59 -43l33 29q27 -23 52.5 -47.5 t25.5 -59.5q0 -18 -18.5 -39.5t-22.5 -33.5q-10 -33 -8 -97q4 -143 4 -116h-999q-20 8 -21 49zM246 326h53q29 41 152 178q96 111 96 129q0 35 -19 35h-47q-43 -14 -102 -50q-35 -41 -84 -124.5t-49 -106.5v-61zM274 1358q18 -14 35 -15q20 0 53 36t57.5 36t65.5 6 q43 18 111 97q29 -33 94 -41q45 -2 90 -7q14 -18 43 -59t43 -61q70 -4 92 -31q39 -96 41 -100q37 -68 88 -74q31 39 66 63q12 10 12 43q0 20 -26 56q-35 47 -43 63q-12 37 -49 96q-82 66 -123 76q-37 -2 -95 6q-76 41 -96 41t-34.5 -7t-28.5 -7q-18 0 -51 14.5t-52 14.5 q-33 0 -90 -17q-68 -20 -100 -49q-53 -45 -103 -180zM791 301q55 -8 186 -51q123 -41 137 -41q56 0 107 33v63l-62 62l-39 -29q-20 20 -39 41q-33 33 -90 33q-25 0 -91 -39t-109 -72z" />
<glyph unicode="3" horiz-adv-x="1368" d="M190 514q35 20 62 63.5t57 65.5q29 -43 70 -43q16 0 16 4q-2 2 -2 6q2 4 15 4q16 0 61 -30q59 -43 66 -47q14 -41 26 -82q25 -70 72 -109q25 29 63 29q23 0 66 -43q41 35 121 94q14 135 -99 195q-84 43 -211 38q-18 39 -18 134q0 74 25 129q37 88 125 88q16 0 20 -13.5 t23 -13.5q25 0 92 64q2 98 -21 145q-31 59 -114 59q-84 0 -133.5 -59t-45.5 -166h-290q-18 16 -19 41q0 66 51 221q43 133 80 213q12 25 72 60q51 29 65 28q18 0 25.5 -14t24.5 -14q16 0 55 28.5t57 28.5t43 -14.5t43 -14.5t25.5 14.5t23.5 14.5t38 -13.5t42 -25.5 q39 -4 115 -25q49 -27 137 -94q16 -18 2 -117q61 -135 62 -227q0 -94 -39 -168q-16 -35 -88 -127q170 -139 170 -340q0 -231 -150 -370q-141 -131 -360 -131q-238 0 -371 131q-141 137 -150 403zM246 559q0 -53 63 -86q31 12 72 43q20 -23 61 -36t54.5 -32.5t32 -80 t32.5 -74.5q43 -45 172 -45q92 0 115 141q-49 -53 -100 -72q-8 14 -18.5 28.5t-33.5 14.5q-8 0 -75 -28q-68 94 -86 182q-4 2 -66 53q-41 33 -61 33q-14 0 -15 -4q0 -2 2 -4q-2 -4 -16 -4q-29 0 -70 41q-63 -35 -63 -70zM315 1364q0 -20 8.5 -35.5t8.5 -19.5q59 10 96 77 q47 88 66 105q51 -29 90 -29q25 0 42 18.5t33 39.5q2 -41 113 -70q98 -25 199 -49q10 -4 47 -29q31 -23 47 -22q55 0 55 63q0 20 -7 28.5t-13 14.5q-43 31 -123 84q-18 10 -61.5 14.5t-53.5 10.5q-20 12 -41.5 25.5t-38.5 13.5q-16 0 -23 -14.5t-26 -14.5q-18 0 -42.5 14.5 t-43.5 14.5q-18 0 -57 -29t-55 -29t-23.5 14.5t-26.5 14.5q-66 0 -118 -70.5t-52 -140.5zM598 918l33 -33h76q31 27 62.5 54t39.5 54q-4 0 -22.5 -12t-38.5 -12q-18 0 -22.5 14t-20.5 14q-23 0 -61 -29.5t-46 -49.5z" />
<glyph unicode="4" horiz-adv-x="1390" d="M152 430q0 150 55 266q23 49 123 191q86 123 125 233q6 14 2 41q-4 39 -4 43q0 -18 16 -37q20 8 100 88q35 -61 35 -180q0 -51 -10 -172q2 -12 33 -39l12 13q14 63 6 200q-8 147 0 207q14 106 84 160q29 -29 57 -29q29 0 101 72q23 -14 48.5 -28.5t47.5 -14.5q20 0 35 14 l33 -31h36q0 4 5.5 26t5.5 42q0 53 -84 84q-63 25 -133 25q-16 0 -40 -14.5t-40 -14.5q-20 0 -36.5 17.5t-21.5 17.5q4 0 20.5 -10.5t37.5 -10.5q18 0 40.5 14.5t39.5 14.5q78 0 149 -37q82 -45 82 -108q0 -45 -43 -97l10 -774q35 25 54 74q124 -84 124 -117q0 -14 -14 -101 t-14 -128q-59 -23 -148 -15q-10 -76 -10 -161q0 -84 10 -172h-354v329h-553l-18 21q-4 51 -4 98zM451 1235q26 119 229 342q-154 -147 -229 -342zM461 592q37 74 63 84q57 -57 88 -58q18 0 18.5 7.5t18.5 7.5q25 0 37 -10q17 -17 31 -33v506q-2 -4 -35 -146 q-23 -100 -55 -100q-14 0 -15 4q0 2 2 6q-2 4 -16 4q-23 0 -66 -102q-37 -86 -71 -170zM475 582q0 -47 51 -95q23 29 73.5 66.5t64.5 60.5q-4 0 -17.5 -6t-34.5 -6q-27 0 -86 60q-51 -51 -51 -80zM694 1583v25h39v-25h-39zM1085 580l76 -76h66q0 8 8 33.5t8 31.5 q-39 39 -53 52q-37 33 -57 38q-6 -10 -29 -45q-18 -27 -19 -34z" />
<glyph unicode="5" horiz-adv-x="1368" d="M190 391v43q16 16 72 17q0 20 -16 34l76 78q98 -70 133 -69q18 0 21 13t20 13q23 0 49 -20q4 -6 45 -121q29 -80 65 -80q45 0 103 61q33 39 65 78l27 -28q20 35 20 90q0 229 -165 229q-57 0 -125 -48t-125 -48q-10 0 -89 7t-116 7q-18 18 -19 47q0 14 11.5 69.5 t13.5 84.5q16 145 33 291q20 195 16 319q0 20 27.5 58t56.5 55q80 47 141 47q18 0 108.5 -48t106.5 -48t67.5 20.5t72.5 20.5q18 0 45.5 -20.5t44.5 -20.5q14 0 29.5 13t33.5 13t61.5 -32.5t61.5 -38.5v-271h-557q-53 -111 -53 -176v-55h16q14 4 70 69q51 59 96 60 q18 0 81 -35t79 -35q20 0 31.5 14.5t21.5 28.5q117 -51 168 -129q31 -47 2 -117q2 -16 23 -43q27 -37 32 -49q48 -94 48 -196q0 -100 -64 -267q-72 -190 -149 -223q-57 -25 -170 -51q-100 -23 -131 -22q-72 0 -162 14q-113 18 -154 45q-63 41 -131 159.5t-68 192.5zM260 485 q14 -12 16 -32q109 -33 170 -25q55 -41 127 -139q43 -59 111 -60q45 0 115 27q86 35 86 78q0 57 -80 76q-49 -125 -156 -125q-31 0 -67 82q-33 72 -35 108q-12 10 -41 31q-4 0 -17.5 -13.5t-33.5 -13.5q-29 0 -133 70zM315 1452q0 -20 11.5 -28.5t21.5 -14.5q12 4 74 33 q47 23 67 22q14 0 33 -13t37 -13q41 0 68 26q16 -45 24 -63q14 -33 31 -47q74 33 147 65q84 35 146 41q51 -2 131 8q0 8 -7 25.5t-7 24.5q-20 16 -54 16q-18 0 -33.5 -13.5t-29.5 -13.5q-16 0 -44 20.5t-46 20.5q-20 0 -71.5 -20.5t-68.5 -20.5q-20 0 -48.5 28t-41.5 28 q-14 0 -14 -4q0 -2 2 -7q-2 -4 -14 -4q-14 0 -48 28t-51 28q-51 0 -129 -48q-86 -51 -86 -104zM623 997q51 -27 104 -53q68 -35 88 -35q16 0 43 14.5t41 14.5q16 0 79.5 -48t82.5 -48h45q0 14 14 30q8 96 -174 191q-10 -14 -21.5 -28.5t-31.5 -14.5q-16 0 -47 7t-49.5 7 t-31.5 28t-32 28q-23 0 -62.5 -33t-47.5 -60z" />
<glyph unicode="6" horiz-adv-x="1382" d="M178 750q0 143 37 307q43 182 115 315q6 37 22 98q12 35 71.5 77t88.5 42q18 0 25.5 -7t25.5 -7q16 0 35.5 21.5t34.5 21.5q18 0 39.5 -14.5t40.5 -14.5q16 0 52 7.5t54 7.5q113 0 187 -43q88 -51 92 -148q23 -29 53 -94q37 -80 37 -119v-63q-45 -16 -162 -17 q-104 0 -147 4q-14 37 -50 99q-39 53 -102 53q-86 0 -141 -96q-49 -82 -49 -172q0 -27 6 -45q6 6 71 94q47 63 70 63q12 0 140 -41t192 -47q10 -31 6 -88q33 -20 66.5 -45t52.5 -53q39 -61 67 -174q23 -90 23 -129q0 -84 -57 -224q-45 -96 -91 -192q-33 -68 -165 -113 q-111 -35 -205 -34q-129 0 -318 90q-90 43 -157 290q-59 215 -60 390zM348 1397q0 -20 9.5 -32.5t9.5 -16.5q43 14 137 104q82 80 143 80q18 0 72.5 -2t77.5 -2q16 0 41 -21q12 -14 26 -26q37 -16 76 -31q45 -20 82 -59h51q0 8 8.5 26.5t8.5 24.5q-25 35 -51.5 71.5 t-53.5 55.5q-190 20 -166 20q-18 0 -54 -7t-52 -7t-40 14.5t-40 14.5q-14 0 -33.5 -21.5t-36.5 -21.5q-18 0 -25.5 7t-25.5 7q-51 0 -107.5 -64.5t-56.5 -113.5zM520 291q20 8 37 8q61 0 61 -92q0 -31 -6 -43q0 43 17 57q27 -2 53 -2q195 0 195 131q0 20 -10.5 28.5 t-10.5 12.5q-8 -8 -68 -49q-45 -31 -61 -63q-12 29 -45 61q-31 27 -64 55q94 -47 107 -73l61 57q20 0 44 9t30 9t10 -4q2 25 11.5 65t9.5 56q0 98 -23 131q-31 45 -77 75t-72 30q-8 0 -93 -52.5t-89 -68.5q-16 -76 -17 -115q0 -49 33 -135q27 27 41 27q6 0 10 -5 q-14 -8 -23.5 -34.5t-13.5 -32.5q31 2 31 -10q0 -23 -29 -33h-49zM592 967q0 -10 4 -19q8 4 14 4q8 0 25.5 -9t34.5 -9q16 0 52 26.5t46 30.5q10 -14 22.5 -28.5t34.5 -14.5q18 0 29.5 14.5t28.5 14.5q18 0 39.5 -21.5t38.5 -21.5q25 0 42 19.5t15 33.5q-12 14 -17 31 q-45 8 -145 43q-92 31 -108 31q-20 0 -25 -9l-10 -20q-6 8 -13.5 22.5t-15.5 20.5q-41 -20 -66.5 -62.5t-25.5 -76.5z" />
<glyph unicode="7" horiz-adv-x="1402" d="M139 1481q0 18 63.5 77.5t102.5 59.5q57 0 135 -55q10 -8 47 -7q70 4 58 5q16 0 39.5 21.5t40.5 21.5q12 0 129 -21q129 -23 317 -22q6 0 23.5 -14.5t38.5 -14.5q16 0 31.5 14.5t33.5 14.5q20 0 31.5 -8.5t23.5 -8.5q0 -6 8.5 -17.5t8.5 -31.5q0 10 4 -61q2 -55 -2 -97 q-4 -57 -21.5 -90t-177.5 -258q-147 -209 -190 -309q-92 -215 -166 -698h-311q-20 14 -21 69q0 209 167 612.5t298 526.5q-6 6 -39 8t-174 2q-266 -2 -436 -2q-8 23 -10.5 97.5t-12.5 109.5q-2 6 -20.5 28.5t-18.5 47.5zM154 1481q0 -33 32 -66q25 0 49.5 14.5t40.5 14.5 q18 0 35 -14.5t39 -14.5q18 0 59.5 36t55.5 36q18 0 62 -21.5t61 -21.5q16 0 43.5 14.5t44.5 14.5q18 0 76.5 -43.5t74.5 -43.5q31 0 117 101q29 -31 59.5 -61.5t57.5 -39.5q2 2 37 48q20 25 41 24q18 0 26.5 -7t24.5 -7q57 -1 65 67q-6 8 -23.5 17.5t-25.5 15.5 q-14 -4 -34.5 -16t-38.5 -12q-20 0 -38 15t-24 15q-188 0 -317 23q-117 20 -129 20q-16 0 -40 -21.5t-40 -21.5q12 0 -58 -4q-37 -2 -47 6q-78 55 -135 56q-29 0 -90 -47.5t-61 -75.5z" />
<glyph unicode="8" horiz-adv-x="1378" d="M178 465q0 84 41 180q53 121 143 168q-37 33 -77 135q-49 115 -49 199q0 78 51 170q66 121 65 121q-31 45 2 88q39 35 102.5 63.5t92.5 28.5q18 0 50 -21.5t48 -21.5t37 14.5t35 14.5q27 0 138.5 -29t156.5 -49q27 -20 90 -72q-10 -6 -19.5 -13t-9.5 -30q0 -18 27 -49 q35 -41 39 -47q49 -84 49 -160q0 -66 -64 -188q-53 -102 -79 -125q184 -172 184 -371q0 -100 -66 -223q-8 -12 -96 -148q-35 -51 -174 -90q-115 -31 -197 -30q-231 0 -375.5 133t-144.5 352zM348 1483q0 -23 11.5 -32t21.5 -17h72q27 0 64.5 23.5t51.5 45.5q6 -6 3 -17 t18 -11q16 0 51 14t49 14q18 0 172 -42t170 -42q23 0 58 35q-55 37 -193.5 86t-177.5 49q-14 0 -34.5 -14t-37.5 -14q-16 0 -48 21.5t-50 21.5q-31 0 -111 -41q-90 -45 -90 -80zM520 403q20 -43 64 -104q25 -23 86 -50.5t84 -27.5q55 0 100 78q37 68 37 115q0 29 -23 51 q-25 -29 -61 -84q-49 -20 -59 -27q-29 -14 -37 -32q-39 72 -39 69l-31 -26q-29 57 -66 57q-20 0 -35.5 -9.5t-19.5 -9.5zM535 436q53 -14 105 -30.5t69 -55.5q182 92 182 119v61q0 55 -57.5 101.5t-120.5 46.5q-90 0 -136.5 -66.5t-41.5 -175.5zM549 1112q0 -37 61 -135 q4 4 41 45q20 27 39 27q18 0 40 -14.5t38 -14.5q23 0 30 9t13 20l33 -29q0 14 9 45t9 47q0 20 -10 53q-12 43 -12 45q-92 51 -127 52q-70 0 -117 -45.5t-47 -104.5zM618 956q0 -43 66 -108q76 59 164 151l-37 35q-6 -10 -13 -19t-30 -9q-16 0 -37.5 14t-40.5 14 q-25 0 -48.5 -27.5t-23.5 -50.5z" />
<glyph unicode="9" horiz-adv-x="1384" d="M172 985q0 113 31 211q27 82 102 229q0 6 -8 29t-8 31q76 45 149 119q25 -29 72 -29q18 0 51 21.5t49 21.5q18 0 44 -14.5t44 -14.5q14 0 29.5 14.5t34.5 14.5q16 0 35.5 -21.5t36.5 -21.5q16 0 16 4q-2 2 -2 6q2 4 14 4q25 0 102.5 -47t116.5 -86q4 -31 39 -110 q45 -98 54 -121q27 -80 47 -244q16 -127 16 -176q0 -324 -119 -549q-145 -276 -420 -276q-197 0 -342 116q-156 125 -153 312q23 16 119 20q14 12 29.5 41t29.5 43q6 -2 55 -41q39 -31 60 -31q16 0 16 4q-2 2 -2 7q2 4 14 4q18 0 45 -80t72 -80q29 0 72 43q23 -14 57 -57 l66 114q35 68 34 127q0 25 -4 47q-143 -57 -219 -57q-217 0 -352 147q-123 135 -123 326zM303 1450q47 -47 66 -47l98 100q29 -29 57 -28q27 0 103 71q72 -72 100 -71q47 0 72 43q158 -158 178 -158q45 0 70 35q1 2 30 59q-59 39 -121 76q-72 45 -94 45q-16 0 -17 -7t-18 -7 q-18 0 -34.5 21.5t-30.5 21.5q-18 0 -33.5 -14.5t-30.5 -14.5q-18 0 -43.5 14.5t-44.5 14.5q-16 0 -49 -21.5t-51 -21.5q-47 0 -72 28l-84 -73q-43 -39 -51 -66zM362 369q4 0 22.5 14t39.5 14q20 0 68 -43q59 -57 73 -67q23 -14 72 -27q66 -18 76 -22q8 8 18.5 26.5 t16.5 24.5l-35 35q-43 -43 -72 -43q-45 0 -72 59q-20 49 -43 100q-4 -6 -6 -10t-24 -4q-20 0 -62 29q-51 39 -55 41q-35 -94 -17 -127zM518 1051q0 -18 8.5 -66.5t8.5 -69.5q4 0 15 6.5t32 6.5q18 0 51 -36t51 -36q16 0 36.5 14.5t41.5 14.5q39 0 33 -41q23 12 53 100 q29 80 29 107q0 74 -41 143q-49 80 -123 80q-66 0 -176 -90q-2 -18 -11 -72q-8 -45 -8 -61zM547 856q0 -66 63 -158q131 98 166 168q-14 0 -44 -12t-48 -12q-29 0 -100 65q-37 -10 -37 -51z" />
<glyph unicode=":" horiz-adv-x="589" d="M14 -4v442q47 20 56 21q12 0 68.5 -9.5t68.5 -9.5q59 0 72 2q31 6 67 33q16 4 35 4q12 0 36.5 -10t39.5 -10q-2 -43 4 -187q0 -2 8 -7t8 -19q0 -12 -10 -37t-10 -39h-37q39 39 39 66q0 14 -10.5 22t-10.5 12q4 68 -2 162q-29 27 -55 27q-12 0 -41 -15q-39 -18 -43 -20 q-10 -4 -90 -4q-90 0 -105 20h-63q-8 -8 -8 -20q0 -10 17.5 -30.5t19.5 -35.5q25 -123 125 -204h26q10 16 68 153q47 0 112 21q0 -12 10.5 -38t10.5 -40q0 -12 -19 -45q-10 -18 -10 -78q0 -96 27 -127h-404zM14 801v442q37 20 56 21q12 0 68.5 -9.5t68.5 -9.5q59 0 72 2 q31 6 67 33q8 4 35 4q12 0 36.5 -10t39.5 -10q-2 -43 4 -187q0 -2 8 -7t8 -19q0 -12 -10 -37t-10 -39h-37q39 39 39 67q0 12 -10.5 20.5t-10.5 12.5q4 68 -2 164q-29 25 -55 25q-12 0 -41 -15q-39 -18 -44 -20t-89 -2q-90 0 -105 18h-63q-8 -8 -8 -18q0 -29 80 -189l84 -84 h24q2 4 68 154q41 0 112 20q0 -12 10.5 -37.5t10.5 -39.5q0 -12 -19 -45q-10 -18 -10 -78q0 -96 27 -127h-404z" />
<glyph unicode=";" horiz-adv-x="602" d="M-16 -369q123 139 131 152q76 100 69 182q-10 6 -110 23q-59 10 -60 65v381q25 12 99 62q27 18 71 18q35 0 45 -4q23 -14 23 -47q55 -25 72 -25q12 0 23 9.5t15 9.5q27 -35 29 -54q12 -184 12 -313q0 -127 -84 -252q-96 -141 -272 -221zM4 793v434q47 20 57 20t65.5 -9 t68.5 -9q59 0 69 2q31 4 68 31q8 4 35 4q10 0 34.5 -10.5t38.5 -10.5q-2 -39 4 -182q2 -2 9.5 -7.5t7.5 -17.5t-10.5 -35.5t-10.5 -37.5h-37q39 35 39 63q0 14 -10 22.5t-10 10.5q4 66 -2 160q-31 27 -53 26q-12 0 -41 -14q-39 -18 -43 -21q-10 -4 -88 -4q-84 0 -103 21h-63 q-6 -6 -6 -21q0 -8 16 -28.5t18 -34.5q25 -121 125 -203h25q16 27 65 152q41 0 111 18q0 -12 10 -35.5t10 -38.5q0 -6 -16 -45q-12 -23 -10 -96q4 -78 24 -104h-397zM33 344q12 0 22.5 -10t14.5 -10q0 25 14 36q4 -8 35 -32q-2 -6 -19 -29q-10 -14 -8 -20q4 -10 17 -80 q8 -43 45 -56q0 59 -17 99q25 25 31 24l41 -39l37 39q6 -12 12 -25.5t27 -13.5q10 0 26 29q18 37 31 47q20 -16 25 -16q0 -27 16 -39v100q0 41 -21 41q-23 16 -67 25q-57 10 -74 16q-2 2 -12 31q-20 14 -49 14q-43 0 -115 -57q-12 -10 -12 -74z" />
<glyph unicode="=" horiz-adv-x="747" d="M-8 463v88q0 6 6 129q12 16 35 16q6 0 25.5 -3t25.5 -3q4 0 11 5t14 5q6 0 28.5 -12t30.5 -12q88 -4 205 -4q8 0 28 20q10 0 33 4h-20q-12 -8 -19.5 -19t-21.5 -11q-61 0 -47 2q27 -102 67 -103q6 0 4 3t6 3q4 0 12.5 -8t12.5 -10q49 -12 41 -12q6 0 14.5 5t10.5 5 q2 -2 6 -9t8 -12q37 12 41 64q4 41 6 84q-8 2 -104 18q10 -6 42.5 -3t56 -4t23.5 -21v-205h-581zM-4 477h53q2 4 21 68q12 39 43 55q6 -4 6 -8q-4 16 33 86q-29 18 -43 18q-6 0 -15.5 -3t-15.5 -3q-51 0 -76 -10q0 -12 -3 -32.5t-3 -24.5v-146zM-4 786v213q29 -2 82 2 q16 20 37 33q0 -2 4 -8q18 2 125 -25q25 -6 129 -6q8 0 28 23q10 0 33 2h-20q-12 -8 -18.5 -19.5t-22.5 -11.5q-61 0 -47 2q25 -100 67 -100q6 0 4 2t6 2q4 0 11.5 -9t13.5 -10.5t20.5 -6.5t20.5 -5t14.5 5t10.5 5q4 -6 14 -18q37 10 41 62q4 43 6 83q-25 6 -104 21 q10 -8 45.5 -6t50.5 -2q27 -8 26 -21v-207h-577zM80 975q0 -16 33 -60q16 10 16 11q18 0 18 -31q6 10 29 27.5t33 17.5q0 27 2 37q13 12 25 20q-8 4 -58.5 15.5t-68.5 11.5q-10 0 -19.5 -19.5t-9.5 -29.5z" />
<glyph unicode="?" horiz-adv-x="1052" d="M0 928v499q0 41 70 72q53 20 75 21q16 0 35 -19q76 84 99.5 100.5t70.5 16.5q12 0 52 -14.5t51 -14.5q10 0 58 9.5t60 9.5q31 0 59.5 -39t51.5 -39q20 0 56 44t46 44q16 0 50 -20.5t49.5 -41t32 -78t32.5 -77.5q39 -25 84 -78q-2 -25 4 -70q47 -147 47 -221 q0 -184 -114 -278q-104 -61 -211 -125q-115 -80 -115 -226q0 -37 68 -75v-344h-396q4 145 2 237q0 63 -3 98l-3 35q0 12 13.5 26.5t13.5 22.5q-4 156 65 265q70 78 138 155q74 90 73 205q0 170 -77 170q-23 0 -41 -35q2 0 -60 -6q-25 -53 -28 -229h-408zM29 993q0 -14 5 -23 t5 -14q18 -6 49 0q37 8 43 9q16 0 28.5 -9.5t14.5 -9.5q6 12 35 23q35 90 35 112q0 12 -7.5 26.5t-7.5 18.5q0 -6 -12 -9t-16 -7q-4 115 65 168l6 -47q4 -8 19.5 -22.5t15.5 -20.5q16 51 41 137h27q35 -18 65 -76q27 -47 47 -43q-8 27 17 86q27 72 76 72q14 0 71 -43 q72 -53 88 -64q4 68 56 68q39 0 51 -27q51 -106 51 -124q0 -6 -12.5 -92.5t-12.5 -127.5q41 76 99 131q24 25 24 103q0 92 -32 121q-57 51 -103 170q2 -6 2 47q0 39 -28 53q-31 -10 -78 -35q-14 -10 -21 -39q-4 -14 -47 -14q-41 0 -72 27q-2 16 -14 41q-27 0 -83 -4.5 t-66 -4.5h-45q-47 47 -58 47q-66 0 -90 -32q-14 -29 -28.5 -60.5t-55.5 -31.5q-16 0 -25.5 9t-19.5 9q-39 0 -70.5 -40t-31.5 -81q0 -43 18 -84q23 -53 62 -65q-8 -43 -29 -142q-51 -80 -51 -86zM342 365q14 -49 64 -99q-12 -84 -13 -73q0 -29 21 -48q10 10 43 11q2 31 4 63 q8 41 51 64q14 -14 61 -47q4 -49 17 -72q74 104 74 133q-35 102 -70 102q-12 0 -44 -10t-42 -10q-12 0 -44 10t-44 10q-68 0 -78 -34z" />
<glyph unicode="A" horiz-adv-x="1456" d="M0 10l319 932q-10 10 -43 10v90q0 25 55.5 186t106.5 283q12 29 56.5 53.5t70.5 24.5q18 0 18.5 -7t18.5 -7q14 0 48 21.5t52 21.5q20 0 101 -16q104 -23 137 -29q0 -10 7 -44t5 -50q-12 -41 -30 -123l18 -10l408 -1364h-344q-41 98 -60 202q-10 63 -32.5 74.5 t-149.5 11.5q-88 0 -119 -6q-76 -14 -86 -67q-2 73 -76 73h-2q-45 0 -45 -24q-14 -43 -44 -132t-46 -132h-326q-18 20 -18 28zM291 967h67l80 86q-6 -113 -26 -305q23 76 37 231q10 98 18 197q8 61 61 108q43 -43 64 -43q47 92 110 131q88 -47 105 -135q8 -63 14 -127 q-4 29 -4 55q0 86 62.5 166t62.5 164q0 20 -8 38.5t-8 22.5q-14 2 -125 29q-76 18 -99 19q-18 0 -52 -21.5t-48 -21.5q-18 0 -18 7t-19 7q-29 0 -66.5 -20.5t-45.5 -43.5q-162 -432 -162 -469v-75zM508 494q0 -188 57 -269q16 33 21.5 103.5t17.5 99.5q23 51 84 74 q41 -20 45 -76v-70q33 90 78 244q-68 29 -125 90q0 -29 -33 -28q-18 0 -18 7t-19 7q-20 0 -54 -21.5t-50 -42.5q4 -16 4 -36q0 -13 -2 -29zM553 664q63 41 143 41q18 0 52 -29q43 -41 47 -43q-45 137 -121 391q-39 -127 -121 -360z" />
<glyph unicode="B" horiz-adv-x="1388" d="M2 1458v66q31 65 236 65h6q18 0 110 -15t111 -15q16 0 58 29.5t61 29.5q18 0 69.5 -22.5t69.5 -22.5q14 0 47 8t57 8q172 0 318 -172q51 -61 51 -241q0 -88 -33 -195q-35 -117 -86 -170q6 -16 37 -41q43 -33 55 -47q70 -237 70 -264q0 -180 -133 -328.5t-303 -148.5h-754 v1464q-16 12 -47 12zM16 1473q45 0 117 -41q-29 -70 -29 -158q0 -115 43 -187q18 37 34 130.5t36 134.5q35 66 113 90l32 -31q6 10 13.5 20.5t30.5 10.5t30 -41q10 -61 13 -64q8 4 43 35q29 25 49 25h39q27 -53 47 -74q53 35 90 74q31 -23 71 -60l60 60q31 -27 39 -27 q-1 -12 -1 -23q0 -45 12 -95q15 -62 42 -91q6 27 54 84.5t89 77.5q58 -45 95 -147v98q0 90 -117 194.5t-234 104.5q-25 0 -57.5 -7t-46.5 -7q-18 0 -70.5 22.5t-68.5 22.5q-18 0 -59.5 -30t-59.5 -30t-44 12.5t-30 12.5q-57 6 -119 6q-112 0 -241 -19q0 -4 -7.5 -30.5 t-7.5 -52.5zM369 328q45 -86 88 -201q39 45 77.5 89t63.5 44q18 0 38.5 -7t35.5 -7h3q94 0 152 65l-34 37q-14 0 -44 -7t-49 -7q-18 0 -110 29.5t-111 29.5q-25 0 -62.5 -24.5t-47.5 -40.5zM385 823q35 0 64 -32q47 25 92 73q57 -33 63 -112q6 -70 58 -78q18 74 34 145 q33 84 115 156l-37 37q-43 -43 -74 -43q-35 0 -28 14l-37 -29q-94 74 -125 74q-27 0 -64.5 -29.5t-60.5 -64.5v-111zM387 379q61 29 92 29q18 0 110.5 -30t110.5 -30t39 7t35 7q20 0 40 -13t24 -13q47 121 47 131q0 47 -49 100q-55 61 -121 62h-328v-250zM387 954 q63 88 123 88q18 0 62 -36.5t63 -36.5q18 0 18 14t19 14q14 0 16 -4q-2 -2 -4 -6q2 -4 16 -4q45 0 76 45l62 -59q0 25 9 82t9 77q-119 76 -172 76h-297v-250zM958 725q0 -27 24 -57.5t44 -38.5q63 39 70 43q37 24 55 53q-76 82 -102 82q-20 0 -44 -9.5t-26 -11.5 t-11.5 -21.5t-9.5 -39.5z" />
<glyph unicode="C" horiz-adv-x="1363" d="M0 750q0 125 45 438q23 150 156 254q43 33 127 55q100 25 129 39q20 10 53 53q20 29 84 29q16 0 53 -21.5t51 -21.5q18 0 18.5 7t18.5 7q14 0 48 -21.5t51 -21.5q16 0 20 7.5t23 7.5q16 0 59 -39q31 -29 63 -58q2 -2 72 -43q55 -31 79 -64.5t80 -153.5t56 -130 q0 -106 -168 -106h-37q-20 2 -22 2q-111 0 -152 4q-14 45 -49 125q-33 49 -108 82q-59 28 -104 28h-3q-303 0 -303 -467q0 -137 29 -227q43 -35 151 -108q98 -59 172 -60q16 0 75.5 50t72.5 50q16 0 16 -4q0 -2 -3 -8t-3 -8q2 -6 4 -8q12 43 41 125q70 37 98 71q10 14 66 15 q96 0 196 -47q-129 -356 -239 -469q-125 -133 -381 -133q-336 0 -500 243q-135 201 -135 527zM57 1174q0 -20 27 -166q37 -193 49 -279q20 47 37 170q16 137 37 203q37 117 110 190q14 -26 14 -49q0 -10 -3 -20l73 69q13 -41 13 -92v-20q104 133 227 198q13 -28 13 -55 q0 -7 -1 -14q41 31 129 84q14 -20 34 -62.5t34 -64.5q16 -2 50 16t52 39q41 -45 41 -145q0 -23 -4 -37h76q31 0 80 -54q29 -37 59 -73h51q0 4 8.5 22.5t8.5 38.5q0 18 -30 81t-34 91q-18 16 -47 45q-37 80 -90 123q-33 16 -70 37q-96 96 -124 96q-18 0 -22.5 -6t-20.5 -6 t-50 20.5t-49 20.5q-18 0 -18 -7t-19 -7q-16 0 -51 21.5t-53 21.5q-6 0 -16.5 2t-16.5 2q-37 0 -92 -86q-143 -4 -277.5 -117t-134.5 -231zM340 360q0 -18 33 -84l57 56q43 -35 98 -226q29 49 99 142q16 -29 47 -70q8 33 90 80.5t82 108.5v49q-12 -6 -86 -54 q-47 -30 -67 -30h-1q-70 0 -174 59q-45 43 -133 96q-45 -74 -45 -127zM975 547q55 -2 72 -82q8 -59 18 -119q108 108 178 221q-94 47 -176 47q-49 0 -53 -2q-20 -10 -39 -65z" />
<glyph unicode="D" horiz-adv-x="1345" d="M-23 1432q0 59 52.5 123.5t93.5 64.5q16 0 38.5 -14.5t41.5 -14.5q16 0 51 7.5t51 7.5t74.5 -21.5t77.5 -21.5q14 0 55 35.5t59 35.5t44 -14t44 -14q20 0 41 14t39 14q25 0 174.5 -111.5t231.5 -193.5q18 -18 31 -92q1 -7 1 -13q0 -36 -38 -61q71 -70 71 -377 q0 -215 -30 -335q-47 -186 -189 -332q-35 -35 -147 -80q-104 -41 -135 -41h-701v1382q0 16 -15.5 24.5t-15.5 27.5zM-8 1432q0 -51 76 -84v-424q25 47 51 217q23 150 82 219q0 -86 -7.5 -155.5t-7.5 -76.5q10 16 37 101q20 68 80 131q39 -86 41 -127q20 -14 49 -43 q2 -8 8 -94q4 -61 35 -84q37 39 41 129q6 121 12 145q23 76 103 103q11 -29 11 -74q0 -13 -1 -27h53l27 29q55 -59 100 -60q20 0 41 25q29 33 31 35q4 -6 10 -17.5t15 -11.5q10 -94 34 -262q16 41 17 100q0 14 -2 41v39q0 86 57 111q27 -16 64 -60q55 -63 63 -71h53v51 q-8 39 -35 92q-80 80 -224 185.5t-167 105.5q-18 0 -38.5 -14.5t-41.5 -14.5q-18 0 -43.5 14.5t-44.5 14.5q-18 0 -59 -36t-55 -36q-18 0 -76.5 21.5t-75.5 21.5q-16 0 -51 -7t-51 -7q-18 0 -41 14.5t-39 14.5q-41 0 -86 -65.5t-45 -108.5zM350 451q55 -78 99 -78 q23 0 36 15t23 30l43 -45q26 30 95 30h5q23 0 72 58q45 51 88 100q8 -14 33 -43q33 183 33 240q0 152 -43 264q-68 176 -228 176h-104q-4 -57 -6 -115q-16 -86 -74 -86q-33 25 -43 62q-4 16 -4 74q-2 47 -25 67v-749zM358 303q27 -4 33 -41q10 -66 15 -78q12 31 40 74 q14 -31 29 -61q23 -39 78 -56q14 37 43 103l72 -74q33 35 92 143.5t57 122.5v96q-25 -18 -88 -88q-49 -57 -70 -57q-14 0 -16 4q2 2 4 8q-2 4 -16 4q-35 0 -80 -45l-43 45q-10 -14 -21 -28q-16 -16 -38 -17q-18 0 -48 23q-39 33 -43 35v-113z" />
<glyph unicode="E" horiz-adv-x="1363" d="M0 1405q0 68 47 133q59 80 150 80q18 0 106 -29.5t107 -29.5q18 0 32.5 15t32.5 15t62.5 -15t62.5 -15q-2 0 141.5 10t237.5 10q45 0 80 -2q37 27 59 27q25 0 60.5 -44t35.5 -73q0 -18 -24 -121q-29 -117 -37 -170h-289q68 61 103 147q-8 0 -12.5 10.5t-10.5 16.5 q-123 -182 -242 -182q-23 0 -47 6q-10 -51 -49 -131q-43 66 -104 205l-166 -185q6 -6 37 -6q39 0 76 43q0 -102 16 -147q22 6 64 6h22l101 -4h-1q4 0 25.5 14.5t40.5 14.5q18 0 83.5 -21.5t84.5 -21.5q16 0 57 14q53 20 92 29q6 -6 8 -21q0 -8 -2 -24.5t-2 -18.5 q23 -6 72 -29v-282h-645q-12 -29 -12 -101q0 -25 -3.5 -48t-3.5 -27q0 -23 78 -91q53 -47 127 -47q23 0 37 17q8 10 19 22q98 0 294 8q10 2 50.5 21.5t60.5 19.5q55 0 96 -61q35 -51 35 -98q0 -18 -19.5 -59.5t-21.5 -53.5q-4 -23 -4 -141h-1075v1296q-10 8 -14 4 q-10 -8 -29 -8q-33 0 -57 47q-23 41 -23 76zM14 1405q0 -70 84 -109q14 29 29 101q12 66 27 90q23 -74 71 -205l58 57q10 -55 18 -110q12 -63 29 -94q10 82 32 235q10 -1 22 -1q51 0 118 15q49 -176 106 -292q12 102 47 290l-106 -98h-8l112 115q86 -29 144 -29 q20 0 62 21.5t54 21.5q27 0 55.5 -58.5t98.5 -58.5q31 0 82 67t51 124q0 23 -29 53q-27 25 -51 49q-52 -31 -94 -31q-6 0 -12 1q-35 2 -80 2q-84 0 -210 -8.5t-124 -8.5q-18 0 -62 15.5t-63 15.5q-18 0 -32.5 -15.5t-32.5 -15.5t-108.5 30t-104.5 30q-86 0 -140 -74 q-43 -59 -43 -125zM469 971q25 -59 49 -121q35 -74 92 -94q18 45 39 88t68 43q39 0 55 -53l23 -78q29 2 51 55q29 68 57 86q35 10 70 21q47 18 63 69q-37 -8 -92 -29q-43 -14 -59 -14q-18 0 -84 22.5t-84 22.5t-58.5 -14t-58.5 -14q-94 0 -131 10zM471 252q0 -31 55 -141 q16 33 31 65q23 47 51 68q55 -25 78 -107q10 -57 23 -114q27 68 55 135q37 68 121 114l37 -28q44 28 71 28h2q18 0 86 -47q78 -55 113 -69q35 61 35 88q0 35 -31 84q-37 61 -86 61q-20 0 -60 -19.5t-51 -21.5q-98 0 -294 -8q-10 -12 -19 -23q-14 -16 -37 -16q-27 0 -94.5 36 t-85.5 66v-151zM655 1425l78 80l17 -16l-80 -80zM977 1397l80 78l14 -15l-80 -80z" />
<glyph unicode="F" horiz-adv-x="1050" d="M2 -14v1536q0 49 61 75q45 20 91 21q18 0 83.5 -21.5t84.5 -21.5q16 0 39.5 14.5t39.5 14.5q18 0 26.5 -22.5t25.5 -22.5q18 0 52 22.5t50 22.5q18 0 99 -22.5t100 -22.5q16 0 101 22.5t103 22.5q57 0 98.5 -33t41.5 -84q0 -18 -25 -53q-29 -41 -31 -45q-10 -28 -10 -71 v-15q5 -94 6 -94v3q-18 -18 -678 -18l-10 -10v-144q10 -23 73.5 -51t96.5 -28q16 0 123 14t125 14q12 0 76.5 -41t103.5 -49v-299h-592v-614h-354zM14 1501q0 -20 25 -69q29 -61 63 -62q18 0 73.5 43t72.5 43q45 0 84 -65.5t69 -65.5q20 0 70.5 44t63.5 44q16 0 102 -44 t102 -44q39 0 310 92q34 25 34 70t-35.5 73.5t-89.5 28.5q-18 0 -103 -22.5t-101 -22.5q-18 0 -99.5 22.5t-99.5 22.5q-16 0 -50 -22.5t-52 -22.5q-16 0 -24.5 22.5t-27.5 22.5q-16 0 -39.5 -15t-39.5 -15q-18 0 -84 22.5t-84 22.5q-139 0 -140 -103zM342 711q39 61 129 118 q-10 -20 -10 -36q0 -18 12 -34t12 -18q35 8 156 84q101 66 168 66h4q35 22 35 51q-12 4 -37 18.5t-43 14.5t-124.5 -15.5t-123.5 -15.5q-31 0 -82 21.5t-82 52.5q-20 -138 -20 -225q0 -49 6 -82z" />
<glyph unicode="G" horiz-adv-x="1429" d="M0 741q0 78 37 289q-4 6 -19 14q6 215 146 351q125 123 309 141q16 2 72.5 42t75.5 40q18 0 57 -14.5t57 -14.5q14 0 33.5 7.5t36.5 7.5q27 0 177.5 -81t238.5 -147q18 -14 28 -71q4 -27 4 -50t-4 -41q-10 0 -35 -14q23 -53 56 -186q-45 -16 -162 -17h-123q-14 2 -39 41 q-41 63 -123 142q-4 0 -26.5 -21.5t-40.5 -21.5q-27 0 -85.5 35.5t-56.5 35.5q-49 0 -111.5 -45t-90.5 -92q-20 -35 -45 -137q-27 -111 -27 -184q0 -178 43 -252q39 -66 205 -115q6 -2 41 -29q29 -23 49 -22q49 0 86 41q49 53 88 71h4q24 0 41 -41q37 37 64 132 q-59 10 -267 10q-16 45 -16 147q0 76 8 109q16 78 82 139q29 -14 80 -43l35 29l37 -27q20 -16 41 -16q18 0 67 7t66 7q80 0 98 -4q12 -4 25 -23q14 -25 51 -47v-798h-219q-18 49 -39 125q-127 -170 -361 -170q-328 0 -504 258q-145 211 -145 503zM33 1053q43 66 143 184 q27 -27 39 -27q6 -63 6 -141q0 -51 -2 -141t-2 -129q51 63 80 209q33 156 45 176q25 45 104 106q104 80 113 88q72 -63 90 -127q6 -37 13 -75q14 -25 94 -25q10 0 93 78t126 78q16 0 109.5 -42t111.5 -42h45v51q-8 45 -35 102q-76 51 -227.5 132t-173.5 81q-16 0 -35.5 -7 t-34.5 -7q-18 0 -58 14.5t-56 14.5q-18 0 -73.5 -38t-76.5 -44q-72 -8 -184 -37q-106 -51 -164 -137q-43 -66 -66 -158q-12 -70 -24 -137zM426 444q14 -49 44 -154.5t44 -154.5q23 35 68 74t67 39q18 0 22.5 -7.5t20.5 -7.5q33 0 107 62q69 56 75 72v63q-20 -10 -108 -65 q-70 -45 -88 -46q-63 0 -252 125zM721 848q0 -33 45 -100q14 0 92 -11q47 -6 78 -6h14q68 -70 111 -186q4 61 8 86q6 49 21 71q8 16 69 78q49 53 55 86q-6 6 -63 6q-41 0 -113.5 -2t-76.5 -2q-20 0 -41 17q-37 27 -37 26l-35 -28q-23 14 -80 43q-47 -47 -47 -78z" />
<glyph unicode="H" horiz-adv-x="1398" d="M0 1507q0 39 33 62q98 49 213 49q23 0 88 -36t110 -71q-21 -112 -21 -261q0 -72 5 -154q18 -14 84 -43q57 -25 90 -58q4 2 45 35q31 23 49 23q23 0 82 -17q94 -29 96 -28q6 12 7 127q-2 78 -7 213q-4 129 -4 133q0 27 32 67.5t63 40.5q18 0 75.5 -28.5t75.5 -28.5 q14 0 42 6t65 6v-1558h-332v645h-465v-645h-348v1462q-25 14 -78 59zM16 1503q47 -2 74 -65q16 -47 31 -95q39 31 106.5 66t91.5 35q12 0 43 -6t72 -6v81q-51 29 -102 56q-63 35 -86 35q-33 0 -96 -13q-78 -16 -115 -39q-18 -45 -19 -49zM422 844q20 -43 51 -51 q33 39 84 100q20 -35 39 -70q25 -43 51 -61q16 49 88 82q45 18 90 39q60 35 60 82q0 20 -8.5 29.5t-8.5 13.5q-33 0 -94 15t-78 15q-23 0 -55 -24q-43 -33 -49 -35q0 37 -53 53q-72 23 -99 49q-34 -135 -34 -172q0 -31 16 -65zM885 1479l26 -21q16 -14 17 -22 q12 -74 26 -146q23 -104 56 -135q20 92 65 219q16 23 76 84q47 50 51 70q-23 0 -45 -6t-41 -6q-18 0 -75.5 29.5t-75.5 29.5q-41 0 -80 -96z" />
<glyph unicode="I" horiz-adv-x="630" d="M0 1493q0 49 25 72q45 41 53 53q143 -59 215 -59q20 0 39.5 19t40.5 40q78 -39 78 -94v-1538h-359v1415q-29 12 -57 37q-35 31 -35 55zM14 1493q0 -39 35 -53q53 -23 55 -25q94 -88 95 -274q0 -18 -2 -58v-57q0 -143 45 -227q25 201 84 575q16 6 47 25l30 -29 q35 92 35 123q0 25 -24.5 62.5t-40.5 48.5l-40 -40t-40 -20q-74 0 -213 60q-66 -66 -66 -111z" />
<glyph unicode="J" horiz-adv-x="1118" d="M0 633q0 37 36 76t73 39q18 0 46.5 -21.5t47.5 -21.5q16 0 39.5 21.5t40.5 21.5q23 0 42 -17.5t21 -17.5q29 -53 59.5 -156.5t32.5 -159.5q16 -10 78 -30q49 -16 70 -39q25 43 24 82v993q-23 6 -45 31q-29 29 -28 61q0 39 46 81t99 42q16 0 71.5 -21.5t73.5 -21.5 q16 0 20.5 7t22.5 7q27 0 49.5 -25.5t22.5 -52.5v-1105q0 -80 -59 -203q-45 -90 -86 -144q-23 -29 -135 -55q-96 -24 -144 -24h-4q-150 0 -248 32q-90 31 -131 103q-33 59 -65 190q-35 145 -41 277q0 4 -14.5 17t-14.5 34zM14 623q78 -63 95 -64q18 0 37.5 14.5t33.5 14.5 q27 0 64 -30t55 -66q25 -74 84 -218q6 0 47 -10q31 -8 49 -8q60 0 101 66q-23 16 -72 28q-63 16 -72 19q-18 96 -39 194q-31 117 -114 170q-45 -43 -80 -43q-18 0 -47 21.5t-47 21.5q-33 0 -64 -45q-25 -35 -31 -65zM551 1495q0 -20 8 -39.5t8 -23.5q61 10 98 10q32 0 46 -8 q2 -92 34 -265q14 29 14.5 117t18.5 125q27 59 113 68q20 82 20 80q-47 0 -134 22.5t-95 22.5q-41 0 -86 -31t-45 -78z" />
<glyph unicode="K" horiz-adv-x="1443" d="M0 1501q0 33 38 75t73 42q16 0 64 -29.5t67 -29.5q14 0 41.5 15t46.5 15q84 0 84 -76q0 -20 -19 -94l11 -358q35 16 98 16q20 0 43 37q18 31 35 62q219 356 315 378q205 49 272 50q66 0 76 -27q18 -51 58 -82l-558 -631q68 -98 222 -291q186 -236 227 -290q-4 -20 -6 -60 q71 -86 143 -223q-13 -13 -150 -13q-101 0 -270 7l-407 600q-31 -35 -111 -113v-499h-334v1435q-59 59 -59 84zM14 1501q0 -41 172 -248q-4 12 -4 25q0 53 62 113l98 82l31 -31q8 8 19.5 25.5t17.5 23.5q0 8 -8.5 33.5t-8.5 31.5q-4 0 -23.5 9.5t-39.5 9.5q-18 0 -46 -15.5 t-42 -15.5q-18 0 -66.5 30t-64.5 30q-27 0 -62 -36t-35 -67zM367 903q27 8 70.5 52t43.5 69v51q-106 -33 -114 -63v-109zM602 1165l295 234q10 -16 6 -43q-2 -35 0 -45q63 53 162 127q72 27 178 80v53l-18 18h-105q-37 0 -145 -30q-123 -35 -154 -66q-53 -72 -157 -190 q-25 -25 -62 -138zM915 348h25l16 82h-24zM948 567q113 -115 113 -225q0 -23 -4 -55.5t-4 -44.5q0 -47 53 -72q66 80 78 111q-49 49 -117 137q-86 113 -119 149z" />
<glyph unicode="L" horiz-adv-x="1163" d="M0 1516q0 37 63 73q51 29 76 29q18 0 70.5 -29.5t71.5 -29.5q16 0 41.5 6t56.5 6v-1094q8 -6 74 -53q41 -31 63 -31q18 0 33.5 14.5t34.5 14.5q18 0 25 -14.5t26 -14.5q18 0 22.5 7.5t22.5 7.5q16 0 48 -23t46 -23q18 0 107.5 15.5t107.5 15.5q31 0 67 -38t36 -58 q0 -6 -4.5 -72.5t-4.5 -113.5q0 -72 7 -121h-1045v1470q-14 10 -27 21q-18 12 -18 35zM14 1511q0 -18 32 -44.5t37 -35t19 -59.5q10 -39 41 -63q29 152 203 182q21 51 21 65q-23 0 -45.5 -6t-40.5 -6t-70.5 30t-71.5 30q-33 0 -79 -30t-46 -63zM266 256q29 -16 58 -16 q25 0 65.5 17t61.5 17q70 0 120 -69q12 -39 54 -107h51q33 102 86 142q153 8 259 8h40q0 15 16 33q2 16 -27.5 57t-60.5 41q-18 0 -107 -15.5t-108 -15.5q-14 0 -46 22.5t-48 22.5q-18 0 -22.5 -7t-22.5 -7t-25.5 14.5t-25.5 14.5t-33.5 -14.5t-34.5 -14.5q-18 0 -58 37 t-59 37q-51 0 -133 -197z" />
<glyph unicode="M" horiz-adv-x="1595" d="M0 1450q0 49 47 94t84 45q18 0 124.5 -22.5t125.5 -22.5q80 0 125 15q43 -25 43 -62q0 -16 -10.5 -47t-8.5 -43q51 -266 86 -408q20 -14 52 -45q8 -63 45 -186q35 4 37 37q6 57 16 78q25 43 63 59q31 90 37 215q-2 14 -20 51q-16 31 -17 60q0 88 79 212t139 124 q18 0 18 -14.5t18 -14.5q20 0 30.5 14.5t19.5 28.5q154 -74 170 -74q23 0 40 17q12 14 25 28q33 -33 47 -33v-1574h-336v933l-205 -933h-286l-215 962v-958h-328v1388q0 14 -22.5 33.5t-22.5 42.5zM14 1450q0 -20 9.5 -40.5t9.5 -25.5q164 57 200 58q20 0 47 -28t39 -28 q0 16 25 41q29 -45 102 -131q95 176 95 205q0 23 -11.5 30t-23.5 13q-43 -14 -125 -14q-18 0 -124.5 22.5t-125.5 22.5q-45 0 -81 -45t-36 -80zM555 807q0 -23 23 -105q29 -106 30 -116q31 -145 56 -373q14 18 63 68q41 37 43 55q64 397 64 506q0 43 -39 73 q-18 -45 -58 -204q-63 68 -73 135q-18 94 -27 112q-29 -27 -55.5 -77t-26.5 -74zM848 1268q0 -29 17.5 -61.5t35.5 -41.5q29 55 92 148q43 27 127 100q66 -55 74 -168q10 -174 16 -194l27 -19q31 45 31 127q0 18 -2 54t-2 53q0 49 12 80.5t74 99.5q55 62 55 78 q0 20 -12.5 30.5t-24.5 20.5q-39 -45 -65 -45q-27 0 -170 74l-58 -60q-4 4 -6 29q-2 16 -22 16q-27 0 -69 -33.5t-67.5 -74.5t-46.5 -117q-16 -63 -16 -96z" />
<glyph unicode="N" horiz-adv-x="1386" d="M0 1456q0 45 33 96q43 66 106 66q18 0 70.5 -22.5t71.5 -22.5q18 0 22 8t23 8q74 0 131 -96q23 -37 63 -145q6 -14 41 -52q41 -43 53 -65q6 -10 9.5 -54t13.5 -65q20 -25 41 -49q29 -37 29 -68q0 -25 -19 -49q47 -98 121 -244q-2 0 25 7q14 2 28 -7q6 6 8 32t2 134 q-2 199 -2 328q-74 154 -73 170q0 55 37 137q45 100 104 101q12 0 39 -13.5t45 -9.5h18q25 -12 80 -16q70 -4 88 -9v-1558q-49 -18 -176 -18q-72 0 -158 4q-231 463 -514 970v-968h-329v1400q0 16 -15.5 33t-15.5 37zM16 1413q16 6 74 35q45 22 64 22h2q41 0 98 -34 q88 -53 225 -246q131 -182 213 -221v53q-29 29 -69 90q-4 47 -25 119q-37 45 -94 119q-29 68 -55 133q-41 90 -123 90q-18 0 -22.5 -7t-22.5 -7t-71.5 22.5t-70.5 22.5q-27 0 -75 -44t-48 -69v-78zM782 526q0 -37 33 -102q18 0 48 7t34 7q33 103 33 146q0 23 -31 63 q-33 49 -68 55q-49 -94 -49 -176zM811 1366q0 -29 17.5 -61.5t37.5 -40.5q18 47 37 96q23 57 66 76q90 39 207 39q34 24 34 51q-16 10 -49 33q-4 0 -22.5 -7.5t-38.5 -7.5q-18 0 -81 22.5t-81 22.5q-61 0 -100 -108q-27 -74 -27 -115z" />
<glyph unicode="O" horiz-adv-x="1507" d="M0 776q0 137 39 293q43 184 117 270q10 12 20 52.5t19 50.5q92 125 362 170q37 6 305 6q27 0 139.5 -63.5t155.5 -104.5q104 -100 141 -215q29 -88 50 -262q14 -134 14 -189q0 -322 -148 -540q-180 -264 -526 -264q-350 0 -530 235q-158 209 -158 561zM188 1378 q0 -31 35 -65q51 51 160 131l74 -72q25 25 47 49q31 31 51 37q8 -37 29 -100h71q27 -47 97 -137q59 -78 82 -125q35 70 71 141q53 96 113 135v-158h12q44 0 66 27q12 -10 53 -100h49q92 47 92 86q0 27 -48 97.5t-89 111.5q-53 53 -164 114q-100 53 -127 54q-10 0 -129 -3.5 t-176 -3.5t-201 -65q-168 -78 -168 -154zM334 784q0 -39 32.5 -168t45.5 -143q33 29 67 29q16 0 86 -58.5t88 -58.5t56.5 21.5t52.5 21.5q18 0 25.5 -7t23.5 -7q20 0 80.5 51t73.5 57q16 37 34 140q17 93 17 122q0 152 -80 332q-35 20 -64 21q0 -16 -38 -56q-55 66 -158 189 q-342 -74 -342 -486zM377 344q57 -31 112 -63q61 -39 66 -111q53 27 90 70q29 -43 88 -115q82 129 221 375q-4 -2 -73 -62q-47 -39 -70 -39q-16 0 -23.5 7.5t-25.5 7.5t-56 -21.5t-53 -21.5q-18 0 -87.5 58t-86.5 58q-80 0 -102 -143z" />
<glyph unicode="P" horiz-adv-x="1134" d="M2 1485v6q0 42 50 83q54 44 134 44q18 0 63.5 -22.5t63.5 -22.5q16 0 49 15.5t48 15.5q18 0 47.5 -15.5t48.5 -15.5q18 0 46 15.5t44 15.5q18 0 55 -22.5t56 -22.5q20 0 31.5 14t29.5 14q23 0 119 -41q104 -45 153 -84q29 -23 60 -65q37 -55 41 -99q20 -256 20 -262 q0 -326 -168 -432q-141 -88 -530 -88h-51q-10 -10 -11 -88q0 -55 13 -442h-348v1472q-39 27 -64 27zM14 1503q90 -14 133 -90q27 -61 54 -123q49 66 67 86q37 43 66 64q55 -88 94 -88q61 86 115 102q86 -90 127 -90q31 0 108 45q20 -68 90 -102q43 -23 137 -41.5t125 -34.5 v69q0 23 -38 76q-33 47 -58 70q-45 41 -145 86q-92 41 -121 41q-18 0 -29.5 -14.5t-31.5 -14.5q-18 0 -55.5 21.5t-55.5 21.5q-16 0 -44 -14t-46 -14t-48 14t-48 14q-14 0 -47 -14t-50 -14q-18 0 -64 22.5t-63 22.5q-70 0 -137 -37q-8 -4 -17 -30t-18 -34zM358 799 q47 -12 78 -78q41 -86 56 -100q29 47 58.5 97t53.5 50q14 0 17 -4q-2 -2 -5 -6q2 -4 17 -4q20 0 55 22q51 33 53 33q12 6 53.5 3t53.5 5q0 4 8 26.5t8 45.5q0 61 -55 88q-41 -109 -129 -109q-12 0 -34.5 2t-35.5 2q-76 0 -202 31q-50 -50 -50 -99v-5zM403 938 q39 -49 207 -49q113 0 131 4q78 98 78 151q0 170 -143 170h-273v-276z" />
<glyph unicode="Q" horiz-adv-x="1486" d="M0 813q0 186 129 551q43 121 242 195q154 59 282 59q29 0 64 -25q23 4 47 4q115 0 240.5 -77.5t209.5 -196.5q18 -27 27 -86q6 -49 12 -96q51 -291 52 -307q0 -117 -33 -279q-2 -6 -19.5 -48t-17.5 -63q0 -63 18 -122q6 -18 43 -52.5t37 -54.5q0 -33 -83 -131t-120 -104 q-20 14 -86 86q-51 53 -71 53q-12 0 -74 -27q-72 -31 -98 -39q-14 -4 -148 -4q-340 0 -510 240q-143 201 -143 524zM139 1348q0 -33 19 -35q45 6 131 33q16 8 43.5 42.5t40.5 45.5q27 10 65 30q8 -6 35 -37q14 -18 33 -18q47 0 112 70q18 -18 44 -70q14 -27 53 -27 q23 0 74 20.5t65 20.5q20 0 80 -37q82 -53 90 -57q10 -51 49 -137q70 -6 162 -31v90q0 86 -191 213q-180 121 -264 121q-25 0 -68.5 9.5t-58.5 9.5q-18 0 -106 -15q-102 -16 -125 -18q-51 -6 -162 -86q-121 -88 -121 -137zM319 827q0 -123 46 -260q10 -33 88 -143 q0 55 53 55q16 0 77.5 -19.5t82.5 -19.5q-27 46 -27 63q0 4 2 7q12 18 18.5 54t10.5 44q18 37 74.5 79t80.5 42q94 0 127 -125q0 41 10.5 124t10.5 91q0 106 -6 148q-12 80 -58 172l-98 82q-63 51 -117 51q-199 0 -297 -158q-78 -121 -78 -287zM459 397q164 -125 246 -125 l28 39q17 25 17 43q0 20 -7.5 25.5t-13.5 9.5q-152 76 -197 76h-57q-16 -57 -16 -68zM684 549q20 23 98 55q41 -49 90 -63q43 -9 84 -19q-18 61 -34 121q-33 72 -97 72q-49 0 -97 -59q-44 -55 -44 -100v-7zM1124 227q8 -6 17 -6q8 0 26.5 11.5t32.5 11.5q20 0 53 -21 q22 -19 47 -35q4 12 5 23q0 31 -39 77t-39 77q0 14 6 30q-49 -35 -76 -88q-16 -41 -33 -80z" />
<glyph unicode="R" horiz-adv-x="1406" d="M0 1499q0 37 63.5 78t106.5 41q18 0 55 -14.5t56 -14.5q16 0 37.5 7.5t35.5 7.5q18 0 158.5 -44t159.5 -44q16 0 86.5 7t89.5 7q86 0 106 -4q70 -16 176 -88q10 -66 62 -213q47 -137 47 -154q0 -76 -42 -192.5t-75 -124.5q37 -18 39 -72q4 -78 8 -88q29 -74 29 -180 q0 -25 -2 -73t-2 -73q0 -139 59 -219v-67h-350q-10 55 -29 249q-14 168 -38 256q-8 27 -49.5 48.5t-71.5 21.5h-326v-571h-344v1444q-45 16 -45 69zM16 1473q35 -16 154 -136q59 74 88 95q36 24 91 24h5q72 0 95 -35q10 -18 24 -106q14 -94 49 -170q14 14 37 18q6 88 29 250 q14 -4 57 -27q37 -20 55 -20t29.5 15.5t30.5 15.5q18 0 59 -22.5t60 -22.5q18 0 40.5 7t38.5 7q18 0 61.5 -21.5t57.5 -21.5q23 0 39 18q11 17 21 31q-10 70 -115 111q-84 33 -174 33q-18 0 -89 -8.5t-87 -8.5q-18 0 -158.5 45t-159.5 45q-14 0 -35.5 -8t-37.5 -8 q-18 0 -57.5 15.5t-53.5 15.5q-29 0 -78 -25t-76 -51v-55zM385 926q25 0 60.5 6t48.5 6q18 0 48.5 -14.5t47.5 -14.5q18 0 96 7.5t96 7.5q35 0 69 31.5t34 72.5q0 106 -50.5 141t-177.5 35q-61 0 -77 -8q-4 -45 -68 -66q-6 10 -27 41q-14 23 -14 31h-86v-276zM399 891 q18 -76 25 -94q25 -57 68 -78h51q27 82 69 117q45 -45 68 -45q53 0 143 49q20 10 35 45q12 28 10 53q-127 -43 -278 -43q-18 0 -48 14.5t-48 14.5q-29 0 -95 -33zM1063 678q29 -31 86 -78l-16 131q-66 -27 -70 -53z" />
<glyph unicode="S" horiz-adv-x="1314" d="M125 492q0 23 35 49t61 26q35 0 80 -53q53 0 137 -8q20 -25 82 -146l25 27q4 0 76 -53q23 -16 98 -17q92 0 160 33q75 38 75 105q0 35 -24 67q-94 35 -250 76q-188 51 -246 70q-78 25 -141 71q-41 31 -84 137.5t-43 176.5q0 100 54 211.5t126 144.5q-6 14 -6 31 q0 57 61 114q57 51 97 52q18 0 50 -13.5t48 -13.5t29.5 13.5t31.5 13.5t108.5 -35t106.5 -35q18 0 21.5 7t19.5 7q45 0 125 -59q70 -51 105 -96q25 -31 43 -113q-4 -18 -6 -53q37 -51 37 -72v-129q-47 -18 -152 -18q-70 0 -135 6q-63 125 -86 151q-47 51 -131 52 q-88 0 -154 -27q-88 -37 -88 -113q0 -69 34 -69h1q14 0 43 14t47 14t72 -30q80 -45 90 -50q23 -10 96.5 -24t97.5 -27q53 -20 140 -69q66 -57 114 -160q54 -109 54 -201q0 -233 -146 -362q-57 -51 -156.5 -83t-189.5 -32q-92 0 -244 29q-174 35 -217 73q-88 84 -123 164 q-59 139 -59 226zM137 492q0 -25 21.5 -54.5t42.5 -36.5q75 48 75 111q0 20 -10 27.5t-20 13.5h-49q-10 -12 -39 -31q-20 -14 -21 -30zM350 1427q31 27 107 27q18 0 56 -35t54 -35q23 0 60 42t51 42q31 0 88 -55t92 -55q18 0 42 20.5t34 20.5q61 0 106 -45q45 -53 119 -135 q1 14 19 32q-35 139 -78 183q-31 31 -97.5 66.5t-89.5 35.5q-16 0 -19 -6t-22 -6q-16 0 -106 34.5t-109 34.5q-18 0 -31.5 -14t-29.5 -14t-48 14t-50 14q-47 0 -97.5 -66.5t-50.5 -99.5zM512 326q0 -29 40 -74t85 -45q16 0 42 17.5t36 19.5q106 16 119 20q80 25 92 80 q-188 -39 -207 -39q-78 0 -99.5 16.5t-44 35t-32.5 16.5q-10 -8 -20.5 -17.5t-10.5 -29.5zM512 991q31 -23 178 -147q113 -96 133 -96q14 0 71.5 27.5t74.5 27.5q84 0 166 -25q-94 74 -185 117q-23 10 -95.5 23.5t-96.5 25.5q-2 0 -90 49q-53 31 -72 31q-12 0 -84 -33z" />
<glyph unicode="T" horiz-adv-x="1318" d="M0 1489q0 31 50 80t102 49q16 0 91.5 -36t94.5 -36q16 0 27.5 7.5t29.5 7.5q14 0 120 -36t124 -36t213 36t211 36q25 0 69.5 -22.5t73.5 -53.5q-14 -102 -14 -307q-11 -11 -132 -11q-97 0 -265 7v-1188h-344v1171h-392q-8 35 -9 121t-11 129q-4 14 -21.5 37.5t-17.5 44.5 zM14 1489q0 -37 54.5 -83t97.5 -46q8 0 90 50t154 50q31 0 105.5 -37t113.5 -75q18 -18 24 -62q10 -66 13 -69q31 12 63 79q16 41 35 80q31 47 98 56h94q31 0 203 -29q35 70 33 82q-92 61 -129 61q-16 0 -211 -35.5t-213 -35.5t-123.5 35.5t-120.5 35.5q-18 0 -29.5 -7 t-27.5 -7q-20 0 -96 36t-90 36q-41 0 -89.5 -43t-48.5 -72z" />
<glyph unicode="U" horiz-adv-x="1517" d="M137 555v856q0 49 53.5 107.5t106.5 58.5q16 0 93 -28.5t124 -55.5q33 -18 33 -76q0 -12 -31 -241.5t-31 -241.5l11 -457q84 -49 135 -49q10 0 20.5 5t24.5 5q12 0 31.5 -19.5t33.5 -19.5q43 0 86 35q53 51 109 103v944q0 27 70 59q59 27 73 27q10 0 60.5 -10.5 t81.5 -14.5q35 -12 34 -49v-1079q0 2 -18 -72q-90 -352 -522 -352q-197 0 -336 78q-188 104 -215 325q-2 16 -14 88q-12 59 -13 74zM188 1468q29 8 54 9q72 0 104 -70q25 -53 29 -150q2 -70 4 -139q23 0 37 10l78 -51l32 316q0 76 -22 90q-43 29 -119 57q-66 27 -84 27 q-16 0 -55 -35t-58 -64zM506 397q49 -63 96 -127q48 -63 48 -107q0 -6 -1 -13q41 33 113 75q33 4 82 17q29 16 55.5 55t26.5 57q0 41 -25 115q-35 -55 -80 -76q-45 -12 -88 -24q-25 51 -47 51q-12 0 -28.5 -10.5t-26.5 -10.5q-12 0 -35 10.5t-35 10.5q-14 0 -32.5 -11.5 t-22.5 -11.5zM946 1483q31 -80 96 -234q-1 -6 -1 -15q0 -45 28 -147h27q80 0 106 132q6 72 15 141q28 82 28 113q0 23 -22 59q-31 4 -86 14q-47 10 -58 10q-29 0 -110 -43q-6 -10 -23 -30z" />
<glyph unicode="V" horiz-adv-x="1312" d="M0 1507q0 27 26.5 62t53.5 35q18 0 18 -14.5t19 -14.5q23 0 33 14.5t18 28.5l59 -59q8 14 18.5 29.5t33.5 15.5q27 0 74.5 -30t65 -63.5t54.5 -136.5q33 -92 62 -141q2 -6 2 -16q0 -41 -37 -62q43 -174 63 -244q39 -139 78 -245q4 0 18.5 22.5t34.5 22.5q16 0 17 -4 q0 -2 -2 -5v-2q2 -4 16 -4q18 0 96 287q121 455 135 502q37 4 179 119q71 -75 165 -138l-485 -1484h-285q-47 139 -141 428q-41 125 -117 364q-43 143 -86 289q-57 184 -104 297q-4 10 -49 63q-33 43 -33 84zM14 1507q0 -23 21 -61q27 -47 59 -47q49 0 88 43 q14 -16 14.5 -63.5t30.5 -67.5q20 33 70 73q16 -29 31 -139q8 -80 53 -80q18 0 29.5 21.5t27.5 21.5q41 0 66 -28q14 14 22 37q-29 53 -64.5 154.5t-58.5 139.5q-45 78 -124 78q-23 0 -33 -15t-19 -30l-59 60q-8 -14 -18.5 -29.5t-32.5 -15.5q-18 0 -18.5 15t-18.5 15 q-27 0 -46.5 -26.5t-19.5 -55.5zM600 618q20 -111 41 -221q21 -117 74 -123v52q-29 41 -29 112q0 43 16 140q12 71 12 105q0 7 -1 13q-43 -27 -113 -78zM1024 1456q0 -16 9 -40.5t9 -31.5q50 21 187 109l-94 96q-111 -76 -111 -133z" />
<glyph unicode="W" horiz-adv-x="1806" d="M0 1503q10 25 88 70t100 45q27 0 89.5 -20.5t95.5 -44t61 -78.5q18 -49 39 -97q-10 -18 -12 -53q-1 -12 -1 -29.5t1 -38.5q4 -51 4 -65q12 -18 8 -33q-18 -41 -18 -82t30 -147q35 -129 50 -234q-4 -8 34 -22l158 811q51 0 149.5 30.5t108.5 30.5q102 0 145 -63 q29 -41 48 -148q20 -125 41 -174l-19 -121q-4 0 -59 56q10 -96 71 -406q6 6 6.5 24.5t20.5 18.5t23.5 -8t15.5 -8q41 195 117 575q14 82 45 176q20 6 43 25q-8 14 -19 33q25 8 95 78q6 -10 14 -19.5t29 -9.5q12 0 45.5 7t54.5 7q18 0 37 -4q-1 -5 -1 -11q0 -24 14 -52 q16 -36 32 -70l-410 -1470h-299l-170 925q-70 -311 -213 -925h-282zM16 1491q14 -8 43 -8q33 2 31 2q25 -47 94 -135q78 -98 95 -123q14 0 46.5 14t51.5 14q20 0 47 -26.5t27 -52.5q0 -12 -7 -23l19 227q-20 45 -44 94.5t-44 63.5q-35 23 -97.5 44.5t-89.5 21.5 q-29 0 -79 -21.5t-74 -46.5q-18 -37 -19 -45zM494 459q0 -86 28 -131q41 70 49 166q9 129 23 178h-2q-98 0 -98 -213zM842 1487q37 -18 76 -35q47 -25 65 -49q8 -10 12 -43t11 -43q81 -131 194 -264v110q1 5 1 10q0 77 -101 336q-104 23 -115 23q-57 0 -143 -45zM1190 475 q14 0 37 -16q78 116 78 151q0 61 -68 95q-2 -6 -29 -72q-18 -45 -18 -68v-90zM1493 1516q0 -143 160 -144q23 0 51 25q37 31 37 76q0 70 -51 116q-55 -28 -86 -28h-2q-20 0 -28.5 9t-14.5 19q-18 -14 -39 -28q-27 -23 -27 -45z" />
<glyph unicode="X" horiz-adv-x="1411" d="M0 18l438 744l-409 719q34 19 74 19q9 0 18 -1q8 37 33 98q10 0 38.5 10.5t49.5 10.5q18 0 55 -21.5t53 -21.5q18 0 26.5 14.5t24.5 14.5q27 0 64 -21.5t57.5 -58.5t47 -139.5t53.5 -153.5q-23 -47 -23 -70q0 -25 51 -84q25 33 52.5 90.5t52.5 110.5q-4 23 -6 53 q20 59 41 119q27 70 93 104.5t103 34.5q18 0 18.5 -15t18.5 -15t22.5 15t20.5 15t36.5 -22.5t37.5 -22.5q18 0 22 15.5t23 15.5q20 0 35.5 -9.5t19.5 -9.5q0 -6 8 -31.5t8 -33.5l-423 -729q51 -84 157 -242q14 0 41 31q84 -121 234 -356q10 -18 10 -41q0 -41 -39 -52 q18 -36 49 -102q-12 -12 -145 -12q-93 0 -246 6l-244 455q-82 -119 -274 -467h-359q-18 25 -18 36zM147 1489q16 -4 119 -12q68 -6 88 -23q51 -45 107 -139l86 -164q67 35 67 72q0 20 -22 51q-29 39 -33 47q-16 37 -29 113q-12 70 -24 92t-47 42.5t-58 20.5q-16 0 -24 -15 t-27 -15q-16 0 -53 22.5t-55 22.5q-37 0 -95 -33v-82zM772 1311q74 61 117 127q92 18 297 18q23 0 35 22.5t22 45.5q-16 10 -49 35q-4 0 -18.5 -14.5t-34.5 -14.5q-18 0 -37 22.5t-37 22.5q-16 0 -20.5 -15.5t-22.5 -15.5t-18 15.5t-19 15.5q-18 0 -21 -22.5t-22 -22.5 q-18 0 -18 7t-19 7q-55 0 -100 -110q-35 -86 -35 -123zM938 346q14 6 29 6q57 0 123 -90q98 -133 100 -135h67v66q0 29 -225 342q-41 -25 -94 -78v-111z" />
<glyph unicode="Y" horiz-adv-x="1288" d="M0 1481q29 18 121 22q33 41 88 78t84 37q27 0 78 -21.5t75 -46.5q49 -125 97 -252q49 -119 123 -235q18 16 41 -2q70 172 219 479q10 18 52 41t69 23q14 0 48.5 -22.5t53.5 -22.5q18 0 28.5 15t28.5 15q23 0 44.5 -35t21.5 -55l-461 -973v-544h-338v559zM147 1475 l144 -50q86 -33 115 -82q23 -37 124 -245q78 -158 138 -226q29 111 49 170q-8 8 -21 9q-37 -4 -39 -4q-23 0 -116 225q-88 215 -92 254q-18 25 -43 43q-14 2 -56.5 18.5t-56.5 16.5q-43 0 -146 -78v-51zM922 1505q11 1 21 1q39 0 52 -13q-12 -18 -12 -57q0 -72 33 -97 q47 45 96 91q48 45 116 45q13 0 27 -2v67q-16 10 -49 35q-27 -31 -57 -31q-18 0 -51 22.5t-51 22.5q-35 0 -125 -84z" />
<glyph unicode="Z" horiz-adv-x="1312" d="M-6 238q0 29 10 45q27 45 109 149q94 121 131 174q12 18 22 133q8 88 64 88q18 0 25 -7t26 -7q41 0 278 354l-208 13q-12 -51 -60 -160q-7 -1 -13 -1q-39 0 -56 42q-13 31 -13 85v21q-76 12 -274 13l-21 18q0 102 2 207.5t37 150.5q45 61 160 62q16 0 50 -21.5t52 -21.5 q16 0 47 21.5t48 21.5q14 0 37.5 -21.5t41.5 -21.5t29.5 14.5t30.5 14.5q18 0 43.5 -22.5t44.5 -22.5q16 0 61 29.5t62 29.5q16 0 158 -33q164 -37 219 -47q32 -49 32 -82q0 -29 -27 -70l-26 -40q-1 -2 -1 -10q0 -16 3 -56q0 -47 -12 -68q-111 -176 -295 -419 q-158 -203 -313 -408q37 -4 73 -8q49 -8 66 -47q41 45 102 45q14 0 42 -14.5t46 -14.5q16 0 24.5 14.5t27.5 14.5q16 0 50 -14.5t52 -14.5q16 0 48 21.5t46 21.5q20 0 40 -8t24 -8q-12 -95 -12 -196q0 -92 10 -189h-1119q-18 37 -18 153q0 6 -4 41q-3 23 -3 40q0 9 1 16z M43 1464q0 -31 23 -71q25 -49 59 -68q45 39 129 88q76 -53 76 -180v-35.5v-36.5q0 -100 59 -129q23 41 23 123v33q-2 20 -2 31q0 139 84 190q16 10 104 29q61 12 84 63q154 -74 188 -74q23 0 48 17q37 27 38 29q35 -39 72 -76q41 -43 62 -43q20 0 32.5 9t16.5 9q0 -6 6 80 v20q0 38 -6 56q-63 8 -219 43q-143 33 -160 33q-16 0 -61.5 -30t-61.5 -30q-18 0 -44 22.5t-44 22.5t-29.5 -15t-30.5 -15q-18 0 -41.5 22.5t-37.5 22.5q-16 0 -47 -22.5t-48 -22.5q-18 0 -52 22.5t-50 22.5q-170 0 -170 -140zM264 682q0 -51 53 -74q31 43 78 172 q-70 33 -84 33q-47 -74 -47 -131zM424 276q68 -6 105.5 -67.5t66.5 -67.5q35 78 113 146q29 -29 51 -29q18 0 57 14.5t53 14.5q18 0 88 -21.5t89 -21.5q88 0 94 96q-6 6 -23.5 16.5t-25.5 18.5q-14 0 -54.5 -22.5t-56.5 -22.5q-18 0 -52 15t-50 15q-18 0 -26.5 -15 t-25.5 -15q-18 0 -45.5 15t-42.5 15q-25 0 -114 -45q-29 59 -70 60q-37 0 -131 -99z" />
<glyph unicode="[" horiz-adv-x="821" d="M0 -18v1542q0 16 33 49q14 -8 47 -8q51 0 80.5 17t40.5 20q14 -53 59 -74q4 2 25 22q16 14 26 15q10 0 14.5 -7.5t12.5 -7.5q12 0 61 35q4 2 31 7t39 26l24.5 -24.5t32.5 -12.5q10 0 17.5 3t15.5 3q10 0 32.5 -18.5t33 -21.5t24 -7t13.5 -16v-310q0 -16 -12.5 -39.5 t-24.5 -23.5q-10 0 -21.5 8t-19.5 8q-29 -61 -78 -188q2 23 -19.5 56.5t-31.5 33.5q-12 0 -31 -14q-18 49 -47 157h-53v-905q10 -12 32 -12q10 0 43 35q27 18 64 18q6 0 18.5 -11t26.5 -11q10 0 12 3t10 3q33 0 91 -10q41 -8 41 -31v-309h-662zM8 1501q0 -57 8 -90 q16 -23 41 -61q16 -47 49 -129l33 6q10 0 45 -36t52 -63q16 37 32 72q37 72 51 72q41 0 61.5 -46t12.5 -71q4 -8 19 -22q4 -33 2 -54q27 -14 41 -8q25 -29 61 -70q8 43 29 99q25 74 45 74q6 -1 49 -15v66q0 10 -11 20l-10 10q-10 20 -10 62l21 108q4 20 0 60q-6 49 -6 57 q-16 2 -39 20.5t-25 18.5q-8 0 -15 -4t-18 -4q-27 0 -36 15.5t-21 21.5q-14 -23 -68 -33q-27 -35 -63 -35q-8 0 -12 8.5t-15 8.5q-10 0 -28.5 -18.5t-22.5 -20.5q-51 39 -76 75q-43 -37 -104 -36q-37 0 -47 6q-2 -10 -13.5 -33t-11.5 -31zM287 293q45 -156 100 -156 q10 0 8 4t6 4q10 0 22.5 -14t14.5 -14q82 -16 66 -17q10 0 20.5 7.5t12.5 7.5q29 -29 32 -29q23 16 45 47q2 35 11 94q6 50 6 58q0 23 -10 32h-113q-10 0 -24.5 4.5t-20.5 4.5h-37q-8 0 -33.5 -19.5t-36.5 -19.5q-8 0 -29.5 3t-39.5 3z" />
<glyph unicode="\" horiz-adv-x="1042" d="M14 1757q12 20 49 55q78 39 146 39q14 0 84 -24q82 -31 110 -37q37 -78 127 -367l486 -1552h-408zM27 1755q49 -49 82 -90q25 0 53 -6q23 -16 43 -33q29 -20 43 -20q18 0 29.5 5t21.5 5q12 0 21.5 -10.5t23.5 -10.5t22.5 16.5t20.5 16.5q27 0 25 -12l26 26q-4 18 -22 80 q-12 41 -13 60q-37 6 -109.5 31.5t-84.5 25.5q-49 0 -146 -37q-12 -16 -36 -47z" />
<glyph unicode="]" horiz-adv-x="847" d="M2 1548q6 0 30.5 15.5t33.5 15.5q6 0 18 -3t22 -3q53 0 78 10t70 25q139 10 192 10q8 0 52.5 -26.5t54.5 -26.5q33 0 76 30q4 -14 10 -28.5t31 -18.5v-1566h-662v317h98q8 0 42 26.5t42 26.5q33 0 150 -39v904q-4 4 -39 4q-27 0 -83 -30t-68 -46q-25 25 -52 51 q-35 33 -61 33q-14 0 -27 -6zM16 1532q23 -49 37 -201q10 -109 97 -178q20 16 53 43q12 2 30 4q29 39 91 105q14 -23 100 -84q72 -53 88 -105q31 8 74 39q-10 49 -4 100q12 23 32 68q33 102 33 145q0 8 -8 52.5t-8 66.5q-43 -31 -78 -31q-12 0 -57 27t-54 27q-49 0 -188 -11 q-2 0 -68 -26q-33 -8 -80 -8q-10 0 -22 4t-18 4q-12 0 -29 -19.5t-21 -21.5zM61 252q0 -18 70 -158h62q23 0 47 17q18 33 71 96q47 53 47 61q0 25 -71 54q-63 25 -97 24q-8 0 -40.5 -26.5t-43.5 -26.5q-10 0 -24 3t-21 3v-47z" />
<glyph unicode="_" horiz-adv-x="1677" d="M4 0v84q0 6 6 51q8 55 10 74q33 14 93 14q16 0 64 -2t63 -2q14 0 30.5 5t32.5 5t73.5 -12t82.5 -12q184 -4 524 -4q18 0 72 20q29 0 88 4h-56q-29 -8 -53 -22q-14 -8 -51 -8q-2 0 -45 2q-33 2 -78 0q78 -96 174 -97q16 0 13 2t12 2q14 0 33.5 -9t34 -9t55.5 -6 q33 -4 51 -4t36.5 4t22.5 4q6 -2 18.5 -9t18.5 -9q106 12 107 75v9.5v11.5q0 29 14 45q-31 4 -270 18q35 -8 120 -6q98 2 132 -2q70 -8 67 -18v-199h-1495zM16 14h138q4 2 51 64q31 39 110 55q14 -4 15 -10q-4 4 -4 10q0 16 32 39q27 19 54 37q-63 14 -109 14 q-16 0 -38.5 -2t-37.5 -2q-133 0 -196 -10q0 -10 -7.5 -30.5t-7.5 -24.5v-140z" />
<glyph unicode="a" horiz-adv-x="1044" d="M6 434q0 170 98 305q111 150 287 150q137 0 238 -105q2 8 8 101q14 12 37 26q14 -2 33 -2t45 2q66 4 63 4q14 0 64 -55v-860h-242q0 47 -8 68q-96 -96 -234 -97q-188 0 -297 160q-92 133 -92 303zM250 430q0 -55 37 -143h114q35 -35 41 -35q10 0 11.5 8t11.5 8 q49 0 115 -35q82 101 82 197q0 88 -54 160q-59 80 -151 80q-96 0 -156 -80q-51 -72 -51 -160zM287 160q0 -14 19.5 -43t17.5 -58q23 27 53 70q0 -2 12 -53q14 16 27 51q20 53 22 55q37 -57 62 -123q4 23 30 72q25 43 25 53v58q-20 2 -44 3t-46 15l-23 -18l-20 26 q-14 18 -27 19q4 0 -49 -4q-39 -2 -59 2v-125zM635 860q27 -37 53 -74q35 -47 66 -63l24 27l29 -27q6 14 35 72q20 43 20 55q0 14 -10 28.5t-18 26.5q-53 -6 -97 -6q-35 0 -63 4q-14 -18 -39 -43z" />
<glyph unicode="b" horiz-adv-x="1202" d="M80 0v1524q0 65 91 65h3q14 0 10 -6q-4 -8 0 -12l21 18q4 -12 27.5 -35.5t35.5 -23.5q14 0 35 20q25 -41 62 -41l8 -563q6 10 6 21q61 -29 84 -109q90 49 180 49q188 0 318 -151q118 -140 118 -314q0 -197 -121 -333q-127 -141 -319 -142q-176 0 -268 109q-6 -8 -6 -76 h-285zM90 1503q41 -16 45 -28l70 -140q6 -12 12 -59q4 -31 29 -41q2 -63 26 -139q6 37 17 102q2 12 18.5 29.5t16.5 19.5q12 104 12 213q0 41 -33 80q-20 -20 -35 -20q-23 0 -69 47q-8 -2 -16 -2q-21 0 -48 14q-29 -12 -37 -41q-4 -18 -8 -35zM336 432q0 -43 26 -104 q33 -76 89 -113l28 31l10 -10l39 38l21 -20q31 20 90 47q74 33 113 33q16 0 26 -10q23 67 23 108q0 84 -62 156q-68 82 -170 82q-98 0 -165.5 -74t-67.5 -164zM336 764q0 -12 8 -54t8 -55q0 6 8.5 19.5t8.5 17.5q27 33 52 67t25 75q0 98 -67 112q-43 -125 -43 -182zM455 180 q0 -14 24.5 -57t28.5 -55q20 20 61 49q8 -10 9 -31q10 10 26.5 30.5t24.5 28.5q27 -23 69 -69q14 20 39 63q7 35 25 101l-12 84q-55 -14 -109 -29q-66 -16 -102 -59q-6 6 -7 28l-45 -39q-16 0 -28 -12q-4 -20 -4 -33z" />
<glyph unicode="c" horiz-adv-x="806" d="M6 440q0 199 125 326q131 135 352 135h6q2 0 17.5 13.5t25.5 13.5q33 0 105 -54q31 -73 31 -112q0 -94 -47 -217q-27 57 -33 108q-4 33 -12.5 36t-86.5 3q-115 0 -177 -72.5t-62 -179.5q0 -57 33 -131q43 -94 110 -94q12 0 101.5 17.5t99.5 17.5q57 0 57 -131 q0 -18 -4 -76q-43 -25 -43 -45l-18 16q-4 -12 -19 -34q-4 8 -18 26q-18 -8 -41 -65q-10 14 -37 45q-47 0 -139 14q-168 51 -256 193q-70 113 -70 247zM399 203q45 -100 103 -250q2 4 12 55q6 31 35 33q20 -43 18 -53q4 10 45 73q29 46 29 89q-27 90 -47 90q-76 0 -195 -37z M504 899q43 -43 48 -111.5t34 -93.5q0 -18 14 -53q14 -41 31 -53q26 175 28 175v-1q0 12 -14 55t-16 55q-78 47 -97 48q-12 0 -19 -10.5t-9 -10.5z" />
<glyph unicode="d" horiz-adv-x="1159" d="M2 444q0 190 124 328.5t312 138.5q12 0 70.5 -15t69.5 -15q12 0 21 15t24 15q47 0 84 -41v641q12 18 79.5 41t102.5 23q23 0 63.5 -21.5t40.5 -42.5v-1511h-274q-18 29 -33 29q-4 0 -81 -30t-156 -30q-205 0 -332 152q-115 137 -115 323zM281 434q0 -39 20 -96 q29 -82 78 -82q14 0 24.5 5t20.5 5q12 0 91 -19.5t91 -19.5q61 0 105 80q34 66 34 127q0 84 -61 156q-70 82 -172 82q-98 0 -164.5 -74t-66.5 -164zM360 244q6 -33 27 -84q14 -6 53 -31q33 -20 43 -20q23 0 19 8l24 -19q27 10 56 11q10 0 28.5 39.5t24.5 66.5q-33 4 -121 25 q-78 16 -90 16t-33.5 -6t-30.5 -6zM580 842q4 1 7 1q31 0 42 -81q23 6 55.5 33t32.5 41q0 29 -32 47t-62 18q-16 0 -30.5 -22.5t-12.5 -36.5zM717 1501q4 -14 42 -50t50 -75q31 16 90 60q8 -8 18.5 -23.5t14.5 -15.5q41 82 41 137q-45 31 -84 31q-33 0 -98.5 -22.5 t-73.5 -41.5z" />
<glyph unicode="e" horiz-adv-x="958" d="M-10 432q0 133 57 246q72 139 205 186q4 2 53 31q41 27 60 27q59 0 96 -13q20 -18 57 -37q104 -14 195 -139q84 -115 84 -209v-116h-543q-6 -8 -6 -31q0 -41 18 -92q23 -68 56 -68q10 0 12 4t12 4q14 0 19.5 -8t9.5 -14q53 -18 108 -19q14 0 56 47q35 43 55 78 q29 2 88 11.5t68 9.5q18 0 41.5 -22.5t23.5 -28.5q0 -121 -31 -121l-24 8l-31 -39q-39 -47 -96 -86q-82 -55 -221 -55q-203 0 -320 139q-102 125 -102 307zM248 551q4 -45 37 -66l26 -26h31q0 25 14 24q33 0 68 -43l27 27l20 -18q16 14 49 32q4 2 33 -2q20 -2 20 8v72 q-20 4 -70 20.5t-63 16.5q-70 0 -137 -16q-18 -10 -55 -29zM250 561q20 8 55 29q100 14 135 14q13 0 117 -35v31q-53 115 -149 115q-115 0 -158 -154zM266 866q61 -39 68 -39q12 0 20 4.5t19 4.5q8 0 20.5 -12.5t22.5 -12.5t12 8t12 8q31 1 47 50q-50 36 -118 36h-4 q-35 0 -99 -47zM285 164q-2 -12 14 -45q18 -39 20 -47q4 4 13.5 17t13.5 17q14 -8 35 -26l27 26q23 -23 22 -34q59 22 57 55v47q-43 6 -112 21q-4 6 -9.5 14t-19.5 8q-10 0 -12 -4t-12 -4q-20 0 -37 16v-61zM575 283q6 -43 31 -68q35 -29 68 -57l33 35q18 -14 18 -23 q0 23 25 23q4 0 10 -9.5t12 -9.5q8 0 25 12q-8 23 -9 39q0 18 9.5 33t9.5 21q0 14 -19.5 28.5t-37.5 14.5q-8 0 -70 -9.5t-86 -11.5q-8 -6 -19 -18z" />
<glyph unicode="f" horiz-adv-x="788" d="M43 782q0 74 2 80q12 47 80 68l10 272v14q0 100 80 207q90 123 208 123h11q29 49 84 49q10 0 50 -11t61 -13q8 -6 14 -12q12 -12 12 -29v-199h-43q-10 -14 -10 -82q-10 10 -33 -12q-4 6 -14 21.5t-16 19.5q-4 -4 -10.5 -13.5t-12.5 -15.5q0 20 -9 29.5t-30 30.5 q-39 -18 -45 -47t-10 -60l6 -303q8 12 27 29q12 2 48 13t46 11q26 0 106 -53q0 -148 1 -148t1 9q-4 -86 -26 -125l-21 20q-14 -16 -61 -41l-64 62h-61v-684h-297v633q-20 -20 -41 -21q-4 23 -8 45q-8 31 -31 31q-4 18 -4 102zM53 887q23 -25 23 -86q0 -84 0 -80 q8 -41 30 -107q0 23 9 158q6 99 6 158q-33 -31 -68 -43zM432 897q27 -35 53 -139q23 -94 64 -133q23 10 61 41l23 -21q0 16 -4 82q-1 27 -1 49t1 37q2 45 16 76q-25 16 -49 33q-31 20 -47 20q-49 0 -117 -45zM453 1520q0 -90 45 -230q4 4 11 -4t21.5 -8t33 -9t20.5 -9 q4 45 6 90q4 53 41 96q6 16 6 47q0 45 -14 72h-37q-10 0 -33 10t-35 10q-66 0 -65 -65z" />
<glyph unicode="g" horiz-adv-x="1118" d="M-16 440q0 190 121.5 327.5t312.5 137.5q2 0 71 -10q41 -5 65 -5q13 0 21 1q2 -2 8.5 -18.5t20.5 -16.5l14 4q12 2 25 0q14 -2 29 -14q8 20 14 39q14 27 33 35q80 34 89 34h1q76 0 141 -43v-942q0 -119 -88 -250q-98 -154 -229 -161q-16 -2 -78 -9q-49 -4 -63 -4 q-168 0 -312 86q-172 104 -176 285q63 41 227 41q14 0 33 -20q12 -16 27 -31q14 -33 26 -66q29 -59 66 -59q12 0 66.5 14.5t66.5 14.5t53 -5.5t54 -5.5q23 0 55 154l-6 141q-31 -55 -123 -84q-69 -24 -140 -24h-6q-203 0 -319 149q-100 129 -100 305zM12 -86 q23 -68 144 -123l37 39q39 -39 50 -39h1q43 39 43 72q0 18 -19.5 51t-36.5 33q-166 0 -219 -33zM256 236q0 -12 6 -38t6 -36l23 20q18 -47 16 -57q2 0 10.5 4t22.5 4q29 0 39 8q25 -37 67 -106q10 10 33 36.5t37 41.5q6 -4 29 -58q80 80 82 193q-33 -6 -150 -12 q-10 -14 -24 -15q-4 0 -62.5 34t-79.5 34q-18 0 -36.5 -16.5t-18.5 -36.5zM256 436q0 -59 43 -133q31 -8 88 -27q10 -4 29.5 -25.5t29.5 -21.5q135 0 189 33q72 43 72 174q0 92 -58 164q-66 80 -168 80q-90 0 -157.5 -71.5t-67.5 -172.5zM383 -254q27 -47 84 -121 q12 8 37 35q18 23 31 23q12 0 12 -5.5t12 -5.5q23 0 46.5 40t23.5 63t-13 24q-16 -4 -145 -12q-78 -4 -88 -41zM551 840q18 -25 63 -121q0 14 19 29l33 -29v125q-6 6 -31 8q-23 2 -31 -6q-39 39 -43 39zM696 879q23 -25 49 -91q25 -57 56 -79q10 31 47 30q12 0 22.5 -10 t22.5 -10q14 0 18 5t9 5q0 53 20 182q-61 33 -131 33q-18 -12 -90 -35q-23 -8 -23 -30z" />
<glyph unicode="h" horiz-adv-x="1040" d="M14 -2v1522q32 32 42 32h1q47 0 62 -4q55 -16 145 -16l23 18v-667q74 39 92 39q10 0 27.5 -19.5t29.5 -19.5t57.5 10t57.5 10q133 0 229 -74q20 -14 60.5 -100t40.5 -117v-614h-275v545q0 153 -147 153h-2q-61 0 -68 -39q-8 -55 -14 -108q-16 14 -31 57q-4 -18 -8 -57 t-10 -60l-23 19q-14 14 -14 -8v-502h-275zM25 1520q16 -72 43 -203q12 33 38 78q35 -23 52 -80l20 -78q0 57 27 80l20 -21q31 35 39 111q9 58 15 115q-27 -8 -58 -9q-39 0 -80 14.5t-35 14.5q-47 0 -81 -22zM281 510q4 0 6 4t19.5 4t19.5 37q4 47 18 61q10 -18 31 -53 q6 51 24 162q19 99 19 109q0 18 -13.5 45.5t-31.5 33.5q-12 -12 -41 -21t-33 -11q-18 -266 -18 -371z" />
<glyph unicode="i" horiz-adv-x="538" d="M-39 1225q0 49 64.5 107.5t124.5 58.5q76 0 136 -54.5t60 -111.5q0 -66 -59.5 -107t-132.5 -41q-84 0 -138.5 44t-54.5 104zM-2 2v893q23 -3 60 -3q18 0 40 1l79 4h-1q111 0 135 -39v-856h-313zM8 829q63 -51 94 -102l25 18q8 -6 8 -34l25 16q35 -29 30 -43q29 16 70 65 t41 82q0 12 -6 27.5t-6 20.5h-281v-50zM76 1346q0 -12 16 -39q18 -33 23 -41q0 39 20 53q27 -39 60 -98q2 6 22 49q16 33 16 43v67h-145q0 -8 -6 -15t-6 -19z" />
<glyph unicode="j" horiz-adv-x="962" d="M-145 -82q8 10 7 41t2 41t32 10q35 0 100 -18q51 -12 61 -19q33 -20 95 -53q14 -35 45 -86q39 -57 57 -63q78 -6 246 -27l12 1098q127 10 262 22q37 -24 37 -55l-10 -999q4 14 4 16v2q4 0 -47 -72q-59 -82 -129 -131q-97 -71 -206 -71h-3q-63 0 -131 24q-113 41 -211 109 q-127 86 -168 178q-2 4 -35 20q-18 23 -20 33zM-133 -96q16 4 61 -8q25 -12 17 -25q2 4 28 8l33 -43q47 6 94 14q58 8 66 33q4 10 0 19q-4 8 -4 10q-90 41 -205 90q-25 8 -44 8q-23 0 -38 -12q6 -18 6 -37q0 -28 -14 -57zM233 -272q-1 -3 -1 -6q0 -10 8 -22q12 -17 26 -22 l23 -22q2 4 39 16l26 -32q6 0 24.5 1t24.5 3q8 -14 25 -39q72 98 72 134v5q-41 8 -131 8q-80 0 -123 12zM514 1098q0 86 57 123q16 10 84 10q76 0 127 -33q41 -27 41 -65q0 -8 -2 -25t-2 -25q0 -102 -145 -102q-160 0 -160 117zM524 795q-2 -10 17.5 -28.5t23.5 -25.5 q8 -18 11.5 -59t9.5 -59q18 18 69 43q35 -20 70 -97q76 179 76 240q0 16 -27 47q-163 -14 -163 -16h3q-55 0 -90 16v-61zM535 1161q66 -31 86 -69q10 8 28 8q35 0 53 -31q10 16 52 57q34 33 34 43q0 27 -51 43q-41 12 -82 13q-98 0 -120 -64z" />
<glyph unicode="k" horiz-adv-x="1093" d="M49 0v1493q27 33 43 33q12 0 9 -5t10 -5q10 0 20 19t29 19q49 0 110 -32q72 -39 72 -88q0 -20 -14 -41l8 -727q18 18 37 18q10 0 32.5 -9t34.5 -9q2 0 138 151q18 31 53 86q115 4 176 4q8 0 49 -11t68 -13q16 -8 43 -27q0 -35 -7 -58l-8 -22q0 4 -20 25q-47 -37 -55 -96 q-4 4 -14.5 18t-16.5 18l-277 -264l426 -477h-354l-309 356v-356h-283zM57 1493q27 -88 82 -199l21 19q16 -12 34.5 -25.5t32 -13.5t6 -9.5t5.5 -9.5q10 0 28 19q4 -4 -2 -12q-2 -6 10 -7q16 0 37 80q17 70 17 99q0 45 -58.5 77.5t-109.5 32.5q-25 0 -103 -51zM328 598 q0 -10 12 -53t12 -64q41 64 82 183q-10 0 -29.5 5t-31.5 5q-45 0 -45 -76zM608 852q14 -4 47 -22.5t45 -18.5q16 0 33 9t25 9q49 0 69 -45q20 -27 50 -69q-6 16 15 55t40 41l22 -20v65q-49 20 -147 33q-70 8 -174 8q-6 0 -13.5 -20.5t-11.5 -24.5z" />
<glyph unicode="l" horiz-adv-x="485" d="M59 -8v1495q31 23 107 47q10 2 27 0q20 -6 28 -6q18 0 33 18q27 -20 72 -59v-1495h-267zM68 1448q0 -41 71 -191q10 31 39 78q14 -18 25 -18q18 -90 22 -98q14 -49 51 -66q41 237 41 311q0 23 -61 72q-63 -14 -188 -49v-39z" />
<glyph unicode="m" horiz-adv-x="1472" d="M84 2v860q0 18 39 58q20 -16 41 -17q10 0 27.5 13.5t27.5 13.5t35 -10.5t37 -12.5q16 -10 43 -57q14 23 45 22q25 0 49 -2q18 2 63.5 13.5t57.5 11.5t68.5 -18.5t66.5 -18.5t52 22.5t55 22.5q31 0 45 -29l16 -40q170 96 192 96q10 0 31 -17q27 -23 33 -26q31 -10 86 -31 q39 -16 80 -111q37 -84 37 -127v-616h-244v545q0 61 -28.5 107t-86.5 46q-70 0 -106 -69q-27 -51 -27 -109v-520h-244v553q0 61 -31.5 103t-86.5 42q-68 0 -103 -65q-25 -49 -24 -113v-520h-246zM102 891q6 -63 29 -178q4 -14 25 -54q18 -31 18 -45q43 33 119 72q0 25 9 75 t9 58q0 59 -18 80q-14 2 -39 11.5t-35 9.5t-27.5 -12.5t-27.5 -12.5q-27 0 -39 16zM336 768q6 -29 6 -41q20 29 39 55q27 40 27 54v30h-50q-28 -26 -28 -57q0 -12 6 -41zM698 866q14 -35 42 -108.5t40 -108.5q66 109 66 148q0 98 -55 98q-10 0 -45 -15.5t-48 -13.5zM987 891 q12 -20 76 -84q29 58 29 70q0 43 -48 43q-33 0 -57 -29z" />
<glyph unicode="n" horiz-adv-x="964" d="M33 2v877q0 14 7 17t15 7q18 -18 43 -18q12 0 66.5 9t64.5 9t24.5 -21.5t29.5 -21.5q12 0 10 4t8 4q8 0 35 -26q68 53 174 53q109 0 178 -49q43 -31 70 -86q47 -96 47 -150v-608h-246v545q0 61 -33.5 103t-97.5 42q-76 0 -117 -61q-33 -51 -32 -117v-512h-246zM43 893 q18 -74 45 -201l27 27q20 -43 18 -53q0 10 10 8q0 8 1 18t14 10q27 -39 30 -71q20 25 42 105.5t22 123.5q0 10 -21 35q-25 0 -75 -9t-58 -9q-18 0 -55 16zM289 719q43 82 43 100q0 39 -43 39v-139z" />
<glyph unicode="o" horiz-adv-x="1038" d="M6 444q0 129 60 238q76 135 229 192q43 18 84 35q59 25 74 25q8 0 38.5 -18.5t49.5 -22.5q358 -87 358 -449q0 -193 -126 -323.5t-320 -130.5q-209 0 -332 133q-115 123 -115 321zM250 444q0 -37 16 -94q23 -70 47 -74q28 2 63.5 2t80.5 -2q111 -8 137 -8q61 104 61 176 q0 59 -28 123q-35 72 -84 93.5t-58 21.5h-36q4 -35 -7 -43q-6 2 -21 18.5t-26 16.5q-63 0 -108 -96q-37 -78 -37 -134zM293 248q0 -37 18 -84q2 0 5 4t16 4q12 0 33 -39q27 -47 36 -57q12 43 41 61q37 -55 43 -86h29q20 76 43 113l16 -19q20 18 21 64q-1 45 -19 57 q-35 -8 -83 -8q-12 0 -46 9t-45 9q-47 0 -108 -28zM328 889q41 -119 108 -236q-3 16 -3 33q0 57 38 109q23 -23 35 -52q0 4 16 37q3 29 3 54q0 43 -9 73q-8 0 -30.5 9.5t-32.5 9.5t-58 -17q-53 -18 -67 -20z" />
<glyph unicode="p" horiz-adv-x="1118" d="M39 -414v1213q0 63 21.5 86.5t84.5 23.5q66 0 152 -26q6 -25 20 -86q37 47 115 77q70 27 139 27q188 0 312 -145q108 -129 108 -299q0 -190 -114 -320q-121 -135 -310 -135q-162 0 -252 104v-520h-276zM47 791q0 -12 19 -56q20 -55 24 -67q4 -37 19 -99q25 49 67 170 q33 -23 74 -75q16 29 39 79q13 38 13 91q0 14 -1 28q-82 39 -156 39q-25 0 -88 -22q0 -14 -5 -46t-5 -42zM283 451q0 -18 12 -62q16 -55 18 -65q127 28 145 28h1q12 0 25 -13l14 -13q23 -4 82 -19q51 -12 63 -12q41 0 66 57q18 48 18 99q0 94 -59 163q-66 78 -168 78 q-94 0 -155.5 -74.5t-61.5 -166.5zM322 262q0 -66 32 -108q18 18 29 18q12 0 49 -31q49 -41 55 -45l37 39q10 -10 22.5 -28.5t14.5 -20.5q35 39 57 39q23 0 21 -8q31 112 31 114v54q-39 0 -172 30q-12 2 -21.5 14.5t-17.5 12.5q-39 0 -137 -31v-49z" />
<glyph unicode="q" horiz-adv-x="1103" d="M-10 449q0 -190 116 -320q121 -135 310 -135q162 0 250 104v-518h278v1213q0 63 -21.5 85.5t-84.5 22.5q-66 0 -152 -27q-4 -25 -20 -86q-37 49 -115 78q-70 27 -139 27q-190 0 -312 -145q-110 -129 -110 -299zM256 444q0 94 57 164q66 76 168 76q94 0 160 -76 q59 -74 59 -164q0 -20 -12 -63q-16 -59 -18 -64q-154 27 -146 27q-12 0 -26 -14l-13 -13q-23 -4 -82 -18q-51 -12 -63 -12q-41 0 -66 57q-18 47 -18 100zM313 225v51q45 0 172 33q12 2 20.5 13.5t18.5 11.5q47 0 138 -29v-49q0 -63 -33 -111q-14 18 -29 19q-14 0 -49 -31 q-29 -23 -55 -45l-37 39q-10 -10 -23.5 -27.5t-15.5 -19.5q-29 37 -55 37q-23 0 -23 -8q-2 8 -18 63q-13 41 -11 53zM682 854q80 39 156 39q31 0 88 -21q0 -14 5 -45.5t5 -42.5q0 -14 -18 -57q-20 -53 -25 -68q-4 -37 -19 -98q-33 66 -67 170q-33 -23 -74 -76q-16 29 -35 81 q-17 43 -17 96q0 11 1 22z" />
<glyph unicode="r" horiz-adv-x="657" d="M0 0v858q33 37 150 37q61 0 75 -31q6 -12 21 -108q80 121 205 121q35 -1 98 -19q-6 -86 -27 -229q-51 24 -96 24h-4q-92 0 -141 -65q-41 -57 -41 -135v-453h-240zM6 848q37 -137 66 -203q16 18 51 43q8 -18 8 -43q16 47 43 68q16 -12 16 -33q6 18 19 43l20 -18v153 q-37 29 -79 29q-27 0 -72 -10q-59 -12 -72 -29z" />
<glyph unicode="s" horiz-adv-x="765" d="M8 125l115 141q60 -67 79 -67h1q12 0 58 12t56 12t26.5 -8t25.5 -8q23 23 22 55q0 55 -86 92q-139 61 -160 78q-86 61 -86 178q0 172 158 256q70 37 100 37q41 0 156 -53q92 -41 121 -62q-35 -45 -105 -131q-72 51 -120 52q-35 0 -57.5 -22.5t-22.5 -51.5q0 -35 88 -76 q123 -59 164 -94q88 -73 88 -182q0 -141 -105 -226q-91 -71 -216 -71h-3q-166 0 -297 139zM186 147q0 -12 17 -41q18 -35 20 -45q10 14 53 52q33 -33 35 -33q16 16 31 16q33 -33 31 -33q17 45 17 115q0 14 -1 29q-14 -8 -41 0q-33 8 -31 8q-49 0 -118 -31q-12 -25 -13 -37z M229 858q35 -39 60 -39h2l26 -26q27 20 54.5 40.5t25.5 43.5q-12 0 -40.5 9t-39.5 9q-12 0 -43 -14q-37 -20 -45 -23z" />
<glyph unicode="t" horiz-adv-x="645" d="M18 672v213q29 14 56 28q33 23 32 50v66q0 151 -8 159q4 0 39 26q8 2 51 13q37 10 50 10q59 0 120 -57v-234q45 -23 70 -59q14 -2 82 -2v-213h-148v-674h-253v666q-27 8 -91 8zM45 854q0 -6 4 -35q2 -23 0 -41q2 25 6 37q8 23 29 35q10 -12 10 -45q0 25 5 67t5 58 q-59 -35 -59 -76zM117 1188q23 -72 47 -191l9 -15t24 -15q25 0 24 0q0 41 17 53q18 -20 45 -62q0 6 16 27l20 -18q-1 18 -1 35q0 80 16 139q14 19 14 39q-74 47 -110 47q-53 0 -121 -39zM369 920q10 -126 12 -126v3q31 100 31 94q0 29 -43 29z" />
<glyph unicode="u" horiz-adv-x="921" d="M31 299v578q4 2 26 22q18 14 29 14q4 0 59.5 -8t81.5 -8q10 0 25.5 -12.5t15.5 -26.5v-516q6 -6 21 -6q16 0 29.5 17.5t21.5 17.5q88 0 186 -60q12 12 13 31v526q16 14 47 37q10 -12 26 -35q47 8 127 43q2 -6 23 -26q14 -16 14 -29v-561q0 -47 -39 -121q-31 -63 -51 -82 q-100 -96 -283 -96q-10 0 -53 4q-51 4 -69 6q-90 6 -170 102.5t-80 188.5zM39 848q14 -31 28.5 -64.5t45.5 -48.5q0 10 14 25q16 -33 16 -41l35 33q8 -8 8 -25q25 37 54 45q10 4 10 51q0 43 -19 72q-31 -10 -53 -10q-20 0 -48 10t-44 10q-12 0 -27.5 -13t-19.5 -13v-31z M268 272q0 -35 35 -120q25 -23 51 -70q10 4 27 16q8 -6 16.5 -19t12.5 -11q0 8 14 22q24 -24 36 -24h1q29 41 57 79q21 31 21 64q0 61 -21 98q-125 55 -178 55q-12 0 -33.5 -18t-30.5 -18q0 -8 -4 -25.5t-4 -28.5zM547 866q88 -94 88 -139l18 16l17 -16l32 33q14 -23 11 -37 q4 16 25.5 57t21.5 51q0 12 -10.5 38t-10.5 34q-102 -41 -121 -41q-12 0 -20 15q-6 8 -12 18q-4 -4 -19.5 -14.5t-19.5 -14.5z" />
<glyph unicode="v" horiz-adv-x="962" d="M12 842q18 20 54 53q49 -33 84 -33q10 0 29.5 8.5t27.5 8.5q51 0 112 -162q72 -184 84 -197q23 -23 76 -57q43 86 70 172q39 125 80 217q6 12 30.5 27.5t36.5 15.5q2 0 60 -8q38 -5 61 -5q8 0 14 1q15 -16 46 -41q-125 -281 -375 -844h-115q-33 74 -375 844zM29 842 q31 -43 86 -121l18 16q4 -4 8 -16t9 -16q8 23 32 57q35 -35 33 -49q37 73 37 98q0 59 -45 59q-8 0 -27.5 -8t-29.5 -8q-35 0 -84 33q-14 -18 -37 -45zM385 276q0 -39 20.5 -98t43.5 -80l20 19q0 55 12.5 162.5t12.5 109.5q0 86 -91 115q-18 -166 -18 -228zM635 852 q10 -51 45 -139l16 16q16 -16 29 -16q0 18 14 32q12 -16 33 -40q20 8 49 56t29 73q0 27 -19 45q-20 -4 -59 2q-47 6 -49 6q-33 0 -88 -35z" />
<glyph unicode="w" horiz-adv-x="1536" d="M82 842q20 2 98 20q70 14 78 15q10 0 74 -46q29 -80 63 -180q35 -92 103 -276q33 78 100 235q10 41 55 146q61 137 99 137q37 0 73 -82q20 -51 39 -102q94 -236 144 -351q59 168 172 482q100 45 157 45q4 0 44.5 -20.5t50.5 -30.5q-2 -12 -13.5 -68.5t-17.5 -95.5 q-20 -35 -39 -68q-29 -47 -41 -47q-10 0 -8 6q4 6 0 10l-262 -573h-111l-172 491q-55 -119 -201 -491h-114zM139 842q20 -72 70 -170q4 16 24 49q16 -16 23 -16v-25q10 0 27 16q18 -39 18 -41q4 18 21 70q14 43 14 53q0 27 -23.5 58.5t-54.5 31.5q-12 0 -119 -26zM700 860 q0 -106 27 -213l16 17q20 -18 15 -41q8 8 22 8q16 51 16 126q0 54 -8 120q-2 0 -13 4t-23 4t-27 -11q-20 -12 -25 -14zM1186 834q8 -57 24 -160q16 -18 35 -62q-6 16 6.5 31.5t26.5 20.5q18 -37 18 -54q0 6 15 21q6 -16 18 -51q29 37 66 102q16 54 28 152q-43 43 -86 43 q-23 0 -151 -43z" />
<glyph unicode="x" horiz-adv-x="1079" d="M0 -2l350 446l-274 367v45q19 -3 53 -3q17 0 37 1q74 3 74 4h-2q45 0 110 -20q63 -106 82 -107q8 0 16.5 5t20.5 5q37 0 88 -51q61 115 96 146q42 38 127 38h4q-6 0 127 -26q0 -2 5.5 -16.5t5.5 -24.5q0 -8 -21.5 -42t-24.5 -48q-63 -39 -129 -127l-110 -148l342 -444 h-289l-207 283l-192 -283h-289zM84 834q35 -41 113 -119q16 16 24 16t25 -16l16 16l25 -24q18 8 43 24q8 -8 8 -16l12 125q-14 1 -42 1q-69 0 -224 -7zM418 682q0 -61 61 -176q8 4 49 45q23 28 23 102q0 25 -26.5 51.5t-57.5 26.5q-49 0 -49 -49zM643 805q0 -23 18.5 -78 t28.5 -61q12 35 49 75q16 -37 17 -59q10 31 35 49q14 -14 22 -14v-43q98 115 98 133q0 12 -5 21.5t-5 11.5q-120 24 -120 26h1q-18 0 -70.5 -12t-68.5 -23v-26z" />
<glyph unicode="y" horiz-adv-x="1304" d="M0 791q12 37 47 57h4q19 0 59 14q46 17 58 17q94 0 164 -62q51 -106 149 -321q45 -33 89 -66t67 -86q80 158 248 475q125 37 182 37q27 0 86 -22q68 -25 68 -48q0 -14 -25 -41.5t-27 -35.5q-39 -113 -53 -217q1 4 1 9q0 26 -21 62l-664 -1243h-334l348 664zM10 797 q47 -35 94 -68q51 -42 51 -79q0 -5 -1 -9l47 8q22 0 22 -60v-5q0 6 19.5 12t23.5 10q6 -4 18.5 -20.5t16.5 -22.5q25 180 25 240v8q-57 57 -158 57q-6 0 -56 -17q-40 -14 -58 -14q-4 0 -7 1q-12 -14 -37 -41zM492 264q0 -14 14 -76q18 -76 22 -94q0 8 21 33q23 -49 20 -61 q74 162 74 225q0 53 -59 115q-47 49 -92 69v-211zM872 694q0 -37 60 -241q18 45 55 129q18 14 62 34q23 -38 23 -57q0 -3 -1 -6l25 20q20 -20 20 -43q12 61 41 179q2 8 27.5 35.5t25.5 41.5q0 25 -14 27q-137 33 -129 33q4 0 -184 -35q0 -16 -5.5 -60t-5.5 -57z" />
<glyph unicode="z" horiz-adv-x="897" d="M16 0l398 594h-289q-8 -10 -8 -47q-4 4 -18.5 17.5t-18.5 17.5v211q127 57 334 57q104 0 364 -49q0 -14 4 -49t4 -45q0 -31 -26 -31l-27 -25q0 12 -14 23l-297 -424q139 -18 172 -25q92 -16 160 -37v-188h-738zM88 592q0 -8 21 -29q0 39 29.5 88t62.5 56q25 -18 57 -64 l16 16q23 -10 39 -32q49 45 136 127q25 -20 38 -64q16 16 25 17q10 0 29.5 -32t27.5 -32q10 0 8 4t7 4q14 0 41 -47q0 25 22 47l25 -24q12 25 47 55l20 -14q39 21 39 39q0 10 -4 41.5t-4 44.5q-238 49 -356 49q-68 0 -183.5 -17.5t-142.5 -31.5v-201zM381 145q31 -16 61 -49 q53 0 84 -47q33 -4 33 -26l16 16q8 -8 19 -8q8 53 45 63q25 -25 25 -31q23 41 38 48q4 -2 9.5 -13.5t9.5 -11.5l18 18v84q-18 2 -125 25q-84 18 -125 18q-2 2 -3 8.5t-13 6.5q-47 0 -63 -25q-2 -4 -29 -76z" />
<glyph unicode="{" horiz-adv-x="759" d="M2 408v344q6 2 107 45q53 23 79 53v524q0 45 48 107q37 45 65 63q39 14 119 47q10 14 41 43q43 -4 131 0q111 4 98 4q31 0 64 -32v-254q-109 0 -125 -2q-113 -16 -113 -84v-518q0 -119 -209 -168q45 -2 127 -19q53 -18 70 -59q20 -53 20 -121q0 -27 -4 -68t-4 -51v-336 l16 -18l19 20q25 -14 203 -92v-246h-320q-72 0 -155 76q-90 78 -91 150v493q0 51 -86 80q-66 23 -100 19zM10 741q0 -27 6.5 -84t6.5 -82q31 16 61 50q23 -23 41 -70q6 41 27.5 129t25.5 127h-45l-31 -29q-72 -14 -92 -41zM397 510q37 -84 115 -203v43q0 16 -4 58 q-4 49 -4 63q-6 10 -10 31q-47 55 -84 51zM428 1559q0 -49 43 -138q20 -43 47 -51l23 -20l20 20q20 -20 31 -20q14 0 22 20l7 19l30 -29q20 20 33 20q0 35 14 82q10 16 23 21q2 18 13 44t11 36v43q-45 23 -55 22q12 0 -98 -4q-88 -4 -131 0q-33 -25 -33 -65zM516 -156 q0 -23 29.5 -93t46.5 -70l29 10l41 -41q23 27 45 55q38 49 38 80q0 51 -77 82q-106 43 -117 51q-35 -39 -35 -74z" />
<glyph unicode="|" horiz-adv-x="419" d="M25 -117v1778q117 66 170 65q45 0 118 -26q84 -29 95 -62v-1755h-383zM35 1624q80 -106 98 -106q12 0 9 5t12 5q23 0 57 -41l37 -33q25 53 61 53q12 0 13.5 -5t13.5 -5q18 0 37 51l22 -20v100q0 33 -88 62q-74 25 -112 24q-27 0 -160 -53v-37z" />
<glyph unicode="}" horiz-adv-x="782" d="M0 -156q16 18 56 41t59 23q12 0 19 -10.5t20 -10.5q12 0 25.5 10.5t25.5 10.5t15 4t7 10q6 227 -4 266q-4 18 -20 70q-14 41 -15 55q0 10 9 66q12 68 14 88q4 37 78 72l22 20q82 -14 133 14q-96 29 -131 50q-86 45 -86 120v512q0 23 -14 37q-8 -8 -8 -30 q-4 10 -16.5 35.5t-18.5 33.5q-8 0 -16.5 -11t-8.5 -17q-20 43 -65 40q-74 -2 -78 0v254q8 -2 38 15.5t41 21.5t83 4q76 0 110 -14q6 -12 19 -33q78 -8 162 -71q98 -74 98 -152v-483q35 -23 98 -82q53 -51 99 -68v-332q-35 4 -107 -18q-90 -29 -90 -76v-497q0 -78 -87 -150 t-155 -72h-311v254zM10 -156q14 -43 43 -112q37 -43 80 -111l62 117q16 -17 30 -17q-4 68 -20 177q-41 -20 -51 -21q-12 0 -19.5 10.5t-19.5 10.5q-23 0 -105 -54zM31 1597q6 -70 35 -147q35 -94 79 -127q0 18 27 18q12 -14 33 -38q12 33 61 143q41 88 41 102q0 80 -143 80 q-98 0 -133 -31zM199 313q0 -35 24 -94q-2 16 -2 33q0 66 48 162t44 135l-24 -21q-49 -14 -60 -41q-31 -115 -30 -174zM555 793q0 4 33 -154l20 20q31 -31 29 -49q39 35 94 90v35q-39 23 -90 66q-61 49 -86 65v-73z" />
<glyph unicode="~" horiz-adv-x="724" d="M119 1458q0 29 80 103q16 16 67 30q12 2 41 2q10 0 70.5 -18.5t68.5 -18.5q4 0 53.5 11.5t63.5 11.5q68 0 101 -10q43 -18 47 -19q10 0 23.5 19.5t17.5 23.5q6 -35 32 -137q21 -84 21 -94q0 -18 -64.5 -70.5t-85.5 -54.5q-12 -2 -41 -2q-63 0 -149 51t-158 51 q-78 0 -135 -102q-8 37 -33 133q-20 82 -20 90zM446 1509q0 -10 37 -53q45 -53 56 -67l14 14q8 -12 22 -37q6 16 29 45q12 -14 29 -45q4 4 15 11t16 12q14 -18 14 -29q33 98 33 145q0 10 -4.5 23.5t-4.5 19.5q-68 23 -139 23q-35 0 -108 -17q0 -6 -4.5 -21t-4.5 -24z" />
<glyph unicode="&#xa0;" />
<glyph unicode="&#xa1;" horiz-adv-x="618" d="M127 121q-6 -39 35 -76q35 -33 76 -41q-31 -4 -72 32t-39 85zM150 184v209q4 -125 16 -176q12 0 35 33q2 16 2 160v888h266v-1001q6 -4 21.5 -17.5t19.5 -19.5q-18 18 -31 19q-20 -82 -39 -164q-23 102 -59 161l-72 -43q27 25 27 78q0 51 -25 70q-33 -8 -32 -68 q0 -12 4 -57q4 -35 0 -47q-8 0 -33 -7t-41 -7t-12 14q4 16 0 20zM205 1382v252h264v-252h-264zM238 14q88 31 110 31q18 0 39 -15.5t31 -15.5q-10 0 -42 9.5t-46 9.5t-48 -9.5t-44 -9.5zM238 158q14 0 49 -15q43 -18 55 -22q-10 -4 -25 -4q-50 0 -79 41zM426 16v21h43v-21 h-43zM471 37q84 39 84 133q0 31 -12 53q12 -16 12 -55q0 -94 -84 -131z" />
<glyph unicode="&#xa2;" horiz-adv-x="864" d="M0 436q0 154 74 285q98 174 297 240q14 4 55 55q2 39 4 102q4 49 23 74l106 -14q31 -25 31 -80v-28.5v-29.5q0 -39 10 -63q49 33 111 33q33 0 96 -43q-14 -109 -2 -224h-203v-575q4 2 27 20q18 12 30 13q47 0 138 -45v-252h-201q-10 -74 0 -185h-166v175 q-221 10 -340 206q-90 152 -90 336zM287 440q0 -80 22 -125q8 -14 29 -20q10 -4 22 -6q20 -14 40 -43t26 -35v500q-70 -41 -109 -129q-31 -74 -30 -142zM338 281q10 -31 32.5 -96.5t32.5 -96.5q27 53 27 76q0 31 -37 72q-33 35 -55 45zM379 942l27 -24q0 10 10 39.5t10 39.5 q-18 -16 -47 -55zM440 1182q23 -158 23 -131q20 20 33 20q10 0 51 -41q20 14 22 72q2 51 -10 69q-23 0 -64.5 5.5t-54.5 5.5zM573 133q23 -23 57 -55.5t42 -40.5q16 43 37 51q14 -59 45 -72q9 50 32 140q-10 2 -69 20q-41 14 -58 14q-29 0 -86 -57zM604 975q6 -20 33 -64.5 t31 -64.5l22 20q43 -43 41 -61q6 20 36 61.5t30 53.5v45q-10 4 -45 20q-27 14 -41 14q-33 0 -107 -24z" />
<glyph unicode="&#xa9;" horiz-adv-x="1554" d="M254 627q0 197 117 356q131 180 362 231q8 12 23 27q14 0 69 6q47 4 58 4q29 0 69 -16q33 -14 66 -27q229 -82 344 -250q98 -145 98 -331q0 -250 -176 -427t-428 -177q-250 0 -426 177t-176 427zM352 627q0 -68 8 -109q16 -80 62 -151q23 -35 82 -107q10 -10 94 -63.5 t98 -53.5q10 0 23.5 8.5t15.5 8.5q47 0 113.5 3t69.5 3q10 0 45.5 -11.5t44.5 -11.5q96 0 225 154q125 147 117 223q-2 23 4 64t6 43q0 131 -68 250q-76 133 -215 202q-86 43 -123 43q-10 0 -18 -12l-12 -18q-20 12 -35 32q-6 6 -37 6q-27 0 -55 -30q-20 23 -31 22 q-121 0 -258 -138t-148 -251q-8 -90 -8 -106zM541 606q0 53 24 240q4 35 43 82t80 55q29 4 76 18q59 45 74 46q31 0 147 -25q20 -4 73.5 -43t71.5 -70q64 -104 64 -135q0 -53 -117 -53q-55 0 -78 10q-12 55 -57 90q-39 29 -82 29q-143 0 -143 -236q0 -80 8 -100 q12 -33 70.5 -68.5t91.5 -35.5q10 0 39 20q39 27 49 33q14 33 48 61.5t56 28.5q12 0 99 -25q-68 -170 -117 -225q-70 -76 -197 -76q-166 0 -252 123q-72 102 -71 256zM571 821l43 -207q10 68 21 134q20 92 70 133q6 -6 6 -23q12 8 32 23q16 -20 13 -45q70 74 106 90 q14 -14 15 -31q25 18 61 39q12 -25 39 -62q8 0 24.5 10.5t20.5 12.5q20 -20 22 -47v-35q27 0 60 -18q41 -23 45 -52h29q0 2 4 10.5t4 20.5q0 47 -83 142.5t-118 93.5q-23 4 -86 16q-55 12 -61 12l-48 -26q-47 -27 -102 -37q-35 -6 -82 -65.5t-35 -88.5zM694 133 q31 -57 64 -72q14 16 45 37q18 -10 45 -37l24 23q27 -10 46 -47q12 33 22 39q8 -6 23 -31q34 49 34 72q0 20 -10 35q-12 0 -36.5 4t-32.5 4q-164 0 -224 -27zM717 422q0 -25 18 -43q25 25 29 24q35 -61 47 -114q27 53 53 67q8 -10 23 -30l51 51q39 34 33 69q-59 -45 -84 -45 q-31 0 -80 31q-37 23 -74 45q-16 -39 -16 -55zM748 1219q4 -25 8 -62q31 -18 39 -49q6 12 13 39t11 37q14 -8 107 -76q6 8 6 30.5t22 37.5q23 -20 39 -46q0 16 2 50v47q-20 0 -63 8t-49 8q-96 0 -135 -24zM1034 510q25 -4 37 -43q6 -25 12 -49q53 51 80 102q-74 27 -84 27 q-29 0 -45 -37z" />
<glyph unicode="&#xab;" horiz-adv-x="770" d="M-2 387q45 123 125 379q14 14 22 20q8 0 42 8.5t44 8.5t37 -12q35 -16 39 -19q0 -29 -10 -59q-41 -111 -119 -336l129 -375h-178zM129 764q4 -14 15.5 -48t13.5 -48q4 0 30 20q14 -33 29 -78q25 31 50.5 65.5t25.5 65.5q0 20 -4 29q-39 27 -58 27q-37 0 -102 -33z M313 387q0 4 49 148q55 166 76 237q41 31 74 31t111 -39l-129 -387l129 -375h-170q-139 346 -140 385zM442 764q59 -59 45 -102q10 0 29 -8.5t25 -8.5l37 37q18 31 30 84q-61 31 -96 31t-70 -33z" />
<glyph unicode="&#xad;" horiz-adv-x="884" d="M143 578v114q0 6 4 68q2 70 5 96q14 23 45 23q8 0 32.5 -3.5t30.5 -3.5t15.5 6.5t17.5 6.5t36.5 -16.5t41.5 -16.5q115 -6 262 -6q8 0 35 28q6 6 20 5q18 -2 25 0h-29q-12 -10 -27 -29q-6 -10 -24 -10q-74 0 -62 2q35 -129 86 -129q8 0 7.5 3t5.5 3q8 0 17 -11.5 t16.5 -13.5t27 -8t27.5 -6t17 6t11 6q4 -2 10.5 -11t8.5 -13q43 12 51 57l4 84q0 29 6 47q-18 6 -135 25q12 -8 59.5 -7.5t65.5 -5.5q35 -6 35 -24v-266h-748zM150 598h67q2 4 27 86q14 51 55 72q6 -6 6 -13q-6 25 10.5 55.5t32.5 57.5q-33 23 -55 23q-8 0 -20.5 -3.5 t-18.5 -3.5q-59 0 -98 -14q0 -14 -3 -40.5t-3 -33.5v-186z" />
<glyph unicode="&#xae;" horiz-adv-x="1568" d="M270 621q0 195 113 350q129 176 356 225q12 2 56 21q35 16 53 16q10 0 38.5 -13.5t47.5 -15.5q254 -41 395 -229q119 -159 119 -354q0 -219 -145 -385q-160 -182 -420 -205q-8 -10 -25 -27q0 12 -22 27q-262 23 -420 205q-145 166 -146 385zM367 621q0 -63 8 -103 q16 -80 61 -149q29 -43 80 -103q10 -10 91 -62t95 -52q10 0 69.5 11t68.5 11q25 0 106 -10q8 0 22.5 -10.5t22.5 -10.5q68 0 190 108.5t138 190.5q10 29 22 76q11 93 11 103q0 209 -143.5 351t-350.5 142t-349 -142.5t-142 -350.5zM596 977q0 18 30.5 36.5t47.5 18.5 q10 0 26.5 -7t24.5 -7t15.5 3t17.5 3t80.5 -21.5t79.5 -21.5q8 0 34.5 3t38.5 3q82 0 60 2q39 -4 67 -43q23 -31 41 -98q15 -55 15 -78q0 -27 -17 -76q-20 -59 -43 -65q8 -6 19 -21q10 -59 20 -254q0 -6 10.5 -20.5t10.5 -22.5v-41h-156q-12 154 -33 232q-2 12 -18.5 23.5 t-26.5 11.5h-156v-267h-166v668q0 10 -11 20.5t-11 18.5zM604 958q37 -25 70 -59q39 51 84 51q47 0 57 -51q14 -78 21 -88q8 6 18 8v111q25 -4 40 -10.5t24 -6.5q10 0 16 7.5t14 7.5q10 0 29.5 -10.5t28.5 -10.5q10 0 18 3t16 3q10 0 28.5 -11t27.5 -11q10 0 16 4t8 4v27 q-49 55 -135 55q-12 0 -37.5 -4t-34.5 -4q-8 0 -76.5 22.5t-78.5 22.5t-17.5 -4t-15.5 -4t-24.5 7t-26.5 7q-16 0 -70 -29v-37zM692 141q27 -27 76 -69l18 -17l8 4q7 4 17 4q14 0 47 -45q14 23 45 60l23 -23l28 29l23 -21q18 52 18 72q-70 31 -155 31q-12 0 -148 -25z M780 690q10 -29 39 -80h27q8 20 28 52q33 -14 44 -15q12 0 41.5 23t33.5 43q-23 -20 -112 -21q-8 0 -26.5 7.5t-29.5 7.5q-2 0 -45 -17zM782 707h25q12 4 41 0q33 -8 37 -9q8 0 44 5.5t50 5.5q23 22 31 28q16 102 -103 103q-10 0 -33 -15q-29 -18 -36 -22q-8 8 -13.5 20.5 t-9.5 16.5h-33v-133zM788 1206q25 -31 64 -78l20 23l23 -23q14 14 25 9q0 8 8 29.5t8 27.5q-27 31 -88 31q-27 0 -60 -19zM1092 590l34 -31q0 6 -4 28.5t-4 30.5q-2 -2 -14 -13t-12 -15z" />
<glyph unicode="&#xb0;" horiz-adv-x="690" d="M41 1362q0 86 53 162q25 18 78 61q14 18 53 53q6 4 31 4q51 0 94 -10q20 -20 60 -55q118 -82 118 -211q0 -109 -71.5 -178.5t-167.5 -69.5q-111 0 -179.5 73t-68.5 171zM127 1366q0 -57 39 -109q47 -59 119 -59q57 0 106 47t49 121q0 72 -47 123q-4 -10 -22 -43 q-14 6 -43 -8q-39 43 -66 43q-8 0 -11 -3t-13 -3q-8 0 -25 36q-86 -43 -86 -145zM195 1612q4 -29 45 -129q8 6 22 6q31 0 66 -43q39 16 43 16q26 45 26 74q0 98 -141 98q-23 0 -61 -22z" />
<glyph unicode="&#xb2;" />
<glyph unicode="&#xb4;" />
<glyph unicode="&#xbb;" horiz-adv-x="778" d="M33 752q39 45 73 45q63 0 86 -22.5t62 -141.5q27 -84 82 -254l-127 -377h-174l125 377zM47 752q35 -25 96 -80q-2 12 21 35q16 -20 22 -21q0 6 11.5 17.5t11.5 19.5q0 -2 -10 39q-57 29 -93 29q-27 0 -59 -39zM344 2l127 377l-127 373q41 53 74 53q-10 0 71 -17 q12 -10 33 -22q39 -125 123 -377l-135 -387h-166zM358 752q20 -10 45 -50q12 -4 50 -26q29 -18 34 -19h39v54q0 -4 -10 47q-14 14 -27 22q-90 16 -71 17q-14 0 -35 -16.5t-25 -28.5z" />
<glyph unicode="&#xbf;" horiz-adv-x="1236" d="M90 598q0 184 115 279q104 63 211 127q115 78 114 223q0 16 -23.5 40.5t-43.5 35.5v346h395q-4 -145 -2 -238q0 -63 3 -100t3 -35q0 -10 -13 -25.5t-13 -21.5q4 -158 -66 -264q-70 -78 -137 -156q-74 -90 -74 -205q0 -172 78 -172q18 0 41 37q-2 0 59 6q20 45 23.5 106.5 t5.5 123.5h408v-500q0 -41 -70 -72q-53 -23 -78 -22q-12 0 -33 20q-76 -84 -99.5 -100.5t-72.5 -16.5q-10 0 -50 14.5t-52 14.5q-10 0 -57.5 -10t-59.5 -10q-31 0 -59.5 38.5t-50.5 38.5q-20 0 -56.5 -43t-46.5 -43q-16 0 -50 20.5t-49.5 41t-32.5 77t-32 76.5 q-37 25 -84 74q2 25 -4 74q-47 149 -47 221zM178 442q0 -92 33 -120q57 -51 102 -168q-2 6 -2 -48q0 -39 29 -53q31 10 78 33q14 10 20 39q4 16 47 16q39 0 72 -28q2 -14 14 -41q29 0 84.5 5t63.5 5q43 0 47 -2q47 -47 55 -47q66 0 92 33q12 31 27.5 62.5t56.5 31.5 q14 0 24.5 -9.5t20.5 -9.5q39 0 71 39t32 82t-19 84q-23 53 -61 64q10 45 27 143q53 76 53 84q0 14 -6 24.5t-6 12.5q-16 6 -48 0q-39 -6 -43 -6q-16 0 -28.5 9t-14.5 9q-8 -23 -34 -22q-35 -90 -35 -113q0 -12 7 -27.5t7 -17.5q0 6 11.5 8t15.5 6q8 -113 -64 -166l-8 45 q-4 10 -18.5 24.5t-14.5 18.5q-16 -51 -41 -137h-26q-35 18 -66 78q-27 47 -47 43q8 -29 -14 -88q-29 -72 -78 -72q-14 0 -70 43q-78 57 -90 66q-4 -70 -55 -70q-39 0 -51 27q-51 109 -52 125q0 6 12.5 93t12.5 126q-39 -74 -98 -131q-25 -25 -25 -103zM510 1335 q35 -102 68 -102q12 0 44.5 9t43.5 9q12 0 43.5 -9t44.5 -9q68 0 77 35q-18 53 -63 98q12 76 12 70q0 33 -22 51q-10 -12 -41 -12l-4 -62q-8 -41 -51 -63q-18 18 -62 47q-6 51 -16 69q-74 -100 -74 -131z" />
<glyph unicode="&#xc2;" />
<glyph unicode="&#xc5;" horiz-adv-x="2080" d="M2 -408v2044h1901v-2044h-1901zM8 -401h1888v2031h-1888v-2031zM211 668q0 6 4 26.5t4 32.5q33 -4 74 23.5t65 64.5q41 66 420 686h64q29 -119 63 -303q37 -205 99 -436q4 -16 29.5 -28.5t49.5 -6.5v-59h-389v57h68q43 2 43 39q0 27 -35 151h-268q-72 -102 -72 -139 q0 -31 43 -45q37 -10 68 -6q-4 -20 -17 -57h-313zM543 985h217l-55 262zM700 563q0 6 4.5 27.5t4.5 30.5h344v-50q-27 -6 -53.5 -15t-20.5 -50l57 -395l160 376q2 80 -70 80q-12 0 -26 -4q0 4 4 24.5t4 33.5h358q0 -10 -3 -31t-3 -27q-68 0 -82 -37l56 -401l161 385 q0 53 -82 53q0 10 4.5 30.5t4.5 27.5h262v-27q0 -23 -45 -45q-51 -29 -66 -62q-201 -438 -313 -708h-72l-80 549l-245 -549h-74q-10 68 -29 190q-23 188 -80 566q-4 16 -80 28zM1468 -176q0 84 61.5 143.5t145.5 59.5q86 0 150 -66q57 -61 57 -137q0 -88 -63.5 -145.5 t-143.5 -57.5q-86 0 -146.5 63.5t-60.5 139.5zM1497 -176q0 -72 52.5 -123t129.5 -51q61 0 116.5 50t55.5 124q0 63 -45 115q-51 57 -127 57q-74 0 -128 -50t-54 -122zM1567 -176q0 37 26.5 75t73.5 38q8 0 31.5 -11.5t32.5 -11.5q12 0 20 7t10 7q-2 -16 6 -80q-12 -2 -18 0 q-33 66 -70 66q-68 0 -67 -90q0 -82 71 -82q43 0 66 43l20 -10q-45 -57 -94 -58q-45 0 -76.5 32t-31.5 75z" />
<glyph unicode="&#xc7;" horiz-adv-x="2080" d="M2 -408v2044h1901v-2044h-1901zM207 668h315q4 23 17 59q-31 -6 -68 4q-47 14 -47 47q0 27 74 140h270q37 -137 37 -152q0 -37 -45 -39h-70v-59h393v59q-23 -6 -49 7.5t-30 29.5q-61 236 -99 438q-27 150 -65 307h-64q-139 -233 -422 -692q-25 -37 -61.5 -63.5 t-79.5 -26.5q0 -12 -3 -32.5t-3 -26.5zM539 987l163 264l56 -264h-219zM698 563q25 -4 51.5 -8t28.5 -20q20 -113 45 -291q31 -254 35 -279q12 -66 31 -192h72l247 553l82 -553h74q106 240 313 714q14 31 63.5 57.5t49.5 49.5v27h-264q0 -6 -4 -27t-4 -31q82 0 81 -55 l-161 -387l-58 405q16 37 82 37q0 6 4 26.5t4 31.5h-362q0 -12 -3 -33t-3 -27q14 4 28 4q70 0 68 -80l-162 -379l-57 400q-6 41 20.5 50t53.5 15v50h-346q0 -8 -4.5 -30t-4.5 -28zM1470 -182q0 -76 60 -137q63 -68 149 -68q76 0 142.5 58.5t66.5 146.5q0 80 -62.5 142.5 t-146.5 62.5q-78 0 -143.5 -60.5t-65.5 -144.5zM1501 -182q0 76 60 127q53 47 122 47q76 0 125.5 -55.5t49.5 -118.5q0 -72 -51.5 -123t-123.5 -51q-80 0 -133 59q-49 51 -49 115zM1571 -182q0 -43 32.5 -75t75.5 -32q52 1 97 58q-8 8 -21 10q-25 -45 -67 -45q-72 0 -72 84 q0 92 67 92q41 0 72 -66q6 -2 19 -2q-8 49 -9 80q-2 0 -10 -6t-18 -6q-8 0 -32 11t-32 11q-49 0 -78 -43q-25 -35 -24 -71z" />
<glyph unicode="&#xc9;" horiz-adv-x="2625" d="M-18 2v1022h2472v-1022h-2472zM-10 12h1272l-306 1004h-966v-1004zM8 20q0 10 4 33t4 35q94 -6 166 107q119 190 486 802h86q57 -270 190 -866q10 -43 76 -43q12 0 18 2v-70h-460v68h79q53 0 54 47q0 29 -43 178h-318q-86 -125 -86 -166q0 -37 55 -53q43 -12 78 -6 q-6 -25 -18 -68h-371zM399 395h256l-65 310zM1147 938q37 -4 53 -8q37 -10 41 -27q27 -127 53 -342l41 -323q14 -76 35 -218h86l291 639l94 -639h86q86 207 369 830q14 33 76 70q55 32 55 55v31h-309q0 -10 -4.5 -33t-4.5 -35q96 0 97 -64l-191 -454l-67 475q18 47 96 43 q0 10 4 32.5t4 35.5h-424q0 -12 -4 -35t-4 -33q20 4 33 4q84 0 82 -94l-193 -447l-67 469q-2 8 -2 21q0 31 32 43q29 6 58 14v58h-406l-5 -30t-5 -38zM2126 12h317v809l-184 -471q78 -2 128 -46t50 -120q0 -72 -44 -119t-116 -47q-80 0 -120 54q-4 -12 -31 -60zM2134 184 q0 -61 41 -104t102 -43t101.5 43t40.5 104q0 59 -41 102.5t-101 43.5q-61 0 -102 -42t-41 -104zM2187 184q0 39 21.5 71t58.5 32q8 0 37 -8q20 -6 33 -3q0 -10 4 -30.5t4 -30.5q-53 53 -68 53q-53 0 -53 -80t53 -79q31 0 64 43q0 -20 -23.5 -41t-44.5 -21q-37 0 -61.5 28.5 t-24.5 65.5z" />
<glyph unicode="&#xcd;" horiz-adv-x="2017" d="M-29 606l316 56l-172 237l12 12l319 -245h404l-102 122q-63 72 -123 99q-68 31 -189 39q-68 4 -239 18l327 55l-190 265l262 -185l57 316q6 -39 17 -224q8 -129 41 -202q27 -57 98 -121q61 -51 123 -103v447l-262 348l268 -190q18 162 41 272q0 14 20 23l50 -293l243 174 v-25l-241 -309v-451q102 100 223 228v6l59 420l58 -318l262 187l-189 -265l295 -47q-2 -4 -12 -14l-4 -4l-4 -2q-96 -4 -193 -8q-117 -6 -184 -37q-57 -27 -121 -101q-53 -59 -104 -120h397l319 245l13 -12l-170 -237l313 -60l-317 -47q47 -66 174 -244l-13 -12l-327 248 h-393q74 -78 229 -225q31 -4 68 -11q123 -12 303 -32q8 -2 28 -21l-293 -45q84 -113 166 -227v-29l-243 176l-64 -321q-4 78 -12 227q-8 123 -43 203q-27 57 -98 120q-61 51 -123 103v-426l241 -313v-25l-243 172l-48 -287h-18l-45 287l-229 -166h-25l248 332v422 q-61 -51 -123 -103q-72 -63 -98 -120q-33 -74 -41 -191q-2 -68 -21 -231l-53 313l-234 -166q-6 4 -16 10l168 238l-315 55q8 2 231 17q135 8 193.5 37.5t121.5 101.5q53 61 105 121h-401l-324 -244q-8 12 -8 18l166 232zM0 815l256 43l-137 191l10 10l256 -195h320 q-41 49 -82 97q-49 57 -95 77q-53 23 -151 31q-55 2 -199 16l268 43l-155 215l213 -149l47 258q6 -51 14 -186q6 -106 31 -162q20 -45 78 -94l98 -82v354l-213 283l217 -156q14 113 33 217q0 8 18 21l39 -236l197 139v-20l-195 -248v-356q61 57 176 178v6l50 342l47 -260 l211 151l-152 -215l236 -36q-6 -12 -13 -15l-2 -2l-4 -2q-76 -2 -153 -6q-92 -4 -148 -29q-45 -20 -94 -77q-41 -49 -82 -97h313l256 195l11 -10l-136 -191l256 -47l-260 -39h2l138 -194l-11 -11l-262 199h-311q59 -61 182 -178q23 -2 53 -8q86 -8 242 -27q8 0 25 -18 l-234 -35l131 -181v-24l-194 139l-51 -262q-4 68 -13 190q-8 104 -33 160q-20 45 -77 94q-49 41 -99 82v-336l195 -249v-23l-195 137l-39 -229h-16l-37 229l-180 -133h-23l199 268v334l-98 -82q-57 -49 -79 -98t-30 -147q-2 -53 -18 -193l-43 256l-187 -133q-4 2 -14 8 l135 191l-258 45q18 2 191 14q111 8 156.5 30.5t95.5 80.5q41 47 82 96h-318l-258 -197q-8 10 -8 17l131 184zM74 604l245 -41l-139 -196l262 200h437q6 -6 6 -10v-4q-59 -68 -117 -135q-72 -84 -135 -115q-53 -27 -146 -35q-78 -2 -153 -6q70 -12 203 -35l4 -2q6 -2 6 -10 l-144 -197l207 148l39 -234q14 119 41 318q258 246 256 246q14 0 10 -9v-454l-206 -269l194 142q8 0 12 -6l35 -232q12 76 41 228l8 12l199 -146l-211 271v459q2 4 6 4l2 2l4 4q170 -170 252 -250l41 -322q16 121 37 222l2 4q6 6 12 6l195 -142l-143 199l10 10l207 33 q-76 2 -154 4q-88 8 -145 37q-66 35 -142 119q-59 72 -120 143h446l264 -198l-141 196l242 43q-13 2 -230 37l-2 4q-6 2 -6 10l119 168l-240 -182h-440q-6 6 -6 10v4q59 68 116 136q72 84 136 114q53 27 151 35q78 2 158 6l-225 41l137 197l-189 -133q-4 0 -12 4l-35 225 q-4 -82 -6 -164q-8 -98 -37 -160q-33 -68 -141 -163q-96 -84 -111 -84q-8 0 -10 6l-2 2v479l193 248l-181 -125l-10 10l-39 232q-8 -59 -26 -174q-2 -20 -4.5 -41t-22.5 -25l-172 123l190 -250l-6 -483q-2 -2 -10 -2q-68 57 -135 114q-84 72 -113.5 134.5t-38.5 156.5 q-2 82 -6 164l-37 -231l-196 137l133 -191q0 -6 -6 -10l-213 -37q78 -2 157 -4q92 -6 152 -37q72 -37 166 -143q82 -94 82 -109v-6q-2 -2 -6 0q4 -4 2 -4q-4 -2 -443 -2l-243 186l120 -176q0 -6 -6 -10zM94 813l191 -33l-107 -151l203 155h350q6 -6 4 -10v-4 q-47 -53 -92 -108q-57 -63 -108 -91q-43 -23 -230 -32q27 -4 78 -13.5t76 -13.5h2q6 -6 6 -10l-111 -152l160 115l31 -182q10 84 33 245l125 125q74 74 79 74q12 0 9 -8v-363l-162 -209l151 109q8 0 11 -6l28 -178q10 57 31 176q2 4 8 10l154 -113l-166 211v367q4 4 6 4h2 q0 2 4 6q68 -68 203 -201q6 -59 16.5 -138t14.5 -111q8 55 28 170q8 8 13 8l149 -111l-110 156l10 8l153 25q-100 2 -116 4q-68 6 -113 28q-51 25 -111 95q-31 39 -98 116h358l207 -155l-110 153l188 35q-37 4 -176 29l-4 2q-4 2 -4 10l90 129l-184 -143h-355q-4 8 -4 10v4 q47 55 94 109q55 66 106.5 91t237.5 31l-172 31l107 154l-145 -103q-4 0 -13 5l-24 169q-2 -63 -6 -126q-6 -72 -30 -123.5t-112 -128.5q-76 -68 -88 -68q-8 0 -10 5t-2 386l151 193l-139 -97l-8 9l-31 180q-6 -45 -20 -133q-2 -16 -4 -33.5t-21 -22.5l-131 97l148 -195 v-381q-8 -8 -15 -8q-53 47 -108 92q-66 57 -89.5 106.5t-29.5 123.5q-4 61 -6 124l-29 -178l-154 107l105 -144v-4q0 -4 -6 -8l-160 -29q61 -2 121 -2q72 -6 117 -28q57 -29 131 -115q66 -76 65 -88v-4q-2 0 -4 -2l2 -4l-4 -2h-350l-191 145l93 -135q0 -2 -5 -10z" />
<glyph unicode="&#xce;" />
<glyph unicode="&#xcf;" horiz-adv-x="1970" d="M-59 606l338 60l-170 233l16 19l321 -246h392q-49 57 -99 116q-61 68 -116 95q-68 31 -187 39q-70 2 -274 22l354 57l-203 283l279 -194l63 337q6 -43 19 -256q8 -127 41 -200q25 -55 94 -117q59 -47 117 -96v432l-279 373l287 -205q16 141 39 266q4 14 31 29l49 -293 l245 176v-37l-241 -309v-436q111 111 211 217v6l63 450l64 -342l278 201l-198 -282l292 -48q-4 -8 -22 -26l-4 -2q-96 -4 -193 -8q-117 -6 -184 -37q-55 -25 -117 -95q-49 -59 -98 -116h383l321 246l19 -19l-168 -235l338 -62l-348 -53l-2 6q4 2 6 0l6 -8l18 -27l150 -211 l-19 -16l-327 250h-381q72 -76 221 -217q8 -8 66 -9q106 -10 301 -34q12 0 39 -29l-295 -45l2 -2l18 -25l57 -80l86 -114v-39l-245 176l-68 -348q-6 96 -18 262q-10 133 -41 201q-25 53 -94 114q-59 49 -117 99v-412l241 -313v-35l-245 172l-47 -285h-29l-43 285l-223 -164 h-37l252 340v410q-57 -49 -115 -99q-70 -61 -96 -116q-31 -68 -39 -189q-2 -68 -27 -262l-57 336l-230 -164q-6 2 -22 14l166 236l-342 59q59 8 264 23q139 10 194.5 37.5t116.5 95.5q49 59 99 117h-387l-328 -248q-12 18 -12 28l163 226zM106 604l222 -37l-123 -176 l235 182h441q10 -10 8 -24q-59 -68 -119 -137q-72 -82 -137.5 -116t-249.5 -38q53 -8 156 -25q12 -8 12 -20l-125 -172l188 133l35 -207q14 137 37 285q51 53 156 156q96 94 104 94q23 0 15 -17v-454l-187 -242l168 121q14 0 19 -10l30 -199q12 66 37 197q4 6 12 16 l172 -125l-190 242v463l5 5t5 3h2l6 8l256 -256l37 -285q20 123 33 185q8 12 20 12l170 -123l-129 176l17 14l151 25q-147 2 -213 25q-84 31 -174 135q-39 51 -129 151h459l242 -180l-129 178l219 39q-72 8 -199 33q-12 10 -12 20l100 142l-213 -164h-444q-8 10 -8 22 q59 70 118 138q72 82 136 114q72 37 260 41l-185 33l125 178l-164 -116q-6 0 -20 6l-27 176q-2 -104 -6 -139q-8 -78 -35 -134q-33 -68 -141 -165q-98 -86 -115 -86q-12 0 -16 10l-2 2v483l174 221l-156 -106l-14 14l-35 201q-10 -76 -20 -141q-2 -23 -6 -44.5t-29 -27.5 l-145 104l170 -223l-5 -485q-8 -8 -18 -8q-68 59 -137 118q-84 72 -115 135q-37 74 -41 271l-31 -191l-180 125l117 -164q0 -12 -8 -20l-162 -27q98 -2 131 -6q76 -8 127 -35q74 -37 168 -143q82 -94 82 -113v-4q0 -6 -2 -7t-5 -4t-446 -3l-219 168l102 -148q0 -12 -8 -18z " />
<glyph unicode="&#xd3;" />
<glyph unicode="&#xdf;" horiz-adv-x="1056" d="M6 -119q0 201 139 355q-70 92 -69 184q0 135 112 248q-4 8 4.5 27.5t8.5 25.5q0 16 -5.5 71.5t-2.5 81.5q6 31 30 31q0 35 8 68q-82 33 -81 71q0 45 49 82q6 4 82 48q-18 53 -31 77q-16 37 -41 70q-18 25 -19 51q0 16 48 53q41 31 59 39q72 29 127 29q35 0 78 -14 q12 -2 14 -29q-2 -29 0 -86q16 -131 31 -203q4 -2 22 -2q16 0 50 11.5t43 11.5q37 0 36 -39q0 -20 -49 -64q31 -31 51.5 -72.5t18.5 -64.5q31 -2 88 -20q-35 -6 -84 -21q0 -72 -39 -129q23 -18 8 -67q6 -12 -2 -41q135 -121 135 -289q0 -84 -39 -146q158 -158 158 -346 q0 -43 -4 -65q-8 -41 -22 -74q-23 -51 -23 -43q0 -4 13.5 -27.5t13.5 -27.5q0 -16 -93 -35q-8 0 -24 4q-4 2 -12.5 10t-12.5 8q-2 0 -44 -12t-62 -14q-131 -16 -203 -17q-242 0 -365 62q-51 27 -69 57q-31 53 -31 172zM8 -119q0 -121 33 -172q12 -23 47 -41q4 -2 10 -7t8 -7 q139 -61 365 -62q70 0 175.5 14.5t137.5 28.5q0 37 29 76q20 27 31 27q2 0 45 -37q53 88 53 182q0 176 -158 346l-22 -22q2 -16 16 -98q-10 16 -10 18q0 -2 -4 -23q-8 12 -12 25q-2 -12 -7 -33q-10 14 -10 21q0 -23 -2 -33q-4 12 -16 33q0 -23 -8 -39q-4 35 -4 39 q-4 -12 -11 -35q-8 20 -6 29q0 -2 -10 -13.5t-14 -19.5q-2 14 -2 43q-4 -8 -23 -39q-8 16 -4 22q6 6 6 5v12q-8 -12 -23 -35q0 2 7 45q-8 -10 -27 -35q-2 20 2 37q-6 -8 -20 -31q-4 2 -2 4q10 20 8 31h4v10q2 2 2 21q-2 -8 -12 -25q-4 4 -5 13q0 -8 -6 -19q-2 2 0 13h-12 q0 -12 -4 -15q-6 10 -2 15q-2 0 -14 -13q2 -4 2 13h-17l-8 -9q-4 2 -4 9h-102q-63 6 -127 12q-72 12 -121 61q-8 8 -19 8q-133 -158 -133 -350zM78 420q0 -70 43 -144q47 -80 115 -98q92 -25 165 -24h95q4 6 4 20q-6 -6 -17 -18q-4 6 0 16q6 14 6 16l-24 -22q0 4 2 12t2 10 q-6 -4 -16 -14q0 2 2 10q10 18 26 49q12 39 4 116t2 112q21 70 21 80v39q-10 0 -27 2h-16q-61 0 -96 12q-43 12 -119 41q-68 31 -57 31q-8 0 -41 -45.5t-43 -65.5q-31 -63 -31 -135zM225 911q0 -31 11 -41q29 -20 83 -71q53 -61 82 -78q37 -29 101 -29q20 0 45 8 q-6 -2 22 -2q4 0 18.5 6.5t16.5 6.5q4 0 5 -2t5 -2q10 0 41 34q29 29 35 41q33 58 29 117q-20 -10 -53 -22q14 -2 14 -17q0 -6 -2 -8h-8q-6 12 -6 22q-23 -10 -60 -10q-16 0 -28.5 3t-22.5 21.5t-10 31.5q0 31 30 30q4 0 57.5 -7t57.5 -7t14.5 2t14.5 2v18q0 27 -40 83.5 t-65 64.5q-12 4 -57 4q-39 0 -47 -2q-119 -6 -197 -47q-23 -10 -55 -35q-31 -37 -31 -115zM422 901q0 11 20 17q4 -14 -6 -20.5t-8 -6.5q-6 6 -6 10zM449 1190q16 -10 49 -19q22 -6 47 -12v15q0 25 -51 24q-16 0 -45 -8zM461 838q0 12 20 20q4 -8 4 -10q0 -6 -10 -17h-10 q-4 0 -4 7zM504 154h10q0 4 2 10v8q-14 -14 -12 -18zM506 985q0 39 22 39q17 0 19 -35q0 -39 -23 -39q-18 0 -18 35zM514 811q0 12 18 18q0 1 0 -22l-4 -2t-6 -4q-8 8 -8 10zM514 975q0 6 2 14v12q-6 -23 -2 -26zM526 154h13v12zM545 920q0 14 10 -27q-6 43 25 53 q-35 -8 -35 -26zM549 154h6v10h-6v-10zM559 156l4 -2l4 10h-4zM559 901q0 -35 27 -35h12q-21 49 16 72q-18 6 -26 6q-29 0 -29 -43zM575 995q0 35 21 35q15 0 25 -39q0 -35 -23 -35t-23 39zM578 809q0 6 14 16q4 -8 4 -16t-4 -14q-14 0 -14 14zM582 997q0 -16 8 -24 q-8 16 -8 24zM596 897l6 -31q22 2 51 8q-20 0 -20 31q0 20 16 29q-12 4 -31 4q-23 -14 -22 -41zM629 831q0 6 8 15q4 0 10 -4l-4 -27q-14 10 -14 16zM635 905q0 -29 22 -28q4 0 14.5 6t14.5 6q-12 6 -12 24q0 4 2 13v10h-21q-20 0 -20 -31zM659 635q12 -61 11 -117 q2 12 2 -45q20 -2 26 -27q6 -23 -4 -38q25 -43 68 -197q25 16 43 74q16 51 16 90q0 74 -38 158.5t-95 125.5q-16 -18 -29 -24zM678 913q0 -23 14 -22q10 0 33 16q-8 17 4 29q-31 -4 -47 -4q-4 -4 -4 -19zM725 913l4 -4q49 11 72 13q-33 14 -51 14q-14 0 -25 -10v-13zM741 41 q0 29 23 29q29 0 29 -33q0 -14 -9 -35h-16q-8 0 -17.5 15.5t-9.5 23.5zM770 -119q0 31 29 31q26 0 26 -31q0 -6 -9 -21.5t-9 -19.5q-10 0 -23.5 14.5t-13.5 26.5zM788 -354q0 -31 41 -31q10 0 78 18q2 3 8 9q-4 33 -14 45q-41 49 -57 49q-14 0 -35 -39t-21 -51zM791 -166 l8 6l2 -2l-6 -8z" />
<glyph unicode="&#xe5;" />
<glyph unicode="&#xe7;" />
<glyph unicode="&#xf0;" />
<glyph unicode="&#xf7;" horiz-adv-x="1077" d="M0 420q6 41 6 121t-6 190q12 2 61 19q39 12 54 12h583q12 0 59.5 18.5t57.5 18.5q45 0 127 -54q0 -10 6 -35.5t6 -41.5q0 -2 -2 -57.5t-4 -94.5q0 -59 4 -96h-952zM8 686q0 -63 51 -94q27 -14 117 -37t133 -53q27 27 47 26q29 0 47 -18q16 37 46 65q39 -39 75 -55 q25 27 45 27q18 0 84 -45q23 33 46.5 67.5t37.5 34.5t27.5 -14.5t23.5 -14.5q12 0 38 14.5t34 14.5q8 39 10 43q8 23 33 39l41 -37v43q0 35 -45 65.5t-84 30.5q-10 0 -57 -18t-60 -18h-583q-37 0 -68 -15q-39 -18 -39 -51zM332 166q0 47 86 182q12 0 61 6q43 6 64 6 q41 -43 84 -86q41 -49 41 -108q0 -74 -54.5 -120t-113.5 -46q-76 0 -123 53q-45 47 -45 113zM332 975q0 12 18 57q29 63 31 70q4 18 29 45q84 33 86 33q35 0 120 -52q4 -14 31 -84q21 -57 21 -69q0 -74 -54.5 -121t-113.5 -47q-76 0 -122 51t-46 117zM389 1108 q170 -123 209 -123q12 0 19.5 9.5t11.5 9.5v61q4 45 -29 63q-74 41 -104 41q-10 0 -42 -14t-44 -16q-20 -14 -21 -31zM397 291q33 -33 70 -86q10 18 37 55q45 -43 51 -94q18 31 18 80q0 106 -59 106q-12 0 -47 -5t-49 -5q0 -10 -10.5 -29.5t-10.5 -21.5z" />
<glyph unicode="&#x2000;" horiz-adv-x="925" />
<glyph unicode="&#x2001;" horiz-adv-x="1851" />
<glyph unicode="&#x2002;" horiz-adv-x="925" />
<glyph unicode="&#x2003;" horiz-adv-x="1851" />
<glyph unicode="&#x2004;" horiz-adv-x="617" />
<glyph unicode="&#x2005;" horiz-adv-x="462" />
<glyph unicode="&#x2006;" horiz-adv-x="308" />
<glyph unicode="&#x2007;" horiz-adv-x="308" />
<glyph unicode="&#x2008;" horiz-adv-x="231" />
<glyph unicode="&#x2009;" horiz-adv-x="370" />
<glyph unicode="&#x200a;" horiz-adv-x="102" />
<glyph unicode="&#x2010;" horiz-adv-x="884" d="M143 578v114q0 6 4 68q2 70 5 96q14 23 45 23q8 0 32.5 -3.5t30.5 -3.5t15.5 6.5t17.5 6.5t36.5 -16.5t41.5 -16.5q115 -6 262 -6q8 0 35 28q6 6 20 5q18 -2 25 0h-29q-12 -10 -27 -29q-6 -10 -24 -10q-74 0 -62 2q35 -129 86 -129q8 0 7.5 3t5.5 3q8 0 17 -11.5 t16.5 -13.5t27 -8t27.5 -6t17 6t11 6q4 -2 10.5 -11t8.5 -13q43 12 51 57l4 84q0 29 6 47q-18 6 -135 25q12 -8 59.5 -7.5t65.5 -5.5q35 -6 35 -24v-266h-748zM150 598h67q2 4 27 86q14 51 55 72q6 -6 6 -13q-6 25 10.5 55.5t32.5 57.5q-33 23 -55 23q-8 0 -20.5 -3.5 t-18.5 -3.5q-59 0 -98 -14q0 -14 -3 -40.5t-3 -33.5v-186z" />
<glyph unicode="&#x2011;" horiz-adv-x="884" d="M143 578v114q0 6 4 68q2 70 5 96q14 23 45 23q8 0 32.5 -3.5t30.5 -3.5t15.5 6.5t17.5 6.5t36.5 -16.5t41.5 -16.5q115 -6 262 -6q8 0 35 28q6 6 20 5q18 -2 25 0h-29q-12 -10 -27 -29q-6 -10 -24 -10q-74 0 -62 2q35 -129 86 -129q8 0 7.5 3t5.5 3q8 0 17 -11.5 t16.5 -13.5t27 -8t27.5 -6t17 6t11 6q4 -2 10.5 -11t8.5 -13q43 12 51 57l4 84q0 29 6 47q-18 6 -135 25q12 -8 59.5 -7.5t65.5 -5.5q35 -6 35 -24v-266h-748zM150 598h67q2 4 27 86q14 51 55 72q6 -6 6 -13q-6 25 10.5 55.5t32.5 57.5q-33 23 -55 23q-8 0 -20.5 -3.5 t-18.5 -3.5q-59 0 -98 -14q0 -14 -3 -40.5t-3 -33.5v-186z" />
<glyph unicode="&#x2012;" horiz-adv-x="884" d="M143 578v114q0 6 4 68q2 70 5 96q14 23 45 23q8 0 32.5 -3.5t30.5 -3.5t15.5 6.5t17.5 6.5t36.5 -16.5t41.5 -16.5q115 -6 262 -6q8 0 35 28q6 6 20 5q18 -2 25 0h-29q-12 -10 -27 -29q-6 -10 -24 -10q-74 0 -62 2q35 -129 86 -129q8 0 7.5 3t5.5 3q8 0 17 -11.5 t16.5 -13.5t27 -8t27.5 -6t17 6t11 6q4 -2 10.5 -11t8.5 -13q43 12 51 57l4 84q0 29 6 47q-18 6 -135 25q12 -8 59.5 -7.5t65.5 -5.5q35 -6 35 -24v-266h-748zM150 598h67q2 4 27 86q14 51 55 72q6 -6 6 -13q-6 25 10.5 55.5t32.5 57.5q-33 23 -55 23q-8 0 -20.5 -3.5 t-18.5 -3.5q-59 0 -98 -14q0 -14 -3 -40.5t-3 -33.5v-186z" />
<glyph unicode="&#x2013;" horiz-adv-x="1160" d="M143 578v114q0 6 5 68q3 70 7 96q19 23 62 23q11 0 44.5 -3.5t41.5 -3.5t21 6.5t24 6.5t50 -16.5t57 -16.5q158 -6 359 -6q11 0 48 28q8 6 27 5q25 -2 34 0h-39q-17 -10 -37 -29q-9 -10 -33 -10q-102 0 -85 2q48 -129 118 -129q11 0 10 3t7 3q11 0 23.5 -11.5t23 -13.5 t37 -8t37.5 -6t23.5 6t14.5 6q6 -2 15 -11t11 -13q59 12 70 57l6 84q0 29 8 47q-25 6 -185 25q16 -8 81 -7.5t90 -5.5q48 -6 48 -24v-266h-1024zM153 598h91q3 4 37 86q19 51 76 72q8 -6 8 -13q-8 25 14.5 55.5t44.5 57.5q-46 23 -76 23q-11 0 -28 -3.5t-25 -3.5 q-81 0 -134 -14q0 -14 -4 -40.5t-4 -33.5v-186z" />
<glyph unicode="&#x2014;" horiz-adv-x="2184" d="M143 578v114q0 6 11 68q5 70 14 96q38 23 123 23q22 0 89 -3.5t83 -3.5q17 0 43 6.5t48 6.5t100 -16.5t113 -16.5q315 -6 718 -6q22 0 95 28q17 6 55 5q49 -2 69 0h-80q-33 -10 -74 -29q-16 -10 -65 -10q-203 0 -170 2q96 -129 235 -129q22 0 20.5 3t15.5 3 q22 0 46.5 -11.5t45 -13.5t74 -8t75.5 -6t46.5 6t30.5 6q10 -2 28 -11t24 -13q117 12 139 57l11 84q0 29 17 47q-50 6 -370 25q33 -8 163 -7.5t179 -5.5q96 -6 96 -24v-266h-2048zM162 598h184q5 4 74 86q38 51 150 72q17 -6 17 -13q-17 25 28 55.5t89 57.5q-90 23 -150 23 q-22 0 -56.5 -3.5t-50.5 -3.5q-162 0 -268 -14q0 -14 -8.5 -40.5t-8.5 -33.5v-186z" />
<glyph unicode="&#x2018;" horiz-adv-x="327" d="M41 1268q-6 215 274 362l47 -8q-53 -61 -104 -124.5t-43 -123.5q10 14 35 15q10 0 41 -13q39 -16 49 -18v-354l-70 -46q-25 -16 -61 -16q-8 0 -44 4t-46 4q-16 0 -70 39zM55 1268q0 -10 22.5 -47t26.5 -52v80q35 -33 50 -80q4 12 16 29q12 -12 23 -12q16 29 26 28 q6 -23 21 -59q4 35 24 51q23 -20 35 -55q-8 12 -8 31q0 20 14 59t14 53q0 25 -38 33q-174 33 -170 33q-10 0 -23.5 -8.5t-15.5 -8.5q0 -10 -8.5 -38.5t-8.5 -36.5z" />
<glyph unicode="&#x2019;" horiz-adv-x="503" d="M18 954q96 109 101 117q57 78 55 139q-10 6 -88 19q-45 8 -45 51v293q18 10 76 47q20 12 55 12q29 0 35 -2q18 -8 18 -35q31 -20 54 -20q10 0 19 7t11 7q10 -12 23 -41q10 -198 10 -241q0 -96 -66 -193q-74 -109 -208 -170zM57 1503q8 0 15.5 -8t11.5 -8q0 18 10 29 q10 -8 27 -27q-2 -4 -11.5 -18.5t-7.5 -18.5q4 -8 13 -61q6 -33 35 -43q0 47 -15 75q20 20 25 21l30 -31l29 31q4 -10 10.5 -20.5t20.5 -10.5q8 0 21.5 25.5t21.5 34.5q14 -14 20 -15q1 -19 13 -31v78q0 33 -17 33q-16 12 -51 18q-43 6 -57 13q-2 10 -12.5 22.5t-34.5 12.5 q-14 0 -51 -20.5t-43.5 -35t-2.5 -45.5z" />
<glyph unicode="&#x201c;" horiz-adv-x="663" d="M27 1282q-6 209 270 358l49 -10q-53 -61 -106 -121q-49 -66 -41 -123q10 14 34 15q10 0 41 -12q39 -16 50 -19v-350q-31 -20 -65 -41t-66 -21q-8 0 -44 4.5t-48.5 4.5t-65.5 39zM41 1282q0 -10 22.5 -47t24.5 -51q0 74 2 80q29 -29 49 -80q4 12 15 28q18 -14 24 -14 q12 31 25 31q6 -23 20 -60q4 35 25 52q25 -25 35 -56q-8 12 -9 31q0 20 14.5 58.5t14.5 52.5q0 27 -41 34q-141 31 -166 31q-10 0 -23.5 -8t-15.5 -8q0 -10 -8 -38t-8 -36zM418 1274q0 217 270 358l49 -8q-90 -111 -92 -111q-55 -76 -61 -116l6 -33q2 2 22 14q12 8 23 8 q8 0 30.5 -4t34.5 -4q0 -12 7.5 -38.5t7.5 -34.5v-293q-35 -23 -70 -45q-25 -14 -61 -15q-6 0 -22.5 7.5t-26.5 7.5q-8 0 -15.5 -4.5t-17.5 -4.5q-61 0 -74 76q-10 59 -10 240zM436 1333q-2 -100 13 -133q10 -25 24 -39l14 17q20 -25 21 -45q4 8 12 26.5t10 24.5 q12 -14 39 -35q-8 35 33 106q8 -14 23 -34l14 14q27 -33 37 -88q2 20 2 188q-109 -8 -242 -2z" />
<glyph unicode="&#x201d;" horiz-adv-x="946" d="M63 977q86 96 101 115q55 76 51 137q-8 4 -86 18q-45 6 -45 49v291q18 10 76 47q20 12 55 13q27 0 35 -2q16 -12 16 -35q37 -20 53 -21q10 0 19.5 7.5t11.5 7.5q20 -27 21 -39q10 -154 10 -240q0 -98 -64 -190q-74 -109 -206 -168zM100 1518q8 0 15.5 -7.5t11.5 -7.5 q0 16 12 29q2 -4 25 -27q-2 -4 -11.5 -18t-7.5 -19q4 -8 13 -61q6 -31 35 -41q0 43 -15 74q18 18 25 18l30 -28l29 28q2 -4 5 -12t8.5 -12t15.5 -4q8 0 21.5 24.5t21.5 32.5q16 -12 20 -12q1 -19 13 -31v78q0 31 -17 30q-16 12 -51 19q-43 6 -57 12l-9 25q-18 10 -36 10 q-35 0 -88 -45q-8 -6 -9 -55zM455 969q92 106 100 114q55 78 51 140q-8 4 -86 18q-45 6 -45 49v291q27 12 76 45q20 14 55 14q18 0 34.5 -6t16.5 -32q47 -20 54 -21q10 0 19 7t11 7q18 -18 21 -39q10 -157 10 -239q0 -96 -63 -191q-74 -109 -207 -168zM492 1509q8 0 15 -7 t11 -7q0 20 12 29q10 -8 25 -27q-2 -4 -11 -18.5t-7 -18.5q4 -8 12 -61q6 -31 35 -41q0 45 -15 76l25 18l31 -29l28 29q2 -4 5.5 -12t8.5 -12.5t15 -4.5q8 0 20 21q16 29 23 37q14 -14 20 -15q1 -18 13 -28v75q0 33 -17 33q-18 12 -51 19q-45 6 -57 10q-2 10 -8 24 q-16 12 -37 13q-31 0 -88 -45q-8 -6 -8 -58z" />
<glyph unicode="&#x201e;" />
<glyph unicode="&#x2022;" horiz-adv-x="679" d="M53 838q0 74 33 125q27 41 98 90q23 18 45 34q37 25 70 25q6 0 27.5 -7t29.5 -7q6 -18 25 -41q137 -72 137 -219q0 -92 -69.5 -165t-161.5 -73q-104 0 -169 68.5t-65 169.5zM201 1051q0 -31 45 -160q10 -16 24 -53q12 37 37 104q6 -35 19 -111q29 38 82 95 q-16 29 -26.5 85t-23.5 81q-8 0 -30.5 7t-28.5 7q-16 0 -57 -19.5t-41 -35.5z" />
<glyph unicode="&#x2026;" horiz-adv-x="1499" d="M-86 145q0 55 59.5 126t112.5 71q39 0 93 -73.5t54 -116.5q0 -66 -47 -116t-112 -50q-72 0 -116 49t-44 110zM10 291q23 -55 49 -82q27 12 54 27q8 -8 8 -27q22 40 22 65q0 59 -57 60q-43 0 -76 -43zM508 156q0 53 65 149q6 10 27 25q6 0 32.5 6t39.5 6q53 0 104 -66.5 t51 -115.5q0 -66 -47 -115t-112 -49q-70 0 -117 55q-43 49 -43 105zM582 291q6 2 12 2q27 0 51 -76l37 37l27 -27q30 27 30 47q0 59 -67 60q-16 0 -49 -12.5t-41 -30.5zM1104 156q0 68 56.5 123t125.5 55q18 0 55 -4q31 -45 60 -90q22 -37 22 -80q0 -66 -47 -115t-112 -49 q-70 0 -117 55q-43 49 -43 105zM1223 297q0 -16 23.5 -53t23.5 -62q0 -10 -2 -18q6 35 43 53q10 -8 10 -16q41 60 41 80q0 23 -21 43h-110q-8 -12 -8 -27z" />
<glyph unicode="&#x202f;" horiz-adv-x="370" />
<glyph unicode="&#x205f;" horiz-adv-x="462" />
<glyph unicode="&#x2122;" horiz-adv-x="997" d="M12 1602q0 10 15.5 24t29.5 14q6 0 29 -10t27 -10t8 2t10 2q4 0 35 -11t37 -11t64.5 11t62.5 11q25 1 43 -22q-4 -31 -4 -93q-6 -6 -119 -2v-356h-103v352h-118q0 25 -6 76q0 4 -5.5 10t-5.5 13zM16 1602q0 -10 16.5 -24.5t28.5 -14.5q4 0 29 15t45 15q33 0 66 -32 q4 -14 10 -41q14 20 31 49q10 16 57 16q8 0 61 -8q9 17 9 25q-27 18 -39 18q-4 0 -62.5 -11.5t-64.5 -11.5t-37 11.5t-35 11.5q-6 0 -10 -2t-8 -2q-6 0 -29 10t-27 10q-12 0 -26.5 -12t-14.5 -22zM403 1583q0 14 14.5 27.5t24.5 13.5q6 0 38 -6t36 -6q25 0 37 4 q14 -8 12 -23q-4 -20 -4 -22q10 -68 25 -121q6 -4 14 -12q4 -18 14 -56q10 2 11.5 15.5t4.5 19.5t19 17q6 20 10 63q0 4 -5 14.5t-5 18.5q0 27 22.5 62.5t41.5 35.5q6 0 6 -4t4 -4q2 0 14 12q47 -20 51 -20q6 0 19 12q10 -10 14 -10v-463h-98v274l-61 -274h-84l-64 283v-283 h-96v410q0 4 -7.5 10t-7.5 12zM408 1583q0 -6 3 -11t3 -7q49 16 59 16q6 0 13.5 -8t11.5 -8q0 4 8 12q8 -12 31 -39q26 53 26 59l-10 15q-12 -6 -37 -6q-4 0 -35.5 7t-38.5 7q-35 0 -34 -37zM567 1393q0 6 17 -66q8 -33 16 -108q14 12 31 36q18 130 18 150q0 10 -10 20 q-6 -14 -18 -59q-18 18 -22.5 42t-6.5 30q-25 -20 -25 -45zM653 1530q0 -27 17 -31q8 16 26 43q14 8 37 31q20 -18 23 -47q2 -49 4 -60l8 -6q10 16 9 48t3 43.5t20.5 30t16.5 22.5q0 6 -10 16q-14 -14 -19 -14l-51 22l-16 -16q-2 2 -2 7t-6 5q-18 0 -41 -31q-18 -37 -19 -63 z" />
<glyph unicode="&#x25fc;" horiz-adv-x="870" d="M0 0v870h870v-870h-870z" />
</font>
</defs>
</svg>
