<?xml version="1.0" standalone="no"?>
<!DOCTYPE svg PUBLIC "-//W3C//DTD SVG 1.1//EN" "http://www.w3.org/Graphics/SVG/1.1/DTD/svg11.dtd" >
<svg xmlns="http://www.w3.org/2000/svg">
<metadata></metadata>
<defs>
<font id="a_paparegular" horiz-adv-x="2215" >
<font-face units-per-em="2048" ascent="1638" descent="-410" />
<missing-glyph horiz-adv-x="1024" />
<glyph horiz-adv-x="0" />
<glyph unicode="&#xd;" horiz-adv-x="1024" />
<glyph unicode=" "  horiz-adv-x="1024" />
<glyph unicode="&#x09;" horiz-adv-x="1024" />
<glyph unicode="&#xa0;" horiz-adv-x="1024" />
<glyph unicode="!" horiz-adv-x="811" d="M0 590l4 88q10 250 29 557q2 45 -15.5 127t-17.5 121q0 84 72 131q61 0 185 12t185 12q33 0 64 -2q43 -25 80 -77q0 -96 7 -290t7 -290q0 -109 -8 -158q6 -92 6 -104q9 -57 27 -96q-4 -102 -88 -129q-31 -6 -170 -17q-109 -8 -166 -26q-47 -16 -101 20q-20 35 -100 121z M27 211q0 98 98 158q84 51 188 51t189 -51q96 -60 96 -158q0 -100 -96 -160q-82 -51 -189 -51q-106 0 -188 51q-98 59 -98 160zM207 1427q-2 -39 12 -108q47 2 82 2q57 0 80 -6q2 6 10 125l-10 10q-29 2 -90 2q-55 0 -84 -25zM209 801q0 -109 22 -142l164 11q6 16 6 35 q0 14 -6 44.5t-6 45.5q0 18 6 34l-12 17q-20 6 -43 6q-68 0 -131 -51zM211 211q0 -47 25 -80q29 -39 73 -39q45 0 74 39q25 33 25 80q0 45 -28 81t-71 36t-70.5 -36t-27.5 -81zM223 1110q-6 -109 10 -135q27 8 82 10q12 -2 19 -2q33 0 43 39q2 4 8 65l-16 33q-4 0 -52 4 q-23 2 -47 0q-27 -2 -47 -14z" />
<glyph unicode="&#x22;" horiz-adv-x="763" d="M-2 1489q0 41 2 78q41 61 94 71q72 -6 92 -36q31 -47 31 -103q0 -33 -13.5 -96.5t-13.5 -95.5q1 -29 9 -56q14 -250 -97 -250q-39 0 -66.5 34t-29.5 75q2 35 2 76q0 51 -5 151.5t-5 151.5zM350 1489q0 41 2 78q43 61 97 71q72 -6 92 -36q29 -45 28 -103q0 -33 -12 -96.5 t-12 -95.5q0 -29 6 -56q14 -250 -96 -250q-39 0 -67 34t-30 75q2 35 2 76q0 51 -5 151.5t-5 151.5z" />
<glyph unicode="'" horiz-adv-x="536" d="M0 1139q0 16 6 35q31 70 75 214t75 214q59 45 112 36q80 -36 80 -108q0 -47 -55 -145.5t-57 -145.5q-63 -205 -154 -205q-37 0 -59.5 33t-22.5 72z" />
<glyph unicode="+" horiz-adv-x="1351" d="M0 895q10 72 43 90q43 25 90 25q37 0 107.5 -17.5t107.5 -17.5q23 0 43 4h141l-4 104q6 82 4 242q10 20 11 53q0 8 -2 23v24q0 88 63 88q16 0 111 -43q16 -43 16 -98q0 -37 -10 -121q-6 -49 -6 -84q0 -27 4 -47q2 -78 6 -139l82 4q82 -6 242 -4q20 -10 51 -10h49 q53 0 80 -35q6 -12 6 -29q0 -23 -16 -57l-25 -53q-43 -16 -98 -17q-16 0 -125 13q-74 8 -127 0q-61 0 -111 -5q-8 -72 -8 -220t-10 -224q-43 -59 -97 -68q-74 10 -92 43q-25 43 -24 91q0 37 18.5 107.5t18.5 107.5q0 23 -4 45v108h-11q-76 8 -228.5 9t-227.5 10 q-61 45 -68 98z" />
<glyph unicode="-" horiz-adv-x="1423" d="M0 893q10 72 43 90q43 25 90 25q37 0 107.5 -18.5t107.5 -18.5q23 0 43 6q33 -4 416 6q82 -6 242 -4q20 -10 51 -10h49q53 0 80 -35q6 -12 6 -29q0 -23 -16 -57l-25 -53q-43 -16 -98 -17q-16 0 -125 13q-74 8 -127 0q-53 0 -159.5 -7.5t-160.5 -7.5q-76 8 -228.5 9 t-227.5 10q-61 45 -68 98z" />
<glyph unicode="." horiz-adv-x="530" d="M0 147q0 63 49 104.5t115 41.5t116 -41.5t50 -104.5q0 -66 -49.5 -106.5t-116.5 -40.5q-66 0 -115 42t-49 105z" />
<glyph unicode="/" horiz-adv-x="993" d="M2 72q-8 72 55 155q76 100 86 146q37 80 133 301l269 616q27 53 98 209q16 14 43 78q23 51 66 61q29 2 59 -30q14 -19 47 -54q-4 -59 -57 -153q-63 -111 -76 -152l-104 -260q-57 -141 -109 -262q-31 -53 -145 -317q-37 -63 -96.5 -194.5t-96.5 -195.5q-43 -25 -80 -24 q-16 0 -31 4q-57 37 -61 72z" />
<glyph unicode="0" d="M84 614q0 428 298 726t726 298t726 -298t298 -726t-298 -726t-726 -298t-726 298t-298 726zM172 614q0 -391 272.5 -663.5t663.5 -272.5t663.5 272.5t272.5 663.5t-272.5 663.5t-663.5 272.5t-663.5 -272t-272.5 -664zM592 885q0 115 29 223q43 160 122 160 q82 0 125 -160q29 -108 29 -223t-29 -223q-43 -160 -125 -160q-80 0 -122 162q-29 109 -29 221zM1112 -18q220 -1 406 110q117 70 297 248q-92 -203 -216 -287t-313 -84q-78 0 -174 13zM1315 805q0 127 28 260q43 199 125 199t123 -199q29 -137 29 -260t-29 -260 q-41 -201 -123 -201q-84 0 -125 199q-29 137 -28 262z" />
<glyph unicode="1" d="M84 614q0 428 298 726t726 298t726 -298t298 -726t-298 -726t-726 -298t-726 298t-298 726zM172 614q0 -391 272.5 -663.5t663.5 -272.5t663.5 272.5t272.5 663.5t-272.5 663.5t-663.5 272.5t-663.5 -272t-272.5 -664zM592 885q0 115 29 223q43 160 122 160 q82 0 125 -160q29 -108 29 -223t-29 -223q-43 -160 -125 -160q-80 0 -122 162q-29 109 -29 221zM1112 -18q220 -1 406 110q117 70 297 248q-92 -203 -216 -287t-313 -84q-78 0 -174 13zM1315 805q0 127 28 260q43 199 125 199t123 -199q29 -137 29 -260t-29 -260 q-41 -201 -123 -201q-84 0 -125 199q-29 137 -28 262z" />
<glyph unicode="2" d="M84 614q0 428 298 726t726 298t726 -298t298 -726t-298 -726t-726 -298t-726 298t-298 726zM172 614q0 -391 272.5 -663.5t663.5 -272.5t663.5 272.5t272.5 663.5t-272.5 663.5t-663.5 272.5t-663.5 -272t-272.5 -664zM592 885q0 115 29 223q43 160 122 160 q82 0 125 -160q29 -108 29 -223t-29 -223q-43 -160 -125 -160q-80 0 -122 162q-29 109 -29 221zM1112 -18q220 -1 406 110q117 70 297 248q-92 -203 -216 -287t-313 -84q-78 0 -174 13zM1315 805q0 127 28 260q43 199 125 199t123 -199q29 -137 29 -260t-29 -260 q-41 -201 -123 -201q-84 0 -125 199q-29 137 -28 262z" />
<glyph unicode="3" d="M84 614q0 428 298 726t726 298t726 -298t298 -726t-298 -726t-726 -298t-726 298t-298 726zM172 614q0 -391 272.5 -663.5t663.5 -272.5t663.5 272.5t272.5 663.5t-272.5 663.5t-663.5 272.5t-663.5 -272t-272.5 -664zM592 885q0 115 29 223q43 160 122 160 q82 0 125 -160q29 -108 29 -223t-29 -223q-43 -160 -125 -160q-80 0 -122 162q-29 109 -29 221zM1112 -18q220 -1 406 110q117 70 297 248q-92 -203 -216 -287t-313 -84q-78 0 -174 13zM1315 805q0 127 28 260q43 199 125 199t123 -199q29 -137 29 -260t-29 -260 q-41 -201 -123 -201q-84 0 -125 199q-29 137 -28 262z" />
<glyph unicode="4" d="M84 614q0 428 298 726t726 298t726 -298t298 -726t-298 -726t-726 -298t-726 298t-298 726zM172 614q0 -391 272.5 -663.5t663.5 -272.5t663.5 272.5t272.5 663.5t-272.5 663.5t-663.5 272.5t-663.5 -272t-272.5 -664zM592 885q0 115 29 223q43 160 122 160 q82 0 125 -160q29 -108 29 -223t-29 -223q-43 -160 -125 -160q-80 0 -122 162q-29 109 -29 221zM1112 -18q220 -1 406 110q117 70 297 248q-92 -203 -216 -287t-313 -84q-78 0 -174 13zM1315 805q0 127 28 260q43 199 125 199t123 -199q29 -137 29 -260t-29 -260 q-41 -201 -123 -201q-84 0 -125 199q-29 137 -28 262z" />
<glyph unicode="5" d="M84 614q0 428 298 726t726 298t726 -298t298 -726t-298 -726t-726 -298t-726 298t-298 726zM172 614q0 -391 272.5 -663.5t663.5 -272.5t663.5 272.5t272.5 663.5t-272.5 663.5t-663.5 272.5t-663.5 -272t-272.5 -664zM592 885q0 115 29 223q43 160 122 160 q82 0 125 -160q29 -108 29 -223t-29 -223q-43 -160 -125 -160q-80 0 -122 162q-29 109 -29 221zM1112 -18q220 -1 406 110q117 70 297 248q-92 -203 -216 -287t-313 -84q-78 0 -174 13zM1315 805q0 127 28 260q43 199 125 199t123 -199q29 -137 29 -260t-29 -260 q-41 -201 -123 -201q-84 0 -125 199q-29 137 -28 262z" />
<glyph unicode="6" d="M84 614q0 428 298 726t726 298t726 -298t298 -726t-298 -726t-726 -298t-726 298t-298 726zM172 614q0 -391 272.5 -663.5t663.5 -272.5t663.5 272.5t272.5 663.5t-272.5 663.5t-663.5 272.5t-663.5 -272t-272.5 -664zM592 885q0 115 29 223q43 160 122 160 q82 0 125 -160q29 -108 29 -223t-29 -223q-43 -160 -125 -160q-80 0 -122 162q-29 109 -29 221zM1112 -18q220 -1 406 110q117 70 297 248q-92 -203 -216 -287t-313 -84q-78 0 -174 13zM1315 805q0 127 28 260q43 199 125 199t123 -199q29 -137 29 -260t-29 -260 q-41 -201 -123 -201q-84 0 -125 199q-29 137 -28 262z" />
<glyph unicode="7" d="M84 614q0 428 298 726t726 298t726 -298t298 -726t-298 -726t-726 -298t-726 298t-298 726zM172 614q0 -391 272.5 -663.5t663.5 -272.5t663.5 272.5t272.5 663.5t-272.5 663.5t-663.5 272.5t-663.5 -272t-272.5 -664zM592 885q0 115 29 223q43 160 122 160 q82 0 125 -160q29 -108 29 -223t-29 -223q-43 -160 -125 -160q-80 0 -122 162q-29 109 -29 221zM1112 -18q220 -1 406 110q117 70 297 248q-92 -203 -216 -287t-313 -84q-78 0 -174 13zM1315 805q0 127 28 260q43 199 125 199t123 -199q29 -137 29 -260t-29 -260 q-41 -201 -123 -201q-84 0 -125 199q-29 137 -28 262z" />
<glyph unicode="8" d="M84 614q0 428 298 726t726 298t726 -298t298 -726t-298 -726t-726 -298t-726 298t-298 726zM172 614q0 -391 272.5 -663.5t663.5 -272.5t663.5 272.5t272.5 663.5t-272.5 663.5t-663.5 272.5t-663.5 -272t-272.5 -664zM592 885q0 115 29 223q43 160 122 160 q82 0 125 -160q29 -108 29 -223t-29 -223q-43 -160 -125 -160q-80 0 -122 162q-29 109 -29 221zM1112 -18q220 -1 406 110q117 70 297 248q-92 -203 -216 -287t-313 -84q-78 0 -174 13zM1315 805q0 127 28 260q43 199 125 199t123 -199q29 -137 29 -260t-29 -260 q-41 -201 -123 -201q-84 0 -125 199q-29 137 -28 262z" />
<glyph unicode="9" d="M84 614q0 428 298 726t726 298t726 -298t298 -726t-298 -726t-726 -298t-726 298t-298 726zM172 614q0 -391 272.5 -663.5t663.5 -272.5t663.5 272.5t272.5 663.5t-272.5 663.5t-663.5 272.5t-663.5 -272t-272.5 -664zM592 885q0 115 29 223q43 160 122 160 q82 0 125 -160q29 -108 29 -223t-29 -223q-43 -160 -125 -160q-80 0 -122 162q-29 109 -29 221zM1112 -18q220 -1 406 110q117 70 297 248q-92 -203 -216 -287t-313 -84q-78 0 -174 13zM1315 805q0 127 28 260q43 199 125 199t123 -199q29 -137 29 -260t-29 -260 q-41 -201 -123 -201q-84 0 -125 199q-29 137 -28 262z" />
<glyph unicode=":" horiz-adv-x="522" d="M0 659q0 63 49 105.5t115 42.5q68 0 117 -41t49 -107t-49.5 -106.5t-116.5 -40.5q-66 0 -115 42t-49 105zM0 1110q0 63 49 105t115 42q68 0 117 -40.5t49 -106.5t-49.5 -106.5t-116.5 -40.5q-66 0 -115 42t-49 105z" />
<glyph unicode="=" horiz-adv-x="1363" d="M0 629q10 74 43 92q43 25 90 24q37 0 107.5 -18t107.5 -18q23 0 43 4q33 -4 416 6q82 -6 242 -4q20 -10 51 -10h24q16 2 25 2q53 0 80 -37q6 -12 6 -27q0 -49 -41 -111q-43 -16 -98 -16q-37 0 -121 10q-49 6 -84 6q-27 0 -47 -4l-189 -10q-72 -4 -131 -4q-190 2 -456 16 q-61 45 -68 99zM25 1116q16 117 133 117q37 0 107.5 -18.5t107.5 -18.5q23 0 43 4q33 -4 415 6q82 -6 242 -4q20 -10 51 -10h25q16 2 25 2q52 0 79 -37q6 -12 7 -27q0 -49 -41 -110q-43 -16 -99 -16q-39 0 -123 10q-49 6 -82 6q-29 0 -47 -4q-45 -2 -159 -10q-98 -6 -160 -7 q-78 10 -227 11q-156 0 -230 8q-61 45 -67 98z" />
<glyph unicode="?" horiz-adv-x="1318" d="M0 1313q-10 133 250 223q236 82 397 102q186 2 273 -20q141 -37 227 -162q37 -53 37 -115q0 -113 -103 -219q-63 -68 -311 -223q-168 -106 -152 -186q51 -96 52 -160q0 -96 -105 -96q-94 0 -176 65q-88 68 -88 160q-2 121 141 240q84 70 283 182q170 96 197 143 q35 59 34 86q0 20 -45 60q-14 12 -30 12q-10 0 -21 -4q-229 -154 -338 -320q-61 -31 -121 -30q-76 0 -147 45l-129 86q-51 45 -70 59q-37 39 -55 72zM229 213q0 100 99 160q84 53 190 53t191 -53q98 -60 98 -160t-98 -160q-84 -53 -191 -53q-106 0 -190 53q-98 59 -99 160z M256 1307q0 -70 78 -70q53 0 115 45q141 102 141 148q0 10 -8 18q-49 16 -88 16q-68 0 -146 -53l-72 -49q-20 -25 -20 -55zM416 213q0 -47 24 -80q29 -39 74 -39t72.5 36t27.5 83t-27.5 83t-72.5 36t-71.5 -36t-26.5 -83z" />
<glyph unicode="@" horiz-adv-x="1976" d="M0 776q0 184 88 363q84 172 227 299q225 201 717 200q309 0 524 -165q236 -181 236 -482q0 -215 -131 -407q-145 -213 -350 -213q-92 0 -154 47q-68 51 -70 141q-12 -78 -22 -153q-39 -117 -178 -134q-35 -4 -47 -4q-246 0 -305 277q-41 193 -41 295q0 217 118 374 q127 172 336 187q98 6 164 -60q57 -57 78 -159q2 -12 18 -109l49 268l304 -170q-297 -190 -306 -614q0 -41 30 -70.5t71 -29.5q49 0 92 45q12 16 94 123q117 152 117 352q0 207 -133 348q-129 135 -336 168q-78 12 -170 12q-315 0 -541 -194q-121 -104 -170 -238 q-41 -115 -41 -291q0 -276 174 -463.5t449 -187.5q45 0 94 6q94 12 313 111q207 92 261 92q49 0 67 -39l45 -65q12 -18 12 -37q0 -61 -143 -103q-57 -14 -209 -55q-133 -37 -389 -37q-41 0 -121 -2t-121 -2q-246 0 -385 96.5t-235 323.5q-80 190 -80 356zM633 784 q0 -131 53 -252q76 -113 129 -112q47 0 121 76q59 61 92 202q27 117 27 226q0 281 -150 295q-125 12 -207 -158q-66 -137 -65 -277z" />
<glyph unicode="A" horiz-adv-x="1452" d="M0 831q0 385 98 680q43 55 140 62q143 10 161 16q156 55 383 56q80 0 174 -7q139 -80 213 -276q29 -47 45 -129q23 -110 33 -135q12 -172 13 -355q0 -328 -39 -622q-53 -45 -86 -45q-14 0 -29 6q-102 59 -102 140q0 12 2 24q-1 5 -1 11q-1 24 19 66q24 52 25 70 q0 20 -13 41q-70 -6 -403 -10q-238 -4 -408 -25l-8 -10q16 -121 21 -141q14 -82 47 -135q-10 -31 -19 -62q-23 -51 -71 -51q-55 0 -95 57q-35 49 -39 109q-8 94 -14 131q-47 262 -47 534zM186 659q0 -31 11 -45l149 -4q19 7 21 60v8q0 51 -48 51q-23 0 -65.5 -13.5 t-63.5 -13.5q-4 -25 -4 -43zM190 1040q0 -63 11 -122q12 0 835 43l23 12q-23 176 -27 198q-20 115 -61 187q-27 74 -113 88q-76 4 -151 10q-61 -10 -228 -33q-131 -18 -217 -53q-72 -158 -72 -330zM551 717q0 -10 6 -28.5t6 -29.5q0 -10 -2 -18q12 -18 37 -18t68 14 q15 38 15 84q0 10 -1 20q-29 6 -62 7q-31 0 -57 -7q-10 -12 -10 -24zM872 643q33 -8 70 -8q39 0 74 8q35 -4 43 29q4 10 4 29q0 13 -2 30q-12 32 -54 32q-7 0 -14 -1q-29 -3 -49 -3q-27 0 -39 5q-34 -36 -34 -96q0 -12 1 -25z" />
<glyph unicode="B" horiz-adv-x="1171" d="M0 1511q0 61 43 99q79 28 179 28h7q96 0 277 -32q350 -129 350 -408q0 -190 -172 -328v-8q260 -90 313 -287q20 -51 21 -102q0 -125 -133 -278q-256 -168 -656 -195h-3q-34 0 -87 46q-55 48 -80 52l-6 21q0 45 -10 299q-6 152 -6 305q0 152 12 270q-6 35 -10 170 q-4 104 -21 170q1 9 1 20q0 29 -8 73q-11 60 -11 85zM188 1450l31 -573l14 -15q238 61 365 185q82 80 82 176q0 22 -4 45q-103 195 -408 195q-19 0 -39 -1q-18 0 -41 -12zM211 571q0 -39 27 -43q8 8 51 19q35 5 37 28l-7 99q-86 -6 -106 -41q-2 8 -2 -62zM233 311 q0 -41 21 -100q27 -10 63 -10q35 0 64 10q0 23 -19 143q-23 4 -45 4q-41 0 -79 -16q-4 -14 -5 -31zM516 662l16 -205q14 -121 50 -195q68 2 204 100q47 57 48 125q0 104 -109 156q-82 39 -201 39z" />
<glyph unicode="C" horiz-adv-x="1107" d="M-2 741q0 238 100 426q166 311 385 410q80 61 187 61q70 0 123 -28q26 -36 26 -65q0 -12 -4 -23q-18 -47 -88 -49q-84 -4 -102 -21q-74 -31 -142 -90q63 -506 125 -1137q22 -28 58 -28h2q25 0 68.5 13t62.5 15q20 12 45 13q49 0 102 -43q18 -23 19 -54q-1 -24 -13 -47 q-18 -49 -88 -53q-80 -4 -100 -27q-63 -14 -125 -14q-295 0 -508 289q-133 180 -133 452zM195 840l10 -9q10 6 78 15q49 6 69 33q0 4 -20 135q-12 82 -13 137q-113 -160 -124 -311zM205 569q70 -217 201 -290l8 22q0 66 -17 182q-18 125 -20 181q-78 0 -111 -7 q-67 -12 -67 -58q0 -15 6 -30z" />
<glyph unicode="D" horiz-adv-x="1282" d="M0 156q0 35 7 105.5t7 107.5l-6 647q0 39 4 211l6 299q31 59 115 78q129 29 141 34q532 0 715 -313q129 -141 129 -358q0 -146 -61 -275q-106 -326 -461 -559q-113 -55 -395 -133q-20 10 -54 10h-57q-45 4 -65 33q-25 45 -25 113zM195 637q10 -20 28 -21q8 0 26.5 4.5 t26.5 4.5t15 -4q4 2 47 8q27 3 27 28q2 37 -46 45l-79 5q-27 6 -37 -21q0 -6 -8 -49zM203 291q0 -51 8 -76q9 -1 20 -1q55 0 140 36q10 96 10 128v9l-4 49q-18 8 -39 8q-25 0 -68 -20.5t-61 -22.5q-6 -66 -6 -110zM205 1090l2 -185q16 -8 37 -8q6 0 116 18l13 172l-13 25 q-16 2 -32 2q-18 0 -123 -24zM205 1354q0 -27 2 -60l158 17q6 20 2 49q-6 39 -5 53q-4 43 -55 43q-41 0 -94 -24q-8 -25 -8 -78zM555 1110q14 -160 27 -711l14 -22q147 117 215 233q123 213 123 383q0 86 -33 160q-82 182 -250 250q-51 20 -67 20q-20 0 -23 -24 q6 -61 10 -146q1 -13 1 -25q0 -62 -17 -118z" />
<glyph unicode="E" horiz-adv-x="1337" d="M0 109q23 160 23 374q0 82 -4.5 243t-4.5 243q0 182 17 340q1 12 1 29.5t-1 39.5l-4 74q0 109 86 133q80 2 254 27q160 24 247 24h7q35 0 69 -2q61 4 397 4q47 0 117 -90q1 -3 1 -7q0 -25 -23 -68q-37 -27 -95 -27q-8 0 -133 16q-36 1 -82 1q-115 0 -290 -7l-9 -10 q14 -74 19 -260q2 -164 24 -258l9 -8q39 0 118.5 8t118.5 8q49 0 88 -8q57 -43 58 -103q0 -12 -2 -26q-31 -53 -140 -66h-213q-29 -2 -37 -20v-23q0 -55 7 -143q8 -117 8 -166t-6 -90q4 -18 9 -40t17 -30q45 6 207 25q129 14 203 39q31 0 67 -33q45 -41 58 -47l-15 -62 q-14 -33 -41 -45l-483 -65q-272 -33 -487 -33q-12 -8 -33 -8q-25 0 -64 10q-35 18 -63 107zM205 635q0 -47 18 -84q66 9 195 27q6 18 0 55q-6 39 -2 59l-8 21q-133 -4 -199 -33q-4 -23 -4 -45zM205 1034l4 -145q109 4 188 26q12 23 9 60q-7 51 -5 63l-12 31q-8 0 -98 -6 q-61 -4 -86 -29zM205 1249h14q34 0 150 4q25 4 24 27q0 8 -3 26.5t-3 26.5q0 10 3 20.5t3 22.5q0 55 -78 56q-106 0 -106 -62q0 -12 3 -38.5t3 -39.5q0 -27 -10 -43zM207 295q0 -12 4 -51q4 -31 2 -49q59 -8 106 -9q64 1 105 15v137l-8 33q-15 1 -31 1q-66 0 -137 -14 q-41 -12 -41 -63z" />
<glyph unicode="F" horiz-adv-x="1310" d="M0 109q23 160 23 374q0 82 -4.5 243t-4.5 243q0 182 17 340q1 12 1 29.5t-1 39.5l-4 74q0 109 86 133q80 2 254 27q160 24 247 24h7q35 0 69 -2q61 4 397 4q47 0 117 -90q1 -3 1 -7q0 -25 -23 -68q-37 -27 -95 -27q-8 0 -133 16q-36 1 -82 1q-115 0 -290 -7l-9 -10 q14 -74 19 -260q2 -164 24 -258l9 -8q39 0 118.5 8t118.5 8q49 0 88 -8q57 -43 58 -103q0 -12 -2 -26q-31 -53 -140 -66h-213q-29 -2 -37 -20v-23q0 -55 7 -143q8 -117 8 -166t-6 -90q8 -29 8 -121q0 -127 -29 -139q-111 -14 -221 -31h-223q-12 -8 -33 -8q-25 0 -64 10 q-35 18 -63 107zM205 635q0 -47 18 -84q66 9 195 27q6 18 0 55q-6 39 -2 59l-8 21q-133 -4 -199 -33q-4 -23 -4 -45zM205 1034l4 -145q109 4 188 26q12 23 9 60q-7 51 -5 63l-12 31q-8 0 -98 -6q-61 -4 -86 -29zM205 1249h14q34 0 150 4q25 4 24 27q0 8 -3 26.5t-3 26.5 q0 10 3 20.5t3 22.5q0 55 -78 56q-106 0 -106 -62q0 -12 3 -38.5t3 -39.5q0 -27 -10 -43zM207 295q0 -12 4 -51q4 -31 2 -49q59 -8 106 -9q64 1 105 15v137l-8 33q-15 1 -31 1q-66 0 -137 -14q-41 -12 -41 -63z" />
<glyph unicode="G" horiz-adv-x="1220" d="M0 813q0 166 47 274q14 31 90 173q49 90 121 157q39 29 115 86q68 49 127 60q39 29 112 45q92 20 121 30q84 -2 168 -2q92 -10 129 -77q0 -39 -4 -114t-4 -114q0 -72 12 -125q-10 -59 -51 -76q-27 -10 -49 -10q-27 0 -47 15q-49 29 -60 98q-4 27 -4 129l4 31q2 20 0 34 q-4 18 -18 25q-29 0 -85 -18q-51 -17 -81 -17h-6q-178 -53 -299 -218t-137 -355q12 -221 47 -334q53 -172 184 -264h19q-6 43 -7 92q0 39 5.5 114.5t5.5 114.5q0 76 -15 135q0 82 74 119q131 14 395 33q66 -10 103 -78q18 -45 18 -104q0 -31 -6 -89.5t-6 -88.5q0 -29 4 -54 q0 -25 -17.5 -70.5t-17.5 -70.5q0 -18 8 -35v-22q0 -160 -114 -228q-125 -14 -211 -14q-315 0 -465 178q-35 57 -113 166q-92 242 -92 469zM668 584q0 -23 10 -54h117q27 6 32 39l4 58q-16 10 -38 10q-16 0 -53.5 -8t-57.5 -6q-14 -12 -14 -39zM672 258q18 -51 55 -51 q8 0 18 2h4q34 0 46 35q6 18 8 69q-15 13 -48 13h-5l-60 -4q-18 -4 -18 -23v-41z" />
<glyph unicode="H" horiz-adv-x="1390" d="M0 203q0 31 16 125q8 438 41 968l-10 115q0 78 51 117q0 84 74 92q27 -6 59 -6q39 0 118 10t118 10q131 0 176 -102q-5 -17 -5 -87q0 -23 1 -52q0 -86 -18 -136q10 -27 10 -55q0 -27 -12.5 -76t-12.5 -75q0 -33 15 -60q35 -8 75 -8q37 0 133 10q61 7 104 7q17 0 32 -1 l18 23l12 285q8 162 41 282q23 49 64 49q67 0 135 -94q-82 -547 -96 -1124q-6 -29 -6 -66q0 14 2 -4v-51v-55q0 -119 -78 -164q-10 -2 -49 -8q-29 -4 -43 8q-57 49 -58 84q0 12 6 26q16 106 25 285q10 221 16 287q-14 33 -61 33q-14 0 -47 -4.5t-47 -4.5q-15 1 -30 1 q-69 0 -136 -23q-5 -23 -5 -62q0 -29 3 -67q6 -94 6 -137q0 -176 -16 -396q-68 -57 -203 -71q-190 -20 -217 -27q-12 -4 -23 -4q-25 0 -68.5 48t-68.5 50q-41 33 -41 105zM219 240q20 -18 74 -19q41 0 82 2q41 20 49 80q0 52 2 103q-29 14 -66 14q-47 0 -131 -27zM231 723 q-2 -22 -2 -40q0 -50 13 -65q16 4 45 5h51h3q87 0 86 56q0 7 -1 15q-8 53 -57 54q-23 0 -69 -12.5t-69 -12.5zM242 944q18 -8 41 -8q14 0 49 7t53 5q29 10 29 58q0 14 -3 39.5t-3 39.5q-16 14 -35 15q-12 0 -40 -8.5t-44 -6.5q-31 -6 -39 -47q-2 -8 -4 -67q0 -18 -4 -27z M258 1384q2 -10 16 -94l105 6h7q35 0 38 39q0 37 2 72q-20 25 -59 25q-14 0 -49 -5.5t-54 -3.5q-6 -16 -6 -39z" />
<glyph unicode="I" horiz-adv-x="839" d="M0 1477q0 88 74 137q63 0 191 12t192 12q35 0 65 -2q45 -27 82 -80q0 -80 -5 -238.5t-5 -238.5q0 -168 18 -303v-22q0 -47 6 -119q8 -102 9 -143q0 -57 -9 -105q6 -96 7 -108q8 -60 28 -99q-6 -106 -94 -135q-35 -8 -174 -16q-31 -2 -98.5 -17.5t-102.5 -15.5 q-37 0 -73 27q-23 37 -105 124q13 166 13 490v47v44q0 326 14 493q1 8 1 18q0 44 -16 114q-18 85 -18 124zM213 1421v-11q0 -39 12 -101q49 2 86 2q59 0 82 -6q10 29 10 129l-10 10h-94q-59 0 -86 -23zM223 365q0 -113 23 -146l170 10q6 16 6 37q0 16 -6 46t-6 46q0 20 6 37 l-13 17q-23 6 -47 6q-70 0 -133 -53zM223 725l8 -129q59 6 175 22l4 119l-13 27l-92 -8q-55 -8 -82 -31zM229 1026q0 -55 11 -74q4 -1 9 -1q13 -1 33 5q30 8 44 5q8 -2 18 -3q33 0 45 41q2 15 8 70l-16 33q-16 0 -51 3t-51 3q-29 -4 -48 -16q-2 -37 -2 -66z" />
<glyph unicode="J" horiz-adv-x="1413" d="M0 473q0 94 53 94q18 0 74 -18q90 -63 90 -111q0 -8 -2 -20q23 -20 72 -99q41 -68 80 -88q75 -39 223 -39q17 0 35 1l18 22q-6 88 -6 186q0 135 17.5 406.5t17.5 406.5q0 156 -19 304q-1 5 -1 10q0 32 24 67q45 25 115 25h43q56 0 73 4q51 12 105 12h2q137 0 180 -110 q16 -418 16 -545q0 -305 -36 -524q-104 -356 -322 -420q-145 -43 -272 -43q-168 0 -273 69l-133 89q-14 33 -104 157q-70 96 -70 164zM852 690q0 -37 14 -90h99q27 6 34 51q5 37 7 72q-31 16 -76 16q-43 0 -74 -16q-4 -14 -4 -33zM856 344q2 -16 6 -53q13 4 64 78q2 8 2 14 q0 12 -19 10q-25 -2 -35 0q-18 -13 -18 -43v-6zM868 1333q0 -37 52 -47q8 0 79 -4q10 12 11 29q0 8 -3 25.5t-3 25.5q0 10 2 18l-19 70l-84 -8q-31 -10 -31 -80q-4 -16 -4 -29zM874 946q74 -12 113 -12q16 0 27 2l4 149q-20 8 -49 9q-41 0 -95 -19v-129z" />
<glyph unicode="K" horiz-adv-x="1290" d="M0 1460q0 59 37 96q4 47 57 56l92 4q18 -4 43 -4q29 0 85.5 7t84.5 7q94 0 140 -70q10 -49 10 -112q0 -47 -8.5 -143.5t-8.5 -143.5q0 -68 13 -119q53 51 180 248l207 320q16 10 49 32q63 -8 115 -86q1 -5 1 -10q0 -28 -26 -72q-25 -39 -48.5 -77.5t-117.5 -173.5 q-76 -109 -96 -187q25 -72 78 -211q20 -29 59 -147q66 -92 139 -234q100 -196 127 -237q-8 -63 -14 -82q-14 -43 -51 -64q-14 -6 -29 -6q-27 0 -88 37q-25 35 -59 143q-31 98 -70 140q-51 68 -120.5 219t-118.5 217q-25 -10 -62 -96l-55 -64q-5 -81 -5 -174q0 -47 1 -96 l8 -262q-18 -59 -76 -80q-29 -10 -111.5 -14.5t-113.5 -20.5q-53 -4 -66 -4q-76 0 -90 53q-45 6 -78 88l4 576v117q0 188 -4 450q1 11 1 25q0 27 -5 65q-10 66 -10 90zM190 1401q0 -14 5 -41q4 -27 0 -41q0 -43 49 -43q12 0 35.5 3t35.5 3t21 -2q14 20 14 57v9q-1 18 -1 32 q0 27 3 35q-12 26 -47 26q-7 0 -14 -1q-24 -3 -42 -3q-24 0 -36 5q-23 -10 -23 -39zM199 924v-29l20 -23q12 6 64 7q43 0 57 16l-16 186q-12 10 -29 11q-8 0 -25.5 -4.5t-25.5 -4.5q-10 0 -19 4q-28 -26 -28 -84q0 -13 2 -79zM209 272q0 -45 8 -69h12q18 -2 45 -2 q35 0 54 20l8 127l-8 10q-14 -6 -57.5 -3t-57.5 -7q-4 -43 -4 -76zM213 569q14 -14 39 -14q10 0 36.5 5t39.5 3q12 12 12 43q2 39 6 47q-10 35 -51 35q-25 0 -82 -14v-105z" />
<glyph unicode="L" horiz-adv-x="1265" d="M0 186q0 129 28.5 378t30.5 370q0 61 19 190q16 123 16 189q0 41 -4 80v65q0 43 21 62q20 6 59 49t63 43q12 0 25 -4q145 14 250 14q53 0 94 -4q74 -35 92 -76q4 -33 4 -67q0 -74 -20 -246q-15 -129 -15 -212q0 -18 1 -34q1 -30 1 -64q0 -130 -18 -319q-29 -299 -31 -377 q55 -18 158 -18h21h34q98 0 144 -10q12 2 24 2q45 0 95 -29q18 -10 28 -33l17 -35q1 -6 1 -11q0 -42 -42 -62q-61 -31 -74 -47q-17 26 -101 26h-6q-123 18 -321 21q-244 4 -318 10q-150 -45 -170 -45q-49 0 -83 37l-17 26q-6 63 -6 131zM201 270q0 -23 4 -39l10 -8 q59 0 180 8q12 27 13 72v74q-43 10 -97 10q-53 0 -96 -10q-14 -63 -14 -107zM231 610q0 -18 13 -30q7 3 52 3q22 0 54 -1h6q58 0 84 39q2 20 2 35q0 41 -12 53q-12 -2 -27 -2q-16 0 -45.5 3t-46.5 3q-39 0 -63 -23q0 -12 -8.5 -38.5t-8.5 -41.5zM258 907l188 4q15 27 15 79 q-1 5 -1 10v23q0 42 5 60l-8 11l-176 -15q-25 -88 -25 -145q0 -14 2 -27zM289 1419l4 -141q135 0 186 16q0 18 8 74q6 33 6 55q0 10 -1 19q-14 2 -31 2q-33 0 -86 -10q-63 -12 -86 -15z" />
<glyph unicode="M" horiz-adv-x="1783" d="M6 340q8 80 10 109q33 674 33 813q0 137 -8 258q16 57 76 77q59 0 178 20.5t178 20.5q96 0 168 -41l37 -47q63 -164 285 -610h16q78 90 198.5 273.5t186.5 273.5q33 66 45 82q33 41 80 41q63 0 96 -66q6 -57 6 -125q0 -57 -16 -284q-9 -129 -9 -229q0 -33 1 -64 q-16 -135 -17 -361v-122q0 -167 -4 -240q-2 -45 -71 -80q-18 -6 -37 -6q-41 0 -64.5 31.5t-23.5 74.5q0 17 6 61q4 33 4 54v12q-2 40 -2 91q0 137 12 360q16 295 16 429v28l-10 6q-51 -59 -151 -205q-94 -135 -156 -201q-63 -106 -143 -108h-3q-51 0 -87 63 q-49 164 -199 440l-12 11q-35 -258 -45 -537l-19 -549q-16 -55 -90 -82h-26q-42 0 -103 -4q-90 -8 -127 -8q-59 0 -109 12q-108 54 -108 216q0 44 8 112zM197 281q0 -39 4 -80q20 2 59 -2t53 -4q33 0 58 12l8 190q-16 8 -37 9q-25 0 -73 -22t-68 -24q-4 -43 -4 -79zM209 643 q0 -58 1 -58l1 3q10 -2 53 -2q45 0 119 2q-2 20 3 56t5 50q-27 -2 -69 -2q-43 0 -99 2q-14 -18 -14 -51zM219 950q0 -33 12 -57q63 -10 95 -10h4q48 0 78 22q2 14 8 84q1 12 1 23q0 33 -9 57l-84 6q-10 -4 -46 -3t-51 -13q0 -18 -4 -54t-4 -55zM229 1343q0 -45 15 -77 l174 -13q8 41 8 88q0 58 -2 93q-20 8 -45 8q-23 0 -68 -9.5t-67 -9.5q-14 -35 -15 -80z" />
<glyph unicode="N" horiz-adv-x="1560" d="M0 125q27 198 27 426v59q18 229 47 541q14 152 14 199q0 76 -14 137q12 66 80 96l122 35l21 16q18 -3 62.5 -3t113.5 3q27 1 50 1q78 0 122 -15q86 -29 113 -123q90 -158 194 -426q139 -356 174 -434q29 37 37 223q2 42 2 95t-2 118l-6 205q-1 20 -1 42q0 85 13 181 q12 39 23 76q18 47 45 61q9 1 17 1q97 0 124 -76q0 -10 -6 -142q-4 -80 -20 -139q0 -27 4 -82t4 -82q0 -45 -8 -78q6 -66 6 -139q0 -119 -29 -361q-26 -220 -26 -345v-25q-20 -57 -117 -78q-145 0 -150 152q-2 92 -22 123q-174 508 -328 819l-10 -8q-35 -635 -35 -1076 q-39 -51 -131 -61q-129 -14 -152 -25h-7q-42 0 -247 -16q-31 10 -58.5 60.5t-45.5 64.5zM205 291q0 -43 10 -76l203 4l26 23l2 168q-43 -2 -231 -43q-10 -33 -10 -76zM209 586l10 -11q80 6 232 31q6 20 6 47t-6 49q-39 8 -93 11h-94q-39 0 -49 -45q-2 -8 -6 -82zM242 918 q35 -12 82 -13q72 0 145 13l4 157l-12 15q-59 8 -107 8q-68 0 -106 -19zM276 1294q66 -2 189 -26q21 19 21 56q0 7 -1 15q-2 24 -2 41q0 25 4 33q-13 39 -58 39h-9q-8 0 -51 -4q-29 -2 -50 0q-33 -10 -38 -53v-72q-2 -16 -5 -29z" />
<glyph unicode="O" horiz-adv-x="1454" d="M0 829q0 72 6 150q63 240 184 383q88 104 160 178q94 96 205 98h22q215 0 375 -75q308 -146 308 -537q0 -266 -218 -704q-68 -137 -329 -297q-72 -25 -148 -25q-164 0 -278 104q-287 264 -287 725zM190 948q41 -27 209 -33l4 89q-29 9 -67 9q-13 0 -27 -1l-98 -8 q-22 -14 -22 -45q0 -5 1 -11zM195 735q-1 -16 -1 -29q0 -54 13 -75l160 4q20 16 20 55q0 17 -4 37q-21 7 -59 7q-15 0 -33 -1q-28 -2 -49 -2q-31 0 -47 4zM264 426q23 -45 84 -131q6 6 10 6q4 41 4 78q0 35 -4 78q-74 0 -94 -31zM311 1194h84q12 20 13 61q-1 25 -5 58 q-35 -12 -63.5 -48t-28.5 -71zM551 213q0 -14 10 -16q16 2 43 0q250 59 385 434q4 8 58 213q35 131 34 217q0 115 -59 207q-49 104 -174 141l-227 41q-18 -33 -21 -90q-2 -80 -2 -92q2 -80 2 -125q0 -156 -24.5 -465t-24.5 -465z" />
<glyph unicode="P" horiz-adv-x="1134" d="M0 125q12 154 20 598q8 369 29 602q1 14 1 31.5t-1 38.5l-4 71q0 100 68 140q186 23 350 32q309 -12 455 -206q82 -137 81 -297q1 -244 -243 -373q-27 -14 -205 -105q0 -14 14 -272q8 -152 8 -274q-14 -70 -135 -88q-59 -10 -86 -23h-233q-10 10 -72 55q-45 33 -47 70z M186 244q0 -20 13 -35q18 2 54 -4t50 -6q37 0 62 22q12 18 8 53q-6 48 -4 58q-23 4 -47 4q-55 0 -125 -25q0 -12 -5.5 -34.5t-5.5 -32.5zM195 827q0 -14 12 -22q47 2 78 6q50 8 75 20q0 78 -8 230q-14 4 -39 4q-39 0 -106 -10v-170q0 -10 -6 -29.5t-6 -28.5zM199 561 q0 -14 4 -33q27 -10 69 -10h74q20 6 21 33q0 16 -2 43l-9 20q-23 4 -57 -6q-43 -12 -57 -12q-10 0 -23 2q-20 -6 -20 -37zM223 1257q31 -18 117 -18q4 20 4 47q0 53 -14 133q-6 21 -42 21h-7q-57 -2 -58 -74v-109zM535 1440v-16q0 -92 16 -533l8 -6q100 31 205 123 q53 72 53 163q0 54 -20 95q-35 145 -262 174z" />
<glyph unicode="Q" horiz-adv-x="1452" d="M0 831q0 72 6 150q59 229 184 381q113 135 158 178q106 96 205 98h22q215 0 375 -75q305 -146 305 -533q0 -262 -206 -684q76 -125 112 -203q27 -20 27 -49q0 -8 -2 -14q-10 -49 -51 -80q-37 -18 -66 -18q-63 0 -94 96q-20 63 -29 80l-16 26q-68 -63 -219 -155 q-74 -23 -148 -23q-164 0 -278 105q-285 260 -285 720zM190 950q39 -27 209 -32l4 88q-31 9 -68 9q-13 0 -26 -1l-98 -8q-22 -14 -22 -45q0 -5 1 -11zM195 737q-1 -19 -1 -35q0 -48 13 -69l160 6q18 16 18 57q0 17 -2 35q-26 7 -63 7q-15 0 -31 -1q-35 -3 -58.5 -3t-35.5 3z M264 430q23 -45 84 -129q6 6 8 4q6 41 6 78q0 35 -6 78q-72 0 -92 -31zM311 1196h82q14 20 15 66q-1 24 -5 53q-35 -12 -63.5 -48t-28.5 -71zM549 217q0 -14 10 -16q16 2 43 0q131 31 234 157q-53 92 -93 152q-20 33 -47 80q-12 16 -12 35q0 31 23.5 51t54.5 20 q86 0 170 -149l10 -19q25 49 45 105q2 16 55 213q35 127 35 217q0 115 -59 205q-47 104 -174 141l-226 41q-18 -33 -20 -88q-2 -80 -2 -94q2 -82 2 -125q0 -154 -24.5 -463t-24.5 -463z" />
<glyph unicode="R" horiz-adv-x="1150" d="M0 1458q0 123 131 156l100 24q129 -6 281 -18q389 -34 389 -475v-31q-23 -82 -39 -121q-27 -63 -67 -108q-1 -10 -1 -21q0 -47 15 -98q31 -113 98 -336q39 -119 60 -221q18 -20 18 -39q0 -15 -12 -27q-20 -45 -66 -63q-23 -4 -41 -4q-86 0 -92 114q-2 55 -10 84 q-49 184 -109 385q-6 39 -34 107h-8q-44 0 -74 -41q-4 -55 -4 -125q0 -59 5 -176t5 -176q0 -70 -6 -125q-47 -66 -172 -80q-145 -18 -193 -43q-119 18 -164 82q4 98 4 262l2 588q0 225 9 397q-25 74 -25 129zM182 1350q0 -51 13 -82q-3 0 -3 -1t68 -1q39 0 57 12l-14 170 q-18 10 -41 10q-35 0 -78 -24v-23q-2 -53 -2 -61zM186 293q0 -23 15 -80q152 19 152 20h-1q16 8 21 29q2 14 0 41q-2 25 -4 39q-25 10 -56 10h1q0 -1 -109 -16q-18 -16 -19 -43zM186 604l2 -67q18 -4 41 -5q-3 0 -3 1q0 3 132 18v139q-27 -2 -77 -15t-76 -16 q-20 -16 -19 -55zM186 956v-19q0 -49 9 -77h5q45 0 152 35l-8 168q-25 20 -65 20q-49 0 -91 -24q0 -47 -2 -103zM496 1427q0 -143 22 -337v-7q0 -38 19 -133q57 12 118 68q80 92 80 196q0 63 -36 119t-95 74q-65 21 -97 21q-6 0 -11 -1z" />
<glyph unicode="S" horiz-adv-x="1081" d="M0 430q0 31 4 59q39 76 70 76q20 6 52 -10l32 -16q2 -12 16 -40t14 -44t-12 -31q-2 -16 -2 -31q0 -55 41 -119.5t90 -87.5q16 -7 48 -7q21 0 50 3l19 23q14 145 20 362q8 274 17 367q-23 29 -82 61q-74 41 -92 56q-113 88 -113 243q0 49 12 101q45 115 178 182 q119 61 252 61q131 0 230 -108q29 -66 28 -80q0 -51 -43 -64q-16 -8 -30 -8q-23 0 -64 45t-63 45q-12 0 -27 -4q-14 -32 -14 -91q0 -20 2 -42q3 -44 3 -75q0 -42 -5 -62l-4 -84q2 -51 35 -70q251 -146 251 -523q0 -49 -4 -97q-41 -123 -75 -182q-57 -100 -146 -138 q-236 -100 -332 -100q-68 0 -127 25q-229 186 -229 405zM334 1294q0 -43 39 -85t82 -52q2 35 10 121q4 41 4 71.5t-4 49.5q-8 26 -22 26h-1q-10 0 -39 -22q-20 -14 -38 -31q-31 -43 -31 -78zM596 336q0 -47 8 -78q144 77 144 227q-39 10 -72 11q-37 0 -68 -15 q-12 -86 -12 -145zM612 721q0 -29 19 -49q24 -1 43 -1q38 0 53 5q-16 113 -96 164l-8 -11q2 -20 -4.5 -56t-6.5 -52z" />
<glyph unicode="T" horiz-adv-x="1464" d="M-4 1479v-1l4 85q12 27 49 26h62q70 2 321 23q197 16 322 16q68 0 129 -4q25 5 70 5q34 0 81 -3q24 -2 46 -2q65 0 104 14q12 -2 69 -12q43 -6 58 -37q26 -40 26 -90q0 -13 -2 -26q-41 -57 -112 -58q-31 0 -93.5 12.5t-93.5 12.5q-37 0 -65 -13q-15 -54 -15 -144v-11 q1 -62 1 -102t-1 -58q-20 -313 -67 -889q10 -55 10 -84q0 -76 -53 -116q-43 -8 -148 -9q-94 0 -145 -14q-14 14 -82 20q-59 6 -74 35q-88 39 -88 168q0 29 4 84t4 84q0 23 -2 41q34 328 34 481q0 23 -1 43q12 78 17 222q6 154 10 223q-20 18 -53 18q-16 0 -47 -4t-47.5 -6 t-63.5 -12q-37 -8 -66 -8q-98 0 -102 90zM500 293q0 -53 12 -78h17q62 0 169 12l11 148q-23 6 -72 6q-47 0 -121 -6l-12 -15q-4 -39 -4 -67zM530 594l179 12q31 8 30 45v66q2 20 -22 24q-35 4 -39 9q-14 -10 -41 -11q-10 0 -31.5 4.5t-32.5 4.5q-29 0 -43 -17v-137z M545 1047q0 -4 4 -80q76 -18 125 -19q45 0 80 13q8 20 8 57q0 33 -6 78q-66 12 -119 12q-33 0 -59 -4q-31 -10 -33 -57zM561 1323q27 -12 117 -12q34 0 76 2q10 35 10 59q0 35 -21 51l-159 11q-16 -23 -23 -111z" />
<glyph unicode="U" horiz-adv-x="1495" d="M0 1419q0 102 53 127q29 29 72 29q18 0 52 -5t52 -5t33 4h10q40 0 110 14q79 16 116 16q86 0 129 -69q35 -201 55 -612q4 -76 23 -627q0 -27 20 -60q182 76 283 285q55 115 120 391q14 106 15 209q0 240 -74 418q16 88 82 104q92 -10 113 -69q10 -151 61 -301l-10 -346 q-59 -328 -131 -490q-115 -258 -332 -375l-35 -30q-88 -27 -188 -27q-389 0 -490 303q-23 68 -55 309q-6 53 -27 252q-4 49 -16 283q-8 176 -41 272zM211 1315q0 -31 8 -47q53 -6 121 -6q66 0 119 6v6q2 18 2 51t-15 51l-75 4q-20 -5 -61 -5h-15h-9q-46 0 -71 -9 q-4 -31 -4 -51zM219 1049q2 -41 19 -115q27 -4 57 -4h6q78 0 176 26v9q0 35 -14 88l-230 8zM262 705q0 -4 4 -54q2 -31 23 -39q12 2 28 2q18 0 54.5 -4t54.5 -4q47 0 74 23q-6 12 -6 43v45q-4 31 -31 31q-12 0 -27 -5q-14 -12 -85.5 -14t-88.5 -24zM319 379q-2 -10 19 -62 q63 -88 140 -88q11 0 22 2q2 49 2 86q0 63 -6 89h-80q-12 -6 -48 -7.5t-49 -19.5z" />
<glyph unicode="V" horiz-adv-x="1359" d="M0 1501q0 27 20 43q27 33 78 35l88 4q121 55 201 55q63 0 111 -28q39 -68 82 -187q53 -147 71 -190q31 -74 140 -334h10q20 72 125 336q82 207 96 348q16 33 78 47q94 -20 112 -86q-16 -100 -59 -217q-27 -70 -80 -211q-72 -203 -106 -295q-20 -100 -97 -315 q-72 -201 -90 -316q-35 -18 -46 -98t-54 -92q-18 -10 -39 -10q-27 0 -59 14q-43 57 -76 180q-37 139 -64 189q-84 233 -206 518l-222 514q2 16 -6 49t-8 47zM227 1409q0 -39 25 -74h74q43 0 63 27l-33 76q-43 -6 -129 -29zM336 1139v-7q0 -41 41 -118q14 -4 29 -4q14 0 46 8 t50 6q12 6 12 16q0 8 -6 24.5t-6 22.5q0 68 -66 68q-4 0 -100 -16zM465 801q4 -45 59 -45q12 0 39 2t39 2q15 0 23 -2q-2 39 -27 73q-16 1 -43 1t-63 -1q-28 -3 -28 -21q0 -4 1 -9zM569 561q6 -57 60 -141l33 65q18 37 18 68q-31 18 -62 18q-25 0 -49 -10z" />
<glyph unicode="W" horiz-adv-x="2029" d="M0 1501q0 27 20 43q27 33 78 35l88 4q121 55 201 55q63 0 111 -28q39 -68 82 -187q53 -147 71 -190q31 -74 140 -334h10q20 72 125 336q82 207 96 348q16 33 78 47q27 -6 51 -18v6l16 -8l7 -13q29 -23 38 -53l-4 -16q39 -104 115 -295q37 -94 139 -334h11q14 57 124 336 q80 201 97 348q16 33 78 47q92 -20 112 -86q-16 -98 -61 -217q-23 -57 -78 -211q-35 -102 -107 -295q-23 -111 -97.5 -317.5t-90.5 -313.5q-33 -16 -44 -97t-54 -93q-18 -10 -39 -10q-27 0 -60 14q-45 59 -77 182q-37 139 -62 187q-8 23 -160 391q-18 -76 -94 -285 q-63 -176 -80 -289q-35 -18 -46 -98t-54 -92q-18 -10 -39 -10q-27 0 -59 14q-43 57 -76 180q-37 139 -64 189q-84 233 -206 518l-222 514q2 16 -6 49t-8 47zM227 1409q0 -39 25 -74h74q43 0 63 27l-33 76q-43 -6 -129 -29zM336 1139v-7q0 -41 41 -118q14 -4 29 -4q14 0 46 8 t50 6q12 6 12 16q0 8 -6 24.5t-6 22.5q0 68 -66 68q-4 0 -100 -16zM465 801q4 -45 59 -45q12 0 39 2t39 2q15 0 23 -2q-2 39 -27 73q-16 1 -43 1t-63 -1q-28 -3 -28 -21q0 -4 1 -9zM569 561q6 -57 60 -141l33 65q18 37 18 68q-31 18 -62 18q-25 0 -49 -10zM1006 1139v-7 q0 -41 43 -118q14 -4 28 -4t46.5 8t50.5 6q12 6 12 16q0 8 -6 24.5t-6 22.5q0 68 -68 68q-16 -2 -100 -16zM1137 801q4 -45 59 -45q12 0 39 2t39 2t22 -2q-4 39 -26 73q-28 1 -55 1t-52 -1q-29 -2 -29 -19q0 -5 3 -11zM1241 561q6 -57 59 -141q16 33 31 65q21 43 21 68 q-31 18 -62 18q-25 0 -49 -10z" />
<glyph unicode="X" horiz-adv-x="1505" d="M2 1415q-1 3 -1 7q1 20 29 52q34 36 31 56q16 23 58 26q23 2 66.5 4.5t130.5 11.5t133 8q35 0 63 -3q55 -18 90 -86q16 -31 60 -113q18 -35 153 -221h10q37 76 148 223q102 141 141 228q26 30 62 30h2q53 0 86 -49q18 -20 18 -43t-29 -63q-23 -29 -45 -60 q-84 -115 -278 -456q45 -74 114 -228q20 -27 123 -190q115 -184 176 -311q8 -17 8 -37q0 -29 -16 -64q-53 -43 -250 -88q-6 1 -12 1q-37 0 -98 -21q-78 -27 -109 -27q-57 0 -94 55q-68 129 -215 383h-16l-146 -198q-82 -115 -127 -213q-20 -23 -104 -29q-2 6 -35 61 q-20 35 -20 64t22 51q45 59 162 215q78 104 145 223q-6 16 -88 158q-37 63 -184 318q-109 184 -164 325zM215 1378q2 -76 76 -143q53 8 151 41h6q24 0 60 12q-4 18 -26.5 50t-28.5 44h-20q-50 0 -218 -4zM383 1061l59 -115q34 -65 103 -65h2q31 0 97 17q59 15 93 15h8 q0 14 -14 39l-14 25l-84 125q-197 0 -250 -41zM608 705q27 -92 80 -136l115 13q65 10 112 26q-16 57 -55 115q-45 4 -86 4q-100 0 -166 -22zM786 391q0 -6 7.5 -16t48.5 -86q29 -53 67 -82q47 2 129 20q35 2 90 25l-86 164q-29 10 -63 10q-29 0 -85 -10t-82 -10t-26 -15z " />
<glyph unicode="Y" horiz-adv-x="1210" d="M0 1532q0 39 37 55q127 14 321 47q25 4 35 4q72 0 125 -92q74 -129 90 -143l123 -168q20 0 53 55q106 180 144 285q18 25 45 24q16 0 47 -13t45 -13q20 -31 20 -62q0 -41 -47 -106q-53 -72 -61 -102l-332 -635q-92 -180 -336 -658q-16 -14 -47 -14q-16 0 -37 4 q-67 42 -67 104q0 12 2 25q18 16 39.5 55t33.5 54l136 264q63 123 120 272q-27 84 -112 187l-144 172q-66 106 -219 309q0 14 -7 45t-7 45zM233 1442q-2 -18 19 -45q18 -80 127 -80q24 0 65 6v10l-82 125q-22 2 -42 2q-58 0 -87 -18zM449 1133q23 -18 63.5 -84t79.5 -91 l35 58q6 14 6 26q0 39 -60 97l-22 10q-12 -4 -37 -2q-31 6 -37 6q-23 0 -28 -20z" />
<glyph unicode="Z" horiz-adv-x="1509" d="M-2 102q0 41 59 113q74 84 84 109q23 35 287 376q164 213 270 383l-8 11h-8q-61 0 -436 -21q-70 -20 -115 -20t-76 18q-49 80 -49 148q0 31 10 57l-10 252q35 43 103 43q16 0 48.5 -3t49.5 -3q49 0 80 18q152 4 483 29q313 25 483 26l95 -73q6 -14 6 -27q0 -41 -101 -137 q-37 -35 -133 -125q-72 -72 -100 -146q-102 -92 -213 -239q-92 -133 -184 -264q2 -18 26 -23q35 -6 41 -6q68 0 200 -9t200 -9q88 0 163 10q27 -20 54 -41q31 -27 41 -53q3 -22 3 -47.5t-3 -53.5q-10 -90 -11 -98q1 -45 17 -80q2 -45 -43 -88q-61 -59 -72 -78l-37 -10 q-82 2 -170 2q-160 0 -817 -29q-18 0 -56 -7t-59 -7q-43 0 -72.5 29.5t-29.5 72.5zM209 1368q-1 -10 -1 -20q0 -35 11 -72q49 4 55 4q35 6 50 18q-6 12 0 35q10 35 10 41q-53 14 -74 15q-33 0 -51 -21zM346 227h33q15 7 50 7q23 0 56 -3q17 -1 31 -1q51 0 74 16l6 157 q-31 10 -59 11q-43 0 -82 -23q-49 -57 -64 -78q-37 -51 -45 -86zM510 1329q14 -37 55 -37q16 0 47 5.5t47 5.5q14 0 27 -5q10 20 10 43v48q-14 20 -59 20h-12q-21 -1 -36 -1q-31 0 -40 3q-27 2 -35 -29zM795 240q14 -4 24 -4q17 0 25 10q2 12 2 22q0 18 -9.5 54t-9.5 55 q-10 18 -20 18q-4 0 -8 -2q0 -49 -4 -153zM881 1360q0 -16 14 -27q68 55 68 90q-16 8 -33 9q-23 0 -45 -17q2 -6 2 -14q0 -6 -3 -20.5t-3 -20.5zM1026 362q0 -10 6 -31.5t6 -33.5q0 -8 -2 -16q2 -29 80 -31h6q36 0 35 24q0 11 -6 48q-6 33 6 49q-16 20 -53 20h-62 q-16 -10 -16 -29z" />
<glyph unicode="a" horiz-adv-x="1460" d="M0 831q0 385 98 680q43 55 140 62q143 10 161 16q156 55 383 56q80 0 174 -7q139 -80 213 -276q29 -47 45 -129q23 -110 33 -135q12 -172 13 -355q0 -328 -39 -622q-53 -45 -86 -45q-14 0 -29 6q-102 59 -102 140q0 12 2 24q-1 5 -1 11q-1 24 19 66q24 52 25 70 q0 20 -13 41q-70 -6 -403 -10q-238 -4 -408 -25l-8 -10q16 -121 21 -141q14 -82 47 -135q-10 -31 -19 -62q-23 -51 -71 -51q-55 0 -95 57q-35 49 -39 109q-8 94 -14 131q-47 262 -47 534zM186 659q0 -31 11 -45l149 -4q19 7 21 60v8q0 51 -48 51q-23 0 -65.5 -13.5 t-63.5 -13.5q-4 -25 -4 -43zM190 1040q0 -63 11 -122q12 0 835 43l23 12q-23 176 -27 198q-20 115 -61 187q-27 74 -113 88q-76 4 -151 10q-61 -10 -228 -33q-131 -18 -217 -53q-72 -158 -72 -330zM551 717q0 -10 6 -28.5t6 -29.5q0 -10 -2 -18q12 -18 37 -18t68 14 q15 38 15 84q0 10 -1 20q-29 6 -62 7q-31 0 -57 -7q-10 -12 -10 -24zM872 643q33 -8 70 -8q39 0 74 8q35 -4 43 29q4 10 4 29q0 13 -2 30q-12 32 -54 32q-7 0 -14 -1q-29 -3 -49 -3q-27 0 -39 5q-34 -36 -34 -96q0 -12 1 -25z" />
<glyph unicode="b" horiz-adv-x="1171" d="M0 1511q0 61 43 99q79 28 179 28h7q96 0 277 -32q350 -129 350 -408q0 -190 -172 -328v-8q260 -90 313 -287q20 -51 21 -102q0 -125 -133 -278q-256 -168 -656 -195h-3q-34 0 -87 46q-55 48 -80 52l-6 21q0 45 -10 299q-6 152 -6 305q0 152 12 270q-6 35 -10 170 q-4 104 -21 170q1 9 1 20q0 29 -8 73q-11 60 -11 85zM188 1450l31 -573l14 -15q238 61 365 185q82 80 82 176q0 22 -4 45q-103 195 -408 195q-19 0 -39 -1q-18 0 -41 -12zM211 571q0 -39 27 -43q8 8 51 19q35 5 37 28l-7 99q-86 -6 -106 -41q-2 8 -2 -62zM233 311 q0 -41 21 -100q27 -10 63 -10q35 0 64 10q0 23 -19 143q-23 4 -45 4q-41 0 -79 -16q-4 -14 -5 -31zM516 662l16 -205q14 -121 50 -195q68 2 204 100q47 57 48 125q0 104 -109 156q-82 39 -201 39z" />
<glyph unicode="c" horiz-adv-x="1001" d="M-2 741q0 238 100 426q166 311 385 410q80 61 187 61q70 0 123 -28q26 -36 26 -65q0 -12 -4 -23q-18 -47 -88 -49q-84 -4 -102 -21q-74 -31 -142 -90q63 -506 125 -1137q22 -28 58 -28h2q25 0 68.5 13t62.5 15q20 12 45 13q49 0 102 -43q18 -23 19 -54q-1 -24 -13 -47 q-18 -49 -88 -53q-80 -4 -100 -27q-63 -14 -125 -14q-295 0 -508 289q-133 180 -133 452zM195 840l10 -9q10 6 78 15q49 6 69 33q0 4 -20 135q-12 82 -13 137q-113 -160 -124 -311zM205 569q70 -217 201 -290l8 22q0 66 -17 182q-18 125 -20 181q-78 0 -111 -7 q-67 -12 -67 -58q0 -15 6 -30z" />
<glyph unicode="d" horiz-adv-x="1296" d="M0 156q0 35 7 105.5t7 107.5l-6 647q0 39 4 211l6 299q31 59 115 78q129 29 141 34q532 0 715 -313q129 -141 129 -358q0 -146 -61 -275q-106 -326 -461 -559q-113 -55 -395 -133q-20 10 -54 10h-57q-45 4 -65 33q-25 45 -25 113zM195 637q10 -20 28 -21q8 0 26.5 4.5 t26.5 4.5t15 -4q4 2 47 8q27 3 27 28q2 37 -46 45l-79 5q-27 6 -37 -21q0 -6 -8 -49zM203 291q0 -51 8 -76q9 -1 20 -1q55 0 140 36q10 96 10 128v9l-4 49q-18 8 -39 8q-25 0 -68 -20.5t-61 -22.5q-6 -66 -6 -110zM205 1090l2 -185q16 -8 37 -8q6 0 116 18l13 172l-13 25 q-16 2 -32 2q-18 0 -123 -24zM205 1354q0 -27 2 -60l158 17q6 20 2 49q-6 39 -5 53q-4 43 -55 43q-41 0 -94 -24q-8 -25 -8 -78zM555 1110q14 -160 27 -711l14 -22q147 117 215 233q123 213 123 383q0 86 -33 160q-82 182 -250 250q-51 20 -67 20q-20 0 -23 -24 q6 -61 10 -146q1 -13 1 -25q0 -62 -17 -118z" />
<glyph unicode="e" horiz-adv-x="1302" d="M0 109q23 160 23 374q0 82 -4.5 243t-4.5 243q0 182 17 340q1 12 1 29.5t-1 39.5l-4 74q0 109 86 133q80 2 254 27q160 24 247 24h7q35 0 69 -2q61 4 397 4q47 0 117 -90q1 -3 1 -7q0 -25 -23 -68q-37 -27 -95 -27q-8 0 -133 16q-36 1 -82 1q-115 0 -290 -7l-9 -10 q14 -74 19 -260q2 -164 24 -258l9 -8q39 0 118.5 8t118.5 8q49 0 88 -8q57 -43 58 -103q0 -12 -2 -26q-31 -53 -140 -66h-213q-29 -2 -37 -20v-23q0 -55 7 -143q8 -117 8 -166t-6 -90q4 -18 9 -40t17 -30q45 6 207 25q129 14 203 39q31 0 67 -33q45 -41 58 -47l-15 -62 q-14 -33 -41 -45l-483 -65q-272 -33 -487 -33q-12 -8 -33 -8q-25 0 -64 10q-35 18 -63 107zM205 635q0 -47 18 -84q66 9 195 27q6 18 0 55q-6 39 -2 59l-8 21q-133 -4 -199 -33q-4 -23 -4 -45zM205 1034l4 -145q109 4 188 26q12 23 9 60q-7 51 -5 63l-12 31q-8 0 -98 -6 q-61 -4 -86 -29zM205 1249h14q34 0 150 4q25 4 24 27q0 8 -3 26.5t-3 26.5q0 10 3 20.5t3 22.5q0 55 -78 56q-106 0 -106 -62q0 -12 3 -38.5t3 -39.5q0 -27 -10 -43zM207 295q0 -12 4 -51q4 -31 2 -49q59 -8 106 -9q64 1 105 15v137l-8 33q-15 1 -31 1q-66 0 -137 -14 q-41 -12 -41 -63z" />
<glyph unicode="f" horiz-adv-x="1310" d="M0 109q23 160 23 374q0 82 -4.5 243t-4.5 243q0 182 17 340q1 13 1 30t-1 39l-4 74q0 109 86 133q80 2 254 27q160 24 247 24h7q35 0 69 -2q61 4 397 4q47 0 117 -90q1 -3 1 -7q0 -25 -23 -68q-37 -27 -95 -27q-8 0 -133 16q-36 1 -82 1q-115 0 -290 -7l-9 -10 q14 -74 19 -260q2 -164 24 -258l9 -8q39 0 118.5 8t118.5 8q49 0 88 -8q57 -43 58 -103q0 -12 -2 -26q-31 -53 -140 -66h-213q-29 -2 -37 -20v-23q0 -55 7 -143q8 -117 8 -166t-6 -90q8 -29 8 -121q0 -127 -29 -139q-111 -14 -221 -31h-223q-12 -8 -33 -8q-25 0 -64 10 q-35 18 -63 107zM205 635q0 -47 18 -84q66 9 195 27q6 18 0 55q-6 39 -2 59l-8 21q-133 -4 -199 -33q-4 -23 -4 -45zM205 1034l4 -145q109 4 188 26q12 23 9 60q-7 51 -5 63l-12 31q-8 0 -98 -6q-61 -4 -86 -29zM205 1249q3 -1 14 -1q35 0 150 5q25 4 24 27q0 8 -3 26.5 t-3 26.5q0 10 3 20.5t3 22.5q0 55 -78 56q-106 0 -106 -62q0 -12 3 -38.5t3 -39.5q0 -27 -10 -43zM207 295q0 -12 4 -51q4 -31 2 -49q59 -8 106 -9q64 1 105 15v137l-8 33q-15 1 -31 1q-66 0 -137 -14q-41 -12 -41 -63z" />
<glyph unicode="g" horiz-adv-x="1220" d="M0 813q0 166 47 274q14 31 90 173q49 90 121 157q39 29 115 86q68 49 127 60q39 29 112 45q92 20 121 30q84 -2 168 -2q92 -10 129 -77q0 -39 -4 -114t-4 -114q0 -72 12 -125q-10 -59 -51 -76q-27 -10 -49 -10q-27 0 -47 15q-49 29 -60 98q-4 27 -4 129l4 31q2 20 0 34 q-4 18 -18 25q-29 0 -85 -18q-51 -17 -81 -17h-6q-178 -53 -299 -218t-137 -355q12 -221 47 -334q53 -172 184 -264h19q-6 43 -7 92q0 39 5.5 114.5t5.5 114.5q0 76 -15 135q0 82 74 119q131 14 395 33q66 -10 103 -78q18 -45 18 -104q0 -31 -6 -89.5t-6 -88.5q0 -29 4 -54 q0 -25 -17.5 -70.5t-17.5 -70.5q0 -18 8 -35v-22q0 -160 -114 -228q-125 -14 -211 -14q-315 0 -465 178q-35 57 -113 166q-92 242 -92 469zM668 584q0 -23 10 -54h117q27 6 32 39l4 58q-16 10 -38 10q-16 0 -53.5 -8t-57.5 -6q-14 -12 -14 -39zM672 258q18 -51 55 -51 q8 0 18 2h4q34 0 46 35q6 18 8 69q-15 13 -48 13h-5l-60 -4q-18 -4 -18 -23v-41z" />
<glyph unicode="h" horiz-adv-x="1390" d="M0 203q0 31 16 125q8 438 41 968l-10 115q0 78 51 117q0 84 74 92q27 -6 59 -6q39 0 118 10t118 10q131 0 176 -102q-5 -17 -5 -87q0 -23 1 -52q0 -86 -18 -136q10 -27 10 -55q0 -27 -12.5 -76t-12.5 -75q0 -33 15 -60q35 -8 75 -8q37 0 133 10q61 7 104 7q17 0 32 -1 l18 23l12 285q8 162 41 282q23 49 64 49q67 0 135 -94q-82 -547 -96 -1124q-6 -29 -6 -66q0 14 2 -4v-51v-55q0 -119 -78 -164q-10 -2 -49 -8q-29 -4 -43 8q-57 49 -58 84q0 12 6 26q16 106 25 285q10 221 16 287q-14 33 -61 33q-14 0 -47 -4.5t-47 -4.5q-15 1 -30 1 q-69 0 -136 -23q-5 -23 -5 -62q0 -29 3 -67q6 -94 6 -137q0 -176 -16 -396q-68 -57 -203 -71q-190 -20 -217 -27q-12 -4 -23 -4q-25 0 -68.5 48t-68.5 50q-41 33 -41 105zM219 240q20 -18 74 -19q41 0 82 2q41 20 49 80q0 52 2 103q-29 14 -66 14q-47 0 -131 -27zM231 723 q-2 -22 -2 -40q0 -50 13 -65q16 4 45 5h51h3q87 0 86 56q0 7 -1 15q-8 53 -57 54q-23 0 -69 -12.5t-69 -12.5zM242 944q18 -8 41 -8q14 0 49 7t53 5q29 10 29 58q0 14 -3 39.5t-3 39.5q-16 14 -35 15q-12 0 -40 -8.5t-44 -6.5q-31 -6 -39 -47q-2 -8 -4 -67q0 -18 -4 -27z M258 1384q2 -10 16 -94l105 6h7q35 0 38 39q0 37 2 72q-20 25 -59 25q-14 0 -49 -5.5t-54 -3.5q-6 -16 -6 -39z" />
<glyph unicode="i" horiz-adv-x="839" d="M0 1477q0 88 74 137q63 0 191 12t192 12q35 0 65 -2q45 -27 82 -80q0 -80 -5 -238.5t-5 -238.5q0 -168 18 -303v-22q0 -47 6 -119q8 -102 9 -143q0 -57 -9 -105q6 -96 7 -108q8 -60 28 -99q-6 -106 -94 -135q-35 -8 -174 -16q-31 -2 -98.5 -17.5t-102.5 -15.5 q-37 0 -73 27q-23 37 -105 124q13 166 13 490v47v44q0 326 14 493q1 8 1 18q0 44 -16 114q-18 85 -18 124zM213 1421v-11q0 -39 12 -101q49 2 86 2q59 0 82 -6q10 29 10 129l-10 10h-94q-59 0 -86 -23zM223 365q0 -113 23 -146l170 10q6 16 6 37q0 16 -6 46t-6 46q0 20 6 37 l-13 17q-23 6 -47 6q-70 0 -133 -53zM223 725l8 -129q59 6 175 22l4 119l-13 27l-92 -8q-55 -8 -82 -31zM229 1026q0 -55 11 -74q4 -1 9 -1q13 -1 33 5q30 8 44 5q8 -2 18 -3q33 0 45 41q2 15 8 70l-16 33q-16 0 -51 3t-51 3q-29 -4 -48 -16q-2 -37 -2 -66z" />
<glyph unicode="j" horiz-adv-x="1413" d="M0 473q0 94 53 94q18 0 74 -18q90 -63 90 -111q0 -8 -2 -20q23 -20 72 -99q41 -68 80 -88q75 -39 223 -39q17 0 35 1l18 22q-6 88 -6 186q0 135 17.5 406.5t17.5 406.5q0 156 -19 304q-1 5 -1 10q0 32 24 67q45 25 115 25h43q56 0 73 4q51 12 105 12h2q137 0 180 -110 q16 -418 16 -545q0 -305 -36 -524q-104 -356 -322 -420q-145 -43 -272 -43q-168 0 -273 69l-133 89q-14 33 -104 157q-70 96 -70 164zM852 690q0 -37 14 -90h99q27 6 34 51q5 37 7 72q-31 16 -76 16q-43 0 -74 -16q-4 -14 -4 -33zM856 344q2 -16 6 -53q13 4 64 78q2 8 2 14 q0 12 -19 10q-25 -2 -35 0q-18 -13 -18 -43v-6zM868 1333q0 -37 52 -47q8 0 79 -4q10 12 11 29q0 8 -3 25.5t-3 25.5q0 10 2 18l-19 70l-84 -8q-31 -10 -31 -80q-4 -16 -4 -29zM874 946q74 -12 113 -12q16 0 27 2l4 149q-20 8 -49 9q-41 0 -95 -19v-129z" />
<glyph unicode="k" horiz-adv-x="1290" d="M0 1460q0 59 37 96q4 47 57 56l92 4q18 -4 43 -4q29 0 85.5 7t84.5 7q94 0 140 -70q10 -49 10 -112q0 -47 -8.5 -143.5t-8.5 -143.5q0 -68 13 -119q53 51 180 248l207 320q16 10 49 32q63 -8 115 -86q1 -5 1 -10q0 -28 -26 -72q-25 -39 -48.5 -77.5t-117.5 -173.5 q-76 -109 -96 -187q25 -72 78 -211q20 -29 59 -147q66 -92 139 -234q100 -196 127 -237q-8 -63 -14 -82q-14 -43 -51 -64q-14 -6 -29 -6q-27 0 -88 37q-25 35 -59 143q-31 98 -70 140q-51 68 -120.5 219t-118.5 217q-25 -10 -62 -96l-55 -64q-5 -81 -5 -174q0 -47 1 -96 l8 -262q-18 -59 -76 -80q-29 -10 -111.5 -14.5t-113.5 -20.5q-53 -4 -66 -4q-76 0 -90 53q-45 6 -78 88l4 576v117q0 188 -4 450q1 11 1 25q0 27 -5 65q-10 66 -10 90zM190 1401q0 -14 5 -41q4 -27 0 -41q0 -43 49 -43q12 0 35.5 3t35.5 3t21 -2q14 20 14 57v9q-1 18 -1 32 q0 27 3 35q-12 26 -47 26q-7 0 -14 -1q-24 -3 -42 -3q-24 0 -36 5q-23 -10 -23 -39zM199 924v-29l20 -23q12 6 64 7q43 0 57 16l-16 186q-12 10 -29 11q-8 0 -25.5 -4.5t-25.5 -4.5q-10 0 -19 4q-28 -26 -28 -84q0 -13 2 -79zM209 272q0 -45 8 -69h12q18 -2 45 -2 q35 0 54 20l8 127l-8 10q-14 -6 -57.5 -3t-57.5 -7q-4 -43 -4 -76zM213 569q14 -14 39 -14q10 0 36.5 5t39.5 3q12 12 12 43q2 39 6 47q-10 35 -51 35q-25 0 -82 -14v-105z" />
<glyph unicode="l" horiz-adv-x="1265" d="M0 186q0 129 28.5 378t30.5 370q0 61 19 190q16 123 16 189q0 41 -4 80v65q0 43 21 62q20 6 59 49t63 43q12 0 25 -4q145 14 250 14q53 0 94 -4q74 -35 92 -76q4 -33 4 -67q0 -74 -20 -246q-15 -129 -15 -212q0 -18 1 -34q1 -30 1 -64q0 -130 -18 -319q-29 -299 -31 -377 q55 -18 158 -18h21h34q98 0 144 -10q12 2 24 2q45 0 95 -29q18 -10 28 -33l17 -35q1 -6 1 -11q0 -42 -42 -62q-61 -31 -74 -47q-17 26 -101 26h-6q-123 18 -321 21q-244 4 -318 10q-150 -45 -170 -45q-49 0 -83 37l-17 26q-6 63 -6 131zM201 270q0 -23 4 -39l10 -8 q59 0 180 8q12 27 13 72v74q-43 10 -97 10q-53 0 -96 -10q-14 -63 -14 -107zM231 610q0 -18 13 -30q7 3 52 3q22 0 54 -1h6q58 0 84 39q2 20 2 35q0 41 -12 53q-12 -2 -27 -2q-16 0 -45.5 3t-46.5 3q-39 0 -63 -23q0 -12 -8.5 -38.5t-8.5 -41.5zM258 907l188 4q15 27 15 79 q-1 5 -1 10v23q0 42 5 60l-8 11l-176 -15q-25 -88 -25 -145q0 -14 2 -27zM289 1419l4 -141q135 0 186 16q0 18 8 74q6 33 6 55q0 10 -1 19q-14 2 -31 2q-33 0 -86 -10q-63 -12 -86 -15z" />
<glyph unicode="m" horiz-adv-x="1783" d="M6 340q8 80 10 109q33 674 33 813q0 137 -8 258q16 57 76 77q59 0 178 20.5t178 20.5q96 0 168 -41l37 -47q63 -164 285 -610h16q78 90 198.5 273.5t186.5 273.5q33 66 45 82q33 41 80 41q63 0 96 -66q6 -57 6 -125q0 -57 -16 -284q-9 -129 -9 -229q0 -33 1 -64 q-16 -135 -17 -361v-122q0 -167 -4 -240q-2 -45 -71 -80q-18 -6 -37 -6q-41 0 -64.5 31.5t-23.5 74.5q0 17 6 61q4 33 4 54v12q-2 40 -2 91q0 137 12 360q16 295 16 429v28l-10 6q-51 -59 -151 -205q-94 -135 -156 -201q-63 -106 -143 -108h-3q-51 0 -87 63 q-49 164 -199 440l-12 11q-35 -258 -45 -537l-19 -549q-16 -55 -90 -82h-26q-42 0 -103 -4q-90 -8 -127 -8q-59 0 -109 12q-108 54 -108 216q0 44 8 112zM197 281q0 -39 4 -80q20 2 59 -2t53 -4q33 0 58 12l8 190q-16 8 -37 9q-25 0 -73 -22t-68 -24q-4 -43 -4 -79zM209 643 q0 -58 1 -58l1 3q10 -2 53 -2q45 0 119 2q-2 20 3 56t5 50q-27 -2 -69 -2q-43 0 -99 2q-14 -18 -14 -51zM219 950q0 -33 12 -57q63 -10 95 -10h4q48 0 78 22q2 14 8 84q1 12 1 23q0 33 -9 57l-84 6q-10 -4 -46 -3t-51 -13q0 -18 -4 -54t-4 -55zM229 1343q0 -45 15 -77 l174 -13q8 41 8 88q0 58 -2 93q-20 8 -45 8q-23 0 -68 -9.5t-67 -9.5q-14 -35 -15 -80z" />
<glyph unicode="n" horiz-adv-x="1576" d="M0 125q27 198 27 426v59q18 229 47 541q14 152 14 199q0 76 -14 137q12 66 80 96l122 35l21 16q18 -3 62.5 -3t113.5 3q27 1 50 1q78 0 122 -15q86 -29 113 -123q90 -158 194 -426q139 -356 174 -434q29 37 37 223q2 42 2 95t-2 118l-6 205q-1 20 -1 42q0 85 13 181 q12 39 23 76q18 47 45 61q9 1 17 1q97 0 124 -76q0 -10 -6 -142q-4 -80 -20 -139q0 -27 4 -82t4 -82q0 -45 -8 -78q6 -66 6 -139q0 -119 -29 -361q-26 -220 -26 -345v-25q-20 -57 -117 -78q-145 0 -150 152q-2 92 -22 123q-174 508 -328 819l-10 -8q-35 -635 -35 -1076 q-39 -51 -131 -61q-129 -14 -152 -25h-7q-42 0 -247 -16q-31 10 -58.5 60.5t-45.5 64.5zM205 291q0 -43 10 -76l203 4l26 23l2 168q-43 -2 -231 -43q-10 -33 -10 -76zM209 586l10 -11q80 6 232 31q6 20 6 47t-6 49q-39 8 -93 11h-94q-39 0 -49 -45q-2 -8 -6 -82zM242 918 q35 -12 82 -13q72 0 145 13l4 157l-12 15q-59 8 -107 8q-68 0 -106 -19zM276 1294q66 -2 189 -26q21 19 21 56q0 7 -1 15q-2 24 -2 41q0 25 4 33q-13 39 -58 39h-9q-8 0 -51 -4q-29 -2 -50 0q-33 -10 -38 -53v-72q-2 -16 -5 -29z" />
<glyph unicode="o" horiz-adv-x="1454" d="M0 829q0 72 6 150q63 240 184 383q88 104 160 178q94 96 205 98h22q215 0 375 -75q308 -146 308 -537q0 -266 -218 -704q-68 -137 -329 -297q-72 -25 -148 -25q-164 0 -278 104q-287 264 -287 725zM190 948q41 -27 209 -33l4 89q-29 9 -67 9q-13 0 -27 -1l-98 -8 q-22 -14 -22 -45q0 -5 1 -11zM195 735q-1 -16 -1 -29q0 -54 13 -75l160 4q20 16 20 55q0 17 -4 37q-21 7 -59 7q-15 0 -33 -1q-28 -2 -49 -2q-31 0 -47 4zM264 426q23 -45 84 -131q6 6 10 6q4 41 4 78q0 35 -4 78q-74 0 -94 -31zM311 1194h84q12 20 13 61q-1 25 -5 58 q-35 -12 -63.5 -48t-28.5 -71zM551 213q0 -14 10 -16q16 2 43 0q250 59 385 434q4 8 58 213q35 131 34 217q0 115 -59 207q-49 104 -174 141l-227 41q-18 -33 -21 -90q-2 -80 -2 -92q2 -80 2 -125q0 -156 -24.5 -465t-24.5 -465z" />
<glyph unicode="p" horiz-adv-x="1134" d="M0 125q12 154 20 598q8 369 29 602q1 13 1 31t-1 39l-4 71q0 100 68 140q186 23 350 32q309 -12 455 -206q82 -137 81 -297q1 -244 -243 -373q-27 -14 -205 -105q0 -14 14 -272q8 -152 8 -274q-14 -70 -135 -88q-59 -10 -86 -23h-233q-10 10 -72 55q-45 33 -47 70z M186 244q0 -20 13 -35q18 2 54 -4t50 -6q37 0 62 22q12 18 8 53q-6 48 -4 58q-23 4 -47 4q-55 0 -125 -25q0 -12 -5.5 -34.5t-5.5 -32.5zM195 827q0 -14 12 -22q47 2 78 6q50 8 75 20q0 78 -8 230q-14 4 -39 4q-39 0 -106 -10v-170q0 -10 -6 -29.5t-6 -28.5zM199 561 q0 -14 4 -33q27 -10 69 -10h74q20 6 21 33q0 16 -2 43l-9 20q-23 4 -57 -6q-43 -12 -57 -12q-10 0 -23 2q-20 -6 -20 -37zM223 1257q31 -18 117 -18q4 20 4 47q0 53 -14 133q-6 21 -42 21h-7q-57 -2 -58 -74v-109zM535 1440v-16q0 -92 16 -533l8 -6q100 31 205 123 q53 72 53 163q0 54 -20 95q-35 145 -262 174z" />
<glyph unicode="q" horiz-adv-x="1452" d="M0 831q0 72 6 150q59 229 184 381q113 135 158 178q106 96 205 98h22q215 0 375 -75q305 -146 305 -533q0 -262 -206 -684q76 -125 112 -203q27 -20 27 -49q0 -8 -2 -14q-10 -49 -51 -80q-37 -18 -66 -18q-63 0 -94 96q-20 63 -29 80l-16 26q-68 -63 -219 -155 q-74 -23 -148 -23q-164 0 -278 105q-285 260 -285 720zM190 950q39 -27 209 -32l4 88q-31 9 -68 9q-13 0 -26 -1l-98 -8q-22 -14 -22 -45q0 -5 1 -11zM195 737q-1 -19 -1 -35q0 -48 13 -69l160 6q18 16 18 57q0 17 -2 35q-26 7 -63 7q-15 0 -31 -1q-35 -3 -58.5 -3t-35.5 3z M264 430q23 -45 84 -129q6 6 8 4q6 41 6 78q0 35 -6 78q-72 0 -92 -31zM311 1196h82q14 20 15 66q-1 24 -5 53q-35 -12 -63.5 -48t-28.5 -71zM549 217q0 -14 10 -16q16 2 43 0q131 31 234 157q-53 92 -93 152q-20 33 -47 80q-12 16 -12 35q0 31 23.5 51t54.5 20 q86 0 170 -149l10 -19q25 49 45 105q2 16 55 213q35 127 35 217q0 115 -59 205q-47 104 -174 141l-226 41q-18 -33 -20 -88q-2 -80 -2 -94q2 -82 2 -125q0 -154 -24.5 -463t-24.5 -463z" />
<glyph unicode="r" horiz-adv-x="1085" d="M0 1458q0 123 131 156l100 24q129 -6 281 -18q389 -34 389 -475v-31q-23 -82 -39 -121q-27 -63 -67 -108q-1 -10 -1 -21q0 -47 15 -98q31 -113 98 -336q39 -119 60 -221q18 -20 18 -39q0 -15 -12 -27q-20 -45 -66 -63q-23 -4 -41 -4q-86 0 -92 114q-2 55 -10 84 q-49 184 -109 385q-6 39 -34 107h-8q-44 0 -74 -41q-4 -55 -4 -125q0 -59 5 -176t5 -176q0 -70 -6 -125q-47 -66 -172 -80q-145 -18 -193 -43q-119 18 -164 82q4 98 4 262l2 588q0 225 9 397q-25 74 -25 129zM182 1350q0 -51 13 -82q-3 0 -3 -1t68 -1q39 0 57 12l-14 170 q-18 10 -41 10q-35 0 -78 -24v-23q-2 -53 -2 -61zM186 293q0 -23 15 -80q152 19 152 20h-1q16 8 21 29q2 14 0 41q-2 25 -4 39q-25 10 -56 10h1q0 -1 -109 -16q-18 -16 -19 -43zM186 604l2 -67q18 -4 41 -5q-3 0 -3 1q0 3 132 18v139q-27 -2 -77 -15t-76 -16 q-20 -16 -19 -55zM186 956v-19q0 -49 9 -77h5q45 0 152 35l-8 168q-25 20 -65 20q-49 0 -91 -24q0 -47 -2 -103zM496 1427q0 -143 22 -337v-7q0 -38 19 -133q57 12 118 68q80 92 80 196q0 63 -36 119t-95 74q-65 21 -97 21q-6 0 -11 -1z" />
<glyph unicode="s" horiz-adv-x="1081" d="M0 430q0 31 4 59q39 76 70 76q20 6 52 -10l32 -16q2 -12 16 -40t14 -44t-12 -31q-2 -16 -2 -31q0 -55 41 -119.5t90 -87.5q16 -7 48 -7q21 0 50 3l19 23q14 145 20 362q8 274 17 367q-23 29 -82 61q-74 41 -92 56q-113 88 -113 243q0 49 12 101q45 115 178 182 q119 61 252 61q131 0 230 -108q29 -66 28 -80q0 -51 -43 -64q-16 -8 -30 -8q-23 0 -64 45t-63 45q-12 0 -27 -4q-14 -32 -14 -91q0 -20 2 -42q3 -44 3 -75q0 -42 -5 -62l-4 -84q2 -51 35 -70q251 -146 251 -523q0 -49 -4 -97q-41 -123 -75 -182q-57 -100 -146 -138 q-236 -100 -332 -100q-68 0 -127 25q-229 186 -229 405zM334 1294q0 -43 39 -85t82 -52q2 35 10 121q4 41 4 71.5t-4 49.5q-8 26 -22 26h-1q-10 0 -39 -22q-20 -14 -38 -31q-31 -43 -31 -78zM596 336q0 -47 8 -78q144 77 144 227q-39 10 -72 11q-37 0 -68 -15 q-12 -86 -12 -145zM612 721q0 -29 19 -49q24 -1 43 -1q38 0 53 5q-16 113 -96 164l-8 -11q2 -20 -4.5 -56t-6.5 -52z" />
<glyph unicode="t" horiz-adv-x="1464" d="M-4 1479v-1l4 85q12 27 49 26h62q70 2 321 23q197 16 322 16q68 0 129 -4q25 5 70 5q34 0 81 -3q24 -2 46 -2q65 0 104 14q12 -2 69 -12q43 -6 58 -37q26 -40 26 -90q0 -13 -2 -26q-41 -57 -112 -58q-31 0 -93.5 12.5t-93.5 12.5q-37 0 -65 -13q-15 -54 -15 -144v-11 q1 -62 1 -102t-1 -58q-20 -313 -67 -889q10 -55 10 -84q0 -76 -53 -116q-43 -8 -148 -9q-94 0 -145 -14q-14 14 -82 20q-59 6 -74 35q-88 39 -88 168q0 29 4 84t4 84q0 23 -2 41q34 328 34 481q0 23 -1 43q12 78 17 222q6 154 10 223q-20 18 -53 18q-16 0 -47 -4t-47.5 -6 t-63.5 -12q-37 -8 -66 -8q-98 0 -102 90zM500 293q0 -53 12 -78h17q62 0 169 12l11 148q-23 6 -72 6q-47 0 -121 -6l-12 -15q-4 -39 -4 -67zM530 594l179 12q31 8 30 45v66q2 20 -22 24q-35 4 -39 9q-14 -10 -41 -11q-10 0 -31.5 4.5t-32.5 4.5q-29 0 -43 -17v-137z M545 1047q0 -4 4 -80q76 -18 125 -19q45 0 80 13q8 20 8 57q0 33 -6 78q-66 12 -119 12q-33 0 -59 -4q-31 -10 -33 -57zM561 1323q27 -12 117 -12q34 0 76 2q10 35 10 59q0 35 -21 51l-159 11q-16 -23 -23 -111z" />
<glyph unicode="u" horiz-adv-x="1495" d="M0 1419q0 102 53 127q29 29 72 29q18 0 52 -5t52 -5t33 4h10q40 0 110 14q79 16 116 16q86 0 129 -69q35 -201 55 -612q4 -76 23 -627q0 -27 20 -60q182 76 283 285q55 115 120 391q14 106 15 209q0 240 -74 418q16 88 82 104q92 -10 113 -69q10 -151 61 -301l-10 -346 q-59 -328 -131 -490q-115 -258 -332 -375l-35 -30q-88 -27 -188 -27q-389 0 -490 303q-23 68 -55 309q-6 53 -27 252q-4 49 -16 283q-8 176 -41 272zM211 1315q0 -31 8 -47q53 -6 121 -6q66 0 119 6v6q2 18 2 51t-15 51l-75 4q-20 -5 -61 -5h-15h-9q-46 0 -71 -9 q-4 -31 -4 -51zM219 1049q2 -41 19 -115q27 -4 57 -4h6q78 0 176 26v9q0 35 -14 88l-230 8zM262 705q0 -4 4 -54q2 -31 23 -39q12 2 28 2q18 0 54.5 -4t54.5 -4q47 0 74 23q-6 12 -6 43v45q-4 31 -31 31q-12 0 -27 -5q-14 -12 -85.5 -14t-88.5 -24zM319 379q-2 -10 19 -62 q63 -88 140 -88q11 0 22 2q2 49 2 86q0 63 -6 89h-80q-12 -6 -48 -7.5t-49 -19.5z" />
<glyph unicode="v" horiz-adv-x="1359" d="M0 1501q0 27 20 43q27 33 78 35l88 4q121 55 201 55q63 0 111 -28q39 -68 82 -187q53 -147 71 -190q31 -74 140 -334h10q20 72 125 336q82 207 96 348q16 33 78 47q94 -20 112 -86q-16 -100 -59 -217q-27 -70 -80 -211q-72 -203 -106 -295q-20 -100 -97 -315 q-72 -201 -90 -316q-35 -18 -46 -98t-54 -92q-18 -10 -39 -10q-27 0 -59 14q-43 57 -76 180q-37 139 -64 189q-84 233 -206 518l-222 514q2 16 -6 49t-8 47zM227 1409q0 -39 25 -74h74q43 0 63 27l-33 76q-43 -6 -129 -29zM336 1139v-7q0 -41 41 -118q14 -4 29 -4q14 0 46 8 t50 6q12 6 12 16q0 8 -6 24.5t-6 22.5q0 68 -66 68q-4 0 -100 -16zM465 801q4 -45 59 -45q12 0 39 2t39 2q15 0 23 -2q-2 39 -27 73q-16 1 -43 1t-63 -1q-28 -3 -28 -21q0 -4 1 -9zM569 561q6 -57 60 -141l33 65q18 37 18 68q-31 18 -62 18q-25 0 -49 -10z" />
<glyph unicode="w" horiz-adv-x="2029" d="M0 1501q0 27 20 43q27 33 78 35l88 4q121 55 201 55q63 0 111 -28q39 -68 82 -187q53 -147 71 -190q31 -74 140 -334h10q20 72 125 336q82 207 96 348q16 33 78 47q27 -6 51 -18v6l16 -8l7 -13q29 -23 38 -53l-4 -16q39 -104 115 -295q37 -94 139 -334h11q14 57 124 336 q80 201 97 348q16 33 78 47q92 -20 112 -86q-16 -98 -61 -217q-23 -57 -78 -211q-35 -102 -107 -295q-23 -111 -97.5 -317.5t-90.5 -313.5q-33 -16 -44 -97t-54 -93q-18 -10 -39 -10q-27 0 -60 14q-45 59 -77 182q-37 139 -62 187q-8 23 -160 391q-18 -76 -94 -285 q-63 -176 -80 -289q-35 -18 -46 -98t-54 -92q-18 -10 -39 -10q-27 0 -59 14q-43 57 -76 180q-37 139 -64 189q-84 233 -206 518l-222 514q2 16 -6 49t-8 47zM227 1409q0 -39 25 -74h74q43 0 63 27l-33 76q-43 -6 -129 -29zM336 1139v-7q0 -41 41 -118q14 -4 29 -4q14 0 46 8 t50 6q12 6 12 16q0 8 -6 24.5t-6 22.5q0 68 -66 68q-4 0 -100 -16zM465 801q4 -45 59 -45q12 0 39 2t39 2q15 0 23 -2q-2 39 -27 73q-16 1 -43 1t-63 -1q-28 -3 -28 -21q0 -4 1 -9zM569 561q6 -57 60 -141l33 65q18 37 18 68q-31 18 -62 18q-25 0 -49 -10zM1006 1139v-7 q0 -41 43 -118q14 -4 28 -4t46.5 8t50.5 6q12 6 12 16q0 8 -6 24.5t-6 22.5q0 68 -68 68q-16 -2 -100 -16zM1137 801q4 -45 59 -45q12 0 39 2t39 2t22 -2q-4 39 -26 73q-28 1 -55 1t-52 -1q-29 -2 -29 -19q0 -5 3 -11zM1241 561q6 -57 59 -141q16 33 31 65q21 43 21 68 q-31 18 -62 18q-25 0 -49 -10z" />
<glyph unicode="x" horiz-adv-x="1505" d="M2 1415q-1 3 -1 7q1 20 29 52q34 36 31 56q16 23 58 26q23 2 66.5 4.5t130.5 11.5t133 8q35 0 63 -3q55 -18 90 -86q16 -31 60 -113q18 -35 153 -221h10q37 76 148 223q102 141 141 228q26 30 62 30h2q53 0 86 -49q18 -20 18 -43t-29 -63q-23 -29 -45 -60 q-84 -115 -278 -456q45 -74 114 -228q20 -27 123 -190q115 -184 176 -311q8 -17 8 -37q0 -29 -16 -64q-53 -43 -250 -88q-6 1 -12 1q-37 0 -98 -21q-78 -27 -109 -27q-57 0 -94 55q-68 129 -215 383h-16l-146 -198q-82 -115 -127 -213q-20 -23 -104 -29q-2 6 -35 61 q-20 35 -20 64t22 51q45 59 162 215q78 104 145 223q-6 16 -88 158q-37 63 -184 318q-109 184 -164 325zM215 1378q2 -76 76 -143q53 8 151 41h6q24 0 60 12q-4 18 -26.5 50t-28.5 44h-20q-50 0 -218 -4zM383 1061l59 -115q34 -65 103 -65h2q31 0 97 17q59 15 93 15h8 q0 14 -14 39l-14 25l-84 125q-197 0 -250 -41zM608 705q27 -92 80 -136l115 13q65 10 112 26q-16 57 -55 115q-45 4 -86 4q-100 0 -166 -22zM786 391q0 -6 7.5 -16t48.5 -86q29 -53 67 -82q47 2 129 20q35 2 90 25l-86 164q-29 10 -63 10q-29 0 -85 -10t-82 -10t-26 -15z " />
<glyph unicode="y" horiz-adv-x="1210" d="M0 1532q0 39 37 55q127 14 321 47q25 4 35 4q72 0 125 -92q74 -129 90 -143l123 -168q20 0 53 55q106 180 144 285q18 25 45 24q16 0 47 -13t45 -13q20 -31 20 -62q0 -41 -47 -106q-53 -72 -61 -102l-332 -635q-92 -180 -336 -658q-16 -14 -47 -14q-16 0 -37 4 q-67 42 -67 104q0 12 2 25q18 16 39.5 55t33.5 54l136 264q63 123 120 272q-27 84 -112 187l-144 172q-66 106 -219 309q0 14 -7 45t-7 45zM233 1442q-2 -18 19 -45q18 -80 127 -80q24 0 65 6v10l-82 125q-22 2 -42 2q-58 0 -87 -18zM449 1133q23 -18 63.5 -84t79.5 -91 l35 58q6 14 6 26q0 39 -60 97l-22 10q-12 -4 -37 -2q-31 6 -37 6q-23 0 -28 -20z" />
<glyph unicode="z" horiz-adv-x="1509" d="M-2 102q0 41 59 113q74 84 84 109q23 35 287 376q164 213 270 383l-8 11h-8q-61 0 -436 -21q-70 -20 -115 -20t-76 18q-49 80 -49 148q0 31 10 57l-10 252q35 43 103 43q16 0 48.5 -3t49.5 -3q49 0 80 18q152 4 483 29q313 25 483 26l95 -73q6 -14 6 -27q0 -41 -101 -137 q-37 -35 -133 -125q-72 -72 -100 -146q-102 -92 -213 -239q-92 -133 -184 -264q2 -18 26 -23q35 -6 41 -6q68 0 200 -9t200 -9q88 0 163 10q27 -20 54 -41q31 -27 41 -53q3 -22 3 -47.5t-3 -53.5q-10 -90 -11 -98q1 -45 17 -80q2 -45 -43 -88q-61 -59 -72 -78l-37 -10 q-82 2 -170 2q-160 0 -817 -29q-18 0 -56 -7t-59 -7q-43 0 -72.5 29.5t-29.5 72.5zM209 1368q-1 -10 -1 -20q0 -35 11 -72q49 4 55 4q35 6 50 18q-6 12 0 35q10 35 10 41q-53 14 -74 15q-33 0 -51 -21zM346 227h33q15 7 50 7q23 0 56 -3q17 -1 31 -1q51 0 74 16l6 157 q-31 10 -59 11q-43 0 -82 -23q-49 -57 -64 -78q-37 -51 -45 -86zM510 1329q14 -37 55 -37q16 0 47 5.5t47 5.5q14 0 27 -5q10 20 10 43v48q-14 20 -59 20h-12q-21 -1 -36 -1q-31 0 -40 3q-27 2 -35 -29zM795 240q14 -4 24 -4q17 0 25 10q2 12 2 22q0 18 -9.5 54t-9.5 55 q-10 18 -20 18q-4 0 -8 -2q0 -49 -4 -153zM881 1360q0 -16 14 -27q68 55 68 90q-16 8 -33 9q-23 0 -45 -17q2 -6 2 -14q0 -6 -3 -20.5t-3 -20.5zM1026 362q0 -10 6 -31.5t6 -33.5q0 -8 -2 -16q2 -29 80 -31h6q36 0 35 24q0 11 -6 48q-6 33 6 49q-16 20 -53 20h-62 q-16 -10 -16 -29z" />
<glyph unicode="&#xad;" horiz-adv-x="1423" d="M0 893q10 72 43 90q43 25 90 25q37 0 107.5 -18.5t107.5 -18.5q23 0 43 6q33 -4 416 6q82 -6 242 -4q20 -10 51 -10h49q53 0 80 -35q6 -12 6 -29q0 -23 -16 -57l-25 -53q-43 -16 -98 -17q-16 0 -125 13q-74 8 -127 0q-53 0 -159.5 -7.5t-160.5 -7.5q-76 8 -228.5 9 t-227.5 10q-61 45 -68 98z" />
<glyph unicode="&#xc4;" horiz-adv-x="1452" d="M0 831q0 385 98 680q43 55 140 62q143 10 161 16q156 55 383 56q80 0 174 -7q139 -80 213 -276q29 -47 45 -129q23 -110 33 -135q12 -172 13 -355q0 -328 -39 -622q-53 -45 -86 -45q-14 0 -29 6q-117 68 -100 164q-6 25 18.5 77t24.5 70q0 20 -13 41q-70 -6 -403 -10 q-238 -4 -408 -25l-8 -10q16 -121 21 -141q14 -82 47 -135q-10 -31 -19 -62q-23 -51 -71 -51q-55 0 -95 57q-35 49 -39 109q-8 94 -14 131q-47 262 -47 534zM90 1778q0 72 70 114q61 37 137 37t137 -37q70 -42 70 -114t-70 -115q-59 -37 -137 -37t-137 37q-70 43 -70 115z M186 659q0 -31 11 -45l149 -4q19 7 21 60q4 59 -48 59q-23 0 -65.5 -13.5t-63.5 -13.5q-4 -25 -4 -43zM190 1040q0 -63 11 -122q12 0 835 43l23 12q-23 176 -27 198q-20 115 -61 187q-27 74 -113 88q-76 4 -151 10q-61 -10 -228 -33q-131 -18 -217 -53q-72 -158 -72 -330z M223 1778q0 -33 19.5 -59.5t52.5 -26.5q31 0 50.5 26.5t19.5 59.5t-19.5 58.5t-50.5 25.5q-72 0 -72 -84zM551 717q0 -10 6 -28.5t6 -29.5q0 -10 -2 -18q12 -18 37 -18t68 14q18 47 14 104q-29 6 -62 7q-31 0 -57 -7q-10 -12 -10 -24zM662 1843q0 72 69 115q59 37 137 37 q76 0 136 -37q69 -43 69 -115t-69 -114q-59 -37 -136 -37q-78 0 -137 37q-70 43 -69 114zM795 1843q0 -33 19.5 -58.5t49.5 -25.5q72 0 72 84q0 33 -19.5 59.5t-52.5 26.5q-31 0 -50 -26.5t-19 -59.5zM872 643q33 -8 70 -8q39 0 74 8q35 -4 43 29q6 16 2 59q-14 37 -68 31 q-68 -6 -88 2q-41 -43 -33 -121z" />
<glyph unicode="&#xc5;" horiz-adv-x="1452" d="M0 831q0 385 98 680q43 55 140 62q143 10 161 16q156 55 383 56q80 0 174 -7q139 -80 213 -276q29 -47 45 -129q23 -110 33 -135q12 -172 13 -355q0 -328 -39 -622q-53 -45 -86 -45q-14 0 -29 6q-117 68 -100 164q-6 25 18.5 77t24.5 70q0 20 -13 41q-70 -6 -403 -10 q-238 -4 -408 -25l-8 -10q16 -121 21 -141q14 -82 47 -135q-10 -31 -19 -62q-23 -51 -71 -51q-55 0 -95 57q-35 49 -39 109q-8 94 -14 131q-47 262 -47 534zM186 659q0 -31 11 -45l149 -4q19 7 21 60q4 59 -48 59q-23 0 -65.5 -13.5t-63.5 -13.5q-4 -25 -4 -43zM190 1040 q0 -63 11 -122q12 0 835 43l23 12q-23 176 -27 198q-20 115 -61 187q-27 74 -113 88q-76 4 -151 10q-61 -10 -228 -33q-131 -18 -217 -53q-72 -158 -72 -330zM410 1835q0 72 69 115q59 37 135 37t136 -37q69 -43 69 -115t-69 -115q-59 -37 -136 -37q-74 0 -135 39 q-70 43 -69 113zM541 1835q0 -33 20.5 -58.5t50.5 -25.5q31 0 50.5 25.5t19.5 58.5t-19.5 59.5t-50.5 26.5t-51 -26.5t-20 -59.5zM551 717q0 -10 6 -28.5t6 -29.5q0 -10 -2 -18q12 -18 37 -18t68 14q18 47 14 104q-29 6 -62 7q-31 0 -57 -7q-10 -12 -10 -24zM872 643 q33 -8 70 -8q39 0 74 8q35 -4 43 29q6 16 2 59q-14 37 -68 31q-68 -6 -88 2q-41 -43 -33 -121z" />
<glyph unicode="&#xd6;" horiz-adv-x="1454" d="M0 829q0 72 6 150q63 240 184 383q88 104 160 178q94 96 205 98q229 4 397 -75q308 -146 308 -537q0 -266 -218 -704q-68 -137 -329 -297q-72 -25 -148 -25q-164 0 -278 104q-287 264 -287 725zM2 1743q0 72 70 115q61 39 137 38q76 0 135 -38q70 -43 70 -115t-70 -115 q-59 -37 -135 -37t-137 37q-70 43 -70 115zM135 1743q0 -84 72 -84q31 0 50 25.5t19 58.5q0 86 -69 86q-72 0 -72 -86zM190 948q41 -27 209 -33l4 89q-39 12 -94 8l-98 -8q-25 -16 -21 -56zM195 735q-4 -78 12 -104l160 4q20 16 20 55q0 17 -4 37q-29 10 -92 6q-70 -4 -96 2 zM264 426q23 -45 84 -131q6 6 10 6q4 41 4 78q0 35 -4 78q-74 0 -94 -31zM311 1194h84q12 20 13 61q-1 25 -5 58q-35 -12 -63.5 -48t-28.5 -71zM551 213q0 -14 10 -16q16 2 43 0q250 59 385 434q4 8 58 213q35 131 34 217q0 115 -59 207q-49 104 -174 141l-227 41 q-18 -33 -21 -90q-2 -80 -2 -92q2 -80 2 -125q0 -156 -24.5 -465t-24.5 -465zM838 1780q0 72 69 114q61 37 137 37t138 -37q69 -42 69 -114t-69 -115q-61 -39 -138 -39q-76 0 -137 39q-70 43 -69 115zM971 1780q0 -86 71 -86q70 0 70 86q0 33 -19.5 58.5t-50.5 25.5 q-72 0 -71 -84z" />
<glyph unicode="&#xe4;" horiz-adv-x="1452" d="M0 831q0 385 98 680q43 55 140 62q143 10 161 16q156 55 383 56q80 0 174 -7q139 -80 213 -276q29 -47 45 -129q23 -110 33 -135q12 -172 13 -355q0 -328 -39 -622q-53 -45 -86 -45q-14 0 -29 6q-117 68 -100 164q-6 25 18.5 77t24.5 70q0 20 -13 41q-70 -6 -403 -10 q-238 -4 -408 -25l-8 -10q16 -121 21 -141q14 -82 47 -135q-10 -31 -19 -62q-23 -51 -71 -51q-55 0 -95 57q-35 49 -39 109q-8 94 -14 131q-47 262 -47 534zM90 1778q0 72 70 114q61 37 137 37t137 -37q70 -42 70 -114t-70 -115q-59 -37 -137 -37t-137 37q-70 43 -70 115z M186 659q0 -31 11 -45l149 -4q19 7 21 60q4 59 -48 59q-23 0 -65.5 -13.5t-63.5 -13.5q-4 -25 -4 -43zM190 1040q0 -63 11 -122q12 0 835 43l23 12q-23 176 -27 198q-20 115 -61 187q-27 74 -113 88q-76 4 -151 10q-61 -10 -228 -33q-131 -18 -217 -53q-72 -158 -72 -330z M223 1778q0 -33 19.5 -59.5t52.5 -26.5q31 0 50.5 26.5t19.5 59.5t-19.5 58.5t-50.5 25.5q-72 0 -72 -84zM551 717q0 -10 6 -28.5t6 -29.5q0 -10 -2 -18q12 -18 37 -18t68 14q18 47 14 104q-29 6 -62 7q-31 0 -57 -7q-10 -12 -10 -24zM662 1843q0 72 69 115q59 37 137 37 q76 0 136 -37q69 -43 69 -115t-69 -114q-59 -37 -136 -37q-78 0 -137 37q-70 43 -69 114zM795 1843q0 -33 19.5 -58.5t49.5 -25.5q72 0 72 84q0 33 -19.5 59.5t-52.5 26.5q-31 0 -50 -26.5t-19 -59.5zM872 643q33 -8 70 -8q39 0 74 8q35 -4 43 29q6 16 2 59q-14 37 -68 31 q-68 -6 -88 2q-41 -43 -33 -121z" />
<glyph unicode="&#xe5;" horiz-adv-x="1452" d="M0 831q0 385 98 680q43 55 140 62q143 10 161 16q156 55 383 56q80 0 174 -7q139 -80 213 -276q29 -47 45 -129q23 -110 33 -135q12 -172 13 -355q0 -328 -39 -622q-53 -45 -86 -45q-14 0 -29 6q-117 68 -100 164q-6 25 18.5 77t24.5 70q0 20 -13 41q-70 -6 -403 -10 q-238 -4 -408 -25l-8 -10q16 -121 21 -141q14 -82 47 -135q-10 -31 -19 -62q-23 -51 -71 -51q-55 0 -95 57q-35 49 -39 109q-8 94 -14 131q-47 262 -47 534zM186 659q0 -31 11 -45l149 -4q19 7 21 60q4 59 -48 59q-23 0 -65.5 -13.5t-63.5 -13.5q-4 -25 -4 -43zM190 1040 q0 -63 11 -122q12 0 835 43l23 12q-23 176 -27 198q-20 115 -61 187q-27 74 -113 88q-76 4 -151 10q-61 -10 -228 -33q-131 -18 -217 -53q-72 -158 -72 -330zM410 1835q0 72 69 115q59 37 135 37t136 -37q69 -43 69 -115t-69 -115q-59 -37 -136 -37q-74 0 -135 39 q-70 43 -69 113zM541 1835q0 -33 20.5 -58.5t50.5 -25.5q31 0 50.5 25.5t19.5 58.5t-19.5 59.5t-50.5 26.5t-51 -26.5t-20 -59.5zM551 717q0 -10 6 -28.5t6 -29.5q0 -10 -2 -18q12 -18 37 -18t68 14q18 47 14 104q-29 6 -62 7q-31 0 -57 -7q-10 -12 -10 -24zM872 643 q33 -8 70 -8q39 0 74 8q35 -4 43 29q6 16 2 59q-14 37 -68 31q-68 -6 -88 2q-41 -43 -33 -121z" />
<glyph unicode="&#xf6;" horiz-adv-x="1454" d="M0 829q0 72 6 150q63 240 184 383q88 104 160 178q94 96 205 98q229 4 397 -75q308 -146 308 -537q0 -266 -218 -704q-68 -137 -329 -297q-72 -25 -148 -25q-164 0 -278 104q-287 264 -287 725zM2 1743q0 72 70 115q61 39 137 38q76 0 135 -38q70 -43 70 -115t-70 -115 q-59 -37 -135 -37t-137 37q-70 43 -70 115zM135 1743q0 -84 72 -84q31 0 50 25.5t19 58.5q0 86 -69 86q-72 0 -72 -86zM190 948q41 -27 209 -33l4 89q-39 12 -94 8l-98 -8q-25 -16 -21 -56zM195 735q-4 -78 12 -104l160 4q20 16 20 55q0 17 -4 37q-29 10 -92 6q-70 -4 -96 2 zM264 426q23 -45 84 -131q6 6 10 6q4 41 4 78q0 35 -4 78q-74 0 -94 -31zM311 1194h84q12 20 13 61q-1 25 -5 58q-35 -12 -63.5 -48t-28.5 -71zM551 213q0 -14 10 -16q16 2 43 0q250 59 385 434q4 8 58 213q35 131 34 217q0 115 -59 207q-49 104 -174 141l-227 41 q-18 -33 -21 -90q-2 -80 -2 -92q2 -80 2 -125q0 -156 -24.5 -465t-24.5 -465zM838 1780q0 72 69 114q61 37 137 37t138 -37q69 -42 69 -114t-69 -115q-61 -39 -138 -39q-76 0 -137 39q-70 43 -69 115zM971 1780q0 -86 71 -86q70 0 70 86q0 33 -19.5 58.5t-50.5 25.5 q-72 0 -71 -84z" />
<glyph unicode="&#x2000;" horiz-adv-x="997" />
<glyph unicode="&#x2001;" horiz-adv-x="1995" />
<glyph unicode="&#x2002;" horiz-adv-x="997" />
<glyph unicode="&#x2003;" horiz-adv-x="1995" />
<glyph unicode="&#x2004;" horiz-adv-x="665" />
<glyph unicode="&#x2005;" horiz-adv-x="498" />
<glyph unicode="&#x2006;" horiz-adv-x="332" />
<glyph unicode="&#x2007;" horiz-adv-x="332" />
<glyph unicode="&#x2008;" horiz-adv-x="249" />
<glyph unicode="&#x2009;" horiz-adv-x="399" />
<glyph unicode="&#x200a;" horiz-adv-x="110" />
<glyph unicode="&#x2010;" horiz-adv-x="1423" d="M0 893q10 72 43 90q43 25 90 25q37 0 107.5 -18.5t107.5 -18.5q23 0 43 6q33 -4 416 6q82 -6 242 -4q20 -10 51 -10h49q53 0 80 -35q6 -12 6 -29q0 -23 -16 -57l-25 -53q-43 -16 -98 -17q-16 0 -125 13q-74 8 -127 0q-53 0 -159.5 -7.5t-160.5 -7.5q-76 8 -228.5 9 t-227.5 10q-61 45 -68 98z" />
<glyph unicode="&#x2011;" horiz-adv-x="1423" d="M0 893q10 72 43 90q43 25 90 25q37 0 107.5 -18.5t107.5 -18.5q23 0 43 6q33 -4 416 6q82 -6 242 -4q20 -10 51 -10h49q53 0 80 -35q6 -12 6 -29q0 -23 -16 -57l-25 -53q-43 -16 -98 -17q-16 0 -125 13q-74 8 -127 0q-53 0 -159.5 -7.5t-160.5 -7.5q-76 8 -228.5 9 t-227.5 10q-61 45 -68 98z" />
<glyph unicode="&#x2012;" horiz-adv-x="1423" d="M0 893q10 72 43 90q43 25 90 25q37 0 107.5 -18.5t107.5 -18.5q23 0 43 6q33 -4 416 6q82 -6 242 -4q20 -10 51 -10h49q53 0 80 -35q6 -12 6 -29q0 -23 -16 -57l-25 -53q-43 -16 -98 -17q-16 0 -125 13q-74 8 -127 0q-53 0 -159.5 -7.5t-160.5 -7.5q-76 8 -228.5 9 t-227.5 10q-61 45 -68 98z" />
<glyph unicode="&#x2013;" horiz-adv-x="1212" d="M0 893q8 72 36 90q35 25 74 25q31 0 89.5 -18.5t89.5 -18.5q19 0 35 6q28 -4 345 6q68 -6 201 -4q16 -10 42 -10h41q44 0 66 -35q5 -12 5 -29q0 -23 -13 -57l-21 -53q-36 -16 -81 -17q-14 0 -104 13q-61 8 -105 0q-44 0 -132.5 -7.5t-133.5 -7.5q-63 8 -189 9t-189 10 q-50 45 -56 98z" />
<glyph unicode="&#x2014;" horiz-adv-x="2236" d="M0 893q17 72 71 90q72 25 150 25q61 0 178 -18.5t178 -18.5q38 0 71 6q55 -4 690 6q136 -6 402 -4q33 -10 84 -10h81q88 0 133 -35q10 -12 10 -29q0 -23 -27 -57l-41 -53q-71 -16 -163 -17q-26 0 -207 13q-123 8 -210 0q-88 0 -265 -7.5t-266 -7.5q-126 8 -379 9t-377 10 q-101 45 -113 98z" />
<glyph unicode="&#x202f;" horiz-adv-x="399" />
<glyph unicode="&#x205f;" horiz-adv-x="498" />
<glyph unicode="&#x25fc;" horiz-adv-x="1638" d="M0 0v1638h1638v-1638h-1638z" />
</font>
</defs>
</svg>
