<?xml version="1.0" standalone="no"?>
<!DOCTYPE svg PUBLIC "-//W3C//DTD SVG 1.1//EN" "http://www.w3.org/Graphics/SVG/1.1/DTD/svg11.dtd" >
<svg xmlns="http://www.w3.org/2000/svg">
<metadata></metadata>
<defs>
<font id="fudoni_tworegular" horiz-adv-x="569" >
<font-face units-per-em="2048" ascent="1638" descent="-410" />
<missing-glyph horiz-adv-x="512" />
<glyph horiz-adv-x="0" />
<glyph horiz-adv-x="682" />
<glyph unicode=" " horiz-adv-x="512" d="M0 0z" />
<glyph unicode="!" horiz-adv-x="684" d="M176 141q0 69 48.5 117.5t117.5 48.5t117.5 -48.5t48.5 -117.5t-48.5 -117.5t-117.5 -48.5t-117.5 48.5t-48.5 117.5zM248 1016q55 -157 55 -314q14 -194 14 -331h50q0 137 14 331q0 153 53 314v528h-184z" />
<glyph unicode="&#x22;" horiz-adv-x="1024" d="M184 1544h201l-4 -82q51 -27 51 -123q0 -12 -3 -43t-3 -47l-33 -354q0 -20 -14.5 -42t-50.5 -22q-26 0 -44 13t-18 28h-45zM514 1544h201l-6 -69q92 -8 92 -136q0 -12 -3 -43t-3 -47l-33 -354q0 -20 -15 -42t-51 -22q-26 0 -43.5 13t-17.5 28h-84z" />
<glyph unicode="#" horiz-adv-x="1138" d="M100 430v148h219l37 286h-196v148h217l61 430h158l-59 -430h233l59 430h160l-59 -430h196v-148h-219l-37 -286h197v-148h-217l-62 -430h-157l59 430h-233l-60 -430h-159l59 430h-197zM479 578h232l37 286h-232z" />
<glyph unicode="$" horiz-adv-x="1146" d="M61 1034q0 191 124.5 307.5t328.5 116.5h16v303h103v-184q114 -10 204 -72t146 -166l-162 -92q-32 60 -76.5 95.5t-111.5 56.5v-481q68 -29 121.5 -59.5t107.5 -73t90 -90.5t58 -112t22 -137q0 -109 -53 -214t-145.5 -177.5t-200.5 -87.5v-194h-103v215q-76 13 -196 57.5 t-154 44.5q-39 0 -57.5 -22t-18.5 -54h-36v545h36q18 -86 52.5 -170t86 -163t126.5 -133.5t161 -67.5v561q-93 22 -144 37t-123 49.5t-109 77t-65 115.5t-28 169zM246 1176q0 -45 15 -80.5t38.5 -59t63 -41.5t76.5 -29t91 -22v477h-10q-118 0 -196 -69.5t-78 -175.5z M633 160q93 22 154 100.5t61 177.5q0 95 -57.5 160t-157.5 117v-555z" />
<glyph unicode="%" horiz-adv-x="2048" d="M279 1081q0 169 72.5 273t223.5 104t224 -104t73 -273q0 -167 -73 -270.5t-224 -103.5t-223.5 103.5t-72.5 270.5zM332 1163q0 -93 70.5 -160t166.5 -67t167 67t71 160q0 95 -71 162.5t-167 67.5t-166.5 -67.5t-70.5 -162.5zM496 18l903 1559l139 -102l-948 -1508z M1176 358q0 169 73 273t224 104t223.5 -104t72.5 -273q0 -167 -72.5 -270.5t-223.5 -103.5t-224 103.5t-73 270.5zM1239 317q0 -93 71 -160t167 -67t166.5 67t70.5 160q0 95 -70.5 162.5t-166.5 67.5t-167 -67.5t-71 -162.5z" />
<glyph unicode="&#x26;" horiz-adv-x="1708" d="M129 422q0 57 15 108.5t37 90t60 78t72.5 67.5t85.5 65l97 70q-170 178 -170 338q0 156 100 247t256 91q95 0 175.5 -37.5t130.5 -112t50 -172.5q0 -50 -18 -98.5t-42.5 -84.5t-67.5 -77t-74 -65t-80 -60l274 -368q80 132 151.5 194t174.5 62q63 0 109 -47t46 -113 q0 -67 -36.5 -113.5t-100.5 -46.5q-60 0 -96.5 36t-36.5 89q0 14 3 32.5t3 25.5q0 12 -10.5 19t-26.5 7q-22 0 -51 -33t-63.5 -87t-38.5 -60q122 -153 202.5 -228t139.5 -75q69 0 108 45t68 123l27 -13q-20 -69 -48.5 -127t-70 -111t-101.5 -83.5t-131 -30.5q-43 0 -80 10.5 t-72.5 36.5t-57.5 46t-62 61q-55 -42 -80.5 -60t-75.5 -45t-103 -38t-118 -11q-197 0 -335 129.5t-138 325.5zM309 424q0 -110 88.5 -197.5t198.5 -87.5q51 0 100 17t96.5 51t79.5 62.5t78 74.5l-342 418l-18 -12q-9 -6 -37 -25.5t-41.5 -29t-41 -29.5t-42 -34t-36.5 -35.5 t-34 -40t-25 -40.5t-18.5 -45t-5.5 -47zM588 1200q0 -34 17.5 -80t37 -79t51 -82.5t41.5 -67.5q180 113 180 254q0 97 -46.5 149t-135.5 52q-65 0 -105 -41t-40 -105z" />
<glyph unicode="'" d="M141 1544h201l-4 -82q51 -27 51 -123q0 -12 -3 -43t-3 -47l-33 -354q0 -20 -14.5 -42t-50.5 -22q-26 0 -44 13t-18 28h-45z" />
<glyph unicode="(" horiz-adv-x="681" d="M205 502q0 284 100 551t287 465l76 -78q-158 -170 -249 -420t-91 -518t91 -518t249 -420l-76 -78q-187 198 -287 465t-100 551z" />
<glyph unicode=")" horiz-adv-x="598" d="M117 -283q91 191 133.5 430.5t42.5 483.5t-42.5 483t-133.5 430l151 113q108 -209 160.5 -483t52.5 -543q0 -268 -52.5 -542t-160.5 -484z" />
<glyph unicode="*" horiz-adv-x="884" d="M129 1124l174 101l-172 102l64 117l182 -101v201h141v-194l166 98l72 -121l-174 -102l174 -103l-72 -118l-166 102v-197h-141v199l-178 -100z" />
<glyph unicode="+" horiz-adv-x="1228" d="M96 432v172h432v432h172v-432h433v-172h-433v-432h-172v432h-432z" />
<glyph unicode="," d="M119 141q0 67 47.5 116.5t116.5 49.5q85 0 132.5 -61t47.5 -168q0 -163 -82.5 -274t-233.5 -140v35l111 278q-63 8 -101 52t-38 112z" />
<glyph unicode="-" horiz-adv-x="909" d="M111 424l75 188q141 -8 322 -8q99 0 291 8l-76 -188q-38 1 -155.5 4.5t-182.5 3.5q-53 0 -148 -3.5t-126 -4.5z" />
<glyph unicode="." d="M119 141q0 69 48.5 117.5t117.5 48.5t117.5 -48.5t48.5 -117.5t-48.5 -117.5t-117.5 -48.5t-117.5 48.5t-48.5 117.5z" />
<glyph unicode="/" horiz-adv-x="796" d="M66 -193l852 1971l147 -66l-854 -1970z" />
<glyph unicode="0" horiz-adv-x="1267" d="M80 772q0 70 8.5 144.5t28.5 154t49 152t73 137.5t97.5 113t126 76t155.5 28q96 0 178 -37.5t139.5 -101.5t101.5 -144.5t69.5 -172.5t38 -179t12.5 -170q0 -82 -12.5 -169.5t-38.5 -179t-70 -172.5t-101.5 -145t-139 -101.5t-177.5 -37.5t-177.5 37.5t-139 101.5 t-101 145t-69.5 172.5t-38.5 179t-12.5 169.5zM397 487q0 -77 1 -116.5t6 -105t18 -100.5t34 -73.5t56.5 -55t83.5 -16.5t83.5 16.5t56.5 55t34 73.5t18 100.5t6 105t1 116.5v467q0 77 -1 116.5t-6 105t-18 100.5t-34 73.5t-56.5 55t-83.5 16.5t-83.5 -16.5t-56.5 -55 t-34 -73.5t-18 -100.5t-6 -105t-1 -116.5v-467z" />
<glyph unicode="1" horiz-adv-x="851" d="M115 0v37h207v1331h-158l106 176h346v-1507h189v-37h-690z" />
<glyph unicode="2" horiz-adv-x="1183" d="M92 0l590 725q98 121 98 287q0 69 -6.5 124.5t-25 110.5t-49 92t-81.5 59.5t-120 22.5q-60 0 -125.5 -28t-113.5 -82.5t-48 -118.5q0 -21 6.5 -32.5t20 -15t25.5 -3.5t32 2t31 2q58 0 95.5 -37t37.5 -94q0 -69 -46 -104.5t-116 -35.5q-93 0 -138.5 63.5t-45.5 158.5v22 q24 209 153 334t336 125q130 0 242 -59t179 -166t67 -238q0 -176 -115 -317l-508 -621h623v-176h-998z" />
<glyph unicode="3" horiz-adv-x="1163" d="M68 279q0 74 45 128t118 54q63 0 105.5 -43t42.5 -105q0 -68 -38.5 -107.5t-104.5 -39.5q-10 0 -16 -0.5t-14 -3t-12 -9t-4 -16.5q0 -40 48.5 -68t106.5 -38.5t114 -10.5t100 12t73.5 30.5t50.5 50.5t32.5 62.5t18 76.5t8 83t1.5 91q0 101 -13 164t-48 108t-96.5 63.5 t-159.5 18.5h-158v117h262q65 0 118 13t96 41t66.5 77.5t23.5 116.5q0 116 -76.5 190t-192.5 74q-103 0 -172 -60t-84 -161h-190q28 190 144.5 289.5t307.5 99.5q190 0 318.5 -114t128.5 -302q0 -237 -197 -348q110 -52 164.5 -152.5t54.5 -230.5q0 -87 -33 -161.5t-87 -126 t-125 -88t-147 -53.5t-152 -17q-428 0 -428 295z" />
<glyph unicode="4" horiz-adv-x="1236" d="M14 225l947 1385v-998h249v-219h-163v-356h196v-37h-668v37h201v188h-762zM365 614h411v566h-4z" />
<glyph unicode="5" horiz-adv-x="1196" d="M61 238l144 135q35 -97 136 -163.5t206 -66.5q156 0 264.5 111.5t108.5 267.5q0 149 -110 258t-259 109q-83 0 -160.5 -36.5t-128.5 -100.5l-29 6q78 249 78 465q0 99 -22 260q98 24 262 24q77 0 159.5 -15.5t139.5 -30.5t72 -15q57 0 77 51l25 -10q-6 -144 -83 -203 t-230 -59q-52 0 -154 16l-57 -190q65 6 108 6q140 -6 254.5 -81t178 -197t63.5 -263q0 -159 -77 -285.5t-207 -195t-288 -68.5q-145 0 -275 73t-196 198z" />
<glyph unicode="6" horiz-adv-x="1183" d="M82 440v1v1v1v1v1v1v1v1v1v1v1v1v1v1v1v1v1v1v1v1v1v1v1v1v1v1v1v1v1v1v1v1v1v1v1v1v1v1v1v1v1v1v1v1v1v1v1v1v1v1v1v1v1v1v1v1v1v1v1v1v1v1v1v1v1v1v1v1v1v1v1v1v1v1v1v1v1v1v1v1v1v1v1v1v1v1v1v1v1v1v1v1v1v1v1v1v1v1v1v1v1v1v1v1v1v1v1v1v1v1v1v1v9q0 146 47 285 t129 248.5t187.5 194.5t226.5 135t243 59l-411 -557l4 -4q70 36 151 36q123 0 227 -69t162 -179.5t58 -234.5q0 -139 -68.5 -256t-186 -184.5t-255.5 -67.5q-132 0 -250.5 66t-191 181t-72.5 247v5v4v4v4v4v4v3v3v3v2v2v2v1v1v-1v-1v-1v-1v-2v-1v-1v-2v-1v-2v-2v-1v-2v-1v-2 v-1v-2v-1v-1v-2v-1v-1v-2v-1v-1v-1v-1v-1v-1v-2v-1v-1v-1v-1v-1v-1v-1v-1v-1v-1v-1v-1v-1v-1v-1v-1v-1v-1v-1v-1v-1v-1v-1zM379 492q0 -73 2 -124.5t8.5 -110t20 -97.5t34.5 -73t54 -50.5t77 -16.5q112 0 154.5 88t42.5 310q0 242 -40 337t-148 95q-94 0 -149.5 -96 t-55.5 -262z" />
<glyph unicode="7" horiz-adv-x="1171" d="M20 1368v176h1113v-164q-58 -93 -136 -227.5t-172.5 -309.5t-158.5 -328.5t-64 -223.5q0 -20 13.5 -28.5t48.5 -8.5q51 0 82.5 -36t31.5 -93q0 -66 -36.5 -103.5t-104.5 -37.5q-75 0 -110 45t-35 114t52.5 208t116 275t121.5 292t66 253v197h-828z" />
<glyph unicode="8" horiz-adv-x="1136" d="M68 430q0 129 63 230t180 141q-96 55 -149 144t-53 202q0 187 127.5 308.5t314.5 121.5t314.5 -121.5t127.5 -308.5q0 -113 -53 -202t-149 -144q117 -40 180 -141t63 -230q0 -139 -66.5 -246t-175.5 -162t-241 -55t-241 55t-175.5 162t-66.5 246zM252 430 q0 -116 92 -203.5t207 -87.5t207 87.5t92 203.5q0 121 -90 206t-209 85t-209 -85t-90 -206zM367 1028q0 -98 36 -150.5t125 -89.5q89 37 125.5 89.5t36.5 150.5v197q0 196 -162 196q-161 0 -161 -196v-197z" />
<glyph unicode="9" horiz-adv-x="1165" d="M66 1069q0 139 68 256t185.5 184.5t255.5 67.5q132 0 250.5 -66t191.5 -181t73 -247v-176q0 -183 -77 -355t-201 -295.5t-286.5 -198t-328.5 -74.5l471 634l-4 5q-57 -29 -150 -29q-124 0 -228.5 67.5t-162 176t-57.5 231.5zM250 1081q0 -89 48.5 -164.5t124 -117 t155.5 -41.5q143 0 235 96t92 227q0 81 -43 156t-116.5 121.5t-155.5 46.5q-138 0 -239 -96t-101 -228z" />
<glyph unicode=":" d="M119 141q0 69 48.5 117.5t117.5 48.5t117.5 -48.5t48.5 -117.5t-48.5 -117.5t-117.5 -48.5t-117.5 48.5t-48.5 117.5zM178 868q0 48 35 83.5t84 35.5t84 -35.5t35 -83.5q0 -49 -34.5 -83.5t-84.5 -34.5t-84.5 34.5t-34.5 83.5z" />
<glyph unicode=";" d="M119 141q0 67 47.5 116.5t116.5 49.5q85 0 132.5 -61t47.5 -168q0 -163 -82.5 -274t-233.5 -140v35l111 278q-63 8 -101 52t-38 112zM274 868q0 48 35 83.5t84 35.5t84 -35.5t35 -83.5q0 -49 -34.5 -83.5t-84.5 -34.5t-84.5 34.5t-34.5 83.5z" />
<glyph unicode="&#x3c;" horiz-adv-x="1228" d="M96 440v156l1037 457v-181l-805 -354l805 -354v-180z" />
<glyph unicode="=" horiz-adv-x="1228" d="M96 223v172h1037v-172h-1037zM96 641v172h1037v-172h-1037z" />
<glyph unicode="&#x3e;" horiz-adv-x="1183" d="M68 29v192l786 303l-786 303v193l1048 -424v-143z" />
<glyph unicode="?" horiz-adv-x="1003" d="M129 1327q0 53 20 97t53.5 74.5t78 51.5t93.5 31t101 10q163 0 264 -109t101 -268q0 -72 -29 -140t-82 -113q-31 -27 -82 -51.5t-78 -33.5t-94 -30q-68 -21 -108.5 -55t-40.5 -95q0 -62 41 -104.5t102 -42.5q65 0 106 46t39 112h187q6 -131 -96.5 -230.5t-235.5 -99.5 q-137 0 -233.5 95.5t-96.5 232.5q0 57 14.5 101.5t35 73t58 54t68.5 39.5t82 33q67 25 129 70t108 112.5t46 136.5q0 100 -63 164.5t-158 64.5q-77 0 -136 -26.5t-59 -73.5q0 -20 16 -25.5t46 -5.5q55 0 92 -40.5t37 -102.5q0 -65 -46 -102t-112 -37q-76 0 -122 54t-46 132z M350 86q0 48 35 83.5t84 35.5t84 -35.5t35 -83.5q0 -50 -35 -84.5t-84 -34.5t-84 34.5t-35 84.5z" />
<glyph unicode="@" horiz-adv-x="1638" d="M74 772q0 169 61.5 319t166 256t249 168t305.5 62q286 0 481 -178q230 -200 230 -471q0 -128 -33 -241.5t-94 -192.5q-70 -92 -154 -137t-162 -42q-43 2 -72 35.5t-38 91.5q-127 -127 -279 -127q-137 0 -240.5 111.5t-103.5 267.5q0 125 50.5 236t148 181.5t219.5 70.5 q80 0 146 -34t126 -112l29 127h145l-102 -526l-3 -15q-5 -24 -7.5 -36.5t-5 -35t-1 -35.5t5.5 -27t14 -20.5t26 -6.5q47 0 98.5 55t87 148t35.5 190q0 168 -73 296.5t-198 195.5t-282 67q-169 0 -310 -86t-221.5 -233t-80.5 -322q0 -137 52 -257.5t140 -204t206.5 -131.5 t248.5 -48q265 0 381 98l153 -123q-130 -70 -249 -104.5t-302 -34.5q-163 0 -309.5 61t-253 166.5t-169 256t-62.5 321.5zM702 604q-1 -84 33.5 -131t83.5 -47q55 0 103 46.5t77 115t45.5 139.5t16.5 127q0 70 -20 103.5t-66 33.5q-38 0 -85 -28.5t-89 -77t-70.5 -123.5 t-28.5 -158z" />
<glyph unicode="A" horiz-adv-x="1552" d="M23 0l739 1610l737 -1610h-766v37h164l-149 426h-398l-98 -289q-14 -37 -14 -61q0 -76 98 -76h57v-37h-370zM485 563h549l-274 625z" />
<glyph unicode="B" horiz-adv-x="1316" d="M47 0v37h152v1507h188q94 0 171 -10.5t152.5 -39t127 -74.5t83 -122.5t31.5 -177.5q0 -89 -45.5 -173.5t-120.5 -119.5v-57q93 -3 175 -28t147.5 -70.5t104 -117.5t38.5 -161q0 -176 -148.5 -284.5t-424.5 -108.5h-631zM391 860h49q60 0 105 5.5t90 22t73.5 44t46 75 t17.5 111.5q0 63 -17.5 109.5t-45.5 74t-72 43.5t-89 21.5t-104 5.5h-53v-512zM496 37h94q159 0 238 85t79 269q0 164 -75 257t-211 93h-125v-704z" />
<glyph unicode="C" horiz-adv-x="1312" d="M61 764q0 228 80 403.5t234 275t360 99.5q63 0 138 -26t138 -52t97 -26q65 0 68 61h36v-483h-36q-13 80 -51 164.5t-94 158t-134.5 120t-161.5 46.5q-162 0 -245.5 -169t-83.5 -548q0 -183 31 -310.5t92 -199.5t141.5 -103.5t189.5 -31.5q232 0 412 160v-227 q-88 -52 -196 -80.5t-210 -28.5q-217 0 -402 105.5t-294 289t-109 402.5z" />
<glyph unicode="D" horiz-adv-x="1439" d="M16 0v37h166v1507h320q180 0 335 -48t274.5 -140.5t188 -240.5t68.5 -335q0 -192 -67.5 -343t-186.5 -245t-276 -143t-342 -49h-480zM324 37h170q66 0 120.5 12.5t96 33t74 54.5t55.5 70t39 86t25.5 96.5t15 107.5t7 113t1.5 119q0 72 -1.5 126.5t-7 116t-14.5 107 t-24.5 93t-37 81t-52 64t-69.5 49t-90 29t-112 10.5h-196v-1368z" />
<glyph unicode="E" horiz-adv-x="1216" d="M16 0v37h166v1507h979v-407h-37v28q0 144 -102.5 243t-278.5 99h-241v-626h141q102 0 152.5 63.5t50.5 206.5v23h37v-414h-508v-584h637v-176h-996z" />
<glyph unicode="F" horiz-adv-x="1013" d="M-4 0v37h166v1v1v1v1v1v1v1v1v1v1v1v1v1v1v1v1v1v1v1v1v1v1v1v1v1v1v1v1v1v1v1v1v1v1v1v1v1v1v1v1v1v1v1v1v1v1v1v1v1v1v1v1v1v1v1v1v1v1v1v1v1v1v1v1v1v1v1v1v1v1v1v1v1v1v1v1v1v1v1v1v1v1v1v1v1v1v1v1v1v1v1v1v1v1v1v1v1v1v1v1v1v1v1v1v1v1v1v1v1v1v1v1v1v1v1v1v1v1v1 v1v1v1v1v1v1v1v1v1v1v1v1v1v1v1v1v1v1v1v1v1v1v1v1v1v1v1v1v1v1v1v1v1v1v1v1v1v1v1v1v1v1v1v1v1v1v1v1v1v1v1v1v1v1v1v1v1v1v1v1v1v1v1v1v1v1v1v1v1v1v1v1v1v1v1v1v1v1v1v1v1v1v1v1v1v1v1v1v1v1v1v1v1v1v1v1v1v1v1v1v1v1v1v1v1v1v1v1v1v1v1v1v1v1v1v1v1v1v1v1v1v1v1v1v1v1v1 v1v2v1v1v1v1v1v1v1v1v1v1v1v1v1v1v1v1v1v1v1v1v1v1v1v1v1v2v1v1v1v1v1v1v1v1v1v1v1v1v1v2v1v1v1v1v1v1v1v1v1v1v1v2v1v1v1v1v1v1v1v1v2v1v1v1v1v1v1v1v1v2v1v1v1v1v1v1v1v2v1v1v1v1v1v1v2v1v1v1v1v1v1v2v1v1v1v1v1v2v1v1v1v1v1v2v1v1v1v1v1v2v1v1v1v1v1v2v1v1v1v1v2v1v1v1v1 v2v1v1v1v1v2v1v1v1v1v2v1v1v1v1v2v1v1v1v2v1v1v1v1v2v1v1v1v2v1v1v1v2v1v1v1v1v2v1v1v1v2v1v1v1v2v1v1v1v2v1v1v2v1v1v1v2v1v1v1v2v1v1v2v1v1v1v2v1v1v1v2v1v1v2v1v1v1v2v1v1v2v1v1v2v1v1v1v2v1v1v2v1v1v2v1v1v2v1v1v2v1v1v1v2v1v1v2v1v1v2v1v1v2v1v1v2v1v1v2v1v1v2v1v2v1v1 v2v1v1v2v1v1v2v1v1v2v1v1v2v1v2v1v1v2v1v1v2v1v2v1v1v2v1v1v2v1v2v1v1v2v1v1v2v1v2v1v1v2v1v2v1v1v2v1v2v1v1v2v1v2v1v1v2v1v2v1v2v1v1v2v1v2v1v1v2v1v2v1v2v1v1v2v1v2v1v2v1v1v2v1v2v1v2v1v2v1v1v2v1v2v1v2v1v2v1v2v1v1v2v1v2v1v2v1v2v1v2v1v2v1v1v2v1v2v1v2v1v2v1v2v1v2v1 v2v1v2v1v2v1v2v1v2v1v2v1v2v1v2v1v2v1v2v1v2v1v2v1v2v1v2v1v2v1v2v1v2v1v2v1v2v1v2v1v2v1v2v1v2v1v2v2v1v2v1v2v1v2v1v2v1v2v1v2v2v1v2v1v2v1v2v1v2v1v2v2v1v2v1v2v1v2v1v2v2v1v2v1v2v1v2v2v1v2v1v2v1v2v2v1v2v1v2v1v2v2v1v2v1v2v2v1v2v1v2v1v2v2v1v2v1v2v2v1v2v1v2v2v1v2v1 v2v2v1v2v2v1v2v1v2v2v1v2v1v2v2v1v2v2v1v2v1v2v2v1v2v2v1v2v1v2v2v1v2v2v1v2v2v1v2v1v2v2v1v2v2v1v2v2v1v2v2v1v2v2v1v2v2v1v2v1v2v2v1v2v2v1v2v2v1v2v2v2v1v2v2v1v2v2v1v2v2v1v2v2v1v2v2v1v2v2v1v2v2v2v1v2v2v1v2v2v1v2v2v2v1v2v2v1v2v2v1v2v2v2v1v2v2v1v2v2v2v1v2v2v1v2v2 v2v1v2v2v2v1v2v2v1v2v2v2v1v2v2v2v1v2v2v2v1v2v2v2v1v2v2v2v1v2v2v2v1v2v2v2v1v2v2v2v1v2v2v2v1v2v2v2v2v1v2v2v2v1v2v2v2v1v2v2v2v2v1v2v2v2v2v1v2v2v2v1v2v2v2v2v1v2v2v2v2v1v2v2v2v2v1v2v2v2v2v2v1v2v2v2v2v1v2v2v2v2v2v1v2v2v2v2v1v2v2v2v2v2v1v2v2v2v2v2v2v1v2v2v2v2v2 v1v2v2v2v2v2v2v1v2v2v2v2v2v2v1v2v2v2v2v2v2v2v1v2v2v2v2v2v2v2v1v2v2v2v2v2v2v2v2v1v2v2v2v2v2v2v2v2v2v1v2v2v2v2v2v2v2v2v2v2v1v2v2v2v2v2v2v2v2v2v1v10h747v-176h-555v-434h541v-510h-37v37q0 144 -67 212t-216 68h-94v-704h205v-37h-690z" />
<glyph unicode="G" horiz-adv-x="1611" d="M43 768q0 228 80 403.5t234 275t360 99.5q63 0 138 -26t138 -52t97 -26q64 0 67 61h37v-483h-37q-13 80 -51 164.5t-93.5 158t-134 120t-161.5 46.5q-80 0 -139.5 -39t-103 -123t-65.5 -222.5t-22 -331.5q0 -183 31 -310.5t92.5 -200t142 -104t189.5 -31.5 q116 0 229.5 60t189.5 166.5t80 228.5h-399v176h612v-61q0 -157 -54 -295.5t-149 -238.5t-232 -158t-296 -58t-303.5 63t-249 170t-166 255.5t-61.5 312.5z" />
<glyph unicode="H" horiz-adv-x="1454" d="M131 0h193v741h610v-704h-166v-37h483v1405h168v37h-651v-37h166v-483h-610v622h-193v-1544z" />
<glyph unicode="I" horiz-adv-x="573" d="M74 0v37h166v1470h-166v37h334v-1544h-334z" />
<glyph unicode="J" horiz-adv-x="835" d="M2 35l96 164q68 -52 154 -52q72 0 114 34.5t42 101.5q0 63 -33 149.5t-33 169.5v905h-205v37h690v-37h-165v-944q0 -69 -4 -127t-16 -120.5t-31 -112t-51.5 -95t-75 -75.5t-104 -48t-136.5 -18q-127 0 -242 68z" />
<glyph unicode="K" horiz-adv-x="1363" d="M147 0v1544h193v-776l467 467q69 69 84 97q8 16 8 28q0 45 -106 45h-37v37h524v-37h-53q-174 0 -336 -158l-293 -291l604 -919h148v-37h-686v37h159l-452 702l-31 -28v-711h-193z" />
<glyph unicode="L" horiz-adv-x="1118" d="M55 0v37h166v1368h-166v37h670v-37h-184v-1229h485v-176h-971z" />
<glyph unicode="M" horiz-adv-x="1923" d="M61 0v37h9q49 0 82 14.5t48.5 41.5t21 54.5t5.5 65.5v1192h-155v37h524l362 -1049l531 1217l315 -1610h-198l-181 1020h-4l-448 -1020h-203l-489 1393h-5v-1162q0 -82 16.5 -124.5t47 -56t90.5 -13.5h29v-37h-398z" />
<glyph unicode="N" horiz-adv-x="1683" d="M63 0v37h15h22q56 0 89.5 31t33.5 116v1100l-90 121h-63v37h422l813 -1045h14v1147h192v-1569h-280l-955 1246h-4v-1047q0 -84 34.5 -110.5t125.5 -26.5h19v-37h-388z" />
<glyph unicode="O" horiz-adv-x="1857" d="M86 772q0 130 41.5 253t116.5 222t174.5 173.5t223 115.5t253.5 41t253.5 -41t223 -115.5t174.5 -173.5t116.5 -222t41.5 -253q0 -169 -64 -319t-173 -256t-258 -168t-314 -62t-314 62t-258 168t-173 256t-64 319zM479 721q0 -398 65 -557.5t242 -159.5t242.5 159.5 t65.5 557.5q0 135 -9 243t-24 182.5t-39 128.5t-48.5 85t-58 49t-62.5 23.5t-67 5.5t-67 -5.5t-62.5 -23.5t-58 -49t-48 -85t-38.5 -128.5t-24 -182.5t-9 -243z" />
<glyph unicode="P" horiz-adv-x="1140" d="M121 0v1544h438q526 0 526 -385q0 -121 -73 -215t-198 -144t-279 -50q-141 0 -222 8v-721h203v-37h-395zM313 797q46 -11 86 -11q180 0 261 88t81 273q0 83 -6 138t-22.5 100.5t-46 70.5t-75 38t-112.5 13h-166v-710z" />
<glyph unicode="Q" horiz-adv-x="1806" d="M39 772q0 130 41.5 253t116.5 222t174.5 173.5t223 115.5t253.5 41t253.5 -41t223 -115.5t174.5 -173.5t116.5 -222t41.5 -253q0 -163 -63.5 -312t-178.5 -257l240 -236h-234l-133 137q-94 -65 -211 -101t-229 -36q-165 0 -314 62t-258 168t-173 256t-64 319zM432 721 q0 -398 65 -557.5t242 -159.5q129 0 196.5 82.5t92.5 271.5l-227 224h239l4 -4q0 22 1.5 69.5t1.5 73.5q0 135 -9 243t-24 182.5t-39 128.5t-48.5 85t-58 49t-62.5 23.5t-67 5.5t-67 -5.5t-62.5 -23.5t-58 -49t-48 -85t-38.5 -128.5t-24 -182.5t-9 -243z" />
<glyph unicode="R" horiz-adv-x="1271" d="M156 0v1544h233q91 0 144 -2.5t130 -19t134 -49.5q95 -56 148.5 -156t53.5 -213q0 -63 -16 -121.5t-39.5 -99.5t-53 -75.5t-54 -54t-45.5 -30.5q52 -15 93.5 -36.5t85.5 -58.5t70 -97t27 -138q2 -159 14.5 -235t34 -96.5t66.5 -20.5q29 0 73 27l15 -31q-95 -70 -250 -70 q-80 0 -134.5 27t-84 80t-41.5 118.5t-12 155.5q0 99 -10.5 166t-30.5 110t-57.5 66t-81 31.5t-111.5 9.5h-109v-694h172v-37h-364zM348 813h62q66 0 119 5.5t109.5 23.5t94 48t62 82.5t24.5 123.5q0 70 -26.5 121.5t-66 80.5t-98.5 46.5t-111.5 22.5t-117.5 5h-51v-559z " />
<glyph unicode="S" horiz-adv-x="1146" d="M94 1034q0 102 37.5 199t104.5 173.5t167.5 123.5t217.5 47q129 0 231.5 -60.5t165.5 -173.5l-154 -92q-44 74 -103 110t-145 36q-99 0 -178.5 -61.5t-79.5 -157.5q0 -139 215 -222l111 -43q19 -7 53 -19.5t57 -20.5t56.5 -22.5t56.5 -27.5t52 -32.5t49 -40t40.5 -49 t32.5 -60t19.5 -72t7.5 -86.5q0 -239 -126 -377.5t-343 -138.5q-60 0 -130 16.5t-120.5 37t-101 37t-76.5 16.5q-39 0 -57.5 -22t-18.5 -54h-37v545h37q13 -60 34 -120t51 -122t70.5 -114.5t88.5 -94t109 -65t128 -23.5q133 0 214 77.5t81 211.5q0 71 -28 123.5t-75 84 t-108.5 55t-129.5 42t-135.5 38.5t-129 51t-108.5 73.5t-75 112t-28 161.5z" />
<glyph unicode="T" horiz-adv-x="1232" d="M39 1096v448h1171v-176h-366v-1368h-510v37h190v1470h-84q-77 0 -136.5 -22t-97.5 -57t-65 -90.5t-41 -111.5t-24 -130h-37z" />
<glyph unicode="U" horiz-adv-x="1423" d="M141 567v977h1h1h1h1h1h1h1h1h1h1h1h1h1h1h1h1h1h1h1h1h1h1h1h1h1h1h1h1h1h1h1h1h1h1h1h1h1h1h1h1h1h1h1h1h1h1h1h1h1h1h1h1h1h1h1h1h1h1h1h1h1h2h1h1h1h1h1h1h1h1h1h1h1h1h2h1h1h1h1h1h1h1h2h1h1h1h1h2h1h1h1h1h2h1h1h1h1h2h1h1h1h2h1h1h2h1h1h1h2h1h1h2h1h1h2h1h1h2h1 h1h2h1h1h2h1h1h2h1h2h1h1h2h1h2h1h2h1h1h2h1h2h1h2h1h2h1h1h2h1h2h1h2h1h2h1h2h1h2h1h2h2h1h2h1h2h1h2h1h2h1h2h2h1h2h1h2h2h1h2h1h2h2h1h2h2h1h2h1h2h2h1h2h2h1h2h2h1h2h2h1h2h2h2h1h2h2h1h2h2h2h1h2h2h1h2h2h2h2h1h2h2h2h1h2h2h2h2h1h2h2h2h2h1h2h2h2h2h2h2h1h2h2h2h2h2h2 h2h1h2h2h2h2h2h2h2h2h2h2h9v-37h-166v-901q0 -85 8.5 -149.5t32 -126t62.5 -101t103.5 -63t151.5 -23.5q158 0 262.5 107t104.5 307v778q0 92 -30.5 132t-106.5 40h-60v37h400v-977q0 -171 -66.5 -306t-196 -214.5t-302.5 -79.5t-303 79.5t-196.5 214.5t-66.5 306z" />
<glyph unicode="V" horiz-adv-x="1583" d="M23 1405v37h688v-37h-199l395 -1063l484 1202h211l-650 -1577h-245l-539 1438h-145z" />
<glyph unicode="W" horiz-adv-x="2093" d="M-25 1544h209l432 -1106l385 1004h426v-37h-159l311 -969h4l234 735q34 103 34 148q0 86 -139 86h-14v37h377v-37h-19q-109 0 -176 -201l-414 -1237h-49l-364 1104l-437 -1132z" />
<glyph unicode="X" horiz-adv-x="1400" d="M0 0l485 809l-426 735h220l378 -676l258 373q56 87 56 119q0 45 -107 45h-30v37h415v-37h-32q-69 0 -125 -41.5t-134 -153.5l-198 -284l557 -889h131v-37h-694v37h184q0 -1 -86 148t-172 299l-86 149l-379 -633h-215z" />
<glyph unicode="Y" horiz-adv-x="1341" d="M35 1544h221l551 -958l264 598q41 94 41 141q0 41 -28 60.5t-95 19.5h-26v37h368v-37h-14q-55 0 -94.5 -40.5t-85.5 -152.5l-279 -624v-551h158v-37h-635v37h158v635z" />
<glyph unicode="Z" horiz-adv-x="1318" d="M41 0v37l760 1331h-672v176h1110v-139l-829 -1368h309q84 2 152.5 15t118 33.5t87 53t62 67.5t42 82.5t26.5 92.5t16 104h43l-37 -485h-1188z" />
<glyph unicode="[" horiz-adv-x="681" d="M125 -395v2052h389v-172h-201v-1708h201v-172h-389z" />
<glyph unicode="\" horiz-adv-x="796" d="M29 1475h174l565 -1508h-174z" />
<glyph unicode="]" horiz-adv-x="681" d="M29 -416h264v1835h-264v74h387v-1982h-387v73z" />
<glyph unicode="^" horiz-adv-x="1228" d="M197 694l364 748h164l365 -748h-183l-264 563l-264 -563h-182z" />
<glyph unicode="_" horiz-adv-x="1024" d="M0 -154h1024v-102h-1024v102z" />
<glyph unicode="`" d="M29 1413l170 90l22 -28h19h16q33 1 45 -12.5t52 -94.5q2 -3 3 -6l150 -305h-27l-71 78l-43 -27z" />
<glyph unicode="a" horiz-adv-x="1185" d="M53 485q0 132 54 245.5t159 185t240 71.5q103 0 188 -49.5t144 -138.5h4v159h184v-794q0 -103 47 -103q34 0 53 35t19 80h37q0 -91 -59.5 -146t-159.5 -55q-65 0 -114.5 28t-74.5 71q-69 -55 -112 -75q-68 -32 -150 -32q-141 0 -247.5 73t-159 189.5t-52.5 255.5z M449 270q0 -33 1 -55t5.5 -52t14 -50t25 -38.5t40.5 -28t59 -9.5q70 0 114.5 61t47.5 146v237l-162 -16q-48 -5 -78.5 -20t-44.5 -43t-18 -56.5t-4 -75.5z" />
<glyph unicode="b" horiz-adv-x="1054" d="M113 0v1778h184v-1012h4q84 160 264 160q60 0 120.5 -17.5t119.5 -56t104 -93.5t73 -136t28 -177q0 -54 -17 -116t-54 -125t-88 -114t-125.5 -83.5t-160.5 -32.5q-90 0 -165.5 47.5t-108.5 133.5h-4v-181q-20 15 -86 21zM297 618l2 -315q0 -129 68 -203.5t153 -74.5 q92 0 138.5 62.5t46.5 213.5v258q0 96 -13.5 163t-39.5 102.5t-56 50t-70 14.5q-66 0 -120 -44.5t-81.5 -106t-27.5 -120.5z" />
<glyph unicode="c" horiz-adv-x="903" d="M53 471q0 108 41 199.5t110.5 152t161.5 94t193 33.5q55 0 114 -14t113.5 -41t89.5 -75.5t35 -108.5t-38.5 -101t-110.5 -41q-61 0 -97 40t-36 100q0 31 12 55.5t27 36t27 24t12 23.5q0 26 -40.5 45.5t-107.5 19.5q-111 0 -155 -69t-44 -238v-233q0 -129 49.5 -181.5 t159.5 -52.5q148 0 262 127v-235q-119 -64 -264 -64q-140 0 -258 65.5t-187 181.5t-69 257z" />
<glyph unicode="d" horiz-adv-x="1052" d="M49 434q0 133 51 243.5t151.5 179.5t233.5 69q180 0 254 -158h4v1010h185v-1778q-14 -1 -40 -3t-37.5 -3t-31 -3.5t-37.5 -6t-39 -9.5v150h-4q-39 -73 -100 -111.5t-158 -38.5q-78 0 -154.5 32.5t-138.5 89.5t-100.5 145.5t-38.5 191.5zM356 328q0 -158 41 -230.5 t133 -72.5q96 0 154.5 74.5t58.5 170.5v359q0 94 -61.5 171t-159.5 77q-166 0 -166 -254v-295z" />
<glyph unicode="e" horiz-adv-x="999" d="M53 471q0 230 121.5 373t345.5 143q148 0 251 -69t150.5 -182t47.5 -259v-28h-731q2 -129 81.5 -223.5t206.5 -94.5q100 0 165 46t122 140l156 -88q-67 -124 -185.5 -193t-259.5 -69q-143 0 -251 67t-164 181t-56 256zM389 532h258v177q0 90 -29.5 135t-99.5 45 q-129 0 -129 -180v-177z" />
<glyph unicode="f" horiz-adv-x="802" d="M68 786v172h84v467q0 52 2 87.5t9 78t20 70.5t35.5 56.5t55.5 45t80.5 27t108.5 10.5q94 0 157.5 -55.5t63.5 -138.5q0 -66 -36 -104t-89 -38q-57 0 -89 33t-32 82q0 34 16 60t32 45t16 34q0 45 -60 45q-56 0 -93.5 -46.5t-37.5 -133.5q0 -59 17.5 -176t17.5 -180h156 v-37h-68v-1153h141v-37h-423v786h-84z" />
<glyph unicode="g" horiz-adv-x="1017" d="M-94 -115h184q0 -127 79 -198.5t208 -71.5q66 0 115.5 18t79.5 48.5t48 77t24.5 96t6.5 112.5v391q-74 -34 -180 -34q-145 0 -250.5 90t-105.5 213q0 89 53.5 159t134 105t168.5 35q154 0 256 -74q78 90 158 90q52 0 95.5 -29t43.5 -79q0 -44 -27.5 -74.5t-74.5 -30.5 q-44 0 -69.5 28t-25.5 66q0 32 12.5 52.5t43.5 37.5v5q-28 -4 -50.5 -14.5t-32.5 -20.5t-27 -30t-25 -28q41 -35 64.5 -94.5t23.5 -112.5v-600q0 -132 -21 -229.5t-72 -176.5t-144.5 -120t-229.5 -41q-203 0 -331.5 117.5t-131.5 316.5zM348 633q0 -73 5.5 -123t14.5 -79.5 t26 -45t34.5 -20.5t44.5 -5q26 0 42 3.5t34.5 18t28 42.5t16.5 78.5t8 124.5q-1 72 -5.5 118t-12.5 75.5t-25 44t-35.5 19.5t-50.5 5q-75 0 -100 -60t-25 -196z" />
<glyph unicode="h" horiz-adv-x="1071" d="M-14 0v37h141v1741h184v-949h4q42 75 120.5 116.5t168.5 41.5q98 0 166.5 -31.5t105.5 -90.5t52.5 -130t15.5 -164v-571h-313v37h117v647q0 97 -33.5 132.5t-87.5 35.5q-82 0 -149.5 -85.5t-67.5 -168.5v-561h120v-37h-544z" />
<glyph unicode="i" horiz-adv-x="520" d="M61 0v37h142v827h-142v94h326v-958h-326zM178 1268q0 69 48.5 117.5t117.5 48.5t117.5 -48.5t48.5 -117.5t-48.5 -117.5t-117.5 -48.5t-117.5 48.5t-48.5 117.5z" />
<glyph unicode="j" horiz-adv-x="520" d="M-164 -397q0 50 35 82t82 32q54 0 85.5 -35.5t31.5 -89.5q0 -35 -31 -79q11 -7 27 -7q44 0 65 35.5t21 75.5q0 51 -16.5 110.5t-33 135t-16.5 166.5v929h283v-1079q0 -187 -103.5 -304.5t-247.5 -117.5q-87 0 -134.5 40t-47.5 106zM51 1397q0 54 37 91.5t90 37.5 t90 -37.5t37 -91.5q0 -52 -37 -88.5t-90 -36.5t-90 36.5t-37 88.5z" />
<glyph unicode="k" horiz-adv-x="1169" d="M139 0v1778h185v-1235l217 174q168 134 168 170q0 35 -88 35h-52v36h1h1h1h1h1h1h1h1h1h1h1h1h1h1h1h1h1h1h1h1h1h1h1h1h1h1h1h1h1h1h1h1h1h1h1h1h1h1h1h1h1h1h1h1h1h1h1h1h1h1h1h1h1h1h1h1h1h1h1h1h1h1h1h1h1h1h1h1h1h2h1h1h1h1h1h1h1h1h2h1h1h1h1h1h2h1h1h1h1h1h2h1h1 h1h2h1h1h1h1h2h1h1h2h1h1h1h2h1h1h2h1h1h1h2h1h1h2h1h1h2h1h1h2h1h2h1h1h2h1h2h1h1h2h1h2h1h1h2h1h2h1h2h1h2h1h1h2h1h2h1h2h1h2h1h2h1h2h1h2h1h2h1h2h2h1h2h1h2h1h2h1h2h2h1h2h1h2h1h2h2h1h2h2h1h2h1h2h2h1h2h2h1h2h2h1h2h2h1h2h2h1h2h2h1h2h2h1h2h2h2h1h2h2h1h2h2h2h1h2h2 h2h1h2h2h2h1h2h2h2h2h1h2h2h2h2h1h2h2h2h2h2h1h2h2h2h2h2h1h2h2h2h2h2h2h9l-293 -288l395 -633h123v-37h-571v37h123l-265 446l-116 -110v-373h-185z" />
<glyph unicode="l" horiz-adv-x="487" d="M-6 1741v37h325v-1741h142v-37h-326v1741h-141z" />
<glyph unicode="m" horiz-adv-x="1617" d="M-20 0v37h141v827h-141v37h145q63 0 103.5 1.5t97.5 14.5t77 37v-219h5q40 88 131 139.5t196 51.5q141 0 226 -109q45 77 124.5 123.5t169.5 46.5q318 0 318 -414v-573h-184v543q0 43 -3 77t-13.5 74t-29 66.5t-52.5 44.5t-81 18q-57 0 -97.5 -23.5t-62 -57t-33.5 -85.5 t-15 -92t-3 -94v-471h-399v37h115v633q0 95 -21 138.5t-76 43.5q-60 0 -111.5 -45t-77.5 -102.5t-26 -106.5v-561h107v-37h-530z" />
<glyph unicode="n" horiz-adv-x="1011" d="M-14 0v37h141v921h184v-129h4q42 75 120.5 116.5t168.5 41.5q98 0 166.5 -31.5t105.5 -90.5t52.5 -130t15.5 -164v-571h-1h-1h-1h-1h-1h-1h-1h-1h-1h-1h-1h-1h-1h-1h-1h-1h-1h-1h-1h-1h-1h-1h-1h-1h-1h-1h-1h-1h-1h-1h-1h-1h-1h-1h-1h-1h-1h-1h-1h-1h-1h-1h-1h-1h-1h-1 h-1h-1h-1h-1h-1h-1h-1h-1h-1h-1h-1h-1h-1h-1h-1h-1h-1h-1h-1h-2h-1h-1h-1h-1h-1h-1h-2h-1h-1h-1h-1h-2h-1h-1h-1h-1h-2h-1h-1h-1h-2h-1h-1h-1h-2h-1h-1h-2h-1h-1h-1h-2h-1h-1h-2h-1h-1h-2h-1h-2h-1h-1h-2h-1h-1h-2h-1h-2h-1h-1h-2h-1h-2h-1h-2h-1h-2h-1h-1h-2h-1h-2h-1h-2 h-1h-2h-1h-2h-1h-2h-1h-2h-1h-2h-1h-2h-2h-1h-2h-1h-2h-1h-2h-2h-1h-2h-1h-2h-2h-1h-2h-1h-2h-2h-1h-2h-2h-1h-2h-1h-2h-2h-1h-2h-2h-2h-1h-2h-2h-1h-2h-2h-1h-2h-2h-2h-1h-2h-2h-2h-1h-2h-2h-2h-1h-2h-2h-2h-1h-2h-2h-2h-2h-1h-2h-2h-2h-2h-2h-1h-2h-2h-2h-2h-2h-2h-1h-2 h-2h-2h-2h-2h-2h-2h-9v37h117v647q0 97 -33.5 132.5t-87.5 35.5q-82 0 -149.5 -85.5t-67.5 -168.5v-561h120v-37h-544z" />
<glyph unicode="o" horiz-adv-x="1105" d="M41 477q0 216 148 363t364 147t364 -147t148 -363t-148 -363t-364 -147t-364 147t-148 363zM401 229q0 -217 168 -217t168 217v443q0 217 -168 217t-168 -217v-443z" />
<glyph unicode="p" horiz-adv-x="1138" d="M113 -543v1501h184v-159h4q59 89 144 138.5t190 49.5q133 0 237.5 -71t158.5 -185t54 -246q0 -104 -30.5 -197t-87 -164.5t-145 -114t-195.5 -42.5q-138 0 -232 82v-555h156v-37h-438zM395 270q0 -96 58.5 -170.5t154.5 -74.5q87 0 130.5 69t43.5 217v332 q0 109 -43 171.5t-123 62.5q-98 0 -159.5 -77t-61.5 -171v-359z" />
<glyph unicode="q" horiz-adv-x="1304" d="M53 485q0 98 32 189t89.5 160.5t143 111t186.5 41.5q105 0 190 -49.5t144 -138.5h6v166q25 -41 94 -52.5t201 -11.5h129v-37h-142v-1370h142v-37h-580v37h156v656h-6q-57 -84 -142 -133.5t-184 -49.5q-107 0 -195.5 42.5t-145 114t-87.5 164.5t-31 197zM238 479 q0 -92 34 -170t104.5 -128t164.5 -50q145 0 228 100t83 248q0 146 -83.5 245t-227.5 99q-137 0 -220 -102t-83 -242z" />
<glyph unicode="r" horiz-adv-x="792" d="M139 0v958h185v-213h4q31 82 103.5 137.5t166.5 55.5q73 0 117.5 -42.5t44.5 -115.5q0 -61 -42.5 -105t-113.5 -44q-61 0 -100 37t-39 96q0 69 49 121h-8q-182 -80 -182 -326v-559h-185z" />
<glyph unicode="s" horiz-adv-x="786" d="M43 621q0 51 19.5 103.5t55.5 98t96.5 74.5t133.5 29q50 0 117 -22.5t96 -22.5t46.5 13t17.5 32h30l13 -291h-33q-97 254 -287 254q-85 0 -139.5 -41.5t-54.5 -112.5q0 -62 43.5 -86.5t142.5 -38.5q158 -22 211 -39q119 -37 159 -133q25 -61 25 -153q0 -135 -98 -226.5 t-234 -91.5q-107 0 -200.5 58t-130.5 157l157 72q33 -60 72.5 -91.5t101.5 -31.5q57 -1 103 39q41 36 41 71v7q-2 17 -16.5 30t-37 19.5t-42.5 10t-42 6.5q-7 1 -10 1q-32 3 -51 6t-52 9t-54.5 13t-50.5 19.5t-48 27.5t-39.5 38t-32.5 50t-20 63.5t-8 79.5z" />
<glyph unicode="t" horiz-adv-x="614" d="M53 786v172h101v367h241v-401h189v-37h-189v-697q0 -106 80 -106q24 0 46.5 15.5t33.5 30t29 40.5l26 -14q-48 -80 -113.5 -119t-158.5 -39l-184 2v786h-101z" />
<glyph unicode="u" horiz-adv-x="1095" d="M37 408v550h184v-530q0 -63 9.5 -111t32.5 -90.5t68 -65t111 -22.5t111 22.5t68.5 64.5t33 90t9.5 112v436h-142v37h146q63 0 103.5 1.5t97.5 14.5t77 37v-917h141v-37h-311v172h-4q-40 -91 -130.5 -141.5t-197.5 -50.5q-74 0 -146 30.5t-130.5 84.5t-94.5 136t-36 177z " />
<glyph unicode="v" horiz-adv-x="956" d="M-37 864v37h514v-37h-123l181 -403l229 497h207l-479 -983h-56l-385 889h-88z" />
<glyph unicode="w" horiz-adv-x="1474" d="M-63 864v37h497v-37h-123l170 -415l240 563l280 -664l279 610h209l-488 -991l-280 641l-279 -633h-55l-364 889h-86z" />
<glyph unicode="x" horiz-adv-x="989" d="M-6 0l428 520l-344 438h217l268 -358l68 84q65 79 65 125q0 24 -21.5 38.5t-53.5 16.5h-46v37h369v-37h-45q-19 0 -36 -4.5t-28 -10t-26.5 -19t-22.5 -21t-25 -28t-26 -29.5l-151 -185l354 -530h98v-37h-577v37h147l-166 250l-223 -287h-223zM1053 0z" />
<glyph unicode="y" horiz-adv-x="964" d="M-14 864v37h526v-37h-135l184 -413l252 507h207l-500 -970l-55 -250q-8 -36 -14.5 -61.5t-24.5 -67.5t-39.5 -68t-59 -46.5t-83.5 -20.5q-69 0 -118.5 40.5t-49.5 102.5q0 61 35 100t100 39q63 0 99 -34.5t36 -88.5q0 -33 -10 -69v-6q31 9 58.5 79t40 128.5t18.5 105.5 l12 82l-393 911h-86z" />
<glyph unicode="z" horiz-adv-x="1013" d="M66 0v25l483 761h-434v172h815v-81l-543 -840h135q78 0 145 30t110 78.5t67 108t24 119.5v37h37v-410h-839z" />
<glyph unicode="{" horiz-adv-x="684" d="M98 555v150q154 68 154 309v372q0 113 60 192t114 79h160v-172h-82q-18 0 -30.5 -7.5t-19 -17t-10 -29t-4 -33.5t-0.5 -40v-377q0 -67 -14 -125.5t-32.5 -95t-43 -67.5t-38.5 -43.5t-27 -20.5q16 -9 36.5 -29.5t50 -61t49 -109t19.5 -150.5v-377q0 -26 0.5 -40t4 -33.5 t10 -29t19 -17t30.5 -7.5h82v-172h-160q-54 0 -114 79t-60 191v373q0 241 -154 309z" />
<glyph unicode="|" horiz-adv-x="1167" d="M496 0v1778h176v-1778h-176z" />
<glyph unicode="}" horiz-adv-x="681" d="M98 -453q62 4 103.5 23t64 55t31 79.5t8.5 105.5v397q0 128 33 193.5t133 97.5v4q-100 21 -133 87t-33 208v397q0 126 -43.5 190.5t-163.5 71.5v37q88 0 144 -11.5t101 -44t65 -95t20 -160.5v-418q0 -112 32 -169t124 -93q-91 -29 -123.5 -89t-32.5 -173v-418 q0 -98 -20 -160.5t-65 -95t-101 -44t-144 -11.5v36z" />
<glyph unicode="~" horiz-adv-x="1183" d="M68 465q77 111 112 149q96 103 201 103q67 0 126 -28.5t124 -76.5q103 -77 200 -77q104 0 173 147l73 -141q-61 -83 -98 -113q-77 -66 -182 -66q-40 0 -81 12t-66 25t-64 37q-9 6 -33.5 21.5t-34.5 22t-30.5 19t-31.5 18t-25.5 12.5t-25.5 9.5t-20 2.5q-49 0 -91.5 -40.5 t-96.5 -127.5z" />
<glyph unicode="&#xa0;" horiz-adv-x="512" d="M0 0z" />
<glyph unicode="&#xa1;" horiz-adv-x="684" d="M188 1403q0 69 48.5 117.5t117.5 48.5t117.5 -48.5t48.5 -117.5t-48.5 -117.5t-117.5 -48.5t-117.5 48.5t-48.5 117.5zM262 0h184l3 528q-56 160 -56 314q-14 194 -14 332h-49q0 -124 -15 -332q0 -153 -53 -314v-528z" />
<glyph unicode="&#xa2;" horiz-adv-x="1183" d="M205 772q0 192 118.5 336.5t307.5 173.5v160h98v-248q55 0 113 -14t112.5 -41.5t89.5 -76t35 -108.5q0 -65 -36 -103t-113 -38q-61 0 -97 39.5t-36 99.5q0 31 12 55.5t26.5 36t26.5 24.5t12 24q0 26 -39.5 45.5t-105.5 19.5v-870q133 1 227.5 84t106.5 198h37 q-17 -140 -117.5 -227t-253.5 -90v-154h-98v183q-187 29 -306.5 166t-119.5 325zM385 780q0 -115 68 -211t178 -118v653q-103 -13 -174.5 -115t-71.5 -209z" />
<glyph unicode="&#xa3;" horiz-adv-x="1183" d="M57 616v119h205q-119 228 -119 369q0 129 73 239t189.5 172t243.5 62q215 0 348 -131.5t144 -347.5l-185 -70v57q0 128 -85.5 220t-213.5 92q-126 0 -227.5 -98t-101.5 -212q0 -49 16.5 -102t34 -86t50 -88t44.5 -76h303v-119h-164q4 -18 4 -75q0 -106 -57 -256 q21 -4 91.5 -18.5t130.5 -22.5t126 -8q136 0 150 153h37q-3 -59 -13.5 -113.5t-34 -107.5t-57.5 -92t-86 -62.5t-117 -23.5q-27 0 -52 3t-51.5 13t-42.5 15.5t-45.5 23.5t-39 24t-43.5 29.5t-41 28.5q-4 -5 -19.5 -24t-20 -24t-18.5 -20.5t-21 -20.5t-20.5 -15.5t-24 -14 t-25.5 -9.5t-31 -7.5t-35 -1.5q-59 0 -104.5 41.5t-45.5 99.5q0 83 51 138t140 55q37 0 96.5 -11t71.5 -12q-10 49 -34.5 103t-59.5 117.5t-49 94.5h-265zM168 127q0 -42 25 -71t69 -29q96 0 162 133q-87 65 -158 65q-39 0 -68.5 -29.5t-29.5 -68.5z" />
<glyph unicode="&#xa7;" horiz-adv-x="1183" d="M82 856q0 105 50.5 182.5t146.5 149.5q-1 7 -9 27t-13 47.5t-5 66.5q0 116 49.5 216.5t143 163.5t210.5 63q84 0 154.5 -24t118 -79t47.5 -131q0 -74 -45 -125t-115 -51q-60 0 -97.5 36t-37.5 93t34 93t81 36q24 0 43 -10.5t29 -22.5t21 -22.5t21 -10.5q17 0 17 39 q0 49 -75.5 95.5t-201.5 46.5q-113 0 -193.5 -63t-80.5 -173q0 -56 24 -102t64.5 -77.5t93.5 -58.5t111 -50.5t116 -48t111 -55.5t93.5 -69t64.5 -93.5t24 -123.5q0 -111 -40 -195t-144 -188q135 -110 135 -272q0 -118 -61.5 -209.5t-160 -138.5t-214.5 -47 q-202 0 -332.5 119.5t-130.5 320.5v31h182q-3 -127 75 -215t204 -88q101 0 177.5 66t76.5 165q0 35 -14 66t-31 50.5t-51.5 43t-53 33.5t-59.5 30l-289 142q-40 20 -61.5 31.5t-54.5 31.5t-50.5 36t-39 40.5t-32.5 50t-18.5 59t-7.5 72.5zM264 877q0 -30 11 -56t23.5 -42.5 t41.5 -36t45 -28.5t53 -28q60 -31 170.5 -84t172.5 -86t83 -53q127 100 127 192q0 57 -42.5 103t-115 81t-151 66.5t-169.5 77t-151 94.5q-98 -83 -98 -200z" />
<glyph unicode="&#xa8;" d="M-23 1282q0 54 37.5 91.5t91.5 37.5t92 -37.5t38 -91.5t-38 -91.5t-92 -37.5t-91.5 37.5t-37.5 91.5zM334 1282q0 54 37.5 91.5t91.5 37.5t91.5 -37.5t37.5 -91.5t-37.5 -91.5t-91.5 -37.5t-91.5 37.5t-37.5 91.5z" />
<glyph unicode="&#xa9;" horiz-adv-x="1638" d="M12 772q0 221 107 406t292.5 292t407.5 107t407.5 -107t292.5 -292t107 -406t-107 -406t-292.5 -292t-407.5 -107t-407.5 107t-292.5 292t-107 406zM143 772q0 -139 54 -264.5t145 -215t216 -142t261 -52.5t261 52.5t216 142t145 215t54 264.5q0 140 -54 265.5t-145 215 t-216 141.5t-261 52t-261 -52t-216 -141.5t-145 -215t-54 -265.5zM410 762q0 209 108.5 338t294.5 129q49 0 125.5 -31t97.5 -31q20 0 30 8.5t11 28.5h23v-291h-23q-11 66 -45.5 132t-93.5 114.5t-125 48.5q-98 0 -148.5 -101.5t-50.5 -328.5q0 -110 19 -186.5t56 -119.5 t85.5 -62t114.5 -19q141 0 246 94v-135q-109 -65 -244 -65q-130 0 -240.5 63t-175.5 173t-65 241z" />
<glyph unicode="&#xaa;" horiz-adv-x="874" d="M70 741l75 107q141 -8 322 -8q99 0 291 8l-76 -107q-42 1 -158 5t-180 4q-52 0 -145.5 -4t-128.5 -5zM94 1262q0 123 75.5 212t195.5 89q123 0 198 -113h4v94h111v-475q0 -61 27 -61q21 0 32 20t11 47h22q0 -54 -35.5 -87.5t-95.5 -33.5q-39 0 -68.5 17.5t-44.5 42.5 q-25 -20 -38 -29.5t-47 -22t-72 -12.5q-127 0 -201 90.5t-74 221.5zM330 1133q0 -30 2 -50t10 -43.5t27 -36t49 -12.5q41 0 67.5 36.5t28.5 88.5v144l-96 -11q-55 -6 -71.5 -32.5t-16.5 -83.5z" />
<glyph unicode="&#xab;" horiz-adv-x="1024" d="M180 518l295 350l74 -61l-238 -289l238 -287l-74 -63zM475 518l295 350l74 -61l-238 -289l238 -287l-74 -63z" />
<glyph unicode="&#xad;" horiz-adv-x="909" d="M111 424l75 188q141 -8 322 -8q99 0 291 8l-76 -188q-38 1 -155.5 4.5t-182.5 3.5q-53 0 -148 -3.5t-126 -4.5z" />
<glyph unicode="&#xae;" horiz-adv-x="1638" d="M12 772q0 221 107 406t292.5 292t407.5 107t407.5 -107t292.5 -292t107 -406t-107 -406t-292.5 -292t-407.5 -107t-407.5 107t-292.5 292t-107 406zM143 772q0 -139 54 -264.5t145 -215t216 -142t261 -52.5t261 52.5t216 142t145 215t54 264.5q0 140 -54 265.5t-145 215 t-216 141.5t-261 52t-261 -52t-216 -141.5t-145 -215t-54 -265.5zM559 319v928h139q52 0 86 -2t79.5 -12t80.5 -29q56 -33 88.5 -93.5t32.5 -127.5q0 -47 -14 -89t-35 -69.5t-40.5 -45t-35.5 -25.5q164 -47 166 -197q1 -97 8.5 -142.5t20 -58t39.5 -12.5q17 0 45 16l8 -18 q-57 -41 -150 -41q-92 0 -128 58t-36 169q0 75 -8.5 120t-31.5 69.5t-52.5 32.5t-81.5 10h-65v-418h104v-23h-219zM674 809h37q51 0 89.5 6t76.5 22.5t58.5 51.5t20.5 88q0 42 -15.5 73t-39 48.5t-58.5 28t-67 13.5t-71 3h-31v-334z" />
<glyph unicode="&#xaf;" horiz-adv-x="1024" d="M143 1282v139h740v-139h-740z" />
<glyph unicode="&#xb0;" horiz-adv-x="819" d="M102 1270q-1 126 89.5 216.5t218.5 90.5q126 0 216.5 -90.5t90.5 -216.5q0 -127 -90.5 -217t-216.5 -90q-128 0 -218 90t-90 217zM205 1270q0 -88 58.5 -146.5t146.5 -58.5q86 0 145 58.5t59 146.5q0 86 -59 145.5t-147 59.5q-86 0 -145 -59.5t-58 -145.5z" />
<glyph unicode="&#xb4;" horiz-adv-x="737" d="M199 1057l149 305q39 78 56 95.5t61 17.5h20l23 28l170 -90l-336 -305l-43 27l-74 -78h-26z" />
<glyph unicode="&#xb6;" horiz-adv-x="1183" d="M84 1018q-7 92 23.5 186.5t88 169.5t144 122.5t184.5 47.5h578v-37h-156v-1878h156v-37h-340v1915h-84v-1820h-172v893q-176 0 -291.5 117t-130.5 321z" />
<glyph unicode="&#xb7;" d="M137 612q0 62 43.5 105t104.5 43t104 -43t43 -105t-43 -104.5t-104 -42.5q-62 0 -105 43t-43 104z" />
<glyph unicode="&#xb8;" horiz-adv-x="675" d="M80 -397l16 26q64 -22 142 -22q135 -6 135 106q0 34 -20.5 58t-57.5 24q-41 0 -84 -12l-35 14l121 203h49l-104 -172l4 -4q46 20 125 20q61 0 111 -35.5t50 -91.5q0 -44 -22.5 -76.5t-59 -49.5t-75.5 -25t-80 -8q-89 0 -215 45z" />
<glyph unicode="&#xba;" horiz-adv-x="894" d="M70 741l75 107q141 -8 322 -8q99 0 291 8l-76 -107q-42 1 -158 5t-180 4q-52 0 -145.5 -4t-128.5 -5zM127 1245q0 129 89 217t218 88t218 -88t89 -217q0 -130 -89 -218.5t-218 -88.5t-218 88.5t-89 218.5zM342 1096q0 -129 100 -129q103 0 103 129v266q0 129 -103 129 q-100 0 -100 -129v-266z" />
<glyph unicode="&#xbb;" horiz-adv-x="1024" d="M180 229l238 289l-238 287l74 63l295 -350l-295 -350zM475 229l238 289l-238 287l74 63l295 -350l-295 -350z" />
<glyph unicode="&#xbf;" horiz-adv-x="1003" d="M86 344q0 72 29 140.5t82 113.5q31 27 82 51.5t78 33.5t94 30q68 21 108.5 54.5t40.5 94.5q0 62 -41 105t-102 43q-65 0 -106.5 -46t-39.5 -112h-186q-6 131 96.5 230.5t235.5 99.5q137 0 233 -95t96 -233q0 -57 -14.5 -101.5t-35 -73t-58 -54t-68.5 -39.5t-82 -33 q-49 -18 -97 -49.5t-90.5 -72.5t-68.5 -93t-26 -105q0 -100 63 -164.5t158 -64.5q77 0 136 26.5t59 73.5q0 20 -16 25.5t-46 5.5q-55 0 -92 41t-37 103q0 65 46 102t112 37q76 0 122 -54.5t46 -132.5q0 -53 -20 -97t-53.5 -74.5t-78 -51.5t-93.5 -31t-101 -10 q-163 0 -264 109t-101 268zM338 1473q0 49 34.5 83.5t84.5 34.5q49 0 83.5 -34.5t34.5 -83.5q0 -48 -34.5 -83.5t-83.5 -35.5t-84 35.5t-35 83.5z" />
<glyph unicode="&#xc0;" horiz-adv-x="1552" d="M23 0l739 1610l737 -1610h-766v37h164l-149 426h-398l-98 -289q-14 -37 -14 -61q0 -76 98 -76h57v-37h-370zM485 563h549l-274 625z" />
<glyph unicode="&#xc1;" horiz-adv-x="1552" d="M23 0l739 1610l737 -1610h-766v37h164l-149 426h-398l-98 -289q-14 -37 -14 -61q0 -76 98 -76h57v-37h-370zM485 563h549l-274 625zM567 1638l150 306q39 77 56 94.5t61 17.5h20l23 29l170 -90l-336 -305l-43 26l-74 -78h-27z" />
<glyph unicode="&#xc2;" horiz-adv-x="1552" d="M23 0l739 1610l737 -1610h-766v37h164l-149 426h-398l-98 -289q-14 -37 -14 -61q0 -76 98 -76h57v-37h-370zM436 1731l326 297l330 -297l-121 -95l-209 197l-207 -197zM485 563h549l-274 625z" />
<glyph unicode="&#xc3;" horiz-adv-x="1552" d="M23 0l739 1610l737 -1610h-766v37h164l-149 426h-398l-98 -289q-14 -37 -14 -61q0 -76 98 -76h57v-37h-370zM373 1731l6 10q20 29 34 47.5t36 41t42.5 35.5t48.5 22t60 9q85 0 182 -53q101 -55 148 -55q71 0 131 98l96 -80q-37 -76 -99 -122t-143 -46q-60 0 -170 54 q-108 51 -159 51q-35 0 -67.5 -28.5t-49.5 -65.5zM485 563h549l-274 625z" />
<glyph unicode="&#xc4;" horiz-adv-x="1552" d="M23 0l739 1610l737 -1610h-766v37h164l-149 426h-398l-98 -289q-14 -37 -14 -61q0 -76 98 -76h57v-37h-370zM455 1767q0 54 37.5 91.5t91.5 37.5t91.5 -37.5t37.5 -91.5t-37.5 -91.5t-91.5 -37.5t-91.5 37.5t-37.5 91.5zM485 563h549l-274 625zM811 1767q0 54 37.5 91.5 t91.5 37.5t91.5 -37.5t37.5 -91.5t-37.5 -91.5t-91.5 -37.5t-91.5 37.5t-37.5 91.5z" />
<glyph unicode="&#xc5;" horiz-adv-x="1552" d="M23 0l739 1610l737 -1610h-766v37h164l-149 426h-398l-98 -289q-14 -37 -14 -61q0 -76 98 -76h57v-37h-370zM485 563h549l-274 625zM571 1821q0 77 54.5 131.5t130.5 54.5q78 0 132 -54.5t54 -131.5t-54 -131t-132 -54q-76 0 -130.5 54t-54.5 131zM664 1821 q0 -38 27.5 -65t64.5 -27q38 0 66 27t28 65t-28 66t-66 28q-37 0 -64.5 -28t-27.5 -66z" />
<glyph unicode="&#xc6;" horiz-adv-x="2048" d="M23 0v37h16q28 0 55.5 15.5t49 36t51 63.5t48 74.5t52.5 92.5l612 1086h-178v139h1145v-407h-37v28q0 144 -102.5 243t-278.5 99h-242v-626h142q102 0 152.5 63.5t50.5 206.5v23h36v-414h-508v-584h637v-176h-995v37h178v426h-483l-109 -201q-55 -108 -55 -153 q0 -72 129 -72h14v-37h-380zM440 500h467v831h-4z" />
<glyph unicode="&#xc7;" horiz-adv-x="1312" d="M61 764q0 228 80 403.5t234 275t360 99.5q63 0 138 -26t138 -52t97 -26q65 0 68 61h36v-483h-36q-13 80 -51 164.5t-94 158t-134.5 120t-161.5 46.5q-162 0 -245.5 -169t-83.5 -548q0 -183 31 -310.5t92 -199.5t141.5 -103.5t189.5 -31.5q232 0 412 160v-227 q-88 -52 -196 -80.5t-210 -28.5q-217 0 -402 105.5t-294 289t-109 402.5zM535 -397l16 26q64 -22 141 -22q135 -6 135 106q0 34 -20 58t-57 24q-40 0 -84 -12l-35 14l121 203h49l-105 -172l4 -4q46 20 125 20q61 0 111.5 -35.5t50.5 -91.5q0 -44 -22.5 -76.5t-59 -49.5 t-75.5 -25t-80 -8q-89 0 -215 45z" />
<glyph unicode="&#xc8;" horiz-adv-x="1216" d="M16 0v37h166v1507h979v-407h-37v28q0 144 -102.5 243t-278.5 99h-241v-626h141q102 0 152.5 63.5t50.5 206.5v23h37v-414h-508v-584h637v-176h-996zM365 1993l170 90l22 -29h18h17q33 1 45.5 -13t54.5 -99l150 -306h-27l-72 78l-43 -26z" />
<glyph unicode="&#xc9;" horiz-adv-x="1216" d="M16 0v37h166v1507h979v-407h-37v28q0 144 -102.5 243t-278.5 99h-241v-626h141q102 0 152.5 63.5t50.5 206.5v23h37v-414h-508v-584h637v-176h-996zM467 1640l149 306q38 77 55.5 94.5t61.5 17.5h21l22 29l170 -90l-336 -305l-43 26l-73 -78h-27z" />
<glyph unicode="&#xca;" horiz-adv-x="1216" d="M16 0v37h166v1507h979v-407h-37v28q0 144 -102.5 243t-278.5 99h-241v-626h141q102 0 152.5 63.5t50.5 206.5v23h37v-414h-508v-584h637v-176h-996zM317 1733l326 297l330 -297l-121 -95l-209 197l-207 -197z" />
<glyph unicode="&#xcb;" horiz-adv-x="1216" d="M16 0v37h166v1507h979v-407h-37v28q0 144 -102.5 243t-278.5 99h-241v-626h141q102 0 152.5 63.5t50.5 206.5v23h37v-414h-508v-584h637v-176h-996zM350 1767q0 54 37.5 91.5t91.5 37.5t91.5 -37.5t37.5 -91.5t-37.5 -91.5t-91.5 -37.5t-91.5 37.5t-37.5 91.5zM707 1767 q0 54 37.5 91.5t91.5 37.5t91.5 -37.5t37.5 -91.5t-37.5 -91.5t-91.5 -37.5t-91.5 37.5t-37.5 91.5z" />
<glyph unicode="&#xcc;" horiz-adv-x="573" d="M-66 1995l170 90l23 -29h18h17q33 1 45.5 -13t54.5 -99l150 -306h-27l-72 78l-43 -26zM74 0v37h166v1470h-166v37h334v-1544h-334z" />
<glyph unicode="&#xcd;" horiz-adv-x="573" d="M74 0v37h166v1470h-166v37h334v-1544h-334zM199 1638l149 306q38 77 55.5 94.5t61.5 17.5h20l23 29l170 -90l-336 -305l-43 26l-74 -78h-26z" />
<glyph unicode="&#xce;" horiz-adv-x="573" d="M6 1731l326 297l330 -297l-121 -95l-209 197l-207 -197zM74 0v37h166v1470h-166v37h334v-1544h-334z" />
<glyph unicode="&#xcf;" horiz-adv-x="573" d="M6 1767q0 54 37.5 91.5t91.5 37.5t91.5 -37.5t37.5 -91.5t-37.5 -91.5t-91.5 -37.5t-91.5 37.5t-37.5 91.5zM74 0v37h166v1470h-166v37h334v-1544h-334zM362 1767q0 54 38 91.5t92 37.5t91.5 -37.5t37.5 -91.5t-37.5 -91.5t-91.5 -37.5t-92 37.5t-38 91.5z" />
<glyph unicode="&#xd1;" horiz-adv-x="1683" d="M63 0v37h15h22q56 0 89.5 31t33.5 116v1100l-90 121h-63v37h422l813 -1045h14v1147h192v-1569h-280l-955 1246h-4v-1047q0 -84 34.5 -110.5t125.5 -26.5h19v-37h-388zM420 1731l6 10q20 29 34 47.5t36 41t42.5 35.5t48.5 22t60 9q85 0 182 -53q101 -55 148 -55 q71 0 131 98l96 -80q-37 -77 -98.5 -122.5t-142.5 -45.5q-60 0 -170 54q-108 51 -160 51q-35 0 -67.5 -28.5t-49.5 -65.5z" />
<glyph unicode="&#xd2;" horiz-adv-x="1857" d="M86 772q0 130 41.5 253t116.5 222t174.5 173.5t223 115.5t253.5 41t253.5 -41t223 -115.5t174.5 -173.5t116.5 -222t41.5 -253q0 -169 -64 -319t-173 -256t-258 -168t-314 -62t-314 62t-258 168t-173 256t-64 319zM479 721q0 -398 65 -557.5t242 -159.5t242.5 159.5 t65.5 557.5q0 135 -9 243t-24 182.5t-39 128.5t-48.5 85t-58 49t-62.5 23.5t-67 5.5t-67 -5.5t-62.5 -23.5t-58 -49t-48 -85t-38.5 -128.5t-24 -182.5t-9 -243zM498 1995l170 90l22 -29h19q42 0 47 -2q16 -6 42 -56q7 -13 27 -54l150 -306h-27l-71 78l-43 -26z" />
<glyph unicode="&#xd3;" horiz-adv-x="1857" d="M86 772q0 130 41.5 253t116.5 222t174.5 173.5t223 115.5t253.5 41t253.5 -41t223 -115.5t174.5 -173.5t116.5 -222t41.5 -253q0 -169 -64 -319t-173 -256t-258 -168t-314 -62t-314 62t-258 168t-173 256t-64 319zM479 721q0 -398 65 -557.5t242 -159.5t242.5 159.5 t65.5 557.5q0 135 -9 243t-24 182.5t-39 128.5t-48.5 85t-58 49t-62.5 23.5t-67 5.5t-67 -5.5t-62.5 -23.5t-58 -49t-48 -85t-38.5 -128.5t-24 -182.5t-9 -243zM674 1638l149 306q39 77 56 94.5t61 17.5h21l22 29l170 -90l-336 -305l-43 26l-74 -78h-26z" />
<glyph unicode="&#xd4;" horiz-adv-x="1857" d="M86 772q0 130 41.5 253t116.5 222t174.5 173.5t223 115.5t253.5 41t253.5 -41t223 -115.5t174.5 -173.5t116.5 -222t41.5 -253q0 -169 -64 -319t-173 -256t-258 -168t-314 -62t-314 62t-258 168t-173 256t-64 319zM479 721q0 -398 65 -557.5t242 -159.5t242.5 159.5 t65.5 557.5q0 135 -9 243t-24 182.5t-39 128.5t-48.5 85t-58 49t-62.5 23.5t-67 5.5t-67 -5.5t-62.5 -23.5t-58 -49t-48 -85t-38.5 -128.5t-24 -182.5t-9 -243zM516 1733l326 297l329 -297l-120 -95l-209 197l-207 -197z" />
<glyph unicode="&#xd5;" horiz-adv-x="1857" d="M86 772q0 130 41.5 253t116.5 222t174.5 173.5t223 115.5t253.5 41t253.5 -41t223 -115.5t174.5 -173.5t116.5 -222t41.5 -253q0 -169 -64 -319t-173 -256t-258 -168t-314 -62t-314 62t-258 168t-173 256t-64 319zM453 1731l6 10q20 29 34 47.5t36 41t42.5 35.5t48.5 22 t60 9q85 0 182 -53q101 -55 148 -55q71 0 131 98l96 -80q-37 -76 -99 -122t-143 -46q-60 0 -170 54q-108 51 -159 51q-35 0 -67.5 -28.5t-49.5 -65.5zM479 721q0 -398 65 -557.5t242 -159.5t242.5 159.5t65.5 557.5q0 135 -9 243t-24 182.5t-39 128.5t-48.5 85t-58 49 t-62.5 23.5t-67 5.5t-67 -5.5t-62.5 -23.5t-58 -49t-48 -85t-38.5 -128.5t-24 -182.5t-9 -243z" />
<glyph unicode="&#xd6;" horiz-adv-x="1857" d="M86 772q0 130 41.5 253t116.5 222t174.5 173.5t223 115.5t253.5 41t253.5 -41t223 -115.5t174.5 -173.5t116.5 -222t41.5 -253q0 -169 -64 -319t-173 -256t-258 -168t-314 -62t-314 62t-258 168t-173 256t-64 319zM479 721q0 -398 65 -557.5t242 -159.5t242.5 159.5 t65.5 557.5q0 135 -9 243t-24 182.5t-39 128.5t-48.5 85t-58 49t-62.5 23.5t-67 5.5t-67 -5.5t-62.5 -23.5t-58 -49t-48 -85t-38.5 -128.5t-24 -182.5t-9 -243zM543 1767q0 54 37.5 91.5t91.5 37.5t91.5 -37.5t37.5 -91.5t-37.5 -91.5t-91.5 -37.5t-91.5 37.5t-37.5 91.5z M899 1767q0 54 37.5 91.5t91.5 37.5t91.5 -37.5t37.5 -91.5t-37.5 -91.5t-91.5 -37.5t-91.5 37.5t-37.5 91.5z" />
<glyph unicode="&#xd8;" horiz-adv-x="1857" d="M27 43l202 203q-190 211 -190 526q0 130 41.5 253t116.5 222t174.5 173.5t223 115.5t253.5 41q145 0 287.5 -53.5t246.5 -151.5l205 205l82 -84l-205 -205q90 -112 141.5 -245.5t51.5 -270.5q0 -169 -64 -319t-173 -256t-258 -168t-314 -62q-285 0 -533 195l-204 -205z M432 721q0 -320 39 -467l510 1001q-21 57 -49 95t-60.5 56t-63 25t-69.5 7q-38 0 -67 -5.5t-62.5 -23.5t-58 -49t-48 -85t-38.5 -128.5t-24 -182.5t-9 -243zM494 174q34 -89 93 -129.5t152 -40.5q177 0 242.5 159.5t65.5 557.5q0 307 -43 455z" />
<glyph unicode="&#xd9;" horiz-adv-x="1423" d="M141 567v977h1h1h1h1h1h1h1h1h1h1h1h1h1h1h1h1h1h1h1h1h1h1h1h1h1h1h1h1h1h1h1h1h1h1h1h1h1h1h1h1h1h1h1h1h1h1h1h1h1h1h1h1h1h1h1h1h1h1h1h1h1h2h1h1h1h1h1h1h1h1h1h1h1h1h2h1h1h1h1h1h1h1h2h1h1h1h1h2h1h1h1h1h2h1h1h1h1h2h1h1h1h2h1h1h2h1h1h1h2h1h1h2h1h1h2h1h1h2h1 h1h2h1h1h2h1h1h2h1h2h1h1h2h1h2h1h2h1h1h2h1h2h1h2h1h2h1h1h2h1h2h1h2h1h2h1h2h1h2h1h2h2h1h2h1h2h1h2h1h2h1h2h2h1h2h1h2h2h1h2h1h2h2h1h2h2h1h2h1h2h2h1h2h2h1h2h2h1h2h2h1h2h2h2h1h2h2h1h2h2h2h1h2h2h1h2h2h2h2h1h2h2h2h1h2h2h2h2h1h2h2h2h2h1h2h2h2h2h2h2h1h2h2h2h2h2h2 h2h1h2h2h2h2h2h2h2h2h2h2h9v-37h-166v-901q0 -85 8.5 -149.5t32 -126t62.5 -101t103.5 -63t151.5 -23.5q158 0 262.5 107t104.5 307v778q0 92 -30.5 132t-106.5 40h-60v37h400v-977q0 -171 -66.5 -306t-196 -214.5t-302.5 -79.5t-303 79.5t-196.5 214.5t-66.5 306zM371 1995 l170 90l22 -29h19h17q32 1 43.5 -12t53.5 -97l2 -3l150 -306h-27l-71 78l-43 -26z" />
<glyph unicode="&#xda;" horiz-adv-x="1423" d="M141 567v977h1h1h1h1h1h1h1h1h1h1h1h1h1h1h1h1h1h1h1h1h1h1h1h1h1h1h1h1h1h1h1h1h1h1h1h1h1h1h1h1h1h1h1h1h1h1h1h1h1h1h1h1h1h1h1h1h1h1h1h1h1h2h1h1h1h1h1h1h1h1h1h1h1h1h2h1h1h1h1h1h1h1h2h1h1h1h1h2h1h1h1h1h2h1h1h1h1h2h1h1h1h2h1h1h2h1h1h1h2h1h1h2h1h1h2h1h1h2h1 h1h2h1h1h2h1h1h2h1h2h1h1h2h1h2h1h2h1h1h2h1h2h1h2h1h2h1h1h2h1h2h1h2h1h2h1h2h1h2h1h2h2h1h2h1h2h1h2h1h2h1h2h2h1h2h1h2h2h1h2h1h2h2h1h2h2h1h2h1h2h2h1h2h2h1h2h2h1h2h2h1h2h2h2h1h2h2h1h2h2h2h1h2h2h1h2h2h2h2h1h2h2h2h1h2h2h2h2h1h2h2h2h2h1h2h2h2h2h2h2h1h2h2h2h2h2h2 h2h1h2h2h2h2h2h2h2h2h2h2h9v-37h-166v-901q0 -85 8.5 -149.5t32 -126t62.5 -101t103.5 -63t151.5 -23.5q158 0 262.5 107t104.5 307v778q0 92 -30.5 132t-106.5 40h-60v37h400v-977q0 -171 -66.5 -306t-196 -214.5t-302.5 -79.5t-303 79.5t-196.5 214.5t-66.5 306zM465 1638 l149 306q38 77 55.5 94.5t61.5 17.5h21l22 29l170 -90l-336 -305l-43 26l-73 -78h-27z" />
<glyph unicode="&#xdb;" horiz-adv-x="1423" d="M141 567v977h1h1h1h1h1h1h1h1h1h1h1h1h1h1h1h1h1h1h1h1h1h1h1h1h1h1h1h1h1h1h1h1h1h1h1h1h1h1h1h1h1h1h1h1h1h1h1h1h1h1h1h1h1h1h1h1h1h1h1h1h1h2h1h1h1h1h1h1h1h1h1h1h1h1h2h1h1h1h1h1h1h1h2h1h1h1h1h2h1h1h1h1h2h1h1h1h1h2h1h1h1h2h1h1h2h1h1h1h2h1h1h2h1h1h2h1h1h2h1 h1h2h1h1h2h1h1h2h1h2h1h1h2h1h2h1h2h1h1h2h1h2h1h2h1h2h1h1h2h1h2h1h2h1h2h1h2h1h2h1h2h2h1h2h1h2h1h2h1h2h1h2h2h1h2h1h2h2h1h2h1h2h2h1h2h2h1h2h1h2h2h1h2h2h1h2h2h1h2h2h1h2h2h2h1h2h2h1h2h2h2h1h2h2h1h2h2h2h2h1h2h2h2h1h2h2h2h2h1h2h2h2h2h1h2h2h2h2h2h2h1h2h2h2h2h2h2 h2h1h2h2h2h2h2h2h2h2h2h2h9v-37h-166v-901q0 -85 8.5 -149.5t32 -126t62.5 -101t103.5 -63t151.5 -23.5q158 0 262.5 107t104.5 307v778q0 92 -30.5 132t-106.5 40h-60v37h400v-977q0 -171 -66.5 -306t-196 -214.5t-302.5 -79.5t-303 79.5t-196.5 214.5t-66.5 306zM315 1733 l326 297l330 -297l-121 -95l-209 197l-207 -197z" />
<glyph unicode="&#xdc;" horiz-adv-x="1423" d="M141 567v977h1h1h1h1h1h1h1h1h1h1h1h1h1h1h1h1h1h1h1h1h1h1h1h1h1h1h1h1h1h1h1h1h1h1h1h1h1h1h1h1h1h1h1h1h1h1h1h1h1h1h1h1h1h1h1h1h1h1h1h1h1h2h1h1h1h1h1h1h1h1h1h1h1h1h2h1h1h1h1h1h1h1h2h1h1h1h1h2h1h1h1h1h2h1h1h1h1h2h1h1h1h2h1h1h2h1h1h1h2h1h1h2h1h1h2h1h1h2h1 h1h2h1h1h2h1h1h2h1h2h1h1h2h1h2h1h2h1h1h2h1h2h1h2h1h2h1h1h2h1h2h1h2h1h2h1h2h1h2h1h2h2h1h2h1h2h1h2h1h2h1h2h2h1h2h1h2h2h1h2h1h2h2h1h2h2h1h2h1h2h2h1h2h2h1h2h2h1h2h2h1h2h2h2h1h2h2h1h2h2h2h1h2h2h1h2h2h2h2h1h2h2h2h1h2h2h2h2h1h2h2h2h2h1h2h2h2h2h2h2h1h2h2h2h2h2h2 h2h1h2h2h2h2h2h2h2h2h2h2h9v-37h-166v-901q0 -85 8.5 -149.5t32 -126t62.5 -101t103.5 -63t151.5 -23.5q158 0 262.5 107t104.5 307v778q0 92 -30.5 132t-106.5 40h-60v37h400v-977q0 -171 -66.5 -306t-196 -214.5t-302.5 -79.5t-303 79.5t-196.5 214.5t-66.5 306zM326 1767 q0 54 37.5 91.5t91.5 37.5t91.5 -37.5t37.5 -91.5t-37.5 -91.5t-91.5 -37.5t-91.5 37.5t-37.5 91.5zM682 1767q0 54 37.5 91.5t91.5 37.5t91.5 -37.5t37.5 -91.5t-37.5 -91.5t-91.5 -37.5t-91.5 37.5t-37.5 91.5z" />
<glyph unicode="&#xdf;" horiz-adv-x="1187" d="M57 791v172h82v303q0 536 455 536q190 0 317 -125t127 -317q0 -227 -196 -342q147 -48 233 -188t86 -302q0 -158 -77 -282t-210 -191t-296 -67q-121 0 -205.5 63t-83.5 168q0 57 34 97t87 40q66 0 101.5 -32t35.5 -91q0 -31 -11.5 -55.5t-28.5 -38.5t-33.5 -25t-28 -23 t-11.5 -25q0 -21 46 -37.5t95 -16.5q33 0 70 12t72.5 34.5t58.5 62.5t23 90q0 47 -24.5 83.5t-64 60.5t-87 44.5t-95.5 41t-87.5 44.5t-64 60.5t-24.5 83.5q0 35 15 66.5t39 58.5t53 55t58.5 62.5t53.5 74t39 95.5t15 122q0 136 -45.5 205.5t-167.5 69.5q-121 0 -175.5 -64 t-54.5 -190v-1147h115v-37h-158v791h-82z" />
<glyph unicode="&#xe0;" horiz-adv-x="1185" d="M53 485q0 132 54 245.5t159 185t240 71.5q103 0 188 -49.5t144 -138.5h4v159h184v-794q0 -103 47 -103q34 0 53 35t19 80h37q0 -91 -59.5 -146t-159.5 -55q-65 0 -114.5 28t-74.5 71q-69 -55 -112 -75q-68 -32 -150 -32q-141 0 -247.5 73t-159 189.5t-52.5 255.5z M90 1413l170 90l23 -28h18h16q20 1 26.5 0.5t19.5 -14.5t21.5 -31.5t33.5 -67.5l149 -305h-26l-72 78l-43 -27zM449 270q0 -33 1 -55t5.5 -52t14 -50t25 -38.5t40.5 -28t59 -9.5q70 0 114.5 61t47.5 146v237l-162 -16q-48 -5 -78.5 -20t-44.5 -43t-18 -56.5t-4 -75.5z" />
<glyph unicode="&#xe1;" horiz-adv-x="1185" d="M53 485q0 132 54 245.5t159 185t240 71.5q103 0 188 -49.5t144 -138.5h4v159h184v-794q0 -103 47 -103q34 0 53 35t19 80h37q0 -91 -59.5 -146t-159.5 -55q-65 0 -114.5 28t-74.5 71q-69 -55 -112 -75q-68 -32 -150 -32q-141 0 -247.5 73t-159 189.5t-52.5 255.5z M444 1057l150 305q39 78 56 95.5t61 17.5h20l23 28l170 -90l-336 -305l-43 27l-74 -78h-27zM449 270q0 -33 1 -55t5.5 -52t14 -50t25 -38.5t40.5 -28t59 -9.5q70 0 114.5 61t47.5 146v237l-162 -16q-48 -5 -78.5 -20t-44.5 -43t-18 -56.5t-4 -75.5z" />
<glyph unicode="&#xe2;" horiz-adv-x="1185" d="M53 485q0 132 54 245.5t159 185t240 71.5q103 0 188 -49.5t144 -138.5h4v159h184v-794q0 -103 47 -103q34 0 53 35t19 80h37q0 -91 -59.5 -146t-159.5 -55q-65 0 -114.5 28t-74.5 71q-69 -55 -112 -75q-68 -32 -150 -32q-141 0 -247.5 73t-159 189.5t-52.5 255.5z M246 1206l325 297l330 -297l-121 -94l-209 197l-206 -197zM449 270q0 -33 1 -55t5.5 -52t14 -50t25 -38.5t40.5 -28t59 -9.5q70 0 114.5 61t47.5 146v237l-162 -16q-48 -5 -78.5 -20t-44.5 -43t-18 -56.5t-4 -75.5z" />
<glyph unicode="&#xe3;" horiz-adv-x="1185" d="M53 485q0 132 54 245.5t159 185t240 71.5q103 0 188 -49.5t144 -138.5h4v159h184v-794q0 -103 47 -103q34 0 53 35t19 80h37q0 -91 -59.5 -146t-159.5 -55q-65 0 -114.5 28t-74.5 71q-69 -55 -112 -75q-68 -32 -150 -32q-141 0 -247.5 73t-159 189.5t-52.5 255.5z M233 1255l7 11q20 29 34 47.5t36 41t42.5 35.5t48.5 22t60 9q85 0 182 -53q101 -55 148 -55q71 0 131 98l96 -80q-37 -76 -99 -122t-143 -46q-60 0 -170 54q-108 51 -160 51q-35 0 -67 -28.5t-49 -65.5zM449 270q0 -33 1 -55t5.5 -52t14 -50t25 -38.5t40.5 -28t59 -9.5 q70 0 114.5 61t47.5 146v237l-162 -16q-48 -5 -78.5 -20t-44.5 -43t-18 -56.5t-4 -75.5z" />
<glyph unicode="&#xe4;" horiz-adv-x="1185" d="M53 485q0 132 54 245.5t159 185t240 71.5q103 0 188 -49.5t144 -138.5h4v159h184v-794q0 -103 47 -103q34 0 53 35t19 80h37q0 -91 -59.5 -146t-159.5 -55q-65 0 -114.5 28t-74.5 71q-69 -55 -112 -75q-68 -32 -150 -32q-141 0 -247.5 73t-159 189.5t-52.5 255.5z M274 1282q0 54 37.5 91.5t91.5 37.5t91.5 -37.5t37.5 -91.5t-37.5 -91.5t-91.5 -37.5t-91.5 37.5t-37.5 91.5zM449 270q0 -33 1 -55t5.5 -52t14 -50t25 -38.5t40.5 -28t59 -9.5q70 0 114.5 61t47.5 146v237l-162 -16q-48 -5 -78.5 -20t-44.5 -43t-18 -56.5t-4 -75.5z M631 1282q0 54 37.5 91.5t91.5 37.5t91.5 -37.5t37.5 -91.5t-37.5 -91.5t-91.5 -37.5t-91.5 37.5t-37.5 91.5z" />
<glyph unicode="&#xe5;" horiz-adv-x="1185" d="M53 485q0 132 54 245.5t159 185t240 71.5q103 0 188 -49.5t144 -138.5h4v159h184v-794q0 -103 47 -103q34 0 53 35t19 80h37q0 -91 -59.5 -146t-159.5 -55q-65 0 -114.5 28t-74.5 71q-69 -55 -112 -75q-68 -32 -150 -32q-141 0 -247.5 73t-159 189.5t-52.5 255.5z M389 1317q0 77 54 131.5t130 54.5q78 0 132.5 -54.5t54.5 -131.5t-54.5 -130.5t-132.5 -53.5q-77 0 -130.5 53.5t-53.5 130.5zM449 270q0 -33 1 -55t5.5 -52t14 -50t25 -38.5t40.5 -28t59 -9.5q70 0 114.5 61t47.5 146v237l-162 -16q-48 -5 -78.5 -20t-44.5 -43t-18 -56.5 t-4 -75.5zM481 1317q0 -38 27.5 -65t64.5 -27q39 0 67 27t28 65t-28.5 66t-66.5 28q-37 0 -64.5 -28t-27.5 -66z" />
<glyph unicode="&#xe6;" horiz-adv-x="1652" d="M53 485q0 132 54 245.5t159 185t240 71.5q103 0 188 -49.5t144 -138.5h4v159h184v-57q4 3 11.5 9t34 21t56.5 26t79 20.5t102 9.5q111 0 198 -39.5t141 -109t81.5 -161t27.5 -200.5v-28h-731q2 -129 82 -223.5t207 -94.5q100 0 165 46t122 140l155 -88 q-67 -124 -185.5 -193t-258.5 -69q-60 0 -113.5 11.5t-76.5 23.5l-23 12q-5 -4 -14.5 -10.5t-45 -17.5t-77.5 -11q-65 0 -114.5 28t-74.5 71q-69 -55 -112 -75q-68 -32 -150 -32q-141 0 -247.5 73t-159 189.5t-52.5 255.5zM449 270q0 -33 1 -55t5.5 -52t14 -50t25 -38.5 t40.5 -28t59 -9.5q70 0 114.5 61t47.5 146v237l-162 -16q-48 -5 -78.5 -20t-44.5 -43t-18 -56.5t-4 -75.5zM1178 532h258v177q0 90 -29.5 135t-99.5 45q-129 0 -129 -180v-177z" />
<glyph unicode="&#xe7;" horiz-adv-x="903" d="M53 471q0 108 41 199.5t110.5 152t161.5 94t193 33.5q55 0 114 -14t113.5 -41t89.5 -75.5t35 -108.5t-38.5 -101t-110.5 -41q-61 0 -97 40t-36 100q0 31 12 55.5t27 36t27 24t12 23.5q0 26 -40.5 45.5t-107.5 19.5q-111 0 -155 -69t-44 -238v-233q0 -129 49.5 -181.5 t159.5 -52.5q148 0 262 127v-235q-119 -64 -264 -64q-140 0 -258 65.5t-187 181.5t-69 257zM285 -397l16 26q64 -22 141 -22q64 -3 100 23.5t36 82.5q0 34 -20.5 58t-57.5 24q-40 0 -84 -12l-35 14l121 203h49l-105 -172l5 -4q46 20 124 20q61 0 111.5 -35.5t50.5 -91.5 q0 -44 -22.5 -76.5t-59 -49.5t-75.5 -25t-80 -8q-89 0 -215 45z" />
<glyph unicode="&#xe8;" horiz-adv-x="999" d="M53 471q0 230 121.5 373t345.5 143q148 0 251 -69t150.5 -182t47.5 -259v-28h-731q2 -129 81.5 -223.5t206.5 -94.5q100 0 165 46t122 140l156 -88q-67 -124 -185.5 -193t-259.5 -69q-143 0 -251 67t-164 181t-56 256zM131 1413l170 90l23 -28h18h16q20 1 26.5 0.5 t19.5 -14.5t21.5 -31.5t33.5 -67.5l149 -305h-26l-72 78l-43 -27zM389 532h258v177q0 90 -29.5 135t-99.5 45q-129 0 -129 -180v-177z" />
<glyph unicode="&#xe9;" horiz-adv-x="999" d="M53 471q0 230 121.5 373t345.5 143q148 0 251 -69t150.5 -182t47.5 -259v-28h-731q2 -129 81.5 -223.5t206.5 -94.5q100 0 165 46t122 140l156 -88q-67 -124 -185.5 -193t-259.5 -69q-143 0 -251 67t-164 181t-56 256zM389 532h258v177q0 90 -29.5 135t-99.5 45 q-129 0 -129 -180v-177zM424 1057l149 305q39 78 56 95.5t61 17.5h21l22 28l170 -90l-336 -305l-43 27l-73 -78h-27z" />
<glyph unicode="&#xea;" horiz-adv-x="999" d="M53 471q0 230 121.5 373t345.5 143q148 0 251 -69t150.5 -182t47.5 -259v-28h-731q2 -129 81.5 -223.5t206.5 -94.5q100 0 165 46t122 140l156 -88q-67 -124 -185.5 -193t-259.5 -69q-143 0 -251 67t-164 181t-56 256zM195 1206l325 297l330 -297l-121 -94l-209 197 l-207 -197zM389 532h258v177q0 90 -29.5 135t-99.5 45q-129 0 -129 -180v-177z" />
<glyph unicode="&#xeb;" horiz-adv-x="999" d="M53 471q0 230 121.5 373t345.5 143q148 0 251 -69t150.5 -182t47.5 -259v-28h-731q2 -129 81.5 -223.5t206.5 -94.5q100 0 165 46t122 140l156 -88q-67 -124 -185.5 -193t-259.5 -69q-143 0 -251 67t-164 181t-56 256zM223 1282q0 54 37.5 91.5t91.5 37.5t91.5 -37.5 t37.5 -91.5t-37.5 -91.5t-91.5 -37.5t-91.5 37.5t-37.5 91.5zM389 532h258v177q0 90 -29.5 135t-99.5 45q-129 0 -129 -180v-177zM580 1282q0 54 37.5 91.5t91.5 37.5t91.5 -37.5t37.5 -91.5t-37.5 -91.5t-91.5 -37.5t-91.5 37.5t-37.5 91.5z" />
<glyph unicode="&#xec;" horiz-adv-x="520" d="M-104 1413l170 90l22 -28h18h16q20 1 26.5 0.5t19.5 -14.5t21.5 -31.5t33.5 -67.5l150 -305h-27l-72 78l-43 -27zM61 0v37h142v827h-142v94h326v-958h-326z" />
<glyph unicode="&#xed;" horiz-adv-x="520" d="M61 0v37h142v827h-142v94h326v-958h-326zM199 1057l149 305q39 78 56 95.5t61 17.5h20l23 28l170 -90l-336 -305l-43 27l-74 -78h-26z" />
<glyph unicode="&#xee;" horiz-adv-x="520" d="M-72 1206l326 297l330 -297l-121 -94l-209 197l-207 -197zM61 0v37h142v827h-142v94h326v-958h-326z" />
<glyph unicode="&#xef;" horiz-adv-x="520" d="M-53 1282q0 54 37.5 91.5t91.5 37.5t91.5 -37.5t37.5 -91.5t-37.5 -91.5t-91.5 -37.5t-91.5 37.5t-37.5 91.5zM61 0v37h142v827h-142v94h326v-958h-326zM303 1282q0 54 37.5 91.5t91.5 37.5t91.5 -37.5t37.5 -91.5t-37.5 -91.5t-91.5 -37.5t-91.5 37.5t-37.5 91.5z" />
<glyph unicode="&#xf1;" horiz-adv-x="1011" d="M-14 0v37h141v921h184v-129h4q42 75 120.5 116.5t168.5 41.5q98 0 166.5 -31.5t105.5 -90.5t52.5 -130t15.5 -164v-571h-1h-1h-1h-1h-1h-1h-1h-1h-1h-1h-1h-1h-1h-1h-1h-1h-1h-1h-1h-1h-1h-1h-1h-1h-1h-1h-1h-1h-1h-1h-1h-1h-1h-1h-1h-1h-1h-1h-1h-1h-1h-1h-1h-1h-1h-1 h-1h-1h-1h-1h-1h-1h-1h-1h-1h-1h-1h-1h-1h-1h-1h-1h-1h-1h-1h-2h-1h-1h-1h-1h-1h-1h-2h-1h-1h-1h-1h-2h-1h-1h-1h-1h-2h-1h-1h-1h-2h-1h-1h-1h-2h-1h-1h-2h-1h-1h-1h-2h-1h-1h-2h-1h-1h-2h-1h-2h-1h-1h-2h-1h-1h-2h-1h-2h-1h-1h-2h-1h-2h-1h-2h-1h-2h-1h-1h-2h-1h-2h-1h-2 h-1h-2h-1h-2h-1h-2h-1h-2h-1h-2h-1h-2h-2h-1h-2h-1h-2h-1h-2h-2h-1h-2h-1h-2h-2h-1h-2h-1h-2h-2h-1h-2h-2h-1h-2h-1h-2h-2h-1h-2h-2h-2h-1h-2h-2h-1h-2h-2h-1h-2h-2h-2h-1h-2h-2h-2h-1h-2h-2h-2h-1h-2h-2h-2h-1h-2h-2h-2h-2h-1h-2h-2h-2h-2h-2h-1h-2h-2h-2h-2h-2h-2h-1h-2 h-2h-2h-2h-2h-2h-2h-9v37h117v647q0 97 -33.5 132.5t-87.5 35.5q-82 0 -149.5 -85.5t-67.5 -168.5v-561h120v-37h-544zM162 1255l6 11q20 29 34 47.5t36 41t42.5 35.5t48.5 22t60 9q85 0 182 -53q101 -55 148 -55q71 0 131 98l96 -80q-37 -77 -98.5 -122.5t-142.5 -45.5 q-60 0 -170 54q-108 51 -160 51q-35 0 -67.5 -28.5t-49.5 -65.5z" />
<glyph unicode="&#xf2;" horiz-adv-x="1105" d="M41 477q0 216 148 363t364 147t364 -147t148 -363t-148 -363t-364 -147t-364 147t-148 363zM244 1413l170 90l22 -28h19h16q33 1 45 -12.5t52 -94.5q1 -3 3 -6l150 -305h-27l-71 78l-43 -27zM401 229q0 -217 168 -217t168 217v443q0 217 -168 217t-168 -217v-443z" />
<glyph unicode="&#xf3;" horiz-adv-x="1105" d="M41 477q0 216 148 363t364 147t364 -147t148 -363t-148 -363t-364 -147t-364 147t-148 363zM401 229q0 -217 168 -217t168 217v443q0 217 -168 217t-168 -217v-443zM475 1057l150 305q39 78 55.5 95.5t60.5 17.5h21l22 28l170 -90l-336 -305l-43 27l-73 -78h-27z" />
<glyph unicode="&#xf4;" horiz-adv-x="1105" d="M41 477q0 216 148 363t364 147t364 -147t148 -363t-148 -363t-364 -147t-364 147t-148 363zM236 1206l325 297l330 -297l-121 -94l-209 197l-207 -197zM401 229q0 -217 168 -217t168 217v443q0 217 -168 217t-168 -217v-443z" />
<glyph unicode="&#xf5;" horiz-adv-x="1105" d="M41 477q0 216 148 363t364 147t364 -147t148 -363t-148 -363t-364 -147t-364 147t-148 363zM182 1255l6 11q25 36 43.5 59t46 47.5t60.5 36.5t72 12q85 0 182 -53q101 -55 147 -55q71 0 131 98l97 -80q-37 -76 -99 -122t-143 -46q-60 0 -170 54q-108 51 -160 51 q-35 0 -67 -28.5t-49 -65.5zM401 229q0 -217 168 -217t168 217v443q0 217 -168 217t-168 -217v-443z" />
<glyph unicode="&#xf6;" horiz-adv-x="1105" d="M41 477q0 216 148 363t364 147t364 -147t148 -363t-148 -363t-364 -147t-364 147t-148 363zM274 1282q0 54 37.5 91.5t91.5 37.5t91.5 -37.5t37.5 -91.5t-37.5 -91.5t-91.5 -37.5t-91.5 37.5t-37.5 91.5zM401 229q0 -217 168 -217t168 217v443q0 217 -168 217t-168 -217 v-443zM631 1282q0 54 37.5 91.5t91.5 37.5t91.5 -37.5t37.5 -91.5t-37.5 -91.5t-91.5 -37.5t-91.5 37.5t-37.5 91.5z" />
<glyph unicode="&#xf8;" horiz-adv-x="1105" d="M31 18l125 127q-115 160 -115 332q0 216 148 363t364 147q86 0 173.5 -31.5t152.5 -87.5l135 138l63 -66l-133 -131q121 -161 121 -332q0 -216 -148 -363t-364 -147q-192 0 -334 119l-125 -131zM383 213h4l307 598q-41 78 -143 78q-168 0 -168 -217v-459zM393 123 q11 -53 51 -82t107 -29q168 0 168 217v510h-4z" />
<glyph unicode="&#xf9;" horiz-adv-x="1095" d="M29 1413l170 90l22 -28h19h16q33 1 45 -12.5t52 -94.5q2 -3 3 -6l150 -305h-27l-71 78l-43 -27zM37 408v550h184v-530q0 -63 9.5 -111t32.5 -90.5t68 -65t111 -22.5t111 22.5t68.5 64.5t33 90t9.5 112v436h-142v37h146q63 0 103.5 1.5t97.5 14.5t77 37v-917h141v-37h-311 v172h-4q-40 -91 -130.5 -141.5t-197.5 -50.5q-74 0 -146 30.5t-130.5 84.5t-94.5 136t-36 177z" />
<glyph unicode="&#xfa;" horiz-adv-x="1095" d="M37 408v550h184v-530q0 -63 9.5 -111t32.5 -90.5t68 -65t111 -22.5t111 22.5t68.5 64.5t33 90t9.5 112v436h-142v37h146q63 0 103.5 1.5t97.5 14.5t77 37v-917h141v-37h-311v172h-4q-40 -91 -130.5 -141.5t-197.5 -50.5q-74 0 -146 30.5t-130.5 84.5t-94.5 136t-36 177z M352 1057l150 305q39 78 55.5 95.5t60.5 17.5h21l23 28l169 -90l-335 -305l-43 27l-74 -78h-27z" />
<glyph unicode="&#xfb;" horiz-adv-x="1095" d="M37 408v550h184v-530q0 -63 9.5 -111t32.5 -90.5t68 -65t111 -22.5t111 22.5t68.5 64.5t33 90t9.5 112v436h-142v37h146q63 0 103.5 1.5t97.5 14.5t77 37v-917h141v-37h-311v172h-4q-40 -91 -130.5 -141.5t-197.5 -50.5q-74 0 -146 30.5t-130.5 84.5t-94.5 136t-36 177z M154 1206l325 297l330 -297l-121 -94l-209 197l-207 -197z" />
<glyph unicode="&#xfc;" horiz-adv-x="1095" d="M37 408v550h184v-530q0 -63 9.5 -111t32.5 -90.5t68 -65t111 -22.5t111 22.5t68.5 64.5t33 90t9.5 112v436h-142v37h146q63 0 103.5 1.5t97.5 14.5t77 37v-917h141v-37h-311v172h-4q-40 -91 -130.5 -141.5t-197.5 -50.5q-74 0 -146 30.5t-130.5 84.5t-94.5 136t-36 177z M162 1282q0 54 37.5 91.5t91.5 37.5t91.5 -37.5t37.5 -91.5t-37.5 -91.5t-91.5 -37.5t-91.5 37.5t-37.5 91.5zM518 1282q0 54 37.5 91.5t91.5 37.5t91.5 -37.5t37.5 -91.5t-37.5 -91.5t-91.5 -37.5t-91.5 37.5t-37.5 91.5z" />
<glyph unicode="&#xff;" horiz-adv-x="964" d="M-14 864v37h526v-37h-135l184 -413l252 507h207l-500 -970l-55 -250q-8 -36 -14.5 -61.5t-24.5 -67.5t-39.5 -68t-59 -46.5t-83.5 -20.5q-69 0 -118.5 40.5t-49.5 102.5q0 61 35 100t100 39q63 0 99 -34.5t36 -88.5q0 -33 -10 -69v-6q31 9 58.5 79t40 128.5t18.5 105.5 l12 82l-393 911h-86zM274 1282q0 54 37.5 91.5t91.5 37.5t91.5 -37.5t37.5 -91.5t-37.5 -91.5t-91.5 -37.5t-91.5 37.5t-37.5 91.5zM631 1282q0 54 37.5 91.5t91.5 37.5t91.5 -37.5t37.5 -91.5t-37.5 -91.5t-91.5 -37.5t-91.5 37.5t-37.5 91.5z" />
<glyph unicode="&#x152;" horiz-adv-x="2430" d="M39 772q0 130 41.5 253t116.5 222t174.5 173.5t223 115.5t253.5 41q272 0 493 -168v135h979v-407h-36v28q0 144 -102.5 243t-278.5 99h-242v-626h141q102 0 152.5 63.5t50.5 206.5v23h37v-414h-508v-584h637v-176h-995v35q-158 -68 -328 -68q-165 0 -314 62t-258 168 t-173 256t-64 319zM432 721q0 -398 65 -557.5t242 -159.5t242.5 159.5t65.5 557.5q0 135 -9 243t-24 182.5t-39 128.5t-48.5 85t-58 49t-62.5 23.5t-67 5.5t-67 -5.5t-62.5 -23.5t-58 -49t-48 -85t-38.5 -128.5t-24 -182.5t-9 -243z" />
<glyph unicode="&#x153;" horiz-adv-x="1878" d="M41 477q0 216 148 363t364 147q120 -5 232.5 -61.5t177.5 -153.5q130 206 395 215q111 0 198 -39.5t141 -109t81.5 -161t27.5 -200.5v-28h-731q2 -129 82 -223.5t207 -94.5q100 0 165 46t122 140l155 -88q-67 -124 -185.5 -193t-258.5 -69q-122 -2 -231 54.5t-168 156.5 q-68 -101 -178.5 -157t-231.5 -54q-216 0 -364 147t-148 363zM401 205q0 -95 43.5 -144t122.5 -49q86 0 132 48.5t46 144.5v448q0 125 -45 180.5t-133 55.5q-79 0 -122.5 -49t-43.5 -144v-491zM1212 532h293v197q0 85 -37.5 121.5t-109.5 36.5q-65 0 -105.5 -46t-40.5 -153 v-156z" />
<glyph unicode="&#x178;" horiz-adv-x="1341" d="M35 1544h221l551 -958l264 598q41 94 41 141q0 41 -28 60.5t-95 19.5h-26v37h368v-37h-14q-55 0 -94.5 -40.5t-85.5 -152.5l-279 -624v-551h158v-37h-635v37h158v635zM332 1767q0 54 37.5 91.5t91.5 37.5t91.5 -37.5t37.5 -91.5t-37.5 -91.5t-91.5 -37.5t-91.5 37.5 t-37.5 91.5zM688 1767q0 54 37.5 91.5t91.5 37.5t91.5 -37.5t37.5 -91.5t-37.5 -91.5t-91.5 -37.5t-91.5 37.5t-37.5 91.5z" />
<glyph unicode="&#x2c6;" horiz-adv-x="962" d="M154 1206l325 297l330 -297l-121 -94l-209 197l-207 -197z" />
<glyph unicode="&#x2dc;" horiz-adv-x="1044" d="M131 1255l6 11q20 29 34 47.5t36 41t42.5 35.5t48.5 22t60 9q86 0 183 -53q101 -55 147 -55q71 0 131 98l96 -80q-37 -77 -98.5 -122.5t-142.5 -45.5q-60 0 -170 54q-108 51 -160 51q-35 0 -67.5 -28.5t-49.5 -65.5z" />
<glyph unicode="&#x2000;" horiz-adv-x="1043" />
<glyph unicode="&#x2001;" horiz-adv-x="2087" />
<glyph unicode="&#x2002;" horiz-adv-x="1043" />
<glyph unicode="&#x2003;" horiz-adv-x="2087" />
<glyph unicode="&#x2004;" horiz-adv-x="695" />
<glyph unicode="&#x2005;" horiz-adv-x="521" />
<glyph unicode="&#x2006;" horiz-adv-x="347" />
<glyph unicode="&#x2007;" horiz-adv-x="347" />
<glyph unicode="&#x2008;" horiz-adv-x="260" />
<glyph unicode="&#x2009;" horiz-adv-x="417" />
<glyph unicode="&#x200a;" horiz-adv-x="115" />
<glyph unicode="&#x2010;" horiz-adv-x="909" d="M111 424l75 188q141 -8 322 -8q99 0 291 8l-76 -188q-38 1 -155.5 4.5t-182.5 3.5q-53 0 -148 -3.5t-126 -4.5z" />
<glyph unicode="&#x2011;" horiz-adv-x="909" d="M111 424l75 188q141 -8 322 -8q99 0 291 8l-76 -188q-38 1 -155.5 4.5t-182.5 3.5q-53 0 -148 -3.5t-126 -4.5z" />
<glyph unicode="&#x2012;" horiz-adv-x="909" d="M111 424l75 188q141 -8 322 -8q99 0 291 8l-76 -188q-38 1 -155.5 4.5t-182.5 3.5q-53 0 -148 -3.5t-126 -4.5z" />
<glyph unicode="&#x2013;" horiz-adv-x="1024" d="M0 438v160h1024v-160h-1024z" />
<glyph unicode="&#x2014;" horiz-adv-x="2048" d="M0 438v160h2048v-160h-2048z" />
<glyph unicode="&#x2018;" d="M113 1061q0 163 82 274t233 140v-35l-111 -279q64 -8 102 -52t38 -112q0 -67 -47.5 -116.5t-116.5 -49.5q-85 0 -132.5 61t-47.5 169z" />
<glyph unicode="&#x2019;" d="M113 1309q0 67 47 116.5t116 49.5q85 0 133 -61.5t48 -168.5q0 -163 -82.5 -274t-233.5 -140v35l111 279q-63 8 -101 52t-38 112z" />
<glyph unicode="&#x201a;" d="M113 141q0 67 47 116.5t116 49.5q85 0 133 -61t48 -168q0 -163 -82.5 -274t-233.5 -140v35l111 278q-63 8 -101 52t-38 112z" />
<glyph unicode="&#x201c;" horiz-adv-x="1024" d="M113 1061q0 163 82 274t233 140v-35l-111 -279q64 -8 102 -52t38 -112q0 -67 -47.5 -116.5t-116.5 -49.5q-85 0 -132.5 61t-47.5 169zM567 1061q0 163 82.5 274t233.5 140v-35l-111 -279q63 -8 101 -52t38 -112q0 -67 -47 -116.5t-116 -49.5q-85 0 -133 61.5t-48 168.5z " />
<glyph unicode="&#x201d;" horiz-adv-x="1024" d="M113 1309q0 67 47 116.5t116 49.5q85 0 133 -61.5t48 -168.5q0 -163 -82.5 -274t-233.5 -140v35l111 279q-63 8 -101 52t-38 112zM567 1309q0 67 47.5 116.5t116.5 49.5q85 0 132.5 -61t47.5 -169q0 -163 -82 -274t-233 -140v35l111 279q-64 8 -102 52t-38 112z" />
<glyph unicode="&#x201e;" horiz-adv-x="1024" d="M113 141q0 67 47 116.5t116 49.5q85 0 133 -61t48 -168q0 -163 -82.5 -274t-233.5 -140v35l111 278q-63 8 -101 52t-38 112zM567 141q0 67 47.5 116.5t116.5 49.5q85 0 132.5 -61t47.5 -168q0 -163 -82 -274t-233 -140v35l111 278q-64 8 -102 52t-38 112z" />
<glyph unicode="&#x2022;" horiz-adv-x="1183" d="M207 772q-1 161 111.5 274t273.5 113t274 -113t113 -274q0 -160 -114 -272.5t-273 -112.5t-272 112t-113 273z" />
<glyph unicode="&#x2026;" horiz-adv-x="2048" d="M176 141q0 69 48.5 117.5t117.5 48.5t117.5 -48.5t48.5 -117.5t-48.5 -117.5t-117.5 -48.5t-117.5 48.5t-48.5 117.5zM858 141q0 69 48.5 117.5t117.5 48.5t117.5 -48.5t48.5 -117.5t-48.5 -117.5t-117.5 -48.5t-117.5 48.5t-48.5 117.5zM1540 141q0 69 48.5 117.5 t117.5 48.5t117.5 -48.5t48.5 -117.5t-48.5 -117.5t-117.5 -48.5t-117.5 48.5t-48.5 117.5z" />
<glyph unicode="&#x202f;" horiz-adv-x="417" />
<glyph unicode="&#x2039;" d="M100 518l295 350l74 -61l-238 -289l238 -287l-74 -63z" />
<glyph unicode="&#x203a;" d="M100 229l238 289l-238 287l74 63l295 -350l-295 -350z" />
<glyph unicode="&#x205f;" horiz-adv-x="521" />
<glyph unicode="&#x2122;" horiz-adv-x="1941" d="M82 1237v268h702v-104h-219v-821h-305v22h113v881h-49q-58 0 -99 -18.5t-65 -54.5t-36.5 -76.5t-19.5 -96.5h-22zM854 580v22h4q57 0 76.5 28.5t19.5 76.5v714h-94v23h316l217 -629l317 729l191 -964h-121l-107 612h-4l-268 -612h-121l-295 835h-2v-696q0 -72 20 -94.5 t72 -22.5h17v-22h-238z" />
<glyph unicode="&#x25fc;" horiz-adv-x="962" d="M0 0v963h963v-963h-963z" />
<glyph unicode="&#xfb01;" horiz-adv-x="1177" d="M80 786v172h84v467q0 52 2 87.5t9 78t20 70.5t35.5 56.5t55.5 45t80.5 27t108.5 10.5q94 0 157.5 -55.5t63.5 -138.5q0 -66 -36 -104t-89 -38q-57 0 -88.5 33t-31.5 82q0 34 15.5 60t31.5 45t16 34q0 45 -59 45q-56 0 -93.5 -46.5t-37.5 -133.5q0 -59 17 -176t17 -180 h156v-37h-68v-1153h142v-37h-424v786h-84zM651 0v37h142v827h-142v94h326v-958h-326zM768 1268q0 69 48.5 117.5t117.5 48.5t117.5 -48.5t48.5 -117.5t-48.5 -117.5t-117.5 -48.5t-117.5 48.5t-48.5 117.5z" />
<glyph unicode="&#xfb02;" horiz-adv-x="1216" d="M80 786v172h84v467q0 52 2 87.5t9 78t20 70.5t35.5 56.5t55.5 45t80.5 27t108.5 10.5q94 0 157.5 -55.5t63.5 -138.5q0 -66 -36 -104t-89 -38q-57 0 -88.5 33t-31.5 82q0 34 15.5 60t31.5 45t16 34q0 45 -59 45q-56 0 -93.5 -46.5t-37.5 -133.5q0 -59 17 -176t17 -180 h156v-37h-68v-1153h142v-37h-424v786h-84zM649 1741v37h326v-1741h141v-37h-325v1741h-142z" />
</font>
</defs>
</svg>
