<?xml version="1.0" standalone="no"?>
<!DOCTYPE svg PUBLIC "-//W3C//DTD SVG 1.1//EN" "http://www.w3.org/Graphics/SVG/1.1/DTD/svg11.dtd" >
<svg xmlns="http://www.w3.org/2000/svg">
<metadata></metadata>
<defs>
<font id="fudoni_threeregular" horiz-adv-x="1404" >
<font-face units-per-em="2048" ascent="1638" descent="-410" />
<missing-glyph horiz-adv-x="702" />
<glyph horiz-adv-x="0" />
<glyph horiz-adv-x="682" />
<glyph unicode=" " horiz-adv-x="702" d="M0 0z" />
<glyph unicode="!" horiz-adv-x="786" d="M154 199q0 100 69.5 169.5t169.5 69.5t170 -69.5t70 -169.5q0 -99 -70.5 -169.5t-169.5 -70.5t-169 70.5t-70 169.5zM201 977v567h387v-579q-74 -122 -116.5 -227.5t-41.5 -213.5h-63q2 188 -166 453z" />
<glyph unicode="&#x22;" horiz-adv-x="1024" d="M82 1544h211q60 0 91.5 -40t31.5 -101q0 -20 -2 -40t-6.5 -48.5t-6.5 -40.5l-59 -359q-2 -22 -4.5 -34.5t-9 -34t-20 -32.5t-32.5 -11h-133zM543 1544h211q60 0 91.5 -40t31.5 -101q0 -20 -2 -40t-6.5 -48.5t-6.5 -40.5l-59 -359q-2 -22 -4.5 -34.5t-9 -34t-20 -32.5 t-32.5 -11h-133z" />
<glyph unicode="#" d="M139 354v232h232l49 254h-197v231h240l80 416h217l-80 -416h207l80 416h215l-80 -416h164v-231h-201l-49 -254h192v-232h-241l-68 -354h-217l68 354h-207l-68 -354h-217l68 354h-187zM588 586h209l53 254h-213z" />
<glyph unicode="$" d="M106 1208q0 76 30.5 150t91 140t165 109.5t238.5 49.5v133h80v-133q128 -3 227 -24t157.5 -51.5t96 -71.5t50.5 -78.5t13 -77.5q0 -79 -53 -122.5t-133 -43.5q-76 0 -126 43t-50 119q0 41 14.5 73t30 48.5t53.5 50.5q25 23 -37.5 43.5t-113.5 25.5q-68 6 -129 6v-403 q61 -24 114 -48t115 -59t111.5 -72t97.5 -86.5t80 -103.5t51.5 -122t19.5 -142q0 -442 -464 -557v-256h-191v244q-131 0 -264 51q-164 63 -242 135l168 309q68 -64 172 -118t152 -54v385l-279 123q-246 109 -246 385zM391 1432q0 -64 61.5 -111t178.5 -94v370 q-43 -3 -81.5 -11.5t-76 -26t-60 -50.5t-22.5 -77zM711 238q50 4 94 15t86.5 31.5t67 57t24.5 84.5q0 45 -27 85t-75 70.5t-84.5 48t-85.5 36.5v-428z" />
<glyph unicode="%" horiz-adv-x="1996" d="M29 983q0 52 18 118t60.5 139.5t101 134.5t150 101t198.5 40q54 0 111 -19.5t100 -43t109 -43t135 -19.5q98 0 206.5 35.5t176.5 95.5q10 9 20.5 14t22.5 7t20.5 2t25 -0.5t25.5 -0.5l-891 -1564h-114l803 1411q-147 -80 -293 -80q-83 0 -140 24q62 -99 62 -225 q0 -145 -70.5 -270t-194 -200t-268.5 -75q-114 0 -200.5 59t-130 153t-43.5 206zM287 1186q0 -72 51 -122t123 -50t123 50t51 122t-51 123t-123 51t-123 -51t-51 -123zM1114 360q0 119 58.5 205.5t152.5 128t211 41.5t211 -41.5t152.5 -128t58.5 -205.5 q0 -181 -118.5 -280.5t-303.5 -99.5t-303.5 99.5t-118.5 280.5zM1362 356q0 -72 51 -122t123 -50t123 50t51 122t-51 123t-123 51t-123 -51t-51 -123z" />
<glyph unicode="&#x26;" horiz-adv-x="1736" d="M78 401q0 84 23.5 151.5t70 118.5t103.5 88t135 72l36 17l-32 45q-3 4 -16.5 22.5t-17.5 24.5l-16 24t-16.5 27.5t-14 27.5t-13 32t-8.5 32.5t-7 37.5t-2 40q0 128 68.5 226.5t176.5 148t234 49.5q93 0 179.5 -29t154.5 -81.5t109 -133t41 -176.5q0 -70 -21.5 -127 t-63 -101t-89 -76.5t-113.5 -65.5q-1 0 41 -69.5t84 -139.5l43 -70q3 3 15 17.5t16 19t14.5 17.5t14.5 19.5t12 19t11 21t7.5 20.5t6 23t1.5 23q0 46 -30.5 73.5t-61.5 27.5h-45v65h451v-65h-48q-33 0 -74 -39.5t-130 -145.5l-129 -151l125 -176q22 -30 33.5 -43.5t34.5 -27 t50 -13.5q32 0 62.5 21.5t45.5 42t38 57.5l47 -27q-71 -157 -201 -241.5t-303 -84.5q-36 0 -67.5 2.5t-51 5t-42.5 9t-32 9.5t-29.5 11t-25.5 10q-11 -2 -48 -17t-98 -27.5t-143 -12.5q-135 0 -246 50.5t-180 152.5t-69 239zM293 651q0 -32 8.5 -66t27.5 -73.5t31.5 -63.5 t40 -69.5t33.5 -56.5q108 -189 238 -189q53 0 106 29q-51 69 -108.5 157t-88 138.5t-101 170.5t-87.5 148q-100 -24 -100 -125zM684 1186q0 -12 2 -24.5t8 -26.5t10 -23.5t15 -25t15 -22t18.5 -23.5t17 -20t18.5 -21l17 -19q61 34 102 82t41 106q0 60 -37.5 102t-97.5 42 q-55 0 -92 -35.5t-37 -91.5z" />
<glyph unicode="'" horiz-adv-x="512" d="M82 1544h211q60 0 91.5 -40t31.5 -101q0 -20 -2 -40t-6.5 -48.5t-6.5 -40.5l-59 -359q-2 -22 -4.5 -34.5t-9 -34t-20 -32.5t-32.5 -11h-133z" />
<glyph unicode="(" horiz-adv-x="720" d="M100 586q0 269 76.5 551.5t220.5 480.5l224 -127q-120 -193 -178 -436t-58 -494q0 -239 60 -495t176 -431l-224 -127q-102 134 -171.5 327.5t-97.5 380t-28 370.5z" />
<glyph unicode=")" horiz-adv-x="720" d="M100 -365q116 175 176 431t60 495q0 251 -58 494t-178 436l224 127q144 -198 220.5 -480.5t76.5 -551.5q0 -184 -28 -370.5t-97.5 -380t-171.5 -327.5z" />
<glyph unicode="*" horiz-adv-x="989" d="M139 1288l94 156l179 -113l-11 213h185l-11 -219l183 115l92 -156l-195 -102l193 -107l-92 -153l-181 116l9 -207h-185l13 205l-174 -110l-93 155l185 103z" />
<glyph unicode="+" d="M178 373v307h371v371h307v-371h371v-307h-371v-373h-307v373h-371z" />
<glyph unicode="," horiz-adv-x="702" d="M39 209q0 60 25.5 107t69 74t94.5 40.5t108 13.5q55 0 103.5 -14t79 -34t53.5 -40.5t32 -34.5l10 -14l-329 -596h-240l117 297q-123 69 -123 201z" />
<glyph unicode="-" horiz-adv-x="802" d="M109 504v307h585v-307h-585z" />
<glyph unicode="." horiz-adv-x="702" d="M113 199q0 100 69.5 169.5t169.5 69.5t170 -69.5t70 -169.5q0 -99 -70.5 -169.5t-169.5 -70.5t-169 70.5t-70 169.5z" />
<glyph unicode="/" horiz-adv-x="1185" d="M55 -190l783 1890h292l-782 -1890h-293z" />
<glyph unicode="0" horiz-adv-x="1478" d="M61 772q0 123 23.5 240.5t75.5 226t127 189.5t186 129.5t244 48.5t244 -48.5t185.5 -129.5t126.5 -189.5t75.5 -226t23.5 -240.5q0 -124 -23.5 -241t-75 -225.5t-126.5 -189t-185.5 -129t-244.5 -48.5t-245 48.5t-186 129t-126.5 189t-75 225.5t-23.5 241zM590 213 q0 -94 23.5 -141t80.5 -47q58 0 81.5 47t23.5 141v989q0 193 -105 193q-34 0 -56.5 -18t-32 -50.5t-12.5 -60.5t-3 -64v-989z" />
<glyph unicode="1" horiz-adv-x="1032" d="M84 1458v55h350q67 0 190 14t162 17v-1544h-401v1458h-301z" />
<glyph unicode="2" d="M39 -31l659 717q76 83 126 182t50 197q0 78 -50 139.5t-126 61.5q-79 0 -123.5 -54t-44.5 -135q0 -25 7 -65h-443q9 269 170 431.5t432 162.5q121 0 229.5 -39t190 -109t129 -174t47.5 -227q0 -107 -32 -195.5t-82.5 -154t-135.5 -144.5l-180 -170l76 -10 q100 -19 159.5 -10.5t85 33.5t36.5 77h61q-8 -254 -158 -397q-68 -65 -159 -91t-228 -26q-93 0 -295 51q-148 37 -204 37q-46 0 -85 -23t-49 -65h-63z" />
<glyph unicode="3" d="M70 502h409q0 -93 60.5 -156t154.5 -63t154.5 57t60.5 149q0 87 -63.5 147t-149.5 60q-23 0 -69 -12v268h35q47 0 47 170v101q0 51 -3 89.5t-15 84.5t-33 76t-60 50.5t-92 20.5q-33 0 -91.5 -20t-58.5 -47q0 -3 2.5 -6t8.5 -6.5t11.5 -6t16 -7.5t17.5 -9 q110 -56 110 -182q0 -93 -60 -144t-155 -51q-89 0 -150 62.5t-61 150.5q0 74 37 133t93.5 94.5t130.5 59t141.5 32.5t132.5 9q60 0 123 -8.5t131 -25.5t127.5 -47.5t107 -70.5t75.5 -98t28 -127q0 -100 -68 -180.5t-201 -118.5q-1 0 -32.5 -7t-54.5 -14t-23 -12 q137 -18 211 -55q119 -62 185.5 -166.5t66.5 -224.5q0 -123 -50.5 -222t-135 -161.5t-191 -95.5t-223.5 -33q-290 0 -461 174q-74 76 -126.5 184.5t-49.5 204.5z" />
<glyph unicode="4" d="M33 319v256l596 969h526v-917h186v-308h-186v-319q-3 -3 -176.5 -3t-345.5 1l-172 2v55h170l4 264h-602zM123 465h508v633l-508 -611v-22z" />
<glyph unicode="5" horiz-adv-x="1359" d="M61 291q0 108 64 166.5t172 58.5q97 0 156 -58t59 -155q0 -56 -33 -110.5t-84 -71.5q-61 -20 -61 -35q0 -16 17.5 -29t43 -19.5t47 -9.5t35.5 -3q63 0 106 18t74.5 62.5t46.5 123.5t15 197q0 60 -3.5 103t-17.5 94t-38 82.5t-69 53t-108 21.5q-52 0 -112.5 -21.5 t-105 -43t-56.5 -21.5q-16 0 -24.5 11t-6.5 26l74 791q2 22 43 22h862v-340h-534l-27 -176l127 10q154 12 280.5 -60.5t196.5 -203t70 -289.5q0 -230 -199 -393q-162 -129 -461 -129q-120 0 -217 20.5t-157.5 53.5t-101 77t-57 88t-16.5 89z" />
<glyph unicode="6" horiz-adv-x="1503" d="M109 526q0 292 247 615l332 434h137q95 0 174 -21t129 -53t84.5 -72.5t49 -78.5t14.5 -72q0 -99 -65 -150t-167 -51q-91 0 -150.5 53.5t-59.5 143.5q0 60 36 106.5t84 67.5q11 5 24 16t13 17q-1 15 -53.5 27t-77.5 12q-31 0 -58.5 -8t-59.5 -33.5t-54.5 -67.5t-37.5 -118 t-15 -177v-160q43 44 74 60q51 30 98 38.5t117 8.5q147 0 261.5 -74t174 -194.5t59.5 -262.5q0 -111 -35 -204t-97 -158.5t-146 -111t-181 -67.5t-204 -22q-121 0 -238.5 33t-202.5 100q-94 78 -150 192t-56 232zM635 217q0 -104 23.5 -148t82.5 -44q93 0 93 192v336 q0 2 0.5 27t0 33.5t-2.5 30.5t-7.5 31.5t-13.5 23t-22 19t-33 5.5q-30 0 -52 -17t-34.5 -44.5t-21 -62.5t-10 -70.5t-3.5 -69.5t0 -59v-21v-162z" />
<glyph unicode="7" horiz-adv-x="1339" d="M86 0l651 1112q-24 -8 -47 -8q-60 0 -126.5 11.5t-149.5 32t-125 28.5q-79 10 -105 0l-24 -179h-58l78 537h58l-15 -152q0 -9 33 17q102 82 185 113.5t186 31.5q101 0 258 -43t227 -43q44 0 121 21.5t131 42.5l55 22l-893 -1544h-440z" />
<glyph unicode="8" d="M113 406q0 148 82.5 253t224.5 152v4q-107 36 -175.5 132.5t-68.5 217.5q0 86 29.5 159t79.5 124t117.5 87.5t143.5 53.5t156 17q101 0 194 -28t168 -81t120 -139t45 -193q0 -121 -68.5 -217.5t-175.5 -132.5v-4q142 -47 224.5 -152t82.5 -253q0 -92 -36 -170.5t-95 -132 t-136.5 -91.5t-159 -55.5t-163.5 -17.5t-163.5 17.5t-158.5 55.5t-136 91.5t-95 132t-36 170.5zM518 457q0 -78 54 -133.5t130 -55.5t130.5 55.5t54.5 133.5q0 79 -54 135.5t-131 56.5q-76 0 -130 -56t-54 -136zM580 926q0 -37 2.5 -60t10.5 -49.5t28.5 -39.5t52.5 -13 t52.5 13t28.5 39.5t10.5 49.5t2.5 60v342q0 63 -19.5 98t-74.5 35t-74.5 -35t-19.5 -98v-342z" />
<glyph unicode="9" horiz-adv-x="1462" d="M47 1022q0 111 35 206t97 163.5t146 117.5t182 73t204 24q122 0 239 -32.5t201 -100.5q94 -76 150.5 -190.5t56.5 -235.5q0 -287 -248 -615l-330 -432q-127 -31 -252 -31q-54 0 -110 9.5t-114 32t-102.5 54.5t-73 82t-28.5 111q0 98 62.5 148.5t163.5 50.5 q94 0 154.5 -52.5t60.5 -144.5q0 -40 -16.5 -72.5t-39.5 -51.5t-46 -33.5t-39.5 -25t-16.5 -18.5q0 -15 56 -24.5t87 -9.5q46 0 77 7t64 32t52.5 70.5t32 126t12.5 194.5v65l-4 4q-106 -47 -217 -47q-110 0 -204.5 45t-157.5 120.5t-98.5 174t-35.5 205.5zM465 1034 q0 -106 71.5 -180t176.5 -74q106 0 181 74t75 180t-75 180t-181 74q-105 0 -176.5 -74t-71.5 -180z" />
<glyph unicode=":" horiz-adv-x="702" d="M61 207q0 116 87.5 176.5t209.5 60.5q77 0 141.5 -23.5t109 -79t44.5 -134.5q0 -80 -44 -135.5t-108.5 -79t-142.5 -23.5t-143 23.5t-109.5 79t-44.5 135.5zM113 889q0 100 69.5 169.5t169.5 69.5t170 -69.5t70 -169.5q0 -99 -70.5 -169.5t-169.5 -70.5t-169 70.5 t-70 169.5z" />
<glyph unicode=";" horiz-adv-x="702" d="M39 209q0 60 25.5 107t69 74t94.5 40.5t108 13.5q55 0 103.5 -14t79 -34t53.5 -40.5t32 -34.5l10 -14l-329 -596h-240l117 297q-123 69 -123 201zM207 889q0 100 69.5 169.5t169.5 69.5t170 -69.5t70 -169.5q0 -99 -70.5 -169.5t-169.5 -70.5t-169 70.5t-70 169.5z" />
<glyph unicode="&#x3c;" d="M203 403v246l1001 373v-307l-561 -187v-4l561 -186v-307z" />
<glyph unicode="=" d="M178 127v307h1049v-307h-1049zM178 618v308h1049v-308h-1049z" />
<glyph unicode="&#x3e;" d="M203 31v307l561 186v4l-561 187v307l1001 -373v-246z" />
<glyph unicode="?" horiz-adv-x="1218" d="M68 1262q0 76 37 135.5t93 93.5t131 56.5t142.5 30t136.5 7.5q72 0 145.5 -9.5t153 -35t140 -64t100 -102.5t39.5 -145q0 -43 -9.5 -79t-24.5 -62.5t-40 -51t-48.5 -40.5t-59.5 -33.5t-62.5 -28t-67 -26.5t-65.5 -27q-96 -40 -142.5 -139.5t-48.5 -227.5l-237 2v397 q48 -10 86 -10q62 0 120.5 21.5t101 69.5t42.5 112q0 49 -37.5 87.5t-74.5 52.5l-37 14q-1 -113 -75 -174.5t-177 -61.5q-107 0 -184.5 66.5t-77.5 171.5zM336 199q0 100 69.5 169.5t169.5 69.5t170 -69.5t70 -169.5q0 -99 -70.5 -169.5t-169.5 -70.5t-169 70.5t-70 169.5z " />
<glyph unicode="@" horiz-adv-x="1515" d="M10 772q0 227 104.5 414t284 293t394.5 106q286 0 481 -178q229 -203 229 -479q0 -267 -127 -436q-70 -94 -153.5 -139t-161.5 -42q-43 1 -79 35t-48 84q-103 -119 -262 -119q-137 0 -240.5 112.5t-103.5 268.5q0 127 50 239t147.5 183.5t219.5 71.5q164 0 252 -127 l21 108h194l-102 -532q-16 -80 -13 -103q5 -35 38 -32q37 4 81.5 54.5t79 133.5t39.5 168q7 126 -34 229t-116.5 169.5t-178 102.5t-220.5 36q-169 0 -302.5 -80.5t-207 -222t-73.5 -318.5q0 -185 81.5 -327.5t221.5 -217.5t315 -75q119 0 215.5 23.5t151.5 57.5l168 -135 q-269 -139 -551 -139q-163 0 -309.5 61.5t-253.5 168.5t-169.5 259t-62.5 324zM573 725q0 -79 42 -133.5t114 -54.5q60 0 103.5 36.5t63 84.5t26.5 104q10 88 -31.5 143.5t-116.5 55.5q-84 0 -142.5 -73.5t-58.5 -162.5z" />
<glyph unicode="A" horiz-adv-x="1599" d="M14 0v55h47q30 0 66.5 51.5t56.5 96.5t25 61l467 1280h348l582 -1544h-838v55h147l-145 418h-414l-82 -219q-20 -60 -20 -98q0 -37 18 -59q18 -23 38 -32.5t42 -9.5h56v-55h-394zM635 575h334l-164 492h-4z" />
<glyph unicode="B" horiz-adv-x="1452" d="M131 0v1544h574q458 0 458 -401q0 -79 -16.5 -135.5t-54 -99t-79 -70t-110.5 -62.5v-55q47 -2 131 -10q75 -7 140 -29.5t119.5 -61.5t86 -101t31.5 -140q0 -70 -18.5 -126.5t-52 -94.5t-78.5 -67.5t-98 -45t-112 -27t-119 -14t-119 -4.5q-30 -1 -58 -1t-55 1h-50h-520z M532 55h70q160 0 160 199v268q0 110 -46.5 149.5t-133.5 39.5h-50v-656zM532 938h46q46 0 80 5t67.5 20t51.5 46t18 78q0 41 -14.5 70t-35.5 44t-55.5 23.5t-61.5 10.5t-67 2h-29v-299z" />
<glyph unicode="C" horiz-adv-x="1396" d="M43 856q0 154 58.5 290t158.5 232t237.5 151.5t290.5 55.5q76 0 131 -12t144 -43q13 -4 32.5 -13.5t35.5 -15.5t32 -6q9 0 18 3t14 5.5t16 9.5t14 9l110 63h54v-504h-66q-17 56 -41 110t-60.5 109.5t-78 97t-97.5 67.5t-116 26q-37 0 -61 -3.5t-50.5 -14.5t-42.5 -32 t-31.5 -56t-24 -87t-13.5 -125t-5 -169v-619q121 -37 187 -37q98 0 190.5 44t155.5 120v-481q-234 -72 -377 -72q-165 0 -317 76t-260.5 200t-173 287.5t-64.5 333.5z" />
<glyph unicode="D" horiz-adv-x="1540" d="M14 1489v55h686q159 0 303.5 -60t250.5 -162.5t168.5 -246t62.5 -303.5q0 -159 -63 -303t-168.5 -246.5t-250.5 -162.5t-303 -60h-569v1489h-117zM778 55h90q39 0 61 9t39.5 39.5t24 88.5t6.5 154v805q0 66 -13.5 110.5t-38.5 65.5t-49.5 29t-55.5 8h-64v-1309z" />
<glyph unicode="E" horiz-adv-x="1228" d="M10 1489v55h1000v-340h-478v-461h35q27 0 60 14.5t69 45t63.5 88t33.5 131.5h67v-625h-67q-6 78 -33.5 138.5t-63.5 91.5t-69 46t-60 15h-35v-633h140q282 0 430 486h61l-10 -541h-1022v1489h-121z" />
<glyph unicode="F" horiz-adv-x="1478" d="M0 0v55h162v1434h-158v55h1417l11 -522h-66q-23 110 -61.5 194.5t-82 135t-97.5 82.5t-104 43.5t-106 11.5h-122l-5 -543h441v-340h-441v-551h179v-55h-967z" />
<glyph unicode="G" horiz-adv-x="1724" d="M53 764q0 248 105.5 437t295.5 291.5t437 102.5q241 0 419 -109t277 -323l-381 -159q-42 113 -128.5 179t-205.5 66q-77 0 -143 -28t-112.5 -75.5t-80 -110t-49.5 -132t-16 -141.5q0 -73 17 -142.5t51 -131t82 -108.5t114.5 -74t143.5 -27q12 0 29.5 7.5t28.5 15.5l11 7 v369h-119v57h822v-57h-111v-547q-122 0 -235 -43q-215 -80 -293.5 -105t-134.5 -26q-241 0 -428 100t-291.5 284t-104.5 423z" />
<glyph unicode="H" horiz-adv-x="1644" d="M14 0v55h160v1434h-160v55h867v-55h-93v-541h324v596h401v-1544h-401v633h-324v-578h93v-55h-867z" />
<glyph unicode="I" horiz-adv-x="663" d="M39 0v55h156v1434h-156v55h493v-1544h-493z" />
<glyph unicode="J" horiz-adv-x="1001" d="M-8 313q0 103 56.5 172.5t158.5 69.5q90 0 152.5 -52.5t62.5 -140.5q0 -84 -48.5 -135t-127.5 -67q-24 -5 -32.5 -14.5t-8.5 -32.5q0 -24 28 -34.5t58 -10.5q114 0 183 83t69 199q0 135 -66 199v995h402v-1042q0 -129 -34.5 -233.5t-92 -169.5t-128 -99.5t-145.5 -34.5 q-58 0 -119.5 10t-128.5 36t-119 64t-86 100t-34 138z" />
<glyph unicode="K" horiz-adv-x="1685" d="M131 0v1544h401v-723l488 490q53 57 53 97q0 18 -11 33q-34 48 -153 48h-63v55h645v-55h-68q-47 0 -113 -34.5t-108 -68.5l-43 -34l-205 -205l631 -1092h90v-55h-925v55h145l-358 633h-5v-688h-401z" />
<glyph unicode="L" horiz-adv-x="1220" d="M10 0v55h121v1489h401v-1489h95q89 0 161 29.5t118.5 74.5t84.5 116t59 135.5t42 152.5h59v-563h-1141z" />
<glyph unicode="M" horiz-adv-x="2013" d="M0 0v55h39q127 0 127 170v1264h-152v55h688l308 -825l331 825h400l233 -1544h-401l-113 889h-4l-371 -889h-327l-512 1341h-4v-1112q0 -30 1.5 -49t9 -45.5t21.5 -41.5t42 -26.5t67 -11.5h39v-55h-422z" />
<glyph unicode="N" horiz-adv-x="1804" d="M4 0v55h51q42 0 68.5 30.5t36.5 71.5t10 93v1130q-5 7 -18.5 25.5t-20 26.5t-19.5 22t-23 20.5t-24.5 11.5t-29.5 5h-31v53h528l736 -944h4v786q0 43 -41 73t-98 30h-41v55h581v-1544h-401l-1024 1317h-6v-1067q0 -195 118 -195h66v-55h-422z" />
<glyph unicode="O" horiz-adv-x="1816" d="M53 801q0 137 46 261.5t127 220t188 167t234 108.5t259 37t259 -37t234 -108.5t188 -167t127 -220t46 -261.5q0 -185 -64 -343.5t-176.5 -270t-271 -175t-342.5 -63.5t-342.5 63.5t-271 175t-176.5 270t-64 343.5zM715 180q0 -66 35.5 -110.5t101.5 -44.5q69 0 104 44 t35 111v953q0 34 -1 55.5t-4.5 57t-12.5 58t-23.5 45.5t-39.5 34.5t-58 11.5q-31 0 -55.5 -11.5t-38.5 -34t-23.5 -46.5t-13.5 -57.5t-5 -57t-1 -55.5v-953z" />
<glyph unicode="P" horiz-adv-x="1353" d="M10 0v55h121v1489h614q260 0 411 -126t151 -382q0 -524 -547 -524h-228v-512h-522zM532 639h78q148 0 148 227v295q0 53 -12.5 96t-50 76t-97.5 33h-66v-727z" />
<glyph unicode="Q" horiz-adv-x="1816" d="M53 801q0 137 46 261.5t127 220t188 167t234 108.5t259 37q179 0 336 -59.5t271.5 -165.5t180.5 -262t66 -340q0 -297 -198 -543l260 -264l-369 -57l-123 145q-165 -100 -424 -100q-184 0 -342.5 63.5t-271 175t-176.5 270t-64 343.5zM702 264q73 39 144 39q77 0 139 -65 v895q0 34 -1 55.5t-4.5 57t-12.5 58t-23.5 45.5t-39.5 34.5t-58 11.5t-58 -11.5t-40 -34t-25 -46.5t-14 -57.5t-5.5 -57t-1.5 -55.5v-869zM713 152q0 -57 36.5 -92t86.5 -35q64 0 104 32q33 26 33 70q0 9 -2 20q-6 44 -42.5 78.5t-82.5 34.5q-57 0 -95 -30.5t-38 -77.5z" />
<glyph unicode="R" horiz-adv-x="1583" d="M131 0v1544h600q117 0 213 -28.5t169.5 -85t114 -148.5t40.5 -213q0 -109 -41.5 -202.5t-112.5 -149.5q266 -95 266 -404q0 -126 12 -159q13 -35 44 -35q18 0 37.5 15.5t29.5 28t25 34.5l55 -31q-121 -197 -409 -197q-203 0 -315.5 99.5t-113.5 298.5q-1 104 -6 170 t-13.5 106.5t-27.5 60t-38.5 25t-55.5 6.5l-72 2v-737h-401zM532 852h39q44 0 79.5 3.5t74.5 15.5t65 32.5t43 56.5t17 84t-17 84t-43 56.5t-64.5 32.5t-74.5 16t-80 4h-39v-385z" />
<glyph unicode="S" horiz-adv-x="1296" d="M66 477h65q39 -94 95.5 -173.5t128.5 -143t164.5 -99.5t193.5 -36q47 0 89.5 12t74.5 44.5t32 80.5q0 33 -10 60t-23 44t-38 34t-43.5 25.5t-51.5 23.5q-11 5 -16 7l-156 70q-211 94 -329.5 269t-118.5 352q0 235 150 386.5t382 151.5q118 0 250 -34.5t234 -92.5 l-160 -311q-124 102 -266 102q-63 0 -117.5 -34.5t-54.5 -94.5q0 -13 3.5 -25.5t8.5 -22t15 -19.5l17 -17t21.5 -15t22 -12t24.5 -11t23 -9.5t23.5 -8.5t19.5 -7l313 -115q92 -34 177 -155.5t85 -274.5q0 -101 -35.5 -181.5t-94.5 -131.5t-140 -84.5t-165.5 -47.5 t-178.5 -14q-149 0 -328 97l-221 -97h-51z" />
<glyph unicode="T" horiz-adv-x="1091" d="M29 1022l10 522h1038v-340h-332v-1204h-460v55h188v1434q-69 -6 -127 -38t-97 -76.5t-71.5 -108t-51 -120t-34.5 -124.5h-63z" />
<glyph unicode="U" horiz-adv-x="1593" d="M10 1489v55h684v-55h-170v-758q0 -51 1.5 -87t7.5 -83.5t17 -80t31.5 -67t48.5 -55t70.5 -34t96.5 -13.5t96.5 13.5t70.5 34t48 55t31 67t17 80t7.5 83.5t1.5 87v516q0 141 -29 191.5t-102 50.5h-53v55h585v-868q0 -92 -4 -151t-18.5 -136.5t-49 -140.5t-89.5 -117 q-91 -89 -227 -130.5t-285 -41.5t-285 41.5t-227 130.5q-45 43 -76 96.5t-47.5 101.5t-25.5 113.5t-11 113.5t-2 120v813h-113z" />
<glyph unicode="V" horiz-adv-x="1558" d="M-35 1489v55h920v-55h-142l193 -492l217 547h436l-659 -1544h-256l-600 1489h-109z" />
<glyph unicode="W" horiz-adv-x="2015" d="M-31 1544h418l268 -997h4l324 997h565v-55h-100l184 -774h4l181 639q9 32 9 56q0 28 -12 46q-24 33 -73 33h-45v55h311v-55q-18 -4 -35 3t-23 6.5t-17 -25t-29 -91.5l-394 -1382h-94l-270 895h-4l-303 -895h-408z" />
<glyph unicode="X" horiz-adv-x="1615" d="M29 0v55h53q33 0 127.5 69.5t114.5 96.5l362 463l-592 860h494l235 -399l236 399h493l-493 -719l571 -825h-483l-414 645l-291 -385q-39 -54 -39 -119q0 -45 35.5 -65.5t83.5 -20.5h94v-55h-587z" />
<glyph unicode="Y" horiz-adv-x="1462" d="M-39 1544h481l457 -665h12l242 421q26 46 32 81.5t-4 55t-30 32t-39 16.5t-39 4h-55v55h455v-55h-35q-97 0 -215 -205l-291 -500v-784h-402v741z" />
<glyph unicode="Z" horiz-adv-x="1447" d="M57 0v78l715 1411h-133q-92 0 -174 -35.5t-142.5 -98t-104.5 -141.5t-68 -170h-60l25 500h1310l-727 -1204h648v-340h-1289z" />
<glyph unicode="[" horiz-adv-x="716" d="M106 -451v2069h504v-217h-219v-1772h1h1h1h1h1h1h1h1h1h1h1h1h1h1h1h1h1h1h1h1h1h1h1h1h1h1h1h1h1h1h1h1h1h1h1h1h1h1h1h1h1h1h1h1h1h1h1h1h1h1h1h1h1h1h1h1h1h1h1h1h1h1h1h2h1h1h1h1h1h1h1h2h1h1h1h1h2h1h1h1h1h2h1h1h1h2h1h1h1h2h1h1h1h2h1h1h2h1h1h2h1h1h2h1h1h2h1h1 h2h1h2h1h1h2h1h2h1h1h2h1h2h1h2h1h2h1h2h1h1h2h1h2h1h2h1h2h1h2h2h1h2h1h2h1h2h1h2h1h2h2h1h2h1h2h2h1h2h1h2h2h1h2h2h1h2h1h2h2h1h2h2h1h2h2h2h1h2h2h1h2h2h1h2h2h2h1h2h2h2h1h2h2h2h1h2h2h2h2h1h2h2h2h2h1h2h2h2h2h1h2h2h2h2h2h2h1h2h2h10v-80h-594z" />
<glyph unicode="\" horiz-adv-x="1185" d="M55 1700h295l780 -1700h-290z" />
<glyph unicode="]" horiz-adv-x="716" d="M104 1538v80h506v-2110h-504v218h220v1814q1 -1 -54.5 -1.5t-111.5 -0.5h-56z" />
<glyph unicode="^" d="M211 834l369 772h245l369 -772l-233 -138l-259 551l-258 -551z" />
<glyph unicode="_" horiz-adv-x="1024" d="M0 -231h1024v-154h-1024v154z" />
<glyph unicode="`" horiz-adv-x="823" d="M154 1516l227 163l289 -352l-166 -121z" />
<glyph unicode="a" horiz-adv-x="1628" d="M76 526q0 150 65.5 277.5t187.5 204.5t273 77q94 0 181.5 -35t144.5 -102v103h538v-889q0 -49 35 -49q11 0 20.5 2.5t19.5 9.5t14 10.5t16 16t14 14.5v-72q-56 -64 -141.5 -96.5t-177.5 -32.5q-97 0 -161 30t-101 111q-127 -141 -398 -141q-151 0 -274 77.5t-189.5 205.5 t-66.5 278zM583 338q0 -13 0.5 -41.5t0.5 -36.5q0 -95 16 -129q19 -41 62 -41q26 0 45 8t30 25.5t18 33t9.5 43t3 41t0.5 41.5v13v205h-74q-23 0 -41 -7t-29.5 -16.5t-20 -28.5t-12.5 -32.5t-6 -39t-2 -38.5z" />
<glyph unicode="b" horiz-adv-x="1425" d="M53 1620v49q246 0 475 31l-2 -752q58 67 145 102t181 35q151 0 273 -77t187.5 -204.5t65.5 -277.5q0 -151 -66.5 -279t-189 -205t-274.5 -77q-97 0 -183 38.5t-135 113.5h-4v-117h-372v1620h-101zM649 332q0 -112 31.5 -177t81.5 -65q40 0 58 51.5t18 190.5v319 q0 129 -9 165q-15 56 -65 56q-53 0 -84 -59t-31 -162v-319z" />
<glyph unicode="c" horiz-adv-x="1253" d="M76 479q0 126 37.5 229.5t99.5 172.5t146.5 116t175 67.5t188.5 20.5q115 0 205.5 -19t147.5 -50.5t94 -75t52 -89.5t15 -97q0 -102 -64.5 -165t-166.5 -63q-91 0 -155.5 60t-64.5 149q0 79 38 126.5t114 84.5q33 16 33 27q0 27 -47.5 41t-81.5 14q-32 0 -54.5 -2 t-47 -8.5t-40.5 -19t-32.5 -33t-26.5 -50t-18 -70.5t-11 -95q-3 -46 -3 -104q1 -10 1 -19q0 -69 4 -154l9 -182q71 -23 114 -23q50 0 100 19t87 53v-315q-116 -58 -244 -58q-168 0 -304.5 61t-218 179t-81.5 272z" />
<glyph unicode="d" horiz-adv-x="1425" d="M61 526q0 150 66 277.5t188 204.5t273 77q94 0 181 -35t144 -102v752h373v-1651h55v-49q-107 0 -303 -12.5t-270 -14.5v187q-60 -87 -123 -138t-139 -51q-75 0 -154.5 45t-143.5 118.5t-105.5 178t-41.5 213.5zM555 332q0 -139 18 -190.5t58 -51.5q50 0 81 65t31 177v319 q0 104 -30.5 162.5t-83.5 58.5q-18 0 -31 -6t-21 -21.5t-13 -29t-6.5 -43t-2 -47t-0.5 -56.5v-18v-319z" />
<glyph unicode="e" horiz-adv-x="1277" d="M45 524q0 259 161 410t421 151q272 0 423.5 -156t151.5 -427v-39h-784q0 -114 59 -174t174 -60q121 0 178 97h359q-28 -119 -111.5 -202.5t-191.5 -121t-232 -37.5q-131 0 -242 37t-192.5 106.5t-127.5 176t-46 239.5zM545 528h176v283q1 7 1 33v22.5v15.5 q0 12 -2.5 35.5t-8.5 36t-16 27t-26.5 21t-39.5 6.5q-15 0 -27.5 -4t-21 -14t-15 -19t-10 -25t-6 -26.5t-3.5 -30t-1 -28v-28v-22.5v-283z" />
<glyph unicode="f" horiz-adv-x="933" d="M76 0v49h114v1102h-114v61h117v20q0 122 47 224q50 110 152.5 177t238.5 67q65 0 122 -20t97.5 -67.5t40.5 -115.5q0 -76 -48.5 -122t-125.5 -46q-63 0 -110.5 42.5t-47.5 105.5q0 47 25 77.5t71 57.5q1 6 1 10t-0.5 6t-3.5 3t-5 1h-7.5h-8.5q-76 0 -121 -55t-45 -133 q0 -42 13 -77.5t31.5 -57t36.5 -36.5t31 -21l13 -5v-196h260v-308h-260v-743h-514z" />
<glyph unicode="g" horiz-adv-x="1214" d="M-117 -123h418q14 -53 70 -80q49 -24 106 -24q59 0 102 15.5t69.5 41t42 65.5t21 82t5.5 97v395h-385h135q-108 0 -194.5 27.5t-138.5 72.5t-79.5 99.5t-27.5 113.5q0 69 36 124t90.5 87.5t126 54t135 29.5t124.5 8q97 0 196 -12q35 83 107.5 144t156.5 61 q69 0 119.5 -34t50.5 -101q0 -121 -135 -121q-40 0 -74 27t-34 67q0 9 3 23.5t6 26t3 12.5q-4 14 -14 14q-38 0 -77.5 -43.5t-51.5 -85.5q62 -19 110 -42t92.5 -58t68.5 -86t24 -115v-660q0 -326 -155 -476t-454 -150q-75 0 -152 15t-153.5 47t-137.5 78t-103 113.5 t-52 147.5zM467 604q0 -53 25.5 -76.5t60.5 -23.5q55 0 77.5 23.5t22.5 76.5v295q0 83 -23 112t-71 29q-42 0 -67 -33.5t-25 -107.5v-295z" />
<glyph unicode="h" horiz-adv-x="1353" d="M25 0v49h98v1651h373v-782h4q64 86 145.5 126.5t190.5 40.5q194 0 294.5 -118.5t100.5 -323.5v-643h-473v49h71v594q0 6 0.5 23.5t0 28t-1 29t-2.5 31t-5 28.5t-8.5 26t-13 20t-18.5 14.5t-25 4.5q-125 0 -125 -365v-434h71v-49h-677z" />
<glyph unicode="i" horiz-adv-x="690" d="M57 0v49h113v928h-109v49q255 0 463 25v-1051h-467zM129 1454q0 86 61.5 147.5t147.5 61.5t147.5 -61.5t61.5 -147.5t-61.5 -147.5t-147.5 -61.5t-147.5 61.5t-61.5 147.5z" />
<glyph unicode="j" horiz-adv-x="667" d="M-102 -246q0 74 47 121t121 47q71 0 121.5 -42t50.5 -111q0 -33 -16 -60t-34.5 -40.5t-34.5 -24t-16 -15.5q0 -11 6 -16.5t13 -6.5t20 -1q74 0 122 56.5t48 131.5q0 88 -48.5 149t-133.5 74v1035h373v-1352q-25 -35 -74 -66q-124 -84 -289 -84q-63 0 -124.5 21.5 t-106.5 70t-45 113.5zM0 1454q0 86 61.5 147.5t147.5 61.5t147.5 -61.5t61.5 -147.5t-61.5 -147.5t-147.5 -61.5t-147.5 61.5t-61.5 147.5z" />
<glyph unicode="k" horiz-adv-x="1366" d="M25 0v49h112v1651h373v-1028l387 379h510l-469 -433l322 -569h28v-49h-631v49h84l-202 387l-29 -20v-367h82v-49h-1h-1h-1h-1h-1h-1h-1h-1h-1h-1h-1h-1h-1h-1h-1h-1h-1h-1h-1h-1h-1h-1h-1h-1h-1h-1h-1h-1h-1h-1h-1h-1h-1h-1h-1h-1h-1h-1h-1h-1h-1h-1h-1h-1h-1h-1h-1h-1 h-1h-1h-1h-1h-1h-1h-1h-1h-1h-1h-1h-1h-1h-1h-1h-1h-1h-1h-1h-1h-1h-1h-1h-1h-1h-1h-1h-1h-1h-1h-1h-1h-1h-1h-1h-1h-1h-1h-1h-1h-1h-1h-1h-1h-1h-1h-1h-1h-1h-1h-1h-1h-1h-1h-2h-1h-1h-1h-1h-1h-1h-1h-1h-1h-1h-1h-2h-1h-1h-1h-1h-1h-1h-1h-1h-2h-1h-1h-1h-1h-1h-1h-2h-1 h-1h-1h-1h-2h-1h-1h-1h-1h-1h-2h-1h-1h-1h-1h-2h-1h-1h-1h-2h-1h-1h-1h-2h-1h-1h-1h-2h-1h-1h-1h-2h-1h-1h-1h-2h-1h-1h-2h-1h-1h-2h-1h-1h-1h-2h-1h-1h-2h-1h-1h-2h-1h-1h-2h-1h-1h-2h-1h-1h-2h-1h-2h-1h-1h-2h-1h-1h-2h-1h-2h-1h-1h-2h-1h-2h-1h-1h-2h-1h-2h-1h-1h-2h-1 h-2h-1h-2h-1h-1h-2h-1h-2h-1h-2h-1h-2h-1h-2h-1h-1h-2h-1h-2h-1h-2h-1h-2h-1h-2h-1h-2h-1h-2h-1h-2h-1h-2h-1h-2h-1h-2h-1h-2h-2h-1h-2h-1h-2h-1h-2h-1h-2h-1h-2h-2h-1h-2h-1h-2h-1h-2h-2h-1h-2h-1h-2h-2h-1h-2h-1h-2h-2h-1h-2h-1h-2h-2h-1h-2h-1h-2h-2h-1h-2h-2h-1h-2h-2 h-1h-2h-1h-2h-2h-1h-2h-2h-1h-2h-2h-1h-2h-2h-1h-2h-2h-1h-2h-2h-2h-1h-2h-2h-1h-2h-2h-1h-2h-2h-2h-1h-2h-2h-2h-1h-2h-2h-1h-2h-2h-2h-1h-2h-2h-2h-1h-2h-2h-2h-2h-1h-2h-2h-2h-1h-2h-2h-2h-2h-1h-2h-2h-2h-2h-1h-2h-2h-2h-2h-1h-2h-2h-2h-2h-2h-1h-2h-2h-2h-2h-2h-1h-2 h-2h-2h-2h-2h-2h-1h-2h-2h-2h-2h-2h-2h-1h-2h-2h-2h-2h-2h-2h-2h-8z" />
<glyph unicode="l" horiz-adv-x="647" d="M43 1620v49q50 0 96.5 1.5t79 3t78 5t67.5 6t73.5 8t72.5 7.5v-1700h-373v1620h-94z" />
<glyph unicode="m" horiz-adv-x="2039" d="M53 0v49h113v959h-113v49q106 0 303 11t258 13v-211q73 102 105 135q82 80 203 80q62 0 105.5 -11t77.5 -38t58.5 -60.5t55.5 -90.5q53 96 149 148t207 52q358 0 358 -415v-1v-1v-1v-1v-1v-1v-1v-1v-1v-1v-1v-1v-1v-1v-1v-1v-1v-1v-1v-1v-1v-1v-1v-1v-1v-1v-1v-1v-1v-1 v-1v-1v-1v-1v-1v-1v-1v-1v-1v-1v-1v-1v-1v-1v-1v-1v-1v-1v-1v-1v-1v-1v-1v-1v-1v-1v-1v-1v-1v-1v-1v-1v-1v-1v-1v-1v-1v-1v-1v-1v-1v-1v-1v-1v-1v-1v-1v-1v-1v-1v-1v-1v-1v-1v-1v-1v-1v-1v-1v-1v-1v-1v-1v-1v-1v-1v-1v-1v-1v-1v-1v-1v-1v-1v-1v-1v-1v-1v-1v-1v-1v-1v-1v-1 v-1v-1v-1v-1v-1v-2v-1v-1v-1v-1v-1v-1v-1v-1v-1v-2v-1v-1v-1v-1v-1v-1v-2v-1v-1v-1v-1v-1v-1v-2v-1v-1v-1v-1v-2v-1v-1v-1v-1v-2v-1v-1v-1v-1v-2v-1v-1v-1v-1v-2v-1v-1v-1v-2v-1v-1v-1v-2v-1v-1v-1v-2v-1v-1v-2v-1v-1v-1v-2v-1v-1v-2v-1v-1v-1v-2v-1v-1v-2v-1v-1v-2v-1v-1 v-2v-1v-1v-2v-1v-1v-2v-1v-1v-2v-1v-2v-1v-1v-2v-1v-1v-2v-1v-2v-1v-1v-2v-1v-2v-1v-1v-2v-1v-2v-1v-1v-2v-1v-2v-1v-2v-1v-1v-2v-1v-2v-1v-2v-1v-2v-1v-1v-2v-1v-2v-1v-2v-1v-2v-1v-2v-1v-2v-1v-2v-1v-2v-1v-2v-1v-2v-1v-2v-1v-2v-1v-2v-1v-2v-1v-2v-1v-2v-1v-2v-2v-1v-2 v-1v-2v-1v-2v-1v-2v-2v-1v-2v-1v-2v-1v-2v-2v-1v-2v-1v-2v-2v-1v-2v-1v-2v-2v-1v-2v-1v-2v-2v-1v-2v-1v-2v-2v-1v-2v-2v-1v-2v-2v-1v-2v-2v-1v-2v-1v-2v-2v-1v-2v-2v-1v-2v-2v-2v-1v-2v-2v-1v-2v-2v-1v-2v-2v-1v-2v-2v-2v-1v-2v-2v-1v-2v-2v-2v-1v-2v-2v-1v-2v-2v-2v-1v-2 v-2v-2v-1v-2v-2v-2v-1v-2v-2v-2v-2v-1v-2v-2v-2v-1v-2v-2v-2v-2v-1v-2v-2v-2v-2v-1v-2v-2v-2v-2v-2v-1v-2v-2v-2v-2v-2v-1v-2v-2v-2v-2v-2v-2v-1v-2v-2v-2v-2v-2v-2v-1v-2v-2v-2v-2v-2v-2v-2v-2v-2v-1v-2v-2v-2v-2v-2v-2v-2v-2v-2v-2v-2v-2v-9h111v-49h-483v502v39t-1 40 t-3.5 44t-7.5 40t-12.5 40t-19.5 32t-27 28t-36 16t-47 7q-36 0 -64 -10t-46.5 -24.5t-31.5 -39t-20 -47t-10.5 -55t-4.5 -55t-1 -55.5v-502h-479v49h61v699q0 109 -8 138q-13 46 -55 46q-47 0 -77 -56.5t-30 -123.5v-703h55v-49h-643z" />
<glyph unicode="n" horiz-adv-x="1353" d="M123 0v1051h373v-136h4q63 92 143 131t193 39q104 0 181 -31.5t123 -90t68.5 -137t22.5 -177.5v-649h-473v49h71v619q0 9 1 29.5t0.5 34t-1.5 33.5t-5.5 32.5t-12.5 25.5t-22 19t-33 6q-41 0 -71 -36t-42 -79t-12 -80v-604h71v-49h-579z" />
<glyph unicode="o" horiz-adv-x="1384" d="M88 524q0 105 33.5 195.5t92.5 157t138.5 114t173 71t195.5 23.5t195.5 -23.5t173 -71t138.5 -114t92.5 -157t33.5 -195.5q0 -130 -51 -237t-138.5 -176.5t-201.5 -107.5t-242 -38q-127 0 -241 37.5t-201.5 107t-139 177t-51.5 237.5zM616 178q0 -28 0.5 -41t3 -36 t9 -34.5t17.5 -24.5t29.5 -18.5t43.5 -5.5q21 0 36.5 4t26 9t17.5 16.5t10.5 19.5t5 24.5t1.5 26.5t-0.5 30t-0.5 30v615q0 29 -0.5 44.5t-5.5 40t-14.5 37.5t-28.5 23t-47 10q-34 0 -56 -13t-31.5 -38.5t-12.5 -48t-3 -55.5v-615z" />
<glyph unicode="p" horiz-adv-x="1396" d="M111 -524v1575h372v-119h4q49 75 135 114t183 39q114 0 214 -46t168.5 -122.5t108 -179.5t39.5 -215q0 -113 -39 -215t-107 -177.5t-167 -120t-213 -44.5q-129 0 -203 45v-485h152v-49h-647zM606 332q0 -112 31.5 -177t81.5 -65q40 0 58 51.5t18 190.5v319q0 129 -9 165 q-15 56 -65 56q-53 0 -84 -59t-31 -162v-319z" />
<glyph unicode="q" horiz-adv-x="1396" d="M61 522q0 149 67 277.5t190 207t274 78.5q97 0 183.5 -39t133.5 -114h4v119q146 -15 221 -20t207 -5v-49h-108v-1452h108v-49h-428v624q-56 -66 -143 -100.5t-182 -34.5q-153 0 -274.5 76t-187 203t-65.5 278zM446 524q0 -103 64.5 -169t175.5 -66t175.5 66t64.5 169 q0 101 -65 169.5t-175 68.5t-175 -68.5t-65 -169.5z" />
<glyph unicode="r" horiz-adv-x="1099" d="M123 0v1051h352v-189h4q52 95 137.5 149t192.5 54q108 0 186 -61t78 -166q0 -106 -66.5 -173t-172.5 -67q-102 0 -166 61.5t-64 163.5q0 51 12 97q-9 14 -20 14q-14 0 -34 -25q-34 -44 -44 -75q-8 -23 -13 -45.5t-7 -50t-2.5 -43.5t0 -51.5t0.5 -47.5v-596h-373z" />
<glyph unicode="s" horiz-adv-x="1050" d="M47 754q0 102 54.5 178.5t140.5 114.5t186 38q66 0 124.5 -13t160.5 -48l159 61h46l12 -350h-47q-56 124 -170 212.5t-242 88.5q-121 0 -121 -96q0 -13 6 -26t13.5 -22t22.5 -19t25.5 -16t30 -14t28 -11t28.5 -9.5t22 -7.5l219 -80q105 -38 169 -135q61 -93 61 -204v-11 q0 -100 -43 -181.5t-114.5 -132.5t-159.5 -78.5t-181 -27.5q-227 0 -424 121l135 260q61 -43 145 -74.5t150 -31.5q41 0 76.5 16t40.5 49q0 2 -37 14t-95 30.5t-93 31.5q-55 20 -97.5 40t-88 52t-75 69.5t-48.5 92t-19 119.5z" />
<glyph unicode="t" horiz-adv-x="933" d="M80 743v308h121v315h469v-397h231v-49h-231v-695q0 -62 11 -81q13 -23 46 -23q37 0 66.5 26.5t47 68.5t28 79.5t14.5 73.5h45q-7 -104 -46 -178.5t-103 -115.5t-138 -59t-164 -18l-276 2v743h-121z" />
<glyph unicode="u" horiz-adv-x="1349" d="M29 1001v50q115 0 325 11t277 13v-887q0 -36 19 -59t55 -23q35 0 61 22.5t39 58.5t18.5 70t5.5 67v677h-108v50h1h1h1h1h1h1h1h1h1h1h1h1h1h1h1h1h1h1h1h1h1h1h1h1h1h1h1h1h1h1h1h1h1h1h1h1h1h1h1h1h1h1h1h1h1h1h1h1h1h1h1h1h1h1h1h1h1h1h1h1h1h1h1h1h1h1h1h1h1h1h1h1h1 h1h1h1h1h1h1h1h1h1h1h1h1h1h1h1h1h1h1h1h2h1h1h1h1h1h1h1h1h1h1h1h2h1h1h1h1h1h1h1h2h1h1h1h1h1h1h2h1h1h1h1h2h1h1h1h1h1h2h1h1h1h2h1h1h1h2h1h1h1h1h2h1h1h2h1h1h1h2h1h1h2h1h1h1h2h1h1h2h1h1h2h1h1h2h1h1h2h1h1h2h1h1h2h1h1h2h1h2h1h1h2h1h2h1h1h2h1h2h1h1h2h1h2h1h2h1h1 h2h1h2h1h2h1h2h1h2h1h1h2h1h2h1h2h1h2h1h2h1h2h1h2h1h2h1h2h1h2h2h1h2h1h2h1h2h1h2h1h2h2h1h2h1h2h1h2h2h1h2h1h2h2h1h2h1h2h2h1h2h1h2h2h1h2h1h2h2h1h2h2h1h2h2h1h2h2h1h2h2h1h2h2h1h2h2h1h2h2h1h2h2h2h1h2h2h1h2h2h1h2h2h2h1h2h2h2h1h2h2h2h1h2h2h2h1h2h2h2h1h2h2h2h2h1h2 h2h2h2h1h2h2h2h2h1h2h2h2h2h2h1h2h2h2h2h2h1h2h2h2h2h2h2h1h2h2h2h2h2h2h1h2h2h2h10v-633q0 -453 -559 -453t-559 453v583h-88z" />
<glyph unicode="v" horiz-adv-x="1275" d="M-31 1051h789v-50h-131l280 -612l191 434q20 46 20 80q0 11 -2 19q-7 40 -28.5 59.5t-49.5 19.5h-47v50h316l-549 -1051h-238z" />
<glyph unicode="w" horiz-adv-x="1953" d="M-53 1001v50h674v-50h-66l258 -647l92 240l-151 407h-90v50h380l265 -570l264 570h412l-549 -1051l-301 2l-199 512l-199 -514h-293l-395 1001h-102z" />
<glyph unicode="x" horiz-adv-x="1400" d="M-74 0l525 569l-426 482h1h1h1h1h1h1h1h1h1h1h1h1h1h1h1h1h1h1h1h1h1h1h1h1h1h1h1h1h1h1h1h1h1h1h1h1h1h1h1h1h1h1h1h1h1h1h1h1h1h1h1h1h1h1h1h1h1h1h1h1h1h1h1h1h1h1h1h1h1h1h1h1h1h1h1h1h1h1h1h1h1h1h1h1h1h1h1h1h1h1h1h1h1h1h1h1h1h1h1h1h1h1h1h1h1h1h1h1h1h1h1h1h1h1 h1h1h1h1h1h1h1h1h1h1h1h1h1h1h1h1h1h2h1h1h1h1h1h1h1h1h1h1h2h1h1h1h1h1h1h1h1h2h1h1h1h1h1h1h2h1h1h1h1h1h2h1h1h1h1h1h2h1h1h1h1h2h1h1h1h1h2h1h1h1h2h1h1h1h2h1h1h1h1h2h1h1h1h2h1h1h2h1h1h1h2h1h1h2h1h1h1h2h1h1h2h1h1h2h1h1h1h2h1h1h2h1h1h2h1h1h2h1h1h2h1h2h1h1h2h1h1 h2h1h1h2h1h2h1h1h2h1h2h1h1h2h1h2h1h1h2h1h2h1h1h2h1h2h1h2h1h1h2h1h2h1h2h1h2h1h2h1h1h2h1h2h1h2h1h2h1h2h1h2h1h2h1h2h1h2h1h2h1h2h1h2h1h2h1h2h1h2h1h2h1h2h1h2h1h2h2h1h2h1h2h1h2h1h2h2h1h2h1h2h1h2h2h1h2h1h2h1h2h2h1h2h1h2h2h1h2h1h2h2h1h2h2h1h2h1h2h2h1h2h2h1h2h1h2 h2h1h2h2h1h2h2h1h2h2h1h2h2h1h2h2h1h2h2h1h2h2h1h2h2h1h2h2h2h1h2h2h1h2h2h2h1h2h2h1h2h2h2h1h2h2h1h2h2h2h1h2h2h2h1h2h2h2h1h2h2h2h2h1h2h2h2h1h2h2h2h2h1h2h2h2h2h1h2h2h2h2h1h2h2h2h2h1h2h2h2h2h2h1h2h2h2h2h2h1h2h2h2h2h2h2h2h1h2h2h2h2h2h2h2h1h2h2h2h2h2h2h2h2h2h1h2 h2h2h2h2h2h2h9v-50h-100l192 -278l123 113q34 30 38 69q1 6 0 11q0 32 -22 56q-26 28 -71 29h-45v50h469v-50h-31q-27 0 -67 -19t-78 -52l-281 -252l444 -629h70v-49h-414l-270 311l-270 -311h-490z" />
<glyph unicode="y" horiz-adv-x="1310" d="M-31 1051h430l281 -539l274 539h424l-561 -1049q-84 -161 -201 -295q-68 -77 -142 -117.5t-167 -40.5q-99 0 -169 62.5t-70 161.5q0 79 59 129.5t139 50.5q76 0 131.5 -44.5t55.5 -119.5q0 -65 -45 -104q-6 -6 -16.5 -13.5t-15.5 -12t-9.5 -10t-4.5 -11.5q0 -19 27 -19 q61 0 150 80q14 12 28 27t30.5 37.5t26.5 36.5t30.5 47.5t27.5 45.5t32 54.5t31 52.5h-188z" />
<glyph unicode="z" horiz-adv-x="1259" d="M16 0l494 741h-428v310q548 -1 822.5 -1t275.5 1v-131l-566 -871h93q306 0 426 336h53l-23 -385h-1147z" />
<glyph unicode="{" horiz-adv-x="720" d="M74 483v195h8q20 0 32 0.5t34 6t35 16t23.5 32.5t10.5 53v519q0 77 25.5 140.5t63 99t75.5 54.5t68 19h198v-246h-51q-27 0 -45.5 -8t-28 -17.5t-14.5 -29t-5.5 -31.5t-0.5 -35v-460q0 -187 -197 -218v-4h127q97 -26 130.5 -89t33.5 -214v-467q0 -106 34.5 -163.5 t119.5 -81.5v-5q-102 0 -179.5 4t-135 16.5t-97 24t-65.5 37.5t-40 45t-21 59t-8 67t-1 81v365q0 52 -1.5 77t-7.5 56t-20 46.5t-38 30.5t-62 25z" />
<glyph unicode="|" horiz-adv-x="1185" d="M440 0v1700h308v-1700h-308z" />
<glyph unicode="}" horiz-adv-x="720" d="M47 1618v6q96 0 164 -2t127.5 -8.5t97 -15.5t68 -26.5t46.5 -37.5t27 -52.5t14 -67.5t3 -87v-510q0 -23 1 -43t4 -36t5.5 -28.5t7 -23.5t7.5 -18t8.5 -14.5t7 -10t7.5 -8.5l5 -6v-164q-1 0 -15.5 0.5t-19.5 0l-20 -2t-22 -5.5t-19.5 -9.5t-19 -15.5t-14 -23t-10.5 -32 t-3 -42v-518q0 -76 -25.5 -138.5t-63 -98t-75.5 -54.5t-68 -19h-198v246h51q27 0 45.5 7.5t28 17t14.5 29t5.5 31.5t0.5 36v455q0 45 8 81t19.5 59.5t31 42t34 27.5t38.5 16t34.5 8.5l31.5 4.5v4h-47q-98 23 -133 89.5t-35 191.5v516q0 110 -32.5 164.5t-121.5 83.5z M272 1618z" />
<glyph unicode="~" d="M100 487q18 22 53 73t64 87.5t68 77t83.5 62.5t92.5 22q110 0 262 -115q54 -42 116 -72t105 -30q36 0 70.5 55.5t56.5 116.5l234 -199q-26 -43 -41 -67t-45.5 -68.5t-57 -71t-61.5 -55.5t-74 -43t-80 -14q-29 0 -55.5 5t-58 19t-45 20.5t-51.5 29t-42 24.5q-26 15 -81 51 t-87.5 52t-60.5 16q-57 0 -133 -172z" />
<glyph unicode="&#xa0;" horiz-adv-x="512" d="M0 0z" />
<glyph unicode="&#xa1;" horiz-adv-x="786" d="M154 848q0 99 70 169t169 70t169.5 -70.5t70.5 -168.5q0 -100 -70 -170t-170 -70t-169.5 70t-69.5 170zM199 82q74 121 116 226.5t41 213.5h64q-2 -187 166 -452v-568h-387v580z" />
<glyph unicode="&#xa2;" d="M289 772q0 154 63 280.5t182.5 202.5t272.5 76q100 0 203 -20l141 264h90l-154 -287q234 -77 234 -289q0 -102 -64.5 -164.5t-166.5 -62.5q-73 0 -129.5 39t-75.5 102l-160 -286q3 -4 8 -11t23.5 -24.5t40 -30.5t56 -24t71.5 -11q125 0 192 78v-334q-78 -28 -119 -32 v-218h-190v203q-141 6 -260.5 82.5t-188.5 201t-69 265.5zM695 924.5q-3 -117.5 3 -199.5l203 373q19 35 53 59.5t70 34.5q23 7 32.5 18t3.5 22t-24 17q-73 25 -131 25q-93 0 -134.5 -41.5t-63.5 -147.5q-9 -43 -12 -160.5z" />
<glyph unicode="&#xa3;" d="M41 137q0 89 56.5 135.5t148.5 46.5q43 0 129 -24q1 86 -26 174t-75 193h-227v108h213q-74 120 -74 262q0 110 43.5 212.5t122.5 178.5q155 150 432 150q301 0 434 -139t136 -443h-398v72q0 78 -54.5 136t-131.5 58q-90 0 -142.5 -62.5t-52.5 -154.5q0 -146 84 -270h326 v-106h-274q-22 -229 -133 -353q107 35 213 35q73 0 176 -18q136 -24 204 16q51 31 66 94h57q-2 -97 -26 -180t-71 -148.5t-125 -103t-179 -37.5q-64 0 -123.5 13.5t-122 44.5t-103.5 55t-110 70q-8 5 -12 0t-10 -24q-1 -4 -2 -7q-25 -72 -76.5 -112t-124.5 -40 q-75 0 -121.5 46.5t-46.5 121.5z" />
<glyph unicode="&#xa7;" d="M117 621q0 95 48.5 181t127.5 152q-26 23 -42.5 41t-46 56.5t-45.5 86.5t-16 101q0 167 139 256.5t369 89.5q205 0 320 -72q129 -78 129 -188q0 -61 -40 -97t-102 -36q-56 0 -94.5 36.5t-38.5 92.5q0 39 14 67t28 43t14 23q0 9 -11.5 22t-21.5 19q-74 39 -195 39 q-35 0 -76.5 -6t-89 -19.5t-79 -41.5t-31.5 -66q0 -17 8 -33t17 -26.5t28 -23.5t29.5 -18.5t33 -17.5t27.5 -14q23 -12 83.5 -43t92.5 -47.5t81 -43.5t90 -51.5t79 -50.5q109 -74 158 -144.5t49 -176.5q0 -84 -46.5 -159.5t-121.5 -105.5q-67 -27 -67 -36q16 -13 66 -51 t77.5 -63t56.5 -60q105 -123 105 -267q0 -107 -45.5 -193t-122 -139t-170.5 -80.5t-197 -27.5q-87 0 -170 18.5t-157 57t-128.5 94t-85 134.5t-26.5 173h375q-3 -77 59.5 -131.5t140.5 -54.5q66 0 111 36.5t45 100.5q0 17 -5 33.5t-11 28t-20 24.5t-22.5 20.5t-28 18.5 t-27.5 15t-30.5 15t-27.5 13l-324 158q-239 119 -239 338zM330 754q0 -12 17.5 -30t41.5 -34.5t58.5 -37t59.5 -33.5t53.5 -27.5t31.5 -16.5q63 -36 145 -71t127 -35q33 0 61.5 12.5t28.5 42.5q0 38 -38.5 72.5t-127.5 79.5l-221 115q-78 38 -147 38q-33 0 -61.5 -21.5 t-28.5 -53.5z" />
<glyph unicode="&#xa8;" horiz-adv-x="1236" d="M154 1438q0 83 58.5 141.5t143.5 58.5q83 0 142 -58.5t59 -141.5q0 -84 -58.5 -142.5t-142.5 -58.5q-85 0 -143.5 58t-58.5 143zM678 1438q0 83 59 141.5t144 58.5q83 0 141.5 -58.5t58.5 -141.5q0 -84 -58.5 -142.5t-141.5 -58.5q-85 0 -144 58t-59 143z" />
<glyph unicode="&#xa9;" horiz-adv-x="1638" d="M8 770q0 167 63.5 318t171.5 260t258.5 173t317.5 64q166 0 316.5 -64t258.5 -173t172 -260t64 -318q0 -221 -108 -407.5t-294.5 -295t-408.5 -108.5q-167 0 -317.5 64t-258.5 172.5t-171.5 258.5t-63.5 316zM201 770q0 -177 80.5 -318.5t221.5 -220.5t316 -79 q172 0 313.5 78.5t223.5 220.5t82 319q0 179 -82 322t-223 222t-314 79q-175 0 -316 -79t-221.5 -221.5t-80.5 -322.5zM438 836q0 156 108 260t265 104q50 0 137 -24q6 -2 22.5 -11.5t26.5 -9.5q4 0 8.5 2t7.5 4l7.5 5l7.5 5l55 29h27v-252h-33q-24 81 -74.5 143t-121.5 62 q-43 0 -64.5 -13.5t-35 -67.5t-13.5 -163v-309q59 -18 92 -18q48 0 94 22.5t80 59.5v-238q-115 -39 -188 -39q-109 0 -204 64.5t-149.5 167.5t-54.5 217z" />
<glyph unicode="&#xaa;" horiz-adv-x="837" d="M10 1235q0 132 85 225.5t216 93.5q119 0 187 -77v57h307v-506q0 -29 18 -29q7 0 12.5 1.5t11 5.5t8.5 6.5t9.5 9.5t7.5 8v-41q-65 -74 -182 -74q-56 0 -91.5 17t-57.5 63q-75 -80 -228 -80q-131 0 -217 94t-86 226zM23 645v154h794v-154h-794zM300.5 1106.5 q0.5 -20.5 0.5 -23.5q0 -21 0.5 -30.5t4 -28.5t14 -28t26.5 -9q18 0 30.5 9t18 18.5t8.5 31t3 29v29.5v117h-41q-15 0 -26.5 -4t-18.5 -14.5t-11.5 -18t-6 -25.5t-2 -25t0 -27.5z" />
<glyph unicode="&#xab;" horiz-adv-x="1234" d="M53 655l353 504l204 -141l-258 -363l264 -356l-210 -147zM563 655l352 504l205 -141l-258 -363l264 -356l-211 -147z" />
<glyph unicode="&#xad;" horiz-adv-x="802" d="M109 504v307h585v-307h-585z" />
<glyph unicode="&#xae;" horiz-adv-x="1638" d="M90 713q0 200 96 369.5t262.5 268.5t364.5 99q151 0 286.5 -57t234 -155t156.5 -235t58 -290q0 -154 -59 -292t-158 -237t-235 -157t-285 -58q-195 0 -361.5 101.5t-263 273t-96.5 369.5zM213 715q0 -169 82.5 -312.5t223 -227t304.5 -83.5q162 0 301 86t220 229.5 t81 307.5q0 166 -82.5 307t-223.5 223t-306 82q-161 0 -299.5 -83.5t-219.5 -225t-81 -303.5zM510 334v772h299q122 0 195 -59.5t73 -178.5q0 -116 -76 -176q134 -49 134 -200v-14q0 -24 0.5 -35t2.5 -25t7.5 -19.5t15.5 -5.5q19 0 47 39l27 -14q-60 -101 -205 -101 q-101 0 -157 50.5t-56 150.5q-1 84 -8.5 123t-20.5 49.5t-43 11.5h-34v-368h-201zM711 760h18q28 0 50 3.5t43.5 13t33.5 29.5t12 50t-12 50t-33.5 29.5t-43.5 13t-50 3.5h-18v-192z" />
<glyph unicode="&#xaf;" horiz-adv-x="1234" d="M154 1321v219h925v-219h-925z" />
<glyph unicode="&#xb0;" horiz-adv-x="819" d="M102 1276q-3 127 87 218t219 91q126 0 217.5 -91t91.5 -218q0 -126 -91.5 -215.5t-217.5 -89.5q-128 0 -217 89t-89 216zM276 1278q0 -55 39 -94t95 -39t94.5 38.5t38.5 94.5q0 54 -39.5 93.5t-95.5 39.5q-54 0 -93.5 -39.5t-38.5 -93.5z" />
<glyph unicode="&#xb4;" horiz-adv-x="681" d="M168 1047l168 227q8 10 30 41t31.5 43t31 34.5t38.5 31.5t42.5 17.5t53.5 8.5q42 0 80.5 -28t38.5 -68q0 -52 -26.5 -86.5t-98.5 -77.5l-242 -143h-147z" />
<glyph unicode="&#xb6;" d="M96 1034q-13 121 47 240.5t168 194.5t226 75h772v-186h-135v-1706h-207v1704h-191v-1704h-207v942q-95 9 -170.5 34.5t-141 74.5t-107 132.5t-54.5 198.5z" />
<glyph unicode="&#xb7;" horiz-adv-x="702" d="M113 524q0 100 69.5 170t169.5 70t170 -70t70 -170q0 -98 -70 -168.5t-170 -70.5q-99 0 -169 70t-70 169z" />
<glyph unicode="&#xb8;" horiz-adv-x="778" d="M154 -385l145 174q-6 2 -16 2q-37 0 -54 -12l-34 18l96 203h94l-57 -127q31 10 80 10q71 0 119 -27.5t61 -82.5l-275 -258z" />
<glyph unicode="&#xba;" horiz-adv-x="839" d="M10 645v154h821v-154h-821zM10 1249q0 155 119 245.5t291 90.5t291.5 -90.5t119.5 -245.5t-119.5 -245.5t-291.5 -90.5t-291 90.5t-119 245.5zM344 1044q0 -21 0.5 -29.5t3.5 -24.5t9.5 -23t19.5 -13t33 -6q15 0 26.5 2.5t18.5 8.5t11 10.5t5.5 16.5t2 17t0 20.5 t-0.5 20.5v369q0 18 -0.5 27t-3.5 24t-9.5 23t-19 14t-30.5 6q-22 0 -36.5 -8t-20.5 -23.5t-7.5 -29t-1.5 -33.5v-369z" />
<glyph unicode="&#xbb;" horiz-adv-x="1234" d="M109 299l264 356l-258 363l204 141l353 -504l-353 -503zM618 299l265 356l-258 363l204 141l353 -504l-353 -503z" />
<glyph unicode="&#xbf;" horiz-adv-x="1218" d="M0 -184q0 43 9.5 79t24.5 62.5t40 51t48.5 40.5t59.5 33.5t62.5 28t67 26.5t65.5 27q96 40 142 139t48 227l238 -2v-397q-48 10 -86 10q-62 0 -120.5 -21.5t-101 -69t-42.5 -111.5q0 -49 37.5 -87.5t74.5 -52.5l37 -14q1 113 75 174t177 61q107 0 184.5 -66t77.5 -171 q0 -64 -25 -116t-69.5 -86.5t-97.5 -59t-116.5 -37.5t-119.5 -19t-112 -6q-72 0 -145.5 9.5t-153 35t-140 64t-100 103t-39.5 145.5zM371 846q0 99 70 169t169 70q100 0 170 -70.5t70 -168.5q0 -100 -70 -170t-170 -70t-169.5 70t-69.5 170z" />
<glyph unicode="&#xc0;" horiz-adv-x="1599" d="M14 0v55h47q30 0 66.5 51.5t56.5 96.5t25 61l467 1280h348l582 -1544h-838v55h147l-145 418h-414l-82 -219q-19 -58 -19.5 -96t17 -61t38 -32.5t42.5 -9.5h56v-55h-394zM543 2009l227 164l289 -352l-166 -121zM635 575h334l-164 492h-4z" />
<glyph unicode="&#xc1;" horiz-adv-x="1599" d="M14 0v55h47q30 0 66.5 51.5t56.5 96.5t25 61l467 1280h348l582 -1544h-838v55h147l-145 418h-414l-82 -219q-19 -58 -19.5 -96t17 -61t38 -32.5t42.5 -9.5h56v-55h-394zM557 1540l168 227q8 11 30 41.5t31.5 43t31 34.5t38.5 31.5t42.5 18t53.5 8.5q42 0 80.5 -28.5 t38.5 -68.5q0 -52 -26.5 -86.5t-98.5 -77.5l-241 -143h-148zM635 575h334l-164 492h-4z" />
<glyph unicode="&#xc2;" horiz-adv-x="1599" d="M14 0v55h47q30 0 66.5 51.5t56.5 96.5t25 61l467 1280h348l582 -1544h-838v55h147l-145 418h-414l-82 -219q-19 -58 -19.5 -96t17 -61t38 -32.5t42.5 -9.5h56v-55h-394zM350 1855l447 336l452 -336l-157 -172l-295 228l-295 -228zM635 575h334l-164 492h-4z" />
<glyph unicode="&#xc3;" horiz-adv-x="1599" d="M14 0v55h47q30 0 66.5 51.5t56.5 96.5t25 61l467 1280h348l582 -1544h-838v55h147l-145 418h-414l-82 -219q-19 -58 -19.5 -96t17 -61t38 -32.5t42.5 -9.5h56v-55h-394zM391 1778q0 107 45 182q29 50 78 82.5t104 32.5q59 0 207 -45t185 -45q30 0 53.5 30t32.5 64h112 q-4 -44 -14.5 -86.5t-32 -86.5t-50.5 -76.5t-73 -53.5t-96 -21q-53 0 -158.5 38t-152.5 38q-18 0 -29.5 -5t-19.5 -19.5t-11 -22t-10 -29.5h-168zM635 575h334l-164 492h-4z" />
<glyph unicode="&#xc4;" horiz-adv-x="1599" d="M14 0v55h47q30 0 66.5 51.5t56.5 96.5t25 61l467 1280h348l582 -1544h-838v55h147l-145 418h-414l-82 -219q-19 -58 -19.5 -96t17 -61t38 -32.5t42.5 -9.5h56v-55h-394zM336 1931q0 83 59 142t144 59q83 0 141.5 -59t58.5 -142q0 -84 -58 -142t-142 -58q-85 0 -144 58 t-59 142zM635 575h334l-164 492h-4zM860 1931q0 83 59 142t144 59q83 0 142 -59t59 -142q0 -84 -58.5 -142t-142.5 -58q-85 0 -144 58t-59 142z" />
<glyph unicode="&#xc5;" horiz-adv-x="1599" d="M14 0v55h47q30 0 66.5 51.5t56.5 96.5t25 61l467 1280h348l582 -1544h-838v55h147l-145 418h-414l-82 -219q-19 -58 -19.5 -96t17 -61t38 -32.5t42.5 -9.5h56v-55h-394zM485 1925q0 51 18 92t47.5 68t70.5 45t84.5 25.5t91.5 7.5q61 0 115 -12.5t100.5 -38.5t74 -73.5 t27.5 -111.5q0 -50 -18 -91t-47.5 -67t-70.5 -44t-84.5 -25.5t-90.5 -7.5q-61 0 -114.5 12t-101 37.5t-75 72.5t-27.5 111zM635 575h334l-164 492h-4zM680 1927q0 -45 36 -66.5t85 -21.5q48 0 83.5 21.5t35.5 66.5t-35.5 66.5t-83.5 21.5q-49 0 -85 -21.5t-36 -66.5z" />
<glyph unicode="&#xc6;" horiz-adv-x="2101" d="M-8 0l596 1544h1388v-506h-61q-26 108 -65.5 191t-79.5 131t-86.5 78.5t-83.5 40.5t-74 10h-113v-621h35q27 0 60 14.5t69 45t63 88t33 131.5h68v-625h-68q-5 64 -24.5 115.5t-44.5 83.5t-55 53.5t-55 30t-46 8.5h-35v-758h100q44 0 91 14.5t99 50.5t96 89.5t79.5 139.5 t50.5 192h68v-541h-826l-100 268h-559l-96 -268h-424zM420 588h387v776h-41z" />
<glyph unicode="&#xc7;" horiz-adv-x="1396" d="M43 856q0 154 58.5 290t158.5 232t237.5 151.5t290.5 55.5q76 0 131 -12t144 -43q13 -4 32.5 -13.5t35.5 -15.5t32 -6q9 0 18 3t14 5.5t16 9.5t14 9l110 63h54v-504h-66q-17 56 -41 110t-60.5 109.5t-78 97t-97.5 67.5t-116 26q-37 0 -61 -3.5t-50.5 -14.5t-42.5 -32 t-31.5 -56t-24 -87t-13.5 -125t-5 -169v-619q121 -37 187 -37q98 0 190.5 44t155.5 120v-481q-234 -72 -377 -72q-92 0 -190 29q0 1 -13.5 -28t-26.5 -58l-14 -29q31 10 80 10q71 0 119 -27.5t61 -82.5l-274 -258l-160 100l146 174q-7 2 -17 2q-36 0 -53 -12l-35 18l105 221 q-239 102 -391 335.5t-152 502.5z" />
<glyph unicode="&#xc8;" horiz-adv-x="1228" d="M10 1489v55h1000v-340h-478v-461h35q27 0 60 14.5t69 45t63.5 88t33.5 131.5h67v-625h-67q-6 78 -33.5 138.5t-63.5 91.5t-69 46t-60 15h-35v-633h140q282 0 430 486h61l-10 -541h-1022v1489h-121zM305 2009l227 164l289 -352l-166 -121z" />
<glyph unicode="&#xc9;" horiz-adv-x="1228" d="M10 1489v55h1000v-340h-478v-461h35q27 0 60 14.5t69 45t63.5 88t33.5 131.5h67v-625h-67q-6 78 -33.5 138.5t-63.5 91.5t-69 46t-60 15h-35v-633h140q282 0 430 486h61l-10 -541h-1022v1489h-121zM319 1540l168 227q8 10 30 41t31.5 43t31.5 34.5t39 32t42.5 18 t53.5 8.5q42 0 80.5 -28.5t38.5 -68.5q0 -52 -26.5 -86.5t-98.5 -77.5l-242 -143h-148z" />
<glyph unicode="&#xca;" horiz-adv-x="1228" d="M10 1489v55h1000v-340h-478v-461h35q27 0 60 14.5t69 45t63.5 88t33.5 131.5h67v-625h-67q-6 78 -33.5 138.5t-63.5 91.5t-69 46t-60 15h-35v-633h140q282 0 430 486h61l-10 -541h-1022v1489h-121zM113 1855l446 336l453 -336l-158 -172l-295 228l-295 -228z" />
<glyph unicode="&#xcb;" horiz-adv-x="1228" d="M10 1489v55h1000v-340h-478v-461h35q27 0 60 14.5t69 45t63.5 88t33.5 131.5h67v-625h-67q-6 78 -33.5 138.5t-63.5 91.5t-69 46t-60 15h-35v-633h140q282 0 430 486h61l-10 -541h-1022v1489h-121zM98 1931q0 83 59 142t144 59q83 0 142 -59t59 -142q0 -84 -58.5 -142 t-142.5 -58q-85 0 -144 58t-59 142zM623 1931q0 83 58.5 142t143.5 59q83 0 142 -59t59 -142q0 -84 -58.5 -142t-142.5 -58q-85 0 -143.5 57.5t-58.5 142.5z" />
<glyph unicode="&#xcc;" horiz-adv-x="663" d="M39 0v55h156v1434h-156v55h493v-1544h-493zM74 2009l227 164l289 -352l-166 -121z" />
<glyph unicode="&#xcd;" horiz-adv-x="663" d="M39 0v55h156v1434h-156v55h493v-1544h-493zM88 1540l168 227q8 11 30 41.5t31.5 43t31 34.5t38.5 31.5t42.5 18t53.5 8.5q42 0 80.5 -28.5t38.5 -68.5q0 -52 -26.5 -86.5t-98.5 -77.5l-241 -143h-148z" />
<glyph unicode="&#xce;" horiz-adv-x="663" d="M-119 1855l447 336l452 -336l-157 -172l-295 228l-295 -228zM39 0v55h156v1434h-156v55h493v-1544h-493z" />
<glyph unicode="&#xcf;" horiz-adv-x="663" d="M-133 1931q0 83 59 142t144 59q83 0 141.5 -59t58.5 -142q0 -84 -58 -142t-142 -58q-85 0 -144 58t-59 142zM39 0v55h156v1434h-156v55h493v-1544h-493zM391 1931q0 83 59 142t144 59q83 0 142 -59t59 -142q0 -84 -58.5 -142t-142.5 -58q-85 0 -144 58t-59 142z" />
<glyph unicode="&#xd1;" horiz-adv-x="1804" d="M4 0v55h51q42 0 68.5 30.5t36.5 71.5t10 93v1130q-5 7 -18.5 25.5t-20 26.5t-19.5 22t-23 20.5t-24.5 11.5t-29.5 5h-31v53h528l736 -944h4v786q0 43 -41 73t-98 30h-41v55h581v-1544h-401l-1024 1317h-6v-1067q0 -195 118 -195h66v-55h-422zM494 1778q0 107 45 182 q29 50 78 82.5t104 32.5q59 0 206.5 -45t184.5 -45q30 0 53.5 30t32.5 64h113q-4 -44 -15 -86.5t-32 -86.5t-50.5 -77t-73.5 -53.5t-96 -20.5q-53 0 -158.5 38t-152.5 38q-22 0 -35.5 -11t-19 -23t-12.5 -35q-1 -5 -2 -7h-168z" />
<glyph unicode="&#xd2;" horiz-adv-x="1816" d="M53 801q0 137 46 261.5t127 220t188 167t234 108.5t259 37t259 -37t234 -108.5t188 -167t127 -220t46 -261.5q0 -185 -64 -343.5t-176.5 -270t-271 -175t-342.5 -63.5t-342.5 63.5t-271 175t-176.5 270t-64 343.5zM651 2009l228 164l288 -352l-166 -121zM715 180 q0 -66 35.5 -110.5t101.5 -44.5q69 0 104 44t35 111v953q0 34 -1 55.5t-4.5 57t-12.5 58t-23.5 45.5t-39.5 34.5t-58 11.5q-31 0 -55.5 -11.5t-38.5 -34t-23.5 -46.5t-13.5 -57.5t-5 -57t-1 -55.5v-953z" />
<glyph unicode="&#xd3;" horiz-adv-x="1816" d="M53 801q0 137 46 261.5t127 220t188 167t234 108.5t259 37t259 -37t234 -108.5t188 -167t127 -220t46 -261.5q0 -185 -64 -343.5t-176.5 -270t-271 -175t-342.5 -63.5t-342.5 63.5t-271 175t-176.5 270t-64 343.5zM666 1540l168 227q8 11 30 41.5t31.5 43t31 34.5 t38.5 31.5t42.5 18t53.5 8.5q42 0 80.5 -28.5t38.5 -68.5q0 -52 -26.5 -86.5t-98.5 -77.5l-242 -143h-147zM715 180q0 -66 35.5 -110.5t101.5 -44.5q69 0 104 44t35 111v953q0 34 -1 55.5t-4.5 57t-12.5 58t-23.5 45.5t-39.5 34.5t-58 11.5q-31 0 -55.5 -11.5t-38.5 -34 t-23.5 -46.5t-13.5 -57.5t-5 -57t-1 -55.5v-953z" />
<glyph unicode="&#xd4;" horiz-adv-x="1816" d="M53 801q0 137 46 261.5t127 220t188 167t234 108.5t259 37t259 -37t234 -108.5t188 -167t127 -220t46 -261.5q0 -185 -64 -343.5t-176.5 -270t-271 -175t-342.5 -63.5t-342.5 63.5t-271 175t-176.5 270t-64 343.5zM459 1855l446 336l453 -336l-158 -172l-295 228 l-295 -228zM715 180q0 -66 35.5 -110.5t101.5 -44.5q69 0 104 44t35 111v953q0 34 -1 55.5t-4.5 57t-12.5 58t-23.5 45.5t-39.5 34.5t-58 11.5q-31 0 -55.5 -11.5t-38.5 -34t-23.5 -46.5t-13.5 -57.5t-5 -57t-1 -55.5v-953z" />
<glyph unicode="&#xd5;" horiz-adv-x="1816" d="M53 801q0 137 46 261.5t127 220t188 167t234 108.5t259 37t259 -37t234 -108.5t188 -167t127 -220t46 -261.5q0 -185 -64 -343.5t-176.5 -270t-271 -175t-342.5 -63.5t-342.5 63.5t-271 175t-176.5 270t-64 343.5zM500 1778q0 107 45 182q29 50 78 82.5t104 32.5 q59 0 206.5 -45t184.5 -45q30 0 53.5 30t32.5 64h113q-4 -44 -14.5 -86.5t-32 -86.5t-50.5 -76.5t-73 -53.5t-96 -21q-53 0 -159 38t-153 38q-22 0 -35.5 -11t-19 -23t-12.5 -35q-1 -5 -2 -7h-168zM715 180q0 -66 35.5 -110.5t101.5 -44.5q69 0 104 44t35 111v953 q0 34 -1 55.5t-4.5 57t-12.5 58t-23.5 45.5t-39.5 34.5t-58 11.5q-31 0 -55.5 -11.5t-38.5 -34t-23.5 -46.5t-13.5 -57.5t-5 -57t-1 -55.5v-953z" />
<glyph unicode="&#xd6;" horiz-adv-x="1816" d="M53 801q0 137 46 261.5t127 220t188 167t234 108.5t259 37t259 -37t234 -108.5t188 -167t127 -220t46 -261.5q0 -185 -64 -343.5t-176.5 -270t-271 -175t-342.5 -63.5t-342.5 63.5t-271 175t-176.5 270t-64 343.5zM444 1931q0 83 59 142t144 59q83 0 142 -59t59 -142 q0 -84 -58.5 -142t-142.5 -58q-85 0 -144 58t-59 142zM715 180q0 -66 35.5 -110.5t101.5 -44.5q69 0 104 44t35 111v953q0 34 -1 55.5t-4.5 57t-12.5 58t-23.5 45.5t-39.5 34.5t-58 11.5q-31 0 -55.5 -11.5t-38.5 -34t-23.5 -46.5t-13.5 -57.5t-5 -57t-1 -55.5v-953z M969 1931q0 83 58.5 142t143.5 59q83 0 142 -59t59 -142q0 -84 -58.5 -142t-142.5 -58q-85 0 -143.5 57.5t-58.5 142.5z" />
<glyph unicode="&#xd8;" horiz-adv-x="1816" d="M23 100l190 183q-81 119 -120.5 239.5t-39.5 276.5q0 166 65.5 313.5t178 253.5t269.5 167.5t333 61.5q153 0 297.5 -38t239.5 -123l196 190l158 -168l-188 -184q82 -115 120.5 -227.5t38.5 -245.5q0 -248 -113.5 -443t-307.5 -301t-431 -106q-143 0 -280.5 43 t-251.5 125l-195 -185zM702 180q0 -66 37 -110.5t107 -44.5q69 0 104 44t35 111v666l-283 -428v-238zM702 608l283 430v95q0 34 -1 55.5t-4.5 57t-12.5 58t-23.5 45.5t-39.5 34.5t-58 11.5t-58 -11.5t-40 -34t-25 -46.5t-14 -57.5t-5.5 -57t-1.5 -55.5v-525z" />
<glyph unicode="&#xd9;" horiz-adv-x="1593" d="M10 1489v55h684v-55h-170v-758q0 -51 1.5 -87t7.5 -83.5t17 -80t31.5 -67t48.5 -55t70.5 -34t96.5 -13.5t96.5 13.5t70.5 34t48 55t31 67t17 80t7.5 83.5t1.5 87v516q0 141 -29 191.5t-102 50.5h-53v55h585v-868q0 -92 -4 -151t-18.5 -136.5t-49 -140.5t-89.5 -117 q-91 -89 -227 -130.5t-285 -41.5t-285 41.5t-227 130.5q-45 43 -76 96.5t-47.5 101.5t-25.5 113.5t-11 113.5t-2 120v813h-113zM539 2009l227 164l289 -352l-166 -121z" />
<glyph unicode="&#xda;" horiz-adv-x="1593" d="M10 1489v55h684v-55h-170v-758q0 -51 1.5 -87t7.5 -83.5t17 -80t31.5 -67t48.5 -55t70.5 -34t96.5 -13.5t96.5 13.5t70.5 34t48 55t31 67t17 80t7.5 83.5t1.5 87v516q0 141 -29 191.5t-102 50.5h-53v55h585v-868q0 -92 -4 -151t-18.5 -136.5t-49 -140.5t-89.5 -117 q-91 -89 -227 -130.5t-285 -41.5t-285 41.5t-227 130.5q-45 43 -76 96.5t-47.5 101.5t-25.5 113.5t-11 113.5t-2 120v813h-113zM553 1540l168 227q8 11 30 41.5t31.5 43t31 34.5t38.5 31.5t42.5 18t53.5 8.5q42 0 80.5 -28.5t38.5 -68.5q0 -52 -26.5 -86.5t-98.5 -77.5 l-242 -143h-147z" />
<glyph unicode="&#xdb;" horiz-adv-x="1593" d="M10 1489v55h684v-55h-170v-758q0 -51 1.5 -87t7.5 -83.5t17 -80t31.5 -67t48.5 -55t70.5 -34t96.5 -13.5t96.5 13.5t70.5 34t48 55t31 67t17 80t7.5 83.5t1.5 87v516q0 141 -29 191.5t-102 50.5h-53v55h585v-868q0 -92 -4 -151t-18.5 -136.5t-49 -140.5t-89.5 -117 q-91 -89 -227 -130.5t-285 -41.5t-285 41.5t-227 130.5q-45 43 -76 96.5t-47.5 101.5t-25.5 113.5t-11 113.5t-2 120v813h-113zM346 1855l447 336l452 -336l-158 -172l-294 228l-295 -228z" />
<glyph unicode="&#xdc;" horiz-adv-x="1593" d="M10 1489v55h684v-55h-170v-758q0 -51 1.5 -87t7.5 -83.5t17 -80t31.5 -67t48.5 -55t70.5 -34t96.5 -13.5t96.5 13.5t70.5 34t48 55t31 67t17 80t7.5 83.5t1.5 87v516q0 141 -29 191.5t-102 50.5h-53v55h585v-868q0 -92 -4 -151t-18.5 -136.5t-49 -140.5t-89.5 -117 q-91 -89 -227 -130.5t-285 -41.5t-285 41.5t-227 130.5q-45 43 -76 96.5t-47.5 101.5t-25.5 113.5t-11 113.5t-2 120v813h-113zM332 1931q0 83 59 142t144 59q83 0 141.5 -59t58.5 -142q0 -84 -58 -142t-142 -58q-85 0 -144 58t-59 142zM856 1931q0 83 59 142t144 59 q83 0 142 -59t59 -142q0 -84 -58.5 -142t-142.5 -58q-85 0 -144 58t-59 142z" />
<glyph unicode="&#xdf;" horiz-adv-x="1333" d="M16 608v297h107v301q0 125 25.5 218.5t101.5 160.5q75 69 182 102t223 33q106 0 197.5 -29t162 -84.5t110.5 -142.5t40 -196q0 -105 -45 -179t-137 -143q150 -60 227.5 -171t77.5 -265q0 -113 -36 -218t-86.5 -173t-103 -109t-89.5 -41q-91 0 -157.5 26.5t-110.5 94.5 l65 49q1 -3 3 -11.5t2.5 -11t2.5 -8.5t4 -8t5 -5.5t7 -5t10 -2.5t13 -1q13 0 22 4.5t14.5 13.5t9 17t4.5 22.5t1.5 22.5t0 23.5t-0.5 19.5v420q0 21 -1.5 36.5t-8 35t-21.5 30t-38 10.5h-45q-29 0 -29 33q0 25 27 25h47q18 0 26.5 19t8.5 42v475q0 32 -30 49t-65 17 q-32 0 -61 -19.5t-29 -44.5v-1337h-610v49h82q-1 21 -0.5 145t1.5 269l1 145h-107z" />
<glyph unicode="&#xe0;" horiz-adv-x="1628" d="M76 526q0 150 65.5 277.5t187.5 204.5t273 77q94 0 181.5 -35t144.5 -102v103h538v-889q0 -49 35 -49q11 0 20.5 2.5t19.5 9.5t14 10.5t16 16t14 14.5v-72q-56 -64 -141.5 -96.5t-177.5 -32.5q-97 0 -161 30t-101 111q-127 -141 -398 -141q-151 0 -274 77.5t-189.5 205.5 t-66.5 278zM440 1516l228 163l288 -352l-165 -121zM583 338q0 -13 0.5 -41.5t0.5 -36.5q0 -95 16 -129q19 -41 62 -41q26 0 45 8t30 25.5t18 33t9.5 43t3 41t0.5 41.5v13v205h-74q-23 0 -41 -7t-29.5 -16.5t-20 -28.5t-12.5 -32.5t-6 -39t-2 -38.5z" />
<glyph unicode="&#xe1;" horiz-adv-x="1628" d="M76 526q0 150 65.5 277.5t187.5 204.5t273 77q94 0 181.5 -35t144.5 -102v103h538v-889q0 -49 35 -49q11 0 20.5 2.5t19.5 9.5t14 10.5t16 16t14 14.5v-72q-56 -64 -141.5 -96.5t-177.5 -32.5q-97 0 -161 30t-101 111q-127 -141 -398 -141q-151 0 -274 77.5t-189.5 205.5 t-66.5 278zM455 1047l168 227q8 10 30 41t31.5 43t31 34.5t38.5 31.5t42.5 17.5t53.5 8.5q42 0 80.5 -28t38.5 -68q0 -52 -26.5 -86.5t-98.5 -77.5l-242 -143h-147zM583 338q0 -13 0.5 -41.5t0.5 -36.5q0 -95 16 -129q19 -41 62 -41q26 0 45 8t30 25.5t18 33t9.5 43t3 41 t0.5 41.5v13v205h-74q-23 0 -41 -7t-29.5 -16.5t-20 -28.5t-12.5 -32.5t-6 -39t-2 -38.5z" />
<glyph unicode="&#xe2;" horiz-adv-x="1628" d="M76 526q0 150 65.5 277.5t187.5 204.5t273 77q94 0 181.5 -35t144.5 -102v103h538v-889q0 -49 35 -49q11 0 20.5 2.5t19.5 9.5t14 10.5t16 16t14 14.5v-72q-56 -64 -141.5 -96.5t-177.5 -32.5q-97 0 -161 30t-101 111q-127 -141 -398 -141q-151 0 -274 77.5t-189.5 205.5 t-66.5 278zM248 1362l446 336l453 -336l-158 -172l-295 227l-295 -227zM583 338q0 -13 0.5 -41.5t0.5 -36.5q0 -95 16 -129q19 -41 62 -41q26 0 45 8t30 25.5t18 33t9.5 43t3 41t0.5 41.5v13v205h-74q-23 0 -41 -7t-29.5 -16.5t-20 -28.5t-12.5 -32.5t-6 -39t-2 -38.5z" />
<glyph unicode="&#xe3;" horiz-adv-x="1628" d="M76 526q0 150 65.5 277.5t187.5 204.5t273 77q94 0 181.5 -35t144.5 -102v103h538v-889q0 -49 35 -49q11 0 20.5 2.5t19.5 9.5t14 10.5t16 16t14 14.5v-72q-56 -64 -141.5 -96.5t-177.5 -32.5q-97 0 -161 30t-101 111q-127 -141 -398 -141q-151 0 -274 77.5t-189.5 205.5 t-66.5 278zM291 1284q0 107 45 182q29 50 78 82.5t104 32.5q59 0 206.5 -45t184.5 -45q30 0 53.5 30t32.5 64h113q-5 -56 -21.5 -109t-47 -103t-81.5 -80.5t-116 -30.5q-53 0 -159 37.5t-153 37.5q-18 0 -29.5 -5t-19.5 -19.5t-10.5 -21t-9.5 -29.5h-168zM583 338 q0 -13 0.5 -41.5t0.5 -36.5q0 -95 16 -129q19 -41 62 -41q26 0 45 8t30 25.5t18 33t9.5 43t3 41t0.5 41.5v13v205h-74q-23 0 -41 -7t-29.5 -16.5t-20 -28.5t-12.5 -32.5t-6 -39t-2 -38.5z" />
<glyph unicode="&#xe4;" horiz-adv-x="1628" d="M76 526q0 150 65.5 277.5t187.5 204.5t273 77q94 0 181.5 -35t144.5 -102v103h538v-889q0 -49 35 -49q11 0 20.5 2.5t19.5 9.5t14 10.5t16 16t14 14.5v-72q-56 -64 -141.5 -96.5t-177.5 -32.5q-97 0 -161 30t-101 111q-127 -141 -398 -141q-151 0 -274 77.5t-189.5 205.5 t-66.5 278zM233 1438q0 83 59 141.5t144 58.5q83 0 142 -58.5t59 -141.5q0 -84 -58.5 -142.5t-142.5 -58.5q-85 0 -144 58t-59 143zM583 338q0 -13 0.5 -41.5t0.5 -36.5q0 -95 16 -129q19 -41 62 -41q26 0 45 8t30 25.5t18 33t9.5 43t3 41t0.5 41.5v13v205h-74q-23 0 -41 -7 t-29.5 -16.5t-20 -28.5t-12.5 -32.5t-6 -39t-2 -38.5zM758 1438q0 83 59 141.5t144 58.5q83 0 141.5 -58.5t58.5 -141.5q0 -84 -58.5 -142.5t-141.5 -58.5q-85 0 -144 58t-59 143z" />
<glyph unicode="&#xe5;" horiz-adv-x="1628" d="M76 526q0 150 65.5 277.5t187.5 204.5t273 77q94 0 181.5 -35t144.5 -102v103h538v-889q0 -49 35 -49q11 0 20.5 2.5t19.5 9.5t14 10.5t16 16t14 14.5v-72q-56 -64 -141.5 -96.5t-177.5 -32.5q-97 0 -161 30t-101 111q-127 -141 -398 -141q-151 0 -274 77.5t-189.5 205.5 t-66.5 278zM385 1432q0 63 26.5 110.5t72 74.5t98.5 39.5t114 12.5t115 -12t101 -38t74.5 -73.5t27.5 -111.5q0 -63 -27 -110t-72.5 -73.5t-99 -39.5t-113.5 -13q-61 0 -114.5 12t-100.5 38t-74.5 73t-27.5 111zM580 1434q0 -46 35.5 -67t84.5 -21q48 0 83.5 21.5t35.5 66.5 t-35.5 66.5t-83.5 21.5q-49 0 -84.5 -21t-35.5 -67zM583 338q0 -13 0.5 -41.5t0.5 -36.5q0 -95 16 -129q19 -41 62 -41q26 0 45 8t30 25.5t18 33t9.5 43t3 41t0.5 41.5v13v205h-74q-23 0 -41 -7t-29.5 -16.5t-20 -28.5t-12.5 -32.5t-6 -39t-2 -38.5z" />
<glyph unicode="&#xe6;" horiz-adv-x="1925" d="M43 236q0 65 32.5 119t84.5 88.5t118.5 58t131.5 33.5t127 10h200v387q0 104 -108 104q-72 0 -72 -30q0 -6 9.5 -18t21 -25.5t21 -39.5t9.5 -57q0 -48 -25.5 -83.5t-67.5 -53.5t-85 -26.5t-88 -8.5t-82.5 7.5t-72 24t-54.5 50t-20 80.5q0 50 22 90t61 63.5t82 40t97 23.5 t93 9.5t81 2.5q106 0 202.5 -44t147.5 -142q60 91 169 138.5t227 47.5q272 0 423.5 -156t151.5 -427v-39h-784q0 -114 59 -174t174 -60q121 0 178 97h359q-28 -119 -111.5 -202.5t-191.5 -121t-232 -37.5q-118 0 -213.5 33.5t-146.5 89.5q-114 -68 -244.5 -93.5 t-290.5 -25.5q-393 0 -393 267zM406 334q0 -58 51.5 -85.5t115.5 -27.5q36 0 76 9.5t75.5 36t35.5 65.5q0 32 -20.5 56t-53.5 36t-64 17t-61 5q-60 0 -107.5 -28t-47.5 -84zM1214 518h177v283q0 6 0.5 33t0 38.5t-2.5 35t-8.5 35.5t-16.5 27t-26.5 21t-39.5 6 q-15 0 -27.5 -4t-21 -13.5t-15 -18.5t-10 -25.5t-6 -26.5t-3.5 -29.5t-1 -28v-28v-22.5v-283z" />
<glyph unicode="&#xe7;" horiz-adv-x="1253" d="M33 479q0 126 37.5 229.5t99.5 172.5t146.5 116t175 67.5t188.5 20.5q115 0 205.5 -19t147.5 -50.5t94 -75t52 -89.5t15 -97q0 -102 -64.5 -165t-166.5 -63q-91 0 -155.5 60t-64.5 149q0 79 38 126.5t114 84.5q33 16 33 27q0 27 -47.5 41t-81.5 14q-32 0 -54.5 -2 t-47 -8.5t-40.5 -19t-32.5 -33t-26.5 -50t-18 -70.5t-11 -95t-2.5 -123t4.5 -154l9 -182q71 -23 114 -23q50 0 100 19t87 53v-315q-116 -58 -244 -58q-81 0 -154 15l-49 -109q31 10 80 10q71 0 119 -27.5t61 -82.5l-274 -258l-160 100l146 174q-7 2 -17 2q-36 0 -53 -12 l-35 18l94 207q-164 56 -263 180.5t-99 294.5z" />
<glyph unicode="&#xe8;" horiz-adv-x="1277" d="M45 524q0 259 161 410t421 151q272 0 423.5 -156t151.5 -427v-39h-784q0 -114 59 -174t174 -60q121 0 178 97h359q-28 -119 -111.5 -202.5t-191.5 -121t-232 -37.5q-131 0 -242 37t-192.5 106.5t-127.5 176t-46 239.5zM367 1516l227 163l289 -352l-166 -121zM545 528h176 v283q0 7 0.5 33t0 38.5t-2.5 35.5t-8 35.5t-16 27t-26.5 21t-39.5 6.5q-15 0 -27.5 -4t-21 -14t-15 -19t-10 -25t-6 -26.5t-3.5 -30t-1 -28v-28v-22.5v-283z" />
<glyph unicode="&#xe9;" horiz-adv-x="1277" d="M45 524q0 259 161 410t421 151q272 0 423.5 -156t151.5 -427v-39h-784q0 -114 59 -174t174 -60q121 0 178 97h359q-28 -119 -111.5 -202.5t-191.5 -121t-232 -37.5q-131 0 -242 37t-192.5 106.5t-127.5 176t-46 239.5zM381 1047l168 227q8 10 30 41t31.5 43t31 34.5 t38.5 31.5t42.5 17.5t53.5 8.5q42 0 80.5 -28t38.5 -68q0 -52 -26.5 -86.5t-98.5 -77.5l-242 -143h-147zM545 528h176v283q0 7 0.5 33t0 38.5t-2.5 35.5t-8 35.5t-16 27t-26.5 21t-39.5 6.5q-15 0 -27.5 -4t-21 -14t-15 -19t-10 -25t-6 -26.5t-3.5 -30t-1 -28v-28v-22.5 v-283z" />
<glyph unicode="&#xea;" horiz-adv-x="1277" d="M45 524q0 259 161 410t421 151q272 0 423.5 -156t151.5 -427v-39h-784q0 -114 59 -174t174 -60q121 0 178 97h359q-28 -119 -111.5 -202.5t-191.5 -121t-232 -37.5q-131 0 -242 37t-192.5 106.5t-127.5 176t-46 239.5zM174 1362l447 336l452 -336l-158 -172l-294 227 l-295 -227zM545 528h176v283q0 7 0.5 33t0 38.5t-2.5 35.5t-8 35.5t-16 27t-26.5 21t-39.5 6.5q-15 0 -27.5 -4t-21 -14t-15 -19t-10 -25t-6 -26.5t-3.5 -30t-1 -28v-28v-22.5v-283z" />
<glyph unicode="&#xeb;" horiz-adv-x="1277" d="M45 524q0 259 161 410t421 151q272 0 423.5 -156t151.5 -427v-39h-784q0 -114 59 -174t174 -60q121 0 178 97h359q-28 -119 -111.5 -202.5t-191.5 -121t-232 -37.5q-131 0 -242 37t-192.5 106.5t-127.5 176t-46 239.5zM160 1438q0 83 58.5 141.5t143.5 58.5 q83 0 142 -58.5t59 -141.5q0 -84 -58.5 -142.5t-142.5 -58.5q-85 0 -143.5 58t-58.5 143zM545 528h176v283q0 7 0.5 33t0 38.5t-2.5 35.5t-8 35.5t-16 27t-26.5 21t-39.5 6.5q-15 0 -27.5 -4t-21 -14t-15 -19t-10 -25t-6 -26.5t-3.5 -30t-1 -28v-28v-22.5v-283zM684 1438 q0 83 59 141.5t144 58.5q83 0 141.5 -58.5t58.5 -141.5q0 -84 -58.5 -142.5t-141.5 -58.5q-85 0 -144 58t-59 143z" />
<glyph unicode="&#xec;" horiz-adv-x="690" d="M29 0v49h112v928h-108v49q255 0 463 25v-1051h-467zM51 1516l228 163l288 -352l-166 -121z" />
<glyph unicode="&#xed;" horiz-adv-x="690" d="M29 0v49h112v928h-108v49q255 0 463 25v-1051h-467zM66 1047l167 227q7 9 30 41t32 43t31 34t38.5 32t42.5 17.5t54 8.5q42 0 80.5 -28t38.5 -68q0 -52 -26.5 -86.5t-98.5 -77.5l-242 -143h-147z" />
<glyph unicode="&#xee;" horiz-adv-x="690" d="M-141 1362l446 336l453 -336l-158 -172l-295 227l-295 -227zM29 0v49h112v928h-108v49q255 0 463 25v-1051h-467z" />
<glyph unicode="&#xef;" horiz-adv-x="690" d="M-156 1438q0 83 59 141.5t144 58.5q83 0 142 -58.5t59 -141.5q0 -84 -58.5 -142.5t-142.5 -58.5q-85 0 -144 58t-59 143zM29 0v49h112v928h-108v49q255 0 463 25v-1051h-467zM369 1438q0 83 58.5 141.5t143.5 58.5q83 0 142 -58.5t59 -141.5q0 -84 -58.5 -142.5 t-142.5 -58.5q-85 0 -143.5 58t-58.5 143z" />
<glyph unicode="&#xf1;" horiz-adv-x="1353" d="M123 0v1051h373v-136h4q63 92 143 131t193 39q104 0 181 -31.5t123 -90t68.5 -137t22.5 -177.5v-649h-473v49h71v619q0 9 1 29.5t0.5 34t-1.5 33.5t-5.5 32.5t-12.5 25.5t-22 19t-33 6q-41 0 -71 -36t-42 -79t-12 -80v-604h71v-49h-579zM268 1284q0 107 45 182 q29 50 78.5 82.5t104.5 32.5q59 0 206.5 -45t184.5 -45q30 0 53.5 30t32.5 64h112q-5 -56 -21.5 -109t-47 -103t-81.5 -80.5t-116 -30.5q-53 0 -158.5 37.5t-152.5 37.5q-18 0 -29.5 -5t-19.5 -19t-11 -22t-10 -29h-168z" />
<glyph unicode="&#xf2;" horiz-adv-x="1384" d="M88 524q0 105 33.5 195.5t92.5 157t138.5 114t173 71t195.5 23.5t195.5 -23.5t173 -71t138.5 -114t92.5 -157t33.5 -195.5q0 -130 -51 -237t-138.5 -176.5t-201.5 -107.5t-242 -38q-127 0 -241 37.5t-201.5 107t-139 177t-51.5 237.5zM420 1516l227 163l289 -352 l-166 -121zM616 178q0 -28 0.5 -41t3 -36t9 -34.5t17.5 -24.5t29.5 -18.5t43.5 -5.5q21 0 36.5 4t26 9t17.5 16.5t10.5 19.5t5 24.5t1.5 26.5t-0.5 30t-0.5 30v615q0 29 -0.5 44.5t-5.5 40t-14.5 37.5t-28.5 23t-47 10q-34 0 -56 -13t-31.5 -38.5t-12.5 -48t-3 -55.5v-615z " />
<glyph unicode="&#xf3;" horiz-adv-x="1384" d="M88 524q0 105 33.5 195.5t92.5 157t138.5 114t173 71t195.5 23.5t195.5 -23.5t173 -71t138.5 -114t92.5 -157t33.5 -195.5q0 -130 -51 -237t-138.5 -176.5t-201.5 -107.5t-242 -38q-127 0 -241 37.5t-201.5 107t-139 177t-51.5 237.5zM434 1047l168 227q8 10 30 41 t31.5 43t31 34.5t38.5 31.5t42.5 17.5t53.5 8.5q42 0 80.5 -28t38.5 -68q0 -52 -26.5 -86.5t-98.5 -77.5l-241 -143h-148zM616 178q0 -28 0.5 -41t3 -36t9 -34.5t17.5 -24.5t29.5 -18.5t43.5 -5.5q21 0 36.5 4t26 9t17.5 16.5t10.5 19.5t5 24.5t1.5 26.5t-0.5 30t-0.5 30 v615q0 29 -0.5 44.5t-5.5 40t-14.5 37.5t-28.5 23t-47 10q-34 0 -56 -13t-31.5 -38.5t-12.5 -48t-3 -55.5v-615z" />
<glyph unicode="&#xf4;" horiz-adv-x="1384" d="M88 524q0 105 33.5 195.5t92.5 157t138.5 114t173 71t195.5 23.5t195.5 -23.5t173 -71t138.5 -114t92.5 -157t33.5 -195.5q0 -130 -51 -237t-138.5 -176.5t-201.5 -107.5t-242 -38q-127 0 -241 37.5t-201.5 107t-139 177t-51.5 237.5zM227 1362l447 336l452 -336 l-157 -172l-295 227l-295 -227zM616 178q0 -28 0.5 -41t3 -36t9 -34.5t17.5 -24.5t29.5 -18.5t43.5 -5.5q21 0 36.5 4t26 9t17.5 16.5t10.5 19.5t5 24.5t1.5 26.5t-0.5 30t-0.5 30v615q0 29 -0.5 44.5t-5.5 40t-14.5 37.5t-28.5 23t-47 10q-34 0 -56 -13t-31.5 -38.5 t-12.5 -48t-3 -55.5v-615z" />
<glyph unicode="&#xf5;" horiz-adv-x="1384" d="M88 524q0 105 33.5 195.5t92.5 157t138.5 114t173 71t195.5 23.5t195.5 -23.5t173 -71t138.5 -114t92.5 -157t33.5 -195.5q0 -130 -51 -237t-138.5 -176.5t-201.5 -107.5t-242 -38q-127 0 -241 37.5t-201.5 107t-139 177t-51.5 237.5zM270 1284q0 107 45 182 q29 50 78.5 82.5t104.5 32.5q59 0 206.5 -45t184.5 -45q30 0 53.5 30t32.5 64h112q-5 -56 -21.5 -109t-47 -103t-81.5 -80.5t-116 -30.5q-53 0 -158.5 37.5t-152.5 37.5q-18 0 -29.5 -5t-19.5 -19t-11 -22t-10 -29h-168zM616 178q0 -28 0.5 -41t3 -36t9 -34.5t17.5 -24.5 t29.5 -18.5t43.5 -5.5q21 0 36.5 4t26 9t17.5 16.5t10.5 19.5t5 24.5t1.5 26.5t-0.5 30t-0.5 30v615q0 29 -0.5 44.5t-5.5 40t-14.5 37.5t-28.5 23t-47 10q-34 0 -56 -13t-31.5 -38.5t-12.5 -48t-3 -55.5v-615z" />
<glyph unicode="&#xf6;" horiz-adv-x="1384" d="M88 524q0 105 33.5 195.5t92.5 157t138.5 114t173 71t195.5 23.5t195.5 -23.5t173 -71t138.5 -114t92.5 -157t33.5 -195.5q0 -130 -51 -237t-138.5 -176.5t-201.5 -107.5t-242 -38q-127 0 -241 37.5t-201.5 107t-139 177t-51.5 237.5zM213 1438q0 83 59 141.5t144 58.5 q83 0 141.5 -58.5t58.5 -141.5q0 -84 -58 -142.5t-142 -58.5q-85 0 -144 58t-59 143zM616 178q0 -28 0.5 -41t3 -36t9 -34.5t17.5 -24.5t29.5 -18.5t43.5 -5.5q21 0 36.5 4t26 9t17.5 16.5t10.5 19.5t5 24.5t1.5 26.5t-0.5 30t-0.5 30v615q0 29 -0.5 44.5t-5.5 40 t-14.5 37.5t-28.5 23t-47 10q-34 0 -56 -13t-31.5 -38.5t-12.5 -48t-3 -55.5v-615zM737 1438q0 83 59 141.5t144 58.5q83 0 142 -58.5t59 -141.5q0 -84 -58.5 -142.5t-142.5 -58.5q-85 0 -144 58t-59 143z" />
<glyph unicode="&#xf8;" horiz-adv-x="1384" d="M-35 55l182 144q-47 65 -74.5 154t-27.5 169q0 132 50.5 240t137.5 178t201 107.5t242 37.5q266 0 418 -127l206 168l101 -127l-195 -153q54 -71 79.5 -140t25.5 -153q0 -187 -82.5 -321.5t-225 -200.5t-329.5 -66q-113 0 -223 30.5t-189 92.5l-196 -160zM573 178 q0 -28 0.5 -41t3 -36t9 -34.5t17.5 -24.5t29.5 -18.5t43.5 -5.5q21 0 36.5 4t26 9t17.5 16.5t10.5 19.5t5 24.5t1.5 26.5t-0.5 30t-0.5 30v406l-199 -318v-88zM573 451l199 319v23q0 29 -0.5 44.5t-5.5 40t-14.5 37.5t-28.5 23t-47 10q-34 0 -56 -13t-31.5 -38.5t-12.5 -48 t-3 -55.5v-342z" />
<glyph unicode="&#xf9;" horiz-adv-x="1349" d="M29 1001v50q115 0 325 11t277 13v-887q0 -36 19 -59t55 -23q35 0 61 22.5t39 58.5t18.5 70t5.5 67v677h-108v50h1h1h1h1h1h1h1h1h1h1h1h1h1h1h1h1h1h1h1h1h1h1h1h1h1h1h1h1h1h1h1h1h1h1h1h1h1h1h1h1h1h1h1h1h1h1h1h1h1h1h1h1h1h1h1h1h1h1h1h1h1h1h1h1h1h1h1h1h1h1h1h1h1 h1h1h1h1h1h1h1h1h1h1h1h1h1h1h1h1h1h1h1h2h1h1h1h1h1h1h1h1h1h1h1h2h1h1h1h1h1h1h1h2h1h1h1h1h1h1h2h1h1h1h1h2h1h1h1h1h1h2h1h1h1h2h1h1h1h2h1h1h1h1h2h1h1h2h1h1h1h2h1h1h2h1h1h1h2h1h1h2h1h1h2h1h1h2h1h1h2h1h1h2h1h1h2h1h1h2h1h2h1h1h2h1h2h1h1h2h1h2h1h1h2h1h2h1h2h1h1 h2h1h2h1h2h1h2h1h2h1h1h2h1h2h1h2h1h2h1h2h1h2h1h2h1h2h1h2h1h2h2h1h2h1h2h1h2h1h2h1h2h2h1h2h1h2h1h2h2h1h2h1h2h2h1h2h1h2h2h1h2h1h2h2h1h2h1h2h2h1h2h2h1h2h2h1h2h2h1h2h2h1h2h2h1h2h2h1h2h2h1h2h2h2h1h2h2h1h2h2h1h2h2h2h1h2h2h2h1h2h2h2h1h2h2h2h1h2h2h2h1h2h2h2h2h1h2 h2h2h2h1h2h2h2h2h1h2h2h2h2h2h1h2h2h2h2h2h1h2h2h2h2h2h2h1h2h2h2h2h2h2h1h2h2h2h10v-633q0 -453 -559 -453t-559 453v583h-88zM418 1516l227 163l289 -352l-166 -121z" />
<glyph unicode="&#xfa;" horiz-adv-x="1349" d="M29 1001v50q115 0 325 11t277 13v-887q0 -36 19 -59t55 -23q35 0 61 22.5t39 58.5t18.5 70t5.5 67v677h-108v50h1h1h1h1h1h1h1h1h1h1h1h1h1h1h1h1h1h1h1h1h1h1h1h1h1h1h1h1h1h1h1h1h1h1h1h1h1h1h1h1h1h1h1h1h1h1h1h1h1h1h1h1h1h1h1h1h1h1h1h1h1h1h1h1h1h1h1h1h1h1h1h1h1 h1h1h1h1h1h1h1h1h1h1h1h1h1h1h1h1h1h1h1h2h1h1h1h1h1h1h1h1h1h1h1h2h1h1h1h1h1h1h1h2h1h1h1h1h1h1h2h1h1h1h1h2h1h1h1h1h1h2h1h1h1h2h1h1h1h2h1h1h1h1h2h1h1h2h1h1h1h2h1h1h2h1h1h1h2h1h1h2h1h1h2h1h1h2h1h1h2h1h1h2h1h1h2h1h1h2h1h2h1h1h2h1h2h1h1h2h1h2h1h1h2h1h2h1h2h1h1 h2h1h2h1h2h1h2h1h2h1h1h2h1h2h1h2h1h2h1h2h1h2h1h2h1h2h1h2h1h2h2h1h2h1h2h1h2h1h2h1h2h2h1h2h1h2h1h2h2h1h2h1h2h2h1h2h1h2h2h1h2h1h2h2h1h2h1h2h2h1h2h2h1h2h2h1h2h2h1h2h2h1h2h2h1h2h2h1h2h2h1h2h2h2h1h2h2h1h2h2h1h2h2h2h1h2h2h2h1h2h2h2h1h2h2h2h1h2h2h2h1h2h2h2h2h1h2 h2h2h2h1h2h2h2h2h1h2h2h2h2h2h1h2h2h2h2h2h1h2h2h2h2h2h2h1h2h2h2h2h2h2h1h2h2h2h10v-633q0 -453 -559 -453t-559 453v583h-88zM432 1047l168 227q8 10 30 41t31.5 43t31 34.5t38.5 31.5t42.5 17.5t53.5 8.5q42 0 80.5 -28t38.5 -68q0 -52 -26.5 -86.5t-98.5 -77.5 l-241 -143h-148z" />
<glyph unicode="&#xfb;" horiz-adv-x="1349" d="M29 1001v50q115 0 325 11t277 13v-887q0 -36 19 -59t55 -23q35 0 61 22.5t39 58.5t18.5 70t5.5 67v677h-108v50h1h1h1h1h1h1h1h1h1h1h1h1h1h1h1h1h1h1h1h1h1h1h1h1h1h1h1h1h1h1h1h1h1h1h1h1h1h1h1h1h1h1h1h1h1h1h1h1h1h1h1h1h1h1h1h1h1h1h1h1h1h1h1h1h1h1h1h1h1h1h1h1h1 h1h1h1h1h1h1h1h1h1h1h1h1h1h1h1h1h1h1h1h2h1h1h1h1h1h1h1h1h1h1h1h2h1h1h1h1h1h1h1h2h1h1h1h1h1h1h2h1h1h1h1h2h1h1h1h1h1h2h1h1h1h2h1h1h1h2h1h1h1h1h2h1h1h2h1h1h1h2h1h1h2h1h1h1h2h1h1h2h1h1h2h1h1h2h1h1h2h1h1h2h1h1h2h1h1h2h1h2h1h1h2h1h2h1h1h2h1h2h1h1h2h1h2h1h2h1h1 h2h1h2h1h2h1h2h1h2h1h1h2h1h2h1h2h1h2h1h2h1h2h1h2h1h2h1h2h1h2h2h1h2h1h2h1h2h1h2h1h2h2h1h2h1h2h1h2h2h1h2h1h2h2h1h2h1h2h2h1h2h1h2h2h1h2h1h2h2h1h2h2h1h2h2h1h2h2h1h2h2h1h2h2h1h2h2h1h2h2h1h2h2h2h1h2h2h1h2h2h1h2h2h2h1h2h2h2h1h2h2h2h1h2h2h2h1h2h2h2h1h2h2h2h2h1h2 h2h2h2h1h2h2h2h2h1h2h2h2h2h2h1h2h2h2h2h2h1h2h2h2h2h2h2h1h2h2h2h2h2h2h1h2h2h2h10v-633q0 -453 -559 -453t-559 453v583h-88zM225 1362l447 336l452 -336l-157 -172l-295 227l-295 -227z" />
<glyph unicode="&#xfc;" horiz-adv-x="1349" d="M29 1001v50q115 0 325 11t277 13v-887q0 -36 19 -59t55 -23q35 0 61 22.5t39 58.5t18.5 70t5.5 67v677h-108v50h1h1h1h1h1h1h1h1h1h1h1h1h1h1h1h1h1h1h1h1h1h1h1h1h1h1h1h1h1h1h1h1h1h1h1h1h1h1h1h1h1h1h1h1h1h1h1h1h1h1h1h1h1h1h1h1h1h1h1h1h1h1h1h1h1h1h1h1h1h1h1h1h1 h1h1h1h1h1h1h1h1h1h1h1h1h1h1h1h1h1h1h1h2h1h1h1h1h1h1h1h1h1h1h1h2h1h1h1h1h1h1h1h2h1h1h1h1h1h1h2h1h1h1h1h2h1h1h1h1h1h2h1h1h1h2h1h1h1h2h1h1h1h1h2h1h1h2h1h1h1h2h1h1h2h1h1h1h2h1h1h2h1h1h2h1h1h2h1h1h2h1h1h2h1h1h2h1h1h2h1h2h1h1h2h1h2h1h1h2h1h2h1h1h2h1h2h1h2h1h1 h2h1h2h1h2h1h2h1h2h1h1h2h1h2h1h2h1h2h1h2h1h2h1h2h1h2h1h2h1h2h2h1h2h1h2h1h2h1h2h1h2h2h1h2h1h2h1h2h2h1h2h1h2h2h1h2h1h2h2h1h2h1h2h2h1h2h1h2h2h1h2h2h1h2h2h1h2h2h1h2h2h1h2h2h1h2h2h1h2h2h1h2h2h2h1h2h2h1h2h2h1h2h2h2h1h2h2h2h1h2h2h2h1h2h2h2h1h2h2h2h1h2h2h2h2h1h2 h2h2h2h1h2h2h2h2h1h2h2h2h2h2h1h2h2h2h2h2h1h2h2h2h2h2h2h1h2h2h2h2h2h2h1h2h2h2h10v-633q0 -453 -559 -453t-559 453v583h-88zM211 1438q0 83 59 141.5t144 58.5q83 0 141.5 -58.5t58.5 -141.5q0 -84 -58 -142.5t-142 -58.5q-85 0 -144 58t-59 143zM735 1438q0 83 59 141.5 t144 58.5q83 0 142 -58.5t59 -141.5q0 -84 -58.5 -142.5t-142.5 -58.5q-85 0 -144 58t-59 143z" />
<glyph unicode="&#xff;" horiz-adv-x="1310" d="M-31 1051h430l281 -539l274 539h424l-561 -1049q-84 -161 -201 -295q-68 -77 -142 -117.5t-167 -40.5q-99 0 -169 62.5t-70 161.5q0 79 59 129.5t139 50.5q76 0 131.5 -44.5t55.5 -119.5q0 -65 -45 -104q-6 -6 -16.5 -13.5t-15.5 -12t-9.5 -10t-4.5 -11.5q0 -19 27 -19 q61 0 150 80q14 12 28 27t30.5 37.5t26.5 36.5t30.5 47.5t27.5 45.5t32 54.5t31 52.5h-188zM205 1438q0 83 59 141.5t144 58.5q83 0 141.5 -58.5t58.5 -141.5q0 -84 -58 -142.5t-142 -58.5q-85 0 -144 58t-59 143zM729 1438q0 83 59 141.5t144 58.5q83 0 142 -58.5 t59 -141.5q0 -84 -58.5 -142.5t-142.5 -58.5q-85 0 -144 58t-59 143z" />
<glyph unicode="&#x152;" horiz-adv-x="2334" d="M53 772q0 161 64.5 312.5t172.5 263.5t258 179.5t312 67.5q300 0 492 -192v141h639v-631h-62q-16 104 -54 199t-83.5 160t-94 114.5t-88 73t-63.5 23.5h-96v-740h35q27 0 60 14.5t69 45t63 88t33 131.5h68v-625h-68q-5 64 -24.5 115.5t-44.5 83.5t-55 53.5t-55 30 t-46 8.5h-35v-633h90q73 0 135.5 30.5t106 78t78 113t55 128.5t33.5 132h69v-537h-1h-1h-1h-1h-1h-1h-1h-1h-1h-1h-1h-1h-1h-1h-1h-1h-1h-1h-1h-1h-1h-1h-1h-1h-1h-1h-1h-1h-1h-1h-1h-1h-1h-1h-1h-1h-1h-1h-1h-1h-1h-1h-1h-1h-1h-1h-1h-1h-1h-1h-1h-1h-1h-1h-1h-1h-1h-1h-1 h-1h-1h-1h-1h-1h-1h-1h-1h-1h-1h-1h-1h-1h-1h-1h-1h-1h-1h-1h-1h-1h-1h-1h-1h-1h-1h-1h-1h-1h-1h-1h-1h-1h-1h-1h-1h-1h-1h-1h-1h-1h-1h-1h-1h-1h-1h-1h-1h-1h-2h-1h-1h-1h-1h-1h-1h-1h-1h-1h-1h-1h-1h-1h-1h-1h-1h-2h-1h-1h-1h-1h-1h-1h-1h-1h-1h-2h-1h-1h-1h-1h-1h-1h-2 h-1h-1h-1h-1h-1h-1h-2h-1h-1h-1h-1h-1h-2h-1h-1h-1h-1h-2h-1h-1h-1h-1h-2h-1h-1h-1h-2h-1h-1h-1h-2h-1h-1h-1h-2h-1h-1h-1h-2h-1h-1h-1h-2h-1h-1h-1h-2h-1h-1h-2h-1h-1h-2h-1h-1h-1h-2h-1h-1h-2h-1h-1h-2h-1h-1h-2h-1h-1h-2h-1h-1h-2h-1h-1h-2h-1h-2h-1h-1h-2h-1h-1h-2h-1 h-2h-1h-1h-2h-1h-2h-1h-1h-2h-1h-2h-1h-1h-2h-1h-2h-1h-2h-1h-1h-2h-1h-2h-1h-2h-1h-2h-1h-1h-2h-1h-2h-1h-2h-1h-2h-1h-2h-1h-2h-1h-2h-1h-2h-1h-2h-1h-2h-1h-2h-1h-2h-1h-2h-1h-2h-1h-2h-1h-2h-1h-2h-2h-1h-2h-1h-2h-1h-2h-1h-2h-1h-2h-2h-1h-2h-1h-2h-1h-2h-2h-1h-2h-1 h-2h-2h-1h-2h-1h-2h-2h-1h-2h-1h-2h-2h-1h-2h-2h-1h-2h-1h-2h-2h-1h-2h-2h-1h-2h-2h-1h-2h-1h-2h-2h-1h-2h-2h-1h-2h-2h-2h-1h-2h-2h-1h-2h-2h-1h-2h-2h-1h-2h-2h-2h-1h-2h-2h-1h-2h-2h-2h-1h-2h-2h-1h-2h-2h-2h-1h-2h-2h-2h-1h-2h-2h-2h-1h-2h-2h-2h-2h-1h-2h-2h-2h-1h-2 h-2h-2h-2h-1h-2h-2h-2h-2h-1h-2h-2h-2h-2h-1h-2h-2h-2h-2h-2h-1h-2h-2h-2h-2h-2h-2h-1h-2h-2h-2h-2h-2h-2h-2h-1h-2h-2h-2h-2h-2h-2h-2h-2h-2h-1h-2h-2h-2h-2h-2h-2h-2h-2h-2h-2h-2h-2h-2h-2h-2h-2h-2h-2h-2h-2h-2h-2h-2h-2h-2h-2h-2h-8v170q-104 -114 -223.5 -167.5 t-268.5 -53.5q-162 0 -312 67.5t-258 179.5t-172.5 263.5t-64.5 312.5zM658 242q0 -16 1.5 -43t5.5 -44.5t11.5 -39t18.5 -34.5t28 -21.5t39 -8.5q94 0 94 111v1112q0 38 -27 64t-67 26q-25 0 -44 -9t-30 -29.5t-17.5 -36.5t-8.5 -46.5t-2.5 -43t-0.5 -42.5v-840 q0 -7 -0.5 -33t-0.5 -42z" />
<glyph unicode="&#x153;" horiz-adv-x="2093" d="M43 524q0 172 80 300.5t215.5 194.5t306.5 66q130 0 218.5 -28.5t180.5 -100.5q87 28 131 34.5t144 6.5q166 0 300.5 -72t210.5 -205t66 -300h-675v-144q0 -123 62 -179t183 -56q111 0 205.5 60t163.5 159l41 -24q-86 -146 -220 -206.5t-317 -60.5q-213 0 -358 90 q-59 -36 -88.5 -51t-93.5 -29t-150 -14q-174 0 -309.5 63.5t-216 192t-80.5 303.5zM436 524q0 -99 70.5 -167t169.5 -68t169 68t70 167q0 97 -70.5 167.5t-168.5 70.5t-169 -70.5t-71 -167.5zM1221 469h176v283q0 7 0.5 33t0 38t-2.5 35.5t-8 36t-16 26.5t-26.5 20.5 t-39.5 6.5q-15 0 -27.5 -4t-21 -13.5t-15 -18.5t-10 -25.5t-6 -26.5t-3.5 -29.5t-1 -28v-28v-22.5v-283z" />
<glyph unicode="&#x178;" horiz-adv-x="1462" d="M-39 1544h481l457 -665h12l242 421q26 46 32 81.5t-4 55t-30 32t-39 16.5t-39 4h-55v55h455v-55h-35q-97 0 -215 -205l-291 -500v-784h-402v741zM266 1931q0 83 59 142t144 59q83 0 142 -59t59 -142q0 -84 -58.5 -142t-142.5 -58q-85 0 -144 58t-59 142zM791 1931 q0 83 58.5 142t143.5 59q83 0 142 -59t59 -142q0 -84 -58.5 -142t-142.5 -58q-85 0 -143.5 57.5t-58.5 142.5z" />
<glyph unicode="&#x2c6;" horiz-adv-x="1208" d="M154 1362l446 336l453 -336l-158 -172l-295 227l-295 -227z" />
<glyph unicode="&#x2dc;" horiz-adv-x="1124" d="M154 1284q0 107 45 182q29 50 78 82.5t104 32.5q59 0 206.5 -45t184.5 -45q30 0 53.5 30t32.5 64h113q-5 -56 -21.5 -109t-47 -103t-81.5 -80.5t-116 -30.5q-53 0 -159 37.5t-153 37.5q-18 0 -29.5 -5t-19.5 -19.5t-10.5 -21t-9.5 -29.5h-168z" />
<glyph unicode="&#x2000;" horiz-adv-x="1095" />
<glyph unicode="&#x2001;" horiz-adv-x="2191" />
<glyph unicode="&#x2002;" horiz-adv-x="1095" />
<glyph unicode="&#x2003;" horiz-adv-x="2191" />
<glyph unicode="&#x2004;" horiz-adv-x="730" />
<glyph unicode="&#x2005;" horiz-adv-x="547" />
<glyph unicode="&#x2006;" horiz-adv-x="365" />
<glyph unicode="&#x2007;" horiz-adv-x="365" />
<glyph unicode="&#x2008;" horiz-adv-x="273" />
<glyph unicode="&#x2009;" horiz-adv-x="438" />
<glyph unicode="&#x200a;" horiz-adv-x="121" />
<glyph unicode="&#x2010;" horiz-adv-x="802" d="M109 504v307h585v-307h-585z" />
<glyph unicode="&#x2011;" horiz-adv-x="802" d="M109 504v307h585v-307h-585z" />
<glyph unicode="&#x2012;" horiz-adv-x="802" d="M109 504v307h585v-307h-585z" />
<glyph unicode="&#x2013;" horiz-adv-x="1024" d="M0 504v307h1024v-307h-1024z" />
<glyph unicode="&#x2014;" horiz-adv-x="2048" d="M0 504v307h2048v-307h-2048z" />
<glyph unicode="&#x2018;" horiz-adv-x="761" d="M86 948l330 596h239l-116 -297q123 -69 123 -200q0 -80 -45 -135t-110 -78t-142 -23q-55 0 -103.5 14t-79.5 34.5t-53.5 40.5t-32.5 34z" />
<glyph unicode="&#x2019;" horiz-adv-x="761" d="M102 1364q0 60 25.5 107t69 74t94.5 40.5t108 13.5q55 0 103.5 -14t79.5 -34.5t53.5 -40.5t32.5 -34l10 -14l-330 -596h-239l116 297q-123 69 -123 201z" />
<glyph unicode="&#x201a;" horiz-adv-x="692" d="M33 211q0 60 25.5 107t69 74t94.5 40.5t108 13.5q55 0 103.5 -14t79 -34t53.5 -40.5t32 -34.5l10 -14l-329 -596h-240l117 297q-123 69 -123 201z" />
<glyph unicode="&#x201c;" horiz-adv-x="1286" d="M86 948l330 596h239l-116 -297q123 -69 123 -200q0 -80 -45 -135t-110 -78t-142 -23q-55 0 -103.5 14t-79.5 34.5t-53.5 40.5t-32.5 34zM610 948l330 596h240l-117 -297q123 -69 123 -200q0 -80 -45 -135t-110 -78t-142 -23q-55 0 -103.5 14t-79.5 34.5t-53.5 40.5 t-32.5 34z" />
<glyph unicode="&#x201d;" horiz-adv-x="1286" d="M102 1364q0 60 25.5 107t69 74t94.5 40.5t108 13.5q55 0 103.5 -14t79.5 -34.5t53.5 -40.5t32.5 -34l10 -14l-330 -596h-239l116 297q-123 69 -123 201zM625 1364q0 60 25.5 107t69 74t94.5 40.5t108 13.5q55 0 103.5 -14t79 -34.5t53.5 -40.5t32 -34l10 -14l-330 -596 h-239l117 297q-123 69 -123 201z" />
<glyph unicode="&#x201e;" horiz-adv-x="1216" d="M33 211q0 60 25.5 107t69 74t94.5 40.5t108 13.5q55 0 103.5 -14t79 -34t53.5 -40.5t32 -34.5l10 -14l-329 -596h-240l117 297q-123 69 -123 201zM555 211q0 60 25.5 107t69 74t94.5 40.5t108 13.5q55 0 103.5 -14t79 -34t53.5 -40.5t32 -34.5l10 -14l-329 -596h-240 l117 297q-123 69 -123 201z" />
<glyph unicode="&#x2022;" d="M317 772q0 161 112 274t276 113t274.5 -113t110.5 -274q0 -160 -110.5 -272.5t-274.5 -112.5t-276 112.5t-112 272.5z" />
<glyph unicode="&#x2026;" horiz-adv-x="2048" d="M102 199q0 100 70 169.5t170 69.5t170 -69.5t70 -169.5q0 -99 -70.5 -169.5t-169.5 -70.5t-169.5 70.5t-70.5 169.5zM784 199q0 100 70 169.5t170 69.5t170 -69.5t70 -169.5q0 -99 -70.5 -169.5t-169.5 -70.5t-169.5 70.5t-70.5 169.5zM1466 199q0 100 70 169.5t170 69.5 t170 -69.5t70 -169.5q0 -99 -70.5 -169.5t-169.5 -70.5t-169.5 70.5t-70.5 169.5z" />
<glyph unicode="&#x202f;" horiz-adv-x="438" />
<glyph unicode="&#x2039;" horiz-adv-x="724" d="M53 655l353 504l204 -141l-258 -363l264 -356l-210 -147z" />
<glyph unicode="&#x203a;" horiz-adv-x="724" d="M109 299l264 356l-258 363l204 141l353 -504l-353 -503z" />
<glyph unicode="&#x205f;" horiz-adv-x="547" />
<glyph unicode="&#x2122;" horiz-adv-x="1925" d="M80 1268l4 276h702v-160h-251v-667h-1h-1h-1h-1h-1h-1h-1h-1h-1h-1h-1h-1h-1h-1h-1h-1h-1h-1h-1h-1h-1h-1h-1h-1h-1h-1h-1h-1h-1h-1h-1h-1h-1h-1h-1h-1h-1h-1h-1h-1h-1h-1h-1h-1h-1h-1h-1h-1h-1h-1h-1h-1h-1h-1h-1h-1h-1h-1h-1h-1h-1h-1h-1h-2h-1h-1h-1h-1h-1h-1h-1h-2 h-1h-1h-1h-1h-1h-2h-1h-1h-1h-2h-1h-1h-1h-1h-2h-1h-1h-1h-2h-1h-1h-2h-1h-1h-1h-2h-1h-1h-2h-1h-1h-2h-1h-1h-2h-1h-2h-1h-1h-2h-1h-2h-1h-1h-2h-1h-2h-1h-1h-2h-1h-2h-1h-2h-1h-2h-1h-2h-1h-2h-1h-2h-1h-2h-1h-2h-1h-2h-1h-2h-1h-2h-1h-2h-2h-1h-2h-1h-2h-1h-2h-2h-1h-2 h-1h-2h-2h-1h-2h-1h-2h-2h-1h-2h-2h-1h-2h-2h-1h-2h-2h-1h-2h-2h-2h-1h-2h-2h-1h-2h-2h-2h-1h-2h-2h-2h-1h-2h-2h-2h-1h-2h-2h-2h-2h-1h-2h-2h-2h-2h-1h-2h-2h-2h-2h-2h-2h-1h-2h-2h-2h-2h-2h-2h-2h-1h-2h-2h-2h-2h-2h-2h-2h-9v26h98v773q-143 -14 -198 -248h-33zM887 717 v26h20q68 0 68 93v680h-78v28h281l186 -489l186 489h291v-827h-180v667h-4l-240 -667h-106l-287 799h-10v-678q0 -16 0.5 -26t4.5 -25t11 -23t21.5 -14.5t35.5 -6.5h21v-26h-221z" />
<glyph unicode="&#x25fc;" horiz-adv-x="1054" d="M0 0v1055h1055v-1055h-1055z" />
<glyph unicode="&#xfb01;" horiz-adv-x="1390" d="M16 743v308h119v182q-4 134 46.5 244t152.5 176.5t239 66.5q104 0 182.5 -51.5t78.5 -150.5q0 -76 -49 -122t-126 -46q-63 0 -110 42t-47 105q0 47 25 77.5t71 57.5q1 6 1 10t-0.5 6.5t-4.5 3.5t-5 1h-7.5h-8.5q-76 0 -120.5 -55.5t-44.5 -133.5q0 -66 29.5 -115 t76.5 -73.5t96.5 -35t96.5 -7.5v-62h-187v-1171h-373v743h-131zM872 1454q0 86 61.5 147.5t147.5 61.5t147.5 -61.5t61.5 -147.5t-61.5 -147.5t-147.5 -61.5t-147.5 61.5t-61.5 147.5zM895 0v1051h373v-1051h-373z" />
<glyph unicode="&#xfb02;" horiz-adv-x="1413" d="M16 743v308h119v182q-4 134 46.5 244t152.5 176.5t239 66.5q104 0 182.5 -51.5t78.5 -150.5q0 -76 -49 -122t-126 -46q-63 0 -110 42t-47 105q0 47 25 77.5t71 57.5q1 6 1 10t-0.5 6.5t-4.5 3.5t-5 1h-7.5h-8.5q-76 0 -120.5 -55.5t-44.5 -133.5q0 -66 29.5 -115 t76.5 -73.5t96.5 -35t96.5 -7.5v-62h-187v-1171h-373v743h-131zM918 0v1700h372v-1700h-372z" />
</font>
</defs>
</svg>
