<?xml version="1.0" standalone="no"?>
<!DOCTYPE svg PUBLIC "-//W3C//DTD SVG 1.1//EN" "http://www.w3.org/Graphics/SVG/1.1/DTD/svg11.dtd" >
<svg xmlns="http://www.w3.org/2000/svg">
<metadata></metadata>
<defs>
<font id="letterineregular" horiz-adv-x="1185" >
<font-face units-per-em="2048" ascent="1638" descent="-410" />
<missing-glyph horiz-adv-x="614" />
<glyph horiz-adv-x="0" />
<glyph horiz-adv-x="682" />
<glyph unicode=" "  horiz-adv-x="614" />
<glyph unicode="&#x09;" horiz-adv-x="614" />
<glyph unicode="&#xa0;" horiz-adv-x="614" />
<glyph unicode="!" horiz-adv-x="491" d="M45 219q0 31 1 61.5t3 55.5t18 48.5t46 39.5q9 0 38.5 -0.5t43 -1.5t35.5 -4t38.5 -11t30.5 -20q4 -7 20.5 -32t23 -39.5t12.5 -36.5t-3.5 -39.5t-32.5 -32.5q-64 -75 -120 -82q-30 5 -48 9.5t-43.5 14.5t-41 27.5t-21.5 42.5zM55 545l6 700q3 22 30.5 28.5t35.5 18.5 q23 -16 61.5 -21t70.5 -4t64 -12.5t48 -44.5q-1 -36 -17.5 -284.5t-9.5 -380.5q-36 -15 -81 -21t-101.5 -9t-85.5 -7zM118.5 1007q5.5 -82 14 -208.5t0.5 -208.5q26 10 52.5 6.5t55.5 -1t42 20.5q1 16 8.5 226.5t27.5 310.5q-5 33 -27 45t-49.5 7.5t-57.5 -4.5t-52 9 q-20 -121 -14.5 -203z" />
<glyph unicode="&#x22;" horiz-adv-x="860" d="M109.5 1215.5q6.5 41.5 17 73t12.5 73t-16 74.5q4 16 15.5 30.5t29.5 30.5t27 27q-44 7 -52 71q21 16 83.5 20t76.5 7q15 -5 32.5 -5t32.5 1t25 -9t10 -34q-16 -21 -16 -49.5t8 -53t8 -54.5t-16 -54q16 -19 20 -46.5t2 -43.5t-11.5 -52.5t-10.5 -43.5q-8 -26 -24.5 -50 t-29 -37.5t-38.5 -37.5q-16 8 -64 13.5t-80.5 21.5t-37.5 53q-10 33 -3.5 74.5zM272 1147h17q5 8 15.5 24.5t16 26t14 27t8 26.5t-2.5 25zM454.5 1101.5q-2.5 35.5 4.5 64t15 67t9 63.5q0 5 2.5 50t3.5 58.5t6 51t10.5 56.5t16.5 45t25 45q28 -3 61.5 -1t62 5t52.5 -10 t35 -46q-8 -55 -15.5 -233t-35.5 -273q-27 -15 -57.5 -17t-56 4t-57.5 9t-61 -2q-18 28 -20.5 63.5z" />
<glyph unicode="#" horiz-adv-x="1249" d="M4 304q0 3 2 7q7 9 29 98.5t14 100.5q-2 6 3.5 15t25.5 18t51 12q10 0 68.5 -14t76.5 -4q20 12 35.5 55t26 90.5t12.5 52.5q4 10 -18 16q-17 6 -125 18q-73 9 -73 22q0 1 1 2q33 59 70 170q3 5 82 -13t82 -12q30 71 31 144t10 106q-10 18 12 40t47 25q11 1 29 3t32 4 t32.5 3.5t31 0.5t27 -5t20 -13.5t10.5 -23.5t-2 -36q-17 -45 -15.5 -119t-13.5 -152q-2 -9 7 -12.5t27 -2.5t41 3t48.5 3.5t51.5 -1.5q13 57 17.5 105.5t3.5 116t-1 79.5q-10 9 10 15.5t54 12t43 9.5q15 6 37.5 18.5t35 18t25.5 5.5t19 -16t7 -50q-3 -46 -23.5 -133.5 t-25.5 -167.5q8 -6 54.5 -0.5t110 5.5t77.5 -14q5 -5 5.5 -20.5t-1.5 -39.5t-4.5 -47.5t-6 -53.5t-5.5 -50q-1 -7 -133.5 1.5t-133.5 -1.5v-82q-1 -8 -8 -41t-10 -52t2 -31q18 -6 33 -5.5t48.5 5.5t41.5 6q14 2 29 1.5t29 -2.5t25 -4.5t17.5 -6.5t5.5 -7q-6 -38 -12.5 -91 t-10 -88t-3.5 -40q-1 -10 -25.5 -9.5t-58 7t-68 12.5t-56.5 7.5t-24 -7.5q-13 -57 -41 -241q-2 -12 -4 -26t-2.5 -20t-2 -14t-4 -9t-8 -5t-13 -2t-19.5 0q-27 -15 -95 -11t-97 27q12 28 22 143.5t21 143.5q-2 19 -4 18q-1 -1 -3 -7q2 6 5 26q3 14 -47.5 16t-124.5 -8 q-16 -2 -21.5 -14t-10 -41t-11.5 -49q-10 -20 -26 -87.5t-35.5 -126t-43.5 -73.5q-13 9 -56 21.5t-86 31t-65 45.5q19 25 32.5 150.5t31.5 150.5q4 14 -22 12q-11 0 -103 -20q-76 -17 -76 3zM84 348q1 -2 31.5 2.5t61.5 9.5t34 2q6 -9 17 -18.5t18 -15.5t6 -11l-14 -86 l-41 -204q55 -5 129 -54q10 49 67.5 242.5t63.5 296.5q55 -9 131 696q0 -5 -2.5 -6t-7 0t-12 3.5t-17 5.5t-22.5 5.5t-28.5 3t-33.5 -2.5q-8 -4 -10 -66t-6.5 -144t-18.5 -122q-1 -5 -94 5.5t-94 6.5q-2 -8 -14.5 -21.5t-21.5 -23.5t-11 -23.5t16 -21.5q6 -4 82 -12.5 t82 -12.5q11 -6 19 -20.5t10 -25.5l2 -11q5 1 -16 -58q-55 -156 -58 -174q-1 -12 4 -10q-1 -3 -56.5 4t-58.5 0q-1 -3 -18 0.5t-42.5 4t-41.5 -10.5q-21 -10 -30.5 -66t-4.5 -67zM530 506q19 9 37 9.5t32.5 -4t45 -13t60.5 -13.5q5 7 10.5 19.5t9.5 24t8.5 29t6.5 27.5 t5.5 27t4.5 21q2 20 1 23.5t-4.5 13.5t-5.5 24l-163 15q-4 -11 -8.5 -21.5t-6.5 -17.5t-6 -23q-2 -9 -9.5 -42t-12 -57.5t-5.5 -41.5z" />
<glyph unicode="$" horiz-adv-x="1253" d="M46.5 931q-19.5 73 0.5 142q38 78 96.5 142t144 106t177.5 35q12 20 18 44.5t4 55.5t-4 48.5t-9.5 54.5t-8.5 43q10 10 23 8t21.5 -8t21 -13.5t22.5 -9.5q21 -12 63.5 -12.5t75.5 -9.5t47 -41q4 -21 1 -49.5t-8.5 -53.5t8 -41.5t51.5 -15.5q22 -8 68 -13.5t78 -18 t48 -42.5q-2 -17 -5 -71t-11.5 -88.5t-28.5 -61.5q-24 0 -52 4t-48 8t-52.5 12t-48.5 11q-7 -13 -11.5 -29t-6.5 -41.5t-2.5 -36.5t0 -47.5t0.5 -40.5q117 -3 226 -77t171 -185q38 -135 29 -227h-80q21 89 -6 184q-20 46 -54 83t-83.5 65t-86.5 44.5t-96 38.5 q-24 -43 -21 -74t21 -47.5t47.5 -32.5t57.5 -28t53 -35.5t33 -54.5q3 -10 4.5 -20t2 -18t-2 -19.5t-3.5 -17t-6 -18.5t-6 -16t-7.5 -17t-6.5 -15l-100 -2q5 7 19.5 29t23.5 32q13 24 10 43.5t-11.5 31t-25.5 23t-33 19t-34.5 19.5t-28.5 24l12 -221h-309q28 10 43 47l25 209 q-17 16 -54.5 14.5t-48.5 22.5q-74 -24 -154 5t-128 89q-45 59 -64.5 132zM111 956.5q1 -27.5 14 -49.5q12 -45 38 -73t64.5 -39t74.5 -15.5t87 -8t82 -9.5l8 117l-117 6q-104 55 -108 125q18 85 102 143q8 14 27 19.5t35.5 5t29 9t11.5 30.5q13 50 -45 65 q-175 -56 -269 -186q-3 -9 -15 -43.5t-16 -51.5t-3 -44.5zM226 276q5 26 15 69t13 67h137q19 -3 37 0h309l2 -27q36 -3 66 27h100q-1 -2 -6 -17q-36 -50 -74.5 -78t-91.5 -24v-80q38 -5 79.5 3.5t63 17.5t70.5 35t62 32q40 43 57 111h80q-10 -100 -72 -162q-21 0 -42 -21.5 t-42.5 -38t-48.5 -6.5q-17 -25 -48.5 -35.5t-60.5 -10.5t-60 -7.5t-46 -26.5q-4 -42 -7 -64t-14 -54.5t-28 -55.5q-25 18 -70 21t-83.5 10.5t-57.5 36.5q-5 23 -0.5 48t-3 48t-33.5 27q-77 -27 -160 35q-29 26 -38 60t-4 60zM254 412v18q15 7 34 7t34 -4t36 -10.5t33 -8.5z M299 236q11 -22 33 -29.5t55 -8.5t47 -5q22 14 28.5 49.5t-3.5 64.5q-78 -3 -133 21zM342 993q10 -8 21.5 -12.5t27 -6t25 -2t29 0t26.5 0.5v123q-43 -1 -78.5 -30t-50.5 -73zM543 1458h10q2 4 9.5 9.5t11 11t-0.5 14.5q-7 -3 -16 1.5t-14 4.5v-41zM645 1298h6v21h-6v-21z M714.5 1209q-0.5 -21 12.5 -29t35 -13t44.5 -6t44 -6.5t32.5 -15.5q22 19 27.5 56t-5.5 67q-8 8 -31 7.5t-32 8.5q-14 5 -49 5t-45 15l-15 -36q-18 -32 -18.5 -53z" />
<glyph unicode="%" horiz-adv-x="1519" d="M105 1150.5q0 25.5 3 67.5t3 62q24 39 24 55q47 78 125 116t172 30l64 -19q142 -146 125 -329q-53 -101 -85 -139q-46 -54 -106 -76q-31 -3 -60.5 1.5t-62 21.5t-50 27.5t-56 38.5t-49.5 35q-25 21 -36 52t-11 56.5zM146 -76.5q-2 12.5 6.5 33t27.5 49.5q88 109 447 680 t450 680q25 22 58 72t66 86t73 45q8 -15 2 -32t-21 -32q14 -2 49.5 -4.5t55.5 -5.5t42 -17.5t30 -39.5q-31 -20 -181.5 -239.5t-301 -440.5t-181.5 -242q-375 -564 -381 -582q7 -29 -27.5 -47t-70.5 -12q-17 5 -40 8t-38.5 4.5t-32 5.5t-23.5 11t-9 19.5zM172 1260 q-17 -107 64 -197q89 -107 130 -55q37 49 15 188q-4 22 6 58t22.5 68.5t21 62.5t0 48t-39.5 17q-41 -3 -75 -19.5t-61 -46t-44.5 -57t-38.5 -67.5zM283 35q11 -5 17 -14t8.5 -15.5t9 -9.5t22 4.5t43.5 26.5q19 -3 50.5 42.5t59 102t52 105t30.5 49.5q-2 1 5 13.5t24 37 t34 48.5t45.5 63t47.5 64.5t51 68.5t45 61q15 22 41 56q38 51 34 56q-1 1 -3 1q19 9 67.5 77t87.5 132l38 63l104 166l180 199l-98 43l-111 -45q9 9 7 -6q-7 -46 -62 -158q-59 -124 -85 -118q-4 1 -7 5q-8 8 -25 -8t-44.5 -58.5t-54.5 -87t-72.5 -120t-80.5 -131.5 q-14 -22 -54 -61t-54 -60q-49 -81 -80 -131q-7 -12 -16.5 -45t-16.5 -45q-114 -192 -239 -371zM305 -53l19 -6l6 26zM600 545q4 0 28 8t45.5 12t47.5 -2q-52 -22 -121 -18zM911 154q-2 14 1.5 32t9 34t17.5 37t20.5 35t24.5 36t23.5 31.5t23.5 29.5t18 23q122 73 264 18 l35 -37q141 -239 88 -323q-18 -8 -31 -37q-5 -2 -31.5 -13t-45 -18.5t-50 -19t-55.5 -18t-50.5 -12t-47 -5t-33.5 7.5q-58 33 -111 87.5t-70 111.5zM965 201q5 -12 16 -48q37 -122 62 -142q17 -13 34 5q12 13 35.5 77t50.5 83q19 25 51 74t55 84.5t29 38.5q-9 22 -22 33 t-31 11t-31 -2.5t-38.5 -10.5t-36.5 -11q-46 -12 -108 -79.5t-66 -112.5zM1130 1249l11 22t15 28t16 25t20.5 23.5t22 14t27 5.5t30.5 -11q-16 -19 -31 -27.5t-43 -26t-68 -53.5z" />
<glyph unicode="&#x26;" horiz-adv-x="1628" d="M28.5 501q-0.5 18 1.5 45.5t10.5 47.5t24.5 43t39 43l181 151q-6 30 -44.5 68t-47.5 62q-77 106 -89 231q47 135 153 236.5t239 119.5q28 -9 65 -9t71 4t62.5 -10t38.5 -50q1 -10 -7 -28t-6.5 -31t23.5 -21q26 5 48 -21v-14q-6 1 -18 7t-21.5 10.5t-19 1.5t-13.5 -19v-51 q-68 15 -138.5 -9.5t-115.5 -84.5q-19 -15 -28 -33t-7.5 -40t5.5 -38t12.5 -42t11.5 -38q26 7 43 -4t24 -29t19 -34t26.5 -19.5t46.5 15.5q4 -4 12 -11.5t11.5 -11t7.5 -10.5t6 -15q-23 -21 -29 -59t0.5 -76t9 -76.5t-3.5 -66t-38 -40t-92 -1.5q-14 -17 -22.5 -28.5t-18 -29 t-13.5 -32.5t-2.5 -33.5t9.5 -36.5q15 -27 38 -45.5t59 -29t57.5 -15t66.5 -10.5q90 42 151.5 92.5t81.5 124.5q-15 7 -49 12.5t-61.5 16.5t-42.5 34q-2 36 19.5 62.5t59 52.5t52.5 45q109 -21 182 -6q1 8 17.5 96t9.5 133q8 10 14.5 14.5t13.5 2.5t10.5 -3.5t13.5 -9.5 t13 -10q21 0 65 19.5t70 11.5q36 -186 17 -313l20 -23q50 -9 95 0t98 7.5t84 -27.5q-1 -20 -11 -88.5t-4 -108.5q-44 -20 -98.5 -20.5t-121.5 7.5t-105 7q-9 -2 -37 3.5t-45 2.5q-39 -50 -84 -164q-8 2 -18.5 -4.5t-16.5 -9t-16 7.5q-110 -121 -268.5 -174t-329.5 -43 q-118 15 -221.5 71t-155.5 152q-4 14 -15 48.5t-15.5 50.5t-11.5 47.5t-7.5 49.5zM90.5 507.5q-0.5 -26.5 6 -47.5t14 -50t8.5 -50q22 -51 60 -90t92.5 -66t97.5 -42.5t106 -32.5q167 15 299 61t227 144q0 6 -2.5 19t-3 21.5t4.5 18t18 15.5q34 10 60.5 44.5t52 76 t51.5 59.5q33 -38 95 -51t122 -9t125 -2q1 13 9 34.5t10.5 33t-5.5 29.5q-28 0 -91.5 6.5t-109.5 4t-82 -19.5q-4 7 -16.5 17t-18.5 19.5t-1 21.5q0 4 1.5 8t3.5 6.5t6 5t5.5 3.5t7 4t6.5 3q1 4 8 42.5t8 52t3.5 43t-1.5 51.5t-12 43q-57 11 -82.5 -14t-25.5 -63t-2 -88 t-15 -73q-20 -21 -36.5 -24t-40.5 8q-10 1 -37 4.5t-43.5 4t-38.5 -1.5t-37.5 -12.5t-24.5 -29.5q33 0 62.5 -16.5t36.5 -40.5q4 -13 6 -26t2.5 -21.5t-2 -22t-3.5 -18.5t-6.5 -22.5t-6.5 -22.5q-76 -98 -173 -155t-198 -32q-49 20 -80.5 36.5t-68.5 49.5t-54 74 q-9 15 -12.5 31t-0.5 35.5t6.5 32.5t12 36t10.5 31q2 3 12 19.5t15.5 24t17 20t21.5 16.5t25.5 4.5t31.5 -6.5q18 0 26.5 11t9 24t-0.5 30t0 23q-28 -1 -69 4t-72 9.5t-68.5 2t-66.5 -15.5q-32 -37 -58 -29q-7 -39 -59 -89.5t-64 -84.5q-13 -23 -13.5 -49.5zM330 1128 q5 -23 26 -28l-10 65q-21 -14 -16 -37z" />
<glyph unicode="'" horiz-adv-x="481" d="M70.5 1147q3.5 13 12 36t11.5 34q-3 49 25 155.5t12 163.5q-30 -15 -37 -6q-8 24 21 37q112 -52 254 12q23 -23 25.5 -55.5t-7 -60t-20 -65t-9.5 -63.5q-1 -17 -3 -66.5t-4.5 -76.5t-11 -65.5t-22.5 -65.5q-41 -3 -115 9.5t-108 10.5q-17 16 -22 34.5t-1.5 31.5z M166 1176q18 -22 47 -28t53 5q25 53 32.5 168.5t25.5 163.5q-9 5 -63 7t-73 24q8 -62 -8.5 -176.5t-13.5 -163.5z" />
<glyph unicode="(" horiz-adv-x="696" d="M119 446q-107 541 153 940q27 14 57.5 47t61.5 61t66 36q15 -10 49.5 -25t59 -27.5t44.5 -38.5t19 -61q-41 -94 -170 -241q-32 -86 -44.5 -122.5t-28 -108t-15.5 -132.5q-16 -17 -16.5 -35.5t6.5 -42t6 -39.5q-16 -47 -17 -105t5.5 -99t21.5 -112.5t20 -104.5 q16 -1 18.5 -19.5t-5.5 -28.5q-19 -19 -43 -26.5t-41.5 -6.5t-48.5 5t-46 4q-48 52 -72 119.5t-40 162.5zM156 750q11 -61 17 -168t20 -190t49 -148q48 -20 94 -6q-48 187 -55 311q31 349 49 469q27 27 43 73t34 86t54 62q1 24 18 45.5t35.5 35t31 36t7.5 49.5q-4 24 -22 29 t-38 -0.5t-38 2.5q-102 -67 -171.5 -183t-99 -242.5t-28.5 -260.5z" />
<glyph unicode=")" horiz-adv-x="696" d="M150 1386q-6 30 13 49.5t54 37t47 30.5q26 16 49 16.5t43 -13.5t35 -29.5t34 -38.5t30 -33q50 -68 79.5 -155.5t39.5 -169t7 -182.5t-11 -176.5t-20 -171.5q-2 -13 -3 -20q-21 -39 -37.5 -98t-26 -105t-36.5 -96.5t-70 -83.5q-82 37 -160 103q-12 33 -0.5 72.5t29 66.5 t37.5 65.5t26 69.5q22 104 24 219t-15.5 229.5t-60.5 223t-107 190.5zM231 1368l15 -35l-2 21zM311 350l13 2q18 10 10 37q-12 -1 -19 -14.5t-4 -24.5zM373 256l16 2q1 3 5.5 12.5t4.5 12.5t-2 12q-14 3 -16.5 -4.5t-2.5 -19t-5 -15.5zM377 1335q33 5 33 27l-17 12z" />
<glyph unicode="*" horiz-adv-x="890" d="M-7.5 1404.5q0.5 28.5 5.5 49.5q27 10 68 7t67.5 -9.5t67 -16.5t65.5 -14q5 21 6 88t16.5 109t59.5 57q17 -1 42 -0.5t48 0t39 -15t15 -45.5v-160q40 -6 84 13.5t90.5 45t81.5 29.5q2 -21 25 -75t21.5 -92t-46.5 -64q-115 -52 -150 -72q21 -19 67.5 -41t81.5 -46.5 t48 -61.5q-15 -9 -31 -29.5t-28.5 -38.5t-27 -32t-34 -11.5t-43.5 25.5q-12 23 -32.5 37t-39.5 19t-41 16t-35 28q-28 -10 -59 -54t-55 -46l-13 -29q-43 0 -125 -35t-137 -25q-25 24 -29 49t9 48.5t30.5 45t36.5 47.5t25 46q-16 12 -44 17.5t-49.5 7.5t-41 18.5t-25.5 48.5 q-1 18 -5.5 53.5t-6.5 57.5t-1.5 50.5zM66 1378l8 -135l149 -10q37 -21 45.5 -44.5t-6.5 -46.5t-35.5 -44.5t-39.5 -47t-21 -46.5q80 7 138 46t120 115q-11 62 35 86l-43 357l-47 6q-22 -25 -26 -64.5t2.5 -74t3 -75t-24.5 -67.5q-34 17 -79 25t-99 11.5t-80 8.5zM713 1386 h6l8 7q-8 6 -8 20h-6v-27z" />
<glyph unicode="+" horiz-adv-x="1105" d="M84 507.5q-1 25.5 0.5 45t8.5 50.5t11.5 45t16 49.5t14.5 45.5q30 30 72 36.5t109 -1t92 -6.5q5 -6 13 -7.5t18 -0.5t14 0q25 125 63 346q27 -2 70.5 7.5t72 14.5t74.5 -8l31 -71q-20 -70 -15 -157.5t35 -145.5q26 -2 54.5 0t59 -0.5t56.5 -8.5t47.5 -24t30.5 -47 q-9 -14 -22.5 -55t-32 -63.5t-53.5 -25.5q-51 -12 -91 -8.5t-89 0.5t-82 -22l30 -326l-22 -35q-29 5 -76.5 -6.5t-84 -23t-75 -1t-61.5 53.5q25 39 30 100.5t-0.5 112t5.5 104.5q-37 2 -150 -14.5t-166 -1.5q-7 23 -8 48.5zM164 526l108 15q24 -3 55.5 3t55 13t50.5 6 t48 -16q8 -63 -7.5 -194.5t-14.5 -182.5q25 3 77 16t82 15q18 41 16.5 94t-10.5 92t-17 93t-3 98q8 20 24 20.5t37.5 -7.5t32.5 -7q24 6 62.5 7t74.5 -0.5t69 14.5t46 50q-48 20 -151 26.5t-144 18.5q-16 0 -58 -24.5t-65 -5.5q-39 -12 -105 12t-103 18q-20 -22 -62.5 -12 t-60.5 -12q-23 -28 -32.5 -70t-4.5 -80zM550 1084q-6 -13 6 -31t17 -36t-6 -28q20 16 12.5 54t10.5 55q-34 -1 -40 -14z" />
<glyph unicode="," horiz-adv-x="542" d="M45 27q0 22 17 34.5t44 23.5t39 21q-45 20 -69 63t-23.5 90t15.5 93q7 20 24 34.5t34.5 21.5t34 20.5t21.5 32.5q7 -1 34.5 -5.5t36 -6t32.5 -6.5t33.5 -8.5t30 -11t30.5 -14.5t26 -17.5t26 -22.5t21 -28t19 -34q6 -54 -11.5 -103t-54 -108.5t-49.5 -89.5 q-14 -33 -27 -56.5t-33 -49.5t-47 -40t-59 -14q-140 66 -145 181zM116.5 234q0.5 -15 6 -24.5t16.5 -16.5q28 -22 47.5 -17t38 18.5t33 27.5t32.5 10t36 -33q-21 -65 -73.5 -115.5t-119.5 -65.5q-38 -29 12 -84q37 -46 109 7q11 17 42.5 64.5t46 72.5t35 65.5t29 77.5 t7.5 74q-24 37 -60 62.5t-75 31.5q-9 -16 -33 -23t-47.5 -8t-45 -14.5t-28.5 -42.5l-4 -20q-4 -20 -4.5 -26t0 -21z" />
<glyph unicode="-" horiz-adv-x="849" d="M92 383q16 32 19 81.5t0.5 91t9.5 85t43 68.5q42 -30 146 -43.5t145 -36.5q30 -4 83.5 1t98.5 2.5t80 -24.5q13 -40 -3 -123t3 -129l-31 -30q-81 -9 -122 -7.5t-116.5 7.5t-123.5 6l-27 14q-23 7 -55 4t-61 -9.5t-54.5 3t-34.5 39.5zM180 428q34 -10 64 -7t66.5 -1 t58.5 -23q46 13 137 3t137 3q-1 24 15 73t8 81q-76 -4 -242 18.5t-223 24.5q-27 -83 -21 -172z" />
<glyph unicode="." horiz-adv-x="542" d="M119 178q-40 82 14 205q23 35 56.5 53.5t95 34t77.5 21.5l-49 -31q5 -19 18 -19.5t26.5 5t29.5 -6.5q95 -70 64 -239q-13 -10 -56 -49.5t-76 -59t-71 -22.5q-86 27 -129 108zM277 312.5q-3 -10.5 8 -17.5q3 3 12.5 6t14.5 7.5t1 13.5q-6 10 -22 10q-11 -9 -14 -19.5z M336 221h24q7 3 6.5 12t0.5 15q-9 0 -19 -9.5t-12 -17.5zM385.5 263.5q-1.5 -21.5 7.5 -34.5q29 13 21 35q0 31 -15 31q-12 -10 -13.5 -31.5z" />
<glyph unicode="/" horiz-adv-x="661" d="M-81.5 -197q1.5 24 13.5 62q57 129 257 772.5t260 773.5q18 28 37 85.5t41.5 100.5t58.5 62q23 -20 -2 -68q13 2 48.5 9t55 9t44 -6t38.5 -30q-29 -33 -201 -530.5t-200 -532.5q-215 -639 -217 -660q14 -26 -15 -53t-65 -30q-20 0 -47.5 -3.5t-44 -6t-33.5 -0.5t-23.5 12 t-5 34zM70 -160h18v27zM526 1317q68 16 113 51q-21 2 -45.5 -10t-44 -26t-23.5 -15zM528 1313q4 34 52 75t59 64q-12 6 -23.5 3t-20 -4t-16 -9.5t-13 -14t-10.5 -17.5t-8.5 -19.5t-6.5 -20.5t-5 -20.5t-4.5 -19.5t-3.5 -17zM672 1470l14 -8l23 41l-9 2z" />
<glyph unicode="0" horiz-adv-x="995" d="M59 362q-41 257 43.5 488.5t282.5 359.5q141 52 287 0.5t227 -182.5q9 -61 12.5 -100.5t2.5 -95.5t-16 -104t-44 -87q-12 -81 -30 -148t-48.5 -136.5t-80 -125t-115.5 -92.5q-54 -21 -93 -30.5t-91 -5t-89 35.5q-46 2 -85.5 27t-60.5 52.5t-53 75t-49 68.5zM125 362 q6 -7 30.5 -31t38 -42.5t19.5 -40.5q3 -1 24.5 -12t26.5 -13.5t24.5 -12t27.5 -12t26 -9.5t28.5 -8.5t27.5 -5t29.5 -3.5t28.5 0.5t31 3.5q80 29 152 89t106 134q7 54 26.5 121t38.5 118t36 118t18 122t-16 130q-9 19 -22 35t-33.5 32.5t-31 24.5t-39.5 26t-34 21 q-101 67 -289 -25q-170 -120 -238 -324.5t-36 -435.5z" />
<glyph unicode="1" horiz-adv-x="786" d="M4 920.5q7 28.5 9 65.5t-7 75q72 -1 158 27t154.5 63.5t154.5 70.5t154 44l22 -35q6 -53 0 -101t1.5 -102.5t35.5 -89.5q-5 -92 -18 -248.5t-20 -284.5t-3 -247q-35 -9 -75 -16.5t-68.5 -11t-78 -8.5t-77.5 -9q-21 18 -29.5 47.5t-7 50t8.5 63t8 54.5q6 55 39.5 248 t35.5 305q-226 -44 -362 -93q-27 34 -34.5 69t-0.5 63.5zM381 184q37 -7 100.5 14t96.5 7q15 83 22.5 188.5t8 173t-1 202.5t-1.5 177q-28 3 -72.5 -11t-68.5 -13q1 -136 -38.5 -384t-45.5 -354zM555 1178l20 -17v17h-20z" />
<glyph unicode="2" horiz-adv-x="970" d="M57.5 209.5q7.5 31.5 24 51.5t37.5 48.5t26 50.5l72 52q27 31 79.5 84.5t89.5 94t75 94t55 112.5t10 121q-25 18 -60 19t-62 -6.5t-69 -22t-61 -19.5q-31 -32 -49.5 -49.5t-48.5 -37t-61 -28.5q-15 26 -15.5 58t8 60.5t12 64.5t-4.5 69q-10 13 -8 30.5t7 28.5t13.5 28 t11.5 28q4 12 17.5 22t24 15.5t17.5 19t-1 31.5q82 49 183.5 62.5t202 -14t171.5 -93.5q41 -37 55.5 -83.5t6 -90t-19.5 -94.5t-20 -96.5t4 -96.5q-3 -8 -28 -53.5t-23 -75.5l-145 -160q29 -10 88 -10h65q6 -1 18 -2t20 -1.5t20.5 -2t20 -3.5t19 -5.5t16.5 -8t12.5 -11 t8.5 -15t3.5 -19.5t-3.5 -24q-2 -19 -5 -58t-7.5 -69t-13.5 -55q-58 -23 -145.5 -27t-156.5 0.5t-147 -8.5q-52 -12 -114 -7t-105 14t-106 28q-22 28 -14.5 59.5zM186 918q68 58 159 86.5t175 13.5q18 -4 34.5 -20t24.5 -29.5t21 -38.5q10 -64 -3 -124t-46.5 -114.5 t-67.5 -98t-82 -100.5t-75 -96q61 27 97 45t88 49.5t85.5 61.5t67 74.5t53.5 95.5q-9 36 -7 73t12.5 69t20 66.5t15.5 64.5t-2 62.5t-33 61.5q-104 98 -311 109q-1 -30 -17.5 -43t-37.5 -12.5t-45.5 -5t-37.5 -21.5q-40 -12 -60.5 -38.5t-22.5 -57t-3 -66.5t-2 -67z" />
<glyph unicode="3" horiz-adv-x="970" d="M51 299q-28 112 37 164q6 3 21.5 12.5t25 13.5t24 8t27.5 1t25 -13q1 -19 10 -38t15.5 -27.5t27.5 -29.5l25 -25q38 -19 90 -19t90 19q42 39 57.5 91.5t-0.5 108.5q-22 25 -60 35t-76.5 11.5t-76 6.5t-65.5 27t-37 66q4 16 5 53.5t8.5 64t29.5 41.5q36 -24 85.5 -29 t113.5 -1.5t96 0.5q4 16 16 40.5t20.5 41.5t8.5 40.5t-16 43.5q-33 39 -72.5 53.5t-87.5 -2.5q-18 -2 -44.5 -14.5t-46.5 -22t-44.5 -6t-44.5 27.5q2 44 17 106t19 83q-4 3 -11.5 -1t-15 -9.5t-15 -9.5t-13.5 0.5t-8 19.5q9 19 23.5 34t39 25.5t39 15.5t48 13.5t42.5 11.5 q10 0 46 0.5t49.5 0t43 -2.5t46.5 -5.5t39 -11t39 -18.5q38 -44 57.5 -68t51 -68t48 -77t30 -78.5t15.5 -89.5q12 -29 7 -51.5t-18 -43t-31.5 -37t-33.5 -34.5t-24 -35t-3 -38.5t30 -44.5q117 -312 -29 -475q-17 -37 -44 -61.5t-72.5 -37.5t-72 -17.5t-85.5 -10.5 q-11 -1 -17 -2q-122 21 -234.5 95t-189.5 179zM121 359q-1 -16 4.5 -30t14 -27t21 -26.5t23.5 -24t25 -24t22 -22.5q55 -32 97.5 -52t99 -38t112 -13.5t105.5 31.5q28 12 51 37t35 47.5t30 61t27 55.5q7 31 7.5 63.5t-3 59t-12.5 59.5t-16.5 54t-20.5 53q-93 37 -200 43 q3 -6 28 -45t29 -64q0 -5 -2 -34.5t-3.5 -41.5t-5 -39t-9.5 -43t-15 -37.5t-22.5 -38t-30.5 -30.5q-76 -46 -186 -25q-25 7 -48.5 23.5t-38 32t-38 42.5t-35.5 40q-20 6 -37 -15q-7 -16 -8 -32z" />
<glyph unicode="4" horiz-adv-x="1044" d="M31 391q30 75 87 163.5t109 155.5t104 155t75 167q16 29 51 78.5t59 91.5t35 84q22 18 81.5 2t84.5 -8q28 15 60 7.5t44.5 -30.5t-2.5 -55q-31 -76 -74.5 -159t-100 -180.5t-85.5 -153.5q30 -15 45.5 -7.5t40.5 20.5t45 9h258q16 -33 15 -126t16 -126v-5q0 -17 -0.5 -26 t-3 -22.5t-9.5 -22t-18 -12.5q-18 -2 -57 -5t-58 -5t-49.5 -7.5t-58.5 -13.5q-11 -37 -9.5 -88t7.5 -97.5t-13 -83.5t-71 -46q-31 10 -68 4t-68 -18t-65 -9.5t-59 29.5l27 309q-14 8 -32 8t-33.5 -4t-36.5 -10t-34 -8q-29 4 -65.5 1t-69 -8.5t-62 6.5t-42.5 46zM236 588 q11 6 17.5 19t2.5 22q-13 -1 -19 -14t-1 -27zM371 449l92 14q23 -31 24.5 -67t-10 -65.5t-17 -66t2.5 -67.5q3 -13 -2.5 -28t-12.5 -25.5t-6 -24t15 -25.5l196 15q6 19 10 39.5t6.5 33.5t3.5 39.5t1 34.5v42.5v41.5l-21 14q-2 5 -9 19.5t-9.5 23t-4 20.5t4 21.5t18.5 16.5 q30 -15 66.5 -15.5t65.5 7.5t65.5 15.5t62.5 6.5l-6 182l-176 8q-46 -25 -146.5 -40.5t-111.5 -18.5q-102 -74 -102 -151zM674 1049l6 -7q14 4 18.5 24.5t12.5 27.5z" />
<glyph unicode="5" horiz-adv-x="903" d="M63 227q1 33 14.5 65t40.5 62t45.5 47t49.5 43q25 -6 67.5 -28t73 -37t68 -11t65.5 40q15 34 15 81t-15 78q-20 8 -62.5 29.5t-71 32.5t-67 21t-75 3.5t-70.5 -28.5q-7 3 -28.5 7.5t-33.5 12.5t-16 25q0 75 37.5 230t26.5 247l-23 14q9 50 35 77.5t64 33.5t76 5t83.5 -1 t73.5 8q27 4 51.5 -1.5t51.5 -17.5t43 -16q22 0 50.5 -0.5t53.5 -1.5t49.5 -11.5t40.5 -31.5q-7 -24 -6 -106t0 -103q-49 -18 -104 -21t-98 3.5t-101 13t-102 4.5l-27 -180q110 18 217.5 -5.5t169.5 -102.5q0 -25 15 -47.5t32 -37t26.5 -38.5t0.5 -52q9 -42 12.5 -76.5 t1.5 -76t-18 -77.5t-45 -64q-1 -25 -17.5 -38t-36.5 -15.5t-39 -12.5t-24 -29q-35 -7 -79 -35t-87.5 -49t-87.5 -18q-32 17 -87 33.5t-93.5 29t-78 44t-57.5 79.5zM147 272q-4 -55 31 -81.5t96 -43.5t84 -34q250 46 367 211q20 60 23 123t-18 125.5t-68 103.5 q-34 41 -87.5 55.5t-120 19.5t-102.5 19q-14 -8 -14.5 -18.5t6.5 -24.5t8 -20q12 -7 51.5 -27t60.5 -32.5t48.5 -36t42.5 -50.5q0 -2 3.5 -40t3 -52.5t-2.5 -44.5t-11 -51t-24 -37q-54 -47 -108 -47q-26 -4 -59.5 8.5t-61 27t-55 22.5t-51.5 -9.5t-42 -65.5z" />
<glyph unicode="6" horiz-adv-x="897" d="M60 443q1 13 5.5 34.5t4.5 32.5q48 69 53 102q8 46 -37 70q-10 23 -1 41t24.5 27t31 23.5t17.5 31.5q74 149 204 278.5t281 206.5q25 0 46 -8.5t38 -26t29 -33t24.5 -43t18 -41.5l16.5 -42q-62 -32 -103.5 -55.5t-95.5 -58.5t-96.5 -75.5t-73.5 -85.5q12 -39 58 -64 t94 -30q37 -17 60.5 -31.5t46 -41.5t22.5 -58q35 -28 46 -70t5.5 -79.5t-12 -92t-2.5 -90.5q-38 -75 -102.5 -135t-135.5 -68q-65 -6 -118.5 -7.5t-105 18t-93.5 63.5q-71 128 -109 266q-23 3 -32 16t-8 26zM164 373q16 -27 34 -84t42 -95.5t69 -54.5q90 -22 174 -5.5 t150 63.5q88 101 88 268q-10 15 -28.5 46.5t-31.5 50.5t-32 41t-42.5 35t-51.5 17q-28 -18 -69.5 -18t-78 10t-79 7t-72.5 -29q-35 -24 -48.5 -62.5t-17 -105.5t-6.5 -84z" />
<glyph unicode="7" horiz-adv-x="946" d="M76 1118q-8 132 82 268q70 -14 230.5 -27.5t238.5 -29.5q26 27 51 31t47.5 -8.5t44 -27.5t49 -23.5t53.5 -0.5q28 -54 34 -175.5t26 -170.5q-7 -5 -15.5 -14.5t-13 -14t-13.5 -7.5t-18 6q-135 -67 -226.5 -169t-110.5 -235q-5 -3 -15.5 -8t-18 -10t-12.5 -13 q-29 -200 -88 -360q-39 -15 -121.5 -4t-121.5 -2q-19 40 -15.5 86t16.5 81.5t37.5 79t48 78t48 78.5t37.5 80q-29 14 -78.5 19.5t-88.5 17t-63 43.5q17 88 38.5 149.5t62.5 108.5q15 -4 42 -13t44.5 -14.5t43 -12t45.5 -9t44.5 -2.5t46.5 4q22 9 39 29t34 48t29 42 q-39 27 -92.5 40.5t-95.5 4.5q-30 9 -76 10t-82.5 0t-77.5 9.5t-69 37.5zM158 1169q9 -3 18.5 -5.5t17 -4.5t19 -3t17.5 -1.5t19.5 0t17 0t19 1t17 1.5t18.5 2l17 2q14 5 39.5 -2.5t43 -11t42.5 13.5q24 -24 55.5 -31.5t58 -4.5t58 -6t55.5 -36q-36 -110 -135 -223 q22 -12 44.5 -12t40.5 8.5t38 23t36 30t36 32.5t36 27q37 8 52.5 27.5t13 47t-10 56t-15 63t-3.5 58.5l-145 49l-14 -13q-43 5 -121 9t-125 7.5t-108 20.5t-109 47zM272 195q4 1 14.5 0t16.5 0t6 6q-3 3 -7.5 11t-7.5 10t-13 -1q-24 -18 -9 -26z" />
<glyph unicode="8" horiz-adv-x="884" d="M36.5 416.5q3.5 30.5 7 52.5t15.5 53.5t19.5 50t25.5 51t27 47.5t29.5 49t27.5 46l9 -3t10.5 -3t9.5 0t8 6q18 16 17 36t-11 34t-17.5 35.5t-2.5 39.5q1 12 3.5 70t5.5 82.5t11 69.5t23 78t37 61q47 25 97 40.5t108.5 13t99.5 -31.5q36 -23 72.5 -60.5t53.5 -60t54 -75.5 q29 -52 34.5 -122.5t-13.5 -129.5q-9 -25 -31 -39t-48 -26t-38 -29q48 -52 72.5 -132.5t23 -155.5t-13.5 -147q-67 -202 -371 -231q-50 -5 -93.5 5t-85.5 38.5t-67.5 50.5t-70.5 66q-15 29 -23.5 59t-13 55.5t-1 56zM105 365q1 -25 9 -59t32 -58.5t65 -44.5 q54 -35 124 -43.5t136 5t125 44.5q181 165 129 326q-16 77 -43.5 125.5t-85.5 70.5q-19 1 -55.5 -7.5t-64.5 -7.5t-50 21q-30 14 -59.5 3t-38.5 -46l-37 15q-39 -24 -74 -59.5t-55 -64t-51 -77.5q0 -24 -3.5 -71t-2.5 -72zM313 1135l103 86l-31 10q-8 -9 -23 -22.5 t-23.5 -21.5t-16.5 -22t-9 -30zM463 1092q12 -5 23.5 7t13.5 13q-33 0 -37 -20zM528 1128q14 0 26.5 9t16.5 22q-9 1 -17 -5.5t-15.5 -15t-10.5 -10.5zM731 1006h8q-1 2 0 8.5t-0.5 11.5t-7.5 8v-28z" />
<glyph unicode="9" horiz-adv-x="884" d="M51.5 884.5q-1.5 51.5 14.5 100t41.5 91t60.5 83.5q24 15 88.5 62t113 72.5t101.5 33.5q-24 11 -50 13t-59 0t-51 -1q-5 16 12.5 22t18.5 7q35 11 68 12.5t62.5 -7t54 -19.5t52 -32t46.5 -37t47.5 -41.5t46.5 -39.5q84 -90 63 -196q-18 -43 -12.5 -67.5t33.5 -61.5 q-4 -50 3.5 -128t7 -142t-22.5 -113q-2 -13 -5 -26.5t-6.5 -24t-10 -24.5t-10 -22t-12.5 -23t-12.5 -21t-15 -22.5t-14.5 -20.5t-16 -21.5t-15 -20.5q-5 -4 -33 -25.5t-36 -27.5t-34.5 -25t-38.5 -25t-37 -19.5t-40 -17t-39 -8.5t-42 -2.5t-40 8.5t-43 17q-12 -9 -28.5 -7 t-27 7.5t-26.5 14t-27 10.5q-24 15 -31 42t-5 66t1 50q14 18 41 21t50 0t47 7q80 30 146.5 90t90.5 134q-240 -35 -360 102q-8 26 -44 59t-44 43q-21 49 -22.5 100.5zM125 827q59 -79 140 -131.5t165 -48.5q33 -9 55.5 4.5t32.5 35t26 44.5t36 29q124 135 151 319 q-17 37 -47.5 71.5t-72.5 73t-60 58.5l-23 -37q-9 -7 -13.5 -6t-13.5 8t-14 8q-8 -3 -54 -21t-62.5 -26t-47.5 -25t-53 -36q-145 -98 -145 -320zM224.5 248q0.5 -5 0.5 -15q10 -1 21.5 12t9.5 25q-4 -2 -10.5 -4.5t-10 -4t-7.5 -5t-3.5 -8.5z" />
<glyph unicode=":" horiz-adv-x="542" d="M83.5 210.5q5.5 28.5 14 72.5t0.5 73q19 64 80 103q26 1 50.5 -5t42.5 -14t38 -27t31 -30.5t29 -39.5t24.5 -39t24.5 -42q2 -22 -5 -42.5t-24.5 -39.5t-31 -30.5t-38.5 -29.5t-32 -24q-24 0 -51.5 0.5t-51.5 1.5t-47 11t-39 30q-20 43 -14.5 71.5zM98 799q0 28 10.5 49 t30 35t39 23.5t45.5 21t41 20.5q17 6 33 5.5t29.5 -4.5t27.5 -13t24 -18.5t22.5 -23.5t19.5 -23.5t17.5 -24.5t15.5 -21q16 -23 21 -47t-4 -51t-16.5 -43t-27.5 -47.5t-25 -40.5q-53 -72 -143 -29q-15 15 -53.5 48t-57 52.5t-35 55.5t-14.5 76zM178 805q-14 -99 58 -160 q31 -25 71 -24.5t66 32.5q54 73 45 138q-16 56 -71 81.5t-111 14.5q-45 -42 -58 -82zM336 221h24q7 3 6.5 12t0.5 15q-9 0 -19 -9.5t-12 -17.5z" />
<glyph unicode=";" horiz-adv-x="542" d="M45 27q0 22 17 34.5t44 23.5t39 21q-45 20 -69 63t-23.5 90t15.5 93q7 20 24 34.5t34.5 21.5t34 20.5t21.5 32.5q7 -1 34.5 -5.5t36 -6t32.5 -6.5t33.5 -8.5t30 -11t30.5 -14.5t26 -17.5t26 -22.5t21 -28t19 -34q6 -54 -11.5 -103t-54 -108.5t-49.5 -89.5 q-14 -33 -27 -56.5t-33 -49.5t-47 -40t-59 -14q-140 66 -145 181zM116.5 234q0.5 -15 6 -24.5t16.5 -16.5q28 -22 47.5 -17t38 18.5t33 27.5t32.5 10t36 -33q-21 -65 -73.5 -115.5t-119.5 -65.5q-38 -29 12 -84q37 -46 109 7q11 17 42.5 64.5t46 72.5t35 65.5t29 77.5 t7.5 74q-24 37 -60 62.5t-75 31.5q-9 -16 -33 -23t-47.5 -8t-45 -14.5t-28.5 -42.5l-4 -20q-4 -20 -4.5 -26t0 -21zM119 670q-40 82 14 204q23 35 56.5 53.5t95 34t77.5 21.5l-49 -31q4 -15 12.5 -18t18 0.5t21.5 4t22 -6.5q95 -70 64 -240q-13 -10 -56 -49.5t-76 -59 t-71 -22.5q-86 27 -129 109zM277 803.5q-3 -10.5 8 -17.5q3 3 12.5 6t14.5 7.5t1 13.5q-6 10 -22 10q-11 -9 -14 -19.5zM385.5 755q-1.5 -21 7.5 -34q29 13 21 35q0 30 -15 30q-12 -10 -13.5 -31z" />
<glyph unicode="&#x3c;" horiz-adv-x="1327" d="M41 735q21 41 63.5 80t76 60t93.5 55q33 28 102 66t118.5 78t72.5 97q32 20 80.5 24t92 -18t51.5 -69q-11 -38 -38 -74t-55 -59t-65.5 -54t-57.5 -53q74 4 296 34t348 28q19 -25 22.5 -56t-3 -56.5t-13.5 -61t-6 -60.5q-22 -19 -55.5 -12.5t-57.5 14.5t-55 -18 q-52 -9 -219 -17.5t-248 -33.5q13 -12 58 -29t64.5 -40t0.5 -64q-15 -9 -30 -30t-25 -42.5t-24 -42t-28 -32t-36.5 -8.5t-49.5 24q-21 17 -131 90t-158 127q-40 -16 -60 -10.5t-35 29t-22.5 49.5t-25 51.5t-41.5 33.5zM442 752q-2 -28 16.5 -37t50 -10.5t44.5 -8.5 q84 14 170.5 23t205.5 18.5t173 14.5q44 -8 61.5 26t1.5 74q-63 4 -116.5 3t-115.5 -10t-113.5 -18.5t-111.5 -22.5q-21 -5 -32 -7q-51 12 -79.5 1.5t-74.5 -29t-80 -17.5zM459 504l16 -23v23h-16z" />
<glyph unicode="=" horiz-adv-x="952" d="M100 406q57 36 128 49t160.5 16.5t135.5 11.5q21 -4 59 -6t68.5 -4t63 -9.5t56.5 -27t36 -51.5q7 -27 4 -44t-16.5 -32.5t-28 -26t-29.5 -24.5t-22 -27q-47 -20 -112 -14t-111 15.5t-111 -13.5q-41 10 -119 -12t-121 -12q-24 23 -28 65t0.5 76t-13.5 70zM138.5 690.5 q3.5 32.5 12 82t1.5 81.5q-7 21 26 37q45 3 127.5 12t133 12t117.5 1t125.5 -21t111.5 -55l45 -6q14 -24 14 -47t-7 -51.5t-7 -47.5l-88 -65q-402 0 -592 -17q-23 52 -19.5 84.5zM172 348q7 -10 6.5 -37.5t7.5 -34.5q46 1 110 8.5t112 14t109.5 6t115.5 -13.5q3 1 15 4.5 t16.5 5t16 5.5t16.5 7.5t13 8.5t12 10.5t8 13t5 16.5q-36 21 -79.5 32.5t-98 12.5t-92.5 -0.5t-105 -7.5t-94 -8q-10 -3 -41 -24.5t-53 -18.5z" />
<glyph unicode="&#x3e;" horiz-adv-x="1327" d="M75 611.5q-3 27.5 8.5 52.5t23 59.5t8.5 58.5q7 26 13.5 41t21 30.5t36.5 23.5q7 -1 15 -6.5t19 -13.5q10 -8 14.5 -11t11 -5t10 2.5t4.5 16.5q13 -24 27.5 -22t24.5 14.5t27.5 24.5t35.5 8q66 3 191.5 -5.5t168.5 -9.5q6 3 10 7.5t5 8.5t0 11t-2 10.5t-3.5 11t-3.5 9.5 q-27 20 -54 55.5t-46 66.5t-51.5 62.5t-71.5 46.5q-11 24 -1 40.5t25.5 23t32.5 20t21 31.5q11 28 28 40t39 9t38.5 -9.5t39.5 -19.5q24 -13 76.5 -58t91.5 -56q12 -32 40 -62t59 -60t47 -59q10 -29 37.5 -59.5t53.5 -53t49 -54.5t26 -64q-154 -103 -290 -238.5t-233 -289.5 q-8 5 -30.5 19t-34.5 20.5t-31.5 15t-38.5 11.5t-39 1q-5 13 -18 18.5t-26 6t-23.5 8.5t-10.5 25q-2 36 12.5 68.5t33.5 53t48 50t44 49.5q-242 6 -478 -21q-28 19 -31 46.5zM532 385l152 -37q14 6 23.5 19.5t13.5 25.5t12.5 22t22.5 11q4 24 21 46.5t36 37.5t41 36t33 40 q35 48 119.5 113t111.5 104q-35 39 -91.5 112t-97 123t-103.5 106t-128 87q-15 15 -27.5 10t-18.5 -15t-15 -25.5t-16 -20.5q26 -42 75 -100.5t86.5 -102t70.5 -105t42 -120.5q-16 -51 -56.5 -90.5t-87 -65t-92.5 -51.5t-81.5 -66t-45.5 -94z" />
<glyph unicode="?" horiz-adv-x="890" d="M74 1286q3 39 18 54t38 12.5t47 -7.5t49.5 0t41.5 29q250 -16 461 -51q77 -37 68 -176q-10 -44 -2.5 -87t14.5 -88t10.5 -83t-16 -72.5t-64.5 -56.5q-27 22 -67 -25q-17 -5 -50.5 -10t-60.5 -12t-49 -21q10 -20 15.5 -42.5t9.5 -56.5t6 -44q-28 -19 -72.5 -21.5t-91 -2.5 t-74.5 -13q-36 50 -57 106.5t-23.5 119t23.5 120.5q22 26 63.5 40t81 20.5t76.5 17.5t57.5 40t16.5 79q-24 40 -64.5 61.5t-81.5 9.5q-169 -38 -245 -129q-24 -2 -34.5 13t-18 39.5t-19.5 35.5q-5 26 0.5 68t7.5 68t-14 65zM149 1200.5q3 -23.5 4.5 -48.5t-1.5 -40 q14 3 31 10t26 12t31.5 18.5l27.5 16.5q10 17 48 15.5t46 19.5q72 4 122.5 -11t78.5 -67q5 -8 20.5 -31.5t22 -37t13.5 -34t4 -39.5t-15 -38q-31 -41 -69 -59t-102.5 -29.5t-90.5 -19.5q-26 -18 -38.5 -40.5t-12 -50t5 -50t13.5 -55.5t12 -52l145 16q-1 3 0 27.5t-6 30.5 q-22 45 -16 72t24 37.5t51 15t64.5 5t64 7.5t49.5 22q32 21 43.5 65t8 85.5t0.5 81.5q-1 9 -3 44t-4 49t-6 40t-12 44t-20 34q-60 9 -207 15.5t-213 18.5q-7 -2 -46.5 -17.5t-56.5 -16.5q-23 -3 -31.5 -22.5t-5.5 -43zM248 332q-5 36 15.5 52.5t56 26.5t49.5 23q18 8 36 4.5 t31 -6.5t27 -14.5t23 -21t19.5 -25.5t17 -27t14.5 -27q7 -18 7 -36.5t-5 -33t-16.5 -32.5t-20.5 -29t-25 -28q-17 -1 -57.5 -15t-67.5 -9.5t-47 38.5q-27 21 -33 80.5t-24 79.5z" />
<glyph unicode="@" horiz-adv-x="1433" d="M35 626q-18 110 10 181q5 15 16.5 52.5t19.5 59.5t21 52.5t29 53.5t35 40q88 85 165.5 131t188.5 74q107 26 201 31t184 -12.5t170 -65.5t146 -127q69 -82 115 -179t63.5 -195.5t-13.5 -189t-112 -147.5q-59 -41 -108.5 -58.5t-116.5 -17.5q-167 0 -222 156 q-13 -17 -27 -40.5t-30 -39.5t-53 -43q-17 -20 -34.5 -23.5t-48 5.5t-40.5 10q-70 9 -127 58t-86.5 108t-42.5 123q-9 49 -11 89.5t4 71t15 53.5t27.5 41t34.5 29.5t43.5 21.5t48 16t53.5 13q13 -12 55 -7.5t70 -2.5q33 -12 58 -34t51 -55.5t40 -47.5l27 123q33 21 71 17 t74 -31q3 -29 -19.5 -116t-25.5 -108q-5 -42 2 -116t25 -105q9 -2 46 -22.5t69 -20.5q32 -1 55.5 7t39 29t25 42.5t15 63t8 73.5t4.5 90q1 12 -14.5 47t-43.5 85t-72.5 103.5t-97.5 99t-124 74.5t-146 28q-72 19 -203.5 -29t-238.5 -148q-154 -144 -147.5 -335t166.5 -351 q95 -95 142 -129q146 -108 348 -97q165 8 390 91q38 -4 64.5 -37t35.5 -69t7 -62q-4 -20 -90.5 -49t-224.5 -47t-255 -4q-304 41 -477 211q-34 18 -82.5 101t-87.5 189.5t-57 216.5zM262 248l72 -121q12 -13 117 -59t112 -50q24 -16 46.5 -26.5t37 -16.5t43 -8t37.5 -2 t49.5 2t52.5 2q25 1 66.5 1t57 1t44 5t55 13t62.5 25q20 8 50.5 10t43.5 10.5t15 35.5q2 29 -4.5 40t-25 6.5t-40 -14.5t-60.5 -25.5t-75 -23.5l-361 -8q-147 37 -229 82q-31 16 -72.5 46.5t-67.5 52.5zM395 639q6 -48 51 -124t70 -93q59 -44 106.5 -49t112.5 33 q25 18 40 44t21 69t7.5 74t1.5 93q-29 144 -127 193q-72 42 -150 20q-47 -13 -77 -39.5t-41 -61t-15 -76t0 -83.5z" />
<glyph unicode="A" d="M31 270q12 89 53 179.5t93.5 187.5t76.5 170q25 26 49 84.5t43 81.5q5 23 19 46.5t34 50t29 42.5l94 238q16 13 35 12.5t34 -8.5t33.5 -5.5t32.5 21.5q66 0 122.5 -13t106 -48.5t68.5 -89.5q5 -33 21 -131t24 -145t22 -125.5t28 -142.5t30 -126q-1 -16 -1 -34 q0 -46 7 -107q11 -86 15 -136q1 -10 0 -21q0 -45 -15 -110q-46 -23 -96 -37q-45 -12 -94 -12h-11q-55 2 -96 23q-37 253 -65 469h-289q-38 -57 -78 -191t-82 -194q-28 9 -81 14t-93.5 16.5t-68.5 40.5zM223 287h15v8q14 10 20 25t-4 24q-34 -30 -34 -48q0 -5 3 -9zM449 705 q-1 -3 -1 -5q0 -12 14 -20q18 -10 30 -2q-14 16 -43 27zM584 864q12 -1 30.5 -5t31.5 -7t29 -2t27 8q2 20 2 42q0 24 -2 48q-6 47 -17 97t-13 71q-5 -16 -45.5 -110t-42.5 -142zM751 1168v-9q0 -37 7 -99q8 -68 13.5 -108.5t16.5 -107.5q33 -14 41.5 -46t9.5 -73.5t13 -62.5 q-40 -50 -46 -116q-1 -17 -1 -34q-1 -46 11 -86q16 -54 30 -127q9 -48 8 -88q0 -21 -2 -39q127 11 190 41q0 63 -4 131.5t-8.5 122.5t-16.5 131t-19 119.5t-25 129t-25 118t-28.5 127t-26.5 118.5q-49 68 -112 68q-11 0 -23 -2q-2 -68 -3 -108z" />
<glyph unicode="B" horiz-adv-x="1050" d="M33 213q30 318 35 455q-12 46 -12 101v25q4 70 18 126q12 56 20 124q4 33 4 63q0 32 -4 60q13 27 15 68q1 27 1 52v25v10q0 30 4 58q6 34 31 54t74 22q27 0 93 4q58 3 92 3q6 0 10 -1q36 0 87 -14t89 -43q187 -68 330 -238q29 -49 36 -103q3 -24 3 -46q0 -28 -5 -54 q-9 -46 -36 -101t-51.5 -92.5t-61.5 -88.5l-51 -51q95 -72 137 -166q4 -26 4 -51q1 -52 -15 -101q-22 -73 -83 -123q-26 -16 -57 -30t-70 -30t-60 -26q-21 -1 -52 -1q-63 0 -170 5q-64 3 -114 3q-75 0 -118 -7q-20 3 -35 9.5t-28 20t-20.5 22t-20.5 29t-19 28.5zM116 777 q-1 -15 -1 -29q0 -45 10 -80q3 -23 3 -57q0 -67 -11 -175q-8 -76 -8 -131q0 -62 10 -98q51 -23 126 -23h7q80 0 138 6q10 1 22 1q52 0 116 -21q242 39 306 186q9 27 9 53q0 68 -61 128q-33 17 -69 19q-11 1 -24 1q-29 1 -67 -3q-55 -6 -77 -7q-4 -17 14 -31q43 -30 43 -94 q0 -23 -6 -51q-35 -60 -113 -80q-46 -12 -91 -12q-32 0 -64 6q-60 81 -60 214q0 49 8 105q37 18 49.5 57.5t17 87.5t19.5 72q1 12 1 23q0 63 -35 90q26 21 34 51l-34 152q-17 4 -33.5 4t-29 -2.5t-28 -9.5t-25 -12t-26 -15t-24.5 -15q-4 -43 -15.5 -104t-19 -102t-11.5 -104 zM336 502q2 -10 3.5 -26t3 -26t4 -24t6.5 -20.5t10.5 -16t16.5 -11.5q10 -1 24 -4q5 -1 10 -1q10 0 22 4q5 4 28.5 14t32.5 21.5t5 31.5q-13 11 -35 34t-35 35.5t-36 23t-48 10.5zM414 1137q-1 -11 -1 -23q0 -24 4 -54q6 -45 13 -80q6 -31 6 -67v-11q-1 -42 -16 -75 q16 -8 33.5 -8t30.5 4.5t31 10.5t30 8q11 12 49 32q38 21 54 45q9 13 9 31q0 14 -6 31q-29 72 -95 115q-63 41 -135 41h-7zM508 1354q2 -10 12 -16t19 3v13h-31zM791 799q4 16 29 41t40 50.5t2 53.5q-7 -14 -23.5 -28t-31.5 -24t-26 -22q-10 -11 -10 -26q0 -20 20 -45z M871 1088q1 -4 5 -8q6 -6 10.5 -8.5t12.5 -6.5q0 28 -14 35q-14 -5 -14 -12z" />
<glyph unicode="C" horiz-adv-x="964" d="M22 782q2 94 37 176q42 69 77.5 122t86 114.5t100.5 104.5t114.5 78t133.5 50q11 -5 25.5 -6t33.5 0t29 0q14 36 44 36t58.5 -24t41.5 -55l-15 -252q-22 -6 -138 -20t-167 -45q-29 -11 -56 -36.5t-42 -49t-38 -62.5t-34 -55q-4 -20 -3 -39q0 -51 25 -97q35 -62 97 -95 q61 -4 130.5 -34.5t137.5 -61t125 -33.5q27 -19 33 -46q3 -12 3 -23q-1 -13 -5 -27q-8 -24 -17.5 -55.5t-9.5 -51.5q-14 -81 -98 -154q-31 -4 -57 -4q-64 0 -103 25q-102 0 -201.5 50.5t-181.5 131.5q-9 12 -21 34.5t-25 39.5t-33 28q-43 77 -66 160q-21 76 -21 162v14z M94 786v-17q0 -81 22 -151q24 -78 64 -151q88 -125 228 -190q111 -52 226 -51q30 0 60 3q41 32 62.5 79t38.5 116q-3 6 -7.5 10t-8.5 7t-11.5 5t-12 3t-13.5 1.5t-13.5 0.5h-15h-13.5q-38 31 -90.5 49t-95 25t-91 30.5t-83.5 65.5q-104 101 -104 198q0 38 16 76 q94 220 254 258q19 14 51 22t60 10t58.5 9.5t46.5 20.5t24 42q2 9 3 19q0 24 -12 57l-159 17q-55 -21 -109 -57t-94.5 -71.5t-88 -89t-76.5 -91t-73 -95.5q-41 -70 -43 -160z" />
<glyph unicode="D" horiz-adv-x="1050" d="M55 311.5v14.5v12q10 100 36.5 298t38.5 350q8 107 8 219q0 46 -1 93q6 2 29 32q14 19 23 19q6 0 9 -8q2 -7 3 -20q4 -17 12 -23t19.5 -3.5t22.5 7.5t24.5 9t23.5 2q13 1 27 0q182 0 334 -115q44 -57 70 -91t65.5 -91t61 -98.5t45.5 -98.5t34 -106q10 -52 11 -111 q0 -56 -13 -110q-10 -22 -33 -81.5t-43 -99t-47 -73.5q-84 -68 -193 -94q-81 -20 -160 -19q-26 0 -52 2q-104 9 -209 45q-7 -1 -14 -1q-32 0 -60 22q-3 31 23 51q30 -4 126 -29q86 -22 143 -22h13q308 4 397 190q47 79 57 165q3 32 3 61q-1 51 -11 97q-16 72 -60 157.5 t-85 144t-100 133.5q-34 31 -82.5 52t-88 28.5t-100 17t-90.5 16.5q-27 31 -54 31h-3l-20 -37q3 -52 2 -109q1 -85 -5 -180q-10 -158 -26.5 -268.5t-44.5 -281.5q1 -16 7 -40.5t10 -42t2 -40.5t-13 -43q-2 -4 -5 -7t-5.5 -4.5t-8 -2.5t-7.5 -1h-8h-7q-6 5 -11 11.5t-8.5 12 t-5.5 15t-3.5 14.5t-2 15.5t-0.5 14z" />
<glyph unicode="E" horiz-adv-x="1050" d="M62 552q10 96 24 188q14 90 24 196q5 54 5 103q0 46 -4 87l14 320q14 20 32.5 22t35.5 -3.5t40 3.5q25 2 76 9t83 10q14 1 30 1q20 0 46 -2q44 -4 81 -18q43 -7 147 -7h27q7 0 15 1q114 0 151 -16q19 -36 23 -92q2 -32 2 -60q0 -20 -1 -40q-1 -10 -1 -21q0 -36 8 -76 l-15 -24q-68 22 -149 29.5t-177.5 9t-144.5 6.5q-3 2 -9 10t-12 12t-14 0q1 -15 -3 -43t-6.5 -51.5t-1 -47t17 -38t45.5 -16.5q64 5 127 6q121 0 233 -21q26 -21 33 -52.5t1.5 -61.5t-6.5 -64t9 -59q-81 -42 -167 -42q-29 0 -58 5q-45 17 -113 17q-49 0 -111 -9 q13 -23 6.5 -58t-11 -74t-5 -71t24.5 -50q17 -12 48 -12q14 0 30 3q41 -1 100 -8.5t101 -13t99 -7.5h18q45 0 75 8q17 0 27.5 -7.5t16 -24t7.5 -25.5t4 -29q-3 -13 -5 -40.5t-4.5 -45t-13.5 -37t-32 -28.5q0 -20 -15.5 -35.5t-28.5 -21.5t-38 -15q-33 15 -86 15h-21 q-12 -1 -24 -1q-52 0 -86 13q-50 18 -114 22l-46 2q-37 0 -69 -4q-44 -5 -98 -5h-18q-65 1 -116 15q-45 80 -59 174q-9 57 -8 115q0 37 4 75zM131 406q20 -22 26.5 -75.5t18.5 -70.5q21 1 46 1q106 0 275 -24q196 -28 300 -28h14q68 68 68 129q0 16 -5 31l-77 -7 q-59 15 -158 19t-183 16t-145 49q1 5 9 53t9.5 65t4.5 54t-0.5 62.5t-11.5 48.5q-16 -8 -40 -6t-38.5 6.5t-37.5 12t-38 10.5q-2 -12 -13.5 -95t-17 -140t-6.5 -111zM188 983h9v37h-9v-37zM188 1071h9l6 72h-6z" />
<glyph unicode="F" horiz-adv-x="989" d="M68 285q21 164 43 535t53 556q4 7 10 25.5t12.5 30.5t16.5 18l16 -16q7 37 45 45q14 3 27 3q22 0 41 -9q70 -29 166 -32q26 -1 51 -1q65 0 119 6q27 3 57 3q52 0 111 -9q24 -28 25 -66q0 -3 1 -7q0 -35 -12 -65q-12 -34 -20 -80q-5 -25 -4 -48q0 -19 3 -35 q-34 -15 -81 -15h-9q-53 2 -93 8q-11 1 -22 1q-32 0 -71 -11q-32 17 -60 17q-7 0 -13 -1q-32 -5 -62 -28l6 -145q24 2 151 10t199 22q29 2 40.5 -15.5t17 -46t14.5 -40.5q-2 -19 -8 -59.5t-9 -72.5t0 -58q-55 -7 -185 -33q-125 -26 -219 -25h-7q-22 -46 -24 -110v-17 q0 -54 8 -102q10 -56 10 -121.5t-19 -114.5q-58 -22 -99 -34q-40 -11 -98 -12h-5q-55 0 -91 24zM147 285h9q-5 11 -3 22.5t7 20.5t2.5 17t-15.5 13v-73zM202 1252q-2 -31 -1 -59q1 -36 3 -69q2 -27 2 -57q0 -33 -3 -70q8 1 16 1q50 0 96 -33q16 28 23 64t9.5 82.5t6.5 68.5 q40 24 96 30q27 3 53 3q27 1 53 -3q50 -6 106 -10q21 -1 39 -1q31 0 57 3q4 12 12 33t13 33t11 34q6 20 6 33q0 9 -3 35h-340q-26 -3 -59 3.5t-58 14.5q-21 6 -46 6h-10q-32 -2 -59 -18q-19 -53 -23 -124zM315 240h17q19 13 21.5 43t-9.5 49zM315 618l23 23l6 23zM598 760 q34 10 62 37t58 65.5t48 55.5q-18 -3 -29 0q-6 2 -11 2l-11 -2q-11 -3 -21 -17q4 -24 -8.5 -44t-31 -32t-36 -29t-20.5 -36z" />
<glyph unicode="G" horiz-adv-x="1118" d="M59 666q8 113 45 235q243 393 521 410q85 30 142 30q25 0 44 -6q-5 -28 19.5 -38.5t48.5 -6.5q34 -20 44.5 -45t2 -49t-19.5 -52t-19 -55.5t4 -58.5q-22 -13 -79 -13h-16h-11q-61 0 -89 -22q-142 -8 -276 -176q-13 -41 -26.5 -149t-37.5 -160q9 -50 38.5 -88.5 t76.5 -56.5q57 -31 138.5 -31t135.5 31q15 3 29.5 0t30 1.5t22.5 20.5q-8 65 -36 86q-21 -1 -83 -14q-57 -12 -99 -12q-5 0 -9 1q-46 1 -84 25q14 34 14 78q1 4 1 7q0 40 -5 76q-2 10 -2 19q0 28 13 52q17 32 63 43q51 -14 121 -14h5q74 1 116 6.5t114 17.5q23 2 34 -11.5 t12.5 -31.5t6 -41t13.5 -35q-12 -49 -14 -105v-23q0 -42 4 -75q6 -43 13 -102t9 -98q-7 -54 -26 -84.5t-66 -38.5q-17 0 -49.5 8.5t-54.5 5t-41 -28.5q-9 1 -27 0q-7 -1 -13 -1q-10 0 -17 1q-13 3 -21 15q-79 -8 -143 -9h-6q-61 0 -130 9q-74 9 -137.5 37.5t-112.5 76.5 q-77 90 -108 207q-25 94 -25 185q0 23 2 47zM176 870q-46 -157 -46 -284q0 -171 83 -287q68 -70 168 -100q81 -24 161 -24q18 0 36 1q98 7 192 39q0 9 22.5 40.5t12.5 51.5q-47 -33 -123 -45q-24 -3 -47 -3q-81 0 -157 33q-96 43 -167 130q-3 42 -3 82q0 226 91 409 q147 171 435 181q-2 9 -2 21q0 19 5 45q8 42 5 59q-12 2 -19.5 -5t-10 -16.5t-10 -16.5t-20.5 -5q-17 13 -17 41q0 22 11 53q-185 -3 -347 -115t-253 -285zM594 588h16q1 4 9 10.5t6 13.5h-31v-24zM827 524h21q-2 6 -0.5 12.5t0.5 11.5t-5 5h-1zM891 256l8 6v25z" />
<glyph unicode="H" horiz-adv-x="1118" d="M39 223q31 63 43 147q11 75 12 140v15q0 14 -1 29q0 60 5 130q6 88 25 154q-4 31 -4 71q-1 91 19 228q28 196 30 243q19 -3 30 22q10 23 25 23h2q-1 -3 0 -9.5t0 -12t-6 -8.5l27 -21q21 -4 52.5 1t55.5 9t48 2.5t40 -20.5t21 -57q12 -31 12 -66q-1 -10 -1 -20 q-4 -46 -17 -79.5t-21 -77.5q-4 -22 -4 -43t4 -40q26 6 59.5 2.5t62 -11t60.5 -4.5t56 21q0 31 -4 97q-4 68 -6 110q0 8 -1 15q0 37 6 82q7 55 25 94q32 -18 76 -21q16 -1 32 -1q26 0 50 3q34 5 74 4h8q46 0 80 -14q-10 -158 -14 -333t-5 -390.5t-4 -339.5q2 -9 9.5 -31.5 t10.5 -35.5t1 -31.5t-13 -32.5q-9 -15 -26.5 -19t-33 -1.5t-28.5 -0.5q-21 19 -45.5 19t-45 -12t-42.5 -23t-39 -15q-3 -1 -6 -1q-14 1 -27 15q-16 18 -26 60l-14 478l-23 22q-24 0 -100 -4q-46 -3 -80 -3q-23 0 -41 1q-54 -62 -54 -158q0 -54 17 -118q-7 -18 -8 -49.5 t1 -62t-13.5 -55t-51.5 -28.5q-9 1 -19 1q-40 0 -102 -19q-51 -16 -85 -16q-19 0 -33 5zM117 291q0 -11 7.5 -14t16 0t13.5 8q14 22 -7 34zM219 1266h6l6 37h-6zM283 285l20 6q0 3 0.5 8.5t1 9.5t0 8t-2.5 6.5t-5 2.5zM405 835q1 -8 3 -20q2 -14 3.5 -21t5.5 -22t5 -18 q28 -5 54 -5t51 5q36 7 76 7q17 0 33 -1q58 -4 95 -37q7 -82 7 -255.5t7 -256.5l197 6q-18 81 -18 185v30q3 122 16 214q13 94 22 216q5 65 5 121q0 51 -4 96l-21 207q-35 17 -90 17h-6q-60 -1 -101 -23q-15 -45 -15 -106v-15q2 -71 8 -123q2 -16 2 -33q0 -38 -9 -83 q-32 -26 -72 -34q-22 -4 -43 -4q-16 0 -32 3q-36 6 -78 8q-10 1 -21 1q-30 0 -57 -5q-8 -6 -14 -13q-4 -8 -6 -19q-2 -15 -3 -22z" />
<glyph unicode="I" horiz-adv-x="522" d="M70 178q55 798 63 893q8 37 8 72q0 13 -1 25q-1 16 -1 33q1 31 5 65q8 52 34 84q23 -9 23 -43q0 -9 -2 -21q34 17 73 29q38 13 85 15h9q41 0 64 -21q-16 -41 -16 -118v-9v-11q0 -76 -13 -116q1 -44 1 -101q0 -134 -6 -336q-10 -286 -11 -344q15 -13 15 -30t-7.5 -39 t-7.5 -33q-13 -5 -35 -14.5t-38.5 -15.5t-36.5 -12q-16 -4 -31 -4h-8q-19 2 -37 11q-19 -5 -39 -7t-41 0.5t-34.5 14.5t-14.5 33zM154 440q8 4 8 21h-8v-21zM192 1102q1 -10 3.5 -30.5t3.5 -24.5q-2 7 -2 14q0 31 25 75q31 56 34 78q-19 -2 -32 -8.5t-20 -19.5 q-6 -12 -10 -24q-4 -10 -4 -27t2 -33zM270 1020q61 39 88 86q-20 -5 -38.5 -24t-32.5 -39.5t-17 -22.5zM328 215l16 4l-10 27zM354 1214l17 -2l8 45h-8z" />
<glyph unicode="J" horiz-adv-x="1040" d="M74 285q-2 11 -2 22q0 26 14 49q5 8 18 33t20.5 37t20.5 30.5t28 31t32 20.5q8 -25 22.5 -44.5t38 -33.5t40.5 -21.5t49.5 -19t43.5 -16.5q19 -10 36 -5.5t27.5 10.5t21.5 22.5t17 29t14 29.5t13 26q27 78 29 172v20q0 83 -15 158q-17 84 -48 166q-28 8 -90 11.5 t-111.5 17t-81.5 49.5q-12 25 -12 51q0 8 1 16q5 35 18 60t22 60q4 18 4 35q0 16 -4 32q21 2 69 10t82 11q280 -18 527 -27q5 -18 14.5 -46.5t15.5 -48t13 -46.5t10 -49t3 -48.5t-5 -50.5q-12 -26 -33 -26q-17 0 -39 16q-7 -7 -55 -6t-60 0q-8 -28 -6.5 -41.5t10.5 -41.5 t11 -40q4 -35 4 -81q0 -89 -15 -217q-19 -154 -19 -244q0 -23 1 -42q-24 -20 -34.5 -52.5t-12.5 -62t-7 -58t-25.5 -48.5t-59.5 -26q-10 -34 -64 -43q-36 2 -70.5 8.5t-72.5 20.5t-62.5 23.5t-67 33.5t-58.5 33t-64.5 39t-58.5 36q-29 27 -37 66zM154 279q96 -85 213 -130 q101 -39 203 -39q16 0 32 1q43 30 65 77.5t37 114.5t27 96q6 111 6 210q0 239 -37 405q-15 0 -43 4t-50.5 4t-41.5 -8q27 -99 41 -184t16 -184v-9q0 -94 -30 -179q-30 -90 -92 -159q-28 -5 -55 -5q-30 0 -59 6q-52 12 -124 42q0 17 -10.5 25.5t-29.5 14t-27 11.5 q-38 -50 -41 -114zM846 1253q-1 -4 -1 -8q0 -10 7 -19q8 -8 17 -8q4 0 8 1q6 1 6 20q-1 0 -13 9q-9 6 -17 6q-4 0 -7 -1z" />
<glyph unicode="K" horiz-adv-x="1122" d="M43 98q49 336 72 955q-19 33 -21 76t-2 88.5t-14 78.5l10 45q11 -1 41.5 -5.5t45 -5t39 3t46.5 14.5q16 -5 39.5 0t36.5 7h3q12 0 30 -14q21 -61 22 -137v-14q0 -66 -8 -119.5t-8 -120.5v-14q1 -76 22 -137q88 80 139.5 129.5t121.5 129.5t116 154q20 24 42 25.5 t43.5 -13t42.5 -32t47 -32.5t48 -15q32 -1 45 -25q6 -11 6 -24q0 -14 -8 -29q-58 -49 -110 -110t-111.5 -142.5t-95.5 -124.5q7 -17 -4.5 -36t-25.5 -31.5t-18 -28.5t17 -27q22 -26 61 -48t70 -44t45 -57q148 -118 150 -234q-135 -120 -201 -200q-26 4 -41.5 22.5t-21 39.5 t-15.5 47t-24 40q-34 33 -104 105.5t-123 123t-105 91.5l-21 -25q5 -46 6 -131.5t8 -154.5t28 -124l-27 -28q-9 1 -15 4.5t-8.5 7t-7 12t-6.5 11.5q-12 5 -40.5 21.5t-46 24t-42.5 5.5t-45 -21q-15 24 -35 23t-37.5 -14t-32 -8t-18.5 42zM129 139l31 25l157 -45 q-15 45 -15 132v11v21q0 80 -7 125q8 22 5 53.5t-10 60.5t4 52.5t46 29.5q61 -72 231 -239t246 -267l115 115q-2 36 -22.5 67t-45.5 50t-56 46.5t-48 51.5q-13 10 -38.5 25t-43.5 28.5t-27 28.5q-35 18 -78.5 58.5t-86.5 75t-89 46.5q-1 32 -18.5 40.5t-37.5 3.5t-32 5 t-4 45q6 123 6 246t-6 246q-25 -3 -35 -4.5t-34.5 -7t-35.5 -11t-26.5 -16t-19.5 -23t-2 -31.5t14 -42q12 -85 12 -191v-61q-4 -143 -17 -250t-24 -249q-9 -112 -9 -203q0 -25 1 -48zM543 733q1 -11 15 -23q8 -7 15 -6q4 0 7 3q-2 14 -1 25t-1 24t-9 22q-17 4 -24 -12 q-4 -9 -4 -19q0 -7 2 -14zM811 930q62 70 121 164l-6 10q-27 -17 -46.5 -45.5t-39 -70t-29.5 -58.5zM823 1104l23 20l2 12q0 2 -4 4l-5 5t-7.5 3t-8.5 3v-47z" />
<glyph unicode="L" horiz-adv-x="794" d="M61 160q13 130 33.5 375.5t41 440.5t48.5 372q-4 10 3 21t18 13q5 -7 6.5 -22t2 -27t4 -24t12 -13t26.5 7q17 29 40 35t57.5 1t54.5 -2l20 -20q-1 -21 -1 -49q0 -40 2 -96q1 -43 1 -82q0 -44 -2 -84q-4 -74 -20 -144q1 -11 1 -23q0 -70 -19.5 -198t-19.5 -198 q0 -12 1 -23q20 -2 45 -2q52 0 130 10q71 9 120 9q29 0 51 -3q17 -30 17 -107v-9v-7q0 -77 20 -108l-6 -49q-28 -2 -54 -2t-51 2q-24 2 -50 2q-29 0 -61 -2q-62 -4 -104 -23q-17 -1 -53 8t-62 7t-41 -27q-18 0 -82 -13q-38 -8 -65 -8q-19 0 -33 4zM154 399l145 29 q7 55 18 140t18.5 141.5t17.5 142.5t12.5 142.5t4.5 141.5v36q0 61 -5 104l-129 -37q-27 -158 -51 -466t-31 -374zM236 190h43v21q-30 0 -43 -21zM610 211h52q24 6 24 37q0 20 -10 51l-12 -6t-10 -6t-8.5 -8t-7.5 -8t-6 -9t-5 -9t-5 -10t-4 -10t-4 -11t-4 -11z" />
<glyph unicode="M" horiz-adv-x="1503" d="M32 132q-3 11 -3 23q1 16 7 31q10 25 23 60t13 57q39 182 135 519t110 392q10 15 9.5 38t-7 44t0.5 41t34 29q42 -22 69.5 -67t54 -100.5t57.5 -86.5q50 -29 90 -81t62 -101t53.5 -105.5t62.5 -89.5q29 50 47 112.5t33 139.5t28 119q-3 13 -11 32.5t-13 32t-8.5 34 t2.5 38.5q39 30 95.5 42t110 26t89.5 49q36 -4 43.5 -29t0.5 -53.5t7 -56.5q20 -101 61 -253.5t70 -262.5q30 -111 50 -253q16 -110 16 -208q0 -29 -1 -56q-27 -18 -72.5 -29.5t-70 -14t-80.5 -7.5q-39 81 -85.5 242t-74.5 227q-11 -25 -32.5 -77t-35.5 -84.5t-37.5 -76 t-47.5 -77.5q-2 -20 -13.5 -44.5t-22 -41.5t-16 -42t4.5 -46q-32 -19 -49.5 -7t-22 32t-16.5 46t-31 35q-11 26 -23 51t-29 54.5t-27 47t-32.5 52t-29.5 45t-34.5 51.5t-31.5 47q-23 -23 -35 -64t-25.5 -81.5t-41.5 -63.5q-7 -24 -17 -98t-29.5 -117.5t-62.5 -66.5 q-31 20 -69 22h-12q-34 0 -76 -8q-50 -8 -74 -8q-33 18 -40 46zM106 172q5 -1 14 -1q25 1 76 7q26 3 46 3q32 0 47 -9q30 49 54 110.5t49 141t40 119.5q10 16 15 35.5t0.5 40.5t-21.5 32q2 5 6.5 23.5t8 27t10 22t16 22t22.5 14.5q37 -68 147 -240t159 -274q105 156 137 214 q86 157 86 285q0 60 -19 114q-16 45 -45 87q-2 -5 -8 -12.5t-8.5 -14t0.5 -14.5q-6 -21 -16 -67.5t-17.5 -73.5t-20 -63.5t-31.5 -64.5t-44 -50q-41 52 -83.5 132t-71.5 143t-79.5 132t-111.5 113q-14 13 -34 56.5t-48 51.5q-36 -199 -129 -462q-34 -100 -77.5 -298 t-68.5 -282zM984 1096q6 -40 28 -62q3 10 3 22q-1 24 -11 56q-8 24 -7 41q0 20 9 33l-17 -17q-7 -21 -7 -44q0 -14 2 -29zM1186 1071h14q5 3 6 7.5t0 10.5t0 9zM1212 281l31 -58q45 0 51 17q-4 23 -15.5 29.5t-33 6.5t-33.5 5zM1335 565l11 -82l6 9zM1338 269q0 -27 8 -46 q25 22 27 55v12q0 28 -7 62q-9 42 -8 60q-2 -10 -8 -46q-8 -34 -10 -52q-2 -15 -2 -36v-9z" />
<glyph unicode="N" horiz-adv-x="1318" d="M47 156q50 210 114 627.5t72 463.5q-11 30 -11 51q0 12 4 20q10 24 24 64q12 31 13 55q0 7 -1 13q4 12 19 14q2 0 4 1q12 0 20 -9q10 -17 5.5 -45.5t0.5 -48.5q20 3 40 3q35 0 67 -11q48 -17 85 -56.5t63.5 -78.5t59.5 -95t56 -86q12 -23 65 -124t84 -150q21 29 23 66v14 q0 28 -6 54q-9 33 -10 73q0 37 16 67q7 157 80 404q26 5 94.5 10.5t101.5 11.5q28 -80 34 -176q2 -37 2 -71q0 -55 -6 -105q-10 -82 -13 -180q-1 -33 -2 -65q0 -63 6 -119q-9 -47 -9 -132q0 -72 6 -170q10 -157 10 -242q0 -32 -1 -54q-23 11 -47.5 4.5t-42.5 -20t-42.5 -20 t-47.5 4.5q-8 -14 -21.5 -14t-24 8.5t-18.5 19.5q-69 70 -152.5 187t-166.5 226.5t-166 180.5q-19 -85 -24.5 -272.5t-32.5 -278.5q-29 -20 -75 -27t-102.5 -8.5t-84.5 -7.5q-5 -1 -14 -7t-13.5 -6.5t-13.5 7.5zM131 207l180 20q20 63 32 140t15 131t6.5 150t6.5 143 q12 26 13 50t-6.5 41.5t-22 36t-29.5 32.5t-31.5 32t-26.5 33q-26 -122 -48.5 -256t-47.5 -296.5t-41 -256.5zM342 1196l86 64l-20 16q-38 -19 -66 -80zM502 1090q25 0 51 26l-16 14zM600 981h25v27zM708 762q-2 -4 -1 -10q0 -5 2 -11q3 0 11 -0.5t12.5 -0.5t11 2t10.5 6 q5 29 -21 51q-3 -6 -12 -16.5t-13 -20.5zM791 438q-4 -9 -4 -19q0 -15 8 -31q13 -26 35 -47t47.5 -49.5t35.5 -49.5l21 43l-35 8q-17 2 -21 14t-1.5 32t0.5 28q-18 -5 -28.5 -5.5t-19.5 10t-13.5 20t-11.5 24t-13 22.5zM991 1341q11 -5 31 15q-4 6 -11 6q-5 0 -11 -2 q-11 -4 -11 -12q0 -3 2 -7zM1056 1337q0 -5 3 -10l41 -16v30q-1 14 -17 14h-6q-20 -3 -21 -18zM1059 293q12 -21 35 -21h6q0 4 0.5 15.5t0.5 18t-1.5 15.5t-5.5 15zM1079 618q2 -1 5 -1q9 0 22 16q0 2 0.5 7t1 8.5t0 7t-2.5 5.5t-5 1zM1092 1213q2 -28 14 -52q11 -23 12 -52 q0 -32 -24 -56h22q6 51 6 94q0 69 -16 113q-14 -16 -14 -40v-7z" />
<glyph unicode="O" horiz-adv-x="1265" d="M74 739q54 166 185 299t288 193q42 -13 116 -25t128 -21.5t114.5 -38.5t98.5 -77q101 -103 136 -247q18 -73 18 -147q0 -72 -17 -145q-35 -21 -41 -87.5t-17 -84.5q-33 -74 -104 -137.5t-145.5 -100.5t-155.5 -61q-49 14 -139 24t-160 29t-123 62q-114 114 -166 258 q-30 84 -31 176q0 64 15 131zM154 422l122 -162q22 -44 64 -62q41 -18 81 -19q1 1 2 1h10q37 0 80 -4q49 -4 77 -18q23 -6 46.5 -6t44 3.5t43.5 11.5t41 17t40.5 22t39 24t39 25.5t38.5 23.5q46 21 70.5 67.5t42.5 106t42 90.5q2 8 10 41t11 49q3 14 3 34q-1 3 -1 7 q0 24 -8 41q1 11 1 22q0 174 -178 342q-137 70 -305 70q-17 -8 -51 -14t-59 -18t-41 -38q-19 0 -41.5 -14.5t-49 -37t-40.5 -30.5q-115 -113 -167 -263q-28 -81 -28 -164q0 -73 21 -148z" />
<glyph unicode="P" horiz-adv-x="995" d="M57 127q5 57 46.5 474t56.5 640q15 10 29 4.5t22.5 -16t22 -14t26.5 11.5q13 -3 26 -3q22 0 44 8q36 14 73 32t66 20q43 -10 119 -34t140 -40t124 -20q45 -47 63 -111q13 -45 13 -92q0 -19 -2 -39q-8 -68 -26.5 -129t-47.5 -121q-8 -25 -24.5 -46t-34 -34.5t-44.5 -27 t-46 -20.5t-49.5 -18t-45.5 -17q-136 16 -174 20q-14 -37 -16 -91v-29q0 -38 3 -70q1 -13 1 -27q0 -32 -6 -67q-10 -50 -39 -85q-7 -64 -45 -96q-48 -13 -100 -13q-26 0 -52 3q-82 9 -123 47zM145 186l7 -34q2 0 10 -1h5q4 1 6 1q4 2 7 6q-3 2 -15 14.5t-20 13.5zM203 829 q3 6 11 18t9.5 18t-0.5 22h-20v-58zM428 678q4 -34 32 -44q26 -9 66 -8h9h13q36 0 52 -5q91 18 156 76.5t96 146.5v6q0 29 8 85q7 47 8 85q0 12 -1 24q-3 46 -29 82q-36 3 -104 25t-105 25q-20 4 -49 16t-50 21t-47.5 9t-48.5 -16q17 -4 25 -17t13.5 -30.5t12.5 -25.5 q1 -77 -31 -226q-27 -129 -27 -206q0 -12 1 -23z" />
<glyph unicode="Q" horiz-adv-x="1222" d="M54 584q-1 1 -1 3q0 22 9 57q8 36 11 53.5t17 58.5t17.5 52t20.5 56t19 51q89 124 197 211t227 109q20 1 39 1q114 0 209 -46q44 0 85.5 -19t69.5 -43t60 -68t48 -70.5t42 -74.5l27 -135q-13 -49 -28 -133.5t-26 -137t-44.5 -117.5t-87.5 -113q-27 -20 -69.5 -57.5 t-70.5 -60.5t-70 -44t-85 -25q7 -20 -2.5 -56t-19 -62.5t3.5 -45.5t59 -16q19 -4 47 0.5t48.5 10t43 0.5t35.5 -25q-2 -13 -10 -47t-11 -54t1 -48t20 -48v-31q-27 -2 -67 -18l-70 -28q-22 -10 -48 -10q-8 0 -17 1q-36 4 -65 35q-52 7 -145 13t-168 15.5t-137 28.5 q-6 14 -10 28.5t-6 26.5t-1.5 28t1 26t4.5 27.5t5.5 25.5t8.5 27.5t9 25.5t10 27.5t10 25.5q21 7 42 7q11 0 21 -2q33 -5 65 -8.5t57.5 -3t41 23.5t16.5 71v29q-131 37 -230.5 117.5t-135.5 200.5q-10 29 -16 58q-7 26 -7 56zM133 461q15 -95 83.5 -169t162.5 -99 q94 -17 176 -17q262 0 387 182q139 126 139 395q0 63 -8 134q-33 84 -94.5 152.5t-138.5 76.5l-58 37q-11 1 -45 4.5t-52.5 4.5t-46.5 1t-51 -5.5t-42 -16.5q-15 5 -40 -9t-32 -16q-80 -28 -141 -82.5t-98 -119t-60.5 -145.5t-32 -154.5t-8.5 -153.5z" />
<glyph unicode="R" horiz-adv-x="1044" d="M49 125q6 66 27 201q22 136 31 246q4 52 4 102q0 56 -5 110q6 17 10.5 36t8 35t5.5 39.5t3 37t1.5 41.5t0.5 38.5v42.5v40q0 69 31 71q-5 -30 8.5 -39t33.5 -4.5t36 -1.5q79 42 175 58q62 11 124 10q34 0 67 -3q95 -9 178 -59t127 -135q15 -81 15 -147q0 -177 -107 -250 q-4 -12 -15.5 -19t-21.5 -10t-16.5 -11.5t-3.5 -23.5q34 -43 61.5 -94t57.5 -118t47 -101q2 -9 2 -16q0 -16 -10 -25q-16 -12 -45.5 -17.5t-40.5 -13.5q-14 -26 -43.5 -37t-59.5 1q-32 53 -121 182.5t-131 208.5q-3 1 -21 11.5t-30 10.5q-16 -16 -14 -44.5t-8 -49.5 q-23 -34 -27 -78q-2 -17 -2 -33q1 -27 5 -49t3 -45q1 -17 -1 -35q-4 -44 -30 -79q-27 -8 -61.5 -7.5t-63 6t-61.5 1.5t-57 -21q-8 -2 -15 -2q-32 0 -51 39zM135 176q35 10 62.5 7.5t61 0.5t58.5 21q-3 21 -3 44q0 27 4 58q7 57 18 101q10 44 13 100q1 10 1 19q0 45 -12 81 q25 45 59 45q6 0 13 -2q73 -69 195 -69q35 0 73 6q180 92 180 328v18q-15 45 -47.5 78.5t-69.5 52t-89.5 30t-94 15t-96.5 4.5q-21 -1 -51.5 -9t-53 -14.5t-51.5 -5t-55 14.5q-36 3 -48 -21.5t-7.5 -56t-1.5 -57.5q-4 -62 -11.5 -244.5t-17.5 -302.5t-29 -242z" />
<glyph unicode="S" horiz-adv-x="1026" d="M61 508q20 20 49 32.5t52 16t62 8.5t57 8q19 -24 25 -62.5t17 -71.5t46 -52q21 -33 53 -39q10 -2 22 -2q26 0 62 9q53 13 63 14q33 5 63 29t30 57q1 19 2.5 28t-5.5 25t-10.5 22.5t-12.5 21.5t-13 21q-33 18 -83.5 37t-90.5 35t-82.5 38t-76.5 57t-54 81q-5 30 -5 58 q0 148 129 280q73 35 147 55q72 20 156 19h4q86 0 154 -31l47 -47q-15 -145 -80 -229q-19 7 -56 25t-60.5 28t-56 9.5t-60.5 -19.5q-20 -15 -21.5 -31.5t12 -30.5t27.5 -23t29 -16q217 -99 305 -274q11 -46 12 -92q0 -57 -18 -115q-31 -104 -106 -186q-47 -34 -99.5 -54.5 t-117 -29.5t-109 -11.5t-123.5 -3.5q-28 32 -88 86.5t-98.5 92t-69.5 99.5q-29 58 -29 120v8zM127 469q8 -48 37.5 -94t58 -73t79.5 -70t73 -64q16 1 81 3.5t90.5 5.5t74 11t84 24.5t69.5 41.5l82 154q19 49 19 94q0 41 -14 73q-14 33 -39.5 63.5t-56.5 54t-69 48.5t-72 45 t-70 45t-60 48q-1 2 -4 11t-3.5 11.5t-3 11t-3 12t-2 11.5t-1 12t0.5 11t1.5 12t4 11t5.5 11q19 29 44.5 44t59 14t57 -4t64.5 -13.5t56 -13.5q34 60 37 115q-44 39 -122 39h-15q-24 8 -52 8q-66 0 -149 -47q-25 0 -46.5 -11t-40 -36t-28.5 -42t-28 -53.5t-23 -46.5 q-9 -37 -9 -67q0 -79 62 -105q19 -31 54 -48.5t68 -22t72 -17t64 -33.5q56 -31 88.5 -83.5t31.5 -114.5q-22 -28 -21 -60v-8q-57 -63 -140 -93q-56 -20 -113 -20q-28 0 -57 5q-73 55 -114.5 104.5t-52.5 118.5q-17 -1 -35 -6t-40.5 -14t-33.5 -13z" />
<glyph unicode="T" horiz-adv-x="927" d="M8 987q2 22 8.5 135t18.5 170q16 4 24.5 -2t14.5 -23t6 -18q42 5 131 16.5t147 18.5q56 6 134 12q63 5 121 6h27q70 -2 134 -10q11 -18 55 -20.5t60 -22.5q19 -27 21 -55q1 -8 0 -15q0 -20 -5 -36q-7 -22 -13 -53t-3 -58q-21 -52 -51 -73q-24 -17 -50 -17q-8 0 -14 2 q-34 6 -72.5 15t-75.5 18q-15 4 -30 4q-22 0 -45 -8q-9 -18 -9 -67v-6q0 -4 1 -8q0 -48 -6 -71q-9 -68 -13 -158.5t-5 -145.5q0 -28 -1 -69q0 -40 1 -96q1 -110 1 -131q-12 -39 -43.5 -56.5t-64.5 -18t-74 -6t-64 -21.5h-8q-20 1 -37 13q-20 16 -28 38q7 71 37 230t36 241 q-4 19 -4 41q0 50 20 118q29 99 29 144q-33 14 -72 16h-15q-30 0 -54 -5l-72.5 -14.5t-70.5 -10.5zM102 1024q22 -22 52 14q-4 0 -18 1t-22 -2t-12 -13zM274 213q8 -13 26 -13q4 0 9 1q20 16 75 23t71 26q0 149 1 217.5t7.5 182t21.5 214.5l-22 97q-24 -4 -72 -37 q-1 -39 -16 -85.5t-28 -77.5t-19 -76q-1 -11 -1 -21q0 -32 13 -60q-23 -66 -37.5 -201t-28.5 -190zM340 1038h31v6q-3 0 -9 0.5t-9 1t-7 -1.5t-6 -6zM463 1044h16q1 2 4 7t2 8q-3 1 -6 1q-5 0 -9 -2q-8 -4 -7 -14z" />
<glyph unicode="U" horiz-adv-x="1130" d="M58 690q4 93 16.5 171t24.5 173.5t12 159.5q13 2 37 9.5t45 13.5q21 5 46 11q20 4 36 5q4 -1 8 -1q19 -2 34.5 -9t21.5 -27.5t1 -52.5q-17 -61 -18 -174q0 -37 2 -79q2 -37 2 -70q0 -119 -21 -183q7 -15 17.5 -46t20 -52.5t24.5 -44t38 -34t54 -9.5q17 5 34 5l64 -16 q108 55 163.5 161.5t67.5 236.5v9q0 70 -28 182q-30 119 -35 165q15 9 31.5 14t29.5 7t32.5 -1.5t30.5 -6t32 -11t28.5 -12t29.5 -14.5l26 -13q43 -61 53 -145q5 -41 6 -77q0 -39 -6 -73q-11 -68 -30 -167t-23 -152q-16 -26 -27.5 -81t-32 -94.5t-65.5 -56.5h-8 q-32 -1 -63 -15q-35 -16 -60 -39t-56.5 -45t-60.5 -31q-14 -4 -31 -4q-19 0 -41 5q-29 -18 -60 -20h-7q-27 0 -53 11q-29 12 -55 26.5t-57.5 31.5t-56.5 23q-72 50 -113 122q-40 73 -52 147q-9 57 -9 125q0 20 1 42zM133 506q28 -93 110.5 -159t184.5 -93l8 123 q-14 22 -63.5 35.5t-67.5 38.5q-37 56 -50 128q-9 48 -9 94q0 23 2 45q6 67 14 145q8 77 12 145q1 14 1 29q0 54 -13 112q-16 9 -36 9q-10 0 -20 -2q-32 -6 -46 -36q1 -18 1 -40q-1 -97 -19 -260q-14 -126 -13 -219q-1 -53 4 -95zM805 389h14q31 19 43 53q9 25 9 47 q0 9 -1 17z" />
<glyph unicode="V" horiz-adv-x="1056" d="M16 1132q4 50 33 80q17 -3 42 4t45 14q21 8 42 10h6q17 0 31 -12q16 -14 25 -44l57 -250q11 -39 48 -195t63 -231l20 2q35 58 101.5 159t118.5 186t87 163q27 11 44 44t24 62.5t27.5 47t56.5 4.5q19 -6 65.5 -40.5t77.5 -35.5q16 -21 16 -46q0 -10 -3 -20 q-9 -36 -29 -62.5t-39 -63.5q-17 -33 -17 -62v-6q-29 -45 -62 -129t-52 -119q-11 -17 -33 -51.5t-35 -54.5t-33.5 -49t-40.5 -54q-7 -1 -20.5 4.5t-21 4t-9.5 -18.5q0 -68 -37.5 -125t-95.5 -84q-9 7 -17.5 3.5t-18.5 -9.5q-8 -7 -16 -12q-4 -3 -9 -3l-7 1q-8 4 -12 20 l-123 -12q-46 88 -83.5 213t-60 230.5t-62.5 230.5t-91 216q-4 24 -4 52q0 19 2 38zM460 383q2 -37 8 -64t19 -69q9 8 33 21t36.5 27t10.5 36q76 68 136 162.5t92 175t77 190t84 180.5q-10 18 -30 35t-41 17q-176 -241 -375 -582q-28 -28 -40 -60q-11 -28 -10 -59v-10z" />
<glyph unicode="W" horiz-adv-x="1431" d="M12 1120q1 33 15 60q18 19 44 23q11 2 24 2q19 1 41 -3q38 -6 50 -6q22 -11 40.5 -28t31 -33t22.5 -42t15.5 -43t11 -49t7.5 -48t5.5 -51.5t4.5 -47.5q7 -47 16 -161.5t20 -174.5q45 64 82.5 136.5t70.5 163.5t51 148.5t50 166.5q8 7 19.5 24.5t24 28.5t28.5 10 q34 -21 156 -74q29 -40 57 -92t45.5 -90.5t45.5 -103t42 -95.5q34 65 55 162t41.5 197t53.5 168h10q26 0 60 -8q40 -10 64 -15q7 -1 16 -1q21 0 52 9q16 -30 16 -67.5t-9 -67.5t-20 -70.5t-13 -68.5q-35 -95 -69.5 -285t-69.5 -284q0 -72 -41 -197q-88 -51 -129 -60 q-18 -4 -34 -4q-21 0 -40 7q-51 130 -145 370.5t-117 300.5q-43 -76 -79.5 -197.5t-76.5 -234t-102 -190.5q2 -7 2 -14q0 -33 -39 -64q-14 -5 -31 -5q-16 0 -33 4q-36 8 -57 13.5t-59 -18.5l-45 6q-16 142 -73.5 412t-72.5 403q-3 22 -13 58.5t-16 61.5q-6 22 -6 49v9z M78 1087q17 -155 83 -443.5t83 -430.5h129q18 29 53.5 86.5t54.5 85.5q38 77 69 164.5t66.5 207t53.5 171.5q18 7 30 21t18 26t9.5 37.5t4 35.5t1.5 39h-47q-33 -76 -84.5 -228t-104 -269t-124.5 -211q-5 2 -10 0.5t-9.5 -0.5t-7.5 6q-35 54 -51.5 123t-18.5 138.5 t-2.5 138.5t-10.5 143t-36 131l-41 57q-12 -3 -41 1q-13 2 -24 2q-13 0 -23 -3q-18 -5 -20 -29zM961 365q6 -10 13.5 -40.5t20.5 -39.5l6 22q-1 18 -12.5 34t-27.5 24z" />
<glyph unicode="X" horiz-adv-x="1431" d="M51 1053q0 46 44 129.5t48 130.5q20 5 53.5 -17.5t55.5 -3.5q34 -52 86 -93.5t98.5 -64.5t103.5 -58.5t95 -74.5q7 16 19.5 35t19 28t27 34t22.5 28l8 -36q168 135 254 237h47l232 -252q-89 -179 -303 -332q14 -50 69 -127.5t68 -103.5q22 -19 72 -86.5t87 -89.5 q10 -26 -3 -31t-34.5 -5.5t-27.5 -14.5q-17 -8 -38 -26t-36.5 -32.5t-38 -29t-42 -17t-48.5 5.5q-38 61 -138.5 189.5t-143.5 199.5q-23 -8 -46.5 -47.5t-46.5 -52.5q-24 -25 -78.5 -79.5t-84 -86t-68.5 -80.5t-64 -94q-113 16 -145 92q-5 12 -27.5 52t-30 68t0.5 56 q42 61 153.5 178.5t155.5 188.5q-24 54 -73.5 94t-98.5 60.5t-108 54.5t-95 74zM211 358q25 20 47 49.5t44.5 67.5t37.5 57q-86 -76 -129 -174zM614 872h21q8 4 8 21h-29v-21zM700 961q16 -24 52 -51t63.5 -55t36.5 -64q93 39 169.5 111.5t149.5 172.5q-19 28 -44 53.5 t-62 58t-53 48.5q-43 -34 -98 -91.5t-107 -105.5t-107 -77zM752 647q122 -249 305 -352q51 17 60 61q2 9 2 18q0 33 -27 64q-39 24 -67.5 67t-56 93.5t-57.5 79.5q-17 -3 -26.5 -4t-25.5 5.5t-24.5 11.5t-23.5 14.5t-23 13.5q-4 -9 -14.5 -21.5t-16.5 -24t-5 -26.5z" />
<glyph unicode="Y" horiz-adv-x="1146" d="M55 1167q170 63 238 146q55 -13 94.5 -54.5t58.5 -87t46 -105t55 -93.5q12 -11 21 -41t21 -46t38 -7q11 43 39 85t60 76t63.5 69t54.5 78t28 89q34 17 50.5 0.5t31 -49.5t35.5 -43q9 -23 31.5 -41.5t43.5 -28t40 -24.5q18 -16 19 -33q0 -17 -19 -49q-38 -61 -110 -144.5 t-129.5 -161t-86.5 -155.5q-31 -46 -47.5 -100t-20 -91t-5.5 -111t-5 -110l-24 -14l-230 8q-18 34 -26 87q-7 51 -7 90q0 2 1 5q0 41 4 109t4 92q-16 0 -26 10.5t-14.5 23t-15.5 22t-28 7.5q-11 60 -42.5 123t-68 116.5t-73.5 108.5t-64.5 118.5t-34.5 125.5zM121 1147 q8 -54 36 -109t63 -101t70 -92.5t62.5 -101t34.5 -108.5q17 11 35 3t28 -19.5t25.5 -27.5t28.5 -22q7 -1 15 -1q41 0 101 31q73 37 101 42q74 142 260 332q37 23 45 45q2 7 2 13q0 15 -12 29q-17 19 -39.5 35.5t-46 34.5t-29.5 31q-8 -35 -33 -71t-52 -62.5t-57.5 -62.5 t-45.5 -66q4 -29 -11.5 -53.5t-44 -51.5t-39.5 -44q-10 -7 -21 -7q-20 0 -42 27q-22 90 -105 237t-106 205l-41 13q-35 -26 -59 -41.5t-59 -27.5q-27 -10 -50 -10q-7 0 -14 1zM604 201h23l12 129q1 -7 1 -14q0 -16 -5 -33q-7 -24 -17.5 -47.5t-13.5 -34.5z" />
<glyph unicode="Z" horiz-adv-x="1173" d="M96 936q-1 11 0 22q0 17 2 34q4 27 6.5 57.5t-0.5 54.5q-9 38 -9 68q0 39 16 63l59 -16q64 13 132 21t160.5 11t133.5 4q27 1 89 1h70q118 0 128 -1l30 -43q-5 -32 -6 -110t-14 -134.5t-51 -95.5q-44 -88 -123.5 -296t-138.5 -312q27 -13 62 -14h9q29 0 55 6 q30 6 69.5 14t66.5 9q4 0 34.5 3.5t42 4t37 -1t38.5 -7.5t27.5 -18.5t20.5 -32.5q-15 -16 -19 -40t-1.5 -46.5t2 -44.5t-14.5 -38.5t-44 -24.5q-52 -4 -127.5 -19.5t-130.5 -27.5t-125.5 -12t-130.5 22q-52 -6 -101.5 -6t-95.5 6q-22 34 -22 78q0 37 16 82l43 20 q-36 42 -36 72q0 18 13 31q39 88 161 289.5t165 320.5q-24 16 -57.5 19t-63 -2.5t-69.5 -10.5q-25 -3 -45 -3q-12 0 -23 1q-21 -7 -52 -7q-26 0 -60.5 5t-60.5 5q-31 0 -52 -7q-13 19 -15 47zM169 1076q7 -28 10 -58t-3 -51q19 1 104 6.5t115.5 7.5t103.5 9t116 14.5t102 20 t110 28.5v125q-7 2 -12 3t-10.5 -0.5t-8.5 -3t-9.5 -5t-10.5 -5.5q-70 14 -146 15h-21q-62 0 -110 -5q-56 -6 -138 -14t-144 -10q-35 -5 -45 -27q-6 -13 -6 -29q0 -10 3 -21zM310 96q-1 -2 -1 -6q0 -9 10 -20q127 -6 207 -8h23q73 0 173 8q116 9 208 34q31 16 31 64 q0 20 -5 45l-43 10q-108 -28 -290.5 -50.5t-260.5 -37.5q-4 -8 -17 -15t-22 -10.5t-13 -13.5zM553 627h14q-1 9 5.5 25.5t7.5 19.5zM651 621q2 -1 5.5 -4.5t6 -5t5.5 -1.5q1 2 4.5 7.5t5 9.5t3 8.5t0.5 7.5t-5 4zM682 858q18 6 32 26q12 17 12 27q0 2 -1 4q-4 -9 -27 -23 q-18 -10 -18 -25q0 -4 2 -9z" />
<glyph unicode="[" horiz-adv-x="677" d="M103.5 -251.5q0.5 22.5 2.5 40t5.5 48.5t5.5 52q10 78 15 442.5t6.5 749t2.5 422.5l-4 234q6 2 16.5 5t39.5 9.5t54.5 8.5t54.5 -2.5t46 -18.5l211 -15l62 -53q0 -6 -7 -13.5t-16.5 -17t-22.5 -38t-24 -70.5q-7 -1 -30.5 1.5t-50.5 6t-54 5.5t-44.5 -1.5t-17.5 -13.5 q6 -191 -16 -1487q-10 -140 -8 -168q1 -1 26.5 1t67 5t70.5 4q27 2 37 -5.5t10 -21.5t2 -16q14 -16 17.5 -26.5t0.5 -27.5t-2 -28q2 -93 -27 -101q-8 -2 -18 5q-16 -4 -158.5 3t-167.5 5t-41.5 2t-25.5 15.5t-13.5 24t-4 35z" />
<glyph unicode="\" horiz-adv-x="661" d="M-139 1573q14 22 38.5 30t44 6t55 -9t48.5 -9q-25 48 -2 68q36 -19 58.5 -62t41.5 -100.5t37 -85.5q60 -130 259.5 -773.5t256.5 -772.5q12 -38 13.5 -62t-4.5 -34t-23 -12t-33.5 0.5t-44 6t-47.5 3.5q-36 3 -65 30t-15 53q-2 21 -217 660q-28 35 -200 532.5t-201 530.5z M-78 1503l23 -41l14 8l-29 35zM-8 1368q45 -36 112 -51q-4 1 -23.5 15t-43.5 26t-45 10zM-8 1452q11 -23 58.5 -64t51.5 -75q-1 6 -4 19t-5 21.5t-6 23t-7.5 23t-10 21t-13.5 17t-17 12t-21 5.5t-26 -3zM543 -133v-27h18z" />
<glyph unicode="]" horiz-adv-x="645" d="M3 -212.5q3 26.5 12 64.5t10 46q2 13 111 11t112 15q25 160 30.5 421t-3 481.5t-15.5 411t-4 222.5l-197 41l-14 230l287 10q15 0 65.5 6t82 0.5t57.5 -29.5q1 -8 2.5 -22t4 -47.5t1.5 -57.5q-3 -45 -4 -433t-10 -833t-31 -663q-67 -21 -141.5 -21t-165.5 10t-146 9 q-28 26 -37.5 63.5t-6.5 64zM94 -168q-4 -17 7.5 -59.5t45.5 -51.5q31 -8 66 -9t51 -1t15 -6l159 25q1 19 5.5 80t5.5 77q3 132 0.5 479t0.5 756.5t15 472.5q16 40 4.5 53t-41 8t-63.5 1q-1 -7 -35.5 -3.5t-82 9t-100.5 -3.5q-32 -6 -41.5 -20t-3 -29t14.5 -32.5t6 -25.5 q-2 -6 9 -11t30.5 -8.5t43 -6t47 -5.5t43 -6t31 -7.5t9.5 -10.5q-1 -31 3 -361.5t4 -627t-9 -320.5q-1 -39 2.5 -172.5t1.5 -154.5q-1 -13 -122.5 -13.5t-121.5 -15.5z" />
<glyph unicode="^" horiz-adv-x="798" d="M14 1243q57 26 110.5 75.5t90 97.5t85.5 105t91 91q103 -31 194.5 -102t129.5 -158q-6 -20 -1 -80.5t-14 -85.5q-3 -12 4 -28.5t14 -28.5t4 -24.5t-22 -21.5q-48 25 -133 97t-104 86q-22 30 -43.5 21t-36 -29.5t-21.5 -43.5q-2 -5 -12.5 -27t-15 -30.5t-14.5 -28t-18 -29 t-20 -22t-24.5 -19t-26.5 -9.5q-22 19 -63.5 39.5t-71.5 35t-55 45.5t-27 74zM111 1214q-1 -17 7 -25t20 -9t25 -6.5t19 -16.5q17 -4 29.5 -4t27 11.5t24.5 23t22 30t20 33t18.5 32.5t16.5 28q18 29 0 51t-49 20q-5 -6 -26 -30.5t-29.5 -34t-27.5 -29.5t-31.5 -30.5 t-30.5 -23t-35 -20.5zM385 1460l6 -30q-4 9 6 15q1 1 2 1z" />
<glyph unicode="_" horiz-adv-x="1341" d="M-78 -281q62 38 129 13q57 8 129.5 11.5t175.5 0.5t152 -4.5t172.5 -8.5t124.5 -7q53 3 149.5 0t222 -8.5t146.5 -6.5q26 -11 30.5 -21.5t-3.5 -19t-16 -26.5t-5 -39q2 -24 -12.5 -37.5t-45 -17t-68.5 -2t-87.5 7.5t-97 11.5t-102.5 9.5t-99 3q-94 -14 -196 -14t-178 6.5 t-180 6t-200 -14.5q-12 7 -29 16q-20 11 -23 14t1 11q12 20 13 49q-9 11 -18.5 11.5t-17 -6t-18 -14.5t-18.5 -10q-47 47 -31 86z" />
<glyph unicode="`" horiz-adv-x="593" d="M67 1441q0 2 0.5 6.5t0.5 6.5l41 12q3 16 -1.5 33t-9.5 27.5t-3.5 22t14.5 20.5q2 -13 4 -21.5t7 -16t8 -11.5t12 -13.5t14 -15.5l186 108q37 -28 61 -70t36 -87.5t22 -91t27.5 -92.5t43.5 -80q5 -24 -6.5 -37t-28.5 -17t-33.5 -15.5t-19.5 -31.5q-38 16 -91 70t-72 67 q-36 93 -103 175q-13 4 -27 14.5t-22.5 18t-23.5 12t-29 -3.5q-4 2 -5.5 5.5t-1.5 5.5zM190 1475q26 -26 53.5 -67t47 -73t52 -66.5t71.5 -54.5q9 30 -7.5 90.5t-9.5 90.5l-41 143q-19 14 -43 7t-40.5 -21t-40 -30t-42.5 -19z" />
<glyph unicode="a" horiz-adv-x="1191" d="M61 362q9 205 126.5 367.5t289.5 222.5q-4 -9 -31.5 -34t-33.5 -48q15 -14 36 -13t37.5 6t38.5 -7q107 -26 219 -147l7 110q36 22 64 33q26 10 58 10h6q36 -1 66 -24q2 -14 2 -37q0 -35 -4 -91q-3 -40 -3 -69q0 -40 5 -61q6 -26 6 -105.5t19 -112.5q21 -6 44.5 -3t43 10 t39.5 1.5t34 -28.5q2 -17 2 -33q0 -18 -2 -35q-6 -33 -17 -70.5t-15 -62.5q-47 -10 -128.5 -15.5t-103.5 -8.5q-6 -2 -12 -2q-26 0 -72 28q-4 3 -6 4l-41 93q-5 -6 -19 -23.5t-21.5 -26t-21.5 -25t-23 -25t-23.5 -22t-25.5 -20t-25.5 -14.5t-27.5 -10.5t-27.5 -3t-28.5 3.5 q-24 -28 -55 -32q-10 -1 -21 -1q-22 0 -48 5q-38 8 -57 5q-14 9 -44 22t-42 19q-164 122 -164 270zM128 313q0 -43 18 -77.5t53 -59.5q57 -39 121 -59q49 -15 101 -15q17 0 33 2q70 6 126 43q56 33 92.5 83.5t53 116t21.5 125.5q4 43 4 96q0 21 -1 44q-7 41 -35 66t-65 47.5 t-54 48.5q-12 3 -46 11t-50 11t-43 3t-51 -6q-87 -27 -151.5 -89.5t-94.5 -156.5q-3 -23 -14 -73t-15 -84q-4 -30 -4 -68q1 -4 1 -9z" />
<glyph unicode="b" horiz-adv-x="1116" d="M52 52q-1 10 -1 20q-1 22 3 46q4 34 10 75q4 30 5 51q0 8 -1 14q5 19 15.5 32t27 18.5t29.5 8t36.5 4.5t34.5 3q-5 46 -32.5 276.5t-42.5 379t-23 288.5q3 14 3 31q0 23 -6 51q-10 48 -20 84q-6 19 -6 38q0 17 4 33q10 36 51 56q31 16 51 17h2q18 0 40 -14q22 -15 38 -31 t36.5 -35.5t35.5 -27.5q34 -64 50 -141q18 -77 18 -155v-27q0 -65 -2 -127q-1 -42 -2 -87q0 -36 1 -74q2 -85 15 -150q16 -6 27 -1t22.5 21t15.5 19q14 -1 30 -1q30 1 65 5q54 8 96 16q37 8 82 7h11q52 -1 95 -19q37 -29 65 -70.5t40 -73t30.5 -89.5t28.5 -83 q-1 -6 -5.5 -32t-6 -34t-6.5 -32.5t-8 -34t-10.5 -30.5t-14 -31.5t-17 -27t-22 -26.5t-27 -21t-32.5 -19q-38 -7 -74 -7q-69 -1 -135 23q-101 36 -166 121q-13 -21 -9 -45.5t14 -40.5t21.5 -39.5t12.5 -42.5q-2 -5 -6.5 -16.5t-8 -18t-9.5 -14.5t-14.5 -11t-19.5 -2 q-12 1 -23 1q-28 0 -54 -6q-38 -10 -65 -24.5t-61 -29.5q-34 -14 -66 -20q-14 -3 -30 -3q-22 0 -49 5q-42 0 -63.5 18.5t-23.5 51.5zM147 104q0 -11 9.5 -20.5t21.5 -9.5q5 4 5 9.5t-2.5 9.5t-8 11t-6.5 9q-5 1 -7 0.5t-6.5 -4.5t-5.5 -5zM178 1462l6 -149h27q0 12 1 39.5 t0.5 43t-9 35t-25.5 31.5zM193 1114h12v45h-12v-45zM303 104q3 -1 5 -1q4 1 7 3q5 4 9 9t6 6q-4 10 -27 10v-27zM449 597q-1 -6 -1 -14q0 -29 13 -73q16 -56 18 -70q12 -12 38 -38.5t41 -41.5t42 -38.5t47 -36.5t48.5 -27.5t54.5 -19.5t58 -5t64 9l48 55q14 29 17 63 q2 22 2 41q-1 9 -1 17q-2 24 -15.5 62t-21 54t-29.5 58t-26 51q-32 25 -76 34q-25 5 -54 5q-22 0 -47 -3q-57 -7 -90 -14t-92 -22q-34 -14 -38 -46z" />
<glyph unicode="c" horiz-adv-x="747" d="M76 500q2 60 24 112q34 57 64.5 99.5t72 88.5t91.5 76t106 42q6 -4 16.5 -4.5t19.5 0t19 -0.5q12 24 32 24q8 0 17 -4q32 -13 46 -46l-11 -164q-13 -3 -88 -12.5t-108 -30.5q-25 -9 -43.5 -29t-40.5 -56t-29 -46q-2 -11 -2 -22q0 -36 18 -68q23 -41 64 -62q47 -3 129 -42 t125 -42q24 -17 24 -41q0 -20 -10 -47q-10 -29 -10 -43q-10 -49 -65 -100q-20 -3 -38 -3q-40 0 -65 17q-123 0 -250 117q-3 5 -12.5 23t-18 28t-22.5 17q-27 51 -41 105q-13 48 -14 102v12z" />
<glyph unicode="d" horiz-adv-x="1392" d="M119 598q9 38 33 67.5t49.5 45.5t60.5 40.5t57 47.5q15 -2 32 -2q27 0 60 5q53 8 93 18q31 8 65 8q9 0 21 -1q46 -3 82 -28q11 1 20 -0.5t19 -8.5t14.5 -10t16.5 -14.5t14 -13.5q28 66 41 159.5t15.5 171t21 170.5t57.5 162q0 29 4.5 54t15 49.5t31.5 40t51 16.5 q23 -17 48.5 -13t52.5 12q26 6 48 12q6 1 10 2q16 0 26 -12q14 -16 16 -56q-32 -210 -72.5 -620.5t-54.5 -526.5q26 -20 65 -22q10 -1 20 -1q27 0 50 4q31 6 60.5 -9t42.5 -60l-27 -191q-113 -32 -250 -32q-154 0 -340 40l-35 80l9 74q-26 -11 -89.5 -46.5t-106.5 -55.5 q-44 -20 -106 -20q-1 0 -1 -1q-62 0 -113 37q-88 74 -120 188q-18 64 -18 132q0 53 11 108zM272 645q4 7 19.5 9t24 7.5t3.5 22.5h-10q-4 -4 -17 -9t-19 -11q-3 -4 -3 -9t2 -10zM748 190q116 -47 286 -48q67 0 142 8q16 0 24 12q6 10 6 22v6q-2 16 -5 28t-7 20 q-16 19 -36.5 19t-48 -9.5t-42.5 -9.5q-35 12 -63 48t-31 74q15 149 54.5 523t59.5 596q-16 12 -33 12q-8 0 -17 -3q-26 -9 -44 -36q-53 -136 -87 -309.5t-48 -316.5t-42 -322t-68 -314z" />
<glyph unicode="e" horiz-adv-x="798" d="M68 400q-1 15 -1 29q-1 37 5 75q8 52 17.5 94t24 100t21.5 99q18 37 47.5 62t71 38t74 18.5t82.5 10.5q23 -11 64.5 -16t72 -8t60 -24t40.5 -61q37 -75 47 -157q4 -28 3 -57q0 -54 -13 -111q-54 0 -169 18q-109 18 -171 18h-6q-22 -13 -29.5 -37t-9 -58t-6.5 -50 q3 -33 28.5 -64t57.5 -45q16 -3 36 -3q45 1 107 17q87 24 128 23h3v-114q-7 -7 -11.5 -26.5t-13.5 -32.5t-32 -13q-13 -25 -45.5 -41t-69.5 -21q-120 3 -223 64t-174 168q-13 53 -16 105zM172 594l12 12q45 -4 140.5 -6t176 -8.5t140.5 -22.5l-14 160l-58 94q-48 11 -73 15 q-24 4 -70 10q-28 3 -51 4q-15 0 -27 -2q-30 -4 -66 -16.5t-63 -36.5q-49 -104 -49 -175q0 -15 2 -28z" />
<glyph unicode="f" horiz-adv-x="839" d="M43 719q2 50 29 154q23 90 23 144q0 8 -1 15q17 11 42 1t41.5 -17t41.5 16q8 2 18 2q19 0 48 -6q19 -5 33 -5q20 0 32 9q-12 23 -12.5 49.5t8.5 53t20.5 50.5t24 53.5t17.5 51.5q32 71 86 116q51 40 115 40h12q28 -10 61 -10h9q38 2 69 8q16 4 32.5 4t35.5 -4 q36 -6 65 -31l51 -65q1 -5 5.5 -41.5t4.5 -47t-0.5 -37t-7 -44t-18.5 -35.5q-24 -8 -54 -8q-8 0 -16 1q-40 2 -76 10q-16 3 -32 3q-20 0 -41 -5q-38 -9 -64 -42q-7 -5 -13 -10t-10.5 -12t-7.5 -11.5t-5 -14t-3 -12.5t-1.5 -15t-0.5 -13.5v-15.5v-15q30 -19 76 -22.5 t84.5 -12t62.5 -41.5l-47 -219q-25 -20 -54 -17t-50 17t-47.5 17t-48.5 -17q-28 -3 -37.5 -19t-6 -36.5t3.5 -43.5t-8 -42q-65 -160 -65 -414q-16 -8 -37 -9h-9q-16 0 -30 2q-18 4 -43.5 9t-40.5 6q-13 2 -51.5 -0.5t-61.5 4.5t-34 31q28 226 100 477q-20 16 -56 17 q-9 1 -18 1q-25 0 -48 -3q-30 -4 -58 7t-37 44zM119 760q24 -12 53 -12.5t52 5.5t55 14.5t53 10.5q30 -27 35 -59q-23 -55 -43 -124.5t-30 -114.5t-28 -135.5t-24 -121.5l149 -6q12 143 66.5 383.5t64.5 294.5q-30 35 -76 47q-35 10 -68 10h-18q-37 -4 -84 -4h-14 q-55 1 -94 13q-2 -32 -28 -96q-22 -54 -22 -91q0 -7 1 -14z" />
<glyph unicode="g" horiz-adv-x="1026" d="M45 -315q-1 13 -1 25q0 68 42 110q49 -21 157 -33t163 -45q15 3 39.5 -2.5t43 -10t36.5 5t26 38.5q-6 8 -25 38.5t-31.5 46.5t-37 29t-51.5 7q-31 16 -85 28t-99 22.5t-88 29t-66 56.5q-18 31 -18 75q0 10 1 20q41 28 64.5 42t63.5 29t77 17q17 9 11.5 24.5t-21.5 26.5 q-57 43 -86 116q-24 62 -24 132q0 12 1 25q23 115 117.5 216t208.5 140q19 7 43 7q15 0 32 -3q43 -7 70 -17t68.5 -26t68.5 -23q54 73 104 124t105 73q8 1 16 1q123 0 216 -146q29 -73 29 -123q0 -27 -9 -47q-29 -4 -61.5 11t-52.5 24q-7 2 -17 2q-19 0 -49 -11 q-16 -1 -30.5 -12.5t-20 -19t-19 -31t-14.5 -25.5q2 -29 2 -59q0 -163 -74 -350q-63 -51 -133 -81t-149 -35q-11 -1 -21 -1q-69 0 -131 31q-2 -7 -7.5 -20.5t-8 -24.5t-0.5 -23q43 -22 113 -37.5t124.5 -24.5t110.5 -40t86 -84q33 -31 46 -72.5t20.5 -94t21.5 -85.5 q-23 -13 -43 -39t-32.5 -49t-34.5 -44t-50 -28l-174 6q-16 -11 -37 -11q-5 0 -11 1q-27 3 -47.5 11.5t-49.5 18t-51 9.5h-10q-156 0 -271 88q-31 0 -58 21t-28 51zM129 -293q0 -3 5 -6q6 -4 8.5 -5.5t11.5 -4.5q-5 2 -6 9t-0.5 13t-3 9.5t-13.5 -1.5zM219 434 q11 -50 46.5 -91.5t82.5 -51.5q64 -74 260 -94q21 6 41 13.5t46 22.5t35 20.5t43 28t36 23.5q15 20 25.5 41.5t17.5 52t10 44t8.5 54.5t6.5 46q-22 32 -51.5 94t-37.5 76q-78 72 -170 92q-30 7 -61 7q-63 0 -131 -28q-95 -56 -156 -152q-52 -83 -52 -170q0 -14 1 -28z M680 -92h3q3 0 5 1q4 2 7.5 7t4.5 6t1 3q0 4 -7 14z" />
<glyph unicode="h" horiz-adv-x="1003" d="M78 932q-2 76 -2 145q0 115 6 213q16 2 52 11t63 13.5t59 5.5h6q29 0 53 -10q26 -12 43 -36q-16 -296 -24 -412q16 -11 34 -0.5t38.5 29.5t35.5 22q145 37 202 43q22 2 44 2q58 0 111 -14q36 -36 58 -88t28.5 -104t8.5 -110v-38q0 -37 -2 -69q-1 -17 -1 -25 q-3 -17 -3 -37q0 -27 5 -59q9 -56 13 -92q1 -7 0 -13q0 -31 -15 -76q-25 -13 -57 -21.5t-80 -16.5t-64 -11l-37 43q-2 39 -2 84q1 22 1 45q2 70 3 130v11q0 55 -19 111q-21 62 -69 103q-9 1 -18 1q-39 0 -73 -25q-40 -31 -81 -85q-9 -22 -12.5 -32.5t-7 -27t-2.5 -31 t6 -32.5h-21q15 -94 27 -309q-20 -15 -46 -22.5t-61.5 -13t-52.5 -9.5q-51 15 -79 45t-35 66q-6 31 -6 70v12q1 46 7 89q6 40 6 85v8q0 50 -12 88q-22 142 -28 344zM147 1223v-49q0 -187 19 -487q22 -341 24 -476q19 -7 39 -7q11 0 23 2q32 6 55 27v10q0 77 -28 217 q-30 150 -29 222q21 76 21 227q-1 10 -1 21v25q0 149 17 233l-15 57q-17 -7 -51 -7h-13q-4 0 -7 1q-38 0 -54 -16z" />
<glyph unicode="i" horiz-adv-x="573" d="M100 270q-2 24 -1 49q-1 55 7 119q9 76 10 122q0 12 -1 22l37 315q15 3 49 11t51 10.5t44 -2t50 -19.5l43 -51q6 -46 5 -100q0 -52 -5 -114q-11 -122 -21 -208q-4 -31 -4 -70q0 -65 11 -149q29 -26 29 -54q0 -6 -1 -12q-36 -15 -77.5 -15t-95.5 7.5t-85 7.5 q-39 57 -45 131zM108 1274q-1 5 -1 10q0 20 14 47q16 4 30 16t21.5 22t20 30t16.5 26q43 28 96 37q14 2 28 2q38 0 72 -18q47 -24 56 -84q5 -16 5 -33q0 -27 -12 -53q-19 -44 -57 -68l-96 -57q-12 18 -36 31t-48 19t-49.5 16t-40.5 21.5t-19 35.5zM186 221l125 -31 q-5 38 -5 87q0 89 16 215q24 195 24 256q2 11 2 21q0 19 -8 32q-12 20 -34 26t-50 9q-14 2 -27 2t-26 -2v-16q0 -74 -15 -269q-9 -116 -9 -202q0 -76 7 -128z" />
<glyph unicode="j" horiz-adv-x="688" d="M-162 -205q4 28 19 47q25 24 66.5 39t75.5 22t68.5 31.5t51.5 67.5q38 41 60 103t26.5 106t8 125.5t5.5 107.5q5 43 8 147.5t16 181t48 140.5q41 -19 111 -20.5t131.5 -9t97.5 -41.5v-23q0 -89 20 -157q-72 -26 -105 -26h-5q-22 0 -39 9q-5 -26 -29.5 -142t-32.5 -160 t-23.5 -133.5t-21.5 -159.5t-8 -142q-5 -37 -32 -68.5t-78.5 -70t-63.5 -48.5q-38 -3 -103.5 -40.5t-107.5 -40.5q-52 5 -95 30.5t-63 71.5q-7 18 -7 37q0 8 1 16zM-80 -248q6 -17 19 -24q17 -1 33 -1q83 0 166 37q100 46 177 123q8 62 22.5 138.5t28.5 137.5t27 134.5 t21 136.5q7 59 7 126q0 5 -1 10q0 72 -12 139q11 16 43 30q24 -23 59 -28q9 -1 18 -1q24 0 45 9v26q2 11 2 21q0 35 -23 54q-27 22 -73 22h-8q-19 -12 -78.5 -18.5t-70.5 -26.5q-15 -87 -20 -232.5t-9.5 -249t-42.5 -220.5t-115 -193q-25 -30 -62.5 -49t-80.5 -34.5 t-68 -33.5q-7 -9 -7 -20q0 -6 3 -13zM291 1157q2 21 10.5 39t28.5 36t29.5 25.5t39 26t31.5 19.5q9 2 18 2t17 -1.5t16 -5.5t14.5 -8t14 -10.5t12.5 -11.5t12 -13.5t11 -13.5t11 -14t11 -13q6 -12 9.5 -23t4 -22.5t0.5 -20.5t-4.5 -21.5t-7 -19.5t-10.5 -20t-11 -18.5 t-13 -20.5t-13 -20q-18 -12 -25 -17t-24 -14t-29 -11q-9 -3 -21 -3q-3 0 -5 1q-16 0 -31 7q-19 17 -35 40.5t-22.5 36.5t-21.5 48.5t-17 40.5zM438 1098v30q-2 5 -2 10t3 8q5 7 12 9.5t8 5.5z" />
<glyph unicode="k" horiz-adv-x="1062" d="M63 137q16 56 23 120.5t10 142t8 120.5q44 239 64 420q17 151 17 306q0 30 -1 61q-3 22 13 34.5t33 14.5t22.5 14.5t-19.5 34.5l152 39q41 -24 51 -65q4 -19 5 -37q-1 -22 -7 -42q-12 -38 -24 -92q-10 -40 -10 -69q0 -9 1 -17q-1 -25 -8 -88q-7 -64 -8 -96v-5 q0 -32 10 -85q60 32 224 113.5t247 128.5q14 -9 32 -6.5t33.5 10.5t31 5t24.5 -24q9 -24 -8 -52.5t-16 -43.5l41 -201q-23 -31 -61.5 -47.5t-79.5 -22.5t-82 -13t-78.5 -28t-59.5 -59q14 -33 29.5 -99t36.5 -114t61 -76l10 -143q-27 4 -51 -6.5t-40 -28t-33.5 -35.5 t-33 -30.5t-37 -12.5t-46.5 17q-37 71 -81.5 216.5t-72.5 207.5q-26 -33 -36 -80q-8 -36 -8 -71q0 -11 1 -21q3 -44 4 -95v-25q0 -37 -2 -69q-13 -23 -39.5 -29.5t-51.5 -2t-51.5 -2t-39.5 -29.5q-8 12 -24.5 16.5t-31 4.5t-27.5 8.5t-16 27.5zM401 672q3 -36 19 -80.5 t38 -84.5q21 -41 36 -87q12 -39 12 -70v-12q28 -27 42 -93.5t32 -90.5l118 79q-8 26 -30 104.5t-34.5 117t-37 98t-51.5 104.5q95 101 264 111q18 21 54.5 19t54.5 16q2 12 2 25q0 61 -37 135q-41 -17 -121 -45t-142 -54.5t-114 -60.5q-58 -25 -83 -60q-22 -31 -22 -63v-8z " />
<glyph unicode="l" horiz-adv-x="686" d="M57 180q-4 13 -4 30q1 32 15 77q17 55 17 85q0 7 -1 13q4 34 22 186t23.5 209.5t15.5 175.5t12 212q1 38 1 76q0 57 -2 116q52 19 102 28q24 4 49 5q28 0 59 -6q58 -10 89 -50q0 -8 -1.5 -37.5t2.5 -47t19 -29.5q4 -42 4 -85q-1 -68 -11 -140q-18 -116 -45.5 -242.5 t-33.5 -214.5l-6 -119q79 -55 186 -62q8 -12 8 -32q0 -18 -7 -42q-5 -20 -5 -36q0 -25 13 -39q1 -9 1 -17q0 -16 -5 -26q-8 -16 -27.5 -31t-28.5 -28q-16 -17 -36 -20q-7 -1 -13 -1q-12 0 -22 4q-15 6 -39 17t-35 14q-24 0 -68.5 -3.5t-72 -4t-63 3.5t-63 19t-49.5 42z M135 211q66 -24 110 -24q10 0 19 1q-11 26 -5.5 58.5t15.5 54t23.5 52.5t17.5 53q4 73 23.5 167t37.5 162q17 67 28 163q5 46 5 88q0 45 -6 85q15 28 15 63.5t-7.5 77.5t-7.5 62q-5 23 -19 34q-13 10 -31 10h-5q-22 -2 -40 -6t-43.5 -13t-35.5 -11q4 -70 4 -139 q0 -101 -8 -201q-13 -170 -46.5 -405t-43.5 -332zM446 160q17 0 23 8q-1 6 0 20v10q-1 8 -1 14q-2 10 -7 13z" />
<glyph unicode="m" horiz-adv-x="1699" d="M74 162q26 103 33 213q4 70 4 165q0 54 -1 116q-4 172 -4 214q34 29 88 37q27 4 52.5 4t50.5 -4q50 -8 96 -26l25 -37q-1 -10 -7 -26.5t-11 -29t-3 -27.5t15 -26q35 26 50 36.5t50 33t55.5 32t55 22.5t61.5 16t61.5 1t67.5 -12q32 -18 45.5 -25.5t39 -25.5t40.5 -36 t23 -40q36 8 88 35t96.5 49.5t94.5 38.5q29 9 57 9l43 -5q50 -12 94 -57q52 -40 84 -95t44 -106.5t13 -121.5q0 -11 1 -21q0 -57 -6 -99q-6 -50 -14.5 -124t-11.5 -113q-22 -27 -54 -33q-16 -3 -31 -3q-17 0 -33 4q-32 7 -70 9h-12q-30 0 -54 -8q-19 26 -19 62v7q2 40 13 69 q10 30 22 72q9 33 10 59q0 7 -1 14q5 16 5.5 35t-1.5 45t-2 39q-32 36 -62 50q-26 13 -60 13h-9q-7 -17 -20.5 -16.5t-24 5t-21.5 -8.5q-105 -26 -129 -88q-1 -65 -25.5 -179.5t-27.5 -136.5q-23 -9 -62 -9q-28 0 -62 4q-50 6 -82 6q-24 0 -38 -3l-18 21q1 33 10 133 q9 95 9 161q-1 4 -1 8q0 68 -14 130q-16 31 -72 39q-40 -14 -60 -21.5t-56 -26t-56 -36.5t-38.5 -47t-24.5 -64q-3 -36 -3 -69q0 -23 2 -44q1 -20 1 -42q1 -34 -3 -71q-6 -61 -26 -106q-28 18 -70 19h-12q-36 0 -64 -5q-13 -2 -25 -2q-21 0 -43 6q-36 10 -56 44zM178 188 q11 2 34.5 10.5t34 9.5t34.5 -7q6 73 22 199q17 126 25 230q6 71 5 135q0 30 -1 58q-14 7 -23 7q-7 0 -13 -4q-12 -10 -24 -26.5t-21 -32.5t-26 -15t-41 26l-2 -104v-53q0 -68 1 -192v-76q0 -122 -5 -165zM1006 580q34 2 114 30q60 21 100 21q14 0 27 -2q54 -17 85 -49 q32 -32 42 -68q10 -35 10 -78q0 -48 -8 -92q-7 -41 -12 -88q-3 -28 -3 -52q0 -14 1 -26q24 7 42 1q16 -6 34 -6q0 1 2 1q20 0 33 16q2 44 9.5 124.5t11.5 130.5q1 15 1 31q-1 40 -7 86q-8 66 -32 118q-60 67 -90 87q-34 23 -67 23q-17 0 -33 -6q-22 -19 -61.5 -33.5 t-74.5 -24.5t-67.5 -25.5t-48.5 -44.5q-11 -19 -11 -46q0 -13 3 -28z" />
<glyph unicode="n" horiz-adv-x="1054" d="M78 195q16 95 23 202.5t10 237.5t8 203q19 20 51 24t62 0q7 -1 15 -1q23 0 50 9q4 -5 16 -19t18 -22l16.5 -22t15 -25.5t9 -25.5t3.5 -28t-6 -28q47 52 103.5 92t120.5 65q56 22 115 22q8 -1 17 -1q68 -4 127 -40q80 -142 98 -304q5 -42 4 -84q0 -120 -39 -239 q-28 20 -58.5 10.5t-61.5 -23.5t-56 -24.5t-41.5 7.5t-17.5 71q-10 28 -10 66v11q2 45 9 85q3 19 3 38q0 22 -4 44q-8 42 -37 71q-9 -1 -23 -1q-24 0 -63 2q-19 1 -36 2q-36 0 -62 -6q-38 -8 -64 -38q-2 -22 -2 -54q0 -52 5 -131t5 -134q0 -35 -2 -60q-95 -22 -197 -22 q-52 0 -106 6zM424 637q10 1 47 5t57 5t52 0t59 -7.5t51 -18.5q22 -21 35.5 -48.5t20 -50.5t7.5 -58.5t0 -55.5t-5 -60.5t-5 -54.5q7 -19 27 -21q5 -1 11 0q17 0 39 6q30 8 38 7q17 95 17 191t-17 194q-10 75 -50 109q-35 29 -79 29h-15q-54 -6 -112 -31.5t-106 -64 t-72 -75.5z" />
<glyph unicode="o" horiz-adv-x="993" d="M70 526q4 36 21.5 91t28 80t34.5 81q98 102 230 144q88 28 180 29q45 0 91 -7l88 -47q95 -98 125 -242q13 -60 13 -116q0 -80 -25 -154q-26 -28 -41 -86q-24 -19 -70 -64t-75 -69.5t-76 -42.5q-33 -12 -66 -12q-15 0 -30 2q-7 2 -44.5 14t-47.5 15t-44.5 15t-47 17.5 t-42 19t-43.5 23.5t-38 26t-38.5 31.5t-31 35.5t-29.5 42q-18 42 -22 90q-2 26 -2 48q0 19 2 36zM154 465q12 -17 37 -53t39 -55t39.5 -46.5t47.5 -41.5t54.5 -25t68.5 -11h17q169 0 272 113q71 160 71 282q0 110 -57 189q-25 31 -57 47t-68 16h-2q-38 0 -71.5 -5.5 t-75.5 -22.5t-68 -29.5t-63 -31.5q-88 -52 -142 -142q-44 -74 -44 -150q0 -17 2 -34z" />
<glyph unicode="p" horiz-adv-x="1116" d="M45 745l23 156q95 27 210 27q127 0 279 -33l29 -66l-6 -61q21 9 73.5 39t88 46t86.5 17h4q49 0 92 -30q72 -63 98 -157q15 -52 15 -108q0 -44 -9 -90q-8 -41 -35.5 -67.5t-69 -51.5t-61.5 -47q-12 1 -25 1q-23 0 -51 -4q-44 -7 -77 -15q-24 -6 -51 -6q-10 0 -21 1 q-39 3 -68 23q-13 -2 -26.5 4.5t-20.5 13.5t-20 21q-24 -55 -35 -132.5t-13 -142t-17.5 -142t-47.5 -134.5q0 -51 -19 -89.5t-65 -41.5q-23 13 -52 9t-53 -15q-13 -6 -24 -6q-10 0 -19 6q-18 10 -20 51q20 134 37.5 295t36.5 354.5t31 301.5q-21 17 -53.5 18.5t-58 -3t-50 8 t-35.5 49.5zM132 800q2 -10 5 -16q13 -16 30.5 -16t40 8t34.5 8q30 -11 53.5 -40.5t26.5 -61.5q-14 -139 -47 -443.5t-50 -484.5q13 -8 27 -8q8 0 16 2q22 7 37 31q43 113 71 256.5t40 261t35.5 265.5t56.5 261q-99 39 -237 39q-55 0 -117 -6q-14 -1 -20 -11q-6 -9 -6 -21 t4 -24zM862 414h8q3 3 14 7t16 9q3 4 3 8t-2 8q-3 -5 -11.5 -7t-15.5 -2.5t-11 -6.5q-2 -3 -2 -8q0 -3 1 -8z" />
<glyph unicode="q" horiz-adv-x="1034" d="M57 727q3 8 11 30.5t11.5 32t12 29.5t14.5 30.5t16 27t20.5 26t23.5 21t29 18.5t34 12q96 -2 177 -47t124 -127q13 17 14 37t-5.5 36t-12.5 38t-4 39q3 4 8.5 12.5t9 13t11 11.5t14 7t17.5 -1q25 -7 52 -7q14 0 30 2q42 6 72 17.5t72 14.5h14q35 0 69 -13q37 -7 52 -26 q13 -16 13 -38q0 -5 -1 -9q-3 -29 -12 -57.5t-20 -62.5t-12 -55q-8 -16 -19 -25t-26.5 -11.5t-26.5 -2.5t-31.5 2.5t-29.5 2.5q-4 -61 -11.5 -194.5t-12.5 -218t-14.5 -202t-20.5 -211.5q-10 -32 -10 -71.5t5 -73.5q1 -9 1 -17q0 -25 -11 -47q-15 -28 -53 -39q-23 -7 -39 -7 h-6q-18 2 -35 18.5t-27.5 33t-25 36t-26.5 28.5q-22 58 -22 136v28q5 95 21.5 167.5t32.5 168.5q15 87 15 151v15q-8 8 -18.5 5.5t-16 -6.5t-14 -11.5t-13.5 -10.5q-40 11 -101 11h-6q-4 -1 -9 -1q-59 0 -111 6q-55 6 -98 35q-28 30 -46.5 70.5t-24 67t-13.5 82t-11 73.5z M140 734q-1 -6 -1 -13q0 -19 5 -43q5 -33 9.5 -50t16 -53.5t14.5 -48.5q24 -26 59.5 -40.5t88.5 -17.5q44 -2 69 -2h9q24 1 82 5q25 5 35.5 26t9.5 44t-4.5 56t-2.5 48q-8 12 -30.5 44.5t-34.5 48.5t-35 43.5t-42.5 41.5t-46 29.5t-56.5 19.5q-18 3 -37 3q-13 0 -27 -1 l-47 -38q-16 -24 -24 -52t-10 -50zM614 -242q3 -20 21 -37l16 129l-24 5q-1 -8 -8 -42q-5 -25 -5 -43v-12zM657 -14l11 -2l6 39l-10 2zM707 897q2 -10 20 -14l4 24q-5 2 -9.5 0t-8.5 -5.5t-6 -4.5zM838 903q0 -3 1 -5l5 -10t4 -9q4 -1 5.5 -1t5.5 2t7 3q2 9 -5 19t-17 11 q-6 -4 -6 -10z" />
<glyph unicode="r" horiz-adv-x="788" d="M55 967q9 6 30 6q19 1 51 -5q46 -8 72 -8q10 0 17 1q90 -8 142 -25q10 -6 15.5 -17.5t5 -31t-2 -30t-5.5 -34.5q-3 -18 -4 -26t-1.5 -20t3 -15t10.5 -4t19.5 6.5t30.5 21.5q80 83 155 83q18 0 36 -5q85 -66 85 -217q0 -27 -3 -57q-19 -19 -30 -14.5t-30 14.5t-33 6 q-7 2 -15 2q-28 0 -69 -20q-45 -22 -68 -22q-4 0 -7 1l-92 -139q8 -68 8 -155.5t-23 -149.5q-6 -2 -13 -2.5t-14 2.5q-14 5 -31 15.5t-28 14.5q-16 2 -48 -7t-53 -12.5t-52 13.5q-23 84 -27 184q-2 39 -2 75q0 56 4 104q7 80 14 186q5 75 5 135q0 26 -1 49q-6 11 -20.5 29.5 t-23 34.5t-7.5 33zM163 530q-1 -23 -1 -53q0 -39 2 -91q2 -93 12 -171l127 -10q7 54 7 163q0 72 -3 168q-5 161 -5 256q0 47 1 78q-30 16 -60 16t-61 -16q-2 -34 -9.5 -161t-9.5 -179z" />
<glyph unicode="s" horiz-adv-x="788" d="M41 806q-1 5 -1 9q0 24 13 47q91 189 404 189q33 -5 64 -21t58.5 -42t46 -47.5t42.5 -53.5q-2 -32 -25.5 -46t-52 -13.5t-62 -5.5t-49.5 -23q-18 1 -33 1q-62 0 -92 -16q10 -38 41 -54.5t73 -26.5t62 -27q34 -29 62.5 -73t40.5 -72.5t35 -88.5q-3 -10 -12 -45t-13.5 -49 t-15 -44.5t-20.5 -47t-24.5 -38.5t-33 -37.5t-41.5 -26.5q-14 -4 -40.5 -13.5t-41.5 -14.5q-16 -6 -42 -12q-23 -6 -36 -5h-4q-14 1 -37 4q-33 -1 -66 -1h-32q-48 1 -94.5 20.5t-69.5 57.5q24 21 28.5 48t-3.5 52t-15.5 50t-3 48.5t28.5 39.5q13 4 24 -2.5t13 -17.5 q9 1 29.5 3.5t30 3.5t26 0t27 -5t23.5 -14t23 -25q21 14 46 8t43 1.5t14 41.5q1 9 1 18q0 29 -15 50q-20 28 -48.5 40t-69 28t-59.5 30q-12 17 -33.5 40t-38.5 40.5t-36.5 42t-27.5 45t-11 50.5zM117 778q16 -39 44.5 -67t62 -46t67 -34.5t68 -42t57.5 -58.5q3 -7 12 -26.5 t12.5 -31t8 -28.5t2.5 -33t-9 -32q-7 -7 -19.5 -32.5t-27.5 -36.5t-41 -3q-5 -17 -18.5 -30t-26.5 -20.5t-23.5 -22t-9.5 -35.5q20 -20 47 -22h10q21 1 39 7q22 8 52.5 21t48.5 16q64 45 91 123q24 70 24 149v17q-22 44 -71 80t-94.5 57.5t-89 60.5t-57.5 91q13 39 40 57 q26 18 59 18h9q28 0 58 -3q14 -1 28 -1q21 0 42 2q36 4 59 25q-71 77 -140 77q-23 0 -46 -9q-15 1 -39 9t-42 15q-12 5 -24 5q-6 0 -13 -2q-20 -4 -34 -21q-12 -19 -36.5 -43.5l-42.5 -42.5q-19 -19 -31 -47q-8 -19 -9 -39q1 -10 3 -21z" />
<glyph unicode="t" horiz-adv-x="829" d="M38 809v13q0 25 6 55q8 37 1 57q24 21 62 21h3q40 -1 72 -8q10 -2 20 -2q23 0 48 11q2 22 -0.5 30t3 29.5t5.5 28t7.5 27t9 26.5t10.5 26t11.5 25t11.5 24t11 24q17 -15 40 -16.5t42 5t41 6.5t37 -11q19 -24 23 -57.5t-1 -62t-5 -61.5t10 -55q13 2 37.5 7t38.5 7.5t35 3 t35 -3.5t29.5 -16t27.5 -31q8 -27 8 -53q0 -41 -21 -78q-12 -34 -39 -44.5t-56 -6t-57 7t-48 -15t-23 -62.5q10 -24 10 -57q1 -12 -1 -25q-4 -50 -9 -82q-1 -4 -1 -8q0 -29 24 -67q24 4 60 16t59.5 20.5t59.5 12t60 -11.5q13 -25 14 -55v-8q1 -26 -5 -46q-6 -24 -15 -56 t-10 -54q-34 -52 -92 -83t-138 -55q-23 7 -68.5 15.5t-76.5 16.5t-66 23t-58 43t-32 68q-7 79 -7 127q1 17 1 31q4 52 15.5 148.5t13.5 154.5q-16 9 -37 9t-38.5 -5t-36 0.5t-31.5 26.5q-28 20 -30 51zM244 303q6 -43 34 -68t59 -32t75 -16.5t67 -20.5q45 15 78 30t67 39.5 t52.5 59.5t19.5 80q-19 16 -40.5 17.5t-41 -8t-43.5 -19.5t-47 -16t-51 3q-33 32 -47 84q-11 43 -11 81q1 7 1 14q2 43 8 107q5 54 4 86v11q-26 5 -48 7q-13 1 -32 0h-26q-36 -1 -48 -1q-3 -39 -10 -196.5t-20 -241.5z" />
<glyph unicode="u" horiz-adv-x="983" d="M43 506v7q-1 42 9 102q10 66 18 100t27.5 108t25.5 99q5 27 23 36.5t42 15t37 21.5q122 -19 166 -94q-38 -178 -88 -377q20 -66 51 -86q161 88 161 386q0 22 -1 46q9 33 34 45.5t54.5 8.5t63 -5t59.5 3q14 -58 16 -118q1 -16 0 -34q1 -50 -3 -110q-6 -84 -7 -115 q-17 -15 -20.5 -39t-0.5 -55t1 -43q26 -1 59 -0.5t61.5 1t53 -15.5t33.5 -49q-2 -20 -5.5 -67t-8 -79t-13.5 -57q-20 -1 -59 7q-33 7 -59 7q-5 -1 -9 -1q-30 -2 -53 -21q-25 4 -43.5 17.5t-44.5 39.5q-31 -50 -83 -78q-42 -23 -90 -23q-12 0 -24 1q-263 32 -340 209 q-22 50 -32 106.5t-11 100.5zM120 490q2 -56 20 -121t55 -119q27 -36 68.5 -49t96 -17.5t82.5 -13.5q14 -4 27 -3q22 1 38 11q26 18 50.5 58.5t34.5 50.5q96 239 96 522v33q-11 -2 -34.5 0.5t-40 -2t-27.5 -21.5q-3 -72 -8.5 -123t-20.5 -111.5t-45 -110t-76 -87.5 q-18 -24 -45 -28.5t-52 6t-48 30.5q-36 33 -50 74q-10 28 -10 58q1 13 3 27q6 44 17.5 83.5t28.5 88.5t23 79q10 20 10 39q1 19 -9 37q-18 32 -55 32h-9q-1 -2 -6 -9t-7 -10t-6.5 -9t-8 -8.5t-8 -4.5t-9.5 -2q-24 -74 -37.5 -124t-25.5 -124q-11 -67 -12 -119v-13z" />
<glyph unicode="v" horiz-adv-x="983" d="M-8 888q-1 3 -1 6q0 10 6 18q8 10 18.5 19t22 21.5t15.5 24.5q2 1 4 1q13 0 25 -20q14 -23 29 -24l143 27q42 -51 70.5 -125t42 -139t38.5 -144t58 -135q42 45 125 125.5t151 152.5t121 142q34 -3 49.5 -30t26 -66t27.5 -56l14 -72q-310 -262 -449 -499 q-136 -12 -211 -95q-11 6 -17.5 21t-9.5 28t-12 21.5t-24 3.5q8 28 8 62t-8 74q-15 80 -37.5 138t-49.5 140t-36 143q-20 20 -31 56t-15.5 65t-23 55.5t-53.5 34.5q-14 14 -16 26zM115 862q12 -41 54.5 -142.5t53.5 -162.5q35 -56 50 -128t25.5 -151t33.5 -133l131 35 q-4 12 -33 90t-36.5 99t-31 88t-33 100.5t-25.5 89.5t-26 103.5t-18 95.5q-12 28 -30 34q-9 3 -17 4q-9 0 -19 -4q-18 -7 -40.5 -14.5t-38.5 -3.5z" />
<glyph unicode="w" horiz-adv-x="1603" d="M4 838q5 4 7 10.5t1.5 12t3.5 9.5t13 4q26 -13 50 -6t43.5 28t40 42.5t38.5 36.5q13 11 28 11q7 0 13 -2q22 -6 45 -38q39 -51 100.5 -179t116.5 -189q27 53 73.5 102t88.5 81.5t88.5 80.5t74.5 98h15q79 -97 354 -440q43 56 132.5 196t144.5 207q29 -1 45 -24.5t21 -53 t18 -64.5t36 -52q2 -4 2 -12q-1 -5 -1 -11q-2 -18 -1 -22.5t-5 -20.5t-7 -20t-7.5 -19.5t-8.5 -19.5q-33 -24 -60.5 -54.5t-51 -72.5t-36.5 -69.5t-36 -82.5t-31 -74q-4 -6 -19.5 -28.5t-22 -30.5t-21 -25.5t-24.5 -25t-25 -17.5t-31 -13.5t-33 -2.5q-42 40 -78 99 t-57.5 109t-56.5 107.5t-77 96.5q-16 6 -33.5 24.5t-28.5 32.5t-30 21.5t-37 -7.5q-16 -25 -47 -53.5t-55 -56.5t-33 -64q-24 -59 -103 -164.5t-102 -175.5q-46 46 -77.5 121t-63.5 155.5t-76 131.5q-55 205 -217 373zM142 768q8 -20 30.5 -46t28.5 -36q27 -54 69 -151.5 t80.5 -176.5t81.5 -141l94 115q17 28 7 56.5t-29 47.5t-36 46.5t-15 54.5q-45 42 -79 106.5t-67.5 136t-70.5 117.5l-93 -86q-5 -11 -5 -22t4 -21zM1112 319q19 -113 86 -159q51 43 93.5 110t67 126t66 125t91.5 108q15 20 15 42t-8 38.5t-20 40t-16 38.5 q-51 -54 -106 -139.5t-108.5 -162t-111.5 -124.5q-14 -4 -23 -8t-18 -13.5t-8 -21.5z" />
<glyph unicode="x" horiz-adv-x="1173" d="M61 772q-1 9 -1 18q0 22 8 44q12 32 26.5 49.5t46.5 50t41 41.5q7 1 19 3t22 3q5 0 10 0.5t9 -0.5l12 -12q-56 -56 -109 -176q21 -34 55 -57.5t69 -37t69 -29t63 -44t43 -70.5q-8 -46 -41 -91.5t-69 -77t-74.5 -74.5t-54.5 -83q-7 -5 -7 -14t7 -14l114 -80q37 39 114 161 t140 171q16 53 51.5 99t71.5 75t80.5 70.5t71.5 80.5q11 1 27 14.5t24 16.5q-21 39 -66.5 69.5t-93.5 39.5q-17 -22 -52.5 -85t-70.5 -99.5t-86 -49.5q-32 34 -97.5 83t-107 94.5t-57.5 107.5q47 -5 90 -41.5t88.5 -85.5t83.5 -70q138 112 152 209q21 5 42 5q23 0 47 -6 q45 -11 90 -42t75 -56.5t72 -66.5q-8 -26 -28.5 -44t-44 -29t-47 -23t-41.5 -33.5t-22 -52.5q-22 6 -34 -15v-26q21 -25 60.5 -53t76 -49t72.5 -49.5t57 -57.5q21 -28 21 -69q0 -43 -29 -93q-18 -16 -30.5 -52.5t-29 -62.5t-49.5 -30q-33 33 -106 93.5t-128.5 116 t-91.5 115.5q-30 -46 -71 -71q-28 -37 -92 -145t-109 -156q-5 3 -37.5 23t-43.5 27t-39 26t-43 32t-35 32.5t-35 39.5q-1 26 14.5 47.5t35 34.5t40.5 33t28 41l135 182q-33 42 -93.5 74.5t-118 66.5t-89.5 84z" />
<glyph unicode="y" horiz-adv-x="1173" d="M18 811q5 6 18 13.5t20.5 15.5t6.5 22q19 8 53.5 29.5t58 35t53.5 13.5l1 1q29 0 52 -23q40 -34 70.5 -87t48 -101t45 -104.5t59.5 -93.5q-14 -18 5 -44.5t19 -36.5q41 61 109.5 127.5t129 130t93.5 131.5q8 2 30.5 8t34 8.5t30 4.5t32.5 1q12 -25 38.5 -50t48 -42 t36.5 -44q10 -20 10 -43q0 -9 -2 -19q-21 -53 -65.5 -89t-99 -68.5t-81.5 -64.5q-63 -66 -164.5 -159t-174 -159.5t-155 -162.5t-136.5 -192q-58 -28 -114 -28q-25 0 -50 5q-42 51 -42 146q0 15 1 32q44 63 152 159t147 161q-31 83 -96.5 182.5t-129 198.5t-92.5 186z M82 811l41 -92v20h-8q-12 11 -12.5 34.5t6.5 37.5h-27zM109 -90q-17 -18 -17 -42t17 -56q10 -2 20 -2q26 0 51 14q34 18 54.5 44t50.5 67.5t47 60.5q348 403 712 659l11 35q-53 64 -81 83q-23 15 -44 15q-36 0 -66 -43q-37 -60 -104 -129.5t-128.5 -138.5t-94.5 -141 q-4 -3 -13 -10t-12.5 -10.5t-11 -9.5t-11.5 -10.5t-9 -11t-8.5 -13t-6.5 -13.5q-9 3 -19 -6.5t-15 -15t-17 7.5q-36 -58 -89.5 -115t-116.5 -116.5t-99 -102.5zM209 578h14v20q1 2 1 3q0 5 -4 9q-3 3 -7 3q-2 0 -4 -1v-34z" />
<glyph unicode="z" horiz-adv-x="927" d="M66 286q2 26 34 52q101 101 377 410q-150 17 -260 17q-49 0 -90 -3q-29 6 -36.5 23.5t-1 36t5.5 40.5t-19 35q-1 17 15.5 33.5t29.5 35t6 42.5l14 14q25 -12 39 -59q54 -17 133 -23q57 -5 108 -5q21 1 39 1q26 1 53 0q43 0 89 -2q84 29 144 29q51 0 85 -21q8 -35 8 -68 q0 -40 -11 -78q-20 -70 -69.5 -127t-102.5 -104.5t-119.5 -105.5t-102.5 -103q-4 -5 -1.5 -12t4.5 -10t7.5 -9t8.5 -10q47 -8 150 -14t157 -18q3 -29 3.5 -45.5t-8.5 -46t-16 -46t-20 -45.5t-19 -45q-11 -3 -24 -3q-25 0 -61 10.5t-60 10.5q-13 0 -23 -3h-15q-41 0 -90 14 q-59 16 -113 29q-30 7 -57 7q-24 0 -46 -5q-16 -2 -48 18t-48 8q5 25 -8 53q-13 26 -28 46q-13 17 -13 40v6zM166 817q43 15 102 15q16 0 33 -1q81 -5 141 -13q17 -2 35 -2q48 0 107 15q19 -8 32 -26.5t13 -38.5q-68 -49 -130.5 -110.5t-136.5 -142.5t-118 -124 q18 5 39.5 -2t36.5 -16q14 -9 32 -9h2q18 0 35 19q136 123 363 381q21 56 21 105q0 17 -3 34q-146 -15 -204 -20q-44 -4 -122 -4q-23 1 -50 1q-115 2 -210 19q-26 -21 -26 -48q0 -15 8 -32z" />
<glyph unicode="{" horiz-adv-x="712" d="M60 709q-4 8 5.5 20.5t36.5 24.5q72 31 146 76.5t74 62.5q-1 79 -34 154.5t-34 134.5q-1 44 -4 105.5t-4.5 96t0 80.5t10 75t24 62t44 59t69.5 50q40 23 82 34.5t73.5 11.5t57.5 -3.5t40 -8.5l13 -5l-65 -195l-5 5q-19 10 -73 -29t-71 -90.5t-4.5 -110.5t32.5 -117.5 t38 -133.5t15 -138q0 -33 -12.5 -82.5t-36.5 -79.5q-5 -6 -16.5 -20t-15.5 -18.5t-13 -14.5t-14 -14.5t-13.5 -11t-16 -11.5t-17.5 -10q9 -9 27.5 -19t34.5 -23t26 -36q15 -32 15.5 -107t-7.5 -145.5t-16.5 -138.5t-8.5 -80q0 -24 0.5 -47t0.5 -32.5v-20t0.5 -14.5t1 -10 t2 -12.5t2.5 -15.5t4 -25.5t6 -37.5q73 -64 80 -80q2 -4 45 -32q14 -9 22 -15q43 -49 39 -109.5t-57 -89.5q-34 7 -55.5 9.5t-67.5 13.5q-53 12 -79.5 18.5t-53.5 20.5t-37 22.5t-22.5 35t-18 48t-16.5 70.5q-1 55 24 274t23 289q0 1 0.5 14t0 19.5t-2 21.5t-6 26t-11 25.5 t-17.5 28t-26 25.5q-17 14 -43.5 35t-41.5 33t-31 26.5t-23 24.5t-8 18q1 5 -5.5 15t-10.5 18zM133 698q34 -21 88.5 -67t87.5 -84q21 -25 30.5 -51.5t9 -41.5t-4.5 -37.5t-4 -25.5q-1 -120 -11.5 -228.5t-20.5 -172.5t-9 -84q4 -77 22 -115q29 -65 99 -82q19 -4 38 -10.5 t26.5 -8t23.5 -0.5t43 7q22 -5 6 39q0 15 -69 41.5t-70 40.5q-4 38 -47 159q-2 8 2.5 30.5t11.5 90.5t8 166q0 11 7.5 52.5t14 81.5t4.5 85t-18 70q-17 26 -42.5 51t-55 49.5t-41.5 36.5q84 40 124 73q27 22 50 50q16 22 23.5 53.5t7.5 54t-2 50.5t-2 30q1 41 -11.5 78.5 t-28 61t-28.5 55t-14 61.5q2 92 20 184t52 122l116 63q-2 7 4.5 23t11 28.5t-6.5 25t-43 17.5q-52 -28 -146 -106q-36 -30 -56.5 -65t-25 -77t-3.5 -76t6 -88t5 -87q1 -45 14 -81.5t27.5 -58.5t26.5 -65.5t12 -102.5q0 -38 -99 -117.5t-163 -97.5z" />
<glyph unicode="|" horiz-adv-x="491" d="M139 -236q15 135 17.5 810.5t21.5 818.5q9 32 11 92.5t11 108t38 75.5q12 -5 24 3t22 16t37.5 -2t69.5 -46q-19 -40 -38.5 -566.5t-35.5 -567.5q-20 -652 -16 -692q20 -23 1.5 -55.5t-50.5 -47.5q-24 -7 -48.5 -21t-34.5 -21t-19 -3.5t-10.5 26t-0.5 72.5zM225 -219l19 6 l-8 25z" />
<glyph unicode="}" horiz-adv-x="712" d="M41 1739q5 2 14 5t38 8t58.5 4t72.5 -12t83 -34q41 -24 69.5 -50t44 -59t24 -62t10 -75t0 -80.5t-4.5 -96t-4 -105.5q-1 -59 -33.5 -134.5t-33.5 -154.5q0 -17 73.5 -63t145.5 -76q27 -12 36.5 -24.5t6 -20.5t-10 -18t-5.5 -15q-1 -8 -8.5 -18t-23.5 -24t-31 -26.5 t-41 -33t-44 -35.5q-15 -12 -26 -25.5t-17.5 -27.5t-10.5 -25.5t-5.5 -26t-2 -22t0 -20t0.5 -13.5q-2 -70 23 -289t24 -274q-11 -49 -16.5 -70.5t-18 -48t-22.5 -35t-37 -22.5t-53.5 -20.5t-79.5 -18.5q-46 -11 -67.5 -13.5t-55.5 -9.5q-53 29 -57 89.5t38 109.5 q65 43 67 47q9 16 81 80q4 28 8 52t5 27t2 17t0.5 19t0 35.5t0.5 64.5q0 12 -8.5 80t-16 138.5t-7 145.5t15.5 107q10 23 26 36t34.5 23t27.5 19q-8 4 -16 9t-13.5 8.5t-13 11t-11 10.5t-13 13.5t-12 13.5t-14 16.5t-14.5 17.5q-24 30 -36.5 79.5t-12.5 82.5q-3 63 15 138 t38 133.5t32.5 117.5t-4.5 110.5t-71 90.5q-65 46 -78 24zM143 -264q-14 -41 2 -40q2 0 5 1q27 -6 43 -7t23.5 0.5t26.5 8t38 10.5q18 4 33 12t26 16t20 21t15 22.5t10.5 25t7 24.5t4.5 24t2.5 20.5t0.5 18.5l1 13q1 20 -9 84t-20.5 172.5t-11.5 228.5q0 3 -4 25.5 t-4.5 37.5t9 41.5t30.5 51.5q33 38 87.5 84t88.5 67q-41 10 -70 8t-44 -9l-15 -7q-12 -12 -41.5 -36.5t-55 -49.5t-42.5 -51q-16 -25 -18 -70t4.5 -85t14 -81.5t7.5 -52.5q1 -98 8 -166t12 -90.5t3 -30.5q-43 -121 -47 -159q-1 -14 -70.5 -40.5t-69.5 -41.5z" />
<glyph unicode="~" horiz-adv-x="976" d="M27.5 1144.5q-2.5 34.5 5 65t14 69t2.5 64.5q5 12 21 66q37 2 79 23t73.5 45.5t75.5 44t85 18.5q42 9 71 4t56.5 -21.5t48 -38.5t45 -45.5t47 -42.5t54.5 -30t67 -8q18 -2 46 8.5t48 21t40.5 5.5t31.5 -35q-9 -35 -13 -99t-7.5 -109t-28 -90t-72.5 -63q-18 -13 -40.5 -14 t-36 3t-41.5 16.5t-35 15.5q-27 19 -51 52t-38.5 61t-39.5 54.5t-58 35.5q-40 16 -83.5 13.5t-75 -11.5t-70 -28.5t-67 -38t-65.5 -39t-67 -32.5q-19 25 -21.5 59.5zM115 1221q24 9 56.5 24t57.5 27.5t56.5 25t59 18.5t59.5 4.5t63 -13.5q32 -8 61 -28.5t48.5 -45.5 t42.5 -53.5t44 -52t51.5 -40t65.5 -18.5q29 14 47 41.5t23 54t11.5 66.5t12.5 61q-6 -1 -30.5 -7.5t-36 -8.5t-31.5 -4t-36 1.5t-31 12.5q-31 1 -56.5 14t-42.5 32t-35 41.5t-33.5 42.5t-38 34.5t-48.5 17.5t-66 -8q-18 -10 -63.5 -20t-72.5 -28.5t-30 -59.5 q-17 -3 -29.5 -15t-18.5 -24t-19.5 -21t-34.5 -6z" />
<glyph unicode="&#xa1;" horiz-adv-x="491" d="M43 207q1 36 17.5 284.5t9.5 380.5q36 15 81 21t101.5 9t85.5 7l20 -37l-6 -700q-2 -14 -10.5 -20.5t-17.5 -7.5t-20 -5.5t-17 -13.5q-23 16 -61.5 21t-70.5 4t-64 12.5t-48 44.5zM58 1138q-6 22 3.5 39.5t32.5 32.5q63 75 121 82q30 -5 48 -9.5t43.5 -14.5t41 -27.5 t21.5 -42.5q0 -31 -1 -61.5t-3 -55.5t-18 -48.5t-46 -39.5q-9 0 -38.5 0.5t-43 1.5t-35.5 4t-38.5 11t-30.5 20q-4 7 -20.5 32t-23.5 39.5t-13 36.5zM94 264q5 -33 27 -45t49.5 -7.5t58 4.5t52.5 -9q20 121 14.5 203t-14 208.5t-0.5 208.5q-26 -10 -52.5 -6.5t-55.5 1 t-42 -20.5q-1 -12 -9 -224.5t-28 -312.5z" />
<glyph unicode="&#xa2;" horiz-adv-x="747" d="M76.5 499.5q1.5 60.5 23.5 112.5q61 103 123.5 175t143.5 108q4 125 9 124q4 -2 6 6t5 28q9 32 10.5 92.5t10.5 108t38 75.5q15 -6 18 9q2 13 9 13q16 -1 74 -51q-14 -29 -20 -50.5t-12 -96t-11 -221.5q18 13 43.5 -3t36.5 -42l-11 -164q-38 -9 -79 -12q-6 -162 -21 -205 q-1 -23 -2 -73t-2 -75q84 -41 129 -45q23 -16 24 -37.5t-9.5 -50.5t-10.5 -43q-10 -49 -65 -100q-48 -7 -76 2q-7 -258 -4 -270q20 -23 1.5 -55.5t-50.5 -47.5q-42 -13 -67 -46q-2 -2 -1 1q7 59 8 98q11 96 14 342q-86 23 -178 107q-3 5 -12.5 23t-18 28t-22.5 17 q-27 51 -41.5 104.5t-13 114zM264 549q-7 -49 16 -90t64 -62q3 0 10.5 -1t10.5 -1q0 187 2 279q-22 -10 -39.5 -30.5t-36 -52t-27.5 -42.5zM381 -219l18 6l-8 25z" />
<glyph unicode="&#xa3;" horiz-adv-x="1093" d="M31 162q1 14 18 84t10 102q-2 10 9.5 15.5t33.5 7t48.5 1.5t57.5 -2t59 -4t53.5 -3.5t39.5 -0.5q21 158 37 246q-24 13 -57.5 12.5t-64.5 -8t-59 1.5t-40 41q-3 51 14.5 157t8.5 159q13 10 30.5 7.5t32.5 -10t32 -5.5t30 20q20 8 66 1t65 9q-18 27 -18 62.5t10 64t24 69 t18 66.5q26 75 76 124.5t121 50.5q34 -8 71.5 -3.5t68 13.5t67.5 6t68 -25l57 -61q2 -8 9 -42t8.5 -46t3 -37t-3.5 -43.5t-15 -36.5q-27 -14 -69 -14.5t-76.5 4t-72.5 -7.5t-61 -47q-28 -22 -32.5 -57t2.5 -66q32 -16 78 -16t85.5 -5t65.5 -35l-29 -223q-19 -19 -41.5 -21.5 t-42 5l-39 15t-39.5 5.5t-36 -20q-28 -6 -36 -23t-2.5 -37t7.5 -43.5t-4 -42.5q-22 -78 -31 -149q-1 -7 20 -9t55 -0.5t75.5 4.5l83 6t76 4.5t56 -0.5t21.5 -9q0 -38 -6 -142.5t-14 -128.5q-16 0 -57.5 -1t-73 -1t-94 3t-136.5 10q-12 -10 -50 -8t-73 9t-75 14t-56 7 q-3 0 -103.5 -4t-175.5 2t-89 29zM248 702q21 -12 53 -8.5t52.5 11t51.5 19t52 15.5q33 -23 41 -57q-18 -56 -32 -129t-19.5 -112.5t-17 -141t-13.5 -121.5l149 6q0 145 33.5 391.5t38.5 296.5q-32 32 -78 41t-89.5 1t-95 -11.5t-95.5 4.5q1 -32 -20 -98.5t-11 -106.5z" />
<glyph unicode="&#xa4;" horiz-adv-x="1196" d="M41 324q36 31 85 60.5t77 33.5q-6 82 15 181.5t56 178.5q6 6 -18.5 27t-54 50.5t-29.5 53.5q0 16 11.5 32.5t31 31t36 24.5t35.5 20t21 11q10 7 68 -63.5t69 -65.5q152 70 332 45l88 -47q41 -41 62 -82q3 -5 39 20t71.5 49.5t38.5 18.5q1 -1 27.5 -32.5t42.5 -64.5t4 -56 q-11 -20 -53 -36t-77.5 -25.5t-33.5 -16.5q38 -144 -8 -287q-26 -28 -41 -86q-5 -5 22.5 -24t60 -47.5t34.5 -53.5q1 -19 -18.5 -42t-42.5 -38.5t-47.5 -31t-26.5 -17.5q-6 -6 -31 29.5t-50 71.5t-32 30q-95 -77 -187 -63q-21 7 -61 18.5t-60 18t-52.5 19.5t-53.5 25.5 t-47 33t-49 46.5q-2 2 -39.5 -32t-82 -68t-60.5 -31q-21 5 -37 46.5t-25 87.5t-10 47zM274 465q12 -16 37.5 -53t39 -55.5t39.5 -46.5t48 -41.5t54.5 -24.5t68.5 -11q181 -6 289 113q134 303 14 471q-25 30 -57.5 46.5t-70 16t-71 -5.5t-75.5 -22t-68 -29.5t-63 -31.5 q-88 -52 -142.5 -142.5t-42.5 -183.5z" />
<glyph unicode="&#xa5;" horiz-adv-x="1146" d="M55 1167q170 63 238 146q55 -13 94.5 -54.5t58.5 -87t46 -105t55 -93.5q12 -11 21 -41t21 -46t38 -7q11 43 39 85t60 76t63.5 69t54.5 78t28 89q34 17 50.5 0.5t31 -49.5t35.5 -43q9 -23 31.5 -41.5t43.5 -28t39.5 -25t19 -32t-18.5 -49.5q-30 -47 -73.5 -96t-79 -83 t-75 -84t-65.5 -102q-2 -5 29 -9q19 -3 72 -6q100 -8 100 -16q-3 -4 -4 -21.5t-1.5 -42t-2.5 -38.5q0 -2 -2 -11.5t-2.5 -12.5t-3 -12t-4 -12.5t-5 -10t-7 -10t-8.5 -7.5t-11 -6q-39 -11 -89.5 -2.5t-95.5 17.5t-47 3q-5 -15 -7 -46t-3 -38q-1 -6 57 -8.5t116 -5.5t58 -10 q0 -2 -8 -23.5t-15 -46.5t-5 -35q6 -28 0 -43t-29 -28q-17 -4 -28 -1t-34 12t-38 11q-86 11 -86 4q0 -15 -16 -75.5t-17 -75.5l-25 -14l-229 8q-9 6 -4 78t4 84q-2 8 -25 13t-57 1q-14 -1 -40 -7.5t-40 -9t-31 2.5q-16 9 -21.5 31.5t-2.5 43.5t7.5 43t4.5 25t12.5 9t34 11 t41.5 4q29 -2 56 -1t46 4t19 6q0 15 -2.5 48t-1.5 50q1 6 -55.5 0.5t-105 -11t-56.5 0.5q-8 0 -10 6.5t-2 26.5t-3 38q-2 9 -9 27.5t-12 32t-5 28t8 21.5q6 6 24.5 -4.5t44 -22t46.5 -4.5q35 10 40 33q2 8 -3 8q-11 60 -40.5 115.5t-64 98.5t-69 87.5t-60.5 100.5t-33 118z M121 1147q8 -54 36 -109t63 -101t70 -92.5t62.5 -101t34.5 -108.5q5 -8 13 -22t25 -43t26 -48t6 -18l41 -7q42 -7 78 -12t42 -4q1 0 20.5 1.5t43 3t48 2t34.5 -0.5q19 -4 59 -21.5t74 -10.5q21 5 36 49t15 61q0 10 -37 15.5t-73 5.5h-37q-2 -1 -6 -2.5t-15.5 -4.5t-21 -4.5 t-19.5 -0.5t-16 6q-17 15 -15.5 36.5t13.5 24.5q74 142 260 332q37 23 44.5 45t-9.5 41.5t-39.5 36t-46 34.5t-29.5 31q-8 -35 -33 -71t-52 -62.5t-57.5 -62.5t-45.5 -66q4 -29 -11.5 -53.5t-44 -51.5t-39.5 -44q-30 -21 -63 20q-22 90 -105 237t-106 205l-41 13 q-35 -26 -59 -41.5t-59 -28t-64 -8.5z" />
<glyph unicode="&#xa6;" horiz-adv-x="491" d="M139 -236q14 126 17 596q28 2 66.5 7.5t52.5 7t49 -1.5q-1 -26 -1 -91t-1 -94q-3 -102 -9 -194.5t-9.5 -134t-2.5 -45.5q20 -23 1.5 -55.5t-50.5 -47.5q-24 -7 -48.5 -21t-34.5 -21t-19 -3.5t-10.5 26t-0.5 72.5zM162 1065q5 48 8.5 172t7.5 156q9 32 11 92.5t11 108 t38 75.5q12 -5 24 3t22 16t37.5 -2t69.5 -46q-21 -44 -37 -538q2 -14 -12 -25t-28 -15l-15 -5q-38 -4 -137 8z" />
<glyph unicode="&#xa7;" horiz-adv-x="1040" d="M29 356q26 26 52.5 34.5t68.5 10t65 5.5v-10t4 -24t11 -34t23 -34.5t38 -31.5q16 -26 40 -29.5t45.5 6.5t50.5 23t48 15q33 5 62.5 29t29.5 57q5 23 -16 30q-19 0 -58.5 -1t-60.5 -1q-28 32 -98 85.5t-103 103.5q-76 120 -90 149q-30 180 125 338q31 16 64 27q-5 8 -8 16 q-30 181 124 338q73 34 147 54.5t160 20t154 -31.5l47 -47q-15 -145 -80 -229q-19 7 -56 25t-60.5 28t-56 9.5t-60.5 -19.5q-20 -15 -21.5 -31.5t12 -30.5t27.5 -23t29 -16q217 -99 305 -274q25 -103 -6 -207t-106 -186q-18 -14 -60 -35q10 -93 -22.5 -183.5t-98.5 -162.5 q-47 -34 -99 -54.5t-116.5 -29.5t-109 -11.5t-123.5 -3.5q-30 34 -79 76t-76.5 67.5t-48.5 75.5t-19 117zM382 836.5q-5 -62.5 7 -99.5q15 -15 48 -43.5t46 -36.5q25 -8 35 -10q26 -2 75.5 9t61.5 12q33 5 63 29t30 57q1 19 2.5 28t-5.5 25t-10.5 22.5t-12.5 21.5t-13 21 q-9 5 -47.5 28.5t-61.5 31.5q-3 0 -22 2t-28.5 2.5l-28.5 1.5t-31 0t-27 -2.5t-27 -5.5t-20 -10q-29 -21 -34 -83.5zM389 1245q-32 -135 53 -172q19 -31 54 -48.5t68 -22t72 -17t64 -33.5q56 -31 88.5 -83.5t32.5 -114.5q-18 -22 -41 -62.5t-22 -58.5q-26 -8 -28 -35.5 t18.5 -55.5t50.5 -38l143 178q18 48 18 92t-13.5 78.5t-39 67.5t-56.5 59t-69 53t-72 49t-70 48t-60 49q-1 2 -4 11t-3.5 11.5t-3 11t-3 12t-2 11.5t-1 12t0.5 11t1.5 12t4 11t5.5 11q19 29 44.5 44t59 14.5t57 -4t64.5 -14t56 -13.5q34 60 37 115q-48 43 -137 39 q-82 28 -201 -39q-25 0 -46.5 -11t-40 -36t-28.5 -42t-28 -53.5t-23 -46.5z" />
<glyph unicode="&#xa8;" horiz-adv-x="911" d="M20 1372q-4 35 18 63.5t54 39.5q26 13 53 10t43.5 -12t42 -20t48.5 -13q38 -38 42.5 -91t-12.5 -100q-99 -90 -231 -71q-29 14 -43 38t-14.5 49t0 54t-0.5 53zM475 1260q16 42 32 74t40 66.5t57.5 57.5t73.5 33q49 5 99.5 -34.5t80.5 -88.5q35 -49 -16 -131 q-6 -4 -37 -28t-44 -33t-42.5 -24.5t-49.5 -17.5t-47.5 2t-52.5 21zM575 1277q0 -29 15 -48q25 -15 63 -15t60 15q7 6 21 15.5t23.5 15.5t22 17t16.5 20.5t8 24.5t-3 30q-4 4 -12 13t-12.5 13t-12.5 10t-14.5 8t-16.5 2t-20 -3q-7 -22 -28.5 -27t-42.5 -1t-37 -5.5 t-15 -40.5q-15 -15 -15 -44z" />
<glyph unicode="&#xa9;" horiz-adv-x="1482" d="M105 701.5q-4 34.5 0.5 78.5t8 73.5t17.5 77t21.5 72t28 74.5t28 68.5t29.5 68.5q154 158 360 224t424 35l137 -74q99 -101 155 -240.5t59 -280t-38 -278.5q-7 -8 -13 -16.5t-10.5 -15.5t-9.5 -17t-7.5 -15.5t-7 -17.5l-6 -16t-6 -18t-5.5 -17q-35 -29 -87.5 -81 t-91.5 -87.5t-89.5 -71t-107 -49.5t-118.5 -4q-210 67 -280 96q-230 96 -335 252q-9 14 -18 29q-16 37 -25 76.5t-13 74zM188 682q112 -153 160 -208q179 -202 357 -202q130 -4 267.5 57.5t227.5 162.5q51 116 69.5 251.5t-8 281t-102.5 251.5q-57 70 -148.5 100.5 t-188.5 23.5t-185.5 -31.5t-159.5 -61.5q-84 -49 -156.5 -160t-108.5 -238.5t-24 -226.5zM438 893q18 46 34.5 79.5t41 72t56.5 66.5t71 44q8 -1 21.5 1.5t19.5 2.5q11 23 132.5 16.5t189.5 -28.5q6 -1 11 -5.5t8 -8.5t6 -9l3 -4q-6 -32 -16 -71q-2 -7 -5.5 -27t-8.5 -31.5 t-15 -15.5q-8 -4 -20.5 -7t-21.5 -4l-9 -1q-55 24 -114.5 26t-99 -10t-60.5 -29q-55 -32 -80 -94q0 -69 59 -90q25 -22 36 -30t33 -20.5t41 -13.5t51 0t72.5 10.5t96.5 26.5q19 -9 22.5 -25t-1 -39.5t-3.5 -33.5q1 -21 -13 -72.5t-26 -70.5q-22 -5 -106 -7.5t-105 3.5 q-93 -16 -194 55q-5 4 -13.5 14t-16.5 16.5t-19 10.5q-38 47 -55.5 141.5t-2.5 161.5zM474.5 762q16.5 -69 53.5 -115q56 -54 181 -97t190 -22q17 18 31 76t16 92q-8 5 -12 4t-15 -7t-16 -7q-95 -25 -178.5 -9.5t-130.5 56.5q-33 21 -50.5 63t-8.5 83q-7 4 -22 7.5t-27 5.5 l-11 1q-17 -62 -0.5 -131z" />
<glyph unicode="&#xaa;" horiz-adv-x="497" d="M88.5 1069q-4.5 46 5.5 86q24 35 58 42t83 -3t62 -10q11 6 12 12t-1.5 16t-0.5 19q-2 22 -69 49q-26 5 -58 -4.5t-53 -9.5v57q3 4 1.5 11t-4.5 14t-1.5 12.5t10.5 5.5q3 5 9.5 8.5t17.5 6.5t17.5 4t20 3.5t15.5 2.5q99 -3 162 -60l14 -106q3 -20 5 -50.5t5 -50.5 q1 -9 -2 -20.5t-3.5 -17.5t5.5 -19q6 -9 13 -13.5t19.5 -9t19.5 -8.5l-15 -45l-22 -26q-27 -15 -68 20q-8 -6 -15.5 -10.5t-13.5 -7t-15.5 -4t-14.5 -2t-18 -1.5t-19 -2q-14 5 -36 4t-42.5 -5t-38 3t-22.5 27q-18 36 -22.5 82zM141 1057l29 -47q13 -3 34.5 -10t31 -8t25 4 t32.5 20q6 13 8 45t1 58l-1 26q-20 2 -40 8t-30 8.5t-30.5 -3.5t-50.5 -25z" />
<glyph unicode="&#xab;" horiz-adv-x="1126" d="M58.5 595.5q-1.5 9.5 7 20.5t14 17.5t18 14.5t20 12.5t19.5 10.5t17 9q40 27 152.5 86.5t160.5 101.5q3 -1 14.5 -7t14.5 -8t10.5 -7.5t10 -11t5 -14t2.5 -19.5q8 -14 33.5 -43.5t37 -55t1.5 -51.5q-35 -13 -69 -34.5t-78.5 -56.5t-63.5 -48q18 -20 58 -39.5t72 -43.5 t46 -62q-60 -55 -78 -81q-29 -42 -30 -89q-4 -13 -9.5 -21t-13.5 -11t-14.5 -4.5t-17 1.5t-16 4.5t-17 7t-15.5 6.5q-20 26 -74 91t-82.5 101.5t-67.5 93t-65 105.5q-1 15 -2.5 24.5zM147 578q9 -28 20.5 -54t29.5 -53.5t29.5 -45t38.5 -48t36 -41t43 -46t41 -42.5 q69 89 74 143q-60 21 -106.5 62t-65.5 96q20 13 98 59.5t119 77.5v16q-3 26 -19 42t-43 16q-44 -45 -148 -92.5t-147 -89.5zM612.5 483q-1.5 25 20.5 66l6 45l283 252q18 2 31.5 -8t18 -19.5t13.5 -30.5q6 -82 -20 -153l-14 -14t-16.5 -17t-15 -16t-16.5 -19t-12.5 -18.5 t-12.5 -22.5t-8 -22q37 -23 52 -33.5t40 -32.5t37.5 -46t16.5 -54q-26 -12 -43 -31t-39 -58.5t-27 -47.5q-3 -14 0 -28t0.5 -28t-14.5 -18q-29 3 -48 22t-26 41t-20.5 49t-30.5 42q-8 28 -33 56t-50.5 46.5t-48 45.5t-24 52z" />
<glyph unicode="&#xac;" horiz-adv-x="1341" d="M106 496q2 15 1.5 63.5t10.5 75t44 41.5q34 1 167.5 13t202.5 9q14 1 110 6.5t130.5 6.5t109.5 2t132.5 -3t115.5 -12q69 25 130 -12q16 -39 -31 -86q-7 2 -3 -59t14 -148t19.5 -180.5t13.5 -157.5t-3 -78q1 -22 -16.5 -30t-47.5 -6t-63.5 5.5t-70 1t-60.5 -15.5 q-6 20 0 111.5t4 138.5q-1 25 -13.5 107t-5.5 112q-39 19 -146 21t-215.5 -7t-214.5 -15.5t-138 -2.5q-15 9 -50 12.5t-63 5.5t-48 21.5t-16 59.5zM162 565.5q-1 -33.5 10 -55.5q30 -24 74 -34.5t78.5 -11t87.5 2t75 2.5q86 -11 298 -0.5t313 -11.5q15 29 12.5 50.5t-9 57.5 t-1.5 58q-27 4 -66 11t-67 12t-62 9t-68.5 2.5t-68.5 -8.5q-28 -2 -82 4t-97 2.5t-79 -26.5q-38 10 -82.5 10.5t-80 -4.5t-83.5 -11.5t-82 -7.5q-19 -17 -20 -50.5z" />
<glyph unicode="&#xad;" horiz-adv-x="849" d="M92 383q16 32 19 81.5t0.5 91t9.5 85t43 68.5q42 -30 146 -43.5t145 -36.5q30 -4 83.5 1t98.5 2.5t80 -24.5q13 -40 -3 -123t3 -129l-31 -30q-81 -9 -122 -7.5t-116.5 7.5t-123.5 6l-27 14q-23 7 -55 4t-61 -9.5t-54.5 3t-34.5 39.5zM180 428q34 -10 64 -7t66.5 -1 t58.5 -23q46 13 137 3t137 3q-1 24 15 73t8 81q-76 -4 -242 18.5t-223 24.5q-27 -83 -21 -172z" />
<glyph unicode="&#xae;" horiz-adv-x="942" d="M27 1456q43 134 146.5 240t227.5 153q34 -11 93.5 -20.5t103.5 -17t93 -30.5t79 -61q82 -83 110 -197.5t1 -234.5q-28 -16 -33 -69t-14 -68q-38 -86 -129.5 -148t-194.5 -92q-40 11 -111.5 19.5t-127.5 23.5t-99 50q-201 201 -145 452zM90 1202l98 -129q17 -35 51 -50 t66.5 -14.5t72 -2.5t62.5 -15q26 -3 42 -5.5t40 5t38.5 12.5t37 17.5t36.5 21.5t36 23t35 22q38 17 57 53.5t33.5 84.5t33.5 73q1 4 8 33t9 40t2 31t-6 34q10 149 -142 293q-110 55 -243 55q-14 -6 -41 -11t-47.5 -14t-34.5 -30q-19 0 -58.5 -31t-46.5 -35 q-92 -91 -133.5 -211t-5.5 -250zM190 1143q7 39 57 161.5t48 188.5q19 44 31 154q0 34 14 32q-2 -15 5 -20t18.5 -5t15.5 -3q58 24 124 25.5t125 -28t81 -89.5q16 -148 -64 -195q-4 -8 -17.5 -13t-13.5 -16q14 -19 62 -63.5t61 -75.5q3 -15 -14 -26t-40.5 -19t-27.5 -12 q-8 -15 -56 -35.5t-62 -11.5q-21 40 -36.5 123t-27.5 114q-15 19 -24 17q-8 -7 -9.5 -22t-9.5 -24q-16 -25 -16 -79.5t-23 -81.5q-12 -2 -80 -2.5t-90 -12.5q-8 -3 -18 4t-13 15zM432 1628q12 -53 6 -104t2 -113q21 -20 45 -31q0 -2 1 -5.5t1 -6.5q1 -11 3.5 -20.5t8 -21.5 t7.5 -19q3 -10 9.5 -55t23.5 -68q16 -20 41 -37l63 24q24 21 31 41q7 21 -8 38t-40 36t-34 37q-6 9 -8 26t-4 23q98 39 98 162q-6 29 -25 49t-51.5 31.5t-55 16t-61.5 9.5q-13 2 -26 -1t-20 -7z" />
<glyph unicode="&#xaf;" horiz-adv-x="976" d="M72.5 1149.5q-2.5 34.5 5 65t14 69t2.5 64.5q6 15 21 65q138 8 289.5 -14.5t302.5 -9.5q18 -2 45.5 8.5t48 21t40.5 5.5t31 -35q-10 -38 -7 -72t4.5 -67t0 -59.5t-20.5 -50t-58 -38.5q-18 -13 -41 -14t-36 2.5t-42 16.5t-35 15q-11 1 -86 9t-109.5 9t-101.5 0t-126.5 -14 t-119.5 -36q-19 25 -21.5 59.5zM158 1178q252 11 372 8q90 -3 224 -12q38 17 46.5 38.5t2.5 46t6 64.5q-6 -1 -30.5 -8t-36.5 -8.5l-32 -4t-36 1.5t-31 13q-72 2 -90.5 2.5t-48 3t-40.5 5t-67 11t-129 17.5q-17 -3 -29.5 -15t-18.5 -24t-19.5 -21t-34.5 -6z" />
<glyph unicode="&#xb0;" horiz-adv-x="655" d="M70 1225q-22 157 166 317q55 12 108.5 14t105.5 -22t80 -72q63 -104 11 -245q-38 -41 -81.5 -64t-95 -27t-92.5 -0.5t-102 13.5q-79 43 -100 86zM199 1376q-21 -73 16 -166q37 -13 81.5 -16t92 9.5t78.5 41.5q22 33 27 65.5t2 80.5l-52 71q-28 16 -56 18t-55 -10.5 t-46 -25.5t-47 -36t-41 -32z" />
<glyph unicode="&#xb1;" horiz-adv-x="1105" d="M84 761.5q-1 25.5 0.5 45t8.5 50.5t11.5 45t16 49.5t14.5 45.5q30 30 72 36.5t109 -1t92 -6.5q5 -6 13 -7.5t18 -0.5t14 0q25 125 63 346q27 -2 70.5 7.5t72 14.5t74.5 -8l31 -71q-20 -70 -15 -157.5t35 -145.5q26 -2 54.5 0t59 -0.5t56.5 -8.5t47.5 -24t30.5 -47 q-9 -14 -22.5 -55t-32 -63.5t-53.5 -25.5q-51 -12 -91 -8.5t-89 0.5t-82 -22l30 -326l-22 -35q-29 5 -76.5 -6.5t-84 -23t-75 -1t-61.5 53.5q25 39 30 100.5t-0.5 112t5.5 104.5q-37 2 -150 -14.5t-166 -1.5q-7 23 -8 48.5zM109 47q13 26 14.5 53.5t-2.5 48t-6 41.5t7.5 42 t35.5 42q7 16 65.5 30t132.5 13t115 -24q26 -3 99.5 7.5t143.5 22t142.5 14.5t97.5 -15q13 -40 -5 -126.5t1 -132.5l-53 3q-44 -7 -110 -21.5t-119 -22.5t-111 -8l-244 -4q-23 7 -55 4t-60.5 -9.5t-54 3t-34.5 39.5zM164 780l108 15q24 -3 55.5 3t55 13t50.5 6t48 -16 q8 -63 -7.5 -194.5t-14.5 -182.5q25 3 77 16t82 15q18 41 16.5 94t-10.5 91.5t-17 92.5t-3 98q8 20 24 21t37.5 -7t32.5 -7q24 6 62.5 7t74.5 -0.5t69 14.5t46 50q-48 20 -151 26.5t-144 18.5q-16 0 -58 -24.5t-65 -5.5q-39 -12 -105 12t-103 18q-20 -22 -62.5 -12 t-60.5 -12q-23 -28 -32.5 -70t-4.5 -80zM199 76q9 0 60.5 0.5t92.5 -0.5t86.5 -8.5t63.5 -22.5q46 12 189.5 35.5t189.5 36.5q-1 24 14.5 72.5t7.5 80.5q-138 -8 -366 -16.5t-322 -5.5q-23 -70 -16 -172zM550 1338q-6 -13 6 -31t17 -36t-6 -28q20 16 12.5 54t10.5 55 q-34 -1 -40 -14z" />
<glyph unicode="&#xb2;" horiz-adv-x="970" d="M291 792q2 8 7 23t7 23l53 43q16 20 50 51t56 52.5t38 56.5t12 73q-12 9 -26 11t-24 -1t-27 -9t-27 -9q-40 -40 -82 -53q-13 22 -12.5 45.5t-4.5 52.5q-20 34 -8 74q2 7 14 16t19.5 19t3.5 22q41 25 104 34.5t127 -1.5t99 -43q33 -29 38 -65t-3.5 -67.5t0.5 -74.5 q-3 -8 -37 -47.5t-33 -54.5l-74 -80q4 -5 38 -4.5t40 0.5q3 0 11.5 -1t13 -1.5t12.5 -2.5t11.5 -4t10 -5.5t7 -8t3.5 -11t-1 -14.5q-10 -74 -15 -90q-37 -15 -110.5 -14.5t-112.5 -3.5q-65 -11 -164 18q-10 15 -13 29t-1 22zM362 1124q35 30 80.5 44.5t87.5 7.5 q21 -5 39 -46q6 -40 -7 -79t-32 -64t-51 -63t-47 -60q66 31 129 88.5t88 120.5q-7 26 -5 47t7.5 35t1.5 32.5t-22 39.5q-17 16 -47.5 25t-51.5 11t-61 3q0 -18 -12.5 -20.5t-26.5 2t-24 -8.5q-20 -6 -30.5 -20t-12 -26.5t-2 -35.5t-1.5 -33z" />
<glyph unicode="&#xb3;" horiz-adv-x="970" d="M227 797q-5 24 5 51t28 39q42 28 62 14q1 -14 7 -19.5t16.5 -9t16.5 -10.5q15 -7 20 -9t16 -5t19 -1.5t17 5.5q24 24 30 39t-1 45q-13 16 -36 22t-43 6t-38.5 11.5t-23.5 38.5q2 7 2.5 26t4.5 33t15 21q23 -18 70 -18t78 -1q2 9 8 21.5t10 21t4 20.5t-8 23q-33 41 -80 23 q-9 0 -22.5 -5.5t-23.5 -10t-22 -2.5t-22 14q1 20 8.5 49.5t9.5 44.5q-2 1 -7.5 -2.5t-10 -7t-9 -1.5t-5.5 11q5 9 12.5 15.5t19 11.5t19.5 7.5t24 6.5t21 6q5 0 27 0.5t30.5 0t24.5 -2t27.5 -5.5t21.5 -11q30 -32 48 -55.5t35 -61t19 -74.5q7 -17 0 -31t-20.5 -21.5 t-25 -18t-13 -20.5t15.5 -28q72 -198 10 -264q-11 -25 -44.5 -40.5t-60 -20t-66.5 -8.5q-8 -1 -11 -1q-117 20 -209 138zM282 806q6 -12 25 -26.5t25 -21.5q131 -78 207 -33q12 5 21 12.5t16.5 19.5t12 20t11.5 25t10 23q13 57 -22 142q-56 22 -101 24q3 -5 11 -16 t12.5 -20.5t5.5 -20.5q-4 -71 -19 -100q-9 -17 -24 -29q-34 -23 -94 -12q-10 3 -17.5 6t-14.5 8.5t-10 8t-12 12t-14 14.5q-5 2 -14.5 0t-13.5 -6q-7 -18 -1 -30z" />
<glyph unicode="&#xb4;" horiz-adv-x="593" d="M66 1237q-3 40 34 97.5t39 84.5q18 25 56 69t66 83t44 76q144 -22 201 -115v-29q-47 -38 -103.5 -111t-112 -132.5t-116.5 -88.5q-89 16 -108 66z" />
<glyph unicode="&#xb5;" horiz-adv-x="1071" d="M115.5 -61q2.5 216 5.5 237q1 7 7 96.5t9 130.5t11 130.5t15 146.5t17.5 125.5t22.5 116.5q5 27 23 36.5t42 15t37 21.5q122 -19 166 -94q-38 -178 -88 -377q20 -66 51 -86q173 95 160 432q9 33 34 45.5t54.5 9t63 -5t59.5 2.5q14 -58 16 -118t-3.5 -143.5t-6.5 -115.5 q-17 -15 -20.5 -39t-0.5 -55t1 -43q26 -1 58.5 -0.5t61.5 1t53 -15.5t33 -49q-2 -21 -5 -67t-7.5 -78.5t-13.5 -57.5q-20 -1 -59 7t-68.5 6.5t-52.5 -21.5q-38 6 -89 57q-31 -50 -82.5 -78.5t-113.5 -21.5q-148 16 -193 33q5 -30 9 -101t6 -94q16 -146 -27 -252 q-21 -1 -52 -3.5t-46 -3.5t-33 1t-29.5 10t-21.5 23q-6 20 -3.5 236zM162.5 -80.5q-0.5 -147.5 11.5 -163.5q15 -20 39 -15q23 5 55 28q15 29 9.5 217t5.5 215q10 23 47 4q32 -15 98.5 -20.5t93.5 -14.5q39 -10 65 7.5t50.5 58.5t34.5 51q102 253 96 555q-11 -2 -34.5 0.5 t-40 -2t-27.5 -21.5q-3 -72 -8.5 -123t-20.5 -111.5t-45 -110t-76 -87.5q-18 -24 -45 -28.5t-52 6t-48 30.5q-36 33 -50 74t-7.5 85.5t18 83.5t28.5 88t23 79q20 40 0.5 76t-64.5 32q-1 -2 -6 -9t-7 -10t-6.5 -9t-8 -8.5t-8 -4.5t-9.5 -2q-30 -95 -56.5 -265.5t-37.5 -219.5 q8 -22 9.5 -50.5t0.5 -45.5t-7 -54t-7 -45q-13 -123 -13.5 -270.5z" />
<glyph unicode="&#xb6;" horiz-adv-x="1128" d="M55.5 1197.5q0.5 22.5 2.5 41t9 40.5t12.5 37t17 37.5t18 34.5t20 36t19.5 34q71 62 155.5 87.5t194.5 27.5q126 -9 180 -3t119.5 2.5t159.5 -26.5q-2 -7 10.5 -68t3.5 -67q27 -216 40.5 -646t26.5 -593q-11 -35 -23.5 -47.5t-24.5 -10t-36.5 7.5t-48.5 1l-30 61 q-1 61 -6 151.5t-8.5 153.5t-2.5 144.5t10 150.5q-3 38 -5 83.5t-4 62t-10.5 49t-27.5 82.5q-15 8 -26.5 3t-24.5 -4.5t-22 15.5q-4 -3 -10 -13t-13 -13q3 -142 26.5 -379.5t20.5 -405.5q-2 -32 8.5 -81t15.5 -78t-7 -74q-41 3 -66 9t-37.5 11.5t-56.5 28.5q-33 81 -41 177 t-7.5 208t-11.5 186q-22 38 -26 92.5t-6.5 110t-20.5 92.5q-21 0 -78.5 -2.5t-92 -2t-82 8.5t-81.5 27q-35 9 -57 37.5t-42 75.5t-30 63q-4 22 -3.5 44.5zM127 1178q3 -6 14 -28.5t15.5 -30.5t16 -25.5t20.5 -26t23 -18t30 -13.5q16 -1 56.5 -4t61 -4t54 -1.5t64.5 1t63 4.5 q-14 44 -1 170.5t-3 194.5q-8 11 -6 38t-3 40q-92 37 -197.5 7t-168.5 -112q-66 -84 -39 -192z" />
<glyph unicode="&#xb7;" horiz-adv-x="573" d="M107.5 668.5q-4.5 23.5 13.5 56.5q16 4 30 16t21.5 22t20 30t16.5 26q43 28 96 37t100 -15.5t56 -84.5q12 -42 -7 -85.5t-57 -68.5l-96 -57q-12 18 -36 31t-48 19t-49.5 16t-40.5 22t-19.5 35.5z" />
<glyph unicode="&#xb8;" horiz-adv-x="542" d="M61 -412q0 113 109 150q-69 30 -97 101.5t-3 137.5q6 17 43 26t90 10t102 -1t94 -5t50 -3l-9 11q-5 0 33 -83q10 -86 -4 -159.5t-49 -155.5q-23 -53 -92.5 -92t-137.5 -39q-22 11 -51 18.5t-42 12t-24 21.5t-12 50zM104 -393q-1 -7 7.5 -16.5t17.5 -16.5t20 -15.5 t15 -13.5q6 -8 18 -8.5t28 6t31.5 15t34 21.5t31 22.5t26.5 20.5t17 13q49 77 58.5 125.5t7.5 159.5q-14 22 -48 29.5t-59.5 5t-34.5 -5.5q-5 1 -13.5 3t-30.5 3.5t-40.5 -1.5t-35.5 -16.5t-23 -37.5q-2 -9 -6.5 -20.5t-6 -17t3 -13.5t17.5 -17q24 -19 39 -25t19.5 -2.5 t9.5 3.5t13.5 -10.5t27.5 -41.5q-21 -68 -45.5 -93.5t-89.5 -39.5q-8 -9 -9 -16z" />
<glyph unicode="&#xb9;" horiz-adv-x="786" d="M197 1045.5q-1 23.5 4.5 42.5t-2.5 49q57 -1 174.5 50t163.5 56l10 -16q3 -27 0.5 -51.5t0.5 -52t17 -44.5q-1 -27 -11.5 -169t-8.5 -220q-73 -21 -203 -35q-11 9 -14.5 26t-2.5 30t4.5 37.5t4.5 29.5q3 30 10.5 83t12 95.5t5.5 85.5q-58 -10 -147 -41q-17 21 -18 44.5z M389 721q18 -3 49 7t49 3q7 42 10.5 91t3.5 79.5t-0.5 93t-0.5 84.5q-15 2 -37.5 -5t-34.5 -7q1 -67 -17.5 -179.5t-21.5 -166.5z" />
<glyph unicode="&#xba;" horiz-adv-x="612" d="M104 1067q34 -37 73.5 -57t85.5 -24t82.5 -1t92.5 12q71 39 90 78q20 141 -149 285q-49 11 -97.5 13t-95 -20t-71.5 -65q-59 -94 -11 -221zM145 1225l45 63q26 15 51 16.5t50 -10.5t42 -22.5t43 -32.5t36 -29q19 -65 -15 -147q-44 -20 -115 -13.5t-112 44.5 q-19 30 -23.5 59.5t-1.5 71.5z" />
<glyph unicode="&#xbb;" horiz-adv-x="1126" d="M102 340q4 30 16.5 54t37.5 46t40 32.5t52 33.5q-3 10 -7.5 20.5t-8.5 18t-12.5 18.5t-12 15.5t-14 16t-12.5 13.5t-15 14l-12 13q-27 73 -21 153q8 20 13.5 30t19 20t31.5 8l282 -252l6 -45q22 -41 20.5 -66t-24 -52t-48 -45.5t-50.5 -46.5t-33 -56q-17 -15 -30.5 -42 t-20.5 -49t-26 -41t-48 -22q-12 4 -14.5 18t0.5 28t0 28q-5 8 -27 47.5t-39 58.5t-43 31zM522 651q-10 26 1.5 51.5t37 55t33.5 43.5q0 11 2.5 19.5t5 14t10 11t10.5 7.5t14.5 8t14.5 7q48 -42 161 -101.5t153 -86.5q5 -3 17 -9.5t19.5 -10.5t20 -12t18 -14.5t13.5 -17.5 t6.5 -20.5t-2.5 -24.5q-26 -49 -65 -105.5t-67.5 -93t-82.5 -101.5t-74 -91q-2 -1 -17.5 -7.5t-20.5 -8t-18 -3.5t-19 1t-14 11.5t-13 23.5q0 11 -2.5 22.5t-4.5 20.5t-8.5 20t-9.5 17.5t-12.5 17.5t-12.5 15t-14.5 15.5l-14 14t-16 14.5t-14.5 13q14 38 46 62t72 43.5 t58 39.5q-19 13 -63.5 48t-78.5 56.5t-69 34.5zM614 686q41 -31 119 -77.5t98 -59.5q-19 -55 -65.5 -96t-106.5 -62q5 -54 74 -143q7 7 41 42.5t43 46t36 41t38.5 48t29.5 45t29.5 53.5t20.5 54q-43 42 -147 89.5t-148 92.5q-27 0 -43 -16t-19 -42v-16z" />
<glyph unicode="&#xbc;" horiz-adv-x="1667" d="M137 -4.5q9 23.5 39 61.5q82 86 295 364t424.5 553.5t294.5 358.5q22 17 50 50t49 60t51.5 50t62.5 27q14 -29 -25 -64q13 -3 39 -6.5t43.5 -7.5t37.5 -11t32 -21.5t16 -35.5q-25 -14 -136.5 -145.5t-233 -283t-233.5 -284t-138 -147.5q-415 -522 -428 -547 q4 -29 -33 -44t-72 -7q-21 8 -54.5 15t-49.5 12t-28 17t-3 35.5zM166 1308.5q-1 23.5 4.5 42t-2.5 48.5q57 -1 174.5 50t163.5 56l10 -16q3 -27 0.5 -51.5t1 -52t17.5 -44.5q-1 -31 -12 -171t-9 -218q-67 -19 -203 -34q-11 9 -14.5 26t-2.5 30t4.5 37t4.5 29q3 31 11 83.5 t12.5 95.5t5.5 86q-60 -10 -148 -41q-17 21 -18 44.5zM295 -14l18 -6l9 24zM358 983q18 -3 49.5 7t49.5 3q7 42 10 90.5t3.5 81t-0.5 91.5t-1 85q-15 2 -37.5 -5t-34.5 -7q1 -67 -17.5 -179.5t-21.5 -166.5zM977 180q18 47 58.5 103.5t77 111.5t50.5 105q8 14 26 39t30.5 46 t17.5 42q11 9 40.5 1t41.5 -3q23 11 43.5 -3t7.5 -36q-16 -38 -37 -79.5t-49.5 -92t-42.5 -76.5q14 -9 34 2.5t32 9.5h129q8 -16 7 -63.5t7 -63.5q0 -38 -14 -43q-19 -2 -39.5 5t-38.5 -1q-7 -17 -7 -68t-10.5 -88.5t-44.5 -43.5q-16 5 -40 2t-46 -9t-44.5 -4.5t-35.5 15.5 l31 174q-13 5 -19.5 5t-22.5 -4t-23 -5q-13 3 -42 -2t-49 -1.5t-28 25.5zM1147 209l45 6q21 -18 7.5 -66t-7.5 -67q2 -8 -2.5 -18t-6.5 -16t7 -17l98 8q10 33 10 115l-10 8l-4.5 9t-5 11t-2 10t2 11t9.5 8q24 -11 56.5 5t48.5 15l-2 66l-70 -10q-16 -12 -61.5 -5t-61.5 3 q-51 -34 -51 -76zM1231 1212q13 24 40 38t60 27t51 30q-15 10 -29.5 13t-28 -3t-23.5 -12t-22 -21.5t-18 -23.5t-17 -26.5t-13 -21.5zM1231 1219q68 -8 123 8q-26 9 -48 6.5t-46.5 -9t-28.5 -5.5zM1419 1313l11 -13l34 31l-6 4z" />
<glyph unicode="&#xbd;" horiz-adv-x="1667" d="M127 26.5q9 23.5 39 61.5q82 86 295 364t424.5 553.5t294.5 358.5q26 20 63 67t73 80.5t77 38.5q14 -28 -25 -63q13 -3 39 -6.5t43.5 -7.5t37.5 -11t32 -21.5t16 -35.5q-25 -14 -136.5 -145.5t-233 -283t-233.5 -284t-138 -147.5q-415 -522 -428 -547q4 -29 -33 -44 t-72 -7q-21 8 -54.5 15t-49.5 12t-28 17t-3 35.5zM140 1291.5q-1 23.5 4 42t-3 48.5q57 -1 174.5 50.5t163.5 56.5l10 -16q3 -27 0.5 -51.5t1 -52t17.5 -44.5q-1 -31 -12 -171t-9 -218q-73 -21 -202 -35q-11 9 -15 26.5t-3 30t5 37.5t4 29q3 31 11 83t12.5 95t5.5 86 q-58 -10 -147 -41q-17 21 -18 44.5zM285 16l18 -6l8 25zM332 967q18 -3 49 7t49 3q7 42 10 90.5t3.5 81t-0.5 91.5t-1 85q-15 2 -37 -5t-34 -7q1 -67 -17.5 -179.5t-21.5 -166.5zM1116 87q2 8 7 22.5t7 23.5l54 43q16 20 49.5 51t55.5 53t38 57t12 73q-12 9 -26 11t-24 -1 t-27 -9.5t-27 -9.5q-40 -40 -82 -53q-13 22 -12 45.5t-4 52.5q-9 15 -11.5 37t2.5 37q2 5 22.5 23.5t14.5 34.5q41 25 104 34.5t127 -2t99 -43.5q33 -29 38 -65t-3.5 -67.5t0.5 -74.5q-3 -8 -37 -47.5t-33 -54.5l-74 -80q4 -5 38 -4.5t40 0.5q4 -1 13.5 -1.5t14.5 -1.5 t14 -3t12.5 -5t9.5 -8t5 -11.5t-1 -16.5q-10 -79 -14 -90q-38 -15 -111.5 -15t-112.5 -4q-56 -5 -84 -0.5t-80 19.5q-10 15 -13 28.5t-1 21.5zM1188 420q34 30 80 44t88 7q21 -5 39 -45q6 -39 -7.5 -78.5t-32.5 -64.5t-51 -63t-47 -60q66 31 129.5 88.5t88.5 120.5 q-12 39 -3.5 59t8 44t-23.5 50q-17 16 -47.5 25t-51.5 11t-61 3q0 -15 -7.5 -19t-17 -1t-21 2.5t-17.5 -8.5q-16 -5 -26 -14t-13 -21.5t-4 -24.5t-1 -28.5t-1 -26.5zM1221 1243q12 24 39.5 38t60.5 26.5t51 29.5q-15 10 -29.5 13t-28 -3t-23.5 -11.5t-22 -21.5t-17.5 -23.5 t-17 -26t-13.5 -21.5zM1221 1249q67 -8 122 8q-26 9 -47.5 6.5t-46 -9t-28.5 -5.5zM1409 1343l10 -12l35 31l-6 4z" />
<glyph unicode="&#xbe;" horiz-adv-x="1667" d="M121 981q-5 24 5 51t28 39q41 28 61 14q1 -18 18.5 -25.5t22.5 -12.5q2 -1 8 -3.5t7.5 -3.5t7 -3t7.5 -2.5t6.5 -2t7 -1.5h7t7.5 0.5t6.5 1.5t7.5 3q23 23 29 39t-1 45q-13 16 -36 22t-43 6t-38.5 11.5t-23.5 38.5q2 7 3 26t5 33t15 21q23 -18 69.5 -17.5t77.5 -0.5 q2 9 8 21.5t10 21t4 20.5t-8 23q-32 40 -80 22q-9 0 -22.5 -5.5t-23.5 -10t-22 -2.5t-22 14q1 19 9 48.5t10 45.5q-2 1 -7.5 -2.5t-10.5 -7t-9.5 -1.5t-5.5 11q5 9 12.5 15.5t19 11.5t19.5 7.5t24 6.5t21 6q5 0 27 0.5t30.5 0t24.5 -2t27.5 -5.5t21.5 -11q30 -33 48 -55.5 t35.5 -60.5t19.5 -75q7 -17 0 -31t-20.5 -21.5t-25 -17.5t-13 -20t15.5 -28q72 -198 10 -265q-4 -9 -10.5 -17t-17 -14t-18.5 -10.5t-23 -8.5t-22.5 -6.5t-25 -5t-22.5 -3t-23.5 -2.5t-19.5 -2q-118 20 -209 137zM137 -4.5q9 23.5 39 61.5q82 86 295 364t424.5 553.5 t294.5 358.5q22 17 50 50t49 60t51.5 50t62.5 27q14 -29 -25 -64q13 -3 39 -6.5t43.5 -7.5t37.5 -11t32 -21.5t16 -35.5q-25 -14 -136.5 -145.5t-233 -283t-233.5 -284t-138 -147.5q-415 -522 -428 -547q4 -29 -33 -44t-72 -7q-21 8 -54.5 15t-49.5 12t-28 17t-3 35.5z M175 990q6 -12 25 -26.5t25 -21.5q131 -78 207 -33q12 5 21 12.5t17 19.5t12 20t11.5 25.5t10.5 23.5q12 55 -23 141q-59 23 -100 25q3 -5 11 -16t12.5 -21t5.5 -21q-4 -71 -19 -100q-9 -17 -24 -29q-34 -23 -95 -12q-10 3 -17.5 6t-14 8t-10 8.5t-12 12.5t-13.5 14 q-5 2 -15 0t-14 -6q-7 -18 -1 -30zM295 -14l18 -6l9 24zM977 180q18 47 58.5 103.5t77 111.5t50.5 105q8 14 26 39t30.5 46t17.5 42q11 9 40.5 1t41.5 -3q23 11 43.5 -3t7.5 -36q-16 -38 -37 -79.5t-49.5 -92t-42.5 -76.5q14 -9 34 2.5t32 9.5h129q8 -16 7 -63.5t7 -63.5 q0 -38 -14 -43q-19 -2 -39.5 5t-38.5 -1q-7 -17 -7 -68t-10.5 -88.5t-44.5 -43.5q-16 5 -40 2t-46 -9t-44.5 -4.5t-35.5 15.5l31 174q-13 5 -19.5 5t-22.5 -4t-23 -5q-13 3 -42 -2t-49 -1.5t-28 25.5zM1147 209l45 6q21 -18 7.5 -66t-7.5 -67q2 -8 -2.5 -18t-6.5 -16t7 -17 l98 8q10 33 10 115l-10 8l-4.5 9t-5 11t-2 10t2 11t9.5 8q24 -11 56.5 5t48.5 15l-2 66l-70 -10q-16 -12 -61.5 -5t-61.5 3q-51 -34 -51 -76zM1231 1212q13 24 40 38t60 27t51 30q-15 10 -29.5 13t-28 -3t-23.5 -12t-22 -21.5t-18 -23.5t-17 -26.5t-13 -21.5zM1231 1219 q68 -8 123 8q-26 9 -48 6.5t-46.5 -9t-28.5 -5.5zM1419 1313l11 -13l34 31l-6 4z" />
<glyph unicode="&#xbf;" horiz-adv-x="890" d="M73.5 618q-3.5 38 16 73t64.5 57q28 -22 67 24q17 5 50.5 10t60.5 12t49 21q-10 20 -15.5 42.5t-9.5 56.5t-6 44q28 19 72.5 21.5t91 2.5t74.5 13q36 -50 57 -106.5t23.5 -119t-23.5 -120.5q-22 -26 -63.5 -40t-81 -20t-76.5 -17t-57.5 -40t-16.5 -79q25 -40 65 -61.5 t81 -10.5q169 38 245 129q24 2 34.5 -13t18 -39.5t19.5 -35.5q5 -26 -0.5 -68t-7.5 -68t14 -65q-3 -39 -18 -54t-38 -12.5t-47 7.5t-49.5 0t-41.5 -29q-250 16 -461 51q-77 37 -68 176q10 44 2.5 87t-14.5 88t-10.5 83zM139 453q1 -9 3 -44t4 -49t6 -40t12 -44t20 -34 q60 -9 207 -16t213 -19q8 3 47 18.5t56 16.5q23 3 31.5 22t5.5 42.5t-4.5 48.5t1.5 40q-14 -3 -31 -10t-26 -12t-31.5 -18.5l-27.5 -16.5q-10 -17 -48.5 -15.5t-46.5 -19.5q-72 -4 -122 11t-78 67q-5 8 -20.5 31.5t-22 37t-13.5 34t-4 39.5t15 38q31 41 69 59t102.5 30 t90.5 20q26 18 38.5 40.5t12 50t-5 50t-13.5 55.5t-12 52l-145 -17q1 -3 0 -27t6 -30q22 -45 16 -72.5t-24.5 -37.5t-51.5 -15t-64.5 -5t-64 -7.5t-49.5 -22.5q-32 -21 -43 -64.5t-7.5 -85t-0.5 -81.5zM349 1227q0 19 5 33.5t16.5 32t21 29t24.5 28.5q17 1 57.5 14.5t67.5 9 t47 -38.5q27 -21 33 -80t24 -79q5 -36 -15.5 -53t-56 -27t-49.5 -23q-18 -8 -36 -4.5t-31 6.5t-27 14.5t-23 21t-19.5 25.5t-17 27t-14.5 27q-7 18 -7 37z" />
<glyph unicode="&#xc0;" d="M31 270q12 89 53 179.5t93.5 187.5t76.5 170q25 26 49 84.5t43 81.5q5 23 19 46.5t34 50t29 42.5l94 238q16 13 35 12.5t34 -8.5t33.5 -5.5t32.5 21.5q66 0 122.5 -13t106 -48.5t68.5 -89.5q5 -33 21 -131t24 -145t22 -125.5t28 -142.5t30 -126q-4 -55 6 -141 t14.5 -136.5t-14.5 -130.5q-46 -23 -96 -36.5t-105 -12t-96 22.5q-37 253 -65 469h-289q-38 -57 -78 -191t-82 -194q-28 9 -81 14t-93.5 16.5t-68.5 40.5zM223 287h15v8q14 10 20 25t-4 24q-43 -38 -31 -57zM427 1768.5q0 2.5 0.5 7t0.5 6.5l41 12q3 16 -1.5 32.5t-9.5 27 t-3.5 22t14.5 20.5q2 -13 4 -21.5t7 -15.5t8 -11.5t11.5 -13.5t14.5 -15l186 108q45 -34 72.5 -91.5t37 -111t30 -117t51.5 -102.5q5 -24 -6.5 -37t-28.5 -16.5t-33.5 -15t-19.5 -31.5q-29 13 -58 39t-57.5 55.5t-48.5 42.5q-36 93 -102 174q-13 4 -27 14.5t-23 18t-24 12 t-29 -3.5q-3 2 -5 5.5t-2 6zM449 705q-4 -15 13.5 -25.5t29.5 -1.5q-14 16 -43 27zM551 1802q26 -26 53.5 -67t46.5 -73t51.5 -66t71.5 -54q9 30 -7 90t-9 90l-41 144q-19 14 -43 7t-40.5 -21t-40 -30.5t-42.5 -19.5zM584 864q12 -1 30.5 -5t31.5 -7t29 -2t27 8 q5 43 -0.5 90t-16.5 97t-13 71q-5 -16 -45.5 -110t-42.5 -142zM751 1168q-1 -40 7 -108.5t13.5 -108.5t16.5 -107q33 -14 41.5 -46t9.5 -73.5t13 -62.5q-40 -51 -45.5 -116.5t10 -119.5t29 -127t6.5 -127q127 11 190 41q0 63 -4 131.5t-8.5 122.5t-16.5 131t-19 119.5 t-25 129t-25 118t-28.5 127t-26.5 118.5q-57 80 -135 66q-2 -68 -3 -108z" />
<glyph unicode="&#xc1;" d="M31 270q12 89 53 179.5t93.5 187.5t76.5 170q25 26 49 84.5t43 81.5q5 23 19 46.5t34 50t29 42.5l94 238q16 13 35 12.5t34 -8.5t33.5 -5.5t32.5 21.5q66 0 122.5 -13t106 -48.5t68.5 -89.5q5 -33 21 -131t24 -145t22 -125.5t28 -142.5t30 -126q-4 -55 6 -141 t14.5 -136.5t-14.5 -130.5q-46 -23 -96 -36.5t-105 -12t-96 22.5q-37 253 -65 469h-289q-38 -57 -78 -191t-82 -194q-28 9 -81 14t-93.5 16.5t-68.5 40.5zM223 287h15v8q14 10 20 25t-4 24q-43 -38 -31 -57zM449 705q-4 -15 13.5 -25.5t29.5 -1.5q-14 16 -43 27zM584 864 q12 -1 30.5 -5t31.5 -7t29 -2t27 8q5 43 -0.5 90t-16.5 97t-13 71q-5 -16 -45.5 -110t-42.5 -142zM647 1516q-3 40 34.5 97.5t39.5 84.5q5 7 75 92t91 135q143 -22 200 -115v-28q-47 -38 -103.5 -111t-111.5 -132.5t-116 -88.5q-90 16 -109 66zM751 1168q-1 -40 7 -108.5 t13.5 -108.5t16.5 -107q33 -14 41.5 -46t9.5 -73.5t13 -62.5q-40 -51 -45.5 -116.5t10 -119.5t29 -127t6.5 -127q127 11 190 41q0 63 -4 131.5t-8.5 122.5t-16.5 131t-19 119.5t-25 129t-25 118t-28.5 127t-26.5 118.5q-57 80 -135 66q-2 -68 -3 -108z" />
<glyph unicode="&#xc2;" d="M31 270q12 89 53 179.5t93.5 187.5t76.5 170q25 26 49 84.5t43 81.5q5 23 19 46.5t34 50t29 42.5l94 238q16 13 35 12.5t34 -8.5t33.5 -5.5t32.5 21.5q66 0 122.5 -13t106 -48.5t68.5 -89.5q5 -33 21 -131t24 -145t22 -125.5t28 -142.5t30 -126q-4 -55 6 -141 t14.5 -136.5t-14.5 -130.5q-46 -23 -96 -36.5t-105 -12t-96 22.5q-37 253 -65 469h-289q-38 -57 -78 -191t-82 -194q-28 9 -81 14t-93.5 16.5t-68.5 40.5zM223 287h15v8q14 10 20 25t-4 24q-43 -38 -31 -57zM236 1579q57 26 110.5 75.5t89.5 97.5t85 105t91 91 q103 -31 194.5 -102t129.5 -158q-6 -20 -0.5 -80.5t-13.5 -85.5q-3 -12 4 -28.5t14 -28.5t4 -24.5t-22 -21.5q-48 25 -134 97.5t-104 85.5q-16 21 -32.5 22.5t-30 -12t-23 -29.5t-14.5 -33q-3 -6 -12.5 -27.5t-14.5 -30.5t-15 -28t-18.5 -29t-19.5 -22t-24 -19t-27 -10 q-22 19 -63.5 39.5t-71.5 35.5t-55 46t-27 74zM332 1550q-1 -17 7 -25t20 -9t25 -6.5t19 -16.5q17 -4 29.5 -4t27 11.5t24.5 23t22 30t20 33t18.5 32.5t16.5 28q18 29 0 51t-49 20q-5 -6 -26 -30.5t-29.5 -34t-27.5 -29.5t-31.5 -30.5t-30.5 -23t-35 -20.5zM449 705 q-4 -15 13.5 -25.5t29.5 -1.5q-14 16 -43 27zM584 864q12 -1 30.5 -5t31.5 -7t29 -2t27 8q5 43 -0.5 90t-16.5 97t-13 71q-5 -16 -45.5 -110t-42.5 -142zM606 1796l6 -31q-3 9 9 17zM751 1168q-1 -40 7 -108.5t13.5 -108.5t16.5 -107q33 -14 41.5 -46t9.5 -73.5t13 -62.5 q-40 -51 -45.5 -116.5t10 -119.5t29 -127t6.5 -127q127 11 190 41q0 63 -4 131.5t-8.5 122.5t-16.5 131t-19 119.5t-25 129t-25 118t-28.5 127t-26.5 118.5q-57 80 -135 66q-2 -68 -3 -108z" />
<glyph unicode="&#xc3;" d="M31 270q12 89 53 179.5t93.5 187.5t76.5 170q25 26 49 84.5t43 81.5q5 23 19 46.5t34 50t29 42.5l94 238q16 13 35 12.5t34 -8.5t33.5 -5.5t32.5 21.5q66 0 122.5 -13t106 -48.5t68.5 -89.5q5 -33 21 -131t24 -145t22 -125.5t28 -142.5t30 -126q-4 -55 6 -141 t14.5 -136.5t-14.5 -130.5q-46 -23 -96 -36.5t-105 -12t-96 22.5q-37 253 -65 469h-289q-38 -57 -78 -191t-82 -194q-28 9 -81 14t-93.5 16.5t-68.5 40.5zM223 287h15v8q14 10 20 25t-4 24q-43 -38 -31 -57zM330.5 1431.5q-2.5 34.5 5 65t14 69t2.5 64.5q5 12 21 66 q37 2 79 23t73.5 45.5t75.5 44t85 18.5q42 9 71 4t56.5 -21.5t48 -38.5t45 -45.5t47 -42.5t54.5 -30t67 -8q18 -2 46 8.5t48 21t40.5 5.5t31.5 -35q-9 -35 -13 -99t-7.5 -109t-28 -90t-72.5 -63q-18 -13 -40.5 -14t-36 3t-41.5 16.5t-35 15.5q-27 19 -51 51.5t-38.5 61 t-39.5 54.5t-58 35q-40 16 -83.5 13.5t-75 -11.5t-70 -28.5t-67 -37.5t-65.5 -38.5t-67 -32.5q-19 25 -21.5 59.5zM418 1507q24 9 56.5 24t57.5 27.5t56.5 25t59 18.5t59.5 4.5t63 -13.5q38 -9 71 -36t57 -59t49 -63.5t59.5 -53.5t76.5 -25q38 18 55 52t26 93.5t14 77.5 q-6 -1 -30.5 -8t-36.5 -8.5l-32 -4t-36 1.5t-31 13q-31 1 -56.5 14t-42.5 32t-35 41.5t-33.5 42.5t-38 34.5t-48.5 17.5t-66 -8q-18 -10 -63.5 -20.5t-72.5 -29t-30 -59.5q-17 -3 -29.5 -14.5t-18.5 -24t-19.5 -21t-34.5 -5.5zM449 705q-4 -15 13.5 -25.5t29.5 -1.5 q-14 16 -43 27zM584 864q12 -1 30.5 -5t31.5 -7t29 -2t27 8q5 43 -0.5 90t-16.5 97t-13 71q-5 -16 -45.5 -110t-42.5 -142zM751 1168q-1 -40 7 -108.5t13.5 -108.5t16.5 -107q33 -14 41.5 -46t9.5 -73.5t13 -62.5q-40 -51 -45.5 -116.5t10 -119.5t29 -127t6.5 -127 q127 11 190 41q0 63 -4 131.5t-8.5 122.5t-16.5 131t-19 119.5t-25 129t-25 118t-28.5 127t-26.5 118.5q-57 80 -135 66q-2 -68 -3 -108z" />
<glyph unicode="&#xc4;" d="M31 270q12 89 53 179.5t93.5 187.5t76.5 170q25 26 49 84.5t43 81.5q5 23 19 46.5t34 50t29 42.5l94 238q16 13 35 12.5t34 -8.5t33.5 -5.5t32.5 21.5q66 0 122.5 -13t106 -48.5t68.5 -89.5q5 -33 21 -131t24 -145t22 -125.5t28 -142.5t30 -126q-4 -55 6 -141 t14.5 -136.5t-14.5 -130.5q-46 -23 -96 -36.5t-105 -12t-96 22.5q-37 253 -65 469h-289q-38 -57 -78 -191t-82 -194q-28 9 -81 14t-93.5 16.5t-68.5 40.5zM223 287h15v8q14 10 20 25t-4 24q-43 -38 -31 -57zM258 1527q0 25 0.5 54t-0.5 53q-4 35 18 63.5t54 39.5 q26 13 53 10t43 -12t41.5 -20t48.5 -13q38 -38 43 -90.5t-12 -100.5q-47 -43 -108 -61.5t-124 -9.5q-29 14 -43 38t-14 49zM449 705q-4 -15 13.5 -25.5t29.5 -1.5q-14 16 -43 27zM584 864q12 -1 30.5 -5t31.5 -7t29 -2t27 8q5 43 -0.5 90t-16.5 97t-13 71q-5 -16 -45.5 -110 t-42.5 -142zM713 1522q23 59 44 99t63 79.5t95 52.5q49 5 100 -34.5t81 -88.5q35 -48 -17 -131q-7 -5 -37 -28.5t-43.5 -32.5t-42.5 -24.5t-49 -18t-47.5 2t-52.5 21.5zM751 1168q-1 -40 7 -108.5t13.5 -108.5t16.5 -107q33 -14 41.5 -46t9.5 -73.5t13 -62.5 q-40 -51 -45.5 -116.5t10 -119.5t29 -127t6.5 -127q127 11 190 41q0 63 -4 131.5t-8.5 122.5t-16.5 131t-19 119.5t-25 129t-25 118t-28.5 127t-26.5 118.5q-57 80 -135 66q-2 -68 -3 -108zM812 1539q0 -29 15 -48q25 -15 63 -15t60 15q7 6 21 15.5t23.5 15.5t22 17 t16.5 20.5t8 24.5t-3 30q-4 4 -12 13t-12.5 13t-12.5 10t-14.5 8t-16.5 2t-20 -3q-7 -22 -28.5 -27t-42.5 -1t-37 -5.5t-15 -40.5q-15 -15 -15 -44z" />
<glyph unicode="&#xc5;" d="M31 270q12 89 53 179.5t93.5 187.5t76.5 170q25 26 49 84.5t43 81.5q5 23 19 46.5t34 50t29 42.5l94 238q16 13 35 12.5t34 -8.5t33.5 -5.5t32.5 21.5q66 0 122.5 -13t106 -48.5t68.5 -89.5q5 -33 21 -131t24 -145t22 -125.5t28 -142.5t30 -126q-4 -55 6 -141 t14.5 -136.5t-14.5 -130.5q-46 -23 -96 -36.5t-105 -12t-96 22.5q-37 253 -65 469h-289q-38 -57 -78 -191t-82 -194q-28 9 -81 14t-93.5 16.5t-68.5 40.5zM223 287h15v8q14 10 20 25t-4 24q-43 -38 -31 -57zM449 705q-4 -15 13.5 -25.5t29.5 -1.5q-14 16 -43 27zM463 1561 q-22 157 166 317q55 12 109 14t106 -22t80 -72q63 -104 10 -246q-38 -41 -81.5 -63.5t-95.5 -26.5t-92 -1t-102 14q-79 43 -100 86zM584 864q12 -1 30.5 -5t31.5 -7t29 -2t27 8q5 43 -0.5 90t-16.5 97t-13 71q-5 -16 -45.5 -110t-42.5 -142zM592 1712q-21 -73 16 -166 q37 -13 81.5 -16t92 9.5t78.5 41.5q22 33 27 65t2 80l-51 72q-28 16 -56 18t-55 -10.5t-46.5 -25.5t-47.5 -36t-41 -32zM751 1168q-1 -40 7 -108.5t13.5 -108.5t16.5 -107q33 -14 41.5 -46t9.5 -73.5t13 -62.5q-40 -51 -45.5 -116.5t10 -119.5t29 -127t6.5 -127 q127 11 190 41q0 63 -4 131.5t-8.5 122.5t-16.5 131t-19 119.5t-25 129t-25 118t-28.5 127t-26.5 118.5q-57 80 -135 66q-2 -68 -3 -108z" />
<glyph unicode="&#xc6;" horiz-adv-x="1712" d="M31 270q12 89 53 179.5t93.5 187.5t76.5 170q25 26 49 84.5t43 81.5q5 23 19 46.5t34 50t29 42.5l94 238q16 13 35 12.5t34 -8.5t33.5 -5.5t32.5 21.5q102 0 181 -33v15q14 20 32.5 22t35.5 -3.5t40 3.5q25 2 76 9t83 10t76.5 -1t80.5 -18q48 -8 174 -7t166 -15 q19 -36 22.5 -92t0.5 -100.5t7 -96.5l-14 -25q-68 22 -149 29.5t-177.5 9t-144.5 6.5q-3 2 -9 10t-12 12.5t-14 0.5q2 -17 -4 -55t-8.5 -65.5t12 -51t51.5 -25.5q193 17 361 -14q26 -21 33 -53t1.5 -62t-6.5 -64t9 -59q-107 -55 -226 -36q-78 29 -223 8q13 -23 6.5 -58 t-11.5 -74t-5.5 -71t24.5 -49.5t78 -9.5q41 -1 100 -8.5t101 -13t99 -7.5t93 8q17 0 28 -7.5t16.5 -23.5t7.5 -26t4 -29q-2 -13 -4.5 -40.5t-5 -45t-14 -37t-32.5 -28.5q0 -15 -7 -27t-22 -21t-24.5 -13.5t-27.5 -10.5q-39 18 -107.5 14t-110.5 12q-64 24 -152 23.5t-153 -7 t-155 14.5q0 1 -1 2t-1 2q-32 8 -48 17q-37 253 -65 469h-289q-38 -57 -78 -191t-82 -194q-28 9 -81 14t-93.5 16.5t-68.5 40.5zM223 287h15v8q14 10 20 25t-4 24q-43 -38 -31 -57zM449 705q-4 -15 13.5 -25.5t29.5 -1.5q-14 16 -43 27zM584 864q12 -1 30.5 -5t31.5 -7 t29 -2t27 8q5 43 -0.5 90t-16.5 97t-13 71q-5 -16 -45.5 -110t-42.5 -142zM751 1168q-1 -40 7 -108.5t13.5 -108.5t16.5 -107q33 -14 41.5 -46t9.5 -73.5t13 -62.5q-40 -51 -45.5 -116.5t10 -119.5t29 -127t6.5 -127q230 0 215 4q-1 11 -6.5 49.5t-13.5 95t-13 95.5 q-3 28 -10 96.5t-14 116.5q-12 80 -28 164t-28 137.5t-33.5 144t-31.5 135.5q-57 80 -135 66q-2 -68 -3 -108z" />
<glyph unicode="&#xc7;" horiz-adv-x="964" d="M22 782.5q2 93.5 37 175.5q42 69 77.5 122t86 114.5t100.5 104.5t114.5 78t133.5 50q11 -5 25.5 -6t33.5 0t29 0q14 36 44 36t58.5 -24t41.5 -55l-15 -252q-22 -6 -138 -20t-167 -45q-29 -11 -56 -36.5t-42 -49t-38 -62.5t-34 -55q-13 -73 22 -135.5t97 -95.5 q61 -4 130.5 -34.5t137.5 -61t125 -33.5q27 -19 33 -46t-1.5 -50.5t-17.5 -55t-10 -51.5q-14 -81 -98 -154q-105 -15 -160 21h-26q-5 0 -64 -78q1 -2 8.5 -1t25.5 1.5t36.5 0.5t42.5 -4t43 -13q32 -15 52 -41t24.5 -45t1.5 -23q-2 -3 -2 -25t-5.5 -49t-20.5 -55t-55.5 -48 t-103.5 -22q-16 2 -103 23t-151 31q-10 10 -12 21.5t2.5 23.5t13 24.5t19.5 26.5q5 7 8 10q5 7 127.5 -5.5t128.5 -6.5q30 36 -18 61q-13 7 -31 11t-41.5 5t-39 1.5t-45 0t-38.5 -0.5q-4 25 -4.5 53.5t0.5 44.5l2 16q19 25 44.5 46.5t34.5 30t1 11.5q-129 47 -238 156 q-9 12 -21 34.5t-25 39.5t-33 28q-43 77 -66 160t-21 176.5zM94.5 786.5q-2.5 -89.5 21 -168t64.5 -151.5q88 -125 228 -190t286 -48q41 32 62.5 79t38.5 116q-3 6 -7.5 10t-8.5 7t-11.5 5t-12 3t-13.5 1.5t-13.5 0.5h-15h-13.5q-38 31 -90.5 49t-95 25t-91 30.5t-83.5 65.5 q-145 141 -88 274q94 220 254 258q19 14 51 22t60 10t58.5 9.5t47 20.5t24 42t-9.5 76l-159 17q-55 -21 -109 -57t-94.5 -71.5t-88 -89t-76.5 -91t-73 -95.5q-40 -70 -42.5 -159.5z" />
<glyph unicode="&#xc8;" horiz-adv-x="1050" d="M61.5 552.5q9.5 95.5 24.5 187t24.5 197t0.5 189.5l14 320q14 20 32.5 22t35.5 -3.5t40 3.5q25 2 76 9t83 10t76.5 -1t80.5 -18q48 -8 174 -7t166 -15q19 -36 23 -92t1 -100.5t7 -96.5l-15 -24q-68 22 -149 29.5t-177.5 9t-144.5 6.5q-3 2 -9 10t-12 12t-14 0 q1 -15 -3 -43t-6.5 -51.5t-1 -47t17 -38t45.5 -16.5q189 16 360 -15q26 -21 33 -52.5t1.5 -61.5t-6.5 -64t9 -59q-109 -56 -225 -37q-78 29 -224 8q13 -23 6.5 -58t-11 -74t-5 -71t24.5 -49.5t78 -9.5q41 -1 100 -8.5t101 -13t99 -7.5t93 8q17 0 27.5 -7.5t16 -24t7.5 -25.5 t4 -29q-3 -13 -5 -40.5t-4.5 -45t-13.5 -37t-32 -28.5q0 -20 -15.5 -35.5t-28.5 -21.5t-38 -15q-39 18 -107 14.5t-110 12.5q-51 19 -114.5 22.5t-114.5 -2.5t-116 -5t-116 15q-44 80 -58.5 174.5t-5 190zM131 406q20 -22 26.5 -75.5t18.5 -70.5q112 7 321 -23t314 -28 q85 85 63 160l-77 -7q-59 15 -158 19t-183 16t-145 49q1 5 9 53t9.5 65t4.5 54t-0.5 62.5t-11.5 48.5q-16 -8 -40 -6t-38.5 6.5t-37.5 12t-38 10.5q-2 -12 -13.5 -95t-17 -140t-6.5 -111zM188 983h9v37h-9v-37zM188 1071h9l6 72h-6zM296 1891.5q0 2.5 0.5 7t0.5 6.5l41 12 q3 16 -1.5 32.5t-9.5 27t-3.5 22t14.5 20.5q2 -13 4 -21.5t7 -15.5t8 -11.5t11.5 -13.5t14.5 -15l186 108q45 -34 72.5 -91.5t37 -111t30 -117t51.5 -102.5q5 -24 -6.5 -37t-28.5 -16.5t-33.5 -15t-19.5 -31.5q-29 13 -58 39t-57.5 55.5t-48.5 42.5q-36 93 -102 174 q-13 4 -27 14.5t-23 18t-24 12t-29 -3.5q-3 2 -5 5.5t-2 6zM420 1925q26 -26 53.5 -67t46.5 -73t51.5 -66t71.5 -54q9 30 -7 90t-9 90l-41 144q-19 14 -43 7t-40.5 -21t-40 -30.5t-42.5 -19.5z" />
<glyph unicode="&#xc9;" horiz-adv-x="1050" d="M61.5 552.5q9.5 95.5 24.5 187t24.5 197t0.5 189.5l14 320q14 20 32.5 22t35.5 -3.5t40 3.5q25 2 76 9t83 10t76.5 -1t80.5 -18q48 -8 174 -7t166 -15q19 -36 23 -92t1 -100.5t7 -96.5l-15 -24q-68 22 -149 29.5t-177.5 9t-144.5 6.5q-3 2 -9 10t-12 12t-14 0 q1 -15 -3 -43t-6.5 -51.5t-1 -47t17 -38t45.5 -16.5q189 16 360 -15q26 -21 33 -52.5t1.5 -61.5t-6.5 -64t9 -59q-109 -56 -225 -37q-78 29 -224 8q13 -23 6.5 -58t-11 -74t-5 -71t24.5 -49.5t78 -9.5q41 -1 100 -8.5t101 -13t99 -7.5t93 8q17 0 27.5 -7.5t16 -24t7.5 -25.5 t4 -29q-3 -13 -5 -40.5t-4.5 -45t-13.5 -37t-32 -28.5q0 -20 -15.5 -35.5t-28.5 -21.5t-38 -15q-39 18 -107 14.5t-110 12.5q-51 19 -114.5 22.5t-114.5 -2.5t-116 -5t-116 15q-44 80 -58.5 174.5t-5 190zM131 406q20 -22 26.5 -75.5t18.5 -70.5q112 7 321 -23t314 -28 q85 85 63 160l-77 -7q-59 15 -158 19t-183 16t-145 49q1 5 9 53t9.5 65t4.5 54t-0.5 62.5t-11.5 48.5q-16 -8 -40 -6t-38.5 6.5t-37.5 12t-38 10.5q-2 -12 -13.5 -95t-17 -140t-6.5 -111zM188 983h9v37h-9v-37zM188 1071h9l6 72h-6zM442 1589q-3 40 34.5 98t39.5 85 q5 7 75 92t91 135q144 -22 201 -115v-29q-47 -38 -103.5 -110.5t-112 -132t-116.5 -88.5q-90 16 -109 65z" />
<glyph unicode="&#xca;" horiz-adv-x="1050" d="M61.5 552.5q9.5 95.5 24.5 187t24.5 197t0.5 189.5l14 320q14 20 32.5 22t35.5 -3.5t40 3.5q25 2 76 9t83 10t76.5 -1t80.5 -18q48 -8 174 -7t166 -15q19 -36 23 -92t1 -100.5t7 -96.5l-15 -24q-68 22 -149 29.5t-177.5 9t-144.5 6.5q-3 2 -9 10t-12 12t-14 0 q1 -15 -3 -43t-6.5 -51.5t-1 -47t17 -38t45.5 -16.5q189 16 360 -15q26 -21 33 -52.5t1.5 -61.5t-6.5 -64t9 -59q-109 -56 -225 -37q-78 29 -224 8q13 -23 6.5 -58t-11 -74t-5 -71t24.5 -49.5t78 -9.5q41 -1 100 -8.5t101 -13t99 -7.5t93 8q17 0 27.5 -7.5t16 -24t7.5 -25.5 t4 -29q-3 -13 -5 -40.5t-4.5 -45t-13.5 -37t-32 -28.5q0 -20 -15.5 -35.5t-28.5 -21.5t-38 -15q-39 18 -107 14.5t-110 12.5q-51 19 -114.5 22.5t-114.5 -2.5t-116 -5t-116 15q-44 80 -58.5 174.5t-5 190zM131 406q20 -22 26.5 -75.5t18.5 -70.5q112 7 321 -23t314 -28 q85 85 63 160l-77 -7q-59 15 -158 19t-183 16t-145 49q1 5 9 53t9.5 65t4.5 54t-0.5 62.5t-11.5 48.5q-16 -8 -40 -6t-38.5 6.5t-37.5 12t-38 10.5q-2 -12 -13.5 -95t-17 -140t-6.5 -111zM188 983h9v37h-9v-37zM188 1071h9l6 72h-6zM195 1735q57 26 110.5 75t89.5 97t85 105 t91 91q103 -31 194.5 -102t129.5 -158q-6 -20 -0.5 -80.5t-13.5 -85.5q-3 -12 4 -28.5t14 -28t4 -24t-22 -21.5q-48 25 -135 97.5t-103 84.5q-22 30 -43.5 21.5t-35.5 -29t-21 -43.5q-3 -6 -12.5 -27.5t-14.5 -30.5t-15 -28t-18.5 -29t-19.5 -22t-24 -19t-27 -10 q-22 19 -63.5 39.5t-71.5 35.5t-55 46t-27 74zM291 1706q-1 -17 7 -25t20 -9t25 -6.5t19 -16.5q17 -4 29.5 -4t27 11.5t24.5 22.5t22 29.5t20 33t18.5 32.5t16.5 28q18 29 0 51.5t-49 20.5q-5 -6 -26 -30.5t-29.5 -34t-27.5 -29.5t-31.5 -30.5t-30.5 -23t-35 -20.5z M565 1952l6 -31q-1 3 -1 5t1 4t2 2.5t3.5 2.5t3.5 2z" />
<glyph unicode="&#xcb;" horiz-adv-x="1050" d="M61.5 552.5q9.5 95.5 24.5 187t24.5 197t0.5 189.5l14 320q14 20 32.5 22t35.5 -3.5t40 3.5q25 2 76 9t83 10t76.5 -1t80.5 -18q48 -8 174 -7t166 -15q19 -36 23 -92t1 -100.5t7 -96.5l-15 -24q-68 22 -149 29.5t-177.5 9t-144.5 6.5q-3 2 -9 10t-12 12t-14 0 q1 -15 -3 -43t-6.5 -51.5t-1 -47t17 -38t45.5 -16.5q189 16 360 -15q26 -21 33 -52.5t1.5 -61.5t-6.5 -64t9 -59q-109 -56 -225 -37q-78 29 -224 8q13 -23 6.5 -58t-11 -74t-5 -71t24.5 -49.5t78 -9.5q41 -1 100 -8.5t101 -13t99 -7.5t93 8q17 0 27.5 -7.5t16 -24t7.5 -25.5 t4 -29q-3 -13 -5 -40.5t-4.5 -45t-13.5 -37t-32 -28.5q0 -20 -15.5 -35.5t-28.5 -21.5t-38 -15q-39 18 -107 14.5t-110 12.5q-51 19 -114.5 22.5t-114.5 -2.5t-116 -5t-116 15q-44 80 -58.5 174.5t-5 190zM131 406q20 -22 26.5 -75.5t18.5 -70.5q112 7 321 -23t314 -28 q85 85 63 160l-77 -7q-59 15 -158 19t-183 16t-145 49q1 5 9 53t9.5 65t4.5 54t-0.5 62.5t-11.5 48.5q-16 -8 -40 -6t-38.5 6.5t-37.5 12t-38 10.5q-2 -12 -13.5 -95t-17 -140t-6.5 -111zM188 983h9v37h-9v-37zM188 1071h9l6 72h-6zM233 1806q-4 35 18 63.5t54 39.5 q26 13 53 10t43.5 -12t42 -20t48.5 -13q38 -38 42.5 -91t-12.5 -100q-99 -90 -231 -71q-29 14 -43 38t-14.5 49t0 54t-0.5 53zM688 1694q16 42 32 74t40 66.5t57.5 57.5t73.5 33q49 5 99.5 -34.5t80.5 -88.5q35 -49 -16 -131q-6 -4 -37 -28t-44 -33t-42.5 -24.5t-49.5 -17.5 t-47.5 2t-52.5 21zM788 1711q0 -29 15 -48q25 -15 63 -15t60 15q7 6 21 15.5t23.5 15.5t22 17t16.5 20.5t8 24.5t-3 30q-4 4 -12 13t-12.5 13t-12.5 10t-14.5 8t-16.5 2t-20 -3q-7 -22 -28.5 -27t-42.5 -1t-37 -5.5t-15 -40.5q-15 -15 -15 -44z" />
<glyph unicode="&#xcc;" horiz-adv-x="522" d="M-40 1744q0 2 0.5 6.5t0.5 6.5l41 12q3 16 -1.5 33t-9.5 27.5t-3.5 22t14.5 20.5q2 -13 4 -21.5t7 -16t8 -11.5t12 -13.5t14 -15.5l186 109q45 -34 72.5 -91.5t37 -111t30 -117t51.5 -102.5q5 -24 -6.5 -37t-28.5 -17t-33.5 -15.5t-19.5 -31.5q-38 16 -91.5 70.5 t-72.5 67.5q-36 93 -102 174q-13 4 -27 14.5t-23 18t-24 12t-29 -3.5q-4 2 -5.5 5.5t-1.5 5.5zM70 178q55 798 63 893q11 51 7 97t3.5 98.5t34.5 83.5q29 -12 21 -64q34 17 72.5 29t85.5 14.5t73 -20.5q-17 -43 -16 -127t-13 -127q4 -150 -5.5 -436.5t-10.5 -344.5 q15 -13 15 -30t-7.5 -39t-7.5 -33q-13 -5 -35 -14.5t-38.5 -15.5t-36.5 -11.5t-39 -4t-37 10.5q-19 -5 -39 -7t-41 0.5t-34.5 14.5t-14.5 33zM84 1778q26 -26 53.5 -67t46.5 -73t51.5 -66t71.5 -54q9 30 -7 90t-9 90l-41 143q-19 14 -43 7t-40.5 -21t-40 -30t-42.5 -19z M154 440q8 4 8 21h-8v-21zM190.5 1131q0.5 -19 1.5 -29.5t3.5 -30.5t3.5 -24q-8 33 23 88.5t34 78.5q-19 -2 -32 -8.5t-19.5 -19.5t-10.5 -24.5t-3.5 -30.5zM270 1020q61 39 88 86q-20 -5 -38.5 -24t-32.5 -39.5t-17 -22.5zM328 215l16 4l-10 27zM354 1214l17 -2l8 45h-8z " />
<glyph unicode="&#xcd;" horiz-adv-x="522" d="M70 178q55 798 63 893q11 51 7 97t3.5 98.5t34.5 83.5q29 -12 21 -64q34 17 72.5 29t85.5 14.5t73 -20.5q-17 -43 -16 -127t-13 -127q4 -150 -5.5 -436.5t-10.5 -344.5q15 -13 15 -30t-7.5 -39t-7.5 -33q-13 -5 -35 -14.5t-38.5 -15.5t-36.5 -11.5t-39 -4t-37 10.5 q-19 -5 -39 -7t-41 0.5t-34.5 14.5t-14.5 33zM74 1491q-3 40 34 97.5t39 84.5q18 25 56 69t66 83t44 76q144 -22 201 -115v-29q-47 -38 -103.5 -111t-112 -132.5t-116.5 -88.5q-89 16 -108 66zM154 440q8 4 8 21h-8v-21zM190.5 1131q0.5 -19 1.5 -29.5t3.5 -30.5t3.5 -24 q-8 33 23 88.5t34 78.5q-19 -2 -32 -8.5t-19.5 -19.5t-10.5 -24.5t-3.5 -30.5zM270 1020q61 39 88 86q-20 -5 -38.5 -24t-32.5 -39.5t-17 -22.5zM328 215l16 4l-10 27zM354 1214l17 -2l8 45h-8z" />
<glyph unicode="&#xce;" horiz-adv-x="522" d="M-166 1489q57 26 110.5 75.5t90 97.5t85.5 105t91 91q103 -31 194.5 -102t129.5 -159q-6 -20 -1 -80t-14 -85q-3 -12 4 -28.5t14 -28.5t4 -24.5t-22 -21.5q-48 25 -134 97t-103 85q-22 30 -43.5 21.5t-36 -29t-21.5 -43.5q-3 -6 -12.5 -27.5t-14.5 -30.5t-15 -28 t-18.5 -29t-19.5 -22t-24 -19t-27 -10q-22 19 -63.5 39.5t-71.5 35.5t-55 46t-27 74zM-70 1460q-1 -17 7.5 -25t20 -9t25 -6.5t19.5 -16.5q17 -4 29.5 -4t27 11.5t24.5 22.5t22 29.5t20 33t18.5 32.5t16.5 28q18 29 0 51.5t-49 20.5q-5 -6 -22.5 -26t-25 -28.5t-23.5 -26 t-26.5 -27.5t-25.5 -22.5t-29 -21.5t-29 -16zM70 178q55 798 63 893q11 51 7 97t3.5 98.5t34.5 83.5q29 -12 21 -64q34 17 72.5 29t85.5 14.5t73 -20.5q-17 -43 -16 -127t-13 -127q4 -150 -5.5 -436.5t-10.5 -344.5q15 -13 15 -30t-7.5 -39t-7.5 -33q-13 -5 -35 -14.5 t-38.5 -15.5t-36.5 -11.5t-39 -4t-37 10.5q-19 -5 -39 -7t-41 0.5t-34.5 14.5t-14.5 33zM154 440q8 4 8 21h-8v-21zM190.5 1131q0.5 -19 1.5 -29.5t3.5 -30.5t3.5 -24q-8 33 23 88.5t34 78.5q-19 -2 -32 -8.5t-19.5 -19.5t-10.5 -24.5t-3.5 -30.5zM205 1706l6 -31q-4 9 8 17 zM270 1020q61 39 88 86q-20 -5 -38.5 -24t-32.5 -39.5t-17 -22.5zM328 215l16 4l-10 27zM354 1214l17 -2l8 45h-8z" />
<glyph unicode="&#xcf;" horiz-adv-x="522" d="M-135 1510.5q0 25.5 0.5 54.5t-0.5 53q-4 34 18 62t54 40q26 13 53 10t43 -11.5t41.5 -19.5t48.5 -13q38 -38 43 -90.5t-12 -100.5q-47 -43 -108 -62t-124 -10q-29 14 -43 38t-14 49.5zM70 178q55 798 63 893q11 51 7 97t3.5 98.5t34.5 83.5q29 -12 21 -64q34 17 72.5 29 t85.5 14.5t73 -20.5q-17 -43 -16 -127t-13 -127q4 -150 -5.5 -436.5t-10.5 -344.5q15 -13 15 -30t-7.5 -39t-7.5 -33q-13 -5 -35 -14.5t-38.5 -15.5t-36.5 -11.5t-39 -4t-37 10.5q-19 -5 -39 -7t-41 0.5t-34.5 14.5t-14.5 33zM154 440q8 4 8 21h-8v-21zM190.5 1131 q0.5 -19 1.5 -29.5t3.5 -30.5t3.5 -24q-8 33 23 88.5t34 78.5q-19 -2 -32 -8.5t-19.5 -19.5t-10.5 -24.5t-3.5 -30.5zM270 1020q61 39 88 86q-20 -5 -38.5 -24t-32.5 -39.5t-17 -22.5zM319 1505q16 43 32 74.5t40 66.5t57.5 58t73.5 33q49 5 99.5 -34.5t80.5 -88.5 q35 -49 -16 -131q-7 -5 -37 -28.5t-43.5 -32.5t-42.5 -24.5t-49 -18t-47.5 2t-52.5 21.5zM328 215l16 4l-10 27zM354 1214l17 -2l8 45h-8zM419 1523q0 -29 15 -48q25 -15 63 -15t60 15q8 6 21.5 15t23 15.5t21.5 17.5t16.5 20t8.5 24t-3 30q-4 4 -12 13t-12.5 13t-12.5 10 t-14.5 8t-16.5 2t-20 -3q-7 -22 -28.5 -27t-42.5 -0.5t-37 -5t-15 -40.5q-15 -15 -15 -44z" />
<glyph unicode="&#xd0;" horiz-adv-x="1277" d="M74 721q3 27 10 52t16 50t9 29q1 9 98 8t98 8q26 236 19 430q6 2 29 33q24 30 30 10q3 -7 4 -20q4 -17 12 -23t19.5 -3.5t22.5 7.5t24.5 9t23.5 2q198 9 361 -115q44 -57 70 -91t65.5 -91t61 -98.5t46 -98.5t34 -106t10 -107t-12.5 -114q-10 -22 -33 -81.5t-43 -99 t-47 -73.5q-84 -67 -193 -93.5t-212.5 -17.5t-208.5 45q-40 -6 -74 21q0 2 -1 9t-2.5 8.5t-6 5t-14.5 4.5t-25 1q-12 9 -18 26t-6.5 30t1 34.5t1.5 26.5q16 145 39 315q3 19 -82 19q-4 0 -25 -0.5t-29.5 0t-24 1.5t-24.5 4.5t-14 8.5q-11 8 -8 35zM133 727q39 -15 114 -21 t120 -30q16 -2 39 -9.5t38 -12.5t32 -2.5t30 16.5q10 11 13 23t3 29t2 28q5 30 7.5 57.5t4 61.5t3.5 59q12 140 34 307q-13 3 -33.5 8t-35.5 7.5t-33 2.5q-47 0 -96 -14l-35 -307q34 -36 7.5 -69.5t-81.5 -43.5q-17 -2 -40 5t-76 1zM410 229q6 -2 38.5 -10.5t44 -11.5t37 -8 t46 -6t42.5 0q309 4 398 190q47 78 56.5 164.5t-7 159t-61 158t-85 143.5t-100.5 133q-23 21 -47 37t-42.5 24t-38.5 13t-31.5 6t-24.5 1.5t-14 0.5q-3 3 -10 -38q-10 -66 -42 -366q0 -8 18.5 -15.5t49.5 -8.5q6 0 54.5 2.5t89.5 0t50 -13.5q10 -12 12 -32t-2 -42t-9.5 -40 t-11.5 -34l-5 -15q-1 -11 -26 -5.5t-59.5 12t-72.5 -11.5q-19 -11 -48 -9.5t-42.5 6.5t-19.5 -3q-32 -314 -47 -317l6 -13q4 -24 -41 -39q-22 -7 -55 -12z" />
<glyph unicode="&#xd1;" horiz-adv-x="1318" d="M47 156q50 210 114 627.5t72 463.5q-17 47 -7.5 71.5t25 63t11.5 68.5q4 13 19 14.5t24 -8.5q10 -17 5.5 -45.5t0.5 -48.5q59 9 107.5 -8t85 -56.5t63 -78.5t59.5 -95t56 -86q12 -23 65 -124t84 -150q21 29 23 66t-6.5 68.5t-9 70t15.5 69.5q7 157 80 404q26 5 94.5 10.5 t101.5 11.5q28 -80 34 -175.5t-3.5 -177t-13.5 -180t4 -183.5q-16 -87 -2.5 -301.5t8.5 -296.5q-23 11 -47.5 4.5t-42.5 -20t-42.5 -20t-47.5 4.5q-8 -14 -21.5 -14t-24 8.5t-18.5 19.5q-69 70 -152.5 187t-166.5 226.5t-166 180.5q-19 -85 -24.5 -272.5t-32.5 -278.5 q-29 -20 -75 -27t-102.5 -8.5t-84.5 -7.5q-5 -1 -14 -7t-13.5 -6.5t-13.5 7.5zM131 207l180 20q20 63 32 140t15 131t6.5 150t6.5 143q12 26 13 50t-6.5 41.5t-22 36t-29.5 32.5t-31.5 32t-26.5 33q-26 -122 -48.5 -256t-47.5 -296.5t-41 -256.5zM257.5 1644.5 q-2.5 34.5 5 65t14 69t2.5 64.5q1 2 20 66q37 2 79 23t73.5 45.5t75.5 44t85 18.5q42 9 71 4t56.5 -21.5t48 -38.5t45 -45.5t47 -42.5t54.5 -30t67 -8q18 -2 46 8.5t48 21t40.5 5.5t31.5 -35q-8 -31 -11 -79t-5.5 -87t-10.5 -79.5t-31 -70.5t-62 -45q-18 -13 -40.5 -14 t-36.5 3t-42 16.5t-35 15.5q-27 19 -50.5 51.5t-38 61t-39.5 54.5t-58 35q-40 16 -83.5 13.5t-75 -11.5t-70 -28.5t-67 -37.5t-65.5 -38.5t-67 -32.5q-19 25 -21.5 59.5zM342 1196l86 64l-20 16q-38 -19 -66 -80zM344 1720q24 9 56.5 24t57.5 27.5t56.5 25t59 18.5t59.5 4.5 t63 -13.5q38 -9 71 -36t57.5 -59t49.5 -63.5t59.5 -53.5t76.5 -25q29 14 47 41.5t23 54t11.5 66.5t12.5 61q-6 -1 -30.5 -8t-36.5 -8.5l-32 -4t-36 1.5t-31 13q-31 1 -56.5 14t-42.5 32t-35 41.5t-33.5 42.5t-38 34.5t-48.5 17.5t-66 -8q-18 -10 -63.5 -20.5t-72 -29 t-29.5 -59.5q-17 -3 -29.5 -14.5t-19 -24t-20 -21t-34.5 -5.5zM502 1090q25 0 51 26l-16 14zM600 981h25v27zM708.5 761.5q-3.5 -9.5 0.5 -20.5q3 0 11 -0.5t12.5 -0.5t11 2t10.5 6q5 29 -21 51q-3 -6 -12 -17t-12.5 -20.5zM791 438q-9 -23 4 -49.5t35 -47.5t47.5 -49.5 t35.5 -49.5l21 43l-35 8q-17 2 -21 14t-1.5 32t0.5 28q-18 -5 -28.5 -5.5t-19.5 10t-13.5 20t-11.5 24t-13 22.5zM991 1341q11 -5 31 15q-6 10 -21.5 4t-9.5 -19zM1056 1337q0 -5 3 -10l41 -16v30q-1 17 -23 14q-20 -3 -21 -18zM1059 293q14 -24 41 -21q0 4 0.5 15.5t0.5 18 t-1.5 15.5t-5.5 15zM1079 618q11 -6 27 15q0 2 0.5 7t1 8.5t0 7t-2.5 5.5t-5 1zM1092.5 1213q2.5 -28 14 -52t11 -54t-23.5 -54h22q16 135 -10 207q-16 -19 -13.5 -47z" />
<glyph unicode="&#xd2;" horiz-adv-x="1265" d="M74 739q54 166 185 299t288 193q42 -13 116 -25t128 -21.5t114.5 -38.5t98.5 -77q101 -102 136 -246.5t1 -292.5q-35 -21 -41 -87.5t-17 -84.5q-33 -74 -104 -137.5t-145.5 -100.5t-155.5 -61q-49 14 -139 24t-160 29t-123 62q-115 115 -166.5 258.5t-15.5 306.5z M154 422l122 -162q22 -44 64 -62.5t83 -18t90 -3t77 -18.5q23 -6 46.5 -6t44 3.5t43.5 11.5t41 17t40.5 22t39 24t39 25.5t38.5 23.5q46 21 70.5 67.5t42.5 106t42 90.5q2 8 10 41t11 49t2.5 40.5t-8.5 41.5q12 186 -177 364q-137 70 -305 70q-17 -8 -51 -14t-59 -18 t-41 -38q-19 0 -41.5 -14.5t-49 -37t-40.5 -30.5q-115 -112 -167 -262.5t-7 -312.5zM372 1645.5q0 2.5 0.5 7t0.5 6.5l41 12q3 16 -1.5 33t-9.5 27.5t-3.5 22t14.5 20.5q2 -13 4 -21.5t7 -16t8 -11.5t12 -13.5t14 -15.5l186 108q45 -34 72.5 -91.5t37 -111t30 -117 t51.5 -102.5q5 -24 -6.5 -37t-28.5 -16.5t-33.5 -15t-19.5 -31.5q-29 13 -58 39t-57.5 55.5t-48.5 42.5q-21 54 -42.5 90t-60.5 84q-13 4 -27 14.5t-22.5 18t-23.5 12t-29 -3.5q-3 2 -5 5.5t-2 6zM496 1679q26 -26 53.5 -67t46.5 -73t51.5 -66t71.5 -54q9 30 -7.5 90 t-9.5 90l-40 144q-19 14 -43 7t-40.5 -21t-40 -30.5t-42.5 -19.5z" />
<glyph unicode="&#xd3;" horiz-adv-x="1265" d="M74 739q54 166 185 299t288 193q42 -13 116 -25t128 -21.5t114.5 -38.5t98.5 -77q101 -102 136 -246.5t1 -292.5q-35 -21 -41 -87.5t-17 -84.5q-33 -74 -104 -137.5t-145.5 -100.5t-155.5 -61q-49 14 -139 24t-160 29t-123 62q-115 115 -166.5 258.5t-15.5 306.5z M154 422l122 -162q22 -44 64 -62.5t83 -18t90 -3t77 -18.5q23 -6 46.5 -6t44 3.5t43.5 11.5t41 17t40.5 22t39 24t39 25.5t38.5 23.5q46 21 70.5 67.5t42.5 106t42 90.5q2 8 10 41t11 49t2.5 40.5t-8.5 41.5q12 186 -177 364q-137 70 -305 70q-17 -8 -51 -14t-59 -18 t-41 -38q-19 0 -41.5 -14.5t-49 -37t-40.5 -30.5q-115 -112 -167 -262.5t-7 -312.5zM551 1343q-3 40 34.5 98t39.5 85q5 7 75 92t91 135q143 -22 200 -115v-28q-47 -38 -103.5 -111t-112 -132.5t-116.5 -88.5q-89 16 -108 65z" />
<glyph unicode="&#xd4;" horiz-adv-x="1265" d="M74 739q54 166 185 299t288 193q42 -13 116 -25t128 -21.5t114.5 -38.5t98.5 -77q101 -102 136 -246.5t1 -292.5q-35 -21 -41 -87.5t-17 -84.5q-33 -74 -104 -137.5t-145.5 -100.5t-155.5 -61q-49 14 -139 24t-160 29t-123 62q-115 115 -166.5 258.5t-15.5 306.5z M154 422l122 -162q22 -44 64 -62.5t83 -18t90 -3t77 -18.5q23 -6 46.5 -6t44 3.5t43.5 11.5t41 17t40.5 22t39 24t39 25.5t38.5 23.5q46 21 70.5 67.5t42.5 106t42 90.5q2 8 10 41t11 49t2.5 40.5t-8.5 41.5q12 186 -177 364q-137 70 -305 70q-17 -8 -51 -14t-59 -18 t-41 -38q-19 0 -41.5 -14.5t-49 -37t-40.5 -30.5q-115 -112 -167 -262.5t-7 -312.5zM254 1473q57 26 110.5 75t90 97t85.5 105t91 91q103 -31 194 -101.5t129 -158.5q-6 -20 -0.5 -80.5t-13.5 -85.5q-3 -12 4 -28.5t14 -28t4 -24t-22 -21.5q-48 25 -135 97.5t-103 84.5 q-22 30 -43.5 21.5t-35.5 -29t-21 -43.5q-3 -6 -12.5 -27.5t-14.5 -30.5t-15 -28t-18.5 -29t-19.5 -22t-24 -19t-27 -10q-22 19 -63.5 39.5t-71.5 35.5t-55 46t-27 74zM350 1444q-2 -21 12 -28t33.5 -11.5t26.5 -18.5q17 -4 29.5 -4t27 11.5t24.5 23t22 30t20 33t18.5 32.5 t16.5 28q19 28 0 51t-50 21q-5 -6 -26 -30.5t-29.5 -34t-27.5 -29.5t-31.5 -30.5t-30.5 -23t-35 -20.5zM625 1690l6 -31q-4 9 6 15q1 1 2 1z" />
<glyph unicode="&#xd5;" horiz-adv-x="1265" d="M74 739q54 166 185 299t288 193q42 -13 116 -25t128 -21.5t114.5 -38.5t98.5 -77q101 -102 136 -246.5t1 -292.5q-35 -21 -41 -87.5t-17 -84.5q-33 -74 -104 -137.5t-145.5 -100.5t-155.5 -61q-49 14 -139 24t-160 29t-123 62q-115 115 -166.5 258.5t-15.5 306.5z M154 422l122 -162q22 -44 64 -62.5t83 -18t90 -3t77 -18.5q23 -6 46.5 -6t44 3.5t43.5 11.5t41 17t40.5 22t39 24t39 25.5t38.5 23.5q46 21 70.5 67.5t42.5 106t42 90.5q2 8 10 41t11 49t2.5 40.5t-8.5 41.5q12 186 -177 364q-137 70 -305 70q-17 -8 -51 -14t-59 -18 t-41 -38q-19 0 -41.5 -14.5t-49 -37t-40.5 -30.5q-115 -112 -167 -262.5t-7 -312.5zM259.5 1382.5q-2.5 34.5 5 65t14 69t2.5 64.5q1 2 20 66q37 2 79 23t73.5 45.5t75.5 44t85 18.5q43 12 81 2t63.5 -31.5t54 -49.5t53.5 -52.5t61 -39.5t77 -12q18 -2 45.5 8.5t48 21 t40.5 5.5t31 -35q-8 -31 -11 -78.5t-5.5 -87t-10.5 -79.5t-31 -70t-62 -45q-18 -13 -41 -14t-36 2.5t-42 16.5t-35 15q-27 19 -50.5 52t-38 61t-39.5 54.5t-58 35.5q-40 16 -83.5 13.5t-75 -11.5t-70 -28.5t-67 -37.5t-65.5 -38.5t-67 -32.5q-19 25 -21.5 59.5zM346 1458 q24 9 56.5 24t57.5 27.5t56.5 25t59 18.5t59.5 4.5t63 -13.5q38 -9 71 -36t57.5 -59t49.5 -63.5t59.5 -53.5t76.5 -25q29 14 47 41.5t23 54t11.5 66.5t12.5 61q-6 -1 -30.5 -8t-36.5 -8.5l-32 -4t-36 1.5t-31 13q-35 1 -64 18t-46.5 41t-39 50t-41.5 45t-53 26.5t-75 -6.5 q-18 -10 -63.5 -20.5t-72.5 -29t-30 -59.5q-17 -3 -29.5 -14.5t-19 -24t-20 -21t-34.5 -5.5z" />
<glyph unicode="&#xd6;" horiz-adv-x="1265" d="M74 739q54 166 185 299t288 193q42 -13 116 -25t128 -21.5t114.5 -38.5t98.5 -77q101 -102 136 -246.5t1 -292.5q-35 -21 -41 -87.5t-17 -84.5q-33 -74 -104 -137.5t-145.5 -100.5t-155.5 -61q-49 14 -139 24t-160 29t-123 62q-115 115 -166.5 258.5t-15.5 306.5z M154 422l122 -162q22 -44 64 -62.5t83 -18t90 -3t77 -18.5q23 -6 46.5 -6t44 3.5t43.5 11.5t41 17t40.5 22t39 24t39 25.5t38.5 23.5q46 21 70.5 67.5t42.5 106t42 90.5q2 8 10 41t11 49t2.5 40.5t-8.5 41.5q12 186 -177 364q-137 70 -305 70q-17 -8 -51 -14t-59 -18 t-41 -38q-19 0 -41.5 -14.5t-49 -37t-40.5 -30.5q-115 -112 -167 -262.5t-7 -312.5zM260 1404q0 25 0.5 54t-0.5 53q-4 35 18 63.5t54 39.5q26 13 53 10t43 -12t41.5 -20t48.5 -13q38 -38 43 -90t-12 -100q-47 -43 -108 -62t-124 -10q-29 14 -43 38t-14 49zM715 1399 q16 42 32 74t40 66.5t57.5 57.5t73.5 33q49 5 99.5 -34.5t80.5 -88.5q35 -48 -17 -131q-7 -5 -37 -28.5t-43.5 -32.5t-42.5 -24.5t-49 -18t-47.5 2t-52.5 21.5zM814 1416q0 -29 15 -48q25 -15 63 -15t60 15q7 6 21 15.5t23.5 15.5t22 17t16.5 20.5t8 24.5t-3 30q-4 4 -12 13 t-12.5 13t-12.5 10t-14.5 8t-16.5 2t-20 -3q-7 -22 -28.5 -27t-42.5 -1t-37 -5.5t-15 -40.5q-15 -15 -15 -44z" />
<glyph unicode="&#xd7;" horiz-adv-x="1173" d="M178 381.5q0 33.5 16.5 57t45 46.5t58.5 39.5t61.5 39t48.5 42.5q-2 4 -5 9.5t-11 15t-13 8.5q-3 25 -17 42t-33 26.5t-38 18t-35.5 23t-22.5 35.5q32 32 57.5 53.5t60.5 45.5t71.5 33t71.5 2q12 -81 120 -168q31 17 67.5 56t71 68t72.5 33q-13 -50 -46 -86.5t-86 -74.5 t-79 -66q-40 10 -68 38.5t-56.5 80t-40.5 67.5q-39 -8 -76 -32.5t-54 -55.5q6 -2 19 -12.5t22 -11.5q22 -31 57.5 -64.5t64.5 -56.5t57 -60t41 -79q50 -39 112 -136t92 -129l90 64q6 3 6 11t-6 11q-13 31 -43.5 65.5t-59.5 59.5t-55 61.5t-32 73.5q14 41 46.5 67t66 36.5 t70.5 32.5t57 55q-47 100 -88 141l10 11q9 0 26 -3t21 -4q6 -7 32.5 -33t37 -39.5t20.5 -38.5t6 -50q-31 -50 -120 -96.5t-119 -84.5l108 -145q6 -21 30.5 -40.5t44.5 -39t19 -45.5q-15 -19 -32 -35.5t-40 -33.5t-36 -25.5t-42.5 -26.5t-35.5 -22q-35 38 -88 124.5 t-74 114.5q-34 22 -57 58q-28 -48 -72.5 -92.5t-102.5 -92.5t-85 -75q-26 3 -39 24t-23 50t-24 42q-23 39 -23 72.5z" />
<glyph unicode="&#xd8;" horiz-adv-x="1265" d="M74 739q54 166 185 299t288 193q41 -14 128.5 -28t102.5 -17q32 86 51 127q12 19 28 51.5t27 54.5t28.5 44.5t35.5 31t45 5t60 -24.5q-31 -39 -133 -336q47 -24 84 -70q101 -102 136 -246.5t1 -292.5q-35 -21 -41 -87.5t-17 -84.5q-33 -74 -104 -137.5t-145.5 -100.5 t-155.5 -61q-52 14 -135 25q-106 -315 -109 -332q14 -26 -15 -53.5t-65 -30.5q-24 0 -68 -10q-9 -2 -9 3q0 1 24 71q6 17 12 35q38 84 119 333q-105 17 -176 74q-115 115 -166.5 258.5t-15.5 306.5zM154 422l122 -162q22 -44 64 -62.5t83 -18t90 -3t77 -18.5q23 -6 46.5 -6 t44 3.5t43.5 11.5t41 17t40.5 22t39 24t39 25.5t38.5 23.5q46 21 70.5 67.5t42.5 106t42 90.5q2 8 10 41t11 49t2.5 40.5t-8.5 41.5q12 186 -177 364q-137 70 -305 70q-17 -8 -51 -14t-59 -18t-41 -38q-19 0 -41.5 -14.5t-49 -37t-40.5 -30.5q-115 -112 -167 -262.5 t-7 -312.5z" />
<glyph unicode="&#xd9;" horiz-adv-x="1130" d="M57.5 690q3.5 93 16.5 171t25 173.5t12 159.5q13 2 37 9.5t45 13.5t46 11.5t44 4t34.5 -9t21.5 -28t1 -52.5q-23 -81 -15.5 -252.5t-19.5 -253.5q7 -15 17.5 -46t20 -52.5t24.5 -44t38 -34t54 -9.5q49 13 98 -11q108 55 163.5 161.5t67.5 236.5q2 72 -28 191t-35 165 q15 9 31.5 14t29.5 7t32.5 -1.5t30.5 -6t32 -11t28.5 -12t29.5 -14.5l26 -13q43 -61 53.5 -144.5t-0.5 -151t-30 -166.5t-23 -152q-16 -26 -27.5 -81t-32 -94.5t-65.5 -56.5q-36 2 -71 -14.5t-60 -39.5t-56.5 -45t-60.5 -31t-72 1q-29 -18 -60 -19.5t-60 10.5t-55 26.5 t-57.5 31.5t-56.5 23q-72 50 -113 122.5t-52.5 146.5t-8 167zM133 506q28 -93 110.5 -159t184.5 -93l8 123q-14 22 -63.5 35.5t-67.5 38.5q-37 56 -50 128t-6.5 139t14 145t12 145.5t-12.5 140.5q-24 13 -56 6.5t-46 -35.5q5 -101 -17.5 -300t-9.5 -314zM298 1580 q0 2 0.5 6.5t0.5 6.5l41 13q3 16 -1.5 32.5t-9.5 27t-3.5 22t14.5 20.5q2 -13 4 -21.5t7 -16t8 -11.5t12 -13.5t14 -15.5l186 109q45 -34 72.5 -91.5t37 -111t30 -117t51.5 -102.5q5 -24 -6.5 -37t-28.5 -16.5t-33.5 -15t-19.5 -31.5q-29 13 -58 39t-57.5 55.5t-48.5 42.5 q-36 93 -102 174q-13 4 -27 14.5t-23 18t-24 12t-29 -3.5q-4 2 -5.5 5.5t-1.5 5.5zM422 1614q26 -26 53.5 -67t46.5 -73t51.5 -66t71.5 -54q9 30 -7 90t-9 90l-41 143q-19 14 -43 7t-40.5 -21t-40 -30t-42.5 -19zM805 389h14q31 19 43.5 53.5t7.5 63.5z" />
<glyph unicode="&#xda;" horiz-adv-x="1130" d="M57.5 690q3.5 93 16.5 171t25 173.5t12 159.5q13 2 37 9.5t45 13.5t46 11.5t44 4t34.5 -9t21.5 -28t1 -52.5q-23 -81 -15.5 -252.5t-19.5 -253.5q7 -15 17.5 -46t20 -52.5t24.5 -44t38 -34t54 -9.5q49 13 98 -11q108 55 163.5 161.5t67.5 236.5q2 72 -28 191t-35 165 q15 9 31.5 14t29.5 7t32.5 -1.5t30.5 -6t32 -11t28.5 -12t29.5 -14.5l26 -13q43 -61 53.5 -144.5t-0.5 -151t-30 -166.5t-23 -152q-16 -26 -27.5 -81t-32 -94.5t-65.5 -56.5q-36 2 -71 -14.5t-60 -39.5t-56.5 -45t-60.5 -31t-72 1q-29 -18 -60 -19.5t-60 10.5t-55 26.5 t-57.5 31.5t-56.5 23q-72 50 -113 122.5t-52.5 146.5t-8 167zM133 506q28 -93 110.5 -159t184.5 -93l8 123q-14 22 -63.5 35.5t-67.5 38.5q-37 56 -50 128t-6.5 139t14 145t12 145.5t-12.5 140.5q-24 13 -56 6.5t-46 -35.5q5 -101 -17.5 -300t-9.5 -314zM461 1335 q-3 40 34.5 98t39.5 85q3 5 73.5 91t91.5 136q144 -22 201 -115v-28q-47 -38 -103.5 -111t-112 -132.5t-116.5 -88.5q-89 16 -108 65zM805 389h14q31 19 43.5 53.5t7.5 63.5z" />
<glyph unicode="&#xdb;" horiz-adv-x="1130" d="M57.5 690q3.5 93 16.5 171t25 173.5t12 159.5q13 2 37 9.5t45 13.5t46 11.5t44 4t34.5 -9t21.5 -28t1 -52.5q-23 -81 -15.5 -252.5t-19.5 -253.5q7 -15 17.5 -46t20 -52.5t24.5 -44t38 -34t54 -9.5q49 13 98 -11q108 55 163.5 161.5t67.5 236.5q2 72 -28 191t-35 165 q15 9 31.5 14t29.5 7t32.5 -1.5t30.5 -6t32 -11t28.5 -12t29.5 -14.5l26 -13q43 -61 53.5 -144.5t-0.5 -151t-30 -166.5t-23 -152q-16 -26 -27.5 -81t-32 -94.5t-65.5 -56.5q-36 2 -71 -14.5t-60 -39.5t-56.5 -45t-60.5 -31t-72 1q-29 -18 -60 -19.5t-60 10.5t-55 26.5 t-57.5 31.5t-56.5 23q-72 50 -113 122.5t-52.5 146.5t-8 167zM133 506q28 -93 110.5 -159t184.5 -93l8 123q-14 22 -63.5 35.5t-67.5 38.5q-37 56 -50 128t-6.5 139t14 145t12 145.5t-12.5 140.5q-24 13 -56 6.5t-46 -35.5q5 -101 -17.5 -300t-9.5 -314zM262 1432 q57 26 110.5 75t90 97t85.5 105t91 91q103 -31 194.5 -102t129.5 -158q-6 -20 -1 -80.5t-14 -85.5q-3 -12 4 -28.5t14 -28t4 -24t-22 -21.5q-48 25 -134 97t-103 85q-22 30 -43.5 21.5t-36 -29t-21.5 -43.5q-3 -6 -12.5 -27.5t-14.5 -30.5t-15 -28t-18.5 -29t-19.5 -22 t-24 -19t-27 -10q-22 19 -63.5 39.5t-71.5 35.5t-55 46t-27 74zM358 1403q-1 -17 7.5 -25t20 -9t25 -6.5t19.5 -16.5q17 -4 29.5 -4t27 11.5t24.5 22.5t22 29.5t20 33t18.5 32.5t16.5 28q18 29 0 51.5t-49 20.5q-5 -6 -22.5 -26t-25 -28.5t-23.5 -26t-26.5 -27.5 t-25.5 -22.5t-29 -21.5t-29 -16zM633 1649l6 -31q-4 9 6 15q1 1 2 1zM805 389h14q31 19 43.5 53.5t7.5 63.5z" />
<glyph unicode="&#xdc;" horiz-adv-x="1130" d="M57.5 690q3.5 93 16.5 171t25 173.5t12 159.5q13 2 37 9.5t45 13.5t46 11.5t44 4t34.5 -9t21.5 -28t1 -52.5q-23 -81 -15.5 -252.5t-19.5 -253.5q7 -15 17.5 -46t20 -52.5t24.5 -44t38 -34t54 -9.5q49 13 98 -11q108 55 163.5 161.5t67.5 236.5q2 72 -28 191t-35 165 q15 9 31.5 14t29.5 7t32.5 -1.5t30.5 -6t32 -11t28.5 -12t29.5 -14.5l26 -13q43 -61 53.5 -144.5t-0.5 -151t-30 -166.5t-23 -152q-16 -26 -27.5 -81t-32 -94.5t-65.5 -56.5q-36 2 -71 -14.5t-60 -39.5t-56.5 -45t-60.5 -31t-72 1q-29 -18 -60 -19.5t-60 10.5t-55 26.5 t-57.5 31.5t-56.5 23q-72 50 -113 122.5t-52.5 146.5t-8 167zM133 506q28 -93 110.5 -159t184.5 -93l8 123q-14 22 -63.5 35.5t-67.5 38.5q-37 56 -50 128t-6.5 139t14 145t12 145.5t-12.5 140.5q-24 13 -56 6.5t-46 -35.5q5 -101 -17.5 -300t-9.5 -314zM227 1520 q-4 34 18 62t54 40q26 13 53 10t43 -12t41.5 -20t48.5 -13q38 -38 43 -90t-12 -100q-48 -43 -108 -62t-123 -10q-29 14 -43 38t-14.5 49.5t0 54.5t-0.5 53zM682 1407q16 42 32 74t40 66.5t57.5 57.5t73.5 33q49 5 99.5 -34t80.5 -88q35 -49 -16 -132q-8 -6 -31.5 -24.5 t-36.5 -27t-36.5 -23.5t-41 -19.5t-40 -8t-44 3t-43.5 20.5zM782 1424q0 -29 15 -48q25 -15 63 -15t60 15q7 6 21 15.5t23.5 15.5t22 17t16.5 20.5t8 24.5t-3 30q-4 4 -12 13t-12.5 13t-12.5 10t-14.5 8t-16.5 2t-20 -3q-7 -22 -28.5 -27t-42.5 -1t-37 -5.5t-15 -40.5 q-15 -15 -15 -44zM805 389h14q31 19 43.5 53.5t7.5 63.5z" />
<glyph unicode="&#xdd;" horiz-adv-x="1146" d="M55 1167q170 63 238 146q55 -13 94.5 -54.5t58.5 -87t46 -105t55 -93.5q12 -11 21 -41t21 -46t38 -7q11 43 39 85t60 76t63.5 69t54.5 78t28 89q34 17 50.5 0.5t31 -49.5t35.5 -43q9 -23 31.5 -41.5t43.5 -28t39.5 -25t19 -32t-18.5 -49.5q-38 -61 -110 -144.5 t-129.5 -161t-86.5 -155.5q-31 -46 -47.5 -100t-20 -91t-5.5 -111t-5 -110l-24 -14l-230 8q-18 34 -25.5 87.5t-7 94.5t4.5 109t4 92q-16 0 -26 10.5t-14.5 23t-15.5 22t-28 7.5q-11 60 -42.5 123t-68 116.5t-73.5 108.5t-64.5 118.5t-34.5 125.5zM121 1147q8 -54 36 -109 t63 -101t70 -92.5t62.5 -101t34.5 -108.5q17 11 35 3t28 -19.5t25.5 -27.5t28.5 -22q44 -7 116.5 30t100.5 42q74 142 260 332q37 23 44.5 45t-9.5 41.5t-39.5 36t-46 34.5t-29.5 31q-8 -35 -33 -71t-52 -62.5t-57.5 -62.5t-45.5 -66q4 -29 -11.5 -53.5t-44 -51.5t-39.5 -44 q-30 -21 -63 20q-22 90 -105 237t-106 205l-41 13q-35 -26 -59 -41.5t-59 -28t-64 -8.5zM483 1360q-3 40 34.5 97.5t39.5 84.5q5 7 75 92t91 135q145 -22 201 -114v-29q-47 -38 -103.5 -111t-112 -132.5t-116.5 -88.5q-90 16 -109 66zM604 201h23l12 129q3 -23 -4 -47 t-17.5 -47.5t-13.5 -34.5z" />
<glyph unicode="&#xde;" horiz-adv-x="995" d="M92 12q11 122 33.5 347t39.5 412.5t28 354.5q0 3 1 76.5t9 125.5t26 71q13 -3 52 11t59 15q33 2 97.5 -5.5t84.5 -2.5q3 1 -11 -105t-28.5 -212.5t-11.5 -106.5q25 -6 106.5 -18t110.5 -21q25 -8 54 -22t53.5 -22t58.5 -11q45 -47 63 -111t10 -131.5t-26 -128t-47 -120.5 q-8 -25 -24.5 -46t-34 -34.5t-44.5 -27.5t-46 -21t-49.5 -18t-45.5 -17q-136 16 -174 20q-11 -11 -19 -82.5t-5 -109.5q-7 -65 -45 -97q-70 -19 -151.5 -10t-123.5 47zM426 745q1 -22 8 -30q1 -68 -5 -167t1 -161q4 -34 32.5 -43.5t74.5 -8.5t65 -5q91 18 156 76.5t96 146.5 q-1 29 8.5 91.5t6.5 109t-29 82.5q-36 3 -104 24.5t-105 24.5q-93 17 -195 30q0 -25 -3 -61.5t-5.5 -61.5t-1.5 -47z" />
<glyph unicode="&#xdf;" horiz-adv-x="1007" d="M70.5 406.5q13.5 168.5 29 390t6.5 288.5q16 32 11.5 69.5t-10 77t-8 72t18.5 54t68 22.5q10 0 73.5 1t85.5 -0.5t69.5 -7t81.5 -20.5t65 -38q35 -12 85 -25t78 -21t64 -31.5t68 -61.5q51 -86 67 -176.5t-12 -157t-98 -78.5q-58 4 -53 -29q5 -36 67 -84q36 -28 72 -41 q35 -25 52.5 -102.5t0.5 -140.5q2 -17 -3 -35t-19.5 -37.5t-26.5 -34.5t-37 -36.5t-37 -31.5t-40 -31.5t-33 -25.5q-25 -16 -84.5 -16t-81.5 -8q-16 -1 -30 21t-23 48.5t-23 49.5t-29 24q6 14 36 27t67.5 22.5t77.5 24t65.5 32.5t31.5 48t-24 69q-42 54 -58 69.5t-52.5 39.5 t-85.5 65q-62 62 28 140q57 6 92 25t49 37.5t11.5 55t-7 52.5t-18.5 55l-6 18q-18 45 -86.5 72.5t-134 34t-125.5 4.5q-4 -35 1 -115t4 -153t-19 -115q9 -5 10 -104t-2 -195l-4 -96q5 -31 10 -110.5t5 -182t-19.5 -184t-59.5 -91.5q-16 0 -31 0.5t-22 1t-18.5 -0.5t-28.5 -3 q-10 1 -18.5 4.5t-15 6.5t-14 9.5t-11.5 10t-11 13.5t-9.5 14t-10.5 16t-10 16q8 48 3 121.5t-3 126.5q-15 103 -1.5 271.5zM121 135q4 -46 4.5 -89.5t3.5 -77.5t16 -87q67 -32 55 -34q-2 -1 1 -1q1 -1 6 -2q3 1 30.5 6t40 12.5t13.5 22.5q3 32 -11.5 271t-5.5 290 q6 39 3 86t-10 87t-6.5 78t13.5 59q1 10 7.5 43.5t5.5 61t-13 59.5l19 327q-17 4 -33 9.5t-22 8t-14.5 2.5t-16.5 -3.5t-23 -12.5q-24 -243 -52 -641t-11 -475z" />
<glyph unicode="&#xe0;" horiz-adv-x="1191" d="M61 362q9 205 126.5 367.5t289.5 222.5q-4 -9 -31.5 -34t-33.5 -48q15 -14 36 -13t37.5 6t38.5 -7q107 -26 219 -147l7 110q36 22 64 33t64 10t66 -24q5 -34 -2.5 -127.5t2.5 -130.5q6 -26 6 -105.5t19 -112.5q21 -6 44.5 -3t43 10t39.5 1.5t34 -28.5q5 -35 -0.5 -68 t-16.5 -70.5t-15 -62.5q-47 -10 -128.5 -15.5t-103.5 -8.5q-27 -9 -84 26q-4 3 -6 4l-41 93q-5 -6 -19 -23.5t-21.5 -26t-21.5 -25t-23 -25t-23.5 -22t-25.5 -20t-25.5 -14.5t-27.5 -10.5t-27.5 -3t-28.5 3.5q-24 -28 -55 -32t-69 4t-57 5q-14 9 -44 22t-42 19 q-164 122 -164 270zM127.5 313q0.5 -43 18.5 -77.5t53 -59.5q57 -39 121.5 -59t134 -13.5t125.5 43.5q56 33 92.5 83.5t53 116t21.5 126t3 139.5q-7 41 -35 66t-65 47.5t-54 48.5q-12 3 -46 11t-50 11t-43 3t-51 -6q-87 -27 -151.5 -89.5t-94.5 -156.5q-3 -23 -14 -73.5 t-15 -84t-3.5 -76.5zM222 1383.5q0 2.5 0.5 7t0.5 6.5l41 12q3 16 -1.5 32.5t-9.5 27t-3.5 22t14.5 20.5q2 -13 4 -21.5t7 -15.5t8 -11.5t11.5 -13.5t14.5 -15l187 108q45 -34 72 -91.5t36.5 -111t30 -117t51.5 -102.5q5 -24 -6.5 -37t-28.5 -16.5t-33.5 -15t-19.5 -31.5 q-29 13 -58 39t-57.5 55.5t-48.5 42.5q-36 93 -102 174q-13 4 -27 14.5t-23 18t-24 12t-29 -3.5q-3 2 -5 5.5t-2 6zM346 1417q26 -26 53.5 -67t46.5 -73t51.5 -66t71.5 -54q9 30 -7 90t-9 90l-41 144q-19 14 -43 7t-40.5 -21t-40 -30.5t-42.5 -19.5z" />
<glyph unicode="&#xe1;" horiz-adv-x="1191" d="M61 362q9 205 126.5 367.5t289.5 222.5q-4 -9 -31.5 -34t-33.5 -48q15 -14 36 -13t37.5 6t38.5 -7q107 -26 219 -147l7 110q36 22 64 33t64 10t66 -24q5 -34 -2.5 -127.5t2.5 -130.5q6 -26 6 -105.5t19 -112.5q21 -6 44.5 -3t43 10t39.5 1.5t34 -28.5q5 -35 -0.5 -68 t-16.5 -70.5t-15 -62.5q-47 -10 -128.5 -15.5t-103.5 -8.5q-27 -9 -84 26q-4 3 -6 4l-41 93q-5 -6 -19 -23.5t-21.5 -26t-21.5 -25t-23 -25t-23.5 -22t-25.5 -20t-25.5 -14.5t-27.5 -10.5t-27.5 -3t-28.5 3.5q-24 -28 -55 -32t-69 4t-57 5q-14 9 -44 22t-42 19 q-164 122 -164 270zM127.5 313q0.5 -43 18.5 -77.5t53 -59.5q57 -39 121.5 -59t134 -13.5t125.5 43.5q56 33 92.5 83.5t53 116t21.5 126t3 139.5q-7 41 -35 66t-65 47.5t-54 48.5q-12 3 -46 11t-50 11t-43 3t-51 -6q-87 -27 -151.5 -89.5t-94.5 -156.5q-3 -23 -14 -73.5 t-15 -84t-3.5 -76.5zM311 1090q-3 40 34.5 97.5t39.5 84.5q5 7 75 92t91 135q144 -22 201 -115v-28q-47 -38 -103.5 -111t-112 -132.5t-116.5 -88.5q-90 16 -109 66z" />
<glyph unicode="&#xe2;" horiz-adv-x="1191" d="M61 362q9 205 126.5 367.5t289.5 222.5q-4 -9 -31.5 -34t-33.5 -48q15 -14 36 -13t37.5 6t38.5 -7q107 -26 219 -147l7 110q36 22 64 33t64 10t66 -24q5 -34 -2.5 -127.5t2.5 -130.5q6 -26 6 -105.5t19 -112.5q21 -6 44.5 -3t43 10t39.5 1.5t34 -28.5q5 -35 -0.5 -68 t-16.5 -70.5t-15 -62.5q-47 -10 -128.5 -15.5t-103.5 -8.5q-27 -9 -84 26q-4 3 -6 4l-41 93q-5 -6 -19 -23.5t-21.5 -26t-21.5 -25t-23 -25t-23.5 -22t-25.5 -20t-25.5 -14.5t-27.5 -10.5t-27.5 -3t-28.5 3.5q-24 -28 -55 -32t-69 4t-57 5q-14 9 -44 22t-42 19 q-164 122 -164 270zM127.5 313q0.5 -43 18.5 -77.5t53 -59.5q57 -39 121.5 -59t134 -13.5t125.5 43.5q56 33 92.5 83.5t53 116t21.5 126t3 139.5q-7 41 -35 66t-65 47.5t-54 48.5q-12 3 -46 11t-50 11t-43 3t-51 -6q-87 -27 -151.5 -89.5t-94.5 -156.5q-3 -23 -14 -73.5 t-15 -84t-3.5 -76.5zM178 1235q57 26 110.5 75.5t90 97.5t85.5 105t91 91q103 -31 194.5 -102t129.5 -159q-6 -20 -1 -80t-14 -85q-3 -12 4 -28.5t14 -28.5t4 -24.5t-22 -21.5q-48 25 -134 97t-103 85q-22 30 -43.5 21.5t-36 -29t-21.5 -43.5q-3 -6 -12.5 -27.5t-14.5 -30.5 t-15 -28t-18.5 -29t-19.5 -22t-24 -19t-27 -10q-22 19 -63.5 39.5t-71.5 35.5t-55 46t-27 74zM274 1206q-1 -17 7.5 -25t20 -9t25 -6.5t19.5 -16.5q17 -4 29.5 -4t27 11.5t24.5 23t22 30t20 33t18.5 32.5t16.5 28q18 29 0 51t-49 20q-5 -6 -22.5 -26t-25 -28.5t-23.5 -26 t-26.5 -27.5t-25.5 -22.5t-29 -21.5t-29 -16zM549 1452l6 -31q-4 9 8 17z" />
<glyph unicode="&#xe3;" horiz-adv-x="1191" d="M61 362q9 205 126.5 367.5t289.5 222.5q-4 -9 -31.5 -34t-33.5 -48q15 -14 36 -13t37.5 6t38.5 -7q107 -26 219 -147l7 110q36 22 64 33t64 10t66 -24q5 -34 -2.5 -127.5t2.5 -130.5q6 -26 6 -105.5t19 -112.5q21 -6 44.5 -3t43 10t39.5 1.5t34 -28.5q5 -35 -0.5 -68 t-16.5 -70.5t-15 -62.5q-47 -10 -128.5 -15.5t-103.5 -8.5q-27 -9 -84 26q-4 3 -6 4l-41 93q-5 -6 -19 -23.5t-21.5 -26t-21.5 -25t-23 -25t-23.5 -22t-25.5 -20t-25.5 -14.5t-27.5 -10.5t-27.5 -3t-28.5 3.5q-24 -28 -55 -32t-69 4t-57 5q-14 9 -44 22t-42 19 q-164 122 -164 270zM84.5 1153.5q-2.5 34.5 5 65t14 69t2.5 64.5q6 15 21 65q37 2 79 23t73.5 45.5t75.5 44t85 18.5q42 9 71 4t56.5 -21.5t48 -38.5t45 -45.5t47 -42.5t54.5 -30t67 -8q18 -2 46 8.5t48 21t40.5 5.5t31.5 -35q-9 -35 -13 -99t-7.5 -109t-28 -89.5 t-72.5 -62.5q-18 -13 -40.5 -14t-36 2.5t-42 16.5t-34.5 15q-27 19 -50.5 52t-38 61t-39.5 54.5t-58 35.5q-40 16 -83.5 13.5t-75.5 -11.5t-70 -28.5t-67 -37.5t-66 -38.5t-67 -32.5q-19 25 -21.5 59.5zM127.5 313q0.5 -43 18.5 -77.5t53 -59.5q57 -39 121.5 -59t134 -13.5 t125.5 43.5q56 33 92.5 83.5t53 116t21.5 126t3 139.5q-7 41 -35 66t-65 47.5t-54 48.5q-12 3 -46 11t-50 11t-43 3t-51 -6q-87 -27 -151.5 -89.5t-94.5 -156.5q-3 -23 -14 -73.5t-15 -84t-3.5 -76.5zM172 1229q24 9 56.5 24t57.5 27.5t56.5 25t59 18.5t59.5 4.5t63 -13.5 q38 -9 71 -36t57.5 -59.5t49.5 -64t59.5 -53.5t76.5 -25q29 14 47 41.5t23 54t11.5 66.5t12.5 61q-6 -1 -30.5 -8t-36.5 -8.5l-32 -4t-36 1.5t-31 13q-31 1 -56.5 14t-42.5 32t-35 41.5t-33.5 42.5t-38 34.5t-48.5 17.5t-66 -8q-17 -10 -48.5 -18t-54 -14t-41.5 -25t-21 -51 q-17 -3 -29.5 -15t-19 -24t-20 -21t-34.5 -6z" />
<glyph unicode="&#xe4;" horiz-adv-x="1191" d="M61 362q9 205 126.5 367.5t289.5 222.5q-4 -9 -31.5 -34t-33.5 -48q15 -14 36 -13t37.5 6t38.5 -7q107 -26 219 -147l7 110q36 22 64 33t64 10t66 -24q5 -34 -2.5 -127.5t2.5 -130.5q6 -26 6 -105.5t19 -112.5q21 -6 44.5 -3t43 10t39.5 1.5t34 -28.5q5 -35 -0.5 -68 t-16.5 -70.5t-15 -62.5q-47 -10 -128.5 -15.5t-103.5 -8.5q-27 -9 -84 26q-4 3 -6 4l-41 93q-5 -6 -19 -23.5t-21.5 -26t-21.5 -25t-23 -25t-23.5 -22t-25.5 -20t-25.5 -14.5t-27.5 -10.5t-27.5 -3t-28.5 3.5q-24 -28 -55 -32t-69 4t-57 5q-14 9 -44 22t-42 19 q-164 122 -164 270zM127.5 313q0.5 -43 18.5 -77.5t53 -59.5q57 -39 121.5 -59t134 -13.5t125.5 43.5q56 33 92.5 83.5t53 116t21.5 126t3 139.5q-7 41 -35 66t-65 47.5t-54 48.5q-12 3 -46 11t-50 11t-43 3t-51 -6q-87 -27 -151.5 -89.5t-94.5 -156.5q-3 -23 -14 -73.5 t-15 -84t-3.5 -76.5zM160 1215.5q0 25.5 0.5 54.5t-0.5 53q-4 35 17.5 63t53.5 39q26 13 53 10t43.5 -11.5t42 -19.5t48.5 -13q38 -38 43 -90.5t-12 -100.5q-47 -43 -108 -62t-124 -10q-29 14 -43 38t-14 49.5zM614 1210q16 43 32 74.5t40 66.5t57.5 58t73.5 33 q49 5 99.5 -34.5t80.5 -88.5q35 -49 -16 -131q-7 -5 -37 -28.5t-43.5 -32.5t-42.5 -24.5t-49 -18t-47.5 2t-52.5 21.5zM714 1228q0 -29 15 -48q25 -15 63 -15t60 15q7 6 21 15.5t23.5 15.5t22 17t16.5 20.5t8 24.5t-3 30q-4 4 -12 13t-12.5 13t-12.5 10t-14.5 8t-16.5 2 t-20 -3q-7 -22 -28.5 -27t-42.5 -1t-37 -5.5t-15 -40.5q-15 -15 -15 -44z" />
<glyph unicode="&#xe5;" horiz-adv-x="1191" d="M61 362q9 205 126.5 367.5t289.5 222.5q-4 -9 -31.5 -34t-33.5 -48q15 -14 36 -13t37.5 6t38.5 -7q107 -26 219 -147l7 110q36 22 64 33t64 10t66 -24q5 -34 -2.5 -127.5t2.5 -130.5q6 -26 6 -105.5t19 -112.5q21 -6 44.5 -3t43 10t39.5 1.5t34 -28.5q5 -35 -0.5 -68 t-16.5 -70.5t-15 -62.5q-47 -10 -128.5 -15.5t-103.5 -8.5q-27 -9 -84 26q-4 3 -6 4l-41 93q-5 -6 -19 -23.5t-21.5 -26t-21.5 -25t-23 -25t-23.5 -22t-25.5 -20t-25.5 -14.5t-27.5 -10.5t-27.5 -3t-28.5 3.5q-24 -28 -55 -32t-69 4t-57 5q-14 9 -44 22t-42 19 q-164 122 -164 270zM127.5 313q0.5 -43 18.5 -77.5t53 -59.5q57 -39 121.5 -59t134 -13.5t125.5 43.5q56 33 92.5 83.5t53 116t21.5 126t3 139.5q-7 41 -35 66t-65 47.5t-54 48.5q-12 3 -46 11t-50 11t-43 3t-51 -6q-87 -27 -151.5 -89.5t-94.5 -156.5q-3 -23 -14 -73.5 t-15 -84t-3.5 -76.5zM315 1110q-22 157 166 317q55 12 109 14.5t106 -21.5t80 -72q63 -104 10 -246q-38 -41 -81.5 -64t-94.5 -27t-92 -0.5t-102 13.5q-80 43 -101 86zM444 1262q-21 -72 17 -166q37 -13 81.5 -16t92 9t78.5 41q35 52 28 146l-51 72q-28 16 -56 18t-55 -10.5 t-46.5 -25.5t-47.5 -36t-41 -32z" />
<glyph unicode="&#xe6;" horiz-adv-x="1130" d="M44 367.5q0 15.5 2 38t9 49.5q36 54 84 73t87 12t96 -20t90 -12q22 13 29.5 37t9 58t6.5 50q-3 33 -28.5 64t-57.5 45q-53 11 -144 -13.5t-131 -23.5v115q7 7 11.5 26t14 32t32.5 13q26 50 114 62q168 -3 297 -119q28 25 71 40.5t76 21t85 10.5q23 -11 64.5 -16t72 -8 t60 -24t40.5 -61q36 -76 46.5 -157.5t-9.5 -167.5q-54 0 -197.5 20.5t-205.5 19.5q-22 -13 -29.5 -37t-9 -58t-6.5 -50q3 -33 28.5 -63.5t57.5 -44.5q54 -11 174 11t157 21v-114q-7 -7 -11.5 -26.5t-13.5 -32.5t-32 -13q-13 -25 -45.5 -41t-69.5 -21q-166 3 -299 117 q-28 -24 -70 -39t-74 -20t-85 -10q-24 11 -65 16t-72 8t-60.5 23.5t-40.5 60.5q-7 15 -20.5 42.5t-18.5 38t-12 31.5t-7 36.5zM119 412l4 -105l57 -94q26 -6 59 -16.5t51 -15t41.5 -5t46.5 11t50 35.5q12 25 14 80t-2 97l-4 42q-38 3 -81 15t-66 16t-66.5 -9t-103.5 -52z M618 590l13 12q46 -4 125.5 -5t145.5 -6.5t126 -21.5l-14 160l-58 94q-7 2 -35.5 8.5t-36.5 8t-32 5.5t-33.5 3.5t-29.5 -0.5t-32 -4.5t-29 -10.5t-32 -16t-30 -24q-60 -127 -48 -203z" />
<glyph unicode="&#xe7;" horiz-adv-x="747" d="M76.5 508q1.5 61 23.5 113q34 57 64.5 99.5t72 88t91.5 75.5t106 42q1 -5 26 -4.5t29 0.5q17 33 49 19.5t46 -46.5l-11 -164q-13 -3 -88 -12.5t-108 -30.5q-25 -9 -43.5 -29t-40.5 -56t-29 -46q-7 -49 16 -89t64 -62q47 -3 129 -42t125 -42q23 -16 24 -38t-9.5 -51 t-10.5 -43q-10 -49 -65 -100q-67 -11 -103 14q-5 0 -62.5 -38t-62.5 -37l18 4q45 5 111 -19q28 -9 54.5 -34t39 -45.5t9.5 -20.5l7 -22q6 -21 5 -50.5t-21 -46.5q-47 -44 -103.5 -64t-96.5 -12q-1 0 -67 8.5t-106 22.5t-48 39q-13 39 16 105q3 7 28.5 -5.5t67.5 -33 t74 -27.5q19 -4 32 5t18 21.5t8.5 27t4.5 16.5q14 19 -129 63q-14 4 -38 11l-25 8q2 11 36.5 50.5t63.5 75t21 39.5q-53 27 -105 76q-3 5 -12.5 23t-18 28t-22.5 17q-27 51 -41.5 104.5t-13 114.5z" />
<glyph unicode="&#xe8;" horiz-adv-x="798" d="M68 399.5q-3 52.5 4.5 104t17 94t24 100.5t21.5 99q18 37 47.5 62t71 38t74 18.5t82.5 10.5q23 -11 64.5 -16t72 -8t60 -24t40.5 -61q36 -76 46.5 -157.5t-9.5 -167.5q-54 0 -169 18.5t-177 17.5q-22 -13 -29.5 -37t-9 -58t-6.5 -50q3 -33 28.5 -64t57.5 -45 q53 -11 143.5 13.5t130.5 23.5v-114q-7 -7 -11.5 -26.5t-13.5 -32.5t-32 -13q-13 -25 -45.5 -41t-69.5 -21q-120 3 -223 64t-174 168q-13 52 -16 104.5zM114 1367q0 2 0.5 6.5t0.5 6.5l41 13q3 16 -1.5 32.5t-9.5 27t-3.5 22t14.5 20.5q2 -13 4 -21.5t7 -16t8 -11.5 t12 -13.5t14 -15.5l186 109q45 -34 72.5 -91.5t37 -111t30 -117t51.5 -102.5q5 -24 -6.5 -37t-28.5 -16.5t-34 -15t-20 -31.5q-38 16 -91 70t-72 67q-21 54 -42.5 90t-60.5 84q-13 4 -27 14.5t-22.5 18t-23.5 12t-29 -3.5q-4 2 -5.5 5.5t-1.5 5.5zM172 594l12 12 q45 -4 140.5 -6t176 -8.5t140.5 -22.5l-14 160l-58 94q-48 11 -72.5 15.5t-71 10t-77 2t-66.5 -16.5t-63 -37q-59 -125 -47 -203zM238 1401q26 -26 53.5 -67t46.5 -73t51.5 -66t71.5 -54q9 30 -7.5 90t-9.5 90l-41 143q-19 14 -43 7t-40.5 -21t-39.5 -30t-42 -19z" />
<glyph unicode="&#xe9;" horiz-adv-x="798" d="M68 399.5q-3 52.5 4.5 104t17 94t24 100.5t21.5 99q18 37 47.5 62t71 38t74 18.5t82.5 10.5q23 -11 64.5 -16t72 -8t60 -24t40.5 -61q36 -76 46.5 -157.5t-9.5 -167.5q-54 0 -169 18.5t-177 17.5q-22 -13 -29.5 -37t-9 -58t-6.5 -50q3 -33 28.5 -64t57.5 -45 q53 -11 143.5 13.5t130.5 23.5v-114q-7 -7 -11.5 -26.5t-13.5 -32.5t-32 -13q-13 -25 -45.5 -41t-69.5 -21q-120 3 -223 64t-174 168q-13 52 -16 104.5zM172 594l12 12q45 -4 140.5 -6t176 -8.5t140.5 -22.5l-14 160l-58 94q-48 11 -72.5 15.5t-71 10t-77 2t-66.5 -16.5 t-63 -37q-59 -125 -47 -203zM244 1163q-3 40 34 98t39 85q5 7 75 92t91 135q144 -22 201 -115v-28q-47 -38 -103.5 -111t-112 -132.5t-116.5 -88.5q-89 16 -108 65z" />
<glyph unicode="&#xea;" horiz-adv-x="798" d="M37 1178q57 26 110.5 75t90 97t85.5 105t91 91q103 -31 194 -101.5t129 -158.5q-6 -20 -0.5 -80.5t-13.5 -85.5q-3 -12 4 -28.5t14 -28t4 -24t-22 -21.5q-48 25 -135 97.5t-103 84.5q-22 30 -43.5 21.5t-35.5 -29t-21 -43.5q-3 -6 -12.5 -27.5t-14.5 -30.5t-15 -28 t-18.5 -29t-19.5 -22t-24 -19t-27 -10q-22 19 -63.5 39.5t-71.5 35.5t-55 46t-27 74zM68 399.5q-3 52.5 4.5 104t17 94t24 100.5t21.5 99q18 37 47.5 62t71 38t74 18.5t82.5 10.5q23 -11 64.5 -16t72 -8t60 -24t40.5 -61q36 -76 46.5 -157.5t-9.5 -167.5q-54 0 -169 18.5 t-177 17.5q-22 -13 -29.5 -37t-9 -58t-6.5 -50q3 -33 28.5 -64t57.5 -45q53 -11 143.5 13.5t130.5 23.5v-114q-7 -7 -11.5 -26.5t-13.5 -32.5t-32 -13q-13 -25 -45.5 -41t-69.5 -21q-120 3 -223 64t-174 168q-13 52 -16 104.5zM133 1149q-1 -17 7.5 -25t20 -9t25 -6.5 t19.5 -16.5q17 -4 29.5 -4t26.5 11.5t24 22.5t22 29.5t20 33t18.5 32.5t16.5 28q18 29 0 51.5t-49 20.5q-5 -6 -26 -30.5t-29.5 -34t-27.5 -29.5t-31.5 -30.5t-30.5 -23t-35 -20.5zM172 594l12 12q45 -4 140.5 -6t176 -8.5t140.5 -22.5l-14 160l-58 94q-48 11 -72.5 15.5 t-71 10t-77 2t-66.5 -16.5t-63 -37q-59 -125 -47 -203zM408 1395l6 -31q-4 9 6 15q1 1 2 1z" />
<glyph unicode="&#xeb;" horiz-adv-x="798" d="M51 1372q-4 35 18 63.5t54 39.5q26 13 53 10t43 -12t41.5 -20t48.5 -13q38 -38 43 -90.5t-12 -100.5q-99 -90 -231 -71q-29 14 -43 38t-14.5 49t0 54t-0.5 53zM68 399.5q-3 52.5 4.5 104t17 94t24 100.5t21.5 99q18 37 47.5 62t71 38t74 18.5t82.5 10.5q23 -11 64.5 -16 t72 -8t60 -24t40.5 -61q36 -76 46.5 -157.5t-9.5 -167.5q-54 0 -169 18.5t-177 17.5q-22 -13 -29.5 -37t-9 -58t-6.5 -50q3 -33 28.5 -64t57.5 -45q53 -11 143.5 13.5t130.5 23.5v-114q-7 -7 -11.5 -26.5t-13.5 -32.5t-32 -13q-13 -25 -45.5 -41t-69.5 -21q-120 3 -223 64 t-174 168q-13 52 -16 104.5zM172 594l12 12q45 -4 140.5 -6t176 -8.5t140.5 -22.5l-14 160l-58 94q-48 11 -72.5 15.5t-71 10t-77 2t-66.5 -16.5t-63 -37q-59 -125 -47 -203zM506 1260q16 42 32 74t40 66.5t57.5 57.5t73.5 33q49 5 99.5 -34.5t80.5 -88.5q35 -48 -17 -131 q-7 -5 -37 -28.5t-43.5 -32.5t-42.5 -24.5t-49 -18t-47.5 2t-52.5 21.5zM606 1277q0 -29 15 -48q25 -15 62.5 -15t59.5 15q7 6 21 15.5t23.5 15.5t22 17t16.5 20.5t8 24.5t-3 30q-4 4 -12 13t-12.5 13t-12.5 10t-14.5 8t-16.5 2t-20 -3q-7 -22 -28 -27t-42 -1t-37 -5.5 t-15 -40.5q-15 -15 -15 -44z" />
<glyph unicode="&#xec;" horiz-adv-x="573" d="M-23 1413l41 12q3 16 -1.5 33t-9.5 27.5t-3.5 22t14.5 20.5q2 -13 4 -21.5t7 -16t8 -11.5t12 -13.5t14 -15.5l187 109q45 -34 72 -91.5t36.5 -111t30 -117t51.5 -102.5q5 -24 -6.5 -37t-28.5 -17t-33.5 -15.5t-19.5 -31.5q-38 16 -91.5 70.5t-72.5 67.5q-36 93 -102 174 q-13 4 -27 14.5t-22.5 18t-23.5 12t-29 -3.5q-7 4 -7 24zM100 1434q30 -31 65.5 -87.5t72 -101.5t86.5 -71q9 30 -7.5 90t-9.5 90l-41 143q-19 14 -43 7t-40.5 -21t-40 -30t-42.5 -19zM100.5 269.5q-5.5 73.5 6 169t8.5 143.5l37 315q15 3 49 11t51 10.5t44 -2t50 -19.5 l43 -51q11 -92 0 -214.5t-21 -207.5t7 -219q35 -31 28 -66q-36 -15 -77.5 -15t-95.5 7.5t-85 7.5q-39 57 -44.5 130.5zM186 221l125 -31q-13 107 10.5 302t24.5 256q6 33 -5.5 53t-34.5 26t-50.5 9t-52.5 0q2 -67 -15 -285t-2 -330z" />
<glyph unicode="&#xed;" horiz-adv-x="573" d="M100.5 269.5q-5.5 73.5 6 169t8.5 143.5l37 315q15 3 49 11t51 10.5t44 -2t50 -19.5l43 -51q11 -92 0 -214.5t-21 -207.5t7 -219q35 -31 28 -66q-36 -15 -77.5 -15t-95.5 7.5t-85 7.5q-39 57 -44.5 130.5zM172 1130q-3 40 34.5 98t39.5 85q5 7 75 92t91 135 q143 -22 200 -115v-28q-47 -38 -103.5 -111t-111.5 -132.5t-116 -88.5q-90 16 -109 65zM186 221l125 -31q-13 107 10.5 302t24.5 256q6 33 -5.5 53t-34.5 26t-50.5 9t-52.5 0q2 -67 -15 -285t-2 -330z" />
<glyph unicode="&#xee;" horiz-adv-x="573" d="M-92 1235q57 26 110.5 75.5t90 97.5t85.5 105t91 91q102 -30 193.5 -101.5t129.5 -159.5q-6 -20 -0.5 -80t-13.5 -85q-3 -12 4 -28.5t14 -28.5t4 -24.5t-22 -21.5q-48 25 -135 97.5t-103 84.5q-22 30 -43.5 21.5t-35.5 -29t-21 -43.5q-3 -6 -12.5 -27.5t-14.5 -30.5 t-15 -28t-18.5 -29t-19.5 -22t-24 -19t-27 -10q-22 19 -63.5 39.5t-71.5 35.5t-55 46t-27 74zM4 1206q-1 -17 7.5 -25t20 -9t25 -6.5t19.5 -16.5q17 -4 29.5 -4t26.5 11.5t24 23t22 30t20 33t18.5 32.5t16.5 28q18 29 0 51t-49 20q-5 -6 -26 -30.5t-29.5 -34t-27.5 -29.5 t-31.5 -30.5t-30.5 -23t-35 -20.5zM100.5 269.5q-5.5 73.5 6 169t8.5 143.5l37 315q15 3 49 11t51 10.5t44 -2t50 -19.5l43 -51q11 -92 0 -214.5t-21 -207.5t7 -219q35 -31 28 -66q-36 -15 -77.5 -15t-95.5 7.5t-85 7.5q-39 57 -44.5 130.5zM186 221l125 -31 q-13 107 10.5 302t24.5 256q6 33 -5.5 53t-34.5 26t-50.5 9t-52.5 0q2 -67 -15 -285t-2 -330zM279 1452l6 -31q-4 9 8 17z" />
<glyph unicode="&#xef;" horiz-adv-x="573" d="M61 1372q-4 35 18 63.5t54 39.5q26 13 53 10t43 -12t41.5 -20t48.5 -13q38 -38 43 -90.5t-12 -100.5q-99 -90 -231 -71q-29 14 -43 38t-14.5 49t0 54t-0.5 53zM100.5 269.5q-5.5 73.5 6 169t8.5 143.5l37 315q15 3 49 11t51 10.5t44 -2t50 -19.5l43 -51q11 -92 0 -214.5 t-21 -207.5t7 -219q35 -31 28 -66q-36 -15 -77.5 -15t-95.5 7.5t-85 7.5q-39 57 -44.5 130.5zM186 221l125 -31q-13 107 10.5 302t24.5 256q6 33 -5.5 53t-34.5 26t-50.5 9t-52.5 0q2 -67 -15 -285t-2 -330zM516 1260q16 42 32 74t40 66.5t57.5 57.5t73.5 33 q49 5 99.5 -34.5t80.5 -88.5q35 -49 -16 -131q-6 -4 -37 -28t-44 -33t-42.5 -24.5t-49.5 -17.5t-47.5 2t-52.5 21zM616 1277q0 -29 15 -48q25 -15 63 -15t60 15q7 6 21 15.5t23.5 15.5t22 17t16.5 20.5t8 24.5t-3 30q-4 4 -12 13t-12.5 13t-12.5 10t-14.5 8t-16.5 2t-20 -3 q-7 -22 -28.5 -27t-42.5 -1t-37 -5.5t-15 -40.5q-15 -15 -15 -44z" />
<glyph unicode="&#xf0;" horiz-adv-x="1392" d="M119 598q9 38 33 67.5t49.5 45.5t60.5 40.5t57 47.5q39 -5 92 3t93 18t86.5 7t81.5 -28q11 1 20 -0.5t19 -8.5t14.5 -10t16.5 -14.5t14 -13.5q16 38 20.5 51t6.5 26.5t0.5 29t2.5 59.5q3 37 -34 86q-4 5 -33.5 -22t-71 -59t-67.5 -34q-29 -2 -52.5 26.5t-39 64.5 t-19.5 40q-3 4 13.5 16.5t42 28l51 31t42 28t13.5 15.5q-66 68 -95.5 115t-9.5 83q0 49 62 93t127 47q4 -3 27 -20t34.5 -26t33.5 -27t36 -31t30 -30.5t27 -33.5q2 -3 19.5 5t41 22.5t42.5 29.5q10 8 25.5 20t23 18t19 12t22.5 7q16 2 26.5 -9t18.5 -29.5t14 -24.5 q4 -4 18 -17.5t21.5 -21.5t17.5 -18.5t14 -17t3 -9.5q3 -4 -10 -10q-5 -2 -112 -42q-113 -42 -113 -67q0 -5 5 -10q126 -132 101 -352q-46 -305 -64 -324q-8 -22 -22.5 -56t-58.5 -107t-87 -107q-34 -26 -90 -51t-96 -36l-39 -12q-189 -79 -397 68q-88 75 -120 188.5 t-7 239.5zM220.5 592.5q0.5 -20.5 6.5 -33.5q4 6 58.5 38.5t102 67.5t42.5 52l-121 -33q-2 -2 -17 -8.5t-32.5 -16.5t-26.5 -22q-13 -24 -12.5 -44.5zM612 1292q68 -62 117.5 -123.5t78 -111.5t42.5 -104t17 -91.5t-4 -84t-14.5 -72t-20.5 -64.5t-17 -53q-13 -37 -14 -84 t-6 -64l-76 -204q36 -1 86 41t89.5 96t67.5 102.5t27 61.5q4 37 11 104q20 153 15.5 260.5t-65 209.5t-211.5 245q-21 17 -62 -8t-61 -56z" />
<glyph unicode="&#xf1;" horiz-adv-x="1054" d="M27.5 1144.5q-2.5 34.5 5 65t14 69t2.5 64.5q5 12 21 66q37 2 79 23t73.5 45.5t75.5 44t85 18.5q42 9 71 4t56.5 -21.5t48 -38.5t45 -45.5t47 -42.5t54.5 -30t67 -8q18 -2 46 8.5t48 21t40.5 5.5t31.5 -35q-9 -35 -13 -99t-7.5 -109t-28 -90t-72.5 -63q-18 -13 -40.5 -14 t-36 3t-41.5 16.5t-35 15.5q-27 19 -51 52t-38.5 61t-39.5 54.5t-58 35.5q-40 16 -83.5 13.5t-75 -11.5t-70 -28.5t-67 -38t-65.5 -39t-67 -32.5q-19 25 -21.5 59.5zM78 195q16 95 23 202.5t10 237.5t8 203q19 20 51 24t61.5 0t65.5 8q4 -5 16 -19t18 -22l16.5 -22t15 -25.5 t9 -25.5t3.5 -28t-6 -28q47 52 103.5 92t120.5 65t132 21.5t127 -40.5q79 -143 97.5 -304.5t-34.5 -322.5q-28 20 -58.5 10.5t-61.5 -23.5t-56 -24.5t-41.5 7.5t-17.5 71q-11 32 -9.5 77t8.5 85t-1 82.5t-37 70.5q-26 -2 -86 1.5t-98 -4t-64 -38.5q-5 -57 3 -185t3 -194 q-144 -33 -303 -16zM115 1221q24 9 56.5 24t57.5 27.5t56.5 25t59 18.5t59.5 4.5t63 -13.5q32 -8 61 -28.5t48.5 -45.5t42.5 -53.5t44 -52t51.5 -40t65.5 -18.5q29 14 47 41.5t23 54t11.5 66.5t12.5 61q-6 -1 -30.5 -7.5t-36 -8.5t-31.5 -4t-36 1.5t-31 12.5q-31 1 -56.5 14 t-42.5 32t-35 41.5t-33.5 42.5t-38 34.5t-48.5 17.5t-66 -8q-18 -10 -63.5 -20t-72.5 -28.5t-30 -59.5q-17 -3 -29.5 -15t-18.5 -24t-19.5 -21t-34.5 -6zM424 637q10 1 47 5t57 4.5t52 0t59 -7t51 -18.5q22 -21 35.5 -48.5t20 -50.5t7.5 -58.5t0 -55.5t-5 -60.5t-5 -54.5 q8 -18 27.5 -20.5t50 5t37.5 7.5q34 190 0 385q-9 75 -49.5 109t-94.5 28.5t-112 -31t-106 -64t-72 -75.5z" />
<glyph unicode="&#xf2;" horiz-adv-x="993" d="M69.5 526q3.5 36 21.5 91t28.5 80t34.5 81q98 102 230 144.5t271 21.5l88 -47q95 -98 125.5 -242t-12.5 -270q-26 -28 -41 -86q-24 -19 -70 -64t-75 -69.5t-76 -42.5t-96 -10q-7 2 -44.5 14t-47.5 15t-44.5 15t-47 17.5t-42 19t-43.5 23.5t-38 26t-38.5 31.5t-31 35.5 t-29.5 42q-18 42 -22 90t-0.5 84zM154 465q12 -17 37 -53t39 -55t39.5 -46.5t47.5 -41.5t54.5 -25t68.5 -11q181 -6 289 113q134 303 14 471q-25 30 -57.5 46.5t-70 16t-71 -5.5t-75.5 -22t-68 -29.5t-63 -31.5q-88 -52 -142 -142t-42 -184zM267 1400q0 2 0.5 6.5t0.5 6.5 l41 12q3 16 -1.5 33t-9.5 27.5t-3.5 22t14.5 20.5q2 -13 4 -21.5t7 -16t8 -11.5t12 -13.5t14 -15.5l187 109q45 -34 72 -91.5t36.5 -111t30 -117t51.5 -102.5q5 -24 -6.5 -37t-28.5 -17t-33.5 -15.5t-19.5 -31.5q-38 16 -91.5 70.5t-72.5 67.5q-36 93 -102 174 q-13 4 -27 14.5t-23 18t-24 12t-29 -3.5q-4 2 -5.5 5.5t-1.5 5.5zM391 1434q26 -26 53.5 -67t46.5 -73t51.5 -66t71.5 -54q9 30 -7 90t-9 90l-41 143q-19 14 -43 7t-40.5 -21t-40 -30t-42.5 -19z" />
<glyph unicode="&#xf3;" horiz-adv-x="993" d="M69.5 526q3.5 36 21.5 91t28.5 80t34.5 81q98 102 230 144.5t271 21.5l88 -47q95 -98 125.5 -242t-12.5 -270q-26 -28 -41 -86q-24 -19 -70 -64t-75 -69.5t-76 -42.5t-96 -10q-7 2 -44.5 14t-47.5 15t-44.5 15t-47 17.5t-42 19t-43.5 23.5t-38 26t-38.5 31.5t-31 35.5 t-29.5 42q-18 42 -22 90t-0.5 84zM154 465q12 -17 37 -53t39 -55t39.5 -46.5t47.5 -41.5t54.5 -25t68.5 -11q181 -6 289 113q134 303 14 471q-25 30 -57.5 46.5t-70 16t-71 -5.5t-75.5 -22t-68 -29.5t-63 -31.5q-88 -52 -142 -142t-42 -184zM324 1171q-3 40 34 98t39 85 q5 7 75 92t91 135q144 -22 201 -115v-28q-47 -38 -103.5 -111t-112 -132.5t-116.5 -88.5q-89 16 -108 65z" />
<glyph unicode="&#xf4;" horiz-adv-x="993" d="M69.5 526q3.5 36 21.5 91t28.5 80t34.5 81q98 102 230 144.5t271 21.5l88 -47q95 -98 125.5 -242t-12.5 -270q-26 -28 -41 -86q-24 -19 -70 -64t-75 -69.5t-76 -42.5t-96 -10q-7 2 -44.5 14t-47.5 15t-44.5 15t-47 17.5t-42 19t-43.5 23.5t-38 26t-38.5 31.5t-31 35.5 t-29.5 42q-18 42 -22 90t-0.5 84zM154 465q12 -17 37 -53t39 -55t39.5 -46.5t47.5 -41.5t54.5 -25t68.5 -11q181 -6 289 113q134 303 14 471q-25 30 -57.5 46.5t-70 16t-71 -5.5t-75.5 -22t-68 -29.5t-63 -31.5q-88 -52 -142 -142t-42 -184zM166 1210q57 26 110.5 75.5 t90 97.5t85.5 105t91 91q103 -31 194 -101.5t129 -158.5q-6 -20 -0.5 -80.5t-13.5 -85.5q-3 -12 4 -28.5t14 -28t4 -24t-22 -21.5q-48 25 -135 97.5t-103 84.5q-22 30 -43.5 21.5t-35.5 -29t-21 -43.5q-3 -6 -12.5 -27.5t-14.5 -30.5t-15 -28t-18.5 -29t-19.5 -22t-24 -19 t-27 -10q-22 19 -63.5 39.5t-71.5 35t-55 45.5t-27 74zM262 1182q-2 -21 12 -28t33.5 -11.5t26.5 -18.5q17 -4 29.5 -4t27 11.5t24.5 23t22 30t20 33t18.5 32.5t16.5 28q19 28 0 51t-50 21q-5 -6 -26 -30.5t-29.5 -34t-27.5 -29.5t-31.5 -30.5t-30.5 -23t-35 -20.5z M537 1427l6 -30q-4 9 6 15q1 1 2 1z" />
<glyph unicode="&#xf5;" horiz-adv-x="993" d="M64.5 1144.5q-2.5 34.5 5 65t14 69t2.5 64.5q1 2 20 66q37 2 79 23t74 45.5t76 44t85 18.5q42 9 71 4t56.5 -21.5t48 -38.5t45 -45.5t47 -42.5t54.5 -30t67 -8q18 -2 46 8.5t48 21t40.5 5.5t31.5 -35q-9 -35 -13 -99t-7.5 -109t-28 -90t-72.5 -63q-18 -13 -40.5 -14 t-36.5 3t-42 16.5t-35 15.5q-27 19 -50.5 52t-38 61t-39.5 54.5t-58 35.5q-40 16 -83.5 13.5t-75 -11.5t-70 -28.5t-67 -38t-65.5 -39t-67 -32.5q-19 25 -21.5 59.5zM69.5 526q3.5 36 21.5 91t28.5 80t34.5 81q98 102 230 144.5t271 21.5l88 -47q95 -98 125.5 -242 t-12.5 -270q-26 -28 -41 -86q-24 -19 -70 -64t-75 -69.5t-76 -42.5t-96 -10q-7 2 -44.5 14t-47.5 15t-44.5 15t-47 17.5t-42 19t-43.5 23.5t-38 26t-38.5 31.5t-31 35.5t-29.5 42q-18 42 -22 90t-0.5 84zM152 1221q24 9 56.5 24t57.5 27.5t56.5 25t59 18.5t59.5 4.5 t63 -13.5q32 -8 61 -28.5t48.5 -45.5t42.5 -53.5t44 -52t51.5 -40t65.5 -18.5q29 14 47 41.5t23 54t11.5 66.5t12.5 61q-6 -1 -30.5 -8t-36.5 -8.5l-32 -4t-36 1.5t-31 13q-35 1 -64 18t-46.5 41t-39 50t-41.5 45t-53 26.5t-75 -6.5q-18 -10 -63.5 -20t-72.5 -28.5 t-30 -59.5q-17 -3 -29.5 -15t-18.5 -24t-19.5 -21t-34.5 -6zM154 465q12 -17 37 -53t39 -55t39.5 -46.5t47.5 -41.5t54.5 -25t68.5 -11q181 -6 289 113q134 303 14 471q-25 30 -57.5 46.5t-70 16t-71 -5.5t-75.5 -22t-68 -29.5t-63 -31.5q-88 -52 -142 -142t-42 -184z" />
<glyph unicode="&#xf6;" horiz-adv-x="993" d="M57 1372q-4 35 18 63.5t54 39.5q26 13 53 10t43 -12t41.5 -20t48.5 -13q38 -38 43 -90.5t-12 -100.5q-99 -90 -231 -71q-29 14 -43 38t-14.5 49t0 54t-0.5 53zM69.5 526q3.5 36 21.5 91t28.5 80t34.5 81q98 102 230 144.5t271 21.5l88 -47q95 -98 125.5 -242t-12.5 -270 q-26 -28 -41 -86q-24 -19 -70 -64t-75 -69.5t-76 -42.5t-96 -10q-7 2 -44.5 14t-47.5 15t-44.5 15t-47 17.5t-42 19t-43.5 23.5t-38 26t-38.5 31.5t-31 35.5t-29.5 42q-18 42 -22 90t-0.5 84zM154 465q12 -17 37 -53t39 -55t39.5 -46.5t47.5 -41.5t54.5 -25t68.5 -11 q181 -6 289 113q134 303 14 471q-25 30 -57.5 46.5t-70 16t-71 -5.5t-75.5 -22t-68 -29.5t-63 -31.5q-88 -52 -142 -142t-42 -184zM512 1260q16 42 32 74t40 66.5t57.5 57.5t73.5 33q49 5 99.5 -34.5t80.5 -88.5q35 -49 -16 -131q-6 -4 -37 -28t-44 -33t-42.5 -24.5 t-49.5 -17.5t-47.5 2t-52.5 21zM612 1277q0 -29 15 -48q25 -15 63 -15t60 15q7 6 21 15.5t23.5 15.5t22 17t16.5 20.5t8 24.5t-3 30q-4 4 -12 13t-12.5 13t-12.5 10t-14.5 8t-16.5 2t-20 -3q-7 -22 -28.5 -27t-42.5 -1t-37 -5.5t-15 -40.5q-15 -15 -15 -44z" />
<glyph unicode="&#xf7;" horiz-adv-x="880" d="M84 461q13 26 14.5 53.5t-2.5 48t-6 41.5t7.5 42t35.5 42q7 16 65.5 30t132.5 13t115 -24q26 -3 79 2t99.5 10.5t97 2.5t77.5 -20q13 -40 -5 -126t1 -132l-54 2q-30 -5 -65 -11q-44 -7 -112 -7h-32l-243 -4q-23 7 -55 4t-61 -9.5t-54.5 3t-34.5 39.5zM174 489q9 0 60 0.5 t93 0t87 -8t63 -22.5q46 13 124 20t124 19q-1 24 15 72.5t8 80.5q-122 -2 -174 -1.5t-207 6t-177 6.5q-23 -70 -16 -173zM295 1032q0 28 10.5 49t30.5 35.5t39 24t45 21t41 20.5q17 6 33 5.5t29.5 -4.5t27.5 -13t24 -18.5t22 -23.5t19 -24t17.5 -24t15.5 -21q16 -23 21 -47 t-4 -52t-15.5 -42.5t-27.5 -48t-25 -40.5q-52 -71 -143 -28q-16 16 -54 48.5t-56.5 51.5t-35 55t-14.5 76zM321.5 120.5q5.5 28.5 14 72.5t0.5 73q19 64 80 103q31 1 57.5 -5t50 -23.5t38.5 -30.5t36 -44.5t28.5 -44t28.5 -49.5q2 -22 -5 -42.5t-24.5 -39.5t-31 -30.5 t-38.5 -29.5t-32 -24q-24 0 -51.5 0.5t-51 1.5t-46.5 11t-39 30q-20 43 -14.5 71.5zM375 1038q-14 -99 57 -159q31 -25 71 -24.5t66 32.5q54 73 45 137q-16 56 -71 81.5t-111 14.5q-44 -40 -57 -82zM573 131h25q5 3 6 7.5t-0.5 9.5t0.5 10q-9 0 -19 -9.5t-12 -17.5z" />
<glyph unicode="&#xf8;" horiz-adv-x="993" d="M69.5 526q3.5 36 21.5 91t28.5 80t34.5 81q148 157 370 170q66 177 90 230q12 19 28 51.5t27 54t28.5 44t35.5 31t45 5t60 -24.5q-6 -7 -14.5 -22t-20 -40.5t-22 -49.5t-26.5 -64.5t-27 -68.5t-31 -78t-31 -78l77 -41q95 -98 125.5 -242t-12.5 -270q-26 -28 -41 -86 q-24 -19 -70 -64t-75 -69.5t-76 -42.5t-96 -10q-123 40 -131 43q-95 -288 -99 -306q14 -26 -15 -53t-65 -30q-24 0 -68 -10q-9 -2 -9 2q0 1 24 69q6 18 12 37q41 94 123 330q-117 57 -178 157q-18 42 -22 90t-0.5 84zM154 465q12 -17 37 -53t39 -55t39.5 -46.5t47.5 -41.5 t54.5 -25t68.5 -11q181 -6 289 113q134 303 14 471q-25 30 -57.5 46.5t-70 16t-71 -5.5t-75.5 -22t-68 -29.5t-63 -31.5q-88 -52 -142 -142t-42 -184z" />
<glyph unicode="&#xf9;" horiz-adv-x="983" d="M43 505.5q-1 43.5 9.5 109.5t18 100t27 108t25.5 99q5 27 23 36.5t42 15t37 21.5q122 -19 166 -94q-38 -178 -88 -377q20 -66 51 -86q173 95 160 432q9 33 34 45.5t54.5 9t63 -5t59.5 2.5q14 -58 16 -118t-3.5 -143.5t-6.5 -115.5q-17 -15 -20.5 -39t-0.5 -55t1 -43 q26 -1 59 -0.5t61.5 1t53 -15.5t33.5 -49q-2 -20 -5.5 -67t-8 -79t-13.5 -57q-20 -1 -59 7t-68.5 6.5t-52.5 -21.5q-25 4 -43.5 17.5t-44.5 39.5q-31 -50 -83 -78.5t-114 -21.5q-263 32 -340 209q-22 50 -32 106.5t-11 100zM120.5 490.5q1.5 -56.5 19.5 -121.5t55 -119 q27 -36 68.5 -49t96 -17.5t82.5 -13.5q39 -10 65 7.5t50.5 58.5t34.5 51q102 253 96 555q-11 -2 -34.5 0.5t-40 -2t-27.5 -21.5q-3 -72 -8.5 -123t-20.5 -111.5t-45 -110t-76 -87.5q-18 -24 -45 -28.5t-52 6t-48 30.5q-36 33 -50 74t-7.5 85.5t18 83.5t28.5 88t23 79 q20 40 0.5 76t-63.5 32q-1 -2 -6 -9t-7 -10t-6.5 -9t-8 -8.5t-8 -4.5t-9.5 -2q-24 -74 -37.5 -124t-26 -124.5t-11 -131zM198 1432.5q0 2.5 0.5 7t0.5 6.5l41 12q3 16 -1.5 33t-9.5 27.5t-3.5 22t14.5 20.5q2 -13 4 -21.5t7 -16t8 -11.5t12 -13.5t14 -15.5l186 108 q45 -34 72.5 -91.5t37 -111t30 -117t51.5 -102.5q5 -24 -6.5 -37t-28.5 -16.5t-34 -15t-20 -31.5q-38 16 -91 70t-72 67q-21 54 -42.5 90t-60.5 84q-13 4 -27 14.5t-22.5 18t-23.5 12t-29 -3.5q-3 2 -5 5.5t-2 6zM322 1466q26 -26 53.5 -67t46.5 -73t51.5 -66t71.5 -54 q9 30 -7.5 90t-9.5 90l-41 144q-19 14 -43 7t-40.5 -21t-39.5 -30.5t-42 -19.5z" />
<glyph unicode="&#xfa;" horiz-adv-x="983" d="M43 505.5q-1 43.5 9.5 109.5t18 100t27 108t25.5 99q5 27 23 36.5t42 15t37 21.5q122 -19 166 -94q-38 -178 -88 -377q20 -66 51 -86q173 95 160 432q9 33 34 45.5t54.5 9t63 -5t59.5 2.5q14 -58 16 -118t-3.5 -143.5t-6.5 -115.5q-17 -15 -20.5 -39t-0.5 -55t1 -43 q26 -1 59 -0.5t61.5 1t53 -15.5t33.5 -49q-2 -20 -5.5 -67t-8 -79t-13.5 -57q-20 -1 -59 7t-68.5 6.5t-52.5 -21.5q-25 4 -43.5 17.5t-44.5 39.5q-31 -50 -83 -78.5t-114 -21.5q-263 32 -340 209q-22 50 -32 106.5t-11 100zM120.5 490.5q1.5 -56.5 19.5 -121.5t55 -119 q27 -36 68.5 -49t96 -17.5t82.5 -13.5q39 -10 65 7.5t50.5 58.5t34.5 51q102 253 96 555q-11 -2 -34.5 0.5t-40 -2t-27.5 -21.5q-3 -72 -8.5 -123t-20.5 -111.5t-45 -110t-76 -87.5q-18 -24 -45 -28.5t-52 6t-48 30.5q-36 33 -50 74t-7.5 85.5t18 83.5t28.5 88t23 79 q20 40 0.5 76t-63.5 32q-1 -2 -6 -9t-7 -10t-6.5 -9t-8 -8.5t-8 -4.5t-9.5 -2q-24 -74 -37.5 -124t-26 -124.5t-11 -131zM369 1188q-3 40 34 97.5t39 84.5q5 7 75 92t91 135q145 -22 201 -114v-29q-47 -38 -103.5 -111t-112 -132.5t-116.5 -88.5q-89 16 -108 66z" />
<glyph unicode="&#xfb;" horiz-adv-x="983" d="M43 505.5q-1 43.5 9.5 109.5t18 100t27 108t25.5 99q5 27 23 36.5t42 15t37 21.5q122 -19 166 -94q-38 -178 -88 -377q20 -66 51 -86q173 95 160 432q9 33 34 45.5t54.5 9t63 -5t59.5 2.5q14 -58 16 -118t-3.5 -143.5t-6.5 -115.5q-17 -15 -20.5 -39t-0.5 -55t1 -43 q26 -1 59 -0.5t61.5 1t53 -15.5t33.5 -49q-2 -20 -5.5 -67t-8 -79t-13.5 -57q-20 -1 -59 7t-68.5 6.5t-52.5 -21.5q-25 4 -43.5 17.5t-44.5 39.5q-31 -50 -83 -78.5t-114 -21.5q-263 32 -340 209q-22 50 -32 106.5t-11 100zM63 1243q57 26 110.5 75.5t90 97.5t85.5 105 t91 91q103 -31 194.5 -102t129.5 -158q-6 -20 -0.5 -80.5t-13.5 -85.5q-3 -12 4 -28.5t14 -28.5t4 -24.5t-22 -21.5q-48 25 -134 97.5t-104 85.5q-16 21 -32.5 22.5t-30 -12t-23 -29.5t-14.5 -33q-2 -5 -12.5 -27t-15 -30.5t-14.5 -28t-18 -29t-20 -22t-24.5 -19t-26.5 -9.5 q-22 19 -63.5 39.5t-72 35t-55.5 45.5t-27 74zM120.5 490.5q1.5 -56.5 19.5 -121.5t55 -119q27 -36 68.5 -49t96 -17.5t82.5 -13.5q39 -10 65 7.5t50.5 58.5t34.5 51q102 253 96 555q-11 -2 -34.5 0.5t-40 -2t-27.5 -21.5q-3 -72 -8.5 -123t-20.5 -111.5t-45 -110t-76 -87.5 q-18 -24 -45 -28.5t-52 6t-48 30.5q-36 33 -50 74t-7.5 85.5t18 83.5t28.5 88t23 79q20 40 0.5 76t-63.5 32q-1 -2 -6 -9t-7 -10t-6.5 -9t-8 -8.5t-8 -4.5t-9.5 -2q-24 -74 -37.5 -124t-26 -124.5t-11 -131zM160 1214q-1 -17 7 -25t20 -9t25 -6.5t19 -16.5q17 -4 29.5 -4 t27 11.5t24.5 23t22 30t20 33t18.5 32.5t16.5 28q18 29 0 51t-49 20q-5 -6 -26 -30.5t-29.5 -34t-27.5 -29.5t-31.5 -30.5t-30.5 -23t-35 -20.5zM434 1460l6 -30q-1 3 -1 5t1 4t2 2.5t3.5 2.5t3.5 2z" />
<glyph unicode="&#xfc;" horiz-adv-x="983" d="M43 505.5q-1 43.5 9.5 109.5t18 100t27 108t25.5 99q5 27 23 36.5t42 15t37 21.5q122 -19 166 -94q-38 -178 -88 -377q20 -66 51 -86q173 95 160 432q9 33 34 45.5t54.5 9t63 -5t59.5 2.5q14 -58 16 -118t-3.5 -143.5t-6.5 -115.5q-17 -15 -20.5 -39t-0.5 -55t1 -43 q26 -1 59 -0.5t61.5 1t53 -15.5t33.5 -49q-2 -20 -5.5 -67t-8 -79t-13.5 -57q-20 -1 -59 7t-68.5 6.5t-52.5 -21.5q-25 4 -43.5 17.5t-44.5 39.5q-31 -50 -83 -78.5t-114 -21.5q-263 32 -340 209q-22 50 -32 106.5t-11 100zM70 1265q0 25 0.5 54t-0.5 53q-4 35 17.5 63.5 t53.5 39.5q26 13 53 10t43.5 -12t42 -20t48.5 -13q38 -38 42.5 -91t-12.5 -100q-99 -90 -231 -71q-29 14 -43 38t-14 49zM120.5 490.5q1.5 -56.5 19.5 -121.5t55 -119q27 -36 68.5 -49t96 -17.5t82.5 -13.5q39 -10 65 7.5t50.5 58.5t34.5 51q102 253 96 555 q-11 -2 -34.5 0.5t-40 -2t-27.5 -21.5q-3 -72 -8.5 -123t-20.5 -111.5t-45 -110t-76 -87.5q-18 -24 -45 -28.5t-52 6t-48 30.5q-36 33 -50 74t-7.5 85.5t18 83.5t28.5 88t23 79q20 40 0.5 76t-63.5 32q-1 -2 -6 -9t-7 -10t-6.5 -9t-8 -8.5t-8 -4.5t-9.5 -2 q-24 -74 -37.5 -124t-26 -124.5t-11 -131zM524 1260q16 42 32 74t40 66.5t57.5 57.5t73.5 33q49 5 99.5 -34.5t80.5 -88.5q35 -49 -16 -131q-6 -4 -37 -28t-44 -33t-42.5 -24.5t-49.5 -17.5t-47.5 2t-52.5 21zM624 1277q0 -29 15 -48q25 -15 63 -15t60 15q7 6 21 15.5 t23.5 15.5t22 17t16.5 20.5t8 24.5t-3 30q-4 4 -12 13t-12.5 13t-12.5 10t-14.5 8t-16.5 2t-20 -3q-7 -22 -28.5 -27t-42.5 -1t-37 -5.5t-15 -40.5q-15 -15 -15 -44z" />
<glyph unicode="&#xfd;" horiz-adv-x="1173" d="M18 811q5 6 18 13.5t20.5 15.5t6.5 22q19 8 53.5 29.5t58 35t53.5 14t53 -22.5q40 -34 70.5 -87t48 -101t45 -104.5t59.5 -93.5q-14 -18 5 -44.5t19 -36.5q41 61 109.5 127.5t129 130t93.5 131.5q8 2 30.5 8t34 8.5t30 4.5t32.5 1q12 -25 38.5 -50t48 -42t36 -44.5 t8.5 -61.5q-21 -53 -65.5 -89t-99 -68.5t-81.5 -64.5q-63 -66 -164.5 -159t-174 -159.5t-155 -162.5t-136.5 -192q-83 -41 -164 -23q-49 59 -41 178q44 63 152 159t147 161q-31 83 -96.5 182.5t-129 198.5t-92.5 186zM82 811l41 -92v20h-8q-12 11 -12.5 34.5t6.5 37.5h-27z M109 -90q-33 -35 0 -98q37 -7 71 11.5t54.5 44.5t50.5 67.5t47 60.5q348 403 712 659l11 35q-53 64 -81 83q-63 40 -110 -28q-37 -60 -104 -129.5t-128.5 -138.5t-94.5 -141q-4 -3 -13 -10t-12.5 -10.5t-11 -9.5t-11.5 -10.5t-9 -11t-8.5 -13t-6.5 -13.5q-9 3 -19 -6.5 t-15 -15t-17 7.5q-36 -58 -89.5 -115t-116.5 -116.5t-99 -102.5zM209 578h14v20q2 6 -3 11.5t-11 2.5v-34zM393 1163q-3 40 34.5 98t39.5 85q5 7 75 92t91 135q144 -22 201 -115v-28q-47 -38 -103.5 -111t-112 -132.5t-116.5 -88.5q-90 16 -109 65z" />
<glyph unicode="&#xfe;" horiz-adv-x="1116" d="M84 1270l22 155q201 57 490 -6l29 -65l-52 -527q34 14 43 18t44 16.5t51.5 15t49.5 7t56 0t52 -15t55 -28.5q72 -63 98.5 -157t5.5 -198q-8 -41 -35.5 -67.5t-69 -51.5t-61.5 -47q-32 4 -76 -3t-77 -15t-72 -5t-68 23q-13 -2 -26.5 4.5t-20.5 13.5t-20 21 q-24 -55 -35 -132.5t-13 -142t-17.5 -142t-47.5 -134.5q0 -51 -19 -89.5t-65 -41.5q-23 13 -52 9t-53.5 -15t-42.5 -0.5t-20 51.5q26 174 79.5 776t64.5 699q-21 17 -53.5 18.5t-58 -3t-50 8.5t-35.5 50zM167.5 1347.5q0.5 -12.5 3 -22.5t5.5 -16q13 -16 30.5 -16t40 8 t34.5 8q29 -11 52.5 -41t26.5 -62q-14 -139 -48.5 -457.5t-51.5 -498.5q25 -16 73.5 -22t67.5 14q2 5 3.5 10.5t3 18.5t3.5 29t6.5 51t10.5 77q3 17 26.5 122t30.5 173q8 76 17 219t19 247.5t26 158.5q-136 54 -354 32q-14 -1 -20 -10.5t-5.5 -22zM764 358l80 23 q61 20 88 76q27 55 14 84q-12 -19 -94 -101q-36 -36 -88 -82z" />
<glyph unicode="&#xff;" horiz-adv-x="1173" d="M18 811q5 6 18 13.5t20.5 15.5t6.5 22q19 8 53.5 29.5t58 35t53.5 14t53 -22.5q40 -34 70.5 -87t48 -101t45 -104.5t59.5 -93.5q-14 -18 5 -44.5t19 -36.5q41 61 109.5 127.5t129 130t93.5 131.5q8 2 30.5 8t34 8.5t30 4.5t32.5 1q12 -25 38.5 -50t48 -42t36 -44.5 t8.5 -61.5q-21 -53 -65.5 -89t-99 -68.5t-81.5 -64.5q-63 -66 -164.5 -159t-174 -159.5t-155 -162.5t-136.5 -192q-83 -41 -164 -23q-49 59 -41 178q44 63 152 159t147 161q-31 83 -96.5 182.5t-129 198.5t-92.5 186zM82 811l41 -92v20h-8q-12 11 -12.5 34.5t6.5 37.5h-27z M109 -90q-33 -35 0 -98q37 -7 71 11.5t54.5 44.5t50.5 67.5t47 60.5q348 403 712 659l11 35q-53 64 -81 83q-63 40 -110 -28q-37 -60 -104 -129.5t-128.5 -138.5t-94.5 -141q-4 -3 -13 -10t-12.5 -10.5t-11 -9.5t-11.5 -10.5t-9 -11t-8.5 -13t-6.5 -13.5q-9 3 -19 -6.5 t-15 -15t-17 7.5q-36 -58 -89.5 -115t-116.5 -116.5t-99 -102.5zM184 1233q-4 34 18 62t54 40q26 13 53 10t43 -12t41.5 -20t48.5 -13q38 -38 43 -90t-12 -100q-48 -43 -108 -62t-123 -10q-29 14 -43 38t-14.5 49.5t0 54.5t-0.5 53zM209 578h14v20q2 6 -3 11.5t-11 2.5v-34z M639 1120q16 43 32 74.5t40 66.5t57.5 58t73.5 33q49 5 99.5 -34.5t80.5 -88.5q35 -49 -16 -131q-6 -4 -37 -28t-44 -33t-42.5 -24.5t-49.5 -17.5t-47.5 2t-52.5 21zM739 1138q0 -29 15 -48q25 -15 63 -15t60 15q8 6 21.5 15t23 15.5t21.5 17.5t16.5 20t8.5 24t-3 30 q-4 4 -12 13t-12.5 13t-12.5 10t-14.5 8t-16.5 2t-20 -3q-7 -22 -28.5 -27t-42.5 -0.5t-37 -5t-15 -40.5q-15 -15 -15 -44z" />
<glyph unicode="&#x152;" horiz-adv-x="1646" d="M74 739q57 174 151.5 284t243.5 167q30 -1 74 -1t65 -0.5t52 -4.5t57.5 -13t58.5 -24l8 164q14 20 32.5 22t36 -3.5t40.5 3.5q25 2 76 9t82.5 10t76 -1t80.5 -18q48 -8 174 -7t166 -15q19 -36 23 -92t1 -100.5t7 -96.5l-14 -25q-68 22 -149 29.5t-177.5 9t-144.5 6.5 q-3 2 -9 10t-12 12.5t-14 0.5q2 -17 -4 -55t-8.5 -65.5t12 -51t51.5 -25.5q192 17 360 -14q26 -21 33 -53t1.5 -62t-6.5 -64t9 -59q-107 -55 -225 -36q-78 29 -223 8q13 -23 6.5 -58t-11.5 -74t-5.5 -71t24.5 -49.5t78 -9.5q41 -1 100 -8.5t101 -13t99 -7.5t93 8 q17 0 27.5 -7.5t16 -24t7.5 -25.5t4 -29q-3 -13 -5 -40.5t-4.5 -45t-13.5 -37t-32 -28.5q0 -20 -15.5 -35.5t-28.5 -21.5t-38 -15q-35 16 -67.5 20.5t-77.5 4t-72 2.5q-87 9 -266.5 11.5t-300.5 24.5q-44 8 -117.5 17t-114.5 15.5t-94.5 27.5t-95.5 55 q-115 115 -166.5 258.5t-15.5 306.5zM154 422l122 -162q22 -44 64 -62.5t83 -18t90 -3t77 -18.5q162 -43 287 73q17 16 36.5 44t30.5 49l10 20q3 20 12 58.5t16.5 74t14 78t6 88.5t-9.5 88q-23 108 -65.5 184.5t-118.5 147.5q-62 32 -127.5 40.5t-169.5 8.5 q-33 -15 -57 -28.5t-73 -45t-99 -61.5q-222 -216 -129 -555z" />
<glyph unicode="&#x153;" horiz-adv-x="1511" d="M69.5 526q3.5 36 21.5 91t28.5 80t34.5 81q98 102 230 144.5t271 21.5l88 -47q78 -81 115 -199q12 50 21 99q18 37 47.5 62t71 38t73.5 18.5t82 10.5q23 -11 64.5 -16t72.5 -8t60.5 -24t40.5 -61q78 -167 36 -325q-54 0 -169 18.5t-177 17.5q-22 -13 -29.5 -37t-9 -58 t-6.5 -50q3 -33 28.5 -64t57.5 -45q53 -11 144 13.5t131 23.5v-114q-7 -7 -11.5 -26.5t-14 -32.5t-32.5 -13q-26 -50 -114 -62q-133 3 -186 16q-123 31 -193 156q-17 29 -31 64q-24 -19 -70 -64t-75 -69.5t-76 -42.5t-96 -10q-7 2 -44.5 14t-47.5 15t-44.5 15t-47 17.5 t-42 19t-43.5 23.5t-38 26t-38.5 31.5t-31 35.5t-29.5 42q-18 42 -22 90t-0.5 84zM154 465q12 -17 37 -53t39 -55t39.5 -46.5t47.5 -41.5t54.5 -25t68.5 -11q181 -6 289 113q134 303 14 471q-25 30 -57.5 46.5t-70 16t-71 -5.5t-75.5 -22t-68 -29.5t-63 -31.5 q-88 -52 -142 -142t-42 -184zM915 594l13 12q45 -4 140 -6t175.5 -8.5t140.5 -22.5l-14 160l-57 94q-48 11 -72.5 15.5t-71 10t-77 2t-66.5 -16.5t-63 -37q-60 -127 -48 -203z" />
<glyph unicode="&#x178;" horiz-adv-x="1146" d="M55 1167q170 63 238 146q55 -13 94.5 -54.5t58.5 -87t46 -105t55 -93.5q12 -11 21 -41t21 -46t38 -7q11 43 39 85t60 76t63.5 69t54.5 78t28 89q34 17 50.5 0.5t31 -49.5t35.5 -43q9 -23 31.5 -41.5t43.5 -28t39.5 -25t19 -32t-18.5 -49.5q-38 -61 -110 -144.5 t-129.5 -161t-86.5 -155.5q-31 -46 -47.5 -100t-20 -91t-5.5 -111t-5 -110l-24 -14l-230 8q-18 34 -25.5 87.5t-7 94.5t4.5 109t4 92q-16 0 -26 10.5t-14.5 23t-15.5 22t-28 7.5q-11 60 -42.5 123t-68 116.5t-73.5 108.5t-64.5 118.5t-34.5 125.5zM121 1147q8 -54 36 -109 t63 -101t70 -92.5t62.5 -101t34.5 -108.5q17 11 35 3t28 -19.5t25.5 -27.5t28.5 -22q44 -7 116.5 30t100.5 42q74 142 260 332q37 23 44.5 45t-9.5 41.5t-39.5 36t-46 34.5t-29.5 31q-8 -35 -33 -71t-52 -62.5t-57.5 -62.5t-45.5 -66q4 -29 -11.5 -53.5t-44 -51.5t-39.5 -44 q-30 -21 -63 20q-22 90 -105 237t-106 205l-41 13q-35 -26 -59 -41.5t-59 -28t-64 -8.5zM176 1428.5q0 25.5 0.5 54.5t-0.5 53q-4 34 18 62t54 40q26 13 53 10t43 -11.5t41.5 -19.5t48.5 -13q38 -38 43 -90.5t-12 -100.5q-47 -43 -108 -62t-124 -10q-29 14 -43 38t-14 49.5z M604 201h23l12 129q3 -23 -4 -47t-17.5 -47.5t-13.5 -34.5zM631 1423q16 43 32 74.5t40 66.5t57.5 58t73.5 33q49 5 99.5 -34.5t80.5 -88.5q35 -48 -17 -131q-7 -5 -37 -28.5t-43.5 -32.5t-42.5 -24.5t-49 -18t-47.5 2t-52.5 21.5zM730 1441q0 -29 15 -48q25 -15 63 -15 t60 15q7 6 21 15.5t23.5 15.5t22 17t16.5 20.5t8 24.5t-3 30q-4 4 -12 13t-12.5 13t-12.5 10t-14.5 8t-16.5 2t-20 -3q-7 -22 -28.5 -27t-42.5 -1t-37 -5.5t-15 -40.5q-15 -15 -15 -44z" />
<glyph unicode="&#x2c6;" horiz-adv-x="798" d="M14 1243q57 26 110.5 75.5t90 97.5t85.5 105t91 91q103 -31 194.5 -102t129.5 -158q-6 -20 -1 -80.5t-14 -85.5q-3 -12 4 -28.5t14 -28.5t4 -24.5t-22 -21.5q-48 25 -133 97t-104 86q-22 30 -43.5 21t-36 -29.5t-21.5 -43.5q-2 -5 -12.5 -27t-15 -30.5t-14.5 -28t-18 -29 t-20 -22t-24.5 -19t-26.5 -9.5q-22 19 -63.5 39.5t-71.5 35t-55 45.5t-27 74zM111 1214q-1 -17 7 -25t20 -9t25 -6.5t19 -16.5q17 -4 29.5 -4t27 11.5t24.5 23t22 30t20 33t18.5 32.5t16.5 28q18 29 0 51t-49 20q-5 -6 -26 -30.5t-29.5 -34t-27.5 -29.5t-31.5 -30.5 t-30.5 -23t-35 -20.5zM385 1460l6 -30q-4 9 6 15q1 1 2 1z" />
<glyph unicode="&#x2dc;" horiz-adv-x="976" d="M114.5 1169.5q-1.5 27.5 4 52t10.5 55.5t2 52q7 13 16 51q37 2 80 29t87 52.5t85 25.5q42 10 76 -2t59 -37t49 -50.5t56.5 -43.5t71.5 -15q12 -2 29 4.5t31 13t28.5 11t26 -2t18.5 -26.5q-7 -28 -10.5 -79t-6.5 -86.5t-23 -71t-59 -49.5q-14 -11 -32.5 -12t-28 1.5 t-33.5 13.5t-28 13q-21 15 -40 41t-30.5 48.5t-31.5 43.5t-46 29q-32 13 -67 10.5t-60.5 -9.5t-56 -22.5t-53.5 -30t-53 -31.5t-54 -26q-15 20 -16.5 47.5zM184 1231q22 8 54 23.5t56.5 26.5t53.5 20.5t59 9t60 -12.5q30 -7 56.5 -28t46 -46.5t39.5 -50.5t47.5 -43t60.5 -20 q31 14 44.5 41t20.5 75t11 62q-5 -1 -24.5 -6.5t-29.5 -7.5t-26 -3.5t-29 1.5t-25 10q-28 1 -51 15t-37.5 33t-31.5 40t-33 36t-43 20.5t-60 -5.5q-14 -8 -50.5 -15.5t-58 -22.5t-24.5 -48q-17 -2 -27.5 -17t-22 -27t-32.5 -9z" />
<glyph unicode="&#x2000;" horiz-adv-x="1051" />
<glyph unicode="&#x2001;" horiz-adv-x="2103" />
<glyph unicode="&#x2002;" horiz-adv-x="1051" />
<glyph unicode="&#x2003;" horiz-adv-x="2103" />
<glyph unicode="&#x2004;" horiz-adv-x="701" />
<glyph unicode="&#x2005;" horiz-adv-x="525" />
<glyph unicode="&#x2006;" horiz-adv-x="350" />
<glyph unicode="&#x2007;" horiz-adv-x="350" />
<glyph unicode="&#x2008;" horiz-adv-x="262" />
<glyph unicode="&#x2009;" horiz-adv-x="420" />
<glyph unicode="&#x200a;" horiz-adv-x="116" />
<glyph unicode="&#x2010;" horiz-adv-x="849" d="M92 383q16 32 19 81.5t0.5 91t9.5 85t43 68.5q42 -30 146 -43.5t145 -36.5q30 -4 83.5 1t98.5 2.5t80 -24.5q13 -40 -3 -123t3 -129l-31 -30q-81 -9 -122 -7.5t-116.5 7.5t-123.5 6l-27 14q-23 7 -55 4t-61 -9.5t-54.5 3t-34.5 39.5zM180 428q34 -10 64 -7t66.5 -1 t58.5 -23q46 13 137 3t137 3q-1 24 15 73t8 81q-76 -4 -242 18.5t-223 24.5q-27 -83 -21 -172z" />
<glyph unicode="&#x2011;" horiz-adv-x="849" d="M92 383q16 32 19 81.5t0.5 91t9.5 85t43 68.5q42 -30 146 -43.5t145 -36.5q30 -4 83.5 1t98.5 2.5t80 -24.5q13 -40 -3 -123t3 -129l-31 -30q-81 -9 -122 -7.5t-116.5 7.5t-123.5 6l-27 14q-23 7 -55 4t-61 -9.5t-54.5 3t-34.5 39.5zM180 428q34 -10 64 -7t66.5 -1 t58.5 -23q46 13 137 3t137 3q-1 24 15 73t8 81q-76 -4 -242 18.5t-223 24.5q-27 -83 -21 -172z" />
<glyph unicode="&#x2012;" horiz-adv-x="849" d="M92 383q16 32 19 81.5t0.5 91t9.5 85t43 68.5q42 -30 146 -43.5t145 -36.5q30 -4 83.5 1t98.5 2.5t80 -24.5q13 -40 -3 -123t3 -129l-31 -30q-81 -9 -122 -7.5t-116.5 7.5t-123.5 6l-27 14q-23 7 -55 4t-61 -9.5t-54.5 3t-34.5 39.5zM180 428q34 -10 64 -7t66.5 -1 t58.5 -23q46 13 137 3t137 3q-1 24 15 73t8 81q-76 -4 -242 18.5t-223 24.5q-27 -83 -21 -172z" />
<glyph unicode="&#x2013;" horiz-adv-x="757" d="M133 627q14 16 48 14t52 6q43 -4 115.5 1t127.5 -1.5t104 -36.5q0 -20 -5.5 -64t-6.5 -70.5t14 -60.5t49 -57q8 -37 -21 -43l-434 23q-26 26 -33 66.5t-1 76.5t6 77.5t-15 68.5z" />
</font>
</defs>
</svg>
